# Blender 5.1.0
# www.blender.org
o Chassis_havok_s_leftTrack_0
v -0.724444 0.029291 1.394356
v -0.724444 0.117501 1.833618
v -0.724444 0.647217 1.789289
v -0.724444 0.751047 1.204949
v -1.244287 0.029291 1.394356
v -1.244287 0.751047 1.204949
v -1.244287 0.647217 1.789289
v -1.244287 0.117501 1.833618
v -1.244287 0.003104 1.196889
v -0.724444 0.003104 1.196889
v -1.244287 0.609544 1.938396
v -0.724444 0.609544 1.938396
v -1.244287 0.522713 2.051234
v -0.724444 0.522713 2.051234
v -0.724444 0.398668 2.095564
v -1.244287 0.398668 2.095564
v -0.724444 0.280137 2.075414
v -1.244287 0.280137 2.075414
v -1.244287 0.189171 2.002875
v -0.724444 0.189171 2.002875
v -0.724444 0.943546 -1.777200
v -0.724444 0.003104 -1.192860
v -1.244287 0.003104 -1.192860
v -1.244287 0.943546 -1.777200
v -1.244287 0.046749 -1.378237
v -0.724444 0.046749 -1.378237
v -0.724444 0.519497 -1.950486
v -1.244287 0.519497 -1.950486
v -0.724444 0.751966 -2.027056
v -0.724444 0.853039 -1.978696
v -1.244287 0.853039 -1.978696
v -1.244287 0.751966 -2.027056
v -1.244287 0.637569 -2.027056
v -0.724444 0.637569 -2.027056
v -1.244287 0.919656 -1.894068
v -0.724444 0.919656 -1.894068
vn -0.0000 0.9734 0.2292
vn -0.0000 0.7709 0.6369
vn -1.0000 -0.0000 -0.0000
vn 1.0000 -0.0000 -0.0000
vn -0.0000 -0.9979 -0.0644
vn -0.0000 1.0000 -0.0000
vn -0.0000 -0.9797 0.2003
vn -0.0000 -0.7858 0.6185
vn -0.0000 -0.0000 1.0000
vn -0.0000 -0.4316 0.9021
vn -0.0000 0.5441 0.8390
vn -0.0000 -0.3365 -0.9417
vn -0.0000 -0.9695 -0.2450
vn -0.0000 -0.7925 -0.6099
vn -0.0000 0.1676 -0.9859
vn -0.0000 -0.9846 -0.1749
vn -0.0000 0.9913 -0.1315
vn -0.0000 0.9804 -0.1969
vn -0.0000 0.6235 -0.7819
vn -0.0000 0.6235 -0.7818
vn -0.0000 0.9208 -0.3899
s 0
f 22//1 26//1 25//1
f 22//1 25//1 23//1
f 27//2 28//2 25//2
f 27//2 25//2 26//2
f 21//3 27//3 26//3
f 21//3 26//3 22//3
f 25//4 28//4 24//4
f 25//4 24//4 23//4
f 1//3 4//3 10//3
f 24//5 21//5 4//5
f 24//5 4//5 6//5
f 23//4 24//4 6//4
f 23//4 6//4 9//4
f 5//4 9//4 6//4
f 22//6 23//6 9//6
f 22//6 9//6 10//6
f 35//7 36//7 21//7
f 35//7 21//7 24//7
f 30//8 36//8 35//8
f 30//8 35//8 31//8
f 29//3 34//3 27//3
f 29//3 27//3 30//3
f 36//3 30//3 27//3
f 36//3 27//3 21//3
f 28//4 33//4 32//4
f 28//4 32//4 31//4
f 33//9 34//9 29//9
f 33//9 29//9 32//9
f 31//10 32//10 29//10
f 31//10 29//10 30//10
f 28//4 31//4 35//4
f 28//4 35//4 24//4
f 34//11 33//11 28//11
f 34//11 28//11 27//11
f 15//12 16//12 13//12
f 15//12 13//12 14//12
f 3//13 12//13 11//13
f 3//13 11//13 7//13
f 12//14 14//14 13//14
f 12//14 13//14 11//14
f 17//15 18//15 16//15
f 17//15 16//15 15//15
f 3//16 7//16 6//16
f 3//16 6//16 4//16
f 7//4 8//4 5//4
f 7//4 5//4 6//4
f 3//3 4//3 1//3
f 3//3 1//3 2//3
f 1//17 10//17 9//17
f 1//17 9//17 5//17
f 1//18 5//18 8//18
f 1//18 8//18 2//18
f 18//4 19//4 11//4
f 11//4 19//4 8//4
f 11//4 8//4 7//4
f 4//3 21//3 22//3
f 4//3 22//3 10//3
f 16//4 18//4 11//4
f 16//4 11//4 13//4
f 12//3 17//3 15//3
f 12//3 15//3 14//3
f 20//19 19//19 18//19
f 20//20 18//20 17//20
f 19//21 20//21 2//21
f 19//21 2//21 8//21
f 17//3 12//3 20//3
f 2//3 20//3 12//3
f 2//3 12//3 3//3
o Chassis_havok_s_rightTrack_1
v 0.724450 0.647217 1.789289
v 0.724450 0.117501 1.833618
v 0.724450 0.029291 1.394356
v 0.724450 0.751047 1.204949
v 1.244296 0.647217 1.789289
v 1.244296 0.751047 1.204949
v 1.244296 0.029291 1.394356
v 1.244296 0.117501 1.833618
v 1.244296 0.003104 1.196889
v 0.724450 0.003104 1.196889
v 1.244296 0.609544 1.938396
v 0.724450 0.609544 1.938396
v 1.244296 0.522713 2.051234
v 1.244296 0.398668 2.095564
v 0.724450 0.398668 2.095564
v 0.724450 0.522713 2.051234
v 0.724450 0.280137 2.075414
v 1.244296 0.280137 2.075414
v 0.724450 0.189171 2.002875
v 1.244296 0.189171 2.002875
v 0.724450 0.003104 -1.192860
v 0.724450 0.943546 -1.777200
v 1.244296 0.003104 -1.192860
v 1.244296 0.943546 -1.777200
v 1.244296 0.046749 -1.378237
v 1.244296 0.519497 -1.950486
v 0.724450 0.519497 -1.950486
v 0.724450 0.046749 -1.378237
v 0.724450 0.751966 -2.027056
v 1.244296 0.751966 -2.027056
v 1.244296 0.853039 -1.978696
v 0.724450 0.853039 -1.978696
v 0.724450 0.637569 -2.027056
v 1.244296 0.637569 -2.027056
v 1.244296 0.919656 -1.894068
v 0.724450 0.919656 -1.894068
vn -0.0000 0.9734 0.2292
vn -0.0000 0.7709 0.6369
vn 1.0000 -0.0000 -0.0000
vn -1.0000 -0.0000 -0.0000
vn -0.0000 -0.9979 -0.0644
vn -0.0000 1.0000 -0.0000
vn -0.0000 -0.9797 0.2003
vn -0.0000 -0.7858 0.6185
vn -0.0000 -0.0000 1.0000
vn -0.0000 -0.4316 0.9021
vn -0.0000 0.5441 0.8390
vn -0.0000 -0.3365 -0.9417
vn -0.0000 -0.9695 -0.2450
vn -0.0000 -0.7925 -0.6099
vn -0.0000 0.1676 -0.9859
vn -0.0000 -0.9846 -0.1749
vn -0.0000 0.9913 -0.1315
vn -0.0000 0.9804 -0.1969
vn -0.0000 0.6235 -0.7819
vn -0.0000 0.6235 -0.7818
vn -0.0000 0.9208 -0.3899
s 0
f 61//22 64//22 57//22
f 61//22 57//22 59//22
f 63//23 64//23 61//23
f 63//23 61//23 62//23
f 64//24 63//24 58//24
f 64//24 58//24 57//24
f 60//25 62//25 61//25
f 60//25 61//25 59//25
f 39//24 46//24 40//24
f 40//26 58//26 60//26
f 40//26 60//26 42//26
f 42//25 60//25 59//25
f 42//25 59//25 45//25
f 43//25 42//25 45//25
f 45//27 59//27 57//27
f 45//27 57//27 46//27
f 58//28 72//28 71//28
f 58//28 71//28 60//28
f 71//29 72//29 68//29
f 71//29 68//29 67//29
f 63//24 69//24 65//24
f 63//24 65//24 68//24
f 63//24 68//24 72//24
f 63//24 72//24 58//24
f 66//25 70//25 62//25
f 66//25 62//25 67//25
f 65//30 69//30 70//30
f 65//30 70//30 66//30
f 67//31 68//31 65//31
f 67//31 65//31 66//31
f 71//25 67//25 62//25
f 71//25 62//25 60//25
f 62//32 70//32 69//32
f 62//32 69//32 63//32
f 51//33 52//33 49//33
f 51//33 49//33 50//33
f 47//34 48//34 37//34
f 47//34 37//34 41//34
f 49//35 52//35 48//35
f 49//35 48//35 47//35
f 50//36 54//36 53//36
f 50//36 53//36 51//36
f 42//37 41//37 37//37
f 42//37 37//37 40//37
f 43//25 44//25 41//25
f 43//25 41//25 42//25
f 39//24 40//24 37//24
f 39//24 37//24 38//24
f 45//38 46//38 39//38
f 45//38 39//38 43//38
f 44//39 43//39 39//39
f 44//39 39//39 38//39
f 54//25 47//25 56//25
f 44//25 56//25 47//25
f 44//25 47//25 41//25
f 57//24 58//24 40//24
f 57//24 40//24 46//24
f 47//25 54//25 50//25
f 47//25 50//25 49//25
f 51//24 53//24 48//24
f 51//24 48//24 52//24
f 54//40 56//40 55//40
f 54//41 55//41 53//41
f 38//42 55//42 56//42
f 38//42 56//42 44//42
f 53//24 55//24 48//24
f 48//24 55//24 38//24
f 48//24 38//24 37//24
o Turret_01_havok_s_armor_3_0
v -0.261933 1.234602 -0.012257
v 0.072977 1.554993 0.302018
v 0.164612 1.162283 0.337972
v -0.001439 1.162281 0.390650
v -0.072973 1.554993 0.302018
v -0.167617 1.162281 0.338324
v 0.215434 1.554993 0.214508
v 0.270585 1.162283 0.202846
v -0.215430 1.554993 0.215033
v -0.273701 1.162283 0.203046
v -0.261944 1.690301 0.194141
v -0.221289 1.690301 0.194559
v -0.261944 1.690301 0.002953
v -0.288077 1.162284 0.044132
v -0.211459 1.162282 -0.103470
v -0.215430 1.554993 -0.017213
v -0.103214 1.554993 -0.104796
v -0.221289 1.690301 0.002535
v 0.103231 1.554993 -0.104796
v -0.061200 1.162280 -0.187378
v 0.114220 1.162283 -0.169043
v 0.262022 1.690301 0.194141
v 0.262022 1.690301 0.002954
v 0.270585 1.162283 -0.005607
v 0.221293 1.690301 0.194559
v 0.221293 1.690301 0.002535
v 0.200643 1.532494 -0.031421
vn 0.4834 -0.1303 0.8656
vn -0.0000 -0.2058 0.9786
vn -0.1026 -0.1634 0.9812
vn 0.3188 -0.0316 0.9473
vn 0.0102 -0.1440 0.9895
vn -0.9999 -0.0162 -0.0000
vn -0.7162 -0.1321 0.6852
vn -0.6094 -0.0600 0.7906
vn -0.4454 -0.0217 0.8951
vn -0.0101 -0.2091 0.9778
vn -0.3484 -0.0211 -0.9371
vn -0.0102 -0.1454 -0.9893
vn 0.8292 -0.1119 0.5476
vn 0.6069 -0.1647 0.7776
vn -0.5132 -0.1963 -0.8355
vn -0.7836 -0.0918 -0.6145
vn 0.2965 -0.1585 -0.9418
vn -0.2987 -0.1559 -0.9415
vn -0.0000 -0.2202 -0.9755
vn 0.5106 -0.2004 -0.8362
vn 0.7832 -0.0975 -0.6141
vn 0.9148 -0.3953 -0.0828
vn 0.8869 0.0383 0.4604
vn 0.9986 -0.0214 0.0474
vn 1.0000 -0.0000 -0.0000
vn 0.3516 -0.0236 -0.9358
vn 0.0102 -0.1492 -0.9888
s 0
f 89//43 87//43 92//43
f 91//44 89//44 92//44
f 91//45 92//45 93//45
f 85//46 73//46 88//46
f 85//47 88//47 90//47
f 95//48 96//48 80//48
f 95//48 80//48 94//48
f 91//49 93//49 96//49
f 91//50 96//50 99//50
f 99//51 96//51 95//51
f 99//52 95//52 98//52
f 94//53 80//53 79//53
f 94//54 79//54 97//54
f 88//55 73//55 87//55
f 88//56 87//56 89//56
f 75//57 74//57 79//57
f 75//58 79//58 80//58
f 77//59 76//59 78//59
f 74//60 75//60 76//60
f 74//61 76//61 77//61
f 81//62 77//62 78//62
f 81//63 78//63 82//63
f 73//64 82//64 86//64
f 73//65 86//65 87//65
f 83//66 82//66 73//66
f 83//67 73//67 85//67
f 81//68 82//68 83//68
f 81//69 83//69 84//69
o Hull_havok_s_armor_1_0
v -0.396727 0.603954 0.224352
v -0.245255 0.603954 0.433151
v 0.724450 0.374309 2.029850
v -0.724444 0.374309 2.029850
v -0.724444 0.392414 2.042133
v 0.724450 0.392414 2.042133
v 0.396732 0.603954 0.224352
v 0.245260 0.603954 0.433151
v 0.724450 0.378121 -1.384630
v -0.724444 0.378121 -1.384630
v -0.000351 0.603954 0.515033
v -0.148992 1.159961 0.302140
v -0.000351 1.159961 0.347175
v -0.241008 1.159961 0.175222
v 0.148997 1.159961 0.302140
v 0.241013 1.159961 0.175222
v -0.396727 0.603954 -0.033577
v 0.241013 1.159961 0.015552
v 0.148997 1.159961 -0.107271
v 0.245260 0.603954 -0.242376
v 0.396732 0.603954 -0.033577
v -0.245255 0.603954 -0.242376
v -0.148992 1.159961 -0.107271
v -0.241008 1.159961 0.015552
v -0.000351 0.603954 -0.320164
v -0.000351 1.159961 -0.156400
v -0.724444 1.122322 -1.781758
v -0.417961 1.311946 -0.745950
v -0.419377 1.197124 -1.376442
v 0.216240 1.327669 -1.224960
v -0.000351 1.323381 -1.315031
v 0.376913 1.189501 -1.417383
v 0.419382 1.197124 -1.376442
v -0.376908 1.189501 -1.417383
v -0.216234 1.327669 -1.224960
v 0.724450 1.122322 -1.781758
v 0.724450 0.391461 -1.744911
v 0.417967 1.311946 -0.745950
v 0.306132 1.336721 -1.012067
v 0.216240 1.345773 -0.795080
v -0.306127 1.336721 -1.012067
v -0.216234 1.345773 -0.795080
v -0.000351 1.349585 -0.705009
v 0.335152 1.326239 -0.664068
v -0.335147 1.326239 -0.664068
v -0.724444 0.473409 -1.884111
v 0.724450 0.473409 -1.884111
v 0.724450 0.703530 -2.076534
v -0.724444 0.703530 -2.080628
v 0.724450 0.804536 -2.142039
v -0.724444 0.804536 -2.142039
v -0.724444 0.935081 -2.146133
v 0.724450 0.931746 -2.146133
v -0.724444 0.385267 -1.744911
v -0.724444 0.602491 2.042101
v 0.724450 0.602491 2.042238
v 0.724450 0.603894 -0.466994
v -0.724444 0.603897 -0.467033
v 0.724450 0.974100 1.216408
v 0.724450 1.054443 -0.455409
v 0.724450 0.688670 2.080598
v -0.724444 1.054564 -0.461686
v -0.724444 0.983172 1.223492
v -0.724444 0.688839 2.083285
v -0.724444 1.366590 -0.447389
v 0.724450 1.366589 -0.447387
v -0.950978 1.407952 -0.446465
v 0.950981 1.407951 -0.444104
v 1.240327 1.094965 -0.456810
v 1.241231 1.058282 -0.458353
v -1.240327 1.094967 -0.459170
v -1.241230 1.058283 -0.460715
vn -0.0021 0.6494 0.7604
vn -0.0000 0.6415 0.7671
vn -0.0000 0.5441 0.8390
vn -0.0024 0.5195 0.8545
vn -0.0000 -0.8687 -0.4954
vn 0.1663 -0.9861 0.0039
vn 0.0576 -0.9937 -0.0959
vn 0.0001 0.0322 0.9995
vn -0.0000 0.0313 0.9995
vn -1.0000 -0.0000 -0.0000
vn 1.0000 -0.0000 -0.0000
vn -0.0020 -0.8894 0.4571
vn -0.0000 -0.8861 0.4635
vn -0.1663 -0.9861 0.0039
vn -0.0574 -0.9937 -0.0960
vn -0.4118 -0.8864 0.2116
vn -0.5397 -0.8285 0.1497
vn -0.1594 -0.9869 -0.0249
vn -0.0000 -0.9837 0.1801
vn -0.0032 -0.9838 0.1792
vn 0.5397 -0.8285 0.1497
vn 0.4118 -0.8864 0.2116
vn -0.0000 -0.9991 0.0423
vn -0.0000 -0.9991 0.0417
vn 0.1594 -0.9869 -0.0249
vn -0.0003 -0.9991 0.0424
vn 0.0003 -0.9991 0.0418
vn -0.0010 -0.9990 0.0450
vn 0.0026 -0.9991 0.0414
vn -0.0007 -0.0421 0.9991
vn 0.0015 -0.0458 0.9990
vn -0.0028 -0.0379 0.9993
vn 0.0055 -0.0355 0.9994
vn -0.0098 -0.0257 0.9996
vn 0.0060 -0.0419 0.9991
vn 0.0041 -0.9844 0.1760
vn 0.0043 0.0119 -0.9999
vn -0.0000 0.0257 -0.9997
vn -0.0001 -1.0000 0.0002
vn -0.0000 -1.0000 0.0004
vn -0.0041 -0.9844 0.1760
vn -0.0000 -0.9831 0.1831
vn -0.0012 -0.0724 0.9974
vn -0.0000 -0.0224 0.9998
vn -0.0000 -0.9834 0.1813
vn -0.0009 -0.9833 0.1821
vn 0.0009 -0.9833 0.1821
vn -0.0000 0.8449 0.5350
vn -0.0037 0.8618 0.5073
vn 0.0043 0.0458 -0.9989
vn -0.0000 -0.6074 0.7944
vn -0.0043 0.9993 0.0370
vn -0.0000 0.9998 0.0198
vn 0.7799 -0.2683 -0.5655
vn 0.7797 -0.2684 -0.5657
vn -0.7799 -0.2684 -0.5654
vn -0.7798 -0.2683 -0.5657
vn 0.2786 -0.2776 -0.9194
vn 0.3055 -0.2682 -0.9137
vn -0.0000 -1.0000 -0.0000
vn -0.2783 -0.2657 -0.9230
vn -0.3040 -0.2753 -0.9120
vn 0.0004 -1.0000 -0.0011
vn -0.0003 -1.0000 -0.0008
vn 0.0001 0.0005 -1.0000
vn -0.0000 -0.0002 -1.0000
vn -0.0000 -1.0000 -0.0009
vn 0.0009 -1.0000 -0.0006
vn -0.0000 0.5614 -0.8275
vn -0.0009 -1.0000 -0.0006
vn -0.0014 -1.0000 -0.0006
vn -0.0000 1.0000 0.0011
vn 0.0001 -1.0000 0.0001
vn -0.0000 -1.0000 0.0002
vn -0.0002 -1.0000 -0.0000
vn -0.0001 -1.0000 0.0001
vn 0.0032 -0.9838 0.1792
vn 0.1792 -0.8639 0.4707
vn 0.2480 -0.8731 0.4198
vn -0.1788 -0.8638 0.4710
vn -0.2480 -0.8731 0.4198
vn -0.9629 -0.2697 -0.0000
vn 0.7713 -0.2671 0.5778
vn 0.7789 -0.2722 0.5650
vn 0.0045 -1.0000 -0.0000
vn -0.7797 -0.2684 0.5657
vn -0.7698 -0.2734 0.5767
vn 0.9629 -0.2697 -0.0000
vn 0.2915 -0.2703 0.9176
vn 0.3018 -0.2741 0.9131
vn -0.3009 -0.2694 0.9148
vn -0.2905 -0.2731 0.9171
s 0
f 147//70 148//70 145//70
f 147//71 145//71 146//71
f 147//72 149//72 150//72
f 147//73 150//73 148//73
f 144//74 142//74 143//74
f 144//75 127//75 141//75
f 144//76 141//76 142//76
f 149//77 152//77 151//77
f 149//78 151//78 150//78
f 135//79 152//79 149//79
f 135//79 149//79 147//79
f 109//80 153//80 126//80
f 126//81 151//81 152//81
f 126//82 152//82 135//82
f 135//79 147//79 146//79
f 135//79 146//79 136//79
f 139//83 137//83 143//83
f 139//84 143//84 142//84
f 138//85 129//85 132//85
f 138//86 132//86 137//86
f 139//87 138//87 137//87
f 159//79 165//79 108//79
f 159//79 108//79 156//79
f 135//88 165//88 137//88
f 135//89 137//89 132//89
f 140//90 127//90 128//90
f 140//91 128//91 134//91
f 139//92 142//92 141//92
f 139//93 141//93 140//93
f 127//94 140//94 141//94
f 139//95 140//95 134//95
f 139//96 134//96 138//96
f 138//97 134//97 130//97
f 138//98 130//98 129//98
f 164//99 170//99 171//99
f 164//100 171//100 161//100
f 166//101 170//101 164//101
f 159//102 168//102 167//102
f 159//103 167//103 165//103
f 169//104 168//104 159//104
f 143//105 137//105 165//105
f 157//106 161//106 159//106
f 157//107 159//107 156//107
f 156//108 119//108 124//108
f 156//109 124//109 157//109
f 144//110 164//110 127//110
f 165//111 164//111 144//111
f 165//111 144//111 143//111
f 165//112 167//112 166//112
f 165//113 166//113 164//113
f 135//114 131//114 133//114
f 135//114 133//114 126//114
f 128//115 126//115 133//115
f 126//80 153//80 145//80
f 126//80 145//80 148//80
f 150//80 151//80 126//80
f 150//80 126//80 148//80
f 132//116 131//116 135//116
f 146//117 145//117 153//117
f 146//118 153//118 136//118
f 164//107 165//107 159//107
f 164//119 159//119 161//119
f 130//120 133//120 131//120
f 108//121 136//121 153//121
f 108//122 153//122 109//122
f 113//123 111//123 101//123
f 113//124 101//124 100//124
f 114//125 115//125 106//125
f 114//126 106//126 107//126
f 111//127 112//127 110//127
f 111//128 110//128 101//128
f 113//129 112//129 111//129
f 112//130 114//130 107//130
f 112//131 107//131 110//131
f 157//80 161//80 162//80
f 157//80 162//80 154//80
f 163//80 154//80 162//80
f 158//79 159//79 156//79
f 158//79 156//79 155//79
f 160//79 158//79 155//79
f 155//132 101//132 110//132
f 155//133 110//133 107//133
f 103//80 154//80 104//80
f 154//134 155//134 105//134
f 154//135 105//135 104//135
f 101//136 155//136 154//136
f 101//137 154//137 100//137
f 104//138 105//138 102//138
f 104//138 102//138 103//138
f 155//139 107//139 106//139
f 155//140 106//140 156//140
f 102//141 108//141 109//141
f 102//141 109//141 103//141
f 157//80 154//80 103//80
f 157//80 103//80 109//80
f 108//79 102//79 156//79
f 156//79 102//79 105//79
f 156//79 105//79 155//79
f 121//142 116//142 157//142
f 121//143 157//143 124//143
f 126//80 161//80 157//80
f 126//80 157//80 109//80
f 114//129 112//129 115//129
f 156//144 106//144 120//144
f 156//145 120//145 119//145
f 127//88 164//88 126//88
f 127//146 126//146 128//146
f 133//147 130//147 134//147
f 133//148 134//148 128//148
f 108//79 165//79 135//79
f 108//79 135//79 136//79
f 164//80 161//80 126//80
f 129//149 130//149 131//149
f 129//150 131//150 132//150
f 112//129 118//129 117//129
f 112//129 117//129 115//129
f 115//151 117//151 120//151
f 115//151 120//151 106//151
f 122//152 123//152 116//152
f 122//153 116//153 121//153
f 154//137 157//137 116//137
f 154//154 116//154 100//154
f 119//155 120//155 117//155
f 119//156 117//156 118//156
f 100//157 116//157 123//157
f 100//157 123//157 113//157
f 112//129 122//129 125//129
f 112//129 125//129 118//129
f 123//129 122//129 112//129
f 123//129 112//129 113//129
f 121//158 124//158 125//158
f 121//159 125//159 122//159
f 118//160 125//160 124//160
f 118//161 124//161 119//161
o Gun_01_havok_s_gun_0
v -0.063384 1.760915 -3.169170
v 0.063389 1.760915 -3.169170
v 0.063389 1.635779 -3.169170
v -0.063384 1.635779 -3.169170
v -0.092348 1.792591 -3.169170
v 0.092353 1.792591 -3.169170
v -0.092348 1.604104 -3.169170
v 0.092353 1.792591 -3.499171
v 0.092353 1.604104 -3.499171
v 0.092353 1.604104 -3.169170
v -0.092348 1.792591 -3.499171
v -0.092348 1.604104 -3.499171
v 0.078217 1.778289 -0.537799
v -0.078211 1.778289 -0.537799
v -0.078211 1.618406 -0.589562
v 0.078217 1.618406 -0.589562
vn -0.0000 -0.0000 -1.0000
vn -0.0000 -1.0000 -0.0000
vn -0.0000 1.0000 -0.0000
vn 1.0000 -0.0000 -0.0000
vn -0.0000 -0.0000 1.0000
vn -1.0000 -0.0000 -0.0000
vn 1.0000 -0.0018 0.0056
vn 1.0000 -0.0000 0.0057
vn -0.0000 1.0000 0.0067
vn -0.0000 -1.0000 0.0066
vn -1.0000 -0.0018 0.0056
vn -1.0000 -0.0000 0.0057
s 0
f 177//162 181//162 174//162
f 177//162 174//162 173//162
f 181//162 178//162 175//162
f 181//162 175//162 174//162
f 182//163 179//163 177//163
f 182//163 177//163 176//163
f 180//164 183//164 178//164
f 180//164 178//164 181//164
f 183//165 182//165 176//165
f 183//165 176//165 178//165
f 179//166 182//166 183//166
f 179//166 183//166 180//166
f 179//167 180//167 181//167
f 179//167 181//167 177//167
f 172//168 185//168 186//168
f 172//169 186//169 175//169
f 186//170 187//170 174//170
f 186//170 174//170 175//170
f 184//171 185//171 172//171
f 184//171 172//171 173//171
f 178//162 176//162 172//162
f 178//162 172//162 175//162
f 176//162 177//162 173//162
f 176//162 173//162 172//162
f 187//172 184//172 173//172
f 187//173 173//173 174//173
o Gun_01_havok_s_armor_2_1
v -0.184019 1.615645 -1.128563
v -0.036409 1.567676 -1.128824
v -0.184019 1.781553 -1.127850
v -0.036409 1.829522 -1.127589
v 0.036407 1.829522 -1.127589
v 0.184016 1.615645 -1.128563
v 0.036407 1.567676 -1.128824
v 0.184016 1.781553 -1.127850
v -0.183561 1.613084 -0.591881
v -0.036234 1.565386 -0.607209
v -0.184076 1.780703 -0.537468
v -0.036384 1.828972 -0.521654
v 0.036220 1.828903 -0.521764
v 0.036077 1.565431 -0.607365
v 0.183858 1.613080 -0.591932
v 0.183892 1.780678 -0.537424
vn -0.0004 -0.0043 1.0000
vn 0.0002 -0.0047 1.0000
vn -0.0006 1.0000 0.0043
vn -0.0000 1.0000 0.0044
vn -0.0000 -0.0047 1.0000
vn -1.0000 0.0003 -0.0002
vn -1.0000 -0.0000 -0.0003
vn -0.3105 -0.9506 -0.0011
vn -0.3091 -0.9510 -0.0015
vn -0.3073 0.9516 0.0045
vn -0.3091 0.9510 0.0039
vn 1.0000 0.0030 0.0001
vn 1.0000 -0.0000 -0.0009
vn 0.3084 0.9512 0.0043
vn 0.3091 0.9510 0.0041
vn -0.0002 -0.0047 1.0000
vn 0.0004 -0.0043 1.0000
vn -0.0010 -1.0000 -0.0009
vn -0.0000 -1.0000 -0.0010
vn 0.3107 -0.9505 -0.0009
vn 0.3091 -0.9510 -0.0013
s 0
f 194//174 193//174 195//174
f 194//175 195//175 192//175
f 197//176 201//176 194//176
f 197//177 194//177 189//177
f 194//178 192//178 191//178
f 194//178 191//178 189//178
f 202//179 203//179 195//179
f 202//180 195//180 193//180
f 203//181 200//181 192//181
f 203//182 192//182 195//182
f 201//183 202//183 193//183
f 201//184 193//184 194//184
f 190//185 198//185 196//185
f 190//186 196//186 188//186
f 188//187 196//187 197//187
f 188//188 197//188 189//188
f 189//189 191//189 190//189
f 189//190 190//190 188//190
f 200//191 199//191 191//191
f 200//192 191//192 192//192
f 191//193 199//193 198//193
f 191//194 198//194 190//194
o Gun_01_havok_s_gunBreech_2
v 0.362721 1.534910 -0.311653
v -0.362702 1.534910 -0.311653
v -0.362702 1.500311 0.926316
v 0.362721 1.528307 -0.077735
v 0.362721 1.500311 0.926316
v -0.362702 2.040942 -0.311653
v -0.362702 2.033547 0.926316
v 0.362721 2.033547 0.926316
v 0.362721 1.683339 -0.075935
v 0.362721 2.039621 -0.070537
v 0.362721 1.885910 -0.072337
v 0.362721 2.040942 -0.311653
v 0.362721 1.886702 -0.311653
v -0.154520 1.886174 1.374360
v -0.154520 1.537023 1.374360
v 0.154539 1.537023 1.374360
v 0.154539 1.886174 1.374360
v 0.362721 1.683339 -0.311653
v 0.440851 1.866102 -0.311653
v 0.440851 1.865574 -0.072337
v 0.440851 1.703939 -0.311653
v 0.649528 1.866102 -0.311653
v 0.649528 1.865574 -0.072337
v 0.649528 1.703939 -0.075935
v 0.649528 1.703939 -0.311653
v 0.440851 1.703939 -0.075935
v 0.545190 1.788454 -0.466400
v 0.545190 1.846822 -0.466400
v 0.601562 1.846822 -0.466400
v 0.601562 1.788454 -0.466400
v 0.508103 1.762836 0.278541
v 0.648045 1.762836 0.278541
v 0.649034 1.728765 0.073413
v 0.468049 1.727709 0.068014
v 0.648045 1.871120 0.280341
v 0.508103 1.871120 0.280341
v 0.609474 1.597768 -0.005760
v 0.609474 1.612294 0.066215
v 0.543706 1.611765 0.064416
v 0.533816 1.597768 -0.005760
v 0.078217 1.618406 -0.589562
v 0.078217 1.778289 -0.537799
v -0.078212 1.778289 -0.537799
v -0.078212 1.618406 -0.589562
vn -0.9552 -0.0000 0.2961
vn -0.0000 -0.9923 0.1236
vn -0.0000 -0.0000 1.0000
vn -0.0009 0.9864 -0.1644
vn -0.0000 0.9865 -0.1638
vn -0.0000 0.8776 0.4793
vn -0.0000 1.0000 -0.0000
vn -1.0000 -0.0000 -0.0000
vn -0.2550 0.9670 -0.0000
vn 0.8291 -0.0000 0.5590
vn 0.0058 0.0223 -0.9997
vn -0.0047 0.0178 -0.9998
vn -0.0000 0.0166 -0.9999
vn 0.8134 0.5377 -0.2219
vn 0.8036 0.5439 -0.2416
vn -1.0000 0.0001 -0.0048
vn -1.0000 -0.0009 -0.0042
vn -0.0000 0.5514 0.8342
vn -0.0000 0.9807 -0.1956
vn -0.0025 0.9802 -0.1978
vn 0.0269 0.0526 -0.9983
vn 0.0295 0.0502 -0.9983
vn 0.9823 0.0031 -0.1874
vn 0.9823 0.0030 -0.1874
vn -0.0000 -0.9999 0.0157
vn 0.9825 0.0041 -0.1863
vn -1.0000 0.0001 -0.0033
vn -0.9436 0.3245 -0.0655
vn -0.9459 0.3196 -0.0563
vn -0.0000 -1.0000 -0.0022
vn -0.0000 -1.0000 -0.0061
vn 0.0002 -1.0000 -0.0060
vn 0.9069 -0.0000 -0.4214
vn -0.0000 -0.9499 -0.3125
vn -0.0000 -0.0000 -1.0000
vn -0.0000 0.9996 0.0279
vn 0.0005 0.9996 0.0282
vn 1.0000 -0.0000 -0.0000
vn -0.0000 0.9967 -0.0817
vn -0.0000 -1.0000 -0.0055
vn -0.0000 -0.6525 0.7578
vn 0.6223 -0.0000 0.7828
vn 0.7140 -0.2157 0.6661
vn -0.2519 -0.9678 -0.0021
vn -0.2550 -0.9669 -0.0032
vn -0.6988 -0.0000 0.7154
vn -0.6516 -0.2336 0.7217
vn -0.9069 -0.0000 -0.4214
vn -0.6222 -0.0000 0.7828
vn -0.0000 0.9577 0.2877
s 0
f 225//195 232//195 233//195
f 225//195 233//195 228//195
f 231//196 232//196 225//196
f 231//196 225//196 222//196
f 233//197 232//197 231//197
f 233//197 231//197 230//197
f 236//198 237//198 234//198
f 236//199 234//199 235//199
f 228//200 233//200 230//200
f 228//200 230//200 224//200
f 224//201 229//201 227//201
f 224//201 227//201 228//201
f 225//202 228//202 227//202
f 225//202 227//202 226//202
f 229//203 224//203 221//203
f 229//203 221//203 212//203
f 230//204 231//204 222//204
f 230//204 222//204 224//204
f 214//205 223//205 229//205
f 214//206 229//206 212//206
f 234//207 239//207 238//207
f 234//207 238//207 235//207
f 237//208 242//208 243//208
f 237//209 243//209 229//209
f 236//210 235//210 238//210
f 236//211 238//211 226//211
f 243//212 240//212 227//212
f 243//212 227//212 229//212
f 240//213 243//213 242//213
f 240//214 242//214 241//214
f 236//215 241//215 242//215
f 236//216 242//216 237//216
f 239//217 234//217 237//217
f 239//218 237//218 223//218
f 226//219 238//219 239//219
f 226//219 239//219 223//219
f 229//220 223//220 237//220
f 227//221 236//221 226//221
f 240//222 241//222 236//222
f 240//223 236//223 227//223
f 225//224 226//224 223//224
f 225//224 223//224 222//224
f 213//225 211//225 210//225
f 213//226 210//226 209//226
f 215//202 216//202 214//202
f 215//202 214//202 213//202
f 217//227 218//227 206//227
f 217//227 206//227 210//227
f 220//228 217//228 210//228
f 220//228 210//228 211//228
f 217//229 220//229 219//229
f 217//229 219//229 218//229
f 207//230 206//230 208//230
f 206//231 207//231 204//231
f 206//230 204//230 205//230
f 205//232 209//232 210//232
f 205//232 210//232 206//232
f 214//202 212//202 211//202
f 214//202 211//202 213//202
f 211//202 212//202 207//202
f 211//202 207//202 208//202
f 218//233 219//233 208//233
f 218//233 208//233 206//233
f 215//234 213//234 209//234
f 215//235 209//235 246//235
f 246//236 209//236 205//236
f 246//237 205//237 247//237
f 222//238 223//238 214//238
f 222//239 214//239 216//239
f 212//202 221//202 204//202
f 212//202 204//202 207//202
f 224//197 222//197 216//197
f 224//197 216//197 221//197
f 244//240 204//240 221//240
f 244//241 221//241 245//241
f 208//242 219//242 220//242
f 208//242 220//242 211//242
f 216//243 245//243 221//243
f 244//244 247//244 205//244
f 244//244 205//244 204//244
f 245//243 216//243 215//243
f 245//235 215//235 246//235
o Gun_01_havok_s_armor_4_3
v 0.395967 1.675149 -0.571517
v -0.183561 1.613084 -0.591881
v -0.294835 1.675122 -0.571529
v -0.483118 1.533577 -0.617293
v -0.036233 1.565386 -0.607209
v 0.036077 1.565430 -0.607365
v 0.185681 1.533577 -0.617294
v -0.654227 1.533577 -0.617293
v -0.667617 1.590189 -0.598989
v -0.746452 1.675122 -0.571529
v -0.715555 1.625739 -0.587495
v 0.183858 1.613080 -0.591932
v 0.223863 1.554360 -0.610574
v 0.291820 1.554567 -0.610508
v 0.621189 1.597036 -0.596930
v 0.475776 1.533243 -0.617402
v 0.605509 1.533578 -0.617294
v -0.036384 1.828972 -0.521654
v 0.727465 2.038228 -0.454131
v -0.294835 1.926838 -0.490144
v -0.184076 1.780703 -0.537468
v 0.036220 1.828903 -0.521764
v 0.725771 1.901921 -0.498201
v -0.725178 2.036072 -0.454826
v -0.746452 1.926838 -0.490144
v -0.783894 1.920312 -0.492254
v -0.784268 1.634607 -0.584628
v -0.770829 1.997569 -0.467275
v 0.183893 1.780678 -0.537424
v 0.693760 1.629868 -0.586337
v 0.806947 1.630326 -0.586013
v 0.806947 1.899029 -0.499136
vn -0.0000 -0.3076 0.9515
vn 0.0006 -0.3076 0.9515
vn 0.0018 -0.3088 0.9511
vn 0.0006 -0.3083 0.9513
vn -0.0015 -0.3080 0.9514
vn 0.0014 -0.3085 0.9512
vn -0.0000 -0.3077 0.9515
vn -0.0001 -0.3075 0.9515
vn 0.0002 -0.3084 0.9512
vn -0.0010 -0.3093 0.9510
vn -0.0015 -0.3039 0.9527
vn 0.0014 -0.3094 0.9509
vn 0.0002 -0.3053 0.9523
vn -0.0000 -0.2976 0.9547
vn 0.0022 -0.3307 0.9437
vn -0.0001 -0.3067 0.9518
vn -0.0009 -0.3087 0.9511
vn 0.0001 -0.3076 0.9515
vn 0.0011 -0.3109 0.9505
vn -0.0021 -0.3061 0.9520
vn -0.0022 -0.3040 0.9527
vn -0.0000 -0.3026 0.9531
vn -0.0000 -0.3056 0.9522
s 0
f 275//245 273//245 272//245
f 275//245 272//245 271//245
f 268//246 267//246 250//246
f 268//247 250//247 249//247
f 274//245 258//245 257//245
f 271//245 272//245 267//245
f 271//245 267//245 266//245
f 273//245 274//245 257//245
f 273//245 257//245 272//245
f 277//248 270//248 262//248
f 278//245 279//245 270//245
f 278//249 270//249 277//249
f 263//250 262//250 270//250
f 263//251 270//251 248//251
f 276//252 248//252 270//252
f 276//253 270//253 269//253
f 259//254 248//254 276//254
f 250//245 257//245 258//245
f 250//245 258//245 256//245
f 259//255 253//255 254//255
f 250//245 256//245 255//245
f 250//245 255//245 251//245
f 249//256 250//256 251//256
f 249//257 251//257 252//257
f 251//258 254//258 253//258
f 251//259 253//259 252//259
f 265//260 266//260 267//260
f 265//261 267//261 268//261
f 269//262 270//262 266//262
f 269//263 266//263 265//263
f 261//251 263//251 248//251
f 261//264 248//264 259//264
f 259//265 254//265 260//265
f 259//266 260//266 261//266
f 262//267 263//267 264//267
o Gun_01_havok_s_armor_5_4
v -0.746452 1.675122 -0.571529
v -0.294835 1.675122 -0.571529
v -0.294835 1.926838 -0.490144
v -0.746452 1.926838 -0.490144
v 0.183892 1.780678 -0.537424
v 0.036220 1.828904 -0.521764
v 0.036077 1.565431 -0.607365
v 0.183858 1.613080 -0.591932
v -0.036384 1.828972 -0.521654
v -0.036234 1.565386 -0.607209
v -0.183561 1.613084 -0.591881
v -0.184076 1.780703 -0.537468
vn 0.0011 -0.3087 0.9512
vn 0.0022 -0.3090 0.9511
vn -0.0009 -0.3088 0.9511
vn -0.0010 -0.3087 0.9512
vn -0.0000 -0.3076 0.9515
vn 0.0004 -0.3093 0.9510
vn -0.0001 -0.3090 0.9511
s 0
f 285//268 288//268 289//268
f 285//269 289//269 286//269
f 288//270 291//270 290//270
f 288//271 290//271 289//271
f 282//272 283//272 280//272
f 282//272 280//272 281//272
f 286//273 287//273 284//273
f 286//274 284//274 285//274
