# Blender 5.1.0
# www.blender.org
o Chassis_havok_s_leftTrack_0
v -0.949999 0.401888 2.538667
v -0.949999 0.801105 2.827992
v -0.949999 1.140745 -2.506435
v -0.949999 0.401888 -2.277386
v -0.949999 1.143529 2.725523
v -1.033792 1.140745 -2.506435
v -1.033792 1.143529 2.725523
v -1.636095 1.143529 2.725523
v -1.636095 1.140188 -2.729456
v -1.636095 0.003785 1.941935
v -1.033792 0.003785 1.941935
v -1.033792 0.003785 -1.843399
v -1.636095 0.003785 -1.843399
v -1.033792 0.043317 2.074542
v -1.636095 0.043317 2.074542
v -1.636095 0.045544 -1.976006
v -1.033792 0.401888 -2.277386
v -1.033792 0.401888 2.538667
v -1.636095 0.368481 2.834020
v -1.636095 0.624046 -2.988643
v -1.636095 0.575049 -2.934394
v -1.033792 0.645204 3.105262
v -1.033792 0.468146 3.002793
v -1.636095 0.468146 3.002793
v -1.636095 0.645204 3.105262
v -1.636095 0.850102 3.105262
v -1.033792 0.850102 3.105262
v -1.033792 0.368481 2.834020
v -1.636095 1.130166 2.827992
v -1.636095 1.027717 3.002793
v -1.033792 0.801105 2.827992
v -0.949999 1.129053 2.827992
v -0.949999 1.130166 2.827992
v -1.033792 0.575049 -2.934394
v -1.033792 0.045544 -1.976006
v -0.949999 1.017695 -2.771649
v -0.949999 0.635182 -2.663153
v -0.949999 0.600661 -2.512463
v -1.033792 1.017695 -2.771649
v -0.949999 0.520484 -2.385883
v -1.033792 0.520484 -2.385883
v -1.033792 0.600661 -2.512463
v -1.033792 0.635182 -2.663153
v -0.949999 0.649102 -2.777677
v -1.033792 0.649102 -2.777677
v -1.033792 1.140188 -2.729456
v -1.033792 1.037739 -2.988643
v -1.033792 1.122371 -2.868091
v -1.636095 1.122371 -2.868091
v -1.636095 1.037739 -2.988643
v -1.033792 0.946426 -2.874119
v -1.033792 0.988742 -2.831925
v -1.033792 0.905224 -3.060974
v -1.033792 0.862908 -2.910284
v -1.636095 0.756562 -3.060974
v -1.636095 0.905224 -3.060974
v -1.033792 0.756562 -3.060974
v -1.033792 0.624046 -2.988643
v -0.949999 0.862908 -2.910284
v -0.949999 0.946426 -2.874119
v -1.033792 0.773265 -2.904257
v -0.949999 0.773265 -2.904257
v -0.949999 0.988742 -2.831925
v -0.949999 0.698099 -2.856036
v -1.033792 0.698099 -2.856036
v -1.033904 1.130328 2.825174
v -1.033904 1.027957 3.002738
v -1.033904 1.128920 2.827613
vn -0.0000 -0.8184 0.5746
vn -0.0000 -0.9918 0.1275
vn -1.0000 -0.0000 -0.0000
vn -0.0000 -1.0000 0.0025
vn 1.0000 -0.0000 -0.0000
vn -0.0000 -0.9071 0.4209
vn -0.0000 0.9747 0.2233
vn -0.0000 0.9927 0.1207
vn -0.0000 0.6750 0.7378
vn -0.0000 0.8448 0.5351
vn -0.0000 0.5400 0.8417
vn -0.0000 0.8479 0.5302
vn -0.0000 0.4791 0.8778
vn -0.0000 0.7421 0.6703
vn -0.0000 -0.4791 0.8778
vn -0.0000 -0.0000 1.0000
vn -0.0000 -0.9014 0.4330
vn -0.0000 -0.7061 0.7081
vn -0.0000 -0.3974 0.9177
vn -0.0000 0.0671 0.9977
vn -0.0000 1.0000 -0.0000
vn -0.0000 0.8611 -0.5085
vn -0.0000 0.5009 -0.8655
vn -0.0000 -0.0000 -1.0000
vn -0.0000 -1.0000 0.0005
vn 0.0007 -1.0000 0.0006
vn -0.0000 0.9583 -0.2857
vn 0.0036 -0.8660 -0.5000
vn 0.0336 -0.0000 -0.9994
vn 0.0045 -0.0000 -1.0000
vn -0.0000 -0.0012 -1.0000
vn 0.0025 -0.9913 -0.1313
vn -0.0000 -0.9916 -0.1293
vn -0.0000 0.8753 0.4836
vn -0.0000 0.9538 0.3004
vn -0.0000 0.9193 -0.3936
vn -0.0003 -0.9913 -0.1313
vn 0.0001 -0.4997 -0.8662
vn -0.0000 -0.4994 -0.8664
vn 0.0003 -0.8663 -0.4995
vn -0.0021 -0.8627 -0.5056
vn -0.0000 0.5868 -0.8097
vn -1.0000 -0.0003 -0.0002
vn -1.0000 -0.0006 0.0001
s 0
f 49//1 50//1 47//1
f 49//1 47//1 48//1
f 9//2 49//2 48//2
f 9//2 48//2 46//2
f 43//3 45//3 34//3
f 43//3 34//3 42//3
f 6//4 9//4 46//4
f 6//3 46//3 39//3
f 53//3 54//3 51//3
f 53//3 51//3 47//3
f 55//5 56//5 9//5
f 55//5 9//5 20//5
f 47//3 51//3 52//3
f 47//3 52//3 48//3
f 48//3 52//3 39//3
f 48//3 39//3 46//3
f 40//3 4//3 3//3
f 40//3 3//3 38//3
f 41//3 42//3 34//3
f 41//3 34//3 17//3
f 36//3 37//3 38//3
f 36//3 38//3 3//3
f 39//6 36//6 3//6
f 39//6 3//6 6//6
f 37//7 43//7 42//7
f 37//7 42//7 38//7
f 44//8 45//8 43//8
f 44//8 43//8 37//8
f 40//9 41//9 17//9
f 40//9 17//9 4//9
f 38//10 42//10 41//10
f 38//10 41//10 40//10
f 9//5 56//5 50//5
f 9//5 50//5 49//5
f 65//11 64//11 62//11
f 65//11 62//11 61//11
f 64//12 65//12 45//12
f 64//12 45//12 44//12
f 62//3 64//3 36//3
f 62//3 36//3 59//3
f 63//3 60//3 59//3
f 63//3 59//3 36//3
f 65//3 58//3 34//3
f 65//3 34//3 45//3
f 57//3 61//3 54//3
f 57//3 54//3 53//3
f 36//3 64//3 44//3
f 36//3 44//3 37//3
f 58//3 65//3 61//3
f 58//3 61//3 57//3
f 58//13 57//13 55//13
f 58//13 55//13 20//13
f 34//14 58//14 20//14
f 34//14 20//14 21//14
f 50//15 56//15 53//15
f 50//15 53//15 47//15
f 56//16 55//16 57//16
f 56//16 57//16 53//16
f 52//17 63//17 36//17
f 52//17 36//17 39//17
f 51//18 60//18 63//18
f 51//18 63//18 52//18
f 54//19 59//19 60//19
f 54//19 60//19 51//19
f 61//20 62//20 59//20
f 61//20 59//20 54//20
f 17//3 34//3 35//3
f 17//3 35//3 12//3
f 10//5 20//5 9//5
f 10//5 9//5 15//5
f 21//5 20//5 10//5
f 21//5 10//5 16//5
f 4//21 17//21 18//21
f 4//21 18//21 1//21
f 19//5 15//5 9//5
f 19//5 9//5 8//5
f 24//22 23//22 28//22
f 24//22 28//22 19//22
f 29//5 30//5 19//5
f 29//5 19//5 8//5
f 24//23 25//23 22//23
f 24//23 22//23 23//23
f 25//24 26//24 27//24
f 25//24 27//24 22//24
f 5//25 7//25 6//25
f 5//25 6//25 3//25
f 8//26 9//26 6//26
f 8//25 6//25 7//25
f 3//3 4//3 1//3
f 3//3 1//3 2//3
f 5//3 3//3 2//3
f 13//5 16//5 10//5
f 11//3 18//3 17//3
f 11//3 17//3 12//3
f 12//21 13//21 10//21
f 12//21 10//21 11//21
f 10//27 15//27 14//27
f 10//27 14//27 11//27
f 19//5 30//5 26//5
f 19//5 26//5 25//5
f 32//28 68//28 66//28
f 32//29 66//29 33//29
f 68//30 32//30 2//30
f 68//31 2//31 31//31
f 2//16 32//16 33//16
f 2//3 33//3 5//3
f 33//32 66//32 7//32
f 33//33 7//33 5//33
f 16//34 35//34 34//34
f 16//34 34//34 21//34
f 12//35 35//35 16//35
f 12//35 16//35 13//35
f 19//36 28//36 14//36
f 19//36 14//36 15//36
f 14//3 28//3 18//3
f 14//3 18//3 11//3
f 7//37 66//37 29//37
f 7//33 29//33 8//33
f 26//38 30//38 67//38
f 26//39 67//39 27//39
f 24//5 19//5 25//5
f 66//40 67//40 30//40
f 66//41 30//41 29//41
f 1//42 18//42 31//42
f 1//42 31//42 2//42
f 67//43 68//43 31//43
f 67//44 31//44 27//44
f 28//3 23//3 31//3
f 28//3 31//3 18//3
f 22//3 27//3 31//3
f 22//3 31//3 23//3
o Chassis_havok_s_rightTrack_1
v 0.949999 1.140745 -2.506435
v 0.949999 0.801105 2.827992
v 0.949999 0.401888 2.538667
v 0.949999 0.401888 -2.277386
v 0.949999 1.143529 2.725523
v 1.033792 1.140745 -2.506435
v 1.033792 1.143529 2.725523
v 1.636095 1.143529 2.725523
v 1.636095 1.140188 -2.729456
v 1.636095 0.003785 1.839465
v 1.636095 0.003785 -1.945868
v 1.033792 0.003785 -1.945868
v 1.033792 0.003785 1.839465
v 1.033792 0.043317 1.972073
v 1.636095 0.043317 1.972073
v 1.636095 0.045544 -2.078475
v 1.033792 0.401888 2.538667
v 1.033792 0.368481 2.834020
v 1.033792 0.401888 -2.277386
v 1.636095 0.368481 2.834020
v 1.636095 0.624046 -2.988643
v 1.636095 0.575049 -2.934394
v 1.033792 0.645204 3.105262
v 1.636095 0.645204 3.105262
v 1.636095 0.468146 3.002793
v 1.033792 0.468146 3.002793
v 1.033792 0.850102 3.105262
v 1.636095 0.850102 3.105262
v 1.636095 1.130166 2.827992
v 1.636095 1.027717 3.002793
v 1.033792 0.801105 2.827992
v 0.949999 1.130166 2.827992
v 0.949999 1.129053 2.827992
v 1.033792 0.575049 -2.934394
v 1.033792 0.045544 -2.078475
v 0.949999 1.017695 -2.771649
v 0.949999 0.600661 -2.512463
v 0.949999 0.635182 -2.663153
v 1.033792 1.017695 -2.771649
v 0.949999 0.520484 -2.385883
v 1.033792 0.520484 -2.385883
v 1.033792 0.600661 -2.512463
v 1.033792 0.635182 -2.663153
v 0.949999 0.649102 -2.777677
v 1.033792 0.649102 -2.777677
v 1.033792 1.140188 -2.729456
v 1.033792 1.037739 -2.988643
v 1.636095 1.037739 -2.988643
v 1.636095 1.122371 -2.868091
v 1.033792 1.122371 -2.868091
v 1.033792 0.988742 -2.831925
v 1.033792 0.946426 -2.874119
v 1.033792 0.862908 -2.910284
v 1.033792 0.905224 -3.060974
v 1.636095 0.905224 -3.060974
v 1.636095 0.756562 -3.060974
v 1.033792 0.756562 -3.060974
v 1.033792 0.624046 -2.988643
v 0.949999 0.946426 -2.874119
v 0.949999 0.862908 -2.910284
v 0.949999 0.773265 -2.904257
v 1.033792 0.773265 -2.904257
v 0.949999 0.988742 -2.831925
v 0.949999 0.698099 -2.856036
v 1.033792 0.698099 -2.856036
v 1.033904 1.027957 3.002738
v 1.033904 1.130328 2.825174
v 1.033904 1.128920 2.827613
vn -0.0000 -0.8184 0.5746
vn -0.0000 -0.9918 0.1275
vn 1.0000 -0.0000 -0.0000
vn -0.0000 -1.0000 0.0025
vn -1.0000 -0.0000 -0.0000
vn -0.0000 -0.9071 0.4209
vn -0.0000 0.9747 0.2233
vn -0.0000 0.9927 0.1207
vn -0.0000 0.6750 0.7378
vn -0.0000 0.8448 0.5351
vn -0.0000 0.5400 0.8417
vn -0.0000 0.8479 0.5302
vn -0.0000 0.4791 0.8778
vn -0.0000 0.7421 0.6703
vn -0.0000 -0.4791 0.8778
vn -0.0000 -0.0000 1.0000
vn -0.0000 -0.9014 0.4330
vn -0.0000 -0.7061 0.7081
vn -0.0000 -0.3974 0.9177
vn -0.0000 0.0671 0.9977
vn -0.0000 1.0000 -0.0000
vn -0.0000 -0.0000 -1.0000
vn -0.0000 0.8611 -0.5085
vn -0.0000 0.5009 -0.8655
vn -0.0000 -1.0000 0.0005
vn -0.0007 -1.0000 0.0006
vn -0.0000 0.9583 -0.2857
vn -0.0024 -0.9916 -0.1293
vn -0.0000 -0.9913 -0.1313
vn -0.0036 -0.8660 -0.5000
vn -0.0336 -0.0000 -0.9994
vn 1.0000 -0.0003 -0.0002
vn 1.0000 -0.0006 0.0001
vn -0.0000 0.8504 0.5261
vn -0.0000 0.9538 0.3004
vn -0.0045 -0.0000 -1.0000
vn -0.0000 -0.0012 -1.0000
vn -0.0000 0.9356 -0.3530
vn -0.0003 -0.8663 -0.4995
vn 0.0021 -0.8627 -0.5056
vn -0.0001 -0.4997 -0.8662
vn -0.0000 -0.4994 -0.8664
vn -0.0000 0.5868 -0.8097
vn 0.0003 -0.9913 -0.1313
vn -0.0000 -0.9916 -0.1293
s 0
f 117//45 118//45 115//45
f 117//45 115//45 116//45
f 118//46 117//46 77//46
f 118//46 77//46 114//46
f 102//47 113//47 111//47
f 102//47 111//47 110//47
f 114//48 77//48 74//48
f 114//47 74//47 107//47
f 120//47 121//47 122//47
f 120//47 122//47 115//47
f 117//49 116//49 89//49
f 117//49 89//49 77//49
f 119//47 120//47 115//47
f 119//47 115//47 118//47
f 107//47 119//47 118//47
f 107//47 118//47 114//47
f 69//47 72//47 108//47
f 69//47 108//47 105//47
f 102//47 110//47 109//47
f 102//47 109//47 87//47
f 105//47 106//47 104//47
f 105//47 104//47 69//47
f 69//50 104//50 107//50
f 69//50 107//50 74//50
f 110//51 111//51 106//51
f 110//51 106//51 105//51
f 111//52 113//52 112//52
f 111//52 112//52 106//52
f 87//53 109//53 108//53
f 87//53 108//53 72//53
f 109//54 110//54 105//54
f 109//54 105//54 108//54
f 123//49 124//49 89//49
f 123//49 89//49 116//49
f 129//55 132//55 133//55
f 129//55 133//55 130//55
f 113//56 133//56 132//56
f 113//56 132//56 112//56
f 104//47 132//47 129//47
f 104//47 129//47 128//47
f 128//47 127//47 131//47
f 128//47 131//47 104//47
f 102//47 126//47 133//47
f 102//47 133//47 113//47
f 121//47 130//47 125//47
f 121//47 125//47 122//47
f 112//47 132//47 104//47
f 112//47 104//47 106//47
f 130//47 133//47 126//47
f 130//47 126//47 125//47
f 124//57 125//57 126//57
f 124//57 126//57 89//57
f 89//58 126//58 102//58
f 89//58 102//58 90//58
f 122//59 123//59 116//59
f 122//59 116//59 115//59
f 125//60 124//60 123//60
f 125//60 123//60 122//60
f 104//61 131//61 119//61
f 104//61 119//61 107//61
f 131//62 127//62 120//62
f 131//62 120//62 119//62
f 127//63 128//63 121//63
f 127//63 121//63 120//63
f 128//64 129//64 130//64
f 128//64 130//64 121//64
f 103//47 102//47 87//47
f 103//47 87//47 80//47
f 77//49 83//49 88//49
f 77//49 88//49 76//49
f 77//49 89//49 78//49
f 77//49 78//49 83//49
f 87//47 82//47 81//47
f 87//47 81//47 80//47
f 85//65 87//65 72//65
f 85//65 72//65 71//65
f 95//66 96//66 92//66
f 95//66 92//66 91//66
f 86//67 94//67 93//67
f 86//67 93//67 88//67
f 78//49 89//49 90//49
f 78//49 90//49 84//49
f 93//68 94//68 91//68
f 93//68 91//68 92//68
f 74//69 75//69 73//69
f 74//69 73//69 69//69
f 74//70 77//70 76//70
f 74//69 76//69 75//69
f 71//47 72//47 69//47
f 71//47 69//47 70//47
f 73//47 70//47 69//47
f 79//49 78//49 84//49
f 85//47 86//47 82//47
f 85//47 82//47 87//47
f 80//65 81//65 78//65
f 80//65 78//65 79//65
f 82//71 83//71 78//71
f 82//71 78//71 81//71
f 88//49 93//49 97//49
f 88//49 97//49 76//49
f 135//72 100//72 73//72
f 135//73 73//73 75//73
f 135//74 136//74 101//74
f 135//75 101//75 100//75
f 99//76 136//76 134//76
f 99//77 134//77 95//77
f 100//65 101//65 70//65
f 100//47 70//47 73//47
f 102//78 103//78 84//78
f 102//78 84//78 90//78
f 84//79 103//79 80//79
f 84//79 80//79 79//79
f 70//80 101//80 136//80
f 70//81 136//81 99//81
f 82//82 86//82 88//82
f 82//82 88//82 83//82
f 98//49 97//49 96//49
f 98//83 134//83 135//83
f 98//84 135//84 97//84
f 92//49 96//49 97//49
f 92//49 97//49 93//49
f 134//85 98//85 96//85
f 134//86 96//86 95//86
f 99//47 95//47 91//47
f 99//47 91//47 94//47
f 99//87 85//87 71//87
f 99//87 71//87 70//87
f 97//88 135//88 75//88
f 97//89 75//89 76//89
f 99//47 94//47 86//47
f 99//47 86//47 85//47
o Turret_01_havok_s_armor_2_0
v -0.420000 2.283558 -0.203238
v -0.420000 1.658462 -1.111840
v -0.322746 1.658462 -1.111840
v -0.322746 2.283558 -0.203238
v -0.420000 2.283558 -0.011840
v -0.322746 2.283558 -0.011840
v 0.322746 2.283558 -0.203238
v 0.322746 2.283558 -0.011840
v 0.322746 1.658462 -1.111840
v 0.420000 1.658462 -1.111840
v 0.420000 2.283558 -0.203238
v 0.420000 2.283558 -0.011840
v -0.420000 1.372093 -1.111840
v -0.322650 1.372093 -1.111840
v -0.420000 1.372093 -0.011840
v -0.322650 1.372093 -0.011840
v 0.322650 1.372093 -0.011840
v 0.420000 1.372093 -1.111840
v 0.322650 1.372093 -1.111840
v 0.420000 1.372093 -0.011840
vn -0.0000 -0.0000 1.0000
vn 1.0000 -0.0003 -0.0000
vn 1.0000 -0.0001 0.0001
vn 1.0000 -0.0001 -0.0000
vn -0.0000 -0.8239 0.5668
vn -0.0000 -1.0000 -0.0000
vn -1.0000 -0.0000 -0.0000
vn -0.0000 -0.0000 -1.0000
vn 1.0000 -0.0000 -0.0000
vn -1.0000 -0.0003 -0.0000
vn -1.0000 -0.0001 0.0001
vn -1.0000 -0.0001 -0.0000
s 0
f 145//90 155//90 154//90
f 145//90 154//90 146//90
f 153//91 155//91 145//91
f 153//92 145//92 143//92
f 153//93 143//93 144//93
f 146//94 147//94 143//94
f 146//94 143//94 145//94
f 143//95 147//95 148//95
f 143//95 148//95 144//95
f 156//96 148//96 147//96
f 146//96 154//96 156//96
f 146//96 156//96 147//96
f 148//97 156//97 153//97
f 148//97 153//97 144//97
f 151//98 149//98 138//98
f 151//98 138//98 137//98
f 139//99 150//99 152//99
f 139//100 152//100 140//100
f 139//94 140//94 137//94
f 139//94 137//94 138//94
f 149//90 150//90 139//90
f 149//90 139//90 138//90
f 142//101 140//101 152//101
f 152//97 151//97 141//97
f 152//97 141//97 142//97
f 137//98 141//98 151//98
f 140//95 142//95 141//95
f 140//95 141//95 137//95
o Turret_01_havok_s_armor_1_1
v -0.529783 1.825527 -1.198341
v -0.529783 2.820898 -1.198341
v -0.598485 2.820898 -1.077753
v -0.598485 1.825527 -1.077753
v -0.465350 1.825527 -1.279165
v -0.465350 2.820898 -1.279165
v -0.635962 2.820898 -0.940434
v -0.635962 1.825527 -0.940434
v -0.621397 2.820898 -0.657552
v -0.621397 1.825527 -0.657552
v -0.646029 1.825527 -0.798384
v -0.646029 2.820898 -0.798384
v -0.581552 1.825527 -0.550439
v -0.581552 2.820898 -0.550439
v 0.620690 2.820898 -0.657552
v 0.643869 2.820898 -0.845937
v 0.643869 1.825527 -0.845937
v 0.620690 1.825527 -0.657552
v 0.580378 1.825527 -0.549495
v 0.580379 2.820898 -0.549495
v 0.626820 1.825527 -0.986541
v 0.626820 2.820898 -0.986541
v 0.576489 2.820898 -1.119237
v 0.576489 1.825527 -1.119237
v 0.511450 1.825527 -1.223837
v 0.526029 2.332976 -1.206074
v 0.465391 2.255391 -1.278565
v 0.465391 1.825527 -1.278565
v 0.526029 2.820898 -1.206074
vn -0.9927 -0.0000 0.1204
vn -0.9350 -0.0000 0.3546
vn -0.9369 -0.0000 -0.3495
vn -0.8646 -0.0000 0.5024
vn -0.7651 -0.0000 0.6439
vn -0.7668 -0.0004 0.6419
vn -0.8492 0.0059 0.5280
vn -0.9925 -0.0000 -0.1221
vn 0.9647 -0.0000 0.2633
vn 0.7819 -0.0000 0.6234
vn 0.8689 -0.0000 0.4950
vn 0.9373 -0.0000 -0.3486
vn 0.9975 -0.0000 0.0707
vn 0.9850 -0.0000 -0.1723
s 0
f 178//102 177//102 173//102
f 178//102 173//102 172//102
f 179//103 180//103 177//103
f 179//103 177//103 178//103
f 175//104 176//104 171//104
f 175//104 171//104 174//104
f 179//105 185//105 182//105
f 179//105 182//105 180//105
f 183//106 184//106 181//106
f 183//107 181//107 182//107
f 181//108 180//108 182//108
f 173//109 174//109 171//109
f 173//109 171//109 172//109
f 163//110 164//110 160//110
f 163//110 160//110 159//110
f 161//111 162//111 158//111
f 161//111 158//111 157//111
f 159//112 160//112 157//112
f 159//112 157//112 158//112
f 165//113 170//113 169//113
f 165//113 169//113 166//113
f 168//114 167//114 164//114
f 168//114 164//114 163//114
f 167//115 168//115 165//115
f 167//115 165//115 166//115
o Hull_havok_s_armor_6_0
v 1.499998 1.891876 1.326842
v -1.499999 1.891876 0.208108
v -1.499999 1.891876 1.326842
v -1.180507 2.548203 0.208108
v 1.499999 1.711876 1.326843
v 1.499999 1.891876 -0.870545
v 1.499999 1.711876 -0.943274
v 0.649999 1.711876 1.326842
v 1.499999 1.295878 -2.174772
v 1.499999 1.295876 2.827613
v 1.499999 1.711876 -1.282712
v 1.499999 1.711875 2.827613
v -1.499999 1.295876 2.827613
v -1.499999 1.711876 1.326841
v -1.499999 1.711875 2.827613
v -1.499998 1.295878 -2.174773
v -1.499998 1.711876 -1.282712
v -1.499998 1.711876 -0.943274
v -0.801672 2.724346 0.208107
v -0.801604 2.724346 1.326842
v -0.649932 1.711876 1.326841
v -0.649932 2.724346 1.326842
v -1.179905 2.548203 -0.605377
v -0.801672 2.724346 -0.534211
v -1.499998 1.891876 -0.870546
v 0.801487 2.724346 -0.534211
v 0.801487 2.724346 1.326842
v 0.649999 2.724346 1.326842
vn 0.4221 -0.9065 0.0003
vn 0.4216 -0.9068 -0.0000
vn 0.8988 -0.4384 -0.0000
vn 0.8991 -0.4377 0.0007
vn -0.0000 -0.0000 -1.0000
vn -0.7661 -0.6428 -0.0000
vn 1.0000 -0.0000 -0.0000
vn 0.7661 -0.6427 -0.0000
vn -1.0000 -0.0000 -0.0000
s 0
f 189//116 208//116 209//116
f 189//117 209//117 204//117
f 187//118 210//118 208//118
f 187//119 208//119 189//119
f 205//120 207//120 206//120
f 205//120 206//120 188//120
f 204//120 187//120 189//120
f 186//121 212//121 211//121
f 186//121 211//121 191//121
f 193//120 213//120 212//120
f 193//120 212//120 186//120
f 199//122 187//122 188//122
f 199//120 188//120 206//120
f 199//122 203//122 210//122
f 199//122 210//122 187//122
f 187//123 204//123 205//123
f 187//123 205//123 188//123
f 192//124 194//124 195//124
f 192//124 195//124 190//124
f 194//124 192//124 196//124
f 191//124 192//124 190//124
f 191//124 190//124 186//124
f 190//120 193//120 186//120
f 201//122 202//122 203//122
f 198//122 201//122 203//122
f 198//122 203//122 199//122
f 190//124 195//124 197//124
f 198//122 199//122 200//122
o Hull_havok_s_armor_10_1
v -0.949998 1.295878 -2.174774
v -1.499998 1.295878 -2.174773
v -1.499999 1.295877 2.827613
v -0.949999 1.295877 2.827613
v -0.949999 0.401878 -2.280383
v -0.949999 0.401878 2.537612
v 0.949999 0.401878 2.537613
v 0.950000 0.401878 -2.280383
v 0.950000 1.295878 -2.174772
v 0.949999 1.295876 2.827613
v 1.499999 1.295876 2.827613
v 1.499999 1.295878 -2.174771
vn -0.0000 1.0000 -0.0000
s 0
f 224//125 225//125 222//125
f 224//125 222//125 223//125
f 220//125 221//125 218//125
f 220//125 218//125 219//125
f 216//125 217//125 214//125
f 216//125 214//125 215//125
o Hull_havok_s_armor_7_2
v 0.611350 1.295877 -2.174771
v -0.616374 1.295877 -2.174771
v -0.616374 1.181521 -2.420028
v 0.611350 1.181521 -2.420027
v 0.611350 1.307961 -2.148857
v -0.616374 1.307961 -2.148857
vn -0.0000 -0.9063 0.4226
s 0
f 226//126 230//126 231//126
f 226//126 231//126 227//126
f 228//126 229//126 226//126
f 228//126 226//126 227//126
o Hull_havok_s_armor_2_3
v -0.949999 0.488461 -2.346842
v 0.950000 0.488461 -2.346842
v 0.950000 0.552790 -2.425204
v -0.949999 0.552790 -2.425204
v -0.949999 0.600529 -2.514601
v 0.950000 0.600529 -2.514601
v 0.950000 0.629985 -2.611725
v -0.949999 0.629985 -2.611725
v -0.949999 1.017652 -2.771207
v -0.949999 1.181521 -2.420237
v 0.950000 1.017652 -2.771207
v 0.950000 1.181521 -2.420237
v -0.949999 0.635063 -2.664702
v 0.950000 0.635063 -2.664702
v 0.950000 0.639803 -2.718230
v -0.949999 0.639803 -2.718230
v 0.950000 0.649284 -2.777829
v -0.949999 0.649284 -2.777829
v 0.950000 0.676708 -2.831909
v -0.949999 0.676708 -2.831909
v 0.950000 0.773201 -2.901993
v 0.950000 0.719368 -2.874401
v 0.950000 0.832790 -2.911374
v 0.950000 0.892379 -2.901993
v 0.950000 0.988873 -2.831909
v 0.950000 0.946213 -2.874401
v -0.949999 0.719368 -2.874401
v -0.949999 0.773201 -2.901993
v -0.949999 0.832790 -2.911374
v -0.949999 0.892379 -2.901993
v -0.949999 0.988873 -2.831909
v -0.949999 0.946213 -2.874401
v -0.949999 0.401878 -2.280383
v 0.950000 0.401878 -2.280383
v -0.949999 1.295877 -2.174774
v 0.950000 1.295877 -2.174772
v -0.616374 1.181521 -2.420028
v 0.611350 1.181521 -2.420027
v 0.611350 1.295877 -2.174771
v -0.616374 1.295877 -2.174771
vn -1.0000 -0.0000 -0.0000
vn 1.0000 -0.0000 -0.0000
vn -0.0000 0.4561 0.8899
vn -0.0000 -0.1555 0.9878
vn -0.0000 0.8919 0.4523
vn -0.0000 0.7057 0.7085
vn -0.0000 -0.4561 0.8899
vn -0.0000 -0.7057 0.7085
vn -0.0000 0.1555 0.9878
vn -0.0000 -0.9036 0.4284
vn -0.0000 0.7729 0.6345
vn -0.0000 0.6089 0.7933
vn -0.0000 0.9570 0.2902
vn -0.0000 0.8821 0.4710
vn -0.0000 0.9961 0.0882
vn -0.0003 -0.9063 0.4226
vn -0.0000 -0.9065 0.4223
vn -0.0000 0.9876 0.1571
vn -0.0000 0.9954 0.0954
vn -0.0003 -0.9066 0.4219
vn -0.0000 -0.9061 0.4231
vn -0.0000 -0.9063 0.4226
vn 0.0003 -0.9065 0.4223
vn -0.0000 -0.9062 0.4229
vn 0.0003 -0.9061 0.4231
s 0
f 256//127 257//127 255//127
f 256//127 255//127 242//127
f 242//127 255//127 254//127
f 242//127 254//127 252//127
f 260//128 261//128 240//128
f 260//128 240//128 259//128
f 258//128 259//128 240//128
f 258//128 240//128 251//128
f 240//128 239//128 244//128
f 240//128 244//128 247//128
f 242//127 250//127 248//127
f 242//127 248//127 246//127
f 242//127 252//127 253//127
f 242//127 253//127 250//127
f 249//128 251//128 240//128
f 249//128 240//128 247//128
f 261//128 263//128 262//128
f 261//128 262//128 240//128
f 252//129 259//129 258//129
f 252//129 258//129 253//129
f 255//130 261//130 260//130
f 255//130 260//130 254//130
f 250//131 251//131 249//131
f 250//131 249//131 248//131
f 250//132 253//132 258//132
f 250//132 258//132 251//132
f 257//133 263//133 261//133
f 257//133 261//133 255//133
f 262//134 263//134 257//134
f 262//134 257//134 256//134
f 254//135 260//135 259//135
f 254//135 259//135 252//135
f 262//136 256//136 242//136
f 262//136 242//136 240//136
f 245//127 238//127 242//127
f 245//127 242//127 246//127
f 241//128 232//128 235//128
f 241//128 235//128 236//128
f 240//128 241//128 236//128
f 240//128 236//128 239//128
f 237//127 243//127 242//127
f 237//127 242//127 238//127
f 266//128 264//128 232//128
f 266//128 232//128 241//128
f 234//137 235//137 232//137
f 234//137 232//137 233//137
f 232//138 264//138 265//138
f 232//138 265//138 233//138
f 237//139 238//139 239//139
f 237//139 239//139 236//139
f 234//140 237//140 236//140
f 234//140 236//140 235//140
f 234//127 233//127 243//127
f 234//127 243//127 237//127
f 246//141 247//141 244//141
f 246//141 244//141 245//141
f 241//142 268//142 271//142
f 241//143 271//143 266//143
f 248//144 249//144 247//144
f 248//144 247//144 246//144
f 245//145 244//145 239//145
f 245//145 239//145 238//145
f 242//146 268//146 241//146
f 242//147 241//147 240//147
f 233//127 265//127 267//127
f 233//127 267//127 243//127
f 267//148 270//148 269//148
f 267//149 269//149 243//149
f 269//150 268//150 242//150
f 269//151 242//151 243//151
o Hull_havok_s_armor_1_4
v -0.949998 1.295877 -2.174774
v -0.616375 1.307961 -2.148857
v -1.499998 1.711876 -1.282712
v -1.499998 1.295878 -2.174773
v -0.649999 1.711876 -0.943255
v -1.499998 1.711876 -0.943274
v 0.949999 1.295877 -2.174772
v 1.499999 1.295877 -2.174771
v 1.499999 1.711876 -1.282711
v 0.611350 1.307961 -2.148857
v 0.611350 1.295877 -2.174771
v -0.616375 1.295877 -2.174771
v 0.649999 1.711876 -0.943255
v 1.499999 1.711876 -0.943274
vn -0.0000 -0.9063 0.4226
vn -0.0000 -1.0000 -0.0000
s 0
f 273//152 272//152 283//152
f 278//152 281//152 282//152
f 285//153 284//153 280//153
f 274//153 280//153 284//153
f 274//153 284//153 276//153
f 276//153 277//153 274//153
f 274//152 275//152 272//152
f 274//152 272//152 273//152
f 274//152 273//152 281//152
f 274//152 281//152 278//152
f 278//152 279//152 280//152
f 278//152 280//152 274//152
o Hull_havok_s_armor_3_5
v -0.950000 0.401878 2.537612
v -0.949999 0.401878 -2.280383
v -0.949999 1.295877 -2.174774
v -0.950000 0.800877 2.827613
v -0.950000 1.295877 2.827613
v 0.949998 0.401878 2.537613
v 0.949998 0.800877 2.827613
v 0.949999 1.295877 -2.174772
v 0.949999 0.401878 -2.280383
v 0.949998 1.295877 2.827613
vn -1.0000 -0.0000 -0.0000
vn 1.0000 -0.0000 -0.0000
s 0
f 293//154 294//154 291//154
f 293//154 291//154 292//154
f 295//154 293//154 292//154
f 288//155 289//155 286//155
f 288//155 286//155 287//155
f 290//155 289//155 288//155
o Hull_havok_s_armor_4_6
v 0.949999 0.401878 2.537613
v -0.949999 0.401878 2.537613
v -0.949999 0.800877 2.827613
v 0.949999 0.800877 2.827613
v 1.499999 1.711875 2.827613
v 0.949999 1.295877 2.827613
v -0.949999 1.295877 2.827613
v -1.499999 1.711875 2.827613
v -1.499999 1.295877 2.827613
v 1.499999 1.295877 2.827613
vn -0.0000 -0.0000 -1.0000
vn -0.0000 0.5879 -0.8089
s 0
f 301//156 300//156 305//156
f 302//156 301//156 299//156
f 302//156 299//156 298//156
f 304//156 303//156 302//156
f 298//157 299//157 296//157
f 298//157 296//157 297//157
f 302//156 303//156 300//156
f 302//156 300//156 301//156
o Hull_havok_s_armor_5_7
v -1.179904 2.548203 -0.605376
v -1.499998 1.891876 -0.870546
v -1.499998 1.711876 -0.943274
v -0.649999 1.711876 -0.943255
v -0.649999 2.724346 -0.534210
v -0.801672 2.724346 -0.534210
v -0.669997 1.711807 -0.942572
v -0.669992 2.724347 -0.942586
v -0.669997 2.724268 -0.533449
v 1.499999 1.711876 -0.943274
v 1.499999 1.891876 -0.870545
v 0.801487 2.724346 -0.534210
v 0.649999 1.711876 -0.943255
v 0.649999 2.724346 -0.534209
v 0.649999 1.711807 -0.942572
v 0.650005 2.724347 -0.942586
v 0.649999 2.724268 -0.533449
v 0.669999 2.724266 -0.533444
v 0.670005 2.724345 -0.942581
v 0.670001 1.711806 -0.942574
v -0.649997 2.724266 -0.533444
v -0.649992 2.724345 -0.942581
v -0.649996 1.711806 -0.942574
vn 1.0000 -0.0000 -0.0000
vn -0.0000 -0.3746 0.9272
vn -1.0000 -0.0000 -0.0000
s 0
f 320//158 321//158 322//158
f 319//159 318//159 317//159
f 326//160 327//160 328//160
f 323//160 324//160 325//160
f 310//159 311//159 306//159
f 310//159 306//159 309//159
f 306//159 307//159 308//159
f 306//159 308//159 309//159
f 317//159 318//159 315//159
f 317//159 315//159 316//159
f 312//158 313//158 314//158
o Hull_havok_s_armor_14_8
v -0.649999 2.724346 -0.357098
v 0.579153 2.724346 -0.062004
v 0.492740 2.724346 0.063742
v 0.382059 2.724346 0.168763
v 0.630091 2.724346 -0.205826
v 0.650000 2.724346 -0.357097
v 0.174829 2.724346 0.263235
v -0.630092 2.724346 -0.205828
v -0.579154 2.724346 -0.062006
v -0.382061 2.724346 0.168762
v -0.492741 2.724346 0.063740
v -0.000001 2.724346 0.292901
v -0.174831 2.724346 0.263235
v -0.649999 1.711876 -0.943255
v 0.650000 1.711876 -0.943255
v 0.650000 2.724346 -0.534209
v -0.649999 2.724346 -0.534210
vn -0.0000 -1.0000 -0.0000
vn -0.0000 -0.3746 0.9272
s 0
f 335//161 340//161 341//161
f 335//161 341//161 338//161
f 335//161 338//161 339//161
f 335//161 339//161 337//161
f 345//161 344//161 334//161
f 345//161 334//161 329//161
f 344//162 345//162 342//162
f 344//162 342//162 343//162
f 329//161 334//161 333//161
f 329//161 333//161 330//161
f 331//161 332//161 329//161
f 331//161 329//161 330//161
f 336//161 335//161 337//161
f 335//161 336//161 329//161
f 335//161 329//161 332//161
o Hull_havok_s_armor_8_9
v -0.649932 1.711876 1.326842
v 0.649999 1.711876 1.326842
v 1.499999 1.711875 2.827613
v -1.499999 1.711875 2.827613
v 1.499999 1.711876 1.326843
v -1.499999 1.711876 1.326841
v 0.579153 2.724346 -0.062004
v 0.630092 2.724346 -0.205825
v 0.801487 2.724346 1.326842
v 0.649999 2.724346 1.326842
v 0.801487 2.724346 -0.534210
v 0.649999 2.724346 -0.357097
v 0.649999 2.724346 -0.534209
v 0.382060 2.724346 0.168763
v 0.492740 2.724346 0.063742
v -0.000001 2.724346 0.292901
v 0.174829 2.724346 0.263235
v -0.649932 2.724346 1.326842
v -0.801604 2.724346 1.326842
v -0.801672 2.724346 0.208107
v -0.492741 2.724346 0.063740
v -0.382060 2.724346 0.168761
v -0.630091 2.724346 -0.205828
v -0.579153 2.724346 -0.062006
v -0.801672 2.724346 -0.534210
v -0.649999 2.724346 -0.534209
v -0.649999 2.724346 -0.357098
v -0.174831 2.724346 0.263234
vn -0.0000 -1.0000 -0.0000
s 0
f 367//163 363//163 366//163
f 365//163 366//163 363//163
f 365//163 363//163 364//163
f 361//163 355//163 363//163
f 369//163 366//163 365//163
f 369//163 365//163 368//163
f 373//163 361//163 363//163
f 373//163 363//163 367//163
f 372//163 368//163 370//163
f 372//163 370//163 371//163
f 368//163 365//163 370//163
f 362//163 359//163 355//163
f 362//163 355//163 361//163
f 349//163 351//163 346//163
f 347//163 350//163 348//163
f 348//163 349//163 346//163
f 348//163 346//163 347//163
f 354//163 355//163 352//163
f 354//163 352//163 353//163
f 360//163 352//163 355//163
f 360//163 355//163 359//163
f 356//163 353//163 357//163
f 356//163 357//163 358//163
f 356//163 354//163 353//163
o Gun_01_havok_s_gun_0
v 0.396821 2.039762 -2.414606
v 0.280927 2.039762 -2.414606
v 0.396821 2.153737 -2.436997
v 0.280927 2.153737 -2.436997
v -0.272830 2.153737 -2.436997
v -0.272830 2.039762 -2.414606
v -0.194928 2.452442 -1.298801
v -0.194928 2.059978 -1.298801
v -0.124317 2.127248 -1.884692
v -0.124317 2.389007 -1.884692
v 0.193815 2.452442 -1.298801
v 0.124355 2.389007 -1.884692
v 0.124355 2.127248 -1.884692
v 0.193815 2.059978 -1.298801
v 0.323524 2.129688 -1.880960
v -0.315427 2.129688 -1.880960
v -0.315427 2.022683 -1.880960
v 0.323524 2.022683 -1.880960
v -0.388724 2.039762 -2.414606
v -0.388724 2.153737 -2.436997
v -0.108967 2.367397 -4.511873
v 0.109005 2.367397 -4.511873
v 0.109005 2.142932 -4.511873
v -0.108967 2.142932 -4.511873
v 0.131647 2.386916 -4.511873
v 0.131647 2.123414 -4.511873
v -0.131609 2.386916 -4.511873
v -0.315427 2.022683 -2.489242
v -0.315427 1.801007 -2.489242
v 0.323524 2.022683 -2.489242
v 0.323524 1.801007 -2.489242
v 0.004240 1.738966 -2.489242
v -0.165379 2.088559 -4.862661
v -0.165379 2.421770 -4.862661
v -0.131609 2.386916 -4.702194
v -0.131609 2.123414 -4.702194
v -0.131609 2.123414 -4.511873
v 0.131647 2.123414 -4.702194
v 0.131647 2.386916 -4.702194
v 0.165417 2.421770 -4.862661
v 0.165417 2.088559 -4.862661
v 0.128193 2.127248 -4.911174
v -0.128155 2.127248 -4.911174
v -0.128155 2.383081 -4.911174
v 0.128193 2.383081 -4.911174
v -0.134295 2.389704 -5.038055
v 0.134333 2.389704 -5.038055
v -0.108967 2.364260 -5.060446
v 0.109005 2.364260 -5.060446
v -0.110119 2.364957 -5.116423
v 0.109773 2.364957 -5.116423
v -0.110119 2.145372 -5.116423
v 0.109773 2.145372 -5.116423
v 0.134333 2.120974 -5.038055
v -0.134295 2.120974 -5.038055
v 0.109005 2.146069 -5.060446
v -0.108967 2.146069 -5.060446
v 0.280816 2.268780 -1.123901
v 0.396821 2.268780 -1.123901
v 0.396821 2.385365 -1.123716
v 0.280816 2.385365 -1.123716
v -0.272719 2.268780 -1.123901
v -0.272719 2.385365 -1.123716
v 0.193795 2.455426 -1.123606
v -0.194986 2.455426 -1.123606
v -0.194986 2.059964 -1.124230
v 0.193795 2.059964 -1.124230
v 0.323503 2.129593 -1.124121
v -0.315406 2.129593 -1.124121
v -0.388724 2.268780 -1.123901
v -0.388724 2.385365 -1.123716
v -0.315406 1.801110 -1.124640
v -0.315406 1.984487 -1.124349
v 0.323503 1.801110 -1.124640
v 0.323503 1.984487 -1.124349
v 0.004049 1.738966 -1.124738
vn -0.0000 0.9772 -0.2123
vn -0.0000 0.7818 0.6235
vn -0.9786 -0.0000 -0.2059
vn -1.0000 -0.0000 -0.0000
vn -0.0000 -0.9772 -0.2123
vn -0.0000 -0.7818 0.6235
vn -0.0000 1.0000 -0.0000
vn -0.0000 -0.0000 -1.0000
vn -0.0000 -1.0000 -0.0000
vn -0.0000 -0.0000 1.0000
vn 0.1910 0.9816 -0.0000
vn 0.1905 0.9817 -0.0001
vn -0.1910 0.9816 -0.0001
vn -0.1907 0.9816 -0.0000
vn 1.0000 -0.0000 -0.0000
vn 0.9786 -0.0000 -0.2059
vn -0.9999 -0.0000 -0.0137
vn -0.7934 -0.0000 0.6087
vn -0.9988 -0.0000 -0.0483
vn -0.6623 -0.0000 0.7492
vn 0.9998 -0.0000 -0.0206
vn 0.7934 -0.0000 0.6087
vn 0.9988 -0.0000 -0.0483
vn 0.6623 -0.0000 0.7492
vn -0.0000 -0.6607 0.7507
vn -0.0000 -0.6606 0.7507
vn -0.0000 -0.9999 -0.0125
vn -0.0000 -0.9986 -0.0521
vn -0.0000 0.6658 0.7462
vn -0.0000 0.9999 -0.0125
vn -0.0000 0.9988 -0.0494
vn 1.0000 -0.0000 0.0003
vn -1.0000 -0.0000 -0.0001
vn -0.9930 -0.0000 0.1177
vn -0.0000 -0.9999 0.0170
vn -0.0000 -1.0000 -0.0001
vn -0.0000 0.9846 -0.1747
vn -0.0000 0.9935 0.1141
vn 1.0000 -0.0000 0.0001
vn -0.0000 0.1928 0.9812
vn 0.9928 -0.0000 0.1197
vn -0.0000 -0.9942 0.1076
vn -0.0000 -0.9848 0.1737
vn -1.0000 -0.0000 0.0001
vn 1.0000 0.0001 -0.0000
vn -0.0000 1.0000 0.0001
vn -1.0000 0.0001 -0.0000
vn -0.0000 -1.0000 0.0082
vn -1.0000 -0.0000 0.0058
vn -0.0000 1.0000 0.0060
vn 1.0000 -0.0000 0.0058
s 0
f 409//164 411//164 414//164
f 409//164 414//164 406//164
f 415//165 416//165 406//165
f 415//165 406//165 414//165
f 413//166 414//166 411//166
f 413//166 411//166 412//166
f 412//167 411//167 399//167
f 412//167 399//167 398//167
f 407//168 413//168 412//168
f 407//168 412//168 408//168
f 417//169 418//169 413//169
f 417//169 413//169 407//169
f 411//170 409//170 410//170
f 411//170 410//170 399//170
f 399//171 410//171 397//171
f 399//171 397//171 396//171
f 401//172 403//172 391//172
f 401//172 391//172 390//172
f 403//173 405//173 404//173
f 445//174 449//174 405//174
f 445//175 405//175 402//175
f 449//176 447//176 404//176
f 449//177 404//177 405//177
f 400//178 410//178 409//178
f 400//178 409//178 408//178
f 410//171 400//171 394//171
f 410//171 394//171 397//171
f 402//173 405//173 403//173
f 402//173 403//173 401//173
f 408//179 409//179 406//179
f 408//179 406//179 407//179
f 426//180 429//180 422//180
f 426//180 422//180 424//180
f 418//181 415//181 414//181
f 418//181 414//181 413//181
f 420//182 427//182 415//182
f 420//182 415//182 418//182
f 422//183 429//183 427//183
f 422//183 427//183 420//183
f 421//184 430//184 425//184
f 421//184 425//184 423//184
f 416//185 417//185 407//185
f 416//185 407//185 406//185
f 428//186 419//186 417//186
f 428//186 417//186 416//186
f 419//187 428//187 430//187
f 419//187 430//187 421//187
f 421//188 422//188 420//188
f 421//189 420//189 419//189
f 423//190 424//190 422//190
f 423//190 422//190 421//190
f 408//172 412//172 398//172
f 408//172 398//172 400//172
f 419//191 420//191 418//191
f 419//191 418//191 417//191
f 429//192 430//192 428//192
f 429//192 428//192 427//192
f 430//193 429//193 426//193
f 430//193 426//193 425//193
f 425//173 426//173 424//173
f 425//173 424//173 423//173
f 427//194 428//194 416//194
f 427//194 416//194 415//194
f 380//195 438//195 439//195
f 380//195 439//195 381//195
f 440//196 437//196 384//196
f 440//196 384//196 387//196
f 386//197 387//197 384//197
f 386//197 384//197 385//197
f 437//198 438//198 380//198
f 437//198 380//198 384//198
f 441//199 442//199 389//199
f 441//199 389//199 388//199
f 443//200 435//200 379//200
f 443//200 379//200 392//200
f 387//201 386//201 382//201
f 387//201 382//201 381//201
f 390//173 391//173 388//173
f 390//173 388//173 389//173
f 432//167 433//167 376//167
f 432//167 376//167 374//167
f 377//202 434//202 431//202
f 377//202 431//202 375//202
f 431//200 432//200 374//200
f 431//200 374//200 375//200
f 376//203 377//203 375//203
f 376//203 375//203 374//203
f 382//204 383//204 380//204
f 382//204 380//204 381//204
f 383//205 385//205 384//205
f 383//205 384//205 380//205
f 433//206 434//206 377//206
f 433//206 377//206 376//206
f 435//207 436//207 378//207
f 435//207 378//207 379//207
f 445//178 390//178 446//178
f 442//178 446//178 390//178
f 442//178 390//178 389//178
f 400//171 398//171 395//171
f 400//171 395//171 394//171
f 445//178 402//178 401//178
f 445//208 401//208 390//208
f 448//167 391//167 447//167
f 391//167 448//167 441//167
f 391//167 441//167 388//167
f 439//209 440//209 387//209
f 439//209 387//209 381//209
f 403//167 404//167 447//167
f 403//210 447//210 391//210
f 436//206 444//206 393//206
f 436//206 393//206 378//206
f 394//211 395//211 385//211
f 394//211 385//211 383//211
f 378//203 393//203 392//203
f 378//203 392//203 379//203
f 393//178 444//178 443//178
f 393//178 443//178 392//178
f 385//212 395//212 396//212
f 385//212 396//212 386//212
f 398//171 399//171 396//171
f 398//171 396//171 395//171
f 396//213 397//213 382//213
f 396//213 382//213 386//213
f 382//214 397//214 394//214
f 382//214 394//214 383//214
o Gun_01_havok_s_gunBreech_1
v -0.315462 2.129595 0.024944
v 0.323375 2.129595 0.024944
v 0.323375 2.129595 1.067109
v -0.315462 2.129595 1.067109
v -0.315462 1.909078 0.363353
v -0.315462 1.909078 1.067109
v 0.004177 1.741666 1.067109
v 0.323375 1.909078 0.363353
v 0.323375 1.909078 1.067109
v 0.450000 2.129595 0.024944
v 0.450000 2.305558 0.024944
v 0.268857 1.987384 0.371771
v -0.268857 1.987384 0.371771
v -0.268857 2.524724 0.371771
v 0.268857 2.524724 0.371771
v -0.278970 1.977483 0.349884
v -0.278970 2.535525 0.349884
v 0.278969 2.535525 0.349884
v 0.278969 1.977483 0.349884
v 0.323375 1.801070 0.363353
v 0.004177 1.738966 0.363353
v -0.315462 1.801070 0.363353
v 0.278969 2.535525 -0.367342
v 0.278969 1.977483 -0.367342
v 0.450000 2.305558 -0.488563
v 0.450000 2.129595 -0.488563
v 0.323375 2.129595 -0.488563
v -0.278970 1.977483 -0.367342
v -0.278970 2.535525 -0.367342
v -0.194993 2.059840 -0.655242
v -0.194993 2.463520 -0.655242
v -0.450000 2.305558 -0.488563
v -0.450000 2.305558 0.024944
v -0.450000 2.129595 0.024944
v -0.450000 2.129595 -0.488563
v -0.315462 2.129595 -0.488563
v 0.193673 2.059840 -0.655242
v 0.193673 2.463520 -0.655242
v 0.280728 2.395565 -0.411116
v 0.396800 2.395565 -0.411116
v -0.395042 2.575578 -0.347138
v -0.151466 2.660184 -0.343771
v -0.151466 2.660184 -0.141735
v -0.395042 2.575578 -0.140052
v -0.420103 2.425717 -0.136685
v -0.420103 2.425717 -0.350505
v -0.388886 2.508073 -0.427952
v -0.272814 2.508073 -0.427952
v -0.272814 2.395565 -0.411116
v -0.388886 2.395565 -0.411116
v 0.394602 2.575578 -0.347138
v 0.394602 2.575578 -0.140052
v 0.151465 2.660184 -0.141735
v 0.151465 2.660184 -0.343771
v 0.420102 2.425717 -0.136685
v 0.420102 2.425717 -0.350505
v 0.280728 2.508073 -0.427952
v 0.396800 2.508073 -0.427952
v 0.193795 2.455426 -1.123606
v 0.193795 2.059964 -1.124231
v 0.396821 2.268780 -1.123901
v 0.280816 2.268780 -1.123901
v 0.323503 2.129593 -1.124120
v 0.323503 1.984487 -1.124349
v -0.315406 2.129593 -1.124120
v -0.194986 2.059964 -1.124231
v -0.194986 2.455426 -1.123606
v -0.315406 1.984487 -1.124349
v -0.315406 1.801110 -1.124639
v 0.323503 1.801110 -1.124639
v 0.004049 1.738966 -1.124738
v -0.388724 2.385365 -1.123717
v -0.388724 2.268780 -1.123901
v -0.272719 2.385365 -1.123717
v -0.272719 2.268780 -1.123901
v 0.280816 2.385365 -1.123717
v 0.396821 2.385365 -1.123717
vn -0.0000 -0.1480 -0.9890
vn 0.9704 -0.2415 -0.0000
vn 0.9863 -0.1649 -0.0000
vn -0.0064 -0.0214 0.9998
vn -0.9858 -0.1678 -0.0000
vn -0.0000 -1.0000 -0.0000
vn -0.3286 -0.9445 -0.0000
vn -0.0009 -0.0226 -0.9997
vn 0.3281 -0.9446 -0.0000
vn 1.0000 -0.0000 0.0001
vn 1.0000 0.0004 -0.0000
vn 1.0000 -0.0000 -0.0000
vn -0.0000 0.9614 0.2750
vn 1.0000 0.0001 -0.0000
vn 0.1910 0.9816 -0.0000
vn 0.1907 0.9816 -0.0000
vn -0.1910 0.9816 -0.0000
vn -1.0000 -0.0001 -0.0001
vn -1.0000 -0.0000 -0.0001
vn -0.0000 -0.0215 -0.9998
vn 0.0003 -0.0208 -0.9998
vn -0.0000 0.9845 -0.1751
vn -0.0000 -0.9848 0.1737
vn -0.0000 -0.7543 0.6565
vn -1.0000 -0.0000 -0.0000
vn 1.0000 -0.0000 0.0002
vn -0.0000 -0.0225 0.9997
vn -0.0000 -0.8025 -0.5966
vn -0.0000 -0.0225 -0.9997
vn 0.0021 -0.0338 0.9994
vn -0.0000 -0.0287 0.9996
vn -0.0000 -0.9701 0.2426
vn -0.0000 -0.9999 0.0173
vn -0.9704 -0.2415 -0.0000
vn -0.0000 -0.8968 -0.4425
vn -0.0000 -0.0000 -1.0000
vn 0.9078 -0.0000 -0.4194
vn -0.9078 -0.0000 -0.4194
vn -0.0000 0.9111 -0.4121
vn 0.4640 0.8859 -0.0000
vn -0.0000 0.9729 0.2314
vn -0.4645 0.8856 -0.0000
vn -0.0000 1.0000 -0.0000
vn -0.9588 -0.0000 0.2841
vn -1.0000 -0.0000 -0.0002
vn -1.0000 -0.0009 -0.0000
vn -1.0000 -0.0000 -0.0003
vn -0.0000 1.0000 0.0003
vn -0.0000 -0.0000 1.0000
vn 0.9600 -0.0000 0.2800
s 0
f 498//215 499//215 496//215
f 498//215 496//215 497//215
f 481//216 495//216 494//216
f 481//216 494//216 482//216
f 494//217 495//217 490//217
f 494//217 490//217 493//217
f 495//218 491//218 490//218
f 505//219 504//219 501//219
f 505//219 501//219 500//219
f 503//220 502//220 492//220
f 503//220 492//220 491//220
f 502//221 503//221 500//221
f 502//221 500//221 501//221
f 504//222 502//222 501//222
f 492//223 493//223 490//223
f 492//223 490//223 491//223
f 517//224 514//224 485//224
f 517//225 485//225 450//225
f 518//226 517//226 454//226
f 518//226 454//226 471//226
f 486//227 479//227 477//227
f 486//227 477//227 473//227
f 454//228 517//228 450//228
f 520//229 518//229 471//229
f 520//230 471//230 470//230
f 469//231 519//231 520//231
f 469//231 520//231 470//231
f 457//232 451//232 513//232
f 457//233 513//233 519//233
f 457//233 519//233 469//233
f 492//234 502//234 504//234
f 492//235 504//235 493//235
f 524//236 522//236 499//236
f 524//236 499//236 498//236
f 488//224 511//224 525//224
f 488//224 525//224 506//224
f 523//233 524//233 498//233
f 523//233 498//233 497//233
f 521//237 523//237 497//237
f 521//237 497//237 496//237
f 506//215 507//215 489//215
f 506//215 489//215 488//215
f 505//238 495//238 481//238
f 505//238 481//238 474//238
f 526//239 510//239 489//239
f 526//239 489//239 507//239
f 525//237 526//237 507//237
f 525//237 507//237 506//237
f 499//240 522//240 521//240
f 499//240 521//240 496//240
f 505//241 500//241 495//241
f 494//242 504//242 460//242
f 494//242 460//242 482//242
f 494//243 493//243 504//243
f 495//244 500//244 503//244
f 495//245 503//245 491//245
f 478//246 480//246 487//246
f 478//246 487//246 472//246
f 516//247 508//247 487//247
f 516//247 487//247 480//247
f 504//248 505//248 474//248
f 504//248 474//248 460//248
f 478//220 472//220 467//220
f 478//220 467//220 466//220
f 466//249 467//249 464//249
f 466//249 464//249 463//249
f 469//250 470//250 454//250
f 469//250 454//250 457//250
f 465//251 466//251 463//251
f 465//251 463//251 462//251
f 464//252 467//252 468//252
f 464//252 468//252 461//252
f 472//239 473//239 468//239
f 472//239 468//239 467//239
f 460//239 474//239 475//239
f 460//239 475//239 459//239
f 471//250 454//250 470//250
f 468//253 465//253 462//253
f 468//253 462//253 461//253
f 463//250 464//250 461//250
f 463//250 461//250 462//250
f 454//254 455//254 456//254
f 454//255 456//255 457//255
f 456//256 458//256 457//256
f 452//220 453//220 450//220
f 452//220 450//220 451//220
f 453//226 455//226 454//226
f 453//226 454//226 450//226
f 457//239 458//239 452//239
f 457//239 452//239 451//239
f 459//250 451//250 460//250
f 458//250 456//250 453//250
f 458//250 453//250 452//250
f 455//250 453//250 456//250
f 459//257 475//257 476//257
f 459//257 476//257 451//257
f 472//258 487//258 486//258
f 472//258 486//258 473//258
f 476//259 512//259 513//259
f 476//260 513//260 451//260
f 508//261 509//261 486//261
f 508//261 486//261 487//261
f 510//236 511//236 488//236
f 510//236 488//236 489//236
f 479//226 515//226 516//226
f 479//226 516//226 480//226
f 473//257 477//257 465//257
f 473//257 465//257 468//257
f 514//220 512//220 476//220
f 514//220 476//220 485//220
f 509//262 515//262 479//262
f 509//262 479//262 486//262
f 475//263 474//263 476//263
f 483//226 484//226 481//226
f 483//226 481//226 482//226
f 450//257 485//257 484//257
f 450//257 484//257 483//257
f 477//226 478//226 466//226
f 477//226 466//226 465//226
f 479//264 480//264 478//264
f 479//264 478//264 477//264
f 474//263 481//263 485//263
f 474//263 485//263 476//263
f 484//263 485//263 481//263
f 482//250 460//250 451//250
f 482//250 451//250 450//250
f 483//250 482//250 450//250
