# Blender 5.1.0
# www.blender.org
o Chassis_havok_s_leftTrack_0
v -0.733735 -0.012186 1.296924
v -0.733735 -0.012178 0.553933
v -1.006973 -0.012178 0.553933
v -1.006973 -0.012180 1.296924
v -0.733735 0.130333 1.687545
v -1.006973 0.130336 1.687545
v -1.006973 0.462770 2.042470
v -0.733735 0.462769 2.042472
v -1.006973 0.623007 1.785944
v -0.733735 0.623008 1.785946
v -1.006973 0.622600 0.005708
v -0.733735 0.622600 0.005709
v -0.733735 0.144319 -1.707263
v -0.733735 0.508257 -2.146777
v -1.006973 0.508258 -2.146777
v -1.006973 0.144320 -1.707263
v -1.006973 0.622585 -1.911119
v -0.733735 0.622585 -1.911119
v -0.733735 -0.012182 -1.268008
v -1.006973 -0.012180 -1.268008
v -0.733735 -0.012179 -0.466954
v -1.006973 -0.012178 -0.466953
vn -0.0000 0.9420 0.3356
vn -0.0000 -0.8997 0.4365
vn -0.0000 -1.0000 -0.0000
vn -0.0000 1.0000 -0.0000
vn -0.0000 0.7702 0.6378
vn -0.0000 0.9394 -0.3427
vn -0.0000 0.9394 -0.3428
vn -0.0000 0.7299 -0.6836
vn -0.0000 -1.0000 0.0002
vn -0.0000 -0.8481 -0.5298
s 0
f 16//1 20//1 19//1
f 16//1 19//1 13//1
f 14//2 18//2 17//2
f 14//2 17//2 15//2
f 11//3 17//3 18//3
f 11//3 18//3 12//3
f 20//4 22//4 21//4
f 20//4 21//4 19//4
f 2//4 21//4 22//4
f 2//4 22//4 3//4
f 15//5 16//5 13//5
f 15//5 13//5 14//5
f 4//6 6//6 5//6
f 4//7 5//7 1//7
f 3//4 4//4 1//4
f 3//4 1//4 2//4
f 6//8 7//8 8//8
f 6//8 8//8 5//8
f 9//9 11//9 12//9
f 9//9 12//9 10//9
f 7//10 9//10 10//10
f 7//10 10//10 8//10
o Chassis_havok_s_rightTrack_1
v 0.733735 -0.012182 1.227040
v 0.733735 0.129401 1.655260
v 1.006973 0.129404 1.655260
v 1.006973 -0.012179 1.227040
v 0.733735 -0.012178 0.553933
v 1.006973 -0.012178 0.553933
v 1.006973 0.462769 2.042470
v 0.733735 0.462768 2.042472
v 1.006973 0.623006 1.785944
v 0.733735 0.623007 1.785946
v 1.006973 0.622600 -0.011080
v 0.733735 0.622600 -0.011080
v 0.733735 0.508258 -2.146777
v 0.733735 0.144319 -1.708467
v 1.006973 0.144320 -1.708467
v 1.006973 0.508258 -2.146777
v 0.733735 0.622585 -1.911119
v 1.006973 0.622585 -1.911119
v 1.006973 -0.012180 -1.296926
v 0.733735 -0.012182 -1.296926
v 0.733735 -0.012179 -0.466954
v 1.006973 -0.012178 -0.466953
vn -0.0000 0.9347 0.3554
vn -0.0000 -0.8997 0.4365
vn -0.0000 -1.0000 -0.0000
vn -0.0000 1.0000 -0.0000
vn -0.0000 0.7694 0.6388
vn -0.0000 0.9495 -0.3139
vn -0.0000 0.9494 -0.3139
vn -0.0000 0.7578 -0.6525
vn -0.0000 0.7578 -0.6524
vn -0.0000 -1.0000 0.0002
vn -0.0000 -0.8481 -0.5298
s 0
f 36//11 42//11 41//11
f 36//11 41//11 37//11
f 38//12 40//12 39//12
f 38//12 39//12 35//12
f 34//13 39//13 40//13
f 34//13 40//13 33//13
f 42//14 43//14 44//14
f 42//14 44//14 41//14
f 28//14 44//14 43//14
f 28//14 43//14 27//14
f 37//15 38//15 35//15
f 37//15 35//15 36//15
f 26//14 28//14 27//14
f 26//14 27//14 23//14
f 25//16 26//16 23//16
f 25//17 23//17 24//17
f 24//18 30//18 29//18
f 24//19 29//19 25//19
f 32//20 34//20 33//20
f 32//20 33//20 31//20
f 30//21 32//21 31//21
f 30//21 31//21 29//21
o Turret_01_havok_s_armor_8_0
v -1.080314 0.712408 0.949223
v -0.705126 0.712408 1.264045
v 0.244886 0.712408 -1.346094
v -1.325204 0.712407 0.525069
v -1.325202 0.712407 -0.439601
v -1.410252 0.712408 0.042735
v -1.080315 0.712407 -0.863756
v -0.244888 0.712407 1.431554
v 0.244887 0.712407 1.431554
v 1.080315 0.712408 0.949223
v 1.325200 0.712407 0.525069
v 0.705126 0.712408 1.264045
v 1.410249 0.712408 0.042734
v 1.325201 0.712407 -0.439599
v 1.080314 0.712407 -0.863759
v 0.705123 0.712408 -1.178577
v 0.946901 1.248028 -1.777871
v 0.946901 1.383787 -1.801851
v -1.038370 1.383787 -1.801851
v -1.038370 1.248028 -1.777870
v 0.946901 1.519546 -1.788080
v -1.038370 1.519547 -1.788080
v 0.946901 1.674782 -1.696545
v -1.038370 1.674782 -1.696545
v 0.946901 1.106720 -1.682890
v -1.038370 1.106720 -1.682890
v -0.705127 0.712408 -1.178583
v -0.244888 0.712408 -1.346089
vn -0.0000 -0.1009 0.9949
vn -0.0000 0.1740 0.9848
vn -0.0000 0.1739 0.9848
vn -0.0000 1.0000 -0.0000
vn -0.0000 0.5578 0.8299
vn -0.0000 -0.5079 0.8614
s 0
f 62//22 65//22 66//22
f 62//22 66//22 63//22
f 63//23 64//23 61//23
f 63//24 61//24 62//24
f 59//25 60//25 47//25
f 59//25 47//25 58//25
f 47//25 72//25 71//25
f 47//25 71//25 51//25
f 64//26 70//26 69//26
f 64//26 69//26 61//26
f 65//27 67//27 68//27
f 65//27 68//27 66//27
f 57//25 58//25 47//25
f 57//25 47//25 55//25
f 49//25 47//25 51//25
f 47//25 49//25 50//25
f 47//25 50//25 48//25
f 47//25 48//25 45//25
f 47//25 45//25 46//25
f 56//25 47//25 53//25
f 47//25 56//25 54//25
f 47//25 54//25 55//25
f 52//25 53//25 47//25
f 52//25 47//25 46//25
o Turret_01_havok_s_armor_1_1
v -1.080316 0.743437 -0.863756
v -1.325203 0.744058 -0.439601
v -1.325203 0.712407 -0.439601
v -1.080315 0.712407 -0.863756
v -1.325203 0.712407 0.525069
v -1.410253 0.712408 0.042734
v -1.410253 0.744766 0.042734
v -1.325203 0.745473 0.525069
v -0.705126 0.712408 1.264046
v -1.080315 0.712408 0.949224
v -1.080315 0.746028 0.949224
v -0.705126 0.746037 1.264046
v 0.244887 0.746056 1.431554
v 0.705125 0.746037 1.264046
v 0.705125 0.712408 1.264046
v 0.244887 0.712407 1.431554
v -0.244888 0.746056 1.431554
v -0.244888 0.712407 1.431554
v 1.080313 0.743437 -0.863759
v 0.705123 0.742975 -1.178577
v 0.705123 0.712408 -1.178577
v 1.080313 0.712407 -0.863759
v 1.325201 0.744058 -0.439600
v 1.325201 0.712407 -0.439600
v 1.325201 0.745473 0.525069
v 1.410250 0.744764 0.042734
v 1.410250 0.712408 0.042734
v 1.325201 0.712407 0.525069
v 1.080315 0.746028 0.949224
v 1.080315 0.712408 0.949224
v 1.168721 1.877361 -1.149524
v 1.175853 1.842277 -1.236415
v 1.668668 0.742731 -1.345146
v 1.173794 1.883677 -1.074970
v 1.175853 1.751006 -1.255487
v 1.237021 1.695091 -1.267157
v 1.146944 1.912694 -1.200544
v 1.655157 0.742554 -1.466110
v 1.237021 0.874035 -1.438649
v -1.175654 1.825173 -1.600636
v 0.946902 1.732240 -1.604998
v 1.175853 1.732240 -1.604998
v 1.175853 1.825173 -1.600636
v -1.175654 1.732240 -1.604998
v -1.038370 1.732240 -1.604998
v -1.239117 0.874035 -1.438649
v 1.237021 0.964434 -1.488001
v -1.239117 0.963287 -1.488001
v -1.173331 0.979022 -1.577793
v 1.173530 0.979022 -1.577793
v 0.946902 1.032695 -1.582826
v -1.038370 1.032695 -1.582826
v 1.173724 1.032695 -1.582826
v -1.655015 0.742554 -1.466110
v -0.705126 0.712408 -1.178583
v -0.244888 0.712408 -1.346089
v -0.244888 0.742729 -1.346089
v -0.705126 0.742976 -1.178583
v 0.244887 0.742728 -1.346094
v 0.244887 0.712408 -1.346094
v -1.668524 0.742732 -1.345146
v -1.175654 1.842277 -1.236415
v -1.167893 1.877361 -1.149524
v -1.172952 1.883677 -1.074970
v -1.239117 1.687610 -1.268723
v -1.175654 1.751006 -1.255487
v -1.145951 1.912694 -1.200544
v -1.173525 1.032695 -1.582826
vn -0.0000 0.0934 0.9956
vn 0.3420 -0.0000 0.9397
vn -0.0000 -0.2044 0.9789
vn -0.0000 -0.0469 0.9989
vn -0.0000 -0.2045 0.9789
vn -0.0002 0.4839 0.8751
vn -0.0000 0.4792 0.8777
vn -0.0000 -0.0000 1.0000
vn 0.8999 -0.4263 0.0918
vn 0.0002 -0.2045 0.9789
vn 0.6428 -0.0000 0.7660
vn 0.9044 -0.4157 0.0966
vn 0.9059 -0.4146 0.0865
vn -0.3420 -0.0000 0.9397
vn 0.9040 -0.4153 0.1016
vn 0.0010 -0.2048 0.9788
vn -0.9040 -0.4152 0.1016
vn 0.0001 -0.2044 0.9789
vn -0.3420 -0.0000 -0.9397
vn 0.8660 -0.0000 -0.5000
vn 0.3420 -0.0000 -0.9397
vn -0.0000 -0.0000 -1.0000
vn 0.9848 -0.0000 -0.1737
vn 0.8660 -0.0000 0.5000
vn 0.6428 -0.0000 -0.7660
vn 0.9848 -0.0000 0.1737
vn -0.6428 -0.0000 0.7660
vn -0.9046 -0.4152 0.0967
vn -0.9051 -0.4149 0.0932
vn -0.8660 -0.0000 -0.5000
vn -0.9029 -0.4191 0.0951
vn -0.0002 -0.2045 0.9789
vn -0.9848 -0.0000 -0.1736
vn -0.8660 -0.0000 0.5000
vn -0.6428 -0.0000 -0.7660
vn -0.9848 -0.0000 0.1736
s 0
f 125//28 123//28 122//28
f 123//28 124//28 121//28
f 123//28 121//28 122//28
f 129//29 130//29 127//29
f 129//29 127//29 128//29
f 111//30 118//30 126//30
f 111//30 126//30 110//30
f 112//31 113//31 114//31
f 112//31 114//31 115//31
f 108//32 111//32 110//32
f 119//33 120//33 118//33
f 119//34 118//34 111//34
f 112//31 116//31 117//31
f 112//31 117//31 113//31
f 128//35 132//35 131//35
f 128//35 131//35 129//35
f 139//36 135//36 134//36
f 138//37 134//37 137//37
f 76//38 127//38 130//38
f 76//38 130//38 73//38
f 140//28 121//28 124//28
f 135//39 136//39 133//39
f 135//40 133//40 134//40
f 92//41 131//41 132//41
f 92//41 132//41 93//41
f 137//32 126//32 118//32
f 134//42 133//42 126//42
f 134//43 126//43 137//43
f 110//44 105//44 104//44
f 110//45 104//45 108//45
f 87//46 88//46 85//46
f 87//46 85//46 86//46
f 80//47 83//47 82//47
f 80//47 82//47 77//47
f 84//48 89//48 90//48
f 84//48 90//48 81//48
f 88//49 90//49 89//49
f 88//49 89//49 85//49
f 79//50 80//50 77//50
f 79//50 77//50 78//50
f 75//51 76//51 73//51
f 75//51 73//51 74//51
f 83//52 84//52 81//52
f 83//52 81//52 82//52
f 74//53 79//53 78//53
f 74//53 78//53 75//53
f 93//54 94//54 91//54
f 93//54 91//54 92//54
f 105//55 106//55 103//55
f 105//56 103//56 104//56
f 100//57 102//57 101//57
f 100//57 101//57 97//57
f 109//58 104//58 103//58
f 107//59 108//59 104//59
f 99//60 100//60 97//60
f 99//60 97//60 98//60
f 94//61 96//61 95//61
f 94//61 95//61 91//61
f 86//62 101//62 102//62
f 86//62 102//62 87//62
f 96//63 99//63 98//63
f 96//63 98//63 95//63
o Turret_01_havok_s_armor_3_2
v -1.920089 0.746033 0.907468
v -1.234076 1.959985 -0.174192
v -1.345766 1.959982 0.859296
v -1.340492 1.960000 0.934570
v -1.299048 1.959976 1.009143
v -1.827392 0.746015 1.233522
v -1.910472 0.746015 1.065399
v -0.955788 1.960000 1.498472
v -1.297125 0.746015 2.020921
v -1.668523 0.742731 -1.345146
v -1.172951 1.883677 -1.074969
v -1.175654 1.842276 -1.236415
v -1.175654 1.751006 -1.255487
v -1.175654 1.841405 -1.363358
v -1.145951 1.912694 -1.200544
v 1.920287 0.746033 0.907468
v 1.345968 1.959982 0.859296
v 1.235087 1.959985 -0.174192
v 1.827590 0.746016 1.233526
v 1.299248 1.959976 1.009143
v 1.340690 1.960000 0.934570
v 1.910669 0.746015 1.065399
v 1.299035 0.746015 2.020921
v 0.960040 1.960000 1.498472
v 1.173795 1.883677 -1.074969
v 1.668668 0.742731 -1.345146
v 1.237020 1.132242 -1.579452
v 1.237020 1.029233 -1.477005
v 1.237020 1.695090 -1.267156
v 1.237020 1.652880 -1.605603
v 1.237020 0.964434 -1.488001
v 1.237020 0.874035 -1.438649
v 1.237020 1.271327 -1.727116
v 1.237020 1.172953 -1.653292
v 1.237020 1.500130 -1.735726
v 1.237020 1.385730 -1.750286
v 1.237020 1.618774 -1.670665
v 1.175853 1.732240 -1.604999
v 1.175853 1.751006 -1.255487
v 1.175853 1.841405 -1.363358
v 1.175853 1.825173 -1.600636
v 1.175853 1.842276 -1.236415
v 1.146943 1.912694 -1.200544
v -1.239115 1.132242 -1.579452
v -1.239115 1.652880 -1.605603
v -1.239115 1.687610 -1.268723
v -1.239115 1.029233 -1.477005
v -1.239115 0.874035 -1.438649
v -1.239115 0.963287 -1.488001
v -1.239115 1.172953 -1.653292
v -1.239115 1.271327 -1.727116
v -1.239115 1.385730 -1.750286
v -1.239115 1.500130 -1.735726
v -1.239115 1.618774 -1.670665
v -1.175654 1.732240 -1.604999
v -1.175654 1.825173 -1.600636
vn -1.0000 -0.0000 -0.0000
vn -0.9246 -0.3809 0.0026
vn -0.7895 -0.6091 0.0760
vn -0.6700 -0.7413 0.0398
vn 1.0000 -0.0000 -0.0000
vn 0.7022 -0.7109 0.0382
vn 0.7791 -0.6235 0.0643
vn 0.7431 -0.4197 -0.5212
vn 0.7496 -0.4280 -0.5048
vn 0.9035 -0.4165 0.1015
vn 0.9010 -0.4228 0.0970
vn 0.9209 -0.3898 0.0027
vn 0.9011 -0.4225 0.0974
vn 0.8118 -0.4244 -0.4011
vn 0.7909 -0.4255 -0.4397
vn 0.9015 -0.4292 -0.0550
vn 0.9012 -0.4288 -0.0630
vn -0.9012 -0.4225 0.0967
vn -0.9037 -0.4160 0.1016
vn -0.9013 -0.4222 0.0971
vn -0.8118 -0.4244 -0.4011
vn -0.7910 -0.4255 -0.4397
vn -0.9015 -0.4292 -0.0550
vn -0.9012 -0.4288 -0.0631
vn -0.7509 -0.4266 -0.5041
vn -0.7458 -0.4201 -0.5170
s 0
f 180//64 181//64 178//64
f 180//64 178//64 179//64
f 180//64 179//64 182//64
f 180//65 182//65 183//65
f 178//66 170//66 169//66
f 178//67 169//67 179//67
f 170//64 173//64 174//64
f 170//64 174//64 167//64
f 170//64 175//64 176//64
f 170//64 176//64 173//64
f 170//64 177//64 175//64
f 186//68 187//68 184//68
f 186//68 184//68 185//68
f 193//68 194//68 185//68
f 195//69 153//69 186//69
f 195//70 186//70 185//70
f 195//68 196//68 154//68
f 195//68 154//68 153//68
f 186//68 188//68 189//68
f 186//68 189//68 187//68
f 190//68 191//68 185//68
f 190//68 185//68 184//68
f 192//68 193//68 185//68
f 192//68 185//68 191//68
f 146//71 145//71 148//71
f 146//72 148//72 149//72
f 141//73 150//73 151//73
f 141//74 151//74 142//74
f 152//68 153//68 154//68
f 152//75 154//75 155//75
f 141//76 142//76 143//76
f 146//77 147//77 144//77
f 146//78 144//78 145//78
f 144//79 147//79 141//79
f 144//80 141//80 143//80
f 156//81 157//81 158//81
f 165//82 166//82 156//82
f 165//83 156//83 158//83
f 169//64 170//64 167//64
f 169//64 167//64 168//64
f 171//64 172//64 169//64
f 171//64 169//64 168//64
f 161//84 162//84 159//84
f 161//85 159//85 160//85
f 156//86 162//86 161//86
f 156//87 161//87 157//87
f 159//88 163//88 164//88
f 159//89 164//89 160//89
o Turret_01_havok_s_armor_4_3
v 1.299034 0.746015 2.020921
v -1.297125 0.746015 2.020921
v -0.955789 1.960000 1.498472
v 0.960042 1.960000 1.498472
vn -0.0000 -0.3953 -0.9185
s 0
f 199//90 200//90 197//90
f 199//90 197//90 198//90
o Turret_01_havok_s_armor_5_4
v -1.121877 1.959985 0.309241
v -1.263720 1.959987 0.543861
v -1.234076 1.959985 -0.174192
v -0.902202 1.959984 0.147471
v -1.345767 1.959982 0.859296
v -1.306140 1.959989 0.815610
v -1.242678 1.959991 1.083118
v -1.340492 1.960000 0.934570
v -1.299049 1.959976 1.009142
v -0.369892 1.959983 0.126152
v -0.638140 1.959983 0.083179
v -0.955789 1.960000 1.498472
v -1.082992 1.959993 1.305662
v -0.851397 1.959994 1.449362
v -0.583148 1.959994 1.492332
v -0.383392 2.338664 0.490962
v -0.702077 2.338636 1.164307
v -0.833054 2.338583 1.101745
v -0.515607 2.338664 0.427847
v -0.800010 2.338664 0.471015
v -0.661904 2.338664 0.420844
v -0.908821 2.338659 0.570588
v -0.971497 2.338636 0.704118
v -0.979401 2.338649 0.853640
v -0.930776 2.338647 0.992404
v -0.285386 2.338664 0.600579
v -0.236511 2.338664 0.740009
v -0.554543 2.338569 1.171862
v -0.416189 2.338556 1.121799
v -0.307301 2.338570 1.022090
v -1.172952 1.883677 -1.074969
v 1.173794 1.883677 -1.074969
v 1.235088 1.959985 -0.174192
v -1.167892 1.877361 -1.149524
v 1.168722 1.877361 -1.149524
v 0.021389 1.959986 0.492391
v -0.138296 1.959984 0.269847
v 1.345967 1.959982 0.859296
v 0.084852 1.959989 0.759900
v 0.960041 1.960000 1.498472
v 0.042434 1.959991 1.031647
v 1.299247 1.959976 1.009142
v 1.340690 1.960000 0.934570
v -0.099411 1.959993 1.266267
v -0.319085 1.959994 1.428042
v -0.244206 2.338649 0.888020
vn -0.0000 -0.9964 0.0844
vn -0.0000 -1.0000 -0.0000
vn -0.0004 -1.0000 -0.0005
vn -0.0003 -1.0000 -0.0004
vn -0.0000 -1.0000 0.0010
vn -0.0005 -1.0000 -0.0008
vn 0.0002 -1.0000 -0.0001
vn 0.0001 -1.0000 -0.0003
vn -0.0000 -1.0000 0.0002
vn 0.0026 -1.0000 -0.0018
vn -0.0005 -1.0000 0.0004
vn 0.0002 -1.0000 -0.0000
vn 0.0001 -1.0000 -0.0000
vn -0.0005 -1.0000 0.0003
vn -0.0000 -1.0000 -0.0001
vn -0.0001 -1.0000 -0.0001
vn -0.0011 -1.0000 0.0004
vn -0.0005 -1.0000 0.0001
vn -0.0000 -1.0000 0.0001
vn 0.0003 -1.0000 0.0001
s 0
f 234//91 235//91 232//91
f 234//91 232//91 231//91
f 237//92 210//92 233//92
f 237//92 233//92 236//92
f 233//92 210//92 203//92
f 227//93 228//93 217//93
f 227//92 217//92 226//92
f 229//94 228//94 230//94
f 231//91 232//91 233//91
f 231//91 233//91 203//91
f 244//92 241//92 240//92
f 244//92 240//92 245//92
f 240//95 212//95 215//95
f 240//92 215//92 245//92
f 246//96 230//96 228//96
f 246//97 228//97 227//97
f 238//92 239//92 236//92
f 238//92 236//92 233//92
f 239//92 242//92 240//92
f 239//92 240//92 241//92
f 243//98 242//98 239//98
f 243//99 239//99 238//99
f 208//100 207//100 209//100
f 211//92 204//92 203//92
f 211//92 203//92 210//92
f 207//101 213//101 212//101
f 207//100 212//100 209//100
f 201//92 202//92 203//92
f 201//92 203//92 204//92
f 202//102 206//102 205//102
f 202//103 205//103 203//103
f 207//104 208//104 205//104
f 207//103 205//103 206//103
f 218//105 223//105 222//105
f 218//106 222//106 220//106
f 218//107 225//107 224//107
f 218//108 224//108 223//108
f 226//92 217//92 216//92
f 212//109 213//109 214//109
f 212//109 214//109 215//109
f 218//105 219//105 216//105
f 218//110 216//110 217//110
f 218//105 220//105 221//105
f 218//105 221//105 219//105
o Turret_01_havok_s_armor_2_5
v -1.175408 1.247972 -1.777896
v -1.174260 1.106720 -1.682890
v -1.175408 1.383675 -1.801852
v 1.174460 1.106720 -1.682890
v 1.175609 1.247972 -1.777896
v 1.175609 1.383675 -1.801852
v 1.175609 1.519654 -1.788130
v 1.175609 1.674782 -1.696495
v -1.175408 1.519654 -1.788130
v -1.175408 1.674782 -1.696495
v -1.038370 1.106720 -1.682890
v -1.038370 1.032695 -1.582826
v 0.946901 1.032695 -1.582826
v 0.946901 1.106720 -1.682890
v -1.038370 1.248028 -1.777870
v -1.038370 1.383787 -1.801852
v -1.173524 1.032695 -1.582826
v 0.946901 1.248028 -1.777871
v 1.173723 1.032695 -1.582826
v 1.237020 1.029233 -1.477004
v 1.237020 1.132242 -1.579452
v 1.173530 0.979022 -1.577793
v 1.237020 0.964434 -1.488001
v 1.237020 1.172953 -1.653292
v 1.237020 1.271327 -1.727115
v 0.946901 1.383787 -1.801852
v 0.946901 1.519546 -1.788080
v 1.237020 1.385730 -1.750285
v 1.237020 1.500130 -1.735726
v 0.946901 1.674782 -1.696545
v 1.237020 1.618773 -1.670665
v -1.239116 1.271327 -1.727115
v -1.239116 1.385730 -1.750285
v -1.239116 1.500130 -1.735726
v -1.239116 1.172953 -1.653292
v -1.239116 1.618773 -1.670665
v -1.175655 1.732240 -1.604998
v -1.239116 1.652881 -1.605603
v -1.038370 1.519547 -1.788080
v -1.038370 1.674782 -1.696545
v -1.239116 1.132242 -1.579452
v -1.239116 1.029233 -1.477004
v -1.173331 0.979022 -1.577793
v -1.239116 0.963287 -1.488001
v 1.175853 1.841405 -1.363358
v 1.146944 1.912694 -1.200544
v -1.145951 1.912694 -1.200544
v -1.175655 1.841405 -1.363358
v -1.167893 1.877361 -1.149524
v 1.168722 1.877361 -1.149524
v -1.175655 1.825173 -1.600636
v 1.175853 1.825173 -1.600636
v -1.038370 1.732240 -1.604998
v 0.946901 1.732240 -1.604998
v 1.175853 1.732240 -1.604998
v 1.237020 1.652881 -1.605603
vn -0.0004 -0.1009 0.9949
vn 0.0001 -0.1004 0.9949
vn 0.0003 -0.5079 0.8614
vn -0.0007 -0.5086 0.8610
vn 0.8109 -0.0963 0.5772
vn 0.8480 0.0525 0.5274
vn 0.7420 0.4728 0.4754
vn 0.6510 0.4556 0.6071
vn 0.6897 0.4080 0.5982
vn 0.6242 -0.0986 0.7750
vn 0.6473 -0.0765 0.7584
vn 0.7249 -0.5825 0.3677
vn 0.6951 -0.6367 0.3338
vn 0.6558 -0.3630 0.6620
vn 0.6229 -0.3979 0.6736
vn 0.0002 -0.8470 0.5316
vn -0.0000 -0.8469 0.5318
vn -0.0000 -0.8470 0.5316
vn -0.7374 -0.5711 0.3606
vn -0.7082 -0.6253 0.3278
vn -0.0001 -0.8470 0.5316
vn -0.0000 -0.9160 0.4011
vn 0.7826 0.5032 0.3665
vn 0.7444 0.5848 0.3224
vn -0.0000 -0.9977 0.0682
vn -0.0000 -0.8221 -0.5693
vn 0.6246 0.1550 0.7654
vn 0.6471 0.1325 0.7508
vn -0.0000 0.8039 0.5947
vn -0.0000 0.5579 0.8299
vn 0.0002 0.5581 0.8298
vn -0.8200 -0.0958 0.5643
vn -0.8563 0.0513 0.5139
vn -0.7537 0.4634 0.4660
vn -0.0004 0.5581 0.8298
vn -0.0001 0.1740 0.9848
vn -0.0003 0.1738 0.9848
vn -0.6381 -0.0972 0.7638
vn -0.6610 -0.0753 0.7466
vn -0.6385 0.1528 0.7543
vn -0.6608 0.1305 0.7391
vn -0.6694 -0.3572 0.6514
vn -0.6368 -0.3921 0.6638
vn -0.0002 -0.5079 0.8614
vn 0.0004 -0.5086 0.8610
vn -0.6647 0.4484 0.5976
vn -0.7027 0.4010 0.5877
vn -0.7933 0.4923 0.3583
vn -0.7562 0.5730 0.3159
vn -0.0000 -0.1009 0.9949
vn 0.0003 -0.1004 0.9949
vn 0.0002 0.1739 0.9848
vn 0.0001 0.1738 0.9848
s 0
f 262//111 285//111 255//111
f 262//112 255//112 249//112
f 285//113 286//113 256//113
f 285//114 256//114 255//114
f 288//115 290//115 289//115
f 288//116 289//116 263//116
f 263//117 287//117 288//117
f 247//118 278//118 281//118
f 247//119 281//119 248//119
f 280//120 279//120 249//120
f 280//121 249//121 255//121
f 256//122 283//122 284//122
f 256//123 284//123 282//123
f 282//124 280//124 255//124
f 282//125 255//125 256//125
f 256//126 286//126 299//126
f 256//127 299//127 283//127
f 276//128 300//128 299//128
f 276//128 299//128 286//128
f 302//129 301//129 254//129
f 302//130 254//130 277//130
f 254//127 301//127 300//127
f 254//131 300//131 276//131
f 293//132 294//132 291//132
f 293//132 291//132 292//132
f 287//133 263//133 248//133
f 287//134 248//134 281//134
f 297//135 298//135 291//135
f 297//135 291//135 294//135
f 292//136 296//136 295//136
f 292//136 295//136 293//136
f 249//137 279//137 278//137
f 249//138 278//138 247//138
f 260//139 259//139 265//139
f 260//139 265//139 250//139
f 264//140 260//140 250//140
f 264//141 250//141 251//141
f 268//142 269//142 266//142
f 268//143 266//143 265//143
f 265//144 266//144 267//144
f 248//140 257//140 261//140
f 248//145 261//145 247//145
f 259//139 260//139 257//139
f 259//139 257//139 258//139
f 263//139 258//139 257//139
f 263//139 257//139 248//139
f 261//146 262//146 249//146
f 261//147 249//147 247//147
f 252//148 274//148 275//148
f 252//149 275//149 253//149
f 271//150 274//150 252//150
f 271//151 252//151 251//151
f 253//152 275//152 277//152
f 253//153 277//153 254//153
f 254//154 276//154 273//154
f 254//155 273//155 253//155
f 270//156 271//156 251//156
f 270//157 251//157 250//157
f 250//158 265//158 267//158
f 250//159 267//159 270//159
f 273//160 272//160 252//160
f 273//161 252//161 253//161
f 272//162 264//162 251//162
f 272//163 251//163 252//163
o Turret_01_havok_s_armor_6_6
v -1.297125 0.746015 2.020921
v 1.299035 0.746015 2.020921
v 0.705125 0.746037 1.264045
v 0.244887 0.746056 1.431553
v -0.244888 0.746056 1.431553
v -0.705125 0.746037 1.264045
v -1.827392 0.746015 1.233522
v 1.827590 0.746016 1.233525
v 1.080316 0.746027 0.949223
v 1.910669 0.746015 1.065399
v 1.920287 0.746033 0.907469
v -1.080314 0.746027 0.949223
v -1.325203 0.745473 0.525068
v -1.910472 0.746015 1.065399
v -1.920089 0.746033 0.907469
v 1.325202 0.744058 -0.439600
v 1.668668 0.742731 -1.345146
v 1.080314 0.743436 -0.863759
v 1.410250 0.744765 0.042734
v 1.325200 0.745473 0.525068
v -1.668523 0.742731 -1.345146
v -1.410252 0.744766 0.042734
v -1.325202 0.744058 -0.439601
v -1.080316 0.743436 -0.863756
v 1.655157 0.742553 -1.466110
v -0.244888 0.742729 -1.346089
v 0.244887 0.742728 -1.346094
v 0.705123 0.742975 -1.178577
v -1.655015 0.742554 -1.466110
v -0.705127 0.742976 -1.178583
v -1.173332 0.979022 -1.577793
v -1.239115 0.963287 -1.488001
v 1.237020 0.964434 -1.488001
v 1.173530 0.979022 -1.577793
vn 0.0001 1.0000 -0.0015
vn -0.0000 1.0000 -0.0015
vn -0.0001 1.0000 -0.0013
vn -0.0000 1.0000 -0.0014
vn -0.0000 0.9871 0.1604
vn -0.0005 0.9850 0.1723
vn -0.0000 1.0000 -0.0000
vn 0.0014 1.0000 0.0037
vn -0.0000 1.0000 0.0001
vn -0.0004 1.0000 -0.0011
vn 0.0010 1.0000 0.0001
vn 0.0006 1.0000 -0.0003
s 0
f 323//164 315//164 324//164
f 323//165 324//165 325//165
f 325//165 326//165 323//165
f 322//166 311//166 313//166
f 317//165 315//165 323//165
f 327//167 328//167 329//167
f 327//165 329//165 330//165
f 327//165 330//165 320//165
f 327//165 320//165 319//165
f 335//168 336//168 333//168
f 335//169 333//169 334//169
f 327//165 331//165 323//165
f 327//165 323//165 328//165
f 323//165 326//165 332//165
f 323//165 332//165 328//165
f 303//170 308//170 309//170
f 304//170 310//170 311//170
f 304//170 311//170 305//170
f 305//171 306//171 303//171
f 305//170 303//170 304//170
f 303//172 306//172 307//172
f 303//170 307//170 308//170
f 312//172 313//172 311//172
f 312//170 311//170 310//170
f 318//165 313//165 319//165
f 318//165 319//165 320//165
f 313//165 318//165 321//165
f 313//165 321//165 322//165
f 309//170 308//170 314//170
f 309//173 314//173 315//173
f 315//174 317//174 316//174
f 315//175 316//175 309//175
o Turret_01_havok_s_armor_7_7
v -0.318787 1.990423 1.427591
v -0.583123 1.990423 1.492332
v -0.851536 1.990423 1.449630
v -1.083255 1.990423 1.304996
v -1.242944 1.990423 1.083223
v -1.306141 1.990425 0.815993
v 0.042722 1.990423 1.032256
v -0.099299 1.990423 1.266427
v 0.084853 1.990423 0.759517
v -0.138032 1.990425 0.270515
v 0.021657 1.990425 0.492288
v -1.264010 1.990426 0.543254
v -1.121989 1.990425 0.309084
v -0.902501 1.990425 0.147920
v -0.638165 1.990425 0.083179
v -0.369751 1.990425 0.125880
v -0.580402 2.216150 1.396543
v -0.353082 2.216146 1.338560
v -0.812452 2.216159 1.361963
v -0.319086 1.959994 1.428042
v -0.583148 1.959994 1.492332
v -0.851397 1.959994 1.449363
v -1.082993 1.959993 1.305662
v -1.013374 2.216152 1.240313
v -1.208342 2.216070 0.825264
v -1.152878 2.216150 1.050957
v -1.242677 1.959991 1.083118
v -1.306141 1.959989 0.815610
v -0.164973 2.216150 1.196894
v -0.044673 2.216161 0.993125
v 0.042434 1.959991 1.031647
v -0.099410 1.959993 1.266268
v 0.084853 1.959989 0.759900
v -0.067648 2.216166 0.528107
v -0.207424 2.216164 0.337655
v -0.138296 1.959985 0.269847
v 0.021389 1.959986 0.492391
v -0.010497 2.216163 0.758277
v -1.172772 2.215987 0.580339
v -1.263720 1.959987 0.543861
v -1.121876 1.959985 0.309241
v -1.055272 2.216136 0.380159
v -0.867676 2.216166 0.239424
v -0.902202 1.959984 0.147471
v -0.638140 1.959983 0.083179
v -0.640397 2.216164 0.181420
v -0.408547 2.216164 0.215915
v -0.369892 1.959983 0.126152
vn 0.8557 0.0058 0.5174
vn 0.8549 0.0185 0.5185
vn 0.9075 -0.3988 0.1319
vn 0.9096 -0.3910 0.1405
vn 0.7918 -0.3966 0.4645
vn 0.7894 -0.3841 0.4788
vn 0.9880 0.0125 0.1542
vn 0.9883 -0.0019 0.1527
vn -0.9730 0.0029 0.2308
vn -0.9731 0.0093 0.2301
vn -0.8124 0.0091 0.5830
vn -0.8115 -0.0058 0.5843
vn -0.9128 -0.3863 -0.1328
vn -0.9147 -0.3786 -0.1413
vn -0.8941 -0.3889 0.2220
vn -0.9005 -0.3792 0.2129
vn -0.4757 -0.3952 0.7859
vn -0.4890 -0.3834 0.7835
vn -0.1351 -0.3965 0.9080
vn -0.1448 -0.3879 0.9102
vn -0.1582 0.0095 0.9874
vn -0.1571 -0.0001 0.9876
vn -0.5272 -0.0141 0.8496
vn -0.5295 0.0100 0.8483
vn 0.5930 -0.0060 0.8052
vn 0.5918 0.0063 0.8060
vn 0.5515 -0.3945 0.7350
vn 0.5461 -0.3857 0.7437
vn 0.2271 -0.3957 0.8898
vn 0.2193 -0.3875 0.8954
vn 0.2366 0.0002 0.9716
vn 0.2379 -0.0120 0.9712
vn 0.4772 -0.3887 -0.7881
vn 0.4904 -0.3770 -0.7857
vn 0.5272 -0.0141 -0.8496
vn 0.5295 0.0099 -0.8483
vn 0.8124 0.0091 -0.5830
vn 0.8115 -0.0058 -0.5843
vn 0.8949 -0.3885 -0.2198
vn 0.8997 -0.3812 -0.2128
vn 0.1358 -0.3884 -0.9114
vn 0.1453 -0.3799 -0.9135
vn -0.2279 -0.3870 -0.8935
vn -0.2202 -0.3788 -0.8989
vn 0.1582 0.0094 -0.9874
vn 0.1571 -0.0001 -0.9876
vn -0.2366 0.0002 -0.9716
vn -0.2379 -0.0121 -0.9712
vn -0.5544 -0.3881 -0.7362
vn -0.5480 -0.3776 -0.7464
vn -0.9880 0.0125 -0.1542
vn -0.9883 -0.0019 -0.1527
vn -0.7423 -0.3902 0.5448
vn -0.7499 -0.3823 0.5399
vn -0.5930 -0.0061 -0.8052
vn -0.5918 0.0064 -0.8060
vn 0.7425 -0.3866 -0.5470
vn 0.7516 -0.3772 -0.5412
vn 0.9730 0.0029 -0.2308
vn 0.9731 0.0093 -0.2301
vn -0.8557 0.0058 -0.5174
vn -0.8549 0.0185 -0.5185
vn -0.7935 -0.3884 -0.4685
vn -0.7915 -0.3782 -0.4801
s 0
f 376//176 377//176 349//176
f 376//177 349//177 348//177
f 375//178 361//178 342//178
f 375//179 342//179 348//179
f 378//180 375//180 348//180
f 378//181 348//181 349//181
f 364//182 376//182 348//182
f 364//183 348//183 342//183
f 373//184 369//184 345//184
f 373//185 345//185 347//185
f 372//186 373//186 347//186
f 372//187 347//187 346//187
f 366//188 374//188 345//188
f 366//189 345//189 343//189
f 374//190 370//190 347//190
f 374//191 347//191 345//191
f 371//192 383//192 352//192
f 371//193 352//193 346//193
f 383//194 382//194 351//194
f 383//195 351//195 352//195
f 381//196 384//196 352//196
f 381//197 352//197 351//197
f 384//198 372//198 346//198
f 384//199 346//199 352//199
f 377//200 380//200 350//200
f 377//201 350//201 349//201
f 379//202 378//202 349//202
f 379//203 349//203 350//203
f 382//204 379//204 350//204
f 382//205 350//205 351//205
f 380//206 381//206 351//206
f 380//207 351//207 350//207
f 360//208 355//208 339//208
f 360//209 339//209 340//209
f 358//210 359//210 340//210
f 358//211 340//211 339//211
f 359//212 363//212 341//212
f 359//213 341//213 340//213
f 361//214 362//214 341//214
f 361//215 341//215 342//215
f 355//216 353//216 338//216
f 355//217 338//217 339//217
f 353//218 354//218 337//218
f 353//219 337//219 338//219
f 357//220 358//220 339//220
f 357//221 339//221 338//221
f 356//222 357//222 338//222
f 356//223 338//223 337//223
f 354//224 365//224 344//224
f 354//225 344//225 337//225
f 369//226 367//226 343//226
f 369//227 343//227 345//227
f 370//228 371//228 346//228
f 370//229 346//229 347//229
f 368//230 356//230 337//230
f 368//231 337//231 344//231
f 362//232 360//232 340//232
f 362//233 340//233 341//233
f 363//234 364//234 342//234
f 363//235 342//235 341//235
f 367//236 368//236 344//236
f 367//237 344//237 343//237
f 365//238 366//238 343//238
f 365//239 343//239 344//239
o Turret_01_havok_s_armor_9_8
v -0.702077 2.338636 1.164307
v -0.554543 2.338569 1.171862
v -0.580402 2.216150 1.396543
v -0.812452 2.216159 1.361963
v -0.833054 2.338583 1.101745
v -1.013374 2.216152 1.240313
v -0.930776 2.338647 0.992404
v -0.979401 2.338649 0.853641
v -1.152877 2.216150 1.050957
v -1.208342 2.216070 0.825264
v -0.353082 2.216146 1.338561
v -0.416189 2.338556 1.121798
v -0.164973 2.216150 1.196894
v -0.307301 2.338570 1.022090
v -0.044673 2.216161 0.993125
v -0.244206 2.338649 0.888019
v -0.640397 2.216164 0.181420
v -0.408547 2.216164 0.215915
v -0.515608 2.338664 0.427847
v -0.661904 2.338664 0.420844
v -0.383393 2.338664 0.490962
v -0.207424 2.216164 0.337655
v -0.285387 2.338664 0.600579
v -0.867677 2.216166 0.239424
v -0.800009 2.338664 0.471015
v -1.055272 2.216136 0.380159
v -1.172771 2.215987 0.580339
v -0.971497 2.338636 0.704118
v -0.908822 2.338659 0.570588
v -0.067648 2.216166 0.528107
v -0.010497 2.216163 0.758277
v -0.236511 2.338664 0.740009
vn 0.2862 -0.8790 0.3813
vn 0.4868 -0.8706 0.0710
vn 0.4695 -0.8826 0.0249
vn 0.1176 -0.8797 0.4607
vn 0.1548 -0.8913 0.4262
vn -0.1976 -0.8886 0.4139
vn -0.2499 -0.8758 0.4129
vn -0.3465 -0.8854 0.3098
vn -0.3944 -0.8722 0.2894
vn -0.4940 -0.8665 -0.0719
vn -0.4748 -0.8797 -0.0248
vn -0.4805 -0.8688 0.1193
vn -0.4444 -0.8822 0.1558
vn 0.4192 -0.8863 0.1966
vn 0.3076 -0.8902 0.3361
vn 0.4162 -0.8761 0.2436
vn 0.4800 -0.8693 -0.1177
vn 0.4452 -0.8817 -0.1560
vn 0.4006 -0.8674 -0.2951
vn 0.2591 -0.8659 -0.4279
vn 0.3540 -0.8799 -0.3169
vn 0.0738 -0.8656 -0.4952
vn 0.0240 -0.8790 -0.4762
vn 0.2057 -0.8791 -0.4299
vn -0.4320 -0.8786 -0.2038
vn -0.0703 -0.8786 0.4723
vn -0.0217 -0.8908 0.4538
vn -0.3227 -0.8784 -0.3525
vn -0.4315 -0.8654 -0.2548
vn -0.1239 -0.8653 -0.4857
vn -0.1625 -0.8787 -0.4489
vn -0.3017 -0.8651 -0.4007
s 0
f 408//240 409//240 410//240
f 394//241 411//241 412//241
f 394//242 412//242 392//242
f 408//243 401//243 404//243
f 408//244 404//244 409//244
f 405//245 403//245 402//245
f 405//246 402//246 406//246
f 405//247 406//247 407//247
f 407//248 406//248 414//248
f 415//249 399//249 400//249
f 415//250 400//250 416//250
f 414//251 415//251 416//251
f 414//252 416//252 407//252
f 412//253 411//253 413//253
f 410//254 409//254 413//254
f 410//255 413//255 411//255
f 393//256 394//256 392//256
f 393//257 392//257 391//257
f 390//258 393//258 391//258
f 389//259 388//259 390//259
f 389//260 390//260 391//260
f 387//261 388//261 385//261
f 387//262 385//262 386//262
f 385//263 388//263 389//263
f 400//264 399//264 398//264
f 401//265 402//265 403//265
f 401//266 403//266 404//266
f 397//267 396//267 398//267
f 397//268 398//268 399//268
f 395//269 387//269 386//269
f 395//270 386//270 396//270
f 395//271 396//271 397//271
o Hull_havok_s_armor_1_0
v -2.945375 0.999999 -0.895463
v -3.018928 0.999999 -0.602402
v -3.062916 0.999999 -0.300038
v -3.062916 0.999999 0.300038
v -3.078059 0.999999 -0.002326
v -2.843698 0.999999 -1.179220
v -2.714618 0.999999 -1.449022
v -2.559579 0.999999 -1.709520
v -2.945375 0.999999 0.895463
v -3.018928 0.999999 0.602402
v -2.843698 0.999999 1.179220
v -2.714618 0.999999 1.449022
v -1.951681 0.712407 1.602530
v -2.099509 0.712407 1.402504
v -2.227146 0.712407 1.188523
v -2.333150 0.712407 -0.965240
v -2.416078 0.712407 -0.732652
v -2.227146 0.712407 -1.188524
v -2.099509 0.712407 -1.402504
v -1.951681 0.712407 -1.602530
v -1.785825 0.712407 -1.783948
v -2.379301 0.999999 -1.951411
v -2.176668 0.999999 -2.174696
v -1.952402 0.999999 -2.379373
v -1.952402 0.999999 2.379373
v -2.176668 0.999999 2.174695
v -2.559579 0.999999 1.709520
v -2.379301 0.999999 1.951411
v -2.333150 0.712407 0.965239
v -2.416078 0.712407 0.732651
v -2.476651 0.712407 0.490760
v -2.512707 0.712407 0.248869
v -2.524966 0.712407 -0.002326
v -2.512707 0.712407 -0.248869
v -2.476651 0.712407 -0.490760
v -1.785825 0.712407 1.783948
v -2.227146 0.999999 1.188523
v -2.333150 0.999999 0.965239
v -1.601941 0.999999 -1.951411
v -1.785825 0.999999 -1.783948
v -1.951681 0.999999 -1.602530
v -2.099509 0.999999 -1.402504
v -2.227146 0.999999 -1.188524
v -1.601941 0.999999 1.951411
v -1.785825 0.999999 1.783948
v -1.951681 0.999999 1.602530
v -2.099509 0.999999 1.402504
v -2.416078 0.999999 0.732651
v -2.476651 0.999999 0.490760
v -2.512707 0.999999 0.248869
v -2.512707 0.999999 -0.248869
v -2.524966 0.999999 -0.002326
v -2.333150 0.999999 -0.965240
v -2.416078 0.999999 -0.732652
v -2.476651 0.999999 -0.490760
v 1.601736 0.712407 1.951501
v 1.403642 0.712407 2.097536
v 1.190951 0.712407 2.226882
v 0.965750 0.712407 2.331193
v 0.732207 0.712407 2.414642
v 0.492409 0.712407 2.477229
v 0.248440 0.712407 2.514781
v 0.000301 0.712407 2.523126
v -0.247838 0.712407 2.514781
v -0.491807 0.712407 2.477229
v -0.733690 0.712407 2.414642
v -0.967233 0.712407 2.331193
v -1.190350 0.712407 2.226882
v 1.952050 0.712407 1.601015
v 1.785234 0.712407 1.784603
v 1.785234 0.999999 1.784603
v 1.601736 0.999999 1.951501
v 1.952050 0.999999 1.601015
v 2.100100 0.712407 1.404911
v 2.227297 0.712407 1.192116
v 2.417050 0.712407 0.733147
v 2.333642 0.712407 0.966804
v 2.512969 0.712407 0.249144
v 2.477521 0.712407 0.491145
v 2.512969 0.712407 -0.247377
v 2.525481 0.712407 -0.001203
v 2.477521 0.712407 -0.493551
v 2.417050 0.712407 -0.731381
v 2.333642 0.712407 -0.965037
v 2.944607 0.999999 0.891700
v 3.019674 0.999999 0.599629
v 3.063463 0.999999 0.303385
v 3.078060 0.999999 -0.001203
v 3.063463 0.999999 -0.301619
v 2.525481 0.999999 -0.001203
v 2.512969 0.999999 -0.247377
v 2.512969 0.999999 0.249144
v 2.477521 0.999999 -0.493551
v 3.019674 0.999999 -0.602035
v 2.417050 0.999999 0.733147
v 2.477521 0.999999 0.491145
v 2.944607 0.999999 -0.894106
v 2.715234 0.999999 1.450808
v 2.844517 0.999999 1.179599
v 2.558844 0.999999 1.709499
v 2.227297 0.999999 -1.190350
v 2.333642 0.999999 -0.965037
v 2.417050 0.999999 -0.731381
v 2.227297 0.999999 1.192116
v 2.100100 0.999999 1.404911
v 2.333642 0.999999 0.966804
v 2.379517 0.999999 1.951501
v 2.177252 0.999999 2.176813
v 1.952050 0.999999 2.381263
v -0.302054 0.999999 3.061371
v 0.000301 0.999999 3.078061
v 0.302655 0.999999 3.061371
v 0.000301 0.999999 2.523126
v 0.248440 0.999999 2.514781
v 0.600839 0.999999 3.019646
v 0.892768 0.999999 2.944542
v 1.178440 0.999999 2.844404
v -1.177838 0.999999 2.844404
v -0.894251 0.999999 2.944542
v -0.600237 0.999999 3.019646
v 0.492409 0.999999 2.477229
v 0.732207 0.999999 2.414642
v 0.965750 0.999999 2.331193
v 1.190951 0.999999 2.226882
v -0.247838 0.999999 2.514781
v -0.491807 0.999999 2.477229
v -0.967233 0.999999 2.331193
v -1.190350 0.999999 2.226882
v -0.733690 0.999999 2.414642
v 1.710167 0.999999 2.560678
v 1.451602 0.999999 2.715058
v 1.403642 0.999999 2.097536
v 0.302411 0.999998 -3.062900
v 0.000720 0.999998 -3.078061
v -0.300971 0.999998 -3.062900
v 0.600615 0.999998 -3.018679
v 0.893587 0.999998 -2.945399
v 0.000720 0.999998 -2.524671
v -0.246911 0.999998 -2.513300
v 0.248351 0.999998 -2.513300
v 0.492494 0.999998 -2.476660
v -0.492798 0.999998 -2.476660
v -0.733453 0.999998 -2.416014
v -0.893890 0.999998 -2.945399
v -0.600918 0.999998 -3.018679
v -1.178143 0.999998 -2.844323
v 1.177839 0.999998 -2.844323
v 1.451628 0.999998 -2.714188
v 0.966829 0.712407 -2.332627
v 1.190046 0.712407 -2.226497
v 0.733150 0.712407 -2.416014
v 1.402799 0.712407 -2.100152
v 1.601601 0.712407 -1.952329
v 0.248351 0.712407 -2.513300
v 0.492494 0.712407 -2.476660
v 0.000720 0.712407 -2.524671
v -0.246911 0.712407 -2.513300
v -0.733453 0.712407 -2.416014
v -0.492798 0.712407 -2.476660
v -0.967133 0.712407 -2.332627
v -1.190350 0.712407 -2.226497
v -0.967133 0.999998 -2.332627
v -1.190350 0.999998 -2.226497
v 1.190046 0.999998 -2.226497
v 0.966829 0.999998 -2.332627
v 1.402799 0.999998 -2.100152
v 0.733150 0.999998 -2.416014
v 1.601601 0.999998 -1.952329
v 1.709722 0.999998 -2.558784
v 1.784709 0.712407 -1.785554
v 2.379372 0.999998 -1.952329
v 2.177082 0.999998 -2.175959
v 1.784709 0.999998 -1.785554
v 1.952121 0.999998 -2.379375
v -3.954391 -0.118964 -0.786578
v -3.858253 -0.118965 -1.170387
v -4.012448 -0.118964 -0.395191
v -4.012448 -0.118964 0.395191
v -4.031862 -0.118964 -0.000001
v -3.724955 -0.118965 -1.542928
v -3.555787 -0.118965 -1.900608
v -3.858253 -0.118964 1.170387
v -3.954391 -0.118964 0.786577
v -3.724955 -0.118964 1.542928
v -1.601941 0.712407 -1.951972
v -3.352370 -0.118965 -2.239984
v -3.116670 -0.118965 -2.557786
v -2.850960 -0.118966 -2.850958
v -2.557787 -0.118966 -3.116672
v -1.450987 0.999997 -2.714606
v -1.710077 0.999997 -2.559315
v -1.900609 -0.118966 -3.555786
v -1.542927 -0.118966 -3.724954
v -2.239983 -0.118966 -3.352371
v -1.900609 -0.118965 3.555786
v -1.710077 0.999998 2.559313
v -1.450987 0.999998 2.714606
v -1.542927 -0.118965 3.724956
v -2.239983 -0.118965 3.352371
v -2.557787 -0.118965 3.116671
v -2.850960 -0.118965 2.850957
v -3.116670 -0.118965 2.557786
v -3.352370 -0.118965 2.239982
v -3.555787 -0.118964 1.900607
v -1.601941 0.712408 1.951970
v -1.402901 0.999998 -2.099588
v -1.402901 0.712407 -2.099588
v -1.402901 0.999998 2.099589
v -1.402901 0.712408 2.099589
v 2.226987 0.712407 -1.190349
v 3.858253 -0.118964 1.170387
v 3.954391 -0.118964 0.786577
v 4.012448 -0.118964 0.395191
v 4.031862 -0.118964 -0.000001
v 4.012448 -0.118964 -0.395191
v 3.858253 -0.118965 -1.170387
v 3.954391 -0.118964 -0.786578
v 3.724956 -0.118965 -1.542928
v 2.843758 0.999998 -1.177924
v 3.724956 -0.118964 1.542928
v 3.555787 -0.118964 1.900607
v 3.352370 -0.118965 2.239982
v 2.099587 0.999998 -1.402902
v 2.559314 0.999998 -1.710080
v 2.714605 0.999998 -1.450988
v 1.951971 0.712407 -1.601943
v 1.951971 0.999998 -1.601943
v 2.099587 0.712407 -1.402902
v -0.395192 -0.118965 4.012447
v 0.000002 -0.118965 4.031863
v 0.395192 -0.118965 4.012447
v 0.786576 -0.118965 3.954392
v 1.170388 -0.118965 3.858252
v -1.170388 -0.118965 3.858252
v -0.786576 -0.118965 3.954392
v 2.557787 -0.118965 3.116671
v 2.239983 -0.118965 3.352371
v 1.900609 -0.118965 3.555786
v 2.850956 -0.118965 2.850957
v 3.116671 -0.118965 2.557786
v 1.542927 -0.118965 3.724956
v 0.000002 -0.118966 -4.031863
v 0.395192 -0.118966 -4.012449
v -0.395192 -0.118966 -4.012449
v 0.786576 -0.118966 -3.954391
v -1.170388 -0.118966 -3.858252
v -0.786576 -0.118966 -3.954391
v 1.170388 -0.118966 -3.858252
v 1.542927 -0.118966 -3.724954
v 1.900609 -0.118966 -3.555786
v 3.116671 -0.118965 -2.557786
v 2.850956 -0.118966 -2.850958
v 3.352370 -0.118965 -2.239984
v 3.555787 -0.118965 -1.900608
v 2.239983 -0.118966 -3.352371
v 2.557787 -0.118966 -3.116672
vn -0.0000 -1.0000 -0.0000
vn -0.8042 -0.0000 0.5943
vn -0.8588 -0.0000 0.5123
vn -0.7381 -0.0000 0.6747
vn -0.5957 -0.0000 0.8032
vn -0.5972 0.0016 0.8021
vn -0.5957 -0.0000 -0.8032
vn -0.5972 0.0016 -0.8021
vn -0.8042 -0.0000 -0.5943
vn -0.6745 0.0014 0.7382
vn -0.6733 -0.0000 0.7393
vn -0.8588 -0.0000 -0.5123
vn -0.7381 -0.0000 -0.6747
vn -0.9891 -0.0000 -0.1474
vn -0.9419 -0.0000 -0.3358
vn -0.9700 -0.0000 -0.2429
vn -0.9034 -0.0000 -0.4289
vn -0.9891 -0.0000 0.1474
vn -0.9419 -0.0000 0.3358
vn -0.9700 -0.0000 0.2429
vn -0.9988 -0.0000 -0.0497
vn -0.9988 -0.0000 0.0487
vn -0.6746 0.0014 -0.7382
vn -0.6733 -0.0000 -0.7393
vn 0.6871 -0.6480 -0.3287
vn 0.6531 -0.6483 0.3914
vn 0.5130 -0.6488 0.5621
vn 0.5639 -0.6487 0.5111
vn 0.6115 -0.6483 0.4536
vn 0.6103 -0.6486 0.4548
vn 0.5636 -0.6486 0.5115
vn 0.7171 -0.6480 -0.2566
vn 0.7169 -0.6481 -0.2569
vn 0.7604 -0.6484 -0.0374
vn 0.7604 -0.6483 -0.0381
vn 0.7604 -0.6484 0.0374
vn 0.7605 -0.6482 0.0387
vn 0.7387 -0.6481 0.1850
vn 0.7387 -0.6481 0.1854
vn 0.7533 -0.6481 0.1117
vn 0.7533 -0.6485 0.1096
vn 0.7171 -0.6480 0.2566
vn 0.7169 -0.6481 0.2569
vn 0.7387 -0.6481 -0.1850
vn 0.7387 -0.6481 -0.1854
vn 0.7533 -0.6481 -0.1117
vn 0.7533 -0.6485 -0.1096
vn 0.6871 -0.6480 0.3287
vn 0.6540 -0.6487 0.3892
vn 0.6881 -0.6486 0.3254
vn 0.5113 -0.6483 0.5641
vn 0.6540 -0.6487 -0.3892
vn 0.6881 -0.6486 -0.3254
vn 0.6531 -0.6483 -0.3914
vn -0.9034 -0.0000 0.4289
vn 0.5636 -0.6486 -0.5115
vn 0.4536 -0.6483 0.6116
vn 0.4539 -0.6483 0.6113
vn 0.3915 -0.6483 -0.6531
vn 0.3255 -0.6483 -0.6883
vn 0.3914 -0.6483 0.6531
vn 0.3255 -0.6483 0.6883
vn 0.3915 -0.6483 0.6531
vn 0.5113 -0.6483 -0.5641
vn 0.6115 -0.6483 -0.4536
vn 0.6103 -0.6486 -0.4548
vn 0.4536 -0.6483 -0.6116
vn 0.4539 -0.6483 -0.6113
vn 0.5130 -0.6488 -0.5621
vn 0.5639 -0.6487 -0.5111
vn 0.1885 -0.6479 -0.7380
vn 0.3269 -0.6480 -0.6879
vn 0.2566 -0.6480 -0.7171
vn 0.2534 -0.6486 -0.7177
vn 0.1849 -0.6486 -0.7384
vn 0.1116 -0.6490 -0.7526
vn 0.1056 -0.6478 -0.7544
vn 0.2525 -0.0000 0.9676
vn 0.1521 -0.0000 0.9884
vn 0.3365 -0.0000 0.9417
vn -0.1116 -0.6489 -0.7526
vn -0.1056 -0.6478 -0.7545
vn -0.1898 -0.6478 -0.7378
vn -0.2517 -0.6488 -0.7181
vn -0.1849 -0.6487 -0.7382
vn 0.0374 -0.6483 -0.7605
vn 0.0419 -0.6491 -0.7596
vn -0.0373 -0.6490 -0.7599
vn -0.0420 -0.6481 -0.7604
vn 0.0336 -0.0000 0.9994
vn -0.6114 -0.6485 -0.4534
vn -0.6116 -0.6485 -0.4532
vn -0.3257 -0.6479 -0.6886
vn -0.3260 -0.6480 -0.6884
vn -0.2566 -0.6479 -0.7172
vn -0.3916 -0.6480 -0.6533
vn -0.3906 -0.6477 -0.6541
vn -0.5115 -0.6480 -0.5644
vn -0.5120 -0.6479 -0.5640
vn -0.5644 -0.6480 -0.5115
vn -0.5664 -0.6486 -0.5084
vn 0.5196 -0.0000 0.8544
vn 0.4203 -0.0000 0.9074
vn 0.5934 -0.0000 0.8049
vn -0.0336 -0.0000 0.9994
vn -0.1521 -0.0000 0.9884
vn -0.3365 -0.0000 0.9417
vn -0.2505 -0.0000 0.9681
vn -0.4538 -0.6478 -0.6119
vn -0.5138 -0.0000 0.8579
vn -0.4235 -0.0000 0.9059
vn -0.7388 -0.6480 -0.1851
vn -0.7369 -0.6489 -0.1894
vn -0.7534 -0.6480 -0.1118
vn -0.7534 -0.6481 -0.1114
vn -0.7605 -0.6483 -0.0374
vn -0.7607 -0.6481 -0.0365
vn -0.7605 -0.6482 0.0374
vn -0.7606 -0.6482 0.0370
vn 0.7401 -0.0000 0.6725
vn 0.6729 -0.0000 0.7398
vn 0.9988 -0.0000 0.0499
vn 0.9894 -0.0000 0.1449
vn 0.9692 -0.0000 -0.2464
vn 0.9043 -0.0010 -0.4268
vn 0.9038 -0.0000 -0.4279
vn 0.9418 -0.0000 -0.3362
vn 0.9987 -0.0000 -0.0508
vn 0.7981 -0.0000 0.6025
vn 0.9418 -0.0000 0.3362
vn 0.9702 -0.0000 0.2424
vn 0.9898 -0.0000 -0.1425
vn 0.8583 -0.0000 0.5131
vn 0.9043 -0.0000 0.4268
vn -0.6885 -0.6481 -0.3256
vn -0.6878 -0.6476 -0.3279
vn -0.7164 -0.6488 -0.2563
vn -0.7197 -0.6476 -0.2502
vn -0.6532 -0.6481 -0.3915
vn -0.6514 -0.6486 -0.3938
vn -0.7390 -0.6478 0.1851
vn -0.7371 -0.6487 0.1895
vn -0.7535 -0.6479 0.1118
vn -0.7535 -0.6482 0.1098
vn -0.7175 -0.6482 0.2550
vn -0.7167 -0.6485 0.2564
vn 0.8032 -0.0000 -0.5957
vn 0.8572 -0.0000 -0.5150
vn 0.8577 -0.0009 -0.5141
vn 0.2444 -0.0000 -0.9697
vn 0.3361 -0.0000 -0.9418
vn 0.4294 -0.0000 -0.9031
vn 0.1484 -0.0000 -0.9889
vn 0.5106 -0.0000 -0.8598
vn 0.5967 -0.0000 -0.8025
vn -0.5126 -0.0000 -0.8586
vn -0.6531 -0.6483 0.3915
vn -0.6531 -0.6483 0.3914
vn 0.7393 -0.0000 -0.6734
vn -0.6883 -0.6483 0.3256
vn -0.6883 -0.6483 0.3255
vn -0.5113 -0.6483 0.5642
vn -0.5106 -0.6484 0.5647
vn -0.3914 -0.6483 0.6531
vn -0.3926 -0.6485 0.6521
vn -0.4535 -0.6485 0.6114
vn -0.4529 -0.6484 0.6119
vn -0.6116 -0.6483 0.4536
vn -0.6112 -0.6484 0.4540
vn -0.5642 -0.6482 0.5113
vn -0.5646 -0.6484 0.5107
vn 0.6734 -0.0000 -0.7393
vn 0.2566 -0.6480 0.7171
vn 0.3270 -0.6480 0.6879
vn 0.2551 -0.6483 0.7174
vn 0.1850 -0.6483 0.7386
vn -0.2551 -0.6483 0.7174
vn -0.1850 -0.6483 0.7386
vn 0.1847 -0.6483 0.7386
vn 0.1117 -0.6484 0.7530
vn 0.1110 -0.6483 0.7532
vn -0.1117 -0.6483 0.7531
vn 0.0374 -0.6483 0.7605
vn 0.0382 -0.6484 0.7603
vn -0.0374 -0.6484 0.7604
vn -0.0382 -0.6482 0.7605
vn -0.1847 -0.6483 0.7386
vn -0.2566 -0.6481 0.7171
vn -0.1474 -0.0000 -0.9891
vn -0.2444 -0.0000 -0.9697
vn 0.0459 -0.0000 -0.9989
vn -0.3361 -0.0000 -0.9418
vn -0.4294 -0.0000 -0.9031
vn -0.0459 -0.0000 -0.9989
vn -0.3256 -0.6481 0.6885
vn -0.3268 -0.6483 0.6876
s 0
f 462//272 461//272 444//272
f 462//272 444//272 443//272
f 462//273 463//273 430//273
f 462//273 430//273 429//273
f 461//272 460//272 442//272
f 461//272 442//272 444//272
f 441//272 442//272 460//272
f 463//274 453//274 431//274
f 463//274 431//274 430//274
f 425//272 464//272 454//272
f 420//272 466//272 465//272
f 420//272 465//272 426//272
f 461//275 462//275 429//275
f 461//275 429//275 452//275
f 426//272 465//272 464//272
f 426//272 464//272 425//272
f 621//276 625//276 624//276
f 621//277 624//277 460//277
f 440//272 455//272 439//272
f 438//272 456//272 457//272
f 438//272 457//272 424//272
f 622//278 623//278 601//278
f 622//279 601//279 455//279
f 439//272 455//272 456//272
f 439//272 456//272 438//272
f 435//280 458//280 457//280
f 435//280 457//280 436//280
f 624//272 612//272 441//272
f 624//272 441//272 460//272
f 452//281 621//281 460//281
f 452//282 460//282 461//282
f 434//283 459//283 458//283
f 434//283 458//283 435//283
f 436//284 457//284 456//284
f 436//284 456//284 437//284
f 467//272 468//272 421//272
f 467//272 421//272 419//272
f 450//285 467//285 471//285
f 450//285 471//285 451//285
f 470//272 471//272 418//272
f 470//272 418//272 417//272
f 433//286 470//286 469//286
f 433//286 469//286 432//286
f 451//287 471//287 470//287
f 451//287 470//287 433//287
f 469//272 470//272 417//272
f 423//272 458//272 459//272
f 423//272 459//272 422//272
f 424//272 457//272 458//272
f 424//272 458//272 423//272
f 471//272 467//272 419//272
f 471//272 419//272 418//272
f 422//272 459//272 469//272
f 422//272 469//272 417//272
f 432//288 469//288 459//288
f 432//288 459//288 434//288
f 465//289 466//289 448//289
f 465//289 448//289 447//289
f 454//290 464//290 446//290
f 454//290 446//290 445//290
f 421//272 468//272 466//272
f 421//272 466//272 420//272
f 464//291 465//291 447//291
f 464//291 447//291 446//291
f 449//292 468//292 467//292
f 449//292 467//292 450//292
f 453//272 463//272 428//272
f 453//272 428//272 427//272
f 463//272 462//272 443//272
f 463//272 443//272 428//272
f 466//293 468//293 449//293
f 466//293 449//293 448//293
f 454//272 453//272 427//272
f 454//272 427//272 425//272
f 455//294 601//294 437//294
f 455//295 437//295 456//295
f 432//272 601//272 433//272
f 434//272 435//272 601//272
f 434//272 601//272 432//272
f 427//296 428//296 600//296
f 430//272 431//272 601//272
f 430//272 601//272 429//272
f 436//272 437//272 601//272
f 436//272 601//272 435//272
f 597//297 602//297 424//297
f 604//298 440//298 439//298
f 604//299 439//299 603//299
f 424//300 602//300 603//300
f 424//301 603//301 438//301
f 438//302 603//302 439//302
f 600//303 598//303 425//303
f 600//304 425//304 427//304
f 420//305 594//305 595//305
f 420//306 595//306 421//306
f 595//307 593//307 419//307
f 595//308 419//308 421//308
f 591//309 592//309 417//309
f 591//310 417//310 418//310
f 593//311 591//311 418//311
f 593//312 418//312 419//312
f 417//313 592//313 596//313
f 417//314 596//314 422//314
f 425//315 598//315 599//315
f 425//316 599//316 426//316
f 426//317 599//317 594//317
f 426//318 594//318 420//318
f 422//319 596//319 423//319
f 597//320 424//320 423//320
f 597//321 423//321 596//321
f 604//322 605//322 440//322
f 445//272 446//272 601//272
f 445//272 601//272 431//272
f 447//272 448//272 601//272
f 447//272 601//272 446//272
f 428//323 443//323 620//323
f 428//324 620//324 600//324
f 443//325 619//325 620//325
f 449//272 450//272 601//272
f 449//272 601//272 448//272
f 453//326 454//326 445//326
f 453//326 445//326 431//326
f 440//272 607//272 622//272
f 440//272 622//272 455//272
f 601//272 450//272 451//272
f 601//272 451//272 433//272
f 601//272 621//272 452//272
f 601//272 452//272 429//272
f 444//327 442//327 618//327
f 605//328 610//328 607//328
f 605//329 607//329 440//329
f 611//330 612//330 613//330
f 611//331 613//331 614//331
f 606//332 607//332 608//332
f 606//333 608//333 609//333
f 607//334 610//334 608//334
f 611//330 615//330 612//330
f 441//335 616//335 617//335
f 618//336 619//336 443//336
f 618//337 443//337 444//337
f 612//338 615//338 616//338
f 612//339 616//339 441//339
f 442//340 441//340 617//340
f 442//341 617//341 618//341
f 536//342 651//342 535//342
f 531//272 537//272 538//272
f 531//272 538//272 532//272
f 532//272 538//272 539//272
f 614//343 613//343 534//343
f 614//344 534//344 650//344
f 650//345 534//345 535//345
f 650//346 535//346 651//346
f 526//347 645//347 651//347
f 526//348 651//348 536//348
f 538//349 537//349 477//349
f 538//349 477//349 476//349
f 537//350 530//350 478//350
f 537//350 478//350 477//350
f 539//351 538//351 476//351
f 539//351 476//351 475//351
f 537//272 531//272 528//272
f 537//272 528//272 530//272
f 539//272 540//272 533//272
f 539//272 533//272 532//272
f 526//272 541//272 529//272
f 526//272 529//272 527//272
f 516//272 521//272 520//272
f 516//272 520//272 514//272
f 524//272 525//272 487//272
f 524//272 487//272 489//272
f 523//272 524//272 489//272
f 514//272 520//272 522//272
f 514//272 522//272 515//272
f 515//272 522//272 511//272
f 515//272 511//272 501//272
f 521//272 516//272 523//272
f 521//272 523//272 489//272
f 648//352 647//352 528//352
f 648//353 528//353 531//353
f 531//354 532//354 648//354
f 532//355 533//355 649//355
f 532//356 649//356 648//356
f 527//357 646//357 645//357
f 527//358 645//358 526//358
f 528//359 647//359 646//359
f 528//360 646//360 527//360
f 527//272 529//272 530//272
f 527//272 530//272 528//272
f 530//361 529//361 479//361
f 530//361 479//361 478//361
f 516//362 638//362 656//362
f 516//363 656//363 523//363
f 654//364 657//364 533//364
f 654//365 533//365 547//365
f 533//366 657//366 649//366
f 653//367 654//367 547//367
f 653//368 547//368 546//368
f 524//369 655//369 652//369
f 524//370 652//370 525//370
f 656//371 655//371 524//371
f 656//372 524//372 523//372
f 548//373 540//373 474//373
f 548//373 474//373 473//373
f 540//374 539//374 475//374
f 540//374 475//374 474//374
f 488//375 548//375 473//375
f 488//375 473//375 472//375
f 546//272 547//272 548//272
f 546//272 548//272 488//272
f 540//272 548//272 547//272
f 540//272 547//272 533//272
f 525//272 546//272 488//272
f 525//272 488//272 487//272
f 534//272 543//272 545//272
f 534//272 545//272 535//272
f 612//272 624//272 544//272
f 612//272 544//272 613//272
f 535//272 545//272 542//272
f 535//272 542//272 536//272
f 529//376 541//376 480//376
f 529//376 480//376 479//376
f 541//377 542//377 481//377
f 541//377 481//377 480//377
f 613//272 544//272 543//272
f 613//272 543//272 534//272
f 545//378 543//378 483//378
f 545//378 483//378 482//378
f 542//379 545//379 482//379
f 542//379 482//379 481//379
f 652//380 653//380 546//380
f 652//380 546//380 525//380
f 536//272 542//272 541//272
f 536//272 541//272 526//272
f 544//381 624//381 625//381
f 544//381 625//381 484//381
f 543//382 544//382 484//382
f 543//382 484//382 483//382
f 601//272 626//272 500//272
f 601//272 500//272 499//272
f 502//383 628//383 627//383
f 502//384 627//384 501//384
f 629//385 628//385 502//385
f 629//386 502//386 503//386
f 601//272 494//272 495//272
f 601//272 495//272 492//272
f 601//272 496//272 497//272
f 601//272 497//272 494//272
f 601//272 499//272 498//272
f 601//272 498//272 496//272
f 503//272 508//272 506//272
f 503//272 506//272 504//272
f 507//272 509//272 510//272
f 507//272 510//272 505//272
f 501//272 511//272 512//272
f 501//272 512//272 502//272
f 504//387 630//387 629//387
f 504//388 629//388 503//388
f 631//389 630//389 504//389
f 631//390 504//390 505//390
f 506//272 507//272 505//272
f 506//272 505//272 504//272
f 479//272 480//272 601//272
f 479//272 601//272 478//272
f 481//272 482//272 601//272
f 481//272 601//272 480//272
f 483//272 484//272 601//272
f 483//272 601//272 482//272
f 473//272 474//272 601//272
f 473//272 601//272 472//272
f 475//272 476//272 601//272
f 475//272 601//272 474//272
f 477//272 478//272 601//272
f 477//272 601//272 476//272
f 489//391 487//391 486//391
f 489//391 486//391 485//391
f 601//272 491//272 490//272
f 601//272 490//272 485//272
f 601//272 492//272 493//272
f 601//272 493//272 491//272
f 625//272 621//272 601//272
f 625//272 601//272 484//272
f 601//272 485//272 486//272
f 601//272 486//272 472//272
f 487//392 488//392 472//392
f 487//392 472//392 486//392
f 502//272 512//272 508//272
f 502//272 508//272 503//272
f 506//393 508//393 494//393
f 506//393 494//393 497//393
f 508//394 512//394 495//394
f 508//394 495//394 494//394
f 499//395 519//395 509//395
f 499//395 509//395 498//395
f 626//396 517//396 518//396
f 626//397 518//397 500//397
f 500//398 518//398 519//398
f 500//398 519//398 499//398
f 496//399 507//399 506//399
f 496//399 506//399 497//399
f 485//400 490//400 521//400
f 485//400 521//400 489//400
f 511//401 522//401 493//401
f 511//401 493//401 492//401
f 512//402 511//402 492//402
f 512//402 492//402 495//402
f 498//403 509//403 507//403
f 498//403 507//403 496//403
f 520//404 521//404 490//404
f 520//404 490//404 491//404
f 522//405 520//405 491//405
f 522//405 491//405 493//405
f 636//406 637//406 514//406
f 636//407 514//407 515//407
f 501//408 627//408 636//408
f 501//409 636//409 515//409
f 514//410 637//410 638//410
f 514//411 638//411 516//411
f 632//412 633//412 510//412
f 632//413 510//413 513//413
f 510//414 633//414 631//414
f 510//415 631//415 505//415
f 513//416 635//416 634//416
f 513//417 634//417 632//417
f 509//272 519//272 513//272
f 509//272 513//272 510//272
f 639//418 644//418 642//418
f 639//418 642//418 643//418
f 644//419 639//419 517//419
f 644//420 517//420 626//420
f 640//272 641//272 517//272
f 640//272 517//272 639//272
f 641//272 635//272 518//272
f 641//272 518//272 517//272
f 519//272 518//272 635//272
f 519//272 635//272 513//272
f 583//421 567//421 571//421
f 583//421 571//421 557//421
f 567//422 583//422 581//422
f 567//422 581//422 565//422
f 565//423 581//423 580//423
f 565//423 580//423 566//423
f 557//424 571//424 570//424
f 557//424 570//424 556//424
f 585//272 584//272 582//272
f 585//272 582//272 564//272
f 566//425 580//425 582//425
f 566//425 582//425 568//425
f 568//426 582//426 584//426
f 568//426 584//426 569//426
f 623//427 622//427 579//427
f 623//427 579//427 577//427
f 579//272 622//272 607//272
f 579//272 607//272 606//272
f 559//272 578//272 562//272
f 559//272 562//272 560//272
f 563//272 580//272 581//272
f 563//272 581//272 553//272
f 581//272 583//272 553//272
f 583//272 557//272 552//272
f 583//272 552//272 553//272
f 564//272 582//272 580//272
f 564//272 580//272 563//272
f 644//272 626//272 601//272
f 644//272 601//272 642//272
f 669//428 670//428 641//428
f 669//429 641//429 640//429
f 590//272 589//272 584//272
f 590//272 584//272 585//272
f 643//430 642//430 586//430
f 643//430 586//430 589//430
f 634//431 635//431 641//431
f 634//432 641//432 670//432
f 672//433 668//433 588//433
f 672//434 588//434 590//434
f 564//435 666//435 671//435
f 564//436 671//436 585//436
f 585//437 671//437 672//437
f 585//438 672//438 590//438
f 667//439 669//439 640//439
f 667//440 640//440 587//440
f 588//441 668//441 667//441
f 588//442 667//442 587//442
f 586//272 642//272 601//272
f 586//272 601//272 569//272
f 588//272 643//272 589//272
f 588//272 589//272 590//272
f 589//443 586//443 569//443
f 589//443 569//443 584//443
f 639//272 643//272 587//272
f 639//272 587//272 640//272
f 587//272 643//272 588//272
f 578//272 579//272 606//272
f 578//272 606//272 562//272
f 609//444 662//444 562//444
f 609//445 562//445 606//445
f 555//272 558//272 561//272
f 555//272 561//272 551//272
f 560//272 561//272 558//272
f 560//272 558//272 559//272
f 560//446 562//446 662//446
f 560//447 662//447 663//447
f 664//448 563//448 553//448
f 664//449 553//449 661//449
f 561//450 560//450 663//450
f 663//451 660//451 551//451
f 663//452 551//452 561//452
f 549//453 659//453 661//453
f 549//453 661//453 552//453
f 660//454 658//454 550//454
f 660//455 550//455 551//455
f 658//456 659//456 549//456
f 658//457 549//457 550//457
f 552//458 661//458 553//458
f 557//272 556//272 549//272
f 557//272 549//272 552//272
f 556//272 554//272 550//272
f 556//272 550//272 549//272
f 554//272 555//272 551//272
f 554//272 551//272 550//272
f 664//459 665//459 563//459
f 555//460 573//460 575//460
f 555//460 575//460 558//460
f 558//461 575//461 574//461
f 558//461 574//461 559//461
f 601//272 623//272 577//272
f 601//272 577//272 576//272
f 556//462 570//462 572//462
f 556//462 572//462 554//462
f 576//463 578//463 559//463
f 576//463 559//463 574//463
f 577//464 579//464 578//464
f 577//464 578//464 576//464
f 554//465 572//465 573//465
f 554//465 573//465 555//465
f 568//272 569//272 601//272
f 568//272 601//272 566//272
f 601//272 567//272 565//272
f 601//272 565//272 566//272
f 563//466 665//466 666//466
f 563//467 666//467 564//467
f 601//272 570//272 571//272
f 601//272 571//272 567//272
f 574//272 601//272 576//272
f 601//272 574//272 575//272
f 601//272 575//272 573//272
f 601//272 573//272 572//272
f 601//272 572//272 570//272
o Gun_01_havok_s_gun_0
v -0.171782 1.227827 -2.209074
v -0.171782 1.227827 -0.992701
v 0.161696 1.227827 -0.992701
v 0.161696 1.227827 -2.209074
v 0.161696 1.561244 -2.209074
v 0.161696 1.561244 -0.992701
v -0.171782 1.561244 -0.992701
v -0.171782 1.561244 -2.209074
v 0.146330 1.243231 -2.345116
v -0.156415 1.243231 -2.345116
v 0.146330 1.545840 -2.345116
v 0.199215 1.598944 -0.736622
v 0.199215 1.598944 -0.016401
v -0.209300 1.598944 -0.016401
v -0.209300 1.598944 -0.736622
v 0.199215 1.190330 -0.016401
v -0.209300 1.190330 -0.016401
v 0.199215 1.190330 -0.736622
v -0.209300 1.190330 -0.736622
v -0.103929 1.327346 -7.402669
v 0.090051 1.327346 -7.402669
v -0.103929 1.517465 -7.402669
v -0.156415 1.545840 -2.345116
v 0.090051 1.517465 -7.402669
v 0.118390 1.546043 -7.434679
v 0.118390 1.294308 -7.434679
v -0.128675 1.294308 -7.434679
v -0.128675 1.546043 -7.434679
v 0.137748 1.275458 -7.658748
v 0.137748 1.565096 -7.658748
v -0.148233 1.565096 -7.658748
v -0.185153 1.235124 -7.866812
v -0.148233 1.275458 -7.658748
v 0.174668 1.235124 -7.866812
v -0.185153 1.605227 -7.866812
v 0.174668 1.605227 -7.866812
v 0.174668 1.605227 -7.898822
v 0.174668 1.235124 -7.898822
v -0.185153 1.605227 -7.898822
v 0.153314 1.258433 -8.162903
v 0.153314 1.258433 -7.930831
v 0.153314 1.582121 -7.930831
v 0.153314 1.582121 -8.162903
v -0.163599 1.582121 -7.930831
v -0.163599 1.582121 -8.162903
v -0.163599 1.258433 -8.162903
v -0.163599 1.258433 -7.930831
v -0.185153 1.235124 -7.898822
v 0.070693 1.499426 -8.202915
v -0.081178 1.499426 -8.202915
v -0.081178 1.344574 -8.202915
v 0.070693 1.344574 -8.202915
vn -0.0000 -0.9819 -0.1894
vn -1.0000 -0.0000 -0.0000
vn -0.9846 -0.0000 -0.1747
vn -0.8319 -0.0000 0.5550
vn -0.0000 -1.0000 -0.0000
vn -0.0000 0.9817 -0.1903
vn -0.0000 -0.7459 -0.6660
vn -0.0000 -0.7460 -0.6660
vn -0.0000 0.6958 -0.7182
vn -0.0000 0.6959 -0.7182
vn 0.9962 -0.0000 -0.0870
vn 0.9846 -0.0000 -0.1747
vn -0.0000 0.9965 -0.0838
vn -0.0000 -0.0000 1.0000
vn -0.0000 -0.4355 0.9002
vn -0.0000 -0.4356 0.9002
vn 1.0000 -0.0000 -0.0000
vn -0.0000 0.4213 0.9069
vn -0.4359 -0.0000 0.9000
vn 0.4367 -0.0000 0.8996
vn -0.0000 0.8084 0.5887
vn -0.0000 1.0000 -0.0000
vn -0.0000 -0.8108 0.5853
vn 0.8295 -0.0000 0.5585
vn -0.0000 -0.0000 -1.0000
vn -0.0000 -0.9893 0.1456
vn -0.9937 -0.0000 0.1122
vn -0.0000 0.9937 0.1125
vn -0.9894 -0.0000 0.1450
vn -0.0000 -0.9937 0.1125
vn 0.7911 -0.0000 -0.6116
vn -0.7487 -0.0000 -0.6629
vn -0.0000 -0.9964 -0.0847
vn -0.9963 -0.0000 -0.0861
vn 0.9937 -0.0000 0.1122
vn -0.0000 0.9999 0.0166
vn 0.9894 -0.0000 0.1450
vn -0.0000 0.9894 0.1449
vn -0.0000 -1.0000 0.0056
vn -0.9999 -0.0000 0.0111
vn 0.9999 -0.0000 0.0104
s 0
f 703//468 707//468 708//468
f 703//468 708//468 702//468
f 708//469 709//469 710//469
f 708//469 710//469 706//469
f 702//470 708//470 706//470
f 702//470 706//470 701//470
f 709//471 714//471 713//471
f 709//471 713//471 710//471
f 714//469 715//469 712//469
f 714//469 712//469 713//469
f 707//472 711//472 709//472
f 707//472 709//472 708//472
f 701//473 706//473 704//473
f 701//473 704//473 705//473
f 700//474 697//474 696//474
f 700//475 696//475 694//475
f 693//476 698//476 699//476
f 693//477 699//477 692//477
f 699//478 705//478 703//478
f 699//478 703//478 700//478
f 705//479 704//479 707//479
f 705//479 707//479 703//479
f 698//480 701//480 705//480
f 698//480 705//480 699//480
f 714//472 716//472 717//472
f 714//472 717//472 715//472
f 722//481 723//481 724//481
f 722//481 724//481 721//481
f 717//482 722//482 721//482
f 717//483 721//483 715//483
f 704//484 720//484 711//484
f 704//484 711//484 707//484
f 712//485 724//485 723//485
f 712//485 723//485 718//485
f 715//486 721//486 724//486
f 715//486 724//486 712//486
f 723//487 722//487 717//487
f 723//487 717//487 718//487
f 719//488 720//488 710//488
f 719//488 710//488 713//488
f 718//489 719//489 713//489
f 718//489 713//489 712//489
f 711//490 716//490 714//490
f 711//490 714//490 709//490
f 720//491 719//491 716//491
f 720//491 716//491 711//491
f 716//484 719//484 718//484
f 716//484 718//484 717//484
f 706//489 710//489 720//489
f 706//489 720//489 704//489
f 688//489 690//489 691//489
f 688//489 691//489 689//489
f 688//492 689//492 686//492
f 688//492 686//492 685//492
f 686//472 687//472 684//472
f 686//472 684//472 685//472
f 678//493 684//493 687//493
f 678//493 687//493 679//493
f 689//484 691//484 687//484
f 689//484 687//484 686//484
f 690//469 688//469 685//469
f 690//469 685//469 684//469
f 678//469 677//469 676//469
f 678//469 676//469 675//469
f 679//472 680//472 677//472
f 679//472 677//472 678//472
f 675//489 676//489 673//489
f 675//489 673//489 674//489
f 677//494 683//494 681//494
f 677//494 681//494 676//494
f 676//495 681//495 682//495
f 676//495 682//495 673//495
f 680//484 679//484 674//484
f 680//484 674//484 673//484
f 675//496 690//496 684//496
f 675//496 684//496 678//496
f 680//497 695//497 683//497
f 680//497 683//497 677//497
f 692//498 699//498 700//498
f 692//498 700//498 694//498
f 697//499 698//499 693//499
f 697//499 693//499 696//499
f 700//500 703//500 702//500
f 700//500 702//500 697//500
f 697//501 702//501 701//501
f 697//501 701//501 698//501
f 673//502 682//502 695//502
f 673//502 695//502 680//502
f 681//503 693//503 692//503
f 681//503 692//503 682//503
f 679//504 687//504 691//504
f 679//504 691//504 674//504
f 674//505 691//505 690//505
f 674//505 690//505 675//505
f 694//506 696//506 683//506
f 694//506 683//506 695//506
f 683//507 696//507 693//507
f 683//507 693//507 681//507
f 692//508 694//508 695//508
f 692//508 695//508 682//508
o Gun_01_havok_s_armor_4_1
v -1.251843 1.200668 -1.698287
v 1.269301 1.200668 -1.698287
v 1.267912 1.025619 -1.528283
v -1.251843 1.025247 -1.529197
v 1.268549 0.952346 -1.527809
v -1.251092 0.952346 -1.527809
v 1.230960 0.925429 -1.528136
v -1.213502 0.925429 -1.528136
v -1.251843 1.334365 -1.754987
v 1.269301 1.334365 -1.754987
v -1.251843 1.591097 -1.706000
v -1.250325 1.740199 -1.566294
v 1.267782 1.740199 -1.566294
v 1.269301 1.591097 -1.706000
v 1.260424 1.872838 -1.550422
v -1.242966 1.872838 -1.550422
v 1.269301 1.459781 -1.759574
v -1.251843 1.459781 -1.759574
vn -0.0000 0.1188 -0.9929
vn -0.0000 0.6837 -0.7297
vn -0.0000 -0.0365 -0.9993
vn -0.0000 0.3777 -0.9259
vn -0.0000 -0.0065 -1.0000
vn 0.0004 -0.0190 -0.9998
vn 0.0004 -0.6940 -0.7200
vn -0.0000 -0.6967 -0.7174
vn -0.0000 -0.3904 -0.9206
vn -0.0000 0.0121 -0.9999
s 0
f 736//509 740//509 739//509
f 736//509 739//509 737//509
f 737//510 738//510 735//510
f 737//510 735//510 736//510
f 742//511 741//511 734//511
f 742//511 734//511 733//511
f 741//512 742//512 735//512
f 741//512 735//512 738//512
f 727//513 729//513 730//513
f 727//514 730//514 728//514
f 727//515 728//515 725//515
f 727//516 725//516 726//516
f 733//517 734//517 726//517
f 733//517 726//517 725//517
f 729//518 731//518 732//518
f 729//518 732//518 730//518
o Gun_01_havok_s_armor_1_2
v 1.132209 0.954106 -2.054431
v 1.132209 1.179920 -1.997421
v -1.114752 0.954106 -2.054431
v -1.114752 1.179920 -1.997421
v 1.132209 1.328123 -2.031378
v -1.114752 1.328123 -2.031378
v 1.132209 1.495620 -2.031378
v 1.152281 1.646454 -1.974991
v -1.134824 1.646454 -1.974991
v -1.114752 1.495620 -2.031378
v 1.217223 1.851660 -1.735734
v -1.199765 1.851660 -1.735734
v 1.185342 1.767034 -1.869070
v -1.163162 1.767034 -1.871874
v 0.233528 1.179467 -2.010710
v 0.136971 1.107671 -2.029839
v -0.142348 1.106554 -2.030107
v -0.247804 1.179465 -2.010572
v -0.005032 1.077544 -2.029901
v 0.291036 1.290565 -2.022788
v -0.301232 1.286959 -2.022322
v 1.273463 0.992680 -1.950761
v 1.273463 1.180195 -1.896170
v 1.273463 1.330797 -1.942497
v -1.256007 1.180195 -1.896170
v -1.256007 0.992679 -1.950761
v -1.256007 1.330797 -1.942497
v -0.232004 1.353547 -2.284652
v 0.073750 1.176941 -2.284652
v 0.143074 1.216948 -2.284652
v 0.194534 1.278251 -2.284652
v -0.005078 1.163058 -2.284652
v -0.083898 1.176972 -2.284652
v -0.153207 1.217005 -2.284652
v -0.204643 1.278329 -2.284652
v -1.256007 0.966536 -1.937255
v -1.251092 0.952346 -1.527809
v -1.213503 0.925429 -1.528136
v -1.114512 0.925429 -2.031874
v 1.273463 0.966536 -1.937255
v 1.131969 0.925429 -2.031874
v 1.230959 0.925429 -1.528136
v 1.268550 0.952346 -1.527809
v 0.254133 1.585972 -1.976019
v 0.292426 1.488995 -2.007636
v 0.306203 1.383958 -2.025646
v 1.273463 1.480266 -1.944006
v 1.273463 1.606400 -1.920316
v 0.143143 1.570040 -2.284651
v 0.073834 1.610074 -2.284651
v 0.194579 1.508717 -2.284651
v -0.004986 1.623989 -2.284651
v -0.083814 1.610105 -2.284651
v -0.153137 1.570098 -2.284651
v -0.204599 1.508794 -2.284652
v -0.231988 1.433587 -2.284652
v 0.221939 1.433499 -2.284652
v 0.221924 1.353459 -2.284652
v -0.264433 1.585703 -1.976193
v -0.302622 1.488727 -2.007738
v -0.202238 1.674371 -1.941191
v -0.316278 1.384501 -2.025635
v -1.256007 1.606398 -1.903076
v -1.256007 1.480264 -1.944006
v -0.002768 1.762791 -1.870488
v 1.260424 1.872838 -1.550422
v -1.242966 1.872838 -1.550422
v -0.116885 1.713299 -1.914526
v -1.256007 1.811309 -1.711923
v -1.256007 1.726906 -1.813222
v 0.106623 1.713746 -1.914249
v 0.191836 1.674644 -1.940962
v 1.273463 1.726906 -1.834516
v 1.273463 1.811309 -1.711923
vn -0.0095 0.0325 0.9994
vn -0.0072 -0.0000 1.0000
vn -0.0301 -0.1653 0.9858
vn -0.0233 -0.3529 0.9354
vn 0.0024 -0.8446 0.5355
vn -0.0000 -0.8348 0.5505
vn 0.5327 0.0085 0.8463
vn 0.5260 -0.0000 0.8505
vn 0.5546 -0.2568 0.7915
vn 0.5297 -0.2343 0.8152
vn -0.0000 -0.0000 1.0000
vn -0.0303 -0.2984 0.9540
vn -0.0233 -0.3528 0.9354
vn 0.0227 -0.3537 0.9351
vn 0.0015 -0.6639 0.7478
vn 0.0072 -0.6611 0.7503
vn -0.0060 -0.5730 0.8195
vn -0.5040 -0.5009 0.7036
vn -0.4880 -0.4967 0.7177
vn -0.6299 -0.7413 0.2316
vn -0.5150 -0.6627 0.5437
vn -0.6391 -0.6335 0.4361
vn -0.0080 -0.6510 0.7590
vn 0.0041 -0.5713 0.8208
vn -0.0037 -0.8497 0.5272
vn -0.0033 -0.6605 0.7508
vn -0.0000 -0.9935 0.1135
vn 0.6075 -0.4748 0.6368
vn 0.5607 -0.4581 0.6897
vn 0.6299 -0.7413 0.2316
vn 0.6351 -0.5934 0.4945
vn 0.5963 -0.6001 0.5333
vn 0.5655 0.2425 0.7883
vn 0.5254 0.1900 0.8293
vn 0.5666 -0.2303 0.7911
vn 0.5419 -0.2057 0.8149
vn -0.5655 0.2425 0.7883
vn -0.5254 0.1900 0.8293
vn -0.0000 -0.1949 0.9808
vn 0.0141 -0.0684 0.9976
vn 0.0134 -0.2406 0.9705
vn 0.0146 -0.2448 0.9695
vn -0.0132 -0.2408 0.9705
vn -0.0142 -0.2448 0.9695
vn -0.5666 -0.2303 0.7911
vn -0.5419 -0.2057 0.8149
vn 0.0005 0.2233 0.9747
vn 0.0151 0.1161 0.9931
vn -0.0000 0.2233 0.9747
vn -0.0147 0.1156 0.9932
vn 0.0089 0.0291 0.9995
vn 0.0069 -0.0000 1.0000
vn 0.0292 -0.1652 0.9858
vn 0.0293 -0.2994 0.9537
vn 0.0227 -0.3527 0.9355
vn -0.5327 0.0085 0.8463
vn -0.5260 -0.0000 0.8505
vn -0.5297 -0.2343 0.8152
vn -0.4504 -0.1648 0.8775
vn -0.3166 0.9465 0.0622
vn -0.5822 0.8128 0.0212
vn 0.5883 0.3712 0.7185
vn 0.5972 0.4990 0.6280
vn 0.5822 0.8128 0.0212
vn 0.3166 0.9465 0.0622
vn -0.0000 0.6182 0.7860
vn -0.0150 -0.0637 0.9979
vn -0.5883 0.3712 0.7185
vn -0.5972 0.4990 0.6280
s 0
f 763//519 804//519 748//519
f 752//520 748//520 804//520
f 752//521 804//521 802//521
f 803//522 751//522 801//522
f 807//523 755//523 753//523
f 807//524 753//524 754//524
f 806//525 769//525 748//525
f 806//526 748//526 752//526
f 751//527 805//527 806//527
f 751//528 806//528 752//528
f 797//529 798//529 770//529
f 797//529 770//529 796//529
f 796//529 770//529 795//529
f 794//529 795//529 770//529
f 794//529 770//529 792//529
f 752//530 802//530 801//530
f 752//531 801//531 751//531
f 800//529 770//529 773//529
f 770//529 800//529 799//529
f 770//529 799//529 793//529
f 750//532 814//532 786//532
f 807//533 813//533 755//533
f 814//534 750//534 755//534
f 814//535 755//535 813//535
f 790//536 815//536 755//536
f 790//537 755//537 750//537
f 816//538 808//538 753//538
f 753//539 755//539 815//539
f 753//540 815//540 816//540
f 756//541 751//541 803//541
f 756//542 803//542 810//542
f 807//543 754//543 756//543
f 807//544 756//544 810//544
f 808//545 809//545 754//545
f 808//545 754//545 753//545
f 756//546 812//546 805//546
f 756//547 805//547 751//547
f 809//548 811//548 754//548
f 754//549 811//549 812//549
f 754//550 812//550 756//550
f 769//551 767//551 746//551
f 769//552 746//552 748//552
f 746//553 767//553 768//553
f 746//554 768//554 745//554
f 744//555 765//555 766//555
f 744//556 766//556 747//556
f 770//529 777//529 776//529
f 770//529 776//529 775//529
f 770//529 775//529 774//529
f 770//529 774//529 771//529
f 772//529 773//529 770//529
f 772//529 770//529 771//529
f 761//557 745//557 743//557
f 761//558 743//558 758//558
f 745//559 759//559 760//559
f 745//560 760//560 746//560
f 757//561 758//561 743//561
f 757//562 743//562 744//562
f 764//563 765//563 744//563
f 764//564 744//564 743//564
f 763//565 748//565 746//565
f 763//566 746//566 760//566
f 744//567 747//567 762//567
f 744//568 762//568 757//568
f 788//569 762//569 747//569
f 788//570 747//570 749//570
f 788//571 749//571 787//571
f 786//572 787//572 749//572
f 786//573 749//573 750//573
f 770//529 793//529 791//529
f 770//529 791//529 792//529
f 747//574 766//574 789//574
f 747//575 789//575 749//575
f 750//576 749//576 789//576
f 750//577 789//577 790//577
f 782//578 783//578 784//578
f 782//579 784//579 785//579
f 768//580 778//580 781//580
f 768//581 781//581 745//581
f 778//582 779//582 780//582
f 778//583 780//583 781//583
f 781//584 783//584 743//584
f 781//584 743//584 745//584
f 759//585 745//585 761//585
f 783//586 782//586 764//586
f 783//587 764//587 743//587
o Gun_01_havok_s_armor_2_3
v -0.142348 1.106553 -2.030107
v -0.083898 1.176972 -2.284652
v -0.153207 1.217005 -2.284652
v -0.247804 1.179465 -2.010572
v -0.204643 1.278329 -2.284651
v -0.301231 1.286958 -2.022322
v -0.316279 1.384501 -2.025635
v -0.232004 1.353547 -2.284651
v -0.231988 1.433587 -2.284651
v -0.302623 1.488727 -2.007738
v 0.073749 1.176941 -2.284652
v -0.005077 1.163058 -2.284652
v -0.005032 1.077544 -2.029901
v 0.136971 1.107671 -2.029839
v 0.233528 1.179467 -2.010710
v 0.143074 1.216948 -2.284651
v 0.291036 1.290565 -2.022788
v 0.194534 1.278251 -2.284651
v 0.306202 1.383959 -2.025646
v 0.292427 1.488995 -2.007636
v 0.221939 1.433498 -2.284651
v 0.221924 1.353459 -2.284651
v 0.194579 1.508717 -2.284651
v 0.254133 1.585972 -1.976019
v 0.143143 1.570040 -2.284651
v 0.191836 1.674644 -1.940961
v 0.073835 1.610073 -2.284651
v 0.106623 1.713746 -1.914249
v -0.116885 1.713299 -1.914526
v -0.083814 1.610105 -2.284651
v -0.004987 1.623989 -2.284651
v -0.002768 1.762790 -1.870488
v -0.202238 1.674371 -1.941191
v -0.153137 1.570098 -2.284651
v -0.264433 1.585703 -1.976193
v -0.204598 1.508794 -2.284651
vn -0.4743 -0.8212 0.3171
vn -0.3259 -0.9025 0.2815
vn 0.2779 -0.9113 0.3039
vn 0.1666 -0.9458 0.2786
vn -0.7242 -0.6245 0.2927
vn -0.8922 0.3249 0.3135
vn -0.9438 0.1621 0.2880
vn -0.8608 -0.4291 0.2735
vn -0.7321 -0.6140 0.2950
vn 0.8612 -0.4282 0.2738
vn 0.7318 -0.6143 0.2951
vn 0.8980 -0.3271 0.2942
vn 0.7245 -0.6239 0.2930
vn -0.2849 -0.9084 0.3060
vn -0.1669 -0.9455 0.2794
vn 0.3243 -0.9033 0.2808
vn 0.4740 -0.8214 0.3171
vn 0.8911 0.3242 0.3175
vn 0.9447 0.1555 0.2888
vn -0.1979 0.9323 0.3026
vn -0.1647 0.9351 0.3139
vn 0.9509 -0.0002 0.3094
vn 0.9460 -0.1712 0.2754
vn 0.5793 0.7565 0.3035
vn 0.4714 0.8162 0.3340
vn 0.7226 0.6061 0.3324
vn 0.8423 0.4509 0.2953
vn -0.9461 -0.1712 0.2750
vn -0.9509 0.0002 0.3094
vn -0.8982 -0.3267 0.2940
vn -0.7250 0.6086 0.3226
vn -0.8377 0.4648 0.2868
vn 0.1651 0.9350 0.3138
vn 0.1965 0.9325 0.3031
vn -0.4704 0.8151 0.3383
vn -0.6067 0.7357 0.3010
s 0
f 843//588 841//588 842//588
f 843//589 842//589 844//589
f 847//590 848//590 845//590
f 847//591 845//591 846//591
f 840//592 842//592 841//592
f 838//593 834//593 833//593
f 838//594 833//594 835//594
f 839//595 836//595 840//595
f 839//596 840//596 841//596
f 851//597 826//597 852//597
f 851//598 852//598 850//598
f 825//599 852//599 826//599
f 850//600 849//600 851//600
f 844//601 848//601 847//601
f 844//602 847//602 843//602
f 846//603 845//603 849//603
f 846//604 849//604 850//604
f 822//605 821//605 824//605
f 822//606 824//606 823//606
f 829//607 830//607 827//607
f 829//608 827//608 828//608
f 823//609 824//609 825//609
f 823//610 825//610 826//610
f 819//611 820//611 817//611
f 819//612 817//612 818//612
f 820//613 819//613 821//613
f 820//614 821//614 822//614
f 835//615 836//615 837//615
f 835//616 837//616 838//616
f 837//617 836//617 839//617
f 834//618 832//618 831//618
f 834//619 831//619 833//619
f 829//620 828//620 818//620
f 829//621 818//621 817//621
f 832//622 827//622 830//622
f 832//623 830//623 831//623
o Gun_01_havok_s_armor_3_4
v -1.114512 0.925429 -2.031874
v -1.213503 0.925429 -1.528136
v 1.230959 0.925429 -1.528136
v 1.131969 0.925429 -2.031874
v 1.267913 1.025619 -1.528283
v 1.269301 1.200668 -1.698287
v 1.273463 0.966536 -1.937255
v 1.268550 0.952346 -1.527809
v 1.273463 1.180195 -1.896170
v 1.273463 0.992680 -1.950761
v 1.269301 1.334365 -1.754987
v 1.273463 1.330797 -1.942497
v -1.251843 1.025247 -1.529197
v -1.251092 0.952346 -1.527809
v -1.256007 0.966536 -1.937255
v -1.251843 1.200668 -1.698287
v -1.256007 0.992679 -1.950761
v -1.256007 1.180195 -1.896170
v -1.251843 1.334365 -1.754987
v -1.256007 1.330797 -1.942497
v -1.251843 1.459781 -1.759574
v -1.256007 1.480264 -1.944006
v 1.267781 1.740199 -1.566294
v 1.260424 1.872838 -1.550422
v 1.273463 1.811309 -1.711923
v 1.269301 1.591097 -1.706000
v 1.273463 1.726906 -1.834516
v 1.273463 1.606400 -1.920316
v 1.273463 1.480266 -1.944006
v 1.269301 1.459781 -1.759574
v -1.251843 1.591097 -1.706000
v -1.256007 1.606398 -1.903076
v -1.256007 1.726906 -1.813222
v -1.256007 1.811309 -1.711923
v -1.250325 1.740199 -1.566294
v -1.242966 1.872838 -1.550422
vn -0.9997 0.0042 -0.0221
vn -0.9998 0.0077 -0.0189
vn -0.9997 0.0132 -0.0185
vn -0.9997 0.0186 -0.0128
vn -0.9994 0.0181 -0.0302
vn -0.9969 -0.0478 -0.0623
vn -0.9997 -0.0002 -0.0226
vn -0.9998 -0.0008 -0.0222
vn 0.9994 0.0181 -0.0302
vn 0.9969 -0.0479 -0.0623
vn 0.9998 0.0084 -0.0205
vn 0.9997 0.0071 -0.0218
vn 0.9997 0.0185 -0.0154
vn 0.9997 0.0149 -0.0200
vn 0.9997 -0.0002 -0.0226
vn 0.9998 -0.0008 -0.0222
vn -0.9997 0.0063 -0.0217
vn -0.9999 -0.0060 -0.0116
vn -0.9999 -0.0088 -0.0123
vn -0.9999 -0.0046 -0.0129
vn -0.0000 1.0000 -0.0000
vn -0.9997 -0.0068 -0.0221
vn -0.9998 -0.0085 -0.0201
vn 0.9997 -0.0068 -0.0221
vn 0.9998 -0.0085 -0.0202
vn 0.9997 0.0063 -0.0217
vn 0.9999 -0.0060 -0.0116
vn 0.9999 -0.0086 -0.0090
vn 0.9999 0.0101 -0.0117
s 0
f 880//624 881//624 882//624
f 880//625 882//625 878//625
f 879//626 880//626 878//626
f 879//627 878//627 877//627
f 877//628 878//628 875//628
f 877//629 875//629 876//629
f 882//630 881//630 864//630
f 882//631 864//631 863//631
f 887//632 883//632 886//632
f 887//633 886//633 888//633
f 884//634 883//634 873//634
f 884//635 873//635 874//635
f 885//636 886//636 883//636
f 885//637 883//637 884//637
f 872//638 874//638 873//638
f 872//639 873//639 871//639
f 858//640 861//640 862//640
f 858//641 862//641 859//641
f 859//642 860//642 857//642
f 859//643 857//643 858//643
f 855//644 856//644 853//644
f 855//644 853//644 854//644
f 863//645 864//645 861//645
f 863//646 861//646 858//646
f 870//647 872//647 871//647
f 870//648 871//648 868//648
f 869//649 870//649 868//649
f 869//650 868//650 867//650
f 867//651 868//651 865//651
f 867//652 865//652 866//652
