# Blender 5.1.0
# www.blender.org
o Chassis_havok_s_leftTrack_0
v -1.564312 0.003956 -1.504981
v -1.564312 0.896578 -1.569522
v -1.564312 0.896578 1.722046
v -1.564312 0.003956 1.583035
v -1.079311 0.003956 1.583035
v -1.079311 0.003956 -1.504981
v -1.079311 0.896578 1.722046
v -1.079311 0.896578 -1.569522
v -1.564312 0.412112 2.486603
v -1.079311 0.412112 2.486603
v -1.079311 0.358040 -2.358902
v -1.079311 0.875647 -2.284433
v -1.564312 0.875647 -2.284433
v -1.564312 0.866054 2.367451
v -1.564312 0.802825 2.506462
v -1.079311 0.866054 2.367451
v -1.079311 0.802825 2.506462
v -1.079311 0.691629 2.580931
v -1.564312 0.691629 2.580931
v -1.079311 0.525488 2.575967
v -1.564312 0.525488 2.575967
v -1.564312 0.358040 -2.358902
v -1.079311 0.696861 -2.492948
v -1.079311 0.509790 -2.497913
v -1.079311 0.825936 -2.408549
v -1.564312 0.825936 -2.408549
v -1.564312 0.696861 -2.492948
v -1.564312 0.509790 -2.497913
vn -0.0000 0.9237 0.3830
vn 1.0000 -0.0000 -0.0000
vn -1.0000 -0.0000 -0.0000
vn -0.0000 -0.9103 -0.4140
vn -0.0000 0.6755 0.7374
vn -0.0000 -0.0265 0.9996
vn -0.0000 -0.9283 0.3718
vn -0.0000 -0.5473 0.8370
vn -0.0000 0.9113 -0.4117
vn -0.0000 -1.0000 -0.0000
vn -0.0000 1.0000 -0.0000
vn -0.0000 0.0299 -0.9996
vn -0.0000 0.6190 -0.7854
vn -0.0000 -0.5565 -0.8309
vn -0.0000 -0.9996 0.0293
vn -0.0000 -0.9989 -0.0472
s 0
f 6//1 11//1 22//1
f 6//1 22//1 1//1
f 22//2 13//2 2//2
f 22//2 2//2 1//2
f 11//3 25//3 23//3
f 11//3 23//3 24//3
f 10//3 17//3 16//3
f 10//3 16//3 7//3
f 15//2 19//2 21//2
f 15//2 21//2 9//2
f 16//4 17//4 15//4
f 16//4 15//4 14//4
f 5//3 10//3 7//3
f 11//5 24//5 28//5
f 11//5 28//5 22//5
f 22//2 28//2 27//2
f 22//2 27//2 26//2
f 26//2 13//2 22//2
f 27//6 28//6 24//6
f 27//6 24//6 23//6
f 25//3 11//3 12//3
f 13//7 26//7 25//7
f 13//7 25//7 12//7
f 26//8 27//8 23//8
f 26//8 23//8 25//8
f 4//9 9//9 10//9
f 4//9 10//9 5//9
f 4//2 3//2 9//2
f 8//3 12//3 11//3
f 8//3 11//3 6//3
f 8//10 7//10 3//10
f 8//10 3//10 2//10
f 3//2 4//2 1//2
f 3//2 1//2 2//2
f 5//11 6//11 1//11
f 5//11 1//11 4//11
f 7//3 8//3 6//3
f 7//3 6//3 5//3
f 18//12 20//12 21//12
f 18//12 21//12 19//12
f 20//3 18//3 17//3
f 20//3 17//3 10//3
f 9//13 21//13 20//13
f 9//13 20//13 10//13
f 17//14 18//14 19//14
f 17//14 19//14 15//14
f 2//15 13//15 12//15
f 2//15 12//15 8//15
f 14//2 15//2 9//2
f 14//2 9//2 3//2
f 7//16 16//16 14//16
f 7//16 14//16 3//16
o Chassis_havok_s_rightTrack_1
v 1.079365 0.896578 1.722046
v 1.079365 0.003956 1.583035
v 1.079365 0.003956 -1.504981
v 1.079365 0.896578 -1.569522
v 1.564366 0.003956 1.583035
v 1.564366 0.003956 -1.504981
v 1.564366 0.896578 -1.569522
v 1.564366 0.896578 1.722046
v 1.564366 0.412112 2.486603
v 1.079365 0.412112 2.486603
v 1.564366 0.875647 -2.284433
v 1.564366 0.358040 -2.358902
v 1.079365 0.875647 -2.284433
v 1.079365 0.866054 2.367451
v 1.079365 0.802825 2.506462
v 1.564366 0.866054 2.367451
v 1.564366 0.802825 2.506462
v 1.079365 0.525488 2.575967
v 1.564366 0.525488 2.575967
v 1.564366 0.691629 2.580931
v 1.079365 0.691629 2.580931
v 1.079365 0.358040 -2.358902
v 1.564366 0.696861 -2.492948
v 1.564366 0.509790 -2.497913
v 1.564366 0.825936 -2.408549
v 1.079365 0.825936 -2.408549
v 1.079365 0.696861 -2.492948
v 1.079365 0.509790 -2.497913
vn -0.0000 0.9237 0.3830
vn 1.0000 -0.0000 -0.0000
vn -1.0000 -0.0000 -0.0000
vn -0.0000 0.9113 -0.4117
vn -0.0000 0.0299 -0.9996
vn -0.0000 -0.9103 -0.4140
vn -0.0000 0.6755 0.7374
vn -0.0000 -0.0265 0.9996
vn -0.0000 -0.9283 0.3718
vn -0.0000 -0.5473 0.8370
vn -0.0000 1.0000 -0.0000
vn -0.0000 -1.0000 -0.0000
vn -0.0000 0.6190 -0.7854
vn -0.0000 -0.5565 -0.8309
vn -0.0000 -0.9996 0.0293
vn -0.0000 -0.9989 -0.0472
s 0
f 34//17 40//17 50//17
f 34//17 50//17 31//17
f 50//18 41//18 32//18
f 50//18 32//18 31//18
f 40//19 53//19 51//19
f 40//19 51//19 52//19
f 30//20 38//20 37//20
f 30//20 37//20 33//20
f 46//21 49//21 48//21
f 46//21 48//21 47//21
f 43//18 49//18 46//18
f 43//18 46//18 38//18
f 44//22 45//22 43//22
f 44//22 43//22 42//22
f 40//23 52//23 56//23
f 40//23 56//23 50//23
f 50//18 56//18 55//18
f 50//18 55//18 54//18
f 54//18 41//18 50//18
f 55//24 56//24 52//24
f 55//24 52//24 51//24
f 53//19 40//19 39//19
f 41//25 54//25 53//25
f 41//25 53//25 39//25
f 54//26 55//26 51//26
f 54//26 51//26 53//26
f 33//19 37//19 36//19
f 30//18 29//18 38//18
f 35//19 39//19 40//19
f 35//19 40//19 34//19
f 36//19 35//19 34//19
f 36//19 34//19 33//19
f 31//18 32//18 29//18
f 31//18 29//18 30//18
f 33//27 34//27 31//27
f 33//27 31//27 30//27
f 35//28 36//28 29//28
f 35//28 29//28 32//28
f 38//29 46//29 47//29
f 38//29 47//29 37//29
f 47//19 48//19 45//19
f 47//19 45//19 37//19
f 45//30 48//30 49//30
f 45//30 49//30 43//30
f 37//19 45//19 44//19
f 37//19 44//19 36//19
f 32//31 41//31 39//31
f 32//31 39//31 35//31
f 42//18 43//18 38//18
f 42//18 38//18 29//18
f 36//32 44//32 42//32
f 36//32 42//32 29//32
o Turret_01_havok_s_armor_6_0
v -1.142218 1.319882 1.120357
v -0.662341 1.319882 0.066251
v -0.640022 1.319882 2.184817
v 0.662341 1.319882 0.066251
v 0.640022 1.319882 2.184817
v 1.142218 1.319882 1.120357
v -1.233988 1.332327 1.119477
v -0.715220 1.332327 -0.018702
v -0.826754 1.336439 0.759724
v -0.904995 1.336439 1.127819
v -0.826754 1.336439 1.495914
v -0.605560 1.336439 0.455277
v -0.279658 1.336439 0.267118
v -0.690926 1.332327 2.270078
v -0.605560 1.336439 1.800362
v 0.094598 1.336439 0.227782
v 0.715219 1.332327 -0.018702
v 0.452498 1.336439 0.344071
v 0.732156 1.336439 0.595876
v 0.094597 1.336439 2.027857
v -0.279658 1.336439 1.988521
v 0.690926 1.332327 2.270078
v 0.452497 1.336439 1.911569
v 0.732156 1.336439 1.659763
v 1.233988 1.332327 1.119477
v 0.885219 1.336439 0.939660
v 0.885219 1.336439 1.315980
vn -0.0236 0.9989 0.0409
vn 0.0161 0.9986 0.0495
vn 0.0337 0.9987 0.0374
vn -0.0074 0.9975 0.0705
vn -0.0000 0.9945 0.1049
vn -0.0000 0.9895 -0.1444
vn -0.1350 0.9888 -0.0637
vn -0.1347 0.9888 -0.0636
vn -0.1344 0.9890 0.0612
vn -0.1336 0.9892 0.0608
vn 0.0933 0.9948 -0.0415
vn 0.0961 0.9944 -0.0438
vn 0.1057 0.9931 0.0499
vn 0.0969 0.9944 0.0431
vn 0.0643 0.9979 -0.0000
vn -0.0692 0.9975 -0.0147
vn -0.0701 0.9974 0.0149
vn -0.0487 0.9982 -0.0354
vn -0.0226 0.9990 -0.0392
vn 0.1344 0.9890 0.0612
vn 0.1336 0.9892 0.0608
vn -0.1087 0.9928 -0.0495
vn 0.1350 0.9888 -0.0637
vn 0.1347 0.9888 -0.0636
vn -0.0000 0.9894 0.1449
vn 0.0155 0.9987 -0.0478
vn 0.0319 0.9989 -0.0354
vn -0.1187 0.9914 0.0560
vn -0.0527 0.9979 0.0383
vn -0.0072 0.9976 -0.0685
vn -0.0000 0.9948 -0.1020
s 0
f 59//33 77//33 71//33
f 79//34 76//34 61//34
f 79//35 61//35 80//35
f 76//36 77//36 59//36
f 76//37 59//37 61//37
f 70//38 78//38 61//38
f 70//38 61//38 59//38
f 61//39 78//39 81//39
f 61//40 81//40 62//40
f 81//41 73//41 60//41
f 81//42 60//42 62//42
f 75//43 82//43 62//43
f 75//44 62//44 60//44
f 61//45 62//45 80//45
f 83//46 80//46 62//46
f 83//47 62//47 82//47
f 66//48 65//48 57//48
f 66//49 57//49 67//49
f 58//50 65//50 68//50
f 58//51 68//51 69//51
f 58//52 64//52 63//52
f 58//53 63//53 57//53
f 58//54 57//54 65//54
f 63//55 70//55 59//55
f 63//56 59//56 57//56
f 73//57 64//57 58//57
f 73//57 58//57 60//57
f 60//58 72//58 74//58
f 60//59 74//59 75//59
f 67//60 57//60 59//60
f 67//61 59//61 71//61
f 58//62 69//62 72//62
f 58//63 72//63 60//63
o Turret_01_havok_s_armor_1_1
v -0.336388 1.453112 0.082684
v -0.336059 1.472908 0.099286
v 0.338107 1.453112 0.082684
v 0.337777 1.472898 0.099270
v -0.715219 1.332327 -0.018701
v -0.643181 2.056465 0.589131
v -0.309402 2.027973 0.565214
v -0.309402 1.472958 0.099286
v -0.309402 2.056465 0.589131
v -0.287065 2.027973 0.565214
v -0.287065 2.056465 0.589131
v 0.715219 1.332327 -0.018701
v 0.309402 1.472748 0.099275
v 0.285855 1.472818 0.099278
v -0.285846 1.472888 0.099282
v 0.641532 2.056465 0.589131
v 0.309402 2.027973 0.565214
v 0.309402 2.056465 0.589131
v 0.287258 2.056465 0.589131
v 0.287258 2.027973 0.565214
vn 0.0003 -0.6424 0.7664
vn -0.0000 -0.6429 0.7659
vn -0.0018 -0.6402 0.7682
vn 0.0012 -0.6426 0.7662
vn -0.0017 -0.6123 0.7906
vn -0.0001 -0.6428 0.7661
vn 0.0036 -0.6428 0.7660
vn 0.0012 -0.6430 0.7659
vn -0.0002 -0.6426 0.7662
vn 0.0036 -0.6424 0.7664
vn -0.0000 -0.6454 0.7638
s 0
f 87//64 86//64 95//64
f 87//65 95//65 99//65
f 84//66 98//66 91//66
f 84//67 91//67 85//67
f 84//68 96//68 97//68
f 84//69 97//69 98//69
f 102//65 103//65 100//65
f 102//65 100//65 101//65
f 101//65 100//65 99//65
f 100//70 96//70 87//70
f 100//65 87//65 99//65
f 92//65 89//65 90//65
f 85//71 91//71 90//71
f 85//65 90//65 89//65
f 88//72 84//72 85//72
f 88//65 85//65 89//65
f 86//73 87//73 96//73
f 86//74 96//74 84//74
f 84//65 88//65 95//65
f 84//65 95//65 86//65
f 90//65 93//65 94//65
f 90//65 94//65 92//65
o Turret_01_havok_s_armor_2_2
v -0.309402 2.027973 0.565214
v -0.309402 1.472958 0.099286
v -0.309402 1.881151 0.060725
v -0.309402 2.026963 0.187335
v -0.309402 1.664230 0.022476
v 0.309402 2.027973 0.565214
v 0.309402 2.026963 0.187335
v 0.309402 1.881151 0.060725
v 0.309402 1.472748 0.099275
v 0.309402 1.664230 0.022476
v 0.285856 2.027973 0.565214
v 0.285856 1.881151 0.060725
v 0.285856 2.026963 0.187335
v -0.285847 2.027973 0.565214
v -0.285847 2.026963 0.187335
v -0.285847 1.881151 0.060725
vn -1.0000 -0.0000 -0.0000
vn 1.0000 -0.0000 -0.0000
s 0
f 112//75 111//75 113//75
f 114//76 115//76 116//76
f 117//75 118//75 119//75
f 106//76 107//76 104//76
f 106//76 104//76 105//76
f 108//76 106//76 105//76
f 111//75 112//75 109//75
f 111//75 109//75 110//75
o Turret_01_havok_s_armor_7_3
v 0.309402 2.026962 0.187335
v 0.285855 2.026962 0.187335
v 0.285855 1.881151 0.060725
v 0.309402 1.881151 0.060725
v 0.287258 2.027973 0.565214
v 0.285855 2.027972 0.565214
v 0.309402 2.027973 0.565214
v 0.285855 1.472818 0.099278
v 0.309402 1.472748 0.099275
v 0.309402 1.664230 0.022476
v 0.285855 1.664230 0.022476
v -0.309402 1.664230 0.022476
v -0.309402 1.472958 0.099286
v -0.285847 1.472888 0.099282
v -0.285847 1.664230 0.022476
v -0.309402 1.881151 0.060725
v -0.285847 1.881151 0.060725
v -0.285847 2.026962 0.187335
v -0.309402 2.026962 0.187335
v -0.287065 2.056465 0.819102
v -0.751114 2.056465 0.815931
v -0.643181 2.056465 0.589131
v -0.309402 2.056465 0.589131
v -0.287065 2.027973 0.565214
v -0.309402 2.027973 0.565214
v -0.285847 2.027972 0.565214
v -0.287065 2.056465 0.589131
v 0.287258 2.056465 0.819102
v 0.309402 2.056465 0.589131
v 0.641532 2.056465 0.589131
v 0.750154 2.056465 0.817380
v 0.287258 2.056465 0.589131
vn -0.0000 -1.0000 0.0027
vn -0.0000 -1.0000 -0.0000
vn -0.0000 -0.6556 0.7551
vn -0.0001 -1.0000 0.0027
vn 0.0001 -1.0000 0.0027
vn -0.0000 0.3724 0.9281
vn 0.0013 0.3723 0.9281
vn -0.0000 -0.1736 0.9848
vn -0.0000 0.3725 0.9280
vn 0.0013 0.3726 0.9280
s 0
f 143//77 144//77 138//77
f 143//77 138//77 137//77
f 141//78 142//78 139//78
f 141//78 139//78 140//78
f 137//79 138//79 135//79
f 137//79 135//79 136//79
f 145//80 143//80 137//80
f 151//78 148//78 147//78
f 149//78 150//78 147//78
f 149//78 147//78 148//78
f 146//78 139//78 142//78
f 126//77 124//77 120//77
f 120//81 124//81 125//81
f 120//77 125//77 121//77
f 122//79 123//79 120//79
f 122//79 120//79 121//79
f 129//82 130//82 127//82
f 129//83 127//83 128//83
f 134//84 136//84 135//84
f 134//84 135//84 131//84
f 133//85 134//85 131//85
f 133//86 131//86 132//86
f 130//84 129//84 123//84
f 130//84 123//84 122//84
o Turret_01_havok_s_armor_5_4
v -0.566870 0.547762 1.965999
v -1.014017 0.547762 0.985293
v 1.001913 0.547762 0.985293
v 0.554765 0.547762 1.965999
v 0.662372 0.547762 0.331703
v -0.674476 0.547762 0.331703
v -0.377190 0.668178 0.742200
v 0.365085 0.668178 0.742200
v 0.406185 0.547762 0.742200
v -0.418289 0.547762 0.742200
vn -0.0000 -0.0000 -1.0000
vn -0.0000 -1.0000 -0.0000
s 0
f 160//87 161//87 158//87
f 160//87 158//87 159//87
f 153//88 157//88 156//88
f 153//88 156//88 154//88
f 154//88 155//88 152//88
f 154//88 152//88 153//88
o Turret_01_havok_s_armor_8_5
v 0.370918 1.393418 2.138076
v 0.370918 1.393418 1.843157
v 0.370918 1.339452 1.920074
v 0.370918 1.339452 2.213107
v 0.370918 1.335182 1.758647
v 0.370918 1.378859 1.798513
v -0.384808 1.393418 2.138076
v -0.384808 1.339452 2.213107
v -0.384808 1.339452 1.920074
v -0.384808 1.393418 1.843157
v -0.384808 1.335182 1.758647
v -0.384808 1.378859 1.798513
v 0.370918 0.540779 1.535410
v 0.370918 0.540779 1.965999
v -0.384808 0.540779 1.965999
v -0.384808 0.540779 1.535410
v -0.462043 0.547761 0.877384
v -0.410168 0.668179 0.742200
v -0.410168 0.668179 0.775179
v 0.392387 1.246529 0.640974
v 0.392387 1.336219 0.355186
v 0.392387 0.736055 0.331703
v 0.392387 0.736055 0.740838
v 0.392387 1.383739 0.534816
v 0.392387 1.383739 0.365543
v 0.392387 1.383739 0.139760
v 0.392387 1.336029 0.139760
v 0.449939 0.547761 0.331703
v 0.449939 0.547761 0.877384
v 0.398064 0.668179 0.742200
v 0.398064 0.668179 0.331703
v 0.398064 0.668179 0.775179
v 0.408822 0.668179 0.331703
v 0.408822 0.668179 0.758151
v -0.405608 1.246529 0.640974
v -0.405608 0.736055 0.740838
v -0.405608 0.736055 0.331703
v -0.405608 1.336220 0.355186
v -0.405608 1.383739 0.534816
v -0.405608 1.383739 0.365543
v -0.405608 1.383739 0.139760
v -0.405608 1.336029 0.139760
v -0.462043 0.547761 0.331703
v -0.410168 0.668179 0.331703
v -0.422042 0.668179 0.331703
v -0.422042 0.668179 0.758151
vn -0.9184 -0.3956 -0.0000
vn -0.9719 -0.2353 -0.0000
vn -1.0000 -0.0000 -0.0000
vn 1.0000 -0.0000 -0.0000
vn 0.9184 -0.3956 -0.0000
vn 0.9719 -0.2353 -0.0000
s 0
f 191//89 190//89 193//89
f 194//90 195//90 184//90
f 194//90 184//90 183//90
f 187//91 188//91 182//91
f 187//91 182//91 186//91
f 191//89 192//89 189//89
f 191//89 189//89 190//89
f 198//92 199//92 196//92
f 198//92 196//92 197//92
f 204//93 205//93 179//93
f 204//93 179//93 178//93
f 197//94 207//94 206//94
f 197//94 206//94 198//94
f 199//92 201//92 200//92
f 199//92 200//92 196//92
f 199//92 203//92 202//92
f 199//92 202//92 201//92
f 170//92 171//92 168//92
f 170//92 168//92 169//92
f 172//92 173//92 171//92
f 172//92 171//92 170//92
f 164//91 165//91 162//91
f 164//91 162//91 163//91
f 163//91 167//91 166//91
f 163//91 166//91 164//91
f 166//91 174//91 175//91
f 166//91 175//91 164//91
f 183//91 184//91 181//91
f 183//91 181//91 182//91
f 185//91 186//91 182//91
f 185//91 182//91 181//91
f 176//92 177//92 172//92
f 176//92 172//92 170//92
f 178//93 179//93 180//93
o Turret_01_havok_s_armor_3_6
v 0.997979 1.835186 1.119778
v -1.233988 1.332327 1.119477
v -0.895775 2.056465 1.119910
v -0.509557 2.056465 1.930498
v -0.690926 1.332327 2.270078
v -0.715220 1.332327 -0.018702
v -0.751114 2.056465 0.815931
v -0.643182 2.056465 0.589131
v 1.233988 1.332327 1.119477
v 0.690926 1.332327 2.270078
v 0.507907 2.056465 1.930498
v 0.894125 2.056465 1.119910
v 0.750154 2.056465 0.817380
v 0.715219 1.332327 -0.018702
v 0.641532 2.056465 0.589131
vn -0.8313 -0.3899 -0.3961
vn -0.8313 -0.3904 0.3956
vn -0.8327 -0.4033 0.3795
vn -0.8312 -0.3940 -0.3923
vn 0.8318 -0.3924 -0.3926
vn 0.8319 -0.3883 -0.3964
vn 0.8350 -0.3973 0.3806
vn 0.8319 -0.3888 0.3959
vn 0.8233 -0.4108 0.3918
s 0
f 208//95 218//95 219//95
f 208//96 219//96 220//96
f 221//97 216//97 222//97
f 220//96 222//96 216//96
f 220//96 216//96 208//96
f 216//98 217//98 218//98
f 216//95 218//95 208//95
f 211//99 212//99 209//99
f 211//100 209//100 210//100
f 209//101 213//101 214//101
f 209//102 214//102 210//102
f 215//103 214//103 213//103
o Turret_01_havok_s_armor_4_7
v -0.690926 1.332327 2.270078
v -0.509556 2.056465 1.930498
v 0.507908 2.056465 1.930498
v 0.690926 1.332327 2.270078
vn -0.0000 -0.4246 -0.9054
s 0
f 225//104 226//104 223//104
f 225//104 223//104 224//104
o Turret_01_havok_s_armor_9_8
v -0.285847 1.664230 0.022476
v -0.285847 1.472888 0.099282
v 0.285855 1.472818 0.099278
v 0.285855 1.664230 0.022476
v 0.285855 1.881151 0.060725
v 0.285855 2.027973 0.565214
v -0.285847 2.027973 0.565214
v -0.285847 1.881151 0.060725
vn -0.0000 -0.1736 0.9848
vn -0.0000 -0.9602 0.2794
vn -0.0000 0.3724 0.9281
vn 0.0001 0.3725 0.9280
s 0
f 230//105 231//105 234//105
f 230//105 234//105 227//105
f 233//106 234//106 231//106
f 233//106 231//106 232//106
f 229//107 230//107 227//107
f 229//108 227//108 228//108
o Hull_havok_s_armor_9_0
v -0.478171 1.322066 -0.248270
v 0.478171 1.322066 -0.248270
v 1.067080 1.322066 1.125686
v 1.384254 1.322066 -0.568354
v 1.384254 1.322066 2.770273
v 0.863287 1.322066 0.498472
v 0.917306 1.322066 -0.568354
v 0.329746 1.322066 2.140539
v 0.863287 1.322066 1.752900
v -1.384254 1.322066 2.770273
v -0.329746 1.322066 2.140539
v -1.067080 1.322066 1.125686
v -1.384254 1.322066 -0.568354
v -0.863285 1.322066 0.498472
v -0.863285 1.322066 1.752900
v -0.917305 1.322066 -0.568354
v -0.329746 1.322066 0.110832
v 0.329746 1.322066 0.110832
v -0.524480 1.322731 -0.854402
v -0.917531 1.321363 -0.854372
v -0.524520 1.322066 -1.331192
v -0.600471 1.491954 -0.858014
v -0.838549 1.491954 -0.858014
v -0.838549 1.491954 -1.206906
v -0.600471 1.491953 -1.206906
v 0.523995 1.321653 -0.854378
v 0.917306 1.322065 -0.853657
v 0.525069 1.322066 -1.331192
v 0.600472 1.491953 -1.206906
v 0.838549 1.491953 -1.206906
v 0.838550 1.491954 -0.858014
v 0.600472 1.491954 -0.858014
v -0.508836 1.287899 -1.405720
v 0.508837 1.287899 -1.405720
v 0.508837 1.287899 -1.331192
v -0.508836 1.287899 -1.331192
vn -0.0000 -1.0000 -0.0000
vn 0.0010 -1.0000 -0.0000
vn 0.0005 -1.0000 0.0007
vn 0.0035 -1.0000 0.0025
vn 0.0008 -1.0000 -0.0012
vn -0.0327 -0.9995 0.0014
vn -0.0211 -0.9998 -0.0009
s 0
f 258//109 259//109 256//109
f 258//109 256//109 257//109
f 260//110 261//110 241//110
f 260//111 241//111 236//111
f 250//112 254//112 253//112
f 250//113 253//113 235//113
f 253//114 255//114 235//114
f 262//115 260//115 236//115
f 269//109 270//109 267//109
f 269//109 267//109 268//109
f 236//109 252//109 251//109
f 236//109 251//109 235//109
f 265//109 266//109 263//109
f 265//109 263//109 264//109
f 255//109 262//109 236//109
f 255//109 236//109 235//109
f 243//109 237//109 239//109
f 243//109 239//109 242//109
f 244//109 245//109 242//109
f 244//109 242//109 239//109
f 237//109 238//109 239//109
f 240//109 241//109 238//109
f 240//109 238//109 237//109
f 246//109 244//109 247//109
f 246//109 247//109 248//109
f 248//109 235//109 251//109
f 240//109 252//109 236//109
f 240//109 236//109 241//109
f 249//109 245//109 244//109
f 249//109 244//109 246//109
f 247//109 250//109 235//109
f 247//109 235//109 248//109
o Hull_havok_s_armor_7_1
v -1.044091 1.053307 -2.281850
v -0.508837 1.287899 -1.405721
v -0.932769 1.287899 -1.405721
v 1.044091 1.053307 -2.281850
v 0.508837 1.287899 -1.405721
v 0.932770 1.287898 -1.405719
vn -0.0000 -0.9660 0.2586
s 0
f 274//116 276//116 275//116
f 274//116 275//116 272//116
f 274//116 272//116 271//116
f 271//116 272//116 273//116
o Hull_havok_s_armor_3_2
v -1.044091 0.397344 -2.275187
v -1.044091 0.728790 -2.606414
v -1.044092 0.788343 2.306305
v -1.044092 0.397345 2.207248
v -1.044091 1.053307 -2.281849
v -1.044091 1.053307 -0.837145
v -1.044092 1.053308 2.644949
v -1.044092 0.792152 2.523170
v -0.932770 1.287899 -1.405720
v -0.933024 1.287899 -0.853657
v 0.932771 1.287898 -1.405720
v 1.044092 1.053307 -2.281849
v 1.044092 1.053307 -0.837145
v 0.933025 1.287899 -0.853657
v 0.917306 1.322066 -0.568353
v 0.917306 1.322065 -0.853657
v -0.917530 1.321362 -0.854372
v -0.917305 1.322066 -0.568353
v 1.044092 0.788343 2.306306
v 1.044092 0.728790 -2.606414
v 1.044092 0.397344 -2.275187
v 1.044092 0.397345 2.207250
v 1.044092 0.792152 2.523170
v 1.044092 1.053308 2.644949
vn 0.9075 -0.4201 0.0003
vn 0.9039 -0.4278 0.0014
vn -0.9085 -0.4180 -0.0000
vn -0.9039 -0.4278 0.0014
vn -1.0000 -0.0000 -0.0000
vn 1.0000 -0.0000 -0.0000
vn -0.9038 -0.4279 0.0004
vn -0.9034 -0.4287 -0.0000
vn 0.9038 -0.4279 0.0004
vn 0.9034 -0.4287 -0.0000
s 0
f 286//117 293//117 294//117
f 286//118 294//118 282//118
f 291//119 292//119 290//119
f 291//120 290//120 289//120
f 297//121 298//121 295//121
f 297//121 295//121 296//121
f 295//121 299//121 300//121
f 295//121 300//121 289//121
f 296//121 295//121 289//121
f 296//121 289//121 288//121
f 278//122 281//122 282//122
f 278//122 282//122 279//122
f 279//122 280//122 277//122
f 279//122 277//122 278//122
f 283//122 284//122 279//122
f 283//122 279//122 282//122
f 289//123 290//123 287//123
f 289//124 287//124 288//124
f 285//125 286//125 282//125
f 285//126 282//126 281//126
o Hull_havok_s_armor_8_3
v 1.384254 1.322066 -0.568355
v 1.511523 1.053307 -0.837145
v 1.511523 1.053308 2.644949
v 1.384254 1.322066 2.770273
v -1.384254 1.322066 -0.568355
v -1.384254 1.322066 2.770273
v -1.511523 1.053308 2.644949
v -1.511523 1.053307 -0.837145
vn 0.9038 -0.4280 -0.0000
vn -0.9038 -0.4280 -0.0000
s 0
f 307//127 308//127 305//127
f 307//127 305//127 306//127
f 303//128 304//128 301//128
f 303//128 301//128 302//128
o Hull_havok_s_armor_10_4
v -0.524479 1.322732 -0.854401
v -0.600471 1.491954 -0.858014
v -0.600471 1.491953 -1.206906
v -0.524520 1.322066 -1.331192
v -0.508837 1.287899 -1.405720
v -0.508837 1.287899 -1.331192
v -0.917531 1.321363 -0.854371
v -0.838549 1.491954 -0.858014
v -0.838549 1.491954 -1.206906
v -0.932769 1.287899 -1.405720
v -0.933024 1.287899 -0.853657
v 0.508837 1.287899 -1.405720
v 0.600472 1.491953 -1.206906
v 0.525069 1.322066 -1.331192
v 0.508837 1.287899 -1.331192
v 0.523995 1.321653 -0.854378
v 0.600472 1.491954 -0.858014
v 0.838550 1.491954 -0.858014
v 0.917306 1.322065 -0.853657
v 0.932770 1.287898 -1.405719
v 0.933024 1.287899 -0.853657
v 0.838549 1.491953 -1.206906
vn 0.9122 -0.4097 -0.0000
vn 0.9136 -0.4067 0.0017
vn 0.9191 -0.3935 -0.0198
vn 0.9033 -0.4291 -0.0000
vn 0.0019 -0.0248 -0.9997
vn -0.0000 -0.0213 -0.9998
vn -0.9085 -0.4179 0.0015
vn -0.9073 -0.4206 -0.0000
vn -0.9077 -0.4195 0.0004
vn -0.9149 -0.4035 -0.0076
vn -0.9088 -0.4172 -0.0000
vn -0.9127 -0.4085 0.0007
vn -0.9122 -0.4097 -0.0000
vn 0.9075 -0.4201 0.0004
vn 0.9078 -0.4195 0.0004
vn 0.9075 -0.4201 -0.0000
s 0
f 321//129 325//129 324//129
f 321//130 324//130 322//130
f 320//131 321//131 322//131
f 320//132 322//132 323//132
f 326//133 327//133 324//133
f 326//134 324//134 325//134
f 330//135 329//135 327//135
f 330//136 327//136 326//136
f 328//137 329//137 330//137
f 312//138 311//138 313//138
f 312//139 313//139 314//139
f 311//140 312//140 309//140
f 311//141 309//141 310//141
f 309//134 315//134 316//134
f 309//134 316//134 310//134
f 318//142 315//142 319//142
f 315//143 318//143 317//143
f 315//144 317//144 316//144
o Hull_havok_s_armor_6_5
v -0.838549 1.491954 -1.206906
v -0.932769 1.287899 -1.405720
v -0.508837 1.287899 -1.405720
v -0.600471 1.491953 -1.206906
v 0.508837 1.287899 -1.405720
v 0.932770 1.287898 -1.405719
v 0.838549 1.491953 -1.206906
v 0.600472 1.491953 -1.206906
vn -0.0000 -0.6978 0.7162
vn -0.0000 -0.6979 0.7162
s 0
f 337//145 338//145 335//145
f 337//145 335//145 336//145
f 333//145 334//145 331//145
f 333//146 331//146 332//146
o Hull_havok_s_armor_4_6
v -1.044091 0.397345 2.207248
v -1.044091 0.788343 2.306305
v 1.044091 0.788343 2.306306
v 1.044091 0.397345 2.207249
v -1.044091 1.053308 2.644949
v -1.384254 1.322066 2.770273
v 1.384254 1.322066 2.770273
v 1.044091 1.053308 2.644949
v -1.511523 1.053308 2.644949
v 1.511523 1.053308 2.644949
v 1.044091 0.792152 2.523170
v -1.044091 0.792152 2.523170
vn -0.0000 0.4226 -0.9063
vn -0.0000 0.2456 -0.9694
s 0
f 346//147 345//147 348//147
f 349//147 350//147 343//147
f 349//147 343//147 346//147
f 343//147 347//147 344//147
f 341//148 342//148 339//148
f 341//148 339//148 340//148
f 345//147 346//147 343//147
f 345//147 343//147 344//147
o Hull_havok_s_armor_12_7
v -1.044091 1.053307 -0.837145
v -1.511523 1.053307 -0.837145
v -1.511523 1.053308 2.644949
v -1.044091 1.053308 2.644949
v 1.511523 1.053308 2.644949
v 1.511523 1.053307 -0.837145
v 1.044091 1.053307 -0.837145
v 1.044091 1.053308 2.644949
vn -0.0000 1.0000 -0.0000
s 0
f 357//149 358//149 355//149
f 357//149 355//149 356//149
f 353//149 354//149 351//149
f 353//149 351//149 352//149
o Hull_havok_s_armor_11_8
v 1.044092 0.792152 2.523170
v 1.044092 0.788343 2.306305
v -1.044092 0.788343 2.306305
v -1.044092 0.792152 2.523170
v 1.044092 0.397344 -2.275188
v -1.044091 0.397344 -2.275188
v -1.044092 0.397345 2.207248
v 1.044092 0.397345 2.207249
vn -0.0000 1.0000 -0.0000
vn -0.0000 0.9998 -0.0176
s 0
f 365//150 366//150 363//150
f 365//150 363//150 364//150
f 361//151 362//151 359//151
f 361//151 359//151 360//151
o Hull_havok_s_armor_5_9
v 1.384254 1.322066 -0.568354
v 0.917305 1.322066 -0.568354
v 1.044091 1.053307 -0.837145
v 1.511522 1.053307 -0.837145
v -1.044091 1.053307 -0.837145
v -0.917305 1.322066 -0.568354
v -1.384254 1.322066 -0.568354
v -1.511522 1.053307 -0.837145
vn -0.0000 -0.7072 0.7071
vn -0.0000 -0.7071 0.7071
s 0
f 373//152 374//152 371//152
f 373//152 371//152 372//152
f 369//153 370//153 367//153
f 369//152 367//152 368//152
o Hull_havok_s_armor_1_10
v -1.044091 0.728790 -2.606414
v 1.044091 0.728790 -2.606414
v 1.044091 1.053307 -2.281850
v -1.044091 1.053307 -2.281850
vn -0.0000 -0.7072 0.7071
s 0
f 377//154 378//154 375//154
f 377//154 375//154 376//154
o Hull_havok_s_armor_2_11
v -1.044091 0.728790 -2.606414
v -1.044091 0.397344 -2.275188
v 1.044091 0.397344 -2.275188
v 1.044091 0.728790 -2.606414
vn -0.0000 0.7069 0.7073
s 0
f 381//155 382//155 379//155
f 381//155 379//155 380//155
o Hull_havok_s_armor_13_12
v -0.524521 1.322066 -1.331192
v -0.508837 1.287899 -1.331192
v 0.508837 1.287899 -1.331192
v 0.525069 1.322066 -1.331192
vn -0.0000 -0.0000 1.0000
s 0
f 385//156 386//156 383//156
f 385//156 383//156 384//156
o Gun_01_havok_s_armor_4_0
v 0.285324 1.931018 0.063279
v 0.286286 1.331611 0.239281
v 0.286286 1.298468 0.352155
v 0.285855 2.047785 0.591408
v 0.285855 1.316911 0.591381
v -0.285157 1.298468 0.352155
v -0.285847 1.316911 0.591547
v -0.285847 2.047785 0.591574
v -0.286403 1.931018 0.063279
v -0.285157 1.824010 0.014410
v -0.285157 1.591126 0.014410
v -0.285157 1.707567 -0.002332
v -0.285157 1.484117 0.063279
v -0.285157 1.331611 0.239281
v -0.285157 1.395212 0.140316
v -0.285854 2.047786 -0.177881
v 0.285849 2.047786 -0.177964
v 0.286286 1.395212 0.140316
v 0.286286 1.484117 0.063279
v 0.286286 1.824009 0.014410
v 0.286286 1.707567 -0.002332
v 0.286286 1.591126 0.014410
vn -0.0000 -1.0000 -0.0000
vn 1.0000 -0.0000 -0.0000
vn -1.0000 -0.0000 -0.0000
vn -0.9999 -0.0022 -0.0150
vn -1.0000 -0.0022 -0.0025
vn -1.0000 -0.0020 -0.0013
vn -0.0000 0.9970 -0.0768
vn -0.0000 0.9970 -0.0769
vn -1.0000 -0.0000 -0.0018
vn -1.0000 -0.0010 0.0012
vn -1.0000 -0.0018 -0.0005
vn 0.9999 0.0068 0.0106
vn 1.0000 0.0014 -0.0014
vn 1.0000 -0.0000 0.0029
s 0
f 402//157 403//157 390//157
f 402//157 390//157 394//157
f 392//158 400//158 401//158
f 392//158 401//158 399//158
f 399//158 397//158 392//158
f 407//159 408//159 405//159
f 407//159 405//159 406//159
f 387//160 406//160 405//160
f 387//161 405//161 404//161
f 387//162 404//162 388//162
f 392//163 393//163 391//163
f 392//164 391//164 389//164
f 389//165 391//165 390//165
f 389//166 390//166 387//166
f 389//167 387//167 388//167
f 392//158 397//158 398//158
f 392//158 398//158 396//158
f 396//168 395//168 392//168
f 392//169 395//169 394//169
f 392//170 394//170 393//170
o Gun_01_havok_s_gun_1
v 0.064256 1.672475 -4.859883
v -0.063617 1.672475 -4.859883
v -0.063617 1.775388 -4.859883
v 0.064256 1.775388 -4.859883
v 0.081762 1.658386 -4.910868
v -0.081122 1.658386 -4.910868
v -0.081122 1.789477 -4.910868
v -0.139656 1.836586 -5.189446
v 0.140296 1.836586 -5.189446
v 0.081762 1.789477 -5.039119
v -0.081122 1.789477 -5.039119
v -0.139656 1.611277 -5.189446
v -0.081122 1.658386 -5.039119
v 0.140296 1.611277 -5.189446
v 0.081762 1.658386 -5.039119
v 0.097079 1.801805 -5.220458
v 0.097079 1.646059 -5.220458
v -0.096440 1.646059 -5.220458
v 0.081762 1.789477 -4.910868
v -0.096440 1.646059 -5.397592
v 0.097079 1.646059 -5.397592
v 0.097079 1.801805 -5.397592
v -0.096440 1.801805 -5.397592
v -0.096440 1.801805 -5.220458
v -0.098280 1.644578 0.109461
v 0.098920 1.644578 0.109461
v 0.098920 1.803286 0.109461
v -0.098280 1.803286 0.109461
vn -0.0000 1.0000 -0.0000
vn 1.0000 -0.0000 -0.0000
vn -0.0000 -0.9639 -0.2663
vn -1.0000 -0.0000 -0.0000
vn -0.9458 -0.0000 -0.3247
vn 0.5830 -0.0000 0.8125
vn -0.0000 -1.0000 -0.0000
vn -0.0000 -0.6655 0.7464
vn -0.0000 -0.0000 1.0000
vn 1.0000 -0.0000 0.0070
vn -0.0000 0.9639 -0.2664
vn -0.0000 0.9639 -0.2663
vn 0.9458 -0.0000 -0.3247
vn -0.0000 1.0000 0.0056
vn -0.0000 -1.0000 0.0056
vn -1.0000 -0.0000 0.0070
vn -0.5830 -0.0000 0.8125
vn -0.0000 0.9542 -0.2990
vn -0.0000 0.6655 0.7464
vn -0.0000 -0.9542 -0.2990
vn 0.9319 -0.0000 -0.3628
vn -0.9319 -0.0000 -0.3628
s 0
f 423//171 421//171 414//171
f 423//171 414//171 413//171
f 421//172 419//172 415//172
f 421//172 415//172 414//172
f 425//171 429//171 428//171
f 425//171 428//171 426//171
f 415//173 427//173 412//173
f 415//173 412//173 411//173
f 413//174 427//174 418//174
f 413//174 418//174 423//174
f 427//175 413//175 409//175
f 427//175 409//175 412//175
f 426//176 432//176 416//176
f 426//176 416//176 420//176
f 432//177 431//177 430//177
f 432//177 430//177 424//177
f 432//178 424//178 417//178
f 432//178 417//178 416//178
f 430//174 429//174 425//174
f 430//174 425//174 424//174
f 429//179 430//179 431//179
f 429//179 431//179 428//179
f 428//172 431//172 432//172
f 428//172 432//172 426//172
f 419//177 418//177 427//177
f 419//177 427//177 415//177
f 436//180 433//180 410//180
f 436//180 410//180 411//180
f 413//181 414//181 410//181
f 413//182 410//182 409//182
f 414//183 415//183 411//183
f 414//183 411//183 410//183
f 433//184 434//184 409//184
f 433//184 409//184 410//184
f 435//185 436//185 411//185
f 435//185 411//185 412//185
f 434//186 435//186 412//186
f 434//186 412//186 409//186
f 424//187 425//187 422//187
f 424//187 422//187 417//187
f 421//188 423//188 422//188
f 421//188 422//188 420//188
f 425//189 426//189 420//189
f 425//189 420//189 422//189
f 418//190 419//190 416//190
f 418//190 416//190 417//190
f 419//191 421//191 420//191
f 419//191 420//191 416//191
f 417//192 422//192 423//192
f 417//192 423//192 418//192
o Gun_01_havok_s_armor_2_2
v -0.194373 1.680319 -0.574208
v -0.179206 1.666909 -0.559599
v -0.184731 1.680319 -0.574208
v -0.177864 1.766926 -0.488018
v 0.295493 1.898477 -0.357088
v 0.107831 1.880010 -0.375471
v 0.164535 1.809539 -0.445600
v 0.194373 1.680313 -0.574202
v 0.184730 1.680313 -0.574202
v 0.179206 1.666909 -0.559599
v -0.295494 1.898486 -0.357097
v -0.140870 1.848081 -0.407254
v 0.024492 1.914480 -0.341170
v 0.295493 2.071765 -0.184636
v -0.295494 2.071774 -0.184646
v -0.067079 1.903045 -0.352553
vn -0.0000 -0.7054 0.7088
vn -0.0000 0.7367 0.6762
s 0
f 451//193 452//193 449//193
f 451//193 449//193 450//193
f 450//193 449//193 442//193
f 450//193 442//193 441//193
f 448//193 452//193 451//193
f 448//193 451//193 447//193
f 447//193 437//193 440//193
f 447//193 440//193 448//193
f 437//194 438//194 439//194
f 437//193 439//193 440//193
f 441//193 442//193 443//193
f 441//193 443//193 444//193
f 444//193 443//193 445//193
f 444//194 445//194 446//194
o Gun_01_havok_s_armor_1_3
v 0.286286 1.331611 0.239281
v 0.286286 1.395115 0.140321
v -0.285157 1.395115 0.140321
v -0.285157 1.331611 0.239281
v -0.285157 1.484117 0.063326
v 0.286286 1.484117 0.063326
v -0.285157 1.824010 0.014437
v -0.285157 1.707585 -0.002332
v 0.286286 1.824010 0.014437
v -0.285157 1.591160 0.014437
v 0.286286 1.591160 0.014437
v 0.286286 1.707585 -0.002332
v 0.324068 1.331611 0.239281
v 0.324068 1.395211 0.140316
v -0.324068 1.395211 0.140316
v -0.324068 1.331611 0.239281
v 0.286286 1.298468 0.352155
v -0.285156 1.298468 0.352155
v 0.324068 1.298468 0.352155
v -0.324068 1.298468 0.352155
v 0.324068 1.484117 0.063279
v -0.324068 1.484117 0.063279
v -0.256234 1.824010 0.014410
v -0.198716 1.707568 -0.002332
v -0.324068 1.824010 0.014410
v -0.324068 1.707568 -0.002332
v -0.286403 1.931018 0.063279
v -0.324068 1.931018 0.063279
v -0.285908 2.030302 0.154180
v -0.324068 2.030302 0.154180
v 0.324068 1.931018 0.063279
v 0.324068 2.030302 0.154180
v 0.286747 2.030302 0.154180
v 0.286286 2.011100 0.136599
v 0.285324 1.931018 0.063279
v 0.324068 1.824010 0.014410
v 0.256341 1.824009 0.014410
v -0.000000 1.535874 0.035018
v -0.121720 1.591126 0.014410
v 0.136485 1.591126 0.014410
v 0.324068 1.591126 0.014410
v -0.324068 1.591126 0.014410
v 0.324068 1.707568 -0.002332
v 0.202576 1.707568 -0.002332
vn -0.0000 0.4799 0.8773
vn -0.0200 0.3924 0.9196
vn -0.0003 0.4154 0.9096
vn 0.0010 0.4154 0.9096
vn 0.0011 0.4154 0.9096
vn 0.0208 0.3892 0.9209
vn 0.0002 0.4154 0.9096
vn -0.0000 -0.6753 0.7376
vn 0.0007 -0.4154 0.9096
vn -0.0000 -0.4152 0.9097
vn -0.0008 -0.4152 0.9097
vn 0.0007 -0.1423 0.9898
vn -0.0001 -0.1426 0.9898
vn -0.0000 -0.1423 0.9898
vn -0.0009 -0.1426 0.9898
vn -0.0002 0.1424 0.9898
vn -0.0000 0.1426 0.9898
vn 0.0001 0.1423 0.9898
vn 0.0008 0.1426 0.9898
vn -0.0010 0.4154 0.9096
vn -0.0011 0.4154 0.9096
vn -0.0001 0.1423 0.9898
vn -0.0008 0.1426 0.9898
vn 0.0002 0.1424 0.9898
vn -0.0000 0.9595 0.2817
vn -0.0000 0.6542 0.7563
vn -0.0000 0.8416 0.5401
vn -0.0021 0.8413 0.5406
vn 0.0020 0.8413 0.5406
vn -0.0000 -0.4154 0.9096
vn -0.0006 -0.4152 0.9097
vn 0.0008 -0.4152 0.9097
vn -0.0007 -0.1423 0.9898
vn 0.0001 -0.1426 0.9898
vn 0.0009 0.6549 0.7557
vn -0.0016 0.6542 0.7563
vn -0.0009 0.6549 0.7557
vn 0.0015 0.6542 0.7563
vn 0.0009 -0.1426 0.9898
s 0
f 457//195 458//195 490//195
f 492//196 490//196 458//196
f 492//197 458//197 463//197
f 473//198 493//198 463//198
f 473//199 463//199 458//199
f 457//200 490//200 491//200
f 457//201 491//201 462//201
f 487//202 483//202 486//202
f 461//203 488//203 483//203
f 461//204 483//204 487//204
f 489//205 461//205 487//205
f 495//206 488//206 461//206
f 495//207 461//207 464//207
f 489//208 496//208 464//208
f 489//209 464//209 461//209
f 496//210 492//210 463//210
f 496//211 463//211 464//211
f 493//212 495//212 464//212
f 493//213 464//213 463//213
f 462//214 494//214 474//214
f 462//215 474//215 457//215
f 460//216 478//216 494//216
f 460//217 494//217 462//217
f 462//218 491//218 476//218
f 462//211 476//211 460//211
f 485//202 486//202 483//202
f 485//202 483//202 484//202
f 453//219 469//219 471//219
f 453//219 471//219 465//219
f 472//219 470//219 456//219
f 472//219 456//219 468//219
f 454//220 458//220 457//220
f 454//220 457//220 455//220
f 456//219 470//219 469//219
f 456//219 469//219 453//219
f 455//221 456//221 453//221
f 455//221 453//221 454//221
f 465//222 466//222 454//222
f 465//221 454//221 453//221
f 455//223 467//223 468//223
f 455//221 468//221 456//221
f 479//224 480//224 477//224
f 479//225 477//225 459//225
f 459//226 475//226 479//226
f 479//202 481//202 482//202
f 479//202 482//202 480//202
f 459//227 477//227 478//227
f 459//228 478//228 460//228
f 466//229 473//229 458//229
f 466//230 458//230 454//230
f 457//231 474//231 467//231
f 457//232 467//232 455//232
f 460//208 476//208 475//208
f 460//233 475//233 459//233
o Gun_01_havok_s_armor_5_4
v 0.256341 1.824009 0.014410
v 0.285849 1.886648 -0.339102
v 0.179206 1.666909 -0.559599
v 0.202576 1.707568 -0.002332
v 0.136485 1.591126 0.014410
v 0.285324 1.931018 0.063279
v 0.285849 2.047786 -0.177964
v -0.256234 1.824010 0.014410
v -0.198716 1.707568 -0.002332
v -0.179206 1.666909 -0.559599
v -0.285854 1.886648 -0.339019
v -0.121720 1.591126 0.014410
v -0.285854 2.047786 -0.177881
v -0.286403 1.931018 0.063279
v -0.285847 2.047785 0.591574
v 0.285855 2.047785 0.591408
vn 0.9584 0.2839 -0.0300
vn 1.0000 -0.0015 0.0015
vn 0.8348 0.5504 -0.0109
vn -1.0000 0.0045 -0.0000
vn 1.0000 -0.0047 -0.0000
vn -0.8696 0.4937 0.0005
vn -0.9083 0.4183 0.0076
vn -0.9004 0.4350 0.0019
vn 0.9003 0.4353 0.0017
vn 0.8965 0.4430 -0.0009
vn -0.9610 0.2747 -0.0315
vn -1.0000 0.0015 -0.0015
s 0
f 510//234 504//234 507//234
f 510//235 507//235 509//235
f 508//236 506//236 505//236
f 502//237 512//237 503//237
f 510//238 509//238 511//238
f 501//239 500//239 499//239
f 499//240 500//240 497//240
f 499//241 497//241 498//241
f 506//242 507//242 504//242
f 506//243 504//243 505//243
f 498//244 497//244 502//244
f 498//245 502//245 503//245
o Gun_01_havok_s_armor_3_5
v -0.000062 1.592885 -1.333205
v -0.076795 1.616492 -1.333205
v 0.080408 1.619157 -1.333205
v -0.046526 1.845968 -1.333205
v -0.098346 1.810303 -1.333205
v 0.022983 1.852695 -1.333205
v 0.086263 1.815253 -1.333205
v -0.127494 1.754711 -1.333205
v -0.127494 1.691757 -1.333205
v 0.126124 1.753822 -1.333205
v 0.127494 1.691757 -1.333205
v -0.121720 1.591126 0.014410
v -0.000000 1.535874 0.035018
v -0.179207 1.666909 -0.559599
v 0.136484 1.591126 0.014410
v 0.179206 1.666909 -0.559599
v -0.067079 1.903045 -0.352553
v -0.140870 1.848081 -0.407254
v 0.024492 1.914480 -0.341170
v 0.107831 1.880010 -0.375471
v -0.177865 1.766927 -0.488018
v -0.184731 1.680319 -0.574208
v 0.164535 1.809539 -0.445600
v 0.184730 1.680313 -0.574202
v -0.109542 1.750245 -2.354249
v -0.084489 1.797980 -2.354249
v -0.109542 1.696334 -2.354249
v -0.066070 1.631715 -2.354249
v -0.040121 1.828605 -2.354249
v 0.019536 1.834336 -2.354249
v 0.073781 1.802172 -2.354249
v 0.107996 1.749540 -2.354249
v 0.109182 1.696334 -2.354249
v 0.068780 1.634017 -2.354249
v -0.000180 1.611475 -2.354249
vn 0.0956 -0.9953 0.0176
vn 0.0963 -0.9952 0.0175
vn -0.5099 -0.8600 0.0173
vn -0.5092 -0.8605 0.0172
vn -0.8383 -0.5450 0.0172
vn -0.8387 -0.5443 0.0172
vn 0.9998 -0.0000 0.0176
vn 0.8296 0.5581 0.0171
vn 0.8293 0.5586 0.0170
vn 0.5680 -0.8229 0.0176
vn 0.5669 -0.8236 0.0176
vn 0.2936 0.9558 0.0173
vn 0.2940 0.9556 0.0174
vn 0.8273 0.5573 0.0708
vn 0.8841 0.4591 0.0871
vn -0.8853 0.4573 0.0848
vn -0.8369 0.5428 0.0713
vn -0.9996 -0.0223 0.0178
vn -0.9996 -0.0221 0.0178
vn -0.8390 0.5439 0.0175
vn -0.8389 0.5441 0.0175
vn -0.3107 0.9504 0.0173
vn -0.3103 0.9505 0.0174
vn -0.6913 0.7212 0.0438
vn 0.5675 -0.8212 0.0597
vn 0.5659 -0.8223 0.0595
vn 0.1161 -0.9913 0.0616
vn 0.0962 -0.9936 0.0598
vn 0.4077 0.9123 0.0380
vn 0.2939 0.9554 0.0278
vn 0.6464 0.7622 0.0359
vn -0.3699 0.9283 0.0387
vn -0.3102 0.9501 0.0327
vn -0.8368 -0.5430 0.0703
vn -0.7468 -0.6622 0.0616
vn -0.9970 -0.0220 0.0748
vn -0.9766 -0.2077 0.0553
vn 0.8853 -0.4647 0.0176
vn 0.8855 -0.4643 0.0176
vn -0.5080 -0.8586 0.0695
vn -0.3609 -0.9308 0.0585
vn 0.8846 -0.4625 0.0595
vn 0.8841 -0.4635 0.0594
vn 0.9884 -0.1390 0.0609
vn 0.9972 -0.0000 0.0752
s 0
f 541//246 542//246 518//246
f 541//247 518//247 516//247
f 542//248 543//248 519//248
f 542//249 519//249 518//249
f 543//250 544//250 522//250
f 543//251 522//251 519//251
f 539//252 537//252 520//252
f 539//252 520//252 521//252
f 540//253 539//253 521//253
f 540//254 521//254 514//254
f 538//255 541//255 516//255
f 538//256 516//256 517//256
f 547//257 540//257 514//257
f 547//258 514//258 513//258
f 514//259 521//259 534//259
f 514//260 534//260 526//260
f 515//261 528//261 536//261
f 515//262 536//262 523//262
f 544//263 545//263 523//263
f 544//264 523//264 522//264
f 545//265 546//265 515//265
f 545//266 515//266 523//266
f 546//267 547//267 513//267
f 546//268 513//268 515//268
f 515//269 527//269 528//269
f 516//270 529//270 530//270
f 516//271 530//271 517//271
f 518//272 531//272 529//272
f 518//273 529//273 516//273
f 524//274 525//274 513//274
f 524//275 513//275 514//275
f 524//276 514//276 526//276
f 513//277 525//277 527//277
f 513//278 527//278 515//278
f 519//279 522//279 535//279
f 519//280 535//280 532//280
f 522//281 523//281 536//281
f 522//282 536//282 535//282
f 537//283 538//283 517//283
f 537//284 517//284 520//284
f 518//285 519//285 532//285
f 518//286 532//286 531//286
f 517//287 530//287 533//287
f 517//288 533//288 520//288
f 520//289 533//289 534//289
f 520//290 534//290 521//290
o Gun_01_havok_s_armor_6_6
v 0.109182 1.696334 -2.354249
v -0.066070 1.631715 -2.354249
v -0.000180 1.611475 -2.354249
v 0.068780 1.634017 -2.354249
v 0.019536 1.834336 -2.354249
v -0.040121 1.828605 -2.354249
v -0.109542 1.696334 -2.354249
v 0.073781 1.802172 -2.354249
v -0.084489 1.797980 -2.354249
v -0.109542 1.750245 -2.354249
v 0.107995 1.749540 -2.354249
vn -0.0000 -0.0000 1.0000
s 0
f 558//291 555//291 554//291
f 558//291 554//291 548//291
f 549//291 548//291 554//291
f 556//291 557//291 554//291
f 556//291 554//291 553//291
f 550//291 551//291 548//291
f 550//291 548//291 549//291
f 554//291 555//291 552//291
f 554//291 552//291 553//291
o Gun_01_havok_s_gunBreech_7
v -0.242405 1.528584 1.250751
v 0.243045 1.528584 1.250751
v 0.243045 1.528584 0.281436
v -0.242405 1.528584 0.281436
v 0.243045 2.000055 1.250751
v -0.242405 2.000055 1.250751
v -0.242405 2.000055 0.281436
v 0.243045 2.000055 0.281436
v 0.098920 1.803286 0.109461
v 0.098920 1.644577 0.109461
v -0.098280 1.644577 0.109461
v -0.098280 1.803286 0.109461
vn 0.7664 -0.0000 0.6423
vn -0.7664 -0.0000 0.6423
vn -0.0000 -0.6581 0.7530
vn -0.0000 0.8291 0.5592
vn 1.0000 -0.0000 -0.0000
vn -0.0000 -1.0000 -0.0000
vn -0.0000 1.0000 -0.0000
vn -0.0000 -0.0000 -1.0000
vn -1.0000 -0.0000 -0.0000
s 0
f 562//292 569//292 570//292
f 562//292 570//292 565//292
f 567//293 568//293 561//293
f 567//293 561//293 566//293
f 570//294 567//294 566//294
f 570//294 566//294 565//294
f 568//295 569//295 562//295
f 568//295 562//295 561//295
f 562//296 565//296 564//296
f 562//296 564//296 559//296
f 565//297 566//297 563//297
f 565//297 563//297 564//297
f 561//298 562//298 559//298
f 561//298 559//298 560//298
f 559//299 564//299 563//299
f 559//299 563//299 560//299
f 560//300 563//300 566//300
f 560//300 566//300 561//300
o Gun_01_havok_s_armor_7_8
v -0.285854 2.047786 -0.177881
v -0.285853 1.886648 -0.339019
v -0.295494 1.898486 -0.357097
v -0.295494 2.071774 -0.184646
v 0.295493 2.071765 -0.184636
v 0.285849 2.047786 -0.177964
v -0.179206 1.666909 -0.559599
v -0.194373 1.680319 -0.574208
v 0.285849 1.886648 -0.339102
v 0.295493 1.898477 -0.357087
v 0.194373 1.680313 -0.574202
v 0.179206 1.666909 -0.559599
vn -0.7608 0.6049 -0.2349
vn -0.8504 0.5125 -0.1189
vn -0.9094 0.2942 -0.2942
vn -0.9134 0.2871 -0.2885
vn 0.7609 0.6049 -0.2347
vn 0.8507 0.5121 -0.1183
vn 0.9140 0.2862 -0.2876
vn 0.9100 0.2932 -0.2932
vn -0.0001 -0.2680 -0.9634
vn -0.0000 -0.2714 -0.9625
s 0
f 581//301 582//301 579//301
f 581//302 579//302 580//302
f 580//303 579//303 576//303
f 580//304 576//304 575//304
f 572//305 577//305 578//305
f 572//306 578//306 573//306
f 573//307 574//307 571//307
f 573//308 571//308 572//308
f 575//309 576//309 571//309
f 575//310 571//310 574//310
