# Blender 5.1.0
# www.blender.org
o Chassis_havok_s_leftTrack_0
v -1.652417 0.333967 2.704701
v -1.652417 0.641246 2.951924
v -0.910150 0.641246 2.951924
v -0.910150 0.333967 2.704701
v -0.910150 1.033169 2.861477
v -1.652417 1.033169 2.861477
v -1.652417 1.202457 2.511747
v -0.910150 1.202457 2.511747
v -0.910150 0.002504 2.041420
v -1.652417 0.002504 2.041420
v -0.910150 1.458522 -2.679934
v -0.910150 0.519615 -3.023634
v -1.652417 1.458522 -2.679934
v -1.652417 0.519615 -3.023634
v -0.910150 0.002504 -2.016653
v -1.652417 0.002504 -2.016653
v -1.652417 1.299904 -3.071873
v -1.652417 0.854634 -3.216589
v -0.910150 0.854634 -3.216589
v -0.910150 1.299904 -3.071873
vn 1.0000 -0.0000 -0.0000
vn -0.0000 0.8896 0.4568
vn -1.0000 -0.0000 -0.0000
vn -0.0000 -0.9270 0.3751
vn -0.0000 -0.3091 0.9510
vn -0.0000 0.4991 0.8666
vn -0.0000 0.4991 0.8665
vn -0.0000 -0.9001 -0.4357
vn -0.0000 0.6269 -0.7791
vn -0.0000 -0.2249 -0.9744
vn -0.0000 1.0000 -0.0000
vn -0.0000 -0.9988 -0.0493
vn -0.0000 0.8945 -0.4470
s 0
f 1//1 10//1 7//1
f 16//2 15//2 12//2
f 16//2 12//2 14//2
f 4//3 8//3 9//3
f 14//1 10//1 16//1
f 9//3 12//3 15//3
f 18//1 17//1 13//1
f 18//1 13//1 14//1
f 11//3 20//3 19//3
f 11//3 19//3 12//3
f 13//4 17//4 20//4
f 13//4 20//4 11//4
f 19//5 20//5 17//5
f 19//5 17//5 18//5
f 12//6 19//6 18//6
f 12//7 18//7 14//7
f 5//3 8//3 4//3
f 5//3 4//3 3//3
f 1//1 7//1 6//1
f 1//1 6//1 2//1
f 6//8 7//8 8//8
f 6//8 8//8 5//8
f 3//9 4//9 1//9
f 3//9 1//9 2//9
f 2//10 6//10 5//10
f 2//10 5//10 3//10
f 10//1 14//1 13//1
f 10//1 13//1 7//1
f 9//11 15//11 16//11
f 9//11 16//11 10//11
f 7//12 13//12 11//12
f 7//12 11//12 8//12
f 4//13 9//13 10//13
f 4//13 10//13 1//13
f 11//3 12//3 9//3
f 11//3 9//3 8//3
o Chassis_havok_s_rightTrack_1
v 1.652448 0.333967 2.704701
v 0.910261 0.333967 2.704701
v 0.910261 0.641246 2.951924
v 1.652448 0.641246 2.951924
v 0.910261 1.033169 2.861477
v 1.652448 1.033169 2.861477
v 0.910261 1.202457 2.511747
v 1.652448 1.202457 2.511747
v 1.652448 0.002504 2.017301
v 0.910261 1.458522 -2.679934
v 0.910261 0.002504 2.017301
v 0.910261 0.519615 -3.023634
v 1.652448 1.458522 -2.679934
v 1.652448 0.519615 -3.023634
v 1.652448 0.002504 -2.034743
v 0.910261 0.002504 -2.034743
v 1.652448 1.299904 -3.071873
v 0.910261 1.299904 -3.071873
v 0.910261 0.854634 -3.216589
v 1.652448 0.854634 -3.216589
vn 1.0000 -0.0000 -0.0000
vn -0.0000 0.8862 0.4634
vn -0.0000 0.9007 -0.4343
vn -1.0000 -0.0000 -0.0000
vn -0.0000 -0.9270 0.3751
vn -0.0000 -0.3091 0.9510
vn -0.0000 0.4991 0.8665
vn -0.0000 0.4991 0.8666
vn -0.0000 -0.9001 -0.4357
vn -0.0000 0.6269 -0.7791
vn -0.0000 -0.2249 -0.9744
vn -0.0000 1.0000 -0.0000
vn -0.0000 -0.9988 -0.0493
s 0
f 22//14 31//14 27//14
f 32//15 36//15 35//15
f 32//15 35//15 34//15
f 29//16 31//16 22//16
f 29//16 22//16 21//16
f 32//14 31//14 36//14
f 34//17 35//17 29//17
f 39//14 38//14 30//14
f 39//14 30//14 32//14
f 33//17 37//17 40//17
f 33//17 40//17 34//17
f 38//18 37//18 33//18
f 38//18 33//18 30//18
f 39//19 40//19 37//19
f 39//19 37//19 38//19
f 40//20 39//20 32//20
f 40//21 32//21 34//21
f 22//14 27//14 25//14
f 22//14 25//14 23//14
f 21//17 28//17 29//17
f 27//22 28//22 26//22
f 27//22 26//22 25//22
f 23//23 24//23 21//23
f 23//23 21//23 22//23
f 25//24 26//24 24//24
f 25//24 24//24 23//24
f 33//17 34//17 29//17
f 33//17 29//17 28//17
f 35//25 36//25 31//25
f 35//25 31//25 29//25
f 30//26 33//26 28//26
f 30//26 28//26 27//26
f 26//17 28//17 21//17
f 26//17 21//17 24//17
f 31//14 32//14 30//14
f 31//14 30//14 27//14
o Turret_01_havok_s_armor_5_0
v 0.855437 1.577412 0.406120
v 1.063827 1.877152 0.439141
v 0.854401 1.576291 0.136580
v 1.063827 1.877152 0.103560
v 1.063827 1.956710 0.103560
v 0.477017 2.209388 0.105863
v 0.477017 2.228998 0.105863
v 1.063827 1.956710 0.439141
v 0.309061 2.069323 0.212604
v 0.309061 2.209388 0.311666
v 0.309061 2.228998 0.340079
v 0.309061 2.228998 0.311666
v 0.348458 2.062599 0.217980
v 0.309061 2.228998 0.482144
v 0.309061 2.228998 0.463714
v 0.348458 1.612708 0.129669
v 0.065421 1.588617 0.016785
v 0.132811 1.588617 0.133508
v -0.136748 1.588617 0.133508
v -0.069358 1.588617 0.016785
v 0.348458 1.588617 0.129669
v 0.348458 1.951107 0.492127
v 0.348458 2.185857 0.492895
v 0.348458 2.222274 0.457571
v 0.348458 2.222274 0.346990
v 0.309061 2.132072 0.579670
v 0.309061 2.192020 0.499806
v -1.058434 1.877152 0.439141
v -0.847970 1.576291 0.406120
v -0.849007 1.577412 0.136580
v -1.058434 1.877152 0.103560
v -1.058434 1.956710 0.103560
v -1.058434 1.956710 0.439141
v -0.351359 2.062599 0.217980
v -0.351359 2.185857 0.492895
v -0.351359 1.951107 0.492127
v -0.351359 1.612708 0.129669
v -0.351359 1.588617 0.129669
v -0.311962 2.069323 0.212604
v -0.311962 2.209388 0.311666
v -0.351359 2.222274 0.457571
v -0.351359 2.222274 0.346990
v -0.311962 2.228998 0.340079
v -0.311962 2.228998 0.311666
v -0.470587 2.228998 0.105863
v -0.470587 2.209388 0.105863
v -0.311962 2.228998 0.457571
v -0.311962 2.192020 0.499806
v -0.311962 2.132072 0.579670
v -0.311962 2.228998 0.482144
v -0.768139 1.082139 -0.121441
v -0.851080 1.082139 0.135812
v -0.851080 1.082139 0.406888
v -0.768139 1.082139 0.664141
v 0.857511 1.082139 0.406888
v 0.857511 1.082139 0.135812
v 0.497603 2.185845 -0.670814
v 0.490624 1.956360 -0.686027
v 0.762015 1.877186 -0.488252
v 0.612362 1.576563 -0.338101
v 0.395250 1.577158 -0.497512
v 0.490624 1.877186 -0.686027
v 0.137816 1.577158 -0.580856
v 0.203725 2.185845 -0.738282
v 0.203725 1.873614 -0.732991
v 0.830250 1.956360 -0.555720
v 0.762015 1.956360 -0.488252
v -0.497238 2.185845 -0.670814
v -0.203361 2.185845 -0.738282
v -0.484832 1.956360 -0.686027
v -0.388682 1.577158 -0.497512
v -0.756998 1.877186 -0.488252
v -0.756998 1.956360 -0.488252
v -0.165366 1.956360 -0.789876
v 0.170383 1.877186 -0.789876
v 0.171159 1.956360 -0.789876
v -0.497238 1.873614 -0.969130
v -0.203361 1.873614 -1.014771
v 0.203725 1.873614 -1.014771
v 0.497603 1.873614 -0.969130
v -0.203361 1.577456 -1.014771
v -0.497238 1.577456 -0.969130
v -0.132024 1.576563 -0.580194
v 0.497603 1.577456 -0.969130
v 0.203725 1.577456 -1.014771
v -0.165403 1.877007 1.332261
v -0.485434 1.877007 1.228736
v -0.388455 1.577170 1.040362
v -0.132268 1.577170 1.123609
v 0.137658 1.576743 1.122542
v 0.170792 1.877007 1.332261
v -0.528267 1.956452 1.313584
v -0.484626 1.956452 1.228736
v -0.165403 1.956452 1.332261
v -0.179950 1.956452 1.426715
v 0.170792 1.956452 1.332261
v 0.186147 1.956452 1.426715
v -0.756976 1.877007 1.031290
v -0.390071 1.082139 1.042496
v -0.132268 1.082139 1.125744
v 0.138466 1.082139 1.125744
v -0.824054 1.956452 1.098528
v -0.756976 1.956452 1.031290
v 0.762366 1.877007 1.031290
v 0.490016 1.877007 1.228736
v 0.394653 1.577170 1.040362
v 0.612856 1.576743 0.880804
v 0.534465 1.956452 1.313584
v 0.490824 1.956452 1.228736
v 0.762366 1.956452 1.031290
v 0.830251 1.956452 1.098528
v 0.396269 1.082139 1.042496
v 0.772127 1.577142 0.663197
v 0.959885 1.877046 0.759146
v 0.959886 1.877046 -0.216317
v 0.772125 1.574825 -0.120499
v 0.959959 1.956452 -0.216327
v 0.477174 2.209113 -0.086383
v 0.477174 2.228997 -0.086383
v 1.158465 1.956452 0.088355
v 1.158466 1.956452 0.454337
v 1.174854 1.933793 0.456934
v 1.174854 1.933793 0.085761
v 1.222227 1.956447 -0.407046
v 1.222227 1.956447 0.611227
v 1.045370 1.956452 -0.259716
v 1.060155 1.933793 -0.267252
v 1.107904 1.956452 0.611222
v 0.959957 1.956452 0.759134
v 1.045374 1.956452 0.802412
v 1.060157 1.933793 0.809943
v 0.308542 2.209114 -0.086383
v 0.308542 2.069372 -0.295194
v 0.348034 2.062079 -0.295194
v 0.267699 2.228997 -0.086383
v 0.267699 2.228997 0.482354
v -0.202937 2.078835 0.035819
v -0.203155 2.078835 -0.238836
v 0.204113 2.078835 -0.238836
v 0.204496 2.078835 0.035819
v 0.348034 1.588524 -0.295194
v 0.065503 1.605445 0.016453
v 0.132902 1.605445 0.133774
v -0.136692 1.605445 0.133774
v -0.069294 1.605445 0.016453
v 0.308542 1.605445 0.133774
v 0.308542 1.947192 0.499951
v 0.267699 2.132260 0.579537
v 0.308542 1.947192 0.579537
v 0.267699 1.947192 0.579537
v -0.954565 1.877045 0.759144
v -0.765964 1.577142 0.663198
v -0.954567 1.877046 -0.216316
v -0.765965 1.577142 -0.120498
v -1.152270 1.956452 0.088356
v -1.039175 1.956452 -0.259718
v -0.954493 1.956452 -0.216328
v -1.053959 1.933793 -0.267250
v -1.168656 1.933793 0.085758
v -1.152269 1.956452 0.454339
v -1.168658 1.933793 0.456932
v -1.221368 1.956447 -0.407046
v -1.221367 1.956447 0.611227
v -1.114596 1.956452 0.611249
v -0.954494 1.956452 0.759134
v -1.039174 1.956452 0.802409
v -1.053958 1.933793 0.809944
v -0.312331 1.947192 0.499951
v -0.312331 1.605445 0.133774
v -0.351846 2.062079 -0.295194
v -0.351846 1.588524 -0.295194
v -0.312331 2.069372 -0.295194
v -0.312331 2.209114 -0.086383
v -0.470796 2.228997 -0.086383
v -0.271490 2.228997 -0.086383
v -0.470796 2.209114 -0.086383
v -0.271490 2.228997 0.482354
v -0.312331 1.947192 0.579537
v -0.271490 2.132260 0.579537
v -0.271490 1.947192 0.579537
v -0.606385 1.576563 -0.338102
v -0.608702 1.082139 -0.340436
v -0.608703 1.082139 0.883133
v -0.606386 1.576563 0.880804
v -0.193878 1.588524 -0.295194
v -0.389709 1.082139 -0.499547
v 0.614866 1.082140 0.883134
v -0.132264 1.082139 -0.583194
v 0.138428 1.082139 -0.583192
v 0.773977 1.082139 0.664140
v 0.773977 1.082139 -0.121442
v 0.395873 1.082140 -0.499547
v 0.614867 1.082139 -0.340435
v 0.497391 1.581704 -0.171203
v 0.497391 2.580650 -0.171203
v 0.497391 1.577459 -0.301433
v 0.203551 2.580650 -0.238835
v 0.203551 2.078835 -0.738182
v 0.203551 1.851492 -0.732753
v 0.204496 1.851492 0.035819
v -0.203551 2.078835 -0.738182
v -0.202937 1.851492 0.035819
v -0.203551 1.851492 -0.732753
v -0.203551 1.873713 -0.732753
v 0.877561 1.956447 -0.665408
v 0.841984 1.933793 -0.567536
v -0.203551 2.580650 -0.238835
v -0.497390 2.580650 -0.171203
v -0.497390 1.581704 -0.171203
v -0.485071 1.877046 -0.685812
v -0.497390 1.577459 -0.301433
v -0.824054 1.956452 -0.555806
v -0.876701 1.956447 -0.665408
v -0.835784 1.933793 -0.567537
v -0.527963 1.956452 -0.770927
v -0.535500 1.933793 -0.785710
v -0.769702 1.956447 -0.864575
v 0.534163 1.956452 -0.770927
v 0.541696 1.933793 -0.785712
v 0.770563 1.956447 -0.864575
v -0.179893 1.956452 -0.884020
v -0.165401 1.877046 -0.789679
v -0.589384 1.956447 -1.070148
v -0.268009 1.956447 -1.241928
v 0.000430 1.956447 -1.284114
v 0.186089 1.956452 -0.884020
v 0.268870 1.956447 -1.241928
v -0.182488 1.933793 -0.900409
v 0.188686 1.933793 -0.900409
v 0.590245 1.956447 -1.070148
v -0.203551 1.592732 -0.727325
v -0.203551 1.577459 -0.369065
v -0.203551 1.592733 -0.369065
v 0.203551 1.577459 -0.369065
v 0.203551 1.592732 -0.727325
v 0.203551 1.592733 -0.369065
v -0.182488 1.933793 1.443102
v -0.535499 1.933793 1.328405
v 0.188684 1.933793 1.443102
v -0.835785 1.933793 1.110228
v 0.841981 1.933793 1.110230
v 0.541696 1.933793 1.328402
vn 1.0000 -0.0000 -0.0000
vn -0.0000 -1.0000 -0.0000
vn -0.0000 1.0000 -0.0014
vn 0.0009 1.0000 -0.0007
vn 0.1815 -0.9834 -0.0002
vn 0.1683 -0.9857 0.0008
vn 0.2366 -0.6062 0.7593
vn 0.2087 -0.6146 0.7607
vn 0.7920 -0.0000 -0.6105
vn 0.1682 -0.9857 -0.0000
vn 1.0000 -0.0020 -0.0000
vn 1.0000 -0.0015 -0.0011
vn -0.0000 -0.0000 -1.0000
vn -0.0033 0.0007 -1.0000
vn 1.0000 -0.0000 -0.0011
vn 0.9384 -0.1624 -0.3049
vn 0.7854 -0.5896 -0.1886
vn -0.0000 1.0000 -0.0000
vn -0.9511 0.0009 0.3087
vn -0.9511 -0.0000 0.3089
vn -0.0001 1.0000 -0.0000
vn 0.0011 -1.0000 -0.0012
vn 0.0026 -1.0000 -0.0006
vn 0.7517 -0.5891 -0.2966
vn 1.0000 0.0002 -0.0009
vn 1.0000 0.0011 -0.0007
vn 1.0000 0.0007 -0.0009
vn 0.2056 0.7154 -0.6677
vn 0.2035 0.7157 -0.6682
vn -0.0000 0.0158 -0.9999
vn 0.0175 0.1984 -0.9800
vn 0.1046 -0.0000 -0.9945
vn 0.9513 0.0041 0.3083
vn 0.9511 0.0045 0.3088
vn -0.0000 1.0000 -0.0002
vn 1.0000 0.0063 -0.0000
vn 1.0000 0.0042 -0.0039
vn 0.9511 0.0042 -0.3088
vn 0.9524 0.0065 -0.3048
vn 0.1274 -0.7463 -0.6534
vn 0.2286 -0.6778 -0.6988
vn -0.9516 0.0048 -0.3074
vn -0.9517 0.0045 -0.3069
vn 0.1729 -0.0008 -0.9849
vn 0.1969 0.0032 -0.9804
vn 0.0010 -0.7087 -0.7055
vn 0.0036 -0.7093 -0.7049
vn -1.0000 0.0063 -0.0000
vn -1.0000 0.0042 0.0039
vn 0.0002 1.0000 -0.0004
vn -0.0000 1.0000 -0.0003
vn -0.0003 1.0000 -0.0002
vn -0.0000 -0.0197 -0.9998
vn -0.8084 0.0066 -0.5886
vn -0.8064 0.0047 -0.5914
vn -0.8084 0.0066 0.5886
vn -0.8064 0.0047 0.5914
vn -0.9527 0.0048 0.3039
vn -0.9517 0.0065 0.3069
vn 0.9511 -0.0008 0.3087
vn 0.9511 -0.0000 0.3089
vn -1.0000 -0.0015 0.0010
vn -1.0000 -0.0009 0.0013
vn -1.0000 -0.0000 -0.0000
vn -0.7701 -0.5861 -0.2519
vn -0.7769 -0.5767 -0.2524
vn -0.7711 -0.5862 -0.2485
vn -0.1816 -0.9834 0.0001
vn -0.1684 -0.9857 0.0011
vn -0.0008 1.0000 -0.0007
vn -0.7747 -0.0000 -0.6323
vn 0.9511 -0.0009 -0.3090
vn 0.9511 -0.0000 -0.3088
vn -1.0000 -0.0000 -0.0008
vn -0.0027 -1.0000 -0.0000
vn 0.7813 -0.5703 0.2536
vn 0.7812 -0.5709 0.2526
vn 0.8207 -0.5714 -0.0008
vn 0.8211 -0.5708 -0.0000
vn 0.7856 -0.5668 -0.2482
vn 0.7807 -0.5712 -0.2535
vn -0.8103 -0.5861 -0.0000
vn -0.8103 -0.5860 -0.0000
vn -0.7706 -0.5861 0.2504
vn -0.7706 -0.5860 0.2504
vn -0.0012 -1.0000 -0.0012
vn -0.0026 -1.0000 -0.0008
vn 0.0001 1.0000 -0.0000
vn -0.0025 -1.0000 0.0016
vn -0.7812 -0.5716 0.2511
vn -0.7795 -0.5731 0.2528
vn -0.8197 -0.5727 -0.0000
vn -0.8194 -0.5733 0.0008
vn -0.7804 -0.5717 -0.2532
vn -0.7802 -0.5728 -0.2514
vn -1.0000 0.0028 -0.0000
vn -1.0000 0.0021 0.0016
vn 0.0032 0.0007 -1.0000
vn -0.1728 -0.0002 -0.9850
vn -0.1927 0.0032 -0.9813
vn 0.0025 -1.0000 0.0016
vn 0.8103 -0.5860 -0.0000
vn 0.7706 -0.5860 0.2504
vn -0.9511 0.0008 -0.3088
vn -0.9511 -0.0000 -0.3090
vn 0.0027 -1.0000 -0.0000
vn -0.0175 0.1977 -0.9801
vn -1.0000 -0.0000 0.0010
vn -0.1023 -0.0000 -0.9948
vn -1.0000 -0.0002 0.0008
vn 0.8670 -0.0140 -0.4981
vn 0.8660 0.0032 -0.5000
vn -0.8671 0.0107 -0.4981
vn -0.8660 -0.0065 -0.5000
vn -0.2012 0.7161 -0.6683
vn -0.1991 0.7163 -0.6688
vn -0.1682 -0.9857 -0.0000
vn -0.2286 -0.6800 -0.6967
vn -0.2248 -0.6784 -0.6994
vn -0.2087 -0.6146 0.7607
vn -0.2366 -0.6062 0.7593
vn -0.0036 -0.7087 -0.7055
vn -0.0010 -0.7093 -0.7049
vn -0.0000 -0.5861 0.8103
vn -0.0006 -0.0000 -1.0000
vn -0.0000 -0.0025 -1.0000
vn -0.0000 -1.0000 -0.0010
vn 0.2504 -0.5860 0.7706
vn 0.2504 -0.5861 0.7706
vn 0.0103 -0.9999 0.0129
vn -0.0097 -0.9999 0.0125
vn 0.0001 -1.0000 0.0004
vn 0.1647 0.0261 0.9860
vn 0.1814 0.0021 0.9834
vn -0.1618 0.0248 0.9865
vn -0.1788 -0.0000 0.9839
vn 0.0006 -0.0000 1.0000
vn -0.0000 0.0107 0.9999
vn 0.2046 -0.0537 0.9774
vn 0.2238 0.0005 0.9746
vn 0.3091 -0.0030 -0.9510
vn 0.3085 -0.0000 -0.9512
vn -0.2026 -0.0586 0.9775
vn -0.2238 0.0013 0.9746
vn -0.0000 0.0265 0.9996
vn 0.0006 0.0253 0.9997
vn 0.0003 -1.0000 -0.0009
vn -0.0000 0.0061 -1.0000
vn -0.0025 0.0047 -1.0000
vn 1.0000 -0.0079 -0.0000
vn -0.3090 0.0059 -0.9510
vn -0.3066 0.0045 -0.9518
vn 1.0000 -0.0000 0.0006
vn 0.2532 -0.5714 -0.7807
vn 0.2528 -0.5711 -0.7810
vn -0.1535 -0.0000 0.9882
vn 0.9999 0.0114 -0.0000
vn 1.0000 -0.0000 0.0003
vn -0.9997 -0.0230 -0.0003
vn -0.9997 -0.0000 -0.0246
vn -0.0007 -0.5720 -0.8203
vn -0.0002 -0.5716 -0.8205
vn -1.0000 -0.0000 -0.0007
vn -1.0000 -0.0069 -0.0003
vn -0.2504 -0.5861 0.7706
vn 0.1535 -0.0000 0.9882
vn -0.1771 -0.8196 -0.5450
vn -0.2536 -0.5715 -0.7804
vn -0.2527 -0.5721 -0.7803
vn 0.9991 -0.0000 -0.0429
vn 0.9992 -0.0408 0.0002
vn -0.3090 -0.0022 -0.9511
vn -0.3091 -0.0016 -0.9510
vn 0.6658 -0.5673 -0.4847
vn 0.6590 -0.5720 -0.4884
vn 1.0000 -0.0000 -0.0008
vn 0.8090 0.0042 -0.5878
vn 0.8061 0.0069 -0.5918
vn -0.6539 -0.5888 0.4751
vn -0.6554 -0.5861 0.4765
vn 0.8086 -0.0008 -0.5884
vn 0.8085 -0.0000 -0.5885
vn -0.0010 1.0000 0.0004
vn 0.0001 -1.0000 0.0002
vn 0.0002 -1.0000 0.0002
vn -0.9999 -0.0173 0.0006
vn -0.9998 -0.0000 0.0176
vn 0.5878 0.0068 -0.8090
vn 0.5918 0.0041 -0.8060
vn -1.0000 -0.0000 -0.0004
vn -0.9990 0.0282 0.0336
vn 0.4836 -0.5707 -0.6636
vn 0.4845 -0.5718 -0.6620
vn 0.3090 0.0043 -0.9511
vn 0.3080 0.0049 -0.9514
vn -1.0000 -0.0008 0.0011
vn -1.0000 0.0079 -0.0025
vn -0.1413 -0.7768 0.6138
vn -0.1409 -0.7767 0.6139
vn 1.0000 -0.0016 -0.0011
vn 1.0000 0.0011 -0.0005
vn -1.0000 -0.0000 0.0012
vn -1.0000 -0.0006 0.0014
vn 0.1413 -0.7767 0.6138
vn 0.1410 -0.7766 0.6140
vn -0.5878 -0.0004 -0.8090
vn -0.5879 -0.0000 -0.8090
vn -0.0006 -1.0000 -0.0008
vn 0.4763 -0.5861 0.6555
vn 0.4763 -0.5860 0.6556
vn -0.0002 -1.0000 -0.0002
vn 0.0006 -1.0000 -0.0008
vn -0.0002 1.0000 0.0007
vn -0.0003 -1.0000 -0.0009
vn -0.4763 -0.5861 0.6555
vn -0.4752 -0.5892 0.6535
vn 0.5890 -0.0000 -0.8082
vn -0.8091 0.0007 -0.5877
vn -0.8090 -0.0000 -0.5878
vn -0.5878 0.0066 -0.8090
vn -0.5908 0.0045 -0.8068
vn -0.4824 -0.5717 -0.6636
vn -0.4832 -0.5728 -0.6621
vn -1.0000 -0.0008 0.0002
vn -1.0000 0.0018 0.0008
vn 0.9969 0.0499 0.0606
vn 0.9996 -0.0029 0.0297
vn 0.9995 -0.0321 0.0010
vn -0.0001 -1.0000 0.0002
vn -0.0008 -1.0000 -0.0006
vn 0.6556 -0.5860 0.4763
vn 0.6555 -0.5860 0.4763
vn -0.6625 -0.5714 -0.4843
vn -0.6630 -0.5729 -0.4820
vn 0.5881 -0.0060 0.8088
vn 0.5870 -0.0000 0.8096
vn -0.4765 -0.5854 -0.6559
vn -0.4780 -0.5825 -0.6574
vn -0.2507 -0.5846 -0.7716
vn -0.2504 -0.5856 -0.7710
vn -0.6639 -0.5717 0.4820
vn -0.6613 -0.5736 0.4834
vn -0.8093 0.0008 0.5874
vn -0.8092 -0.0000 0.5875
vn 0.2509 -0.5709 0.7817
vn 0.2529 -0.5726 0.7799
vn 0.4832 -0.5726 0.6623
vn 0.4819 -0.5709 0.6647
vn 0.3046 0.0051 0.9525
vn 0.3073 0.0067 0.9516
vn 0.8069 0.0041 0.5906
vn 0.8090 0.0061 0.5878
vn 0.5891 0.0062 0.8080
vn 0.5903 0.0054 0.8072
vn 0.8093 -0.0006 0.5874
vn 0.8092 -0.0000 0.5875
vn 0.6634 -0.5703 0.4845
vn 0.6639 -0.5720 0.4818
vn 0.3085 -0.0031 0.9512
vn 0.3078 -0.0000 0.9515
vn -0.6556 -0.5860 -0.4763
vn -0.6558 -0.5856 -0.4765
vn 0.6555 -0.5861 -0.4762
vn 0.6558 -0.5856 -0.4765
vn -0.0000 -0.5860 -0.8103
vn -0.4818 -0.5734 0.6626
vn -0.4833 -0.5724 0.6623
vn -0.0000 -0.0000 1.0000
vn -0.3085 0.0031 0.9512
vn -0.3078 -0.0000 0.9515
vn 0.0023 -0.5728 0.8197
vn -0.0000 -0.5712 0.8208
vn -0.2537 -0.5712 0.7806
vn -0.2525 -0.5720 0.7805
vn 0.2507 -0.5847 -0.7716
vn 0.2504 -0.5856 -0.7709
vn 0.4777 -0.5826 -0.6575
vn 0.4768 -0.5854 -0.6557
vn -0.5870 -0.0000 0.8096
vn -0.5881 0.0060 0.8088
vn -0.0000 0.0065 1.0000
vn 0.0040 0.0043 1.0000
vn -0.3073 0.0041 0.9516
vn -0.3090 0.0051 0.9510
vn -0.5890 0.0066 0.8081
vn -0.5907 0.0054 0.8068
s 0
f 83//27 79//27 80//27
f 83//27 80//27 84//27
f 85//28 214//28 215//28
f 85//28 215//28 84//28
f 213//29 216//29 86//29
f 213//30 86//30 80//30
f 210//31 212//31 79//31
f 210//32 79//32 74//32
f 74//27 82//27 81//27
f 74//27 81//27 75//27
f 79//33 83//33 82//33
f 79//34 82//34 74//34
f 80//35 86//35 85//35
f 80//35 85//35 84//35
f 82//36 83//36 87//36
f 82//36 87//36 81//36
f 89//37 218//37 208//37
f 89//38 208//38 88//38
f 219//39 220//39 218//39
f 219//40 218//40 89//40
f 86//41 216//41 214//41
f 86//41 214//41 85//41
f 215//28 217//28 87//28
f 215//28 87//28 83//28
f 83//28 84//28 215//28
f 207//42 201//42 204//42
f 204//43 201//43 200//43
f 204//44 200//44 203//44
f 68//45 191//45 205//45
f 68//46 205//46 73//46
f 202//47 203//47 200//47
f 202//47 200//47 195//47
f 73//48 205//48 204//48
f 73//49 204//49 200//49
f 204//28 205//28 206//28
f 204//50 206//50 207//50
f 76//27 77//27 74//27
f 76//27 74//27 75//27
f 210//51 74//51 77//51
f 210//41 77//41 78//41
f 210//41 78//41 211//41
f 79//52 212//52 213//52
f 79//53 213//53 80//53
f 76//54 208//54 209//54
f 76//55 209//55 77//55
f 209//56 184//56 59//56
f 209//57 59//57 78//57
f 209//58 78//58 77//58
f 227//28 223//28 94//28
f 227//28 94//28 93//28
f 228//28 229//28 227//28
f 228//28 227//28 226//28
f 41//59 153//59 230//59
f 41//60 230//60 95//60
f 225//61 211//61 78//61
f 225//61 78//61 59//61
f 222//28 226//28 227//28
f 222//28 227//28 91//28
f 227//28 93//28 92//28
f 227//28 92//28 91//28
f 95//62 96//62 43//62
f 95//63 43//63 41//63
f 227//28 231//28 96//28
f 227//28 96//28 95//28
f 230//28 227//28 95//28
f 231//28 227//28 233//28
f 96//64 231//64 156//64
f 96//65 156//65 43//65
f 61//44 57//44 58//44
f 232//28 233//28 227//28
f 232//28 227//28 229//28
f 81//66 87//66 88//66
f 81//67 88//67 75//67
f 90//27 88//27 87//27
f 90//28 87//28 217//28
f 70//68 194//68 91//68
f 70//69 91//69 92//69
f 75//70 88//70 208//70
f 75//71 208//71 76//71
f 217//72 219//72 89//72
f 217//73 89//73 90//73
f 89//27 88//27 90//27
f 92//74 93//74 69//74
f 92//75 69//75 70//75
f 61//61 181//61 225//61
f 61//76 225//76 57//76
f 60//77 57//77 225//77
f 60//78 225//78 59//78
f 60//79 185//79 182//79
f 60//79 182//79 57//79
f 221//80 222//80 91//80
f 221//81 91//81 194//81
f 94//82 223//82 224//82
f 94//83 224//83 192//83
f 94//84 192//84 69//84
f 94//85 69//85 93//85
f 48//86 169//86 154//86
f 48//87 154//87 42//87
f 172//88 173//88 49//88
f 172//89 49//89 50//89
f 50//90 49//90 51//90
f 50//90 51//90 52//90
f 170//28 169//28 168//28
f 170//91 168//91 171//91
f 162//92 171//92 168//92
f 161//93 162//93 168//93
f 161//44 168//44 165//44
f 49//94 173//94 174//94
f 49//95 174//95 53//95
f 175//28 55//28 54//28
f 175//28 54//28 176//28
f 51//28 55//28 175//28
f 51//28 175//28 52//28
f 179//28 180//28 177//28
f 179//28 177//28 178//28
f 175//28 159//28 47//28
f 175//28 47//28 52//28
f 46//29 158//29 172//29
f 46//96 172//96 50//96
f 46//97 50//97 52//97
f 46//97 52//97 47//97
f 44//98 155//98 157//98
f 44//99 157//99 45//99
f 47//100 159//100 158//100
f 47//100 158//100 46//100
f 160//101 161//101 48//101
f 160//101 48//101 45//101
f 42//102 154//102 153//102
f 42//103 153//103 41//103
f 41//104 43//104 44//104
f 41//105 44//105 42//105
f 43//106 156//106 155//106
f 43//107 155//107 44//107
f 160//108 163//108 162//108
f 160//109 162//109 161//109
f 160//110 166//110 167//110
f 160//111 167//111 163//111
f 160//44 164//44 166//44
f 168//112 169//112 48//112
f 168//113 48//113 161//113
f 45//27 48//27 42//27
f 45//27 42//27 44//27
f 161//114 165//114 164//114
f 161//114 164//114 160//114
f 157//28 166//28 160//28
f 157//115 160//115 45//115
f 69//116 192//116 191//116
f 69//117 191//117 68//117
f 68//118 71//118 70//118
f 68//119 70//119 69//119
f 71//120 193//120 194//120
f 71//121 194//121 70//121
f 187//122 189//122 66//122
f 187//123 66//123 67//123
f 189//39 190//39 188//39
f 189//124 188//124 66//124
f 187//125 67//125 63//125
f 187//126 63//126 62//126
f 195//28 196//28 197//28
f 195//127 197//127 72//127
f 200//128 201//128 199//128
f 200//128 199//128 195//128
f 73//90 72//90 71//90
f 73//90 71//90 68//90
f 195//44 196//44 202//44
f 195//129 199//129 198//129
f 195//129 198//129 196//129
f 197//130 193//130 71//130
f 197//131 71//131 72//131
f 73//132 200//132 195//132
f 73//132 195//132 72//132
f 58//56 183//56 186//56
f 58//133 186//133 61//133
f 56//134 181//134 61//134
f 56//135 61//135 186//135
f 62//90 63//90 53//90
f 62//90 53//90 56//90
f 174//134 181//134 56//134
f 174//136 56//136 53//136
f 57//137 182//137 183//137
f 57//138 183//138 58//138
f 59//139 184//139 185//139
f 59//140 185//140 60//140
f 186//141 187//141 62//141
f 186//142 62//142 56//142
f 67//90 66//90 54//90
f 67//90 54//90 55//90
f 65//143 64//143 55//143
f 65//143 55//143 51//143
f 63//144 67//144 55//144
f 63//145 55//145 64//145
f 64//90 65//90 53//90
f 64//90 53//90 63//90
f 49//146 53//146 65//146
f 49//147 65//147 51//147
f 188//148 176//148 54//148
f 188//149 54//149 66//149
f 261//150 268//150 269//150
f 261//150 269//150 266//150
f 116//151 115//151 262//151
f 116//152 262//152 114//152
f 265//44 264//44 261//44
f 261//153 266//153 116//153
f 261//153 116//153 114//153
f 268//154 261//154 255//154
f 268//155 255//155 256//155
f 260//44 270//44 258//44
f 105//28 119//28 120//28
f 105//156 120//156 102//156
f 244//157 250//157 117//157
f 244//158 117//158 118//158
f 270//44 267//44 266//44
f 270//44 266//44 258//44
f 266//44 267//44 265//44
f 266//44 265//44 261//44
f 250//159 244//159 241//159
f 250//160 241//160 110//160
f 238//161 105//161 102//161
f 238//162 102//162 98//162
f 105//163 244//163 243//163
f 105//164 243//164 239//164
f 108//165 110//165 241//165
f 108//166 241//166 109//166
f 115//167 116//167 98//167
f 115//168 98//168 102//168
f 261//44 264//44 263//44
f 261//44 263//44 255//44
f 257//44 255//44 263//44
f 238//169 98//169 97//169
f 238//170 97//170 104//170
f 238//171 241//171 244//171
f 238//172 244//172 105//172
f 266//173 258//173 98//173
f 266//173 98//173 116//173
f 229//174 228//174 123//174
f 229//175 123//175 103//175
f 274//44 236//44 124//44
f 274//44 124//44 125//44
f 105//176 239//176 119//176
f 123//177 228//177 226//177
f 123//178 226//178 111//178
f 239//179 275//179 125//179
f 239//179 125//179 119//179
f 103//180 115//180 102//180
f 103//181 102//181 101//181
f 119//182 125//182 124//182
f 119//182 124//182 120//182
f 125//183 275//183 276//183
f 125//184 276//184 274//184
f 124//185 236//185 102//185
f 124//186 102//186 120//186
f 103//187 123//187 262//187
f 103//188 262//188 115//188
f 244//189 118//189 243//189
f 272//90 273//90 271//90
f 272//190 271//190 121//190
f 258//191 266//191 269//191
f 258//191 269//191 259//191
f 121//189 271//189 243//189
f 121//189 243//189 118//189
f 122//192 121//192 118//192
f 122//192 118//192 117//192
f 250//193 262//193 211//193
f 111//194 250//194 262//194
f 111//195 262//195 123//195
f 122//44 251//44 272//44
f 122//44 272//44 121//44
f 122//196 117//196 250//196
f 122//197 250//197 251//197
f 114//198 262//198 250//198
f 114//199 250//199 110//199
f 239//44 243//44 242//44
f 239//44 242//44 240//44
f 99//200 155//200 156//200
f 99//201 156//201 100//201
f 178//202 177//202 242//202
f 178//202 242//202 243//202
f 244//202 241//202 178//202
f 244//202 178//202 243//202
f 156//203 231//203 233//203
f 156//204 233//204 100//204
f 106//205 246//205 167//205
f 106//206 167//206 166//206
f 157//207 155//207 99//207
f 157//208 99//208 107//208
f 166//44 164//44 245//44
f 166//209 245//209 106//209
f 106//210 166//210 157//210
f 106//211 157//211 107//211
f 178//28 241//28 238//28
f 178//28 238//28 179//28
f 236//212 234//212 98//212
f 236//213 98//213 102//213
f 100//214 233//214 232//214
f 100//215 232//215 101//215
f 234//216 235//216 97//216
f 234//217 97//217 98//217
f 101//218 102//218 99//218
f 101//219 99//219 100//219
f 101//220 232//220 229//220
f 101//221 229//221 103//221
f 179//222 238//222 105//222
f 179//223 105//223 239//223
f 97//224 235//224 237//224
f 97//225 237//225 104//225
f 179//226 238//226 104//226
f 179//227 104//227 237//227
f 239//228 240//228 180//228
f 239//229 180//229 179//229
f 247//230 248//230 108//230
f 247//231 108//231 109//231
f 110//232 250//232 112//232
f 110//233 112//233 113//233
f 255//44 257//44 253//44
f 255//44 253//44 252//44
f 252//234 255//234 110//234
f 252//234 110//234 113//234
f 256//235 255//235 252//235
f 256//236 252//236 254//236
f 258//237 106//237 107//237
f 258//238 107//238 98//238
f 245//44 260//44 258//44
f 245//239 258//239 106//239
f 255//240 261//240 114//240
f 255//240 114//240 110//240
f 258//241 259//241 246//241
f 258//242 246//242 106//242
f 98//243 107//243 99//243
f 98//243 99//243 102//243
f 193//244 197//244 113//244
f 193//245 113//245 112//245
f 226//246 222//246 221//246
f 226//247 221//247 111//247
f 112//248 250//248 111//248
f 112//249 111//249 221//249
f 178//250 247//250 109//250
f 178//251 109//251 241//251
f 249//252 110//252 108//252
f 249//184 108//184 248//184
f 251//253 250//253 110//253
f 251//254 110//254 249//254
f 113//255 197//255 196//255
f 113//256 196//256 252//256
f 198//257 254//257 252//257
f 198//258 252//258 196//258
f 221//259 194//259 193//259
f 221//260 193//260 112//260
f 253//44 202//44 196//44
f 253//44 196//44 252//44
f 150//261 149//261 145//261
f 150//262 145//262 144//262
f 151//263 281//263 282//263
f 151//264 282//264 148//264
f 148//265 282//265 279//265
f 148//266 279//266 137//266
f 149//28 148//28 137//28
f 149//28 137//28 136//28
f 150//28 151//28 148//28
f 150//28 148//28 149//28
f 138//267 191//267 192//267
f 138//268 192//268 224//268
f 143//269 205//269 191//269
f 143//270 191//270 138//270
f 130//271 146//271 145//271
f 130//272 145//272 131//272
f 146//273 147//273 144//273
f 146//274 144//274 145//274
f 141//28 227//28 152//28
f 152//275 146//275 130//275
f 152//276 130//276 141//276
f 230//277 153//277 147//277
f 230//278 147//278 227//278
f 152//279 227//279 147//279
f 152//280 147//280 146//280
f 144//281 154//281 169//281
f 144//282 169//282 150//282
f 147//283 153//283 154//283
f 147//284 154//284 144//284
f 131//285 145//285 149//285
f 131//286 149//286 136//286
f 151//287 170//287 171//287
f 151//288 171//288 281//288
f 169//28 170//28 151//28
f 169//28 151//28 150//28
f 207//289 206//289 142//289
f 207//290 142//290 280//290
f 137//291 279//291 277//291
f 137//291 277//291 135//291
f 136//28 137//28 135//28
f 136//28 135//28 134//28
f 127//292 138//292 224//292
f 127//293 224//293 128//293
f 136//294 134//294 126//294
f 136//294 126//294 131//294
f 134//295 133//295 127//295
f 134//296 127//296 126//296
f 129//297 130//297 131//297
f 129//298 131//298 126//298
f 128//299 129//299 126//299
f 128//300 126//300 127//300
f 277//301 278//301 132//301
f 277//302 132//302 135//302
f 134//28 135//28 132//28
f 134//28 132//28 133//28
f 132//303 278//303 280//303
f 132//304 280//304 142//304
f 142//28 143//28 133//28
f 142//28 133//28 132//28
f 206//28 205//28 143//28
f 206//28 143//28 142//28
f 133//305 143//305 138//305
f 133//306 138//306 127//306
f 223//28 227//28 139//28
f 140//307 141//307 130//307
f 140//308 130//308 129//308
f 139//309 140//309 129//309
f 139//310 129//310 128//310
f 227//28 141//28 140//28
f 227//28 140//28 139//28
f 224//311 223//311 139//311
f 224//312 139//312 128//312
o Turret_01_havok_s_armor_2_1
v -0.929706 2.629658 -0.101336
v -0.666743 2.629658 -0.298055
v -0.576855 2.931699 -0.129190
v -0.822582 2.931699 0.054472
v -0.248348 2.141926 -1.133632
v -0.129714 2.064355 -1.205636
v 0.205869 2.785483 -0.757237
v 0.107000 2.874979 -0.730404
v 0.000254 2.906166 -0.726467
v -0.107822 2.874248 -0.729657
v -0.204720 2.789222 -0.755053
v 0.001627 2.040068 -1.234808
v 0.126943 2.064243 -1.206370
v 0.249207 2.141926 -1.133632
vn 0.2228 -0.5033 0.8349
vn 0.0818 -0.5534 0.8289
vn -0.0927 -0.5190 0.8497
vn -0.1807 -0.5056 0.8436
vn 0.5076 -0.5303 0.6791
vn 0.5078 -0.5306 0.6787
vn 0.1253 -0.5653 0.8153
vn -0.1409 -0.4239 0.8947
vn -0.0967 -0.4433 0.8911
vn 0.1215 -0.4972 0.8591
s 0
f 287//313 292//313 293//313
f 289//314 288//314 294//314
f 289//315 294//315 295//315
f 296//316 289//316 295//316
f 285//317 286//317 283//317
f 285//318 283//318 284//318
f 287//319 288//319 289//319
f 287//320 289//320 290//320
f 287//321 290//321 291//321
f 287//322 291//322 292//322
o Turret_01_havok_s_armor_1_2
v -0.467640 2.954910 -0.382561
v -0.876701 1.956447 -0.665408
v -0.769702 1.956447 -0.864575
v -0.299290 2.954909 -0.596630
v -0.507146 2.955124 -0.162993
v -0.666742 2.629658 -0.298055
v -0.576855 2.931699 -0.129190
v -0.822581 2.931699 0.054472
v -0.848685 2.955124 0.092285
v -0.204720 2.789223 -0.755053
v -0.107821 2.874248 -0.729657
v -0.191897 2.954910 -0.658303
v -1.221368 1.956447 -0.407045
v -0.929706 2.629658 -0.101336
v -0.589384 1.956447 -1.070148
v -0.248348 2.141926 -1.133632
v -0.268009 1.956447 -1.241928
v -0.129713 2.064355 -1.205636
v 0.000430 1.956447 -1.284114
v 0.001627 2.040068 -1.234808
v 0.249207 2.141926 -1.133632
v 0.590245 1.956447 -1.070148
v 0.205870 2.785483 -0.757237
v 0.268870 1.956447 -1.241928
v 0.126943 2.064243 -1.206370
v 0.300149 2.954909 -0.596630
v 0.192758 2.954910 -0.658303
v 0.106999 2.874979 -0.730404
v 0.000430 2.954910 -0.697086
v 0.000254 2.906166 -0.726467
v 0.770563 1.956447 -0.864575
v 0.877561 1.956447 -0.665408
v 0.468500 2.954910 -0.382561
v 0.508007 2.955124 -0.162993
v 1.222227 1.956447 -0.407045
v 0.849545 2.955124 0.092285
vn -0.4373 -0.4785 0.7615
vn -0.2302 -0.5039 0.8325
vn -0.1641 -0.5579 0.8136
vn -0.1183 -0.5123 0.8506
vn -0.1372 -0.4685 0.8728
vn -0.0974 -0.5045 0.8579
vn -0.4064 -0.4815 0.7765
vn -0.4104 -0.4918 0.7679
vn -0.1766 -0.5102 0.8417
vn -0.8963 -0.4130 0.1617
vn -0.5087 -0.5297 0.6787
vn -0.5079 -0.5293 0.6796
vn -0.4267 -0.4858 0.7629
vn -0.6639 -0.4691 0.5824
vn 0.1263 -0.5124 0.8494
vn 0.1649 -0.5515 0.8177
vn -0.6927 -0.4726 0.5448
vn -0.7895 -0.4436 0.4241
vn 0.1371 -0.4691 0.8724
vn 0.0966 -0.5066 0.8568
vn 0.5075 -0.5305 0.6790
vn 0.5075 -0.5304 0.6790
vn 0.4373 -0.4785 0.7615
vn 0.2239 -0.5043 0.8340
vn 0.5075 -0.5306 0.6789
vn 0.7895 -0.4436 0.4241
vn 0.6927 -0.4726 0.5448
vn 0.8963 -0.4130 0.1617
vn 0.5011 -0.5297 0.6843
vn 0.4064 -0.4815 0.7765
vn 0.4104 -0.4918 0.7679
vn 0.1772 -0.5102 0.8416
vn 0.6639 -0.4691 0.5824
vn 0.4268 -0.4858 0.7628
vn 0.5240 -0.5298 0.6668
vn 0.5086 -0.5293 0.6790
vn 0.5090 -0.5289 0.6791
vn 0.5082 -0.5292 0.6794
s 0
f 319//323 322//323 323//323
f 319//324 323//324 324//324
f 324//325 323//325 325//325
f 324//326 325//326 326//326
f 315//327 320//327 321//327
f 315//328 321//328 316//328
f 317//329 318//329 319//329
f 320//330 318//330 317//330
f 320//331 317//331 321//331
f 330//332 329//332 328//332
f 330//333 328//333 331//333
f 332//334 330//334 331//334
f 322//335 319//335 318//335
f 322//336 318//336 327//336
f 307//337 326//337 325//337
f 307//338 325//338 308//338
f 329//339 322//339 327//339
f 329//340 327//340 328//340
f 314//341 313//341 315//341
f 314//342 315//342 316//342
f 301//343 305//343 304//343
f 301//344 304//344 303//344
f 308//345 300//345 306//345
f 308//346 306//346 307//346
f 303//347 302//347 301//347
f 297//348 298//348 299//348
f 297//349 299//349 300//349
f 298//350 297//350 301//350
f 298//351 301//351 302//351
f 312//352 306//352 311//352
f 312//353 311//353 313//353
f 312//354 313//354 314//354
f 300//355 299//355 311//355
f 300//356 311//356 306//356
f 309//357 310//357 304//357
f 309//358 304//358 305//358
f 310//359 309//359 298//359
f 310//360 298//360 302//360
o Turret_01_havok_s_armor_3_3
v -1.221385 2.475099 0.185693
v -0.956370 2.671386 0.185693
v 0.957229 2.671386 0.185693
v 1.222244 2.475099 0.185693
v -1.221366 1.956447 0.611227
v -1.221367 1.956447 -0.407045
v -1.221385 2.475099 0.611228
v -0.956278 2.671386 0.611228
v -0.848684 2.955124 0.092285
v 0.849545 2.955124 0.092285
v 1.222227 1.956447 -0.407045
v 1.222244 2.475099 0.611228
v 0.957137 2.671386 0.611228
v 0.849545 2.955124 0.611228
v 1.222227 1.956447 0.611227
v -0.848684 2.955124 0.611228
vn -0.9350 -0.3546 -0.0000
vn -0.9349 -0.3549 -0.0002
vn -0.5951 -0.8037 -0.0000
vn -0.5952 -0.8036 -0.0001
vn 0.9350 -0.3546 -0.0000
vn 0.9349 -0.3549 -0.0002
vn -1.0000 -0.0000 -0.0000
vn 0.5951 -0.8037 -0.0000
vn 0.5952 -0.8036 -0.0001
vn 1.0000 -0.0000 -0.0000
vn -0.4869 -0.6573 0.5752
vn -0.9357 -0.3528 0.0072
vn 0.4869 -0.6573 0.5752
vn 0.9357 -0.3528 0.0072
s 0
f 345//361 346//361 342//361
f 345//362 342//362 335//362
f 336//363 344//363 345//363
f 336//364 345//364 335//364
f 341//365 348//365 340//365
f 341//366 340//366 334//366
f 347//367 344//367 336//367
f 347//367 336//367 343//367
f 340//368 339//368 333//368
f 340//369 333//369 334//369
f 333//370 339//370 337//370
f 333//370 337//370 338//370
f 343//371 336//371 335//371
f 343//372 335//372 342//372
f 334//373 333//373 338//373
f 334//374 338//374 341//374
o Turret_01_havok_s_armor_4_4
v 0.849544 2.955124 0.611228
v -0.848685 2.955124 0.092285
v -0.507147 2.955124 -0.162993
v 0.849544 2.955124 0.092285
v -0.848685 2.955124 0.611228
v -0.467640 2.954910 -0.382561
v 0.508006 2.955124 -0.162993
v -0.299289 2.954909 -0.596630
v 0.468500 2.954910 -0.382561
v 0.300150 2.954909 -0.596630
v -0.191898 2.954910 -0.658303
v 0.192758 2.954910 -0.658303
v 0.000430 2.954910 -0.697086
vn -0.0000 -1.0000 -0.0000
vn -0.0003 -1.0000 0.0010
vn 0.0002 -1.0000 0.0002
vn -0.0000 -1.0000 0.0010
s 0
f 357//375 356//375 358//375
f 356//375 359//375 360//375
f 356//375 360//375 358//375
f 360//375 359//375 361//375
f 356//376 357//376 355//376
f 356//377 355//377 354//377
f 351//375 352//375 349//375
f 351//375 349//375 350//375
f 353//375 350//375 349//375
f 351//378 354//378 355//378
f 351//375 355//375 352//375
o Hull_havok_s_armor_1_0
v -0.910150 1.948743 -2.007271
v 0.910261 1.948742 -2.007271
v 0.910261 1.933391 -1.992926
v -0.910150 1.933391 -1.992926
v -0.910150 1.100090 -3.210693
v 0.910261 1.100090 -3.210693
vn -0.0000 -0.8172 0.5763
vn -0.0000 -0.6827 -0.7307
s 0
f 366//379 367//379 363//379
f 366//379 363//379 362//379
f 364//380 365//380 362//380
f 364//380 362//380 363//380
o Hull_havok_s_armor_2_1
v -0.910150 0.555389 -2.419310
v 0.910261 0.555389 -2.419336
v 0.910261 1.100090 -3.210693
v -0.910150 1.100090 -3.210693
vn -0.0000 0.8237 0.5670
s 0
f 370//381 371//381 368//381
f 370//381 368//381 369//381
o Hull_havok_s_armor_3_2
v -1.635316 1.247561 2.945083
v -1.635316 1.417934 1.299643
v -1.635316 1.509376 1.505731
v -1.635316 1.517452 3.100906
v 1.635426 1.509376 1.505731
v 1.635426 1.417892 1.299643
v 1.635426 1.247837 2.945243
v 1.635428 1.517175 3.100746
v 1.635426 1.506428 -1.194248
v 1.635426 1.509376 1.147321
v 1.634109 1.933120 1.505722
v 1.635299 1.933120 -1.194248
v -1.635316 1.509376 1.147321
v -1.634663 1.933121 -1.194248
v -1.634663 1.933120 1.505736
v -1.635316 1.506428 -1.194248
vn 1.0000 -0.0015 -0.0000
vn 1.0000 -0.0000 -0.0000
vn -1.0000 -0.0021 -0.0012
vn -1.0000 -0.0031 0.0014
vn -1.0000 -0.0000 -0.0000
vn -1.0000 -0.0003 -0.0004
vn -1.0000 -0.0031 -0.0000
s 0
f 385//382 386//382 374//382
f 385//382 374//382 384//382
f 387//382 385//382 384//382
f 384//383 374//383 373//383
f 382//384 381//384 377//384
f 382//385 377//385 376//385
f 374//383 375//383 372//383
f 374//383 372//383 373//383
f 378//386 379//386 376//386
f 378//386 376//386 377//386
f 382//387 383//387 380//387
f 382//388 380//388 381//388
o Hull_havok_s_armor_4_3
v 0.910261 1.248686 2.945733
v -0.910149 1.247999 2.945337
v -1.286831 1.933390 3.341046
v 1.287229 1.933390 3.341046
v -1.635316 1.247561 2.945083
v -1.635316 1.517452 3.100906
v 0.910261 0.548444 2.540313
v -0.910149 0.548444 2.540313
v 1.635428 1.517175 3.100746
v 1.635426 1.247837 2.945243
vn -0.0000 0.5011 -0.8654
vn -0.0000 0.5000 -0.8660
s 0
f 394//389 395//389 389//389
f 394//389 389//389 388//389
f 396//390 397//390 388//390
f 396//390 388//390 391//390
f 390//390 391//390 388//390
f 390//390 388//390 389//390
f 389//390 392//390 393//390
f 389//390 393//390 390//390
o Hull_havok_s_armor_5_4
v -1.286832 1.933391 1.505742
v 1.287229 1.933391 1.505711
v 1.287229 1.933390 3.341046
v -1.286832 1.933390 3.341046
v 0.000054 1.933390 1.396308
v 0.341972 1.933390 1.342121
v 0.650419 1.933390 1.184869
v -0.650312 1.933390 1.184869
v -0.341864 1.933390 1.342121
v -0.895098 1.933390 0.939944
v 0.910260 1.933391 -1.194246
v 1.635299 1.933120 -1.194248
v 1.634108 1.933120 1.505721
v 1.106524 1.933391 0.289207
v 1.052370 1.933391 -0.052904
v 0.895208 1.933391 -0.361529
v 1.052370 1.933390 0.631320
v 0.895206 1.933390 0.939944
v -0.910150 1.933391 -1.194246
v -1.634662 1.933120 1.505736
v -1.634662 1.933121 -1.194248
v -1.106415 1.933391 0.289207
v -1.052260 1.933390 0.631320
v -1.052260 1.933391 -0.052906
v -0.895098 1.933391 -0.361529
v 0.341974 1.933391 -0.763706
v 0.000054 1.933391 -0.817890
v -0.341864 1.933391 -0.763706
v -0.650311 1.933391 -0.606454
v 0.650421 1.933391 -0.606454
v -0.910150 1.933391 -1.992926
v 0.910260 1.933391 -1.992926
vn -0.0000 -1.0000 -0.0000
vn 0.0004 -1.0000 -0.0000
vn 0.0008 -1.0000 0.0001
vn -0.0004 -1.0000 -0.0000
vn -0.0008 -1.0000 0.0001
s 0
f 420//391 407//391 398//391
f 420//391 398//391 419//391
f 421//391 419//391 416//391
f 421//391 416//391 422//391
f 417//392 418//392 416//392
f 417//393 416//393 398//393
f 416//391 419//391 398//391
f 408//391 423//391 416//391
f 408//391 413//391 427//391
f 408//391 427//391 423//391
f 428//391 429//391 408//391
f 428//391 408//391 416//391
f 416//391 423//391 424//391
f 416//391 424//391 425//391
f 426//391 422//391 416//391
f 426//391 416//391 425//391
f 415//391 399//391 404//391
f 399//391 398//391 402//391
f 406//391 402//391 398//391
f 406//391 398//391 405//391
f 400//391 401//391 398//391
f 400//391 398//391 399//391
f 399//391 402//391 403//391
f 399//391 403//391 404//391
f 405//391 398//391 407//391
f 408//391 411//391 412//391
f 408//391 412//391 413//391
f 414//391 411//391 399//391
f 414//391 399//391 415//391
f 408//394 409//394 410//394
f 408//395 410//395 399//395
f 408//391 399//391 411//391
o Hull_havok_s_armor_6_5
v -0.910150 0.555389 -2.419311
v -0.910150 0.548444 2.540313
v 0.910261 0.548444 2.540313
v 0.910261 0.555389 -2.419336
vn -0.0000 1.0000 0.0014
s 0
f 432//396 433//396 430//396
f 432//396 430//396 431//396
o Hull_havok_s_armor_7_6
v -0.910150 1.509375 1.147322
v -0.910150 1.417905 1.299642
v -0.910150 0.555389 -2.419311
v -0.910150 1.506428 -1.194248
v -0.910150 1.933391 -1.992926
v -0.910150 1.933391 -1.194247
v -0.910150 1.247999 2.945337
v -0.910150 0.548444 2.540313
v 0.910261 0.548444 2.540313
v 0.910261 1.248686 2.945733
v 0.910261 1.417908 1.299642
v 0.910261 0.555389 -2.419335
v 0.910261 1.509375 1.147322
v 0.910261 1.506428 -1.194248
v 0.910261 1.100090 -3.210693
v 0.910261 1.933391 -1.992926
v 0.910261 1.948742 -2.007271
v 0.910261 1.933391 -1.194247
v -0.910150 1.948743 -2.007271
v -0.910150 1.100090 -3.210693
vn -1.0000 -0.0000 -0.0000
vn 1.0000 -0.0000 -0.0000
s 0
f 449//397 450//397 448//397
f 449//397 448//397 445//397
f 446//397 447//397 445//397
f 446//397 445//397 444//397
f 452//398 438//398 436//398
f 452//398 436//398 453//398
f 447//397 451//397 449//397
f 447//397 449//397 445//397
f 438//398 439//398 437//398
f 438//398 437//398 436//398
f 436//398 437//398 434//398
f 436//398 434//398 435//398
f 444//397 445//397 442//397
f 444//397 442//397 443//397
f 435//398 440//398 441//398
f 435//398 441//398 436//398
o Hull_havok_s_armor_8_7
v 0.910261 1.417908 1.299643
v 0.910261 1.248686 2.945733
v 1.635426 1.247837 2.945242
v 1.635426 1.417892 1.299643
v 0.910261 1.509375 1.147322
v 1.635426 1.509376 1.147322
v -0.910149 1.417905 1.299643
v -1.635316 1.417934 1.299643
v -1.635316 1.247561 2.945083
v -0.910149 1.247999 2.945337
v -1.635316 1.509376 1.147322
v -0.910149 1.509375 1.147322
v -0.910149 1.506428 -1.194248
v -1.635316 1.506428 -1.194248
v 0.910261 1.506428 -1.194248
v 1.635426 1.506428 -1.194248
vn -0.0000 1.0000 -0.0013
vn -0.0000 0.8573 0.5148
vn -0.0000 0.8574 0.5147
vn -0.0000 0.9947 0.1028
vn 0.0012 0.9948 0.1023
vn -0.0000 0.8573 0.5149
vn -0.0006 0.9947 0.1027
vn -0.0000 0.9947 0.1030
s 0
f 466//399 467//399 464//399
f 466//399 464//399 465//399
f 460//400 465//400 464//400
f 460//401 464//401 461//401
f 459//399 469//399 468//399
f 459//399 468//399 458//399
f 456//402 457//402 454//402
f 456//403 454//403 455//403
f 457//404 459//404 458//404
f 457//400 458//400 454//400
f 462//405 463//405 460//405
f 462//406 460//406 461//406
o Hull_havok_s_armor_9_8
v 1.635426 1.506428 -1.194248
v 1.635300 1.933120 -1.194248
v 0.910261 1.933391 -1.194247
v 0.910261 1.506428 -1.194248
v -0.910149 1.506428 -1.194248
v -0.910149 1.933391 -1.194247
v -1.634663 1.933121 -1.194248
v -1.635316 1.506428 -1.194248
vn -0.0000 -0.0000 1.0000
s 0
f 476//407 477//407 474//407
f 476//407 474//407 475//407
f 472//407 473//407 470//407
f 472//407 470//407 471//407
o Hull_havok_s_armor_10_9
v -1.634663 1.933120 1.505736
v -1.286832 1.933391 1.505742
v -1.635316 1.509376 1.505731
v 1.287228 1.933391 1.505711
v 1.634108 1.933120 1.505721
v 1.635426 1.509376 1.505731
vn -0.0000 -0.0000 -1.0000
s 0
f 481//408 482//408 483//408
f 478//408 479//408 480//408
o Hull_havok_s_armor_11_10
v 1.635428 1.517175 3.100746
v 1.287229 1.933390 3.341046
v 1.287229 1.933391 1.505711
v 1.635426 1.509376 1.505731
v -1.286831 1.933391 1.505742
v -1.286831 1.933390 3.341046
v -1.635316 1.517452 3.100905
v -1.635316 1.509376 1.505731
vn 0.7726 -0.6349 0.0032
vn 0.7665 -0.6422 -0.0000
vn -0.7728 -0.6346 0.0031
vn -0.7670 -0.6417 -0.0000
s 0
f 490//409 491//409 488//409
f 490//410 488//410 489//410
f 486//411 487//411 484//411
f 486//412 484//412 485//412
o Gun_01_havok_s_gun_0
v 0.154684 2.562625 -1.302249
v -0.150920 2.562625 -1.302249
v -0.103737 2.513449 -6.145092
v 0.103750 2.513449 -6.145092
v -0.151117 2.256510 -1.302249
v -0.103737 2.305686 -6.145092
v 0.103750 2.305686 -6.145092
v 0.154684 2.256510 -1.302249
v 0.195155 2.604691 -6.145092
v 0.195155 2.214246 -6.145092
v -0.195141 2.214246 -6.145092
v -0.195141 2.604691 -6.145092
v -0.202051 2.207334 -1.082868
v -0.201854 2.611603 -1.082868
v 0.202064 2.207334 -1.082868
v 0.201867 2.611603 -1.082868
v 0.195155 2.604691 -6.600308
v 0.195155 2.214246 -6.600308
v -0.195141 2.214246 -6.600308
v -0.195141 2.604691 -6.600308
v 0.087167 2.496860 -6.693545
v 0.087167 2.322275 -6.693545
v -0.087154 2.496860 -6.693545
v -0.087154 2.322275 -6.693545
v -0.208367 2.203565 -0.917959
v -0.208127 2.628758 -0.717998
v 0.203038 2.203655 -0.917959
v 0.203116 2.628758 -0.717998
vn 1.0000 -0.0000 -0.0000
vn -0.0000 -1.0000 -0.0000
vn -0.0000 -0.0000 -1.0000
vn -0.9776 -0.0005 0.2104
vn -0.9775 -0.0000 0.2111
vn -1.0000 -0.0000 -0.0000
vn -0.0000 1.0000 -0.0000
vn -0.0000 0.6534 0.7570
vn 0.6535 -0.0000 0.7569
vn -0.0000 -0.6541 0.7564
vn -0.6535 -0.0000 0.7569
vn -0.0000 -0.0000 1.0000
vn -1.0000 -0.0015 0.0035
vn -1.0000 -0.0005 0.0059
vn -0.9999 -0.0000 0.0105
vn -0.0000 -0.9999 0.0102
vn 1.0000 -0.0000 0.0098
vn 1.0000 -0.0006 0.0097
vn -0.0000 0.9999 0.0102
vn -0.0002 0.9997 0.0228
vn -0.0000 0.9998 0.0223
vn -0.0000 -0.9989 0.0470
vn -0.0000 -0.9760 0.2179
vn 0.9998 -0.0088 0.0176
vn 0.9993 -0.0005 0.0383
vn 0.9741 -0.0005 0.2261
vn 0.9741 -0.0006 0.2263
vn -0.0000 0.9758 0.2187
s 0
f 502//413 510//413 511//413
f 502//413 511//413 503//413
f 511//414 508//414 500//414
f 511//414 500//414 503//414
f 501//415 502//415 497//415
f 501//415 497//415 498//415
f 506//416 507//416 492//416
f 506//417 492//417 499//417
f 508//418 509//418 501//418
f 508//418 501//418 500//418
f 501//419 509//419 510//419
f 501//419 510//419 502//419
f 513//420 515//420 510//420
f 513//420 510//420 509//420
f 510//421 515//421 514//421
f 510//421 514//421 511//421
f 514//422 512//422 508//422
f 514//422 508//422 511//422
f 503//415 500//415 495//415
f 503//415 495//415 494//415
f 508//423 512//423 513//423
f 508//423 513//423 509//423
f 514//424 515//424 513//424
f 514//424 513//424 512//424
f 518//425 519//425 507//425
f 518//426 507//426 506//426
f 495//427 498//427 499//427
f 495//427 499//427 492//427
f 500//415 501//415 498//415
f 500//415 498//415 495//415
f 497//415 502//415 503//415
f 497//415 503//415 494//415
f 494//428 495//428 492//428
f 494//428 492//428 493//428
f 496//429 497//429 494//429
f 496//430 494//430 493//430
f 496//431 499//431 498//431
f 496//431 498//431 497//431
f 504//432 516//432 518//432
f 504//433 518//433 506//433
f 519//434 517//434 505//434
f 519//434 505//434 507//434
f 507//435 505//435 493//435
f 507//435 493//435 492//435
f 505//436 517//436 516//436
f 505//437 516//437 504//437
f 505//438 504//438 496//438
f 505//439 496//439 493//439
f 496//440 504//440 506//440
f 496//440 506//440 499//440
o Gun_01_havok_s_gunBreech_1
v 0.204541 2.172930 0.707464
v 0.204541 2.695261 0.707464
v 0.204541 2.646013 -0.084932
v 0.204541 2.199977 -0.084932
v -0.214153 2.695261 0.707464
v -0.214153 2.646013 -0.084932
v -0.214153 2.172930 0.707464
v -0.214153 2.199722 -0.084932
v -0.202290 2.207377 -0.084932
v -0.202085 2.611565 -0.084932
v 0.202087 2.611565 -0.084932
v 0.202087 2.207377 -0.084932
v -0.208367 2.203565 -0.917959
v -0.208127 2.628758 -0.717998
v 0.203038 2.203655 -0.917959
v 0.203116 2.628758 -0.717998
vn -1.0000 0.0007 -0.0011
vn -1.0000 -0.0000 -0.0016
vn -0.0002 1.0000 -0.0046
vn -0.0000 1.0000 -0.0045
vn 1.0000 0.0029 -0.0073
vn 1.0000 -0.0005 -0.0096
vn -0.0000 -0.0000 1.0000
vn -0.0000 -0.9996 -0.0271
vn -0.0000 -0.0000 -1.0000
vn -0.0000 -0.9981 0.0620
vn -1.0000 -0.0000 -0.0000
vn -0.0006 0.9994 0.0338
vn -0.0000 0.9994 0.0341
vn 1.0000 -0.0000 -0.0000
s 0
f 535//441 534//441 531//441
f 535//442 531//442 530//442
f 534//443 532//443 528//443
f 534//444 528//444 531//444
f 528//445 532//445 533//445
f 528//446 533//446 529//446
f 523//447 531//447 528//447
f 523//447 528//447 527//447
f 529//447 530//447 522//447
f 529//447 522//447 525//447
f 529//448 533//448 535//448
f 529//448 535//448 530//448
f 530//447 531//447 523//447
f 530//447 523//447 522//447
f 526//449 524//449 521//449
f 526//449 521//449 520//449
f 521//450 524//450 525//450
f 521//450 525//450 522//450
f 522//451 523//451 520//451
f 522//451 520//451 521//451
f 527//447 528//447 529//447
f 527//447 529//447 525//447
f 523//452 527//452 526//452
f 523//453 526//453 520//453
f 526//454 527//454 525//454
f 526//454 525//454 524//454
