# Blender 5.1.0
# www.blender.org
o Chassis_havok_s_rightTrack_0
v 1.657739 0.005076 1.978931
v 1.657739 0.404540 2.845396
v 1.657739 1.179301 2.616746
v 1.657739 1.250380 1.822486
v 0.995387 0.404540 2.845396
v 0.995387 0.005076 1.978931
v 0.995387 0.538879 2.917602
v 1.657739 0.696675 3.001841
v 0.921673 0.538879 2.917602
v 0.921673 0.696675 3.001841
v 0.921673 1.020795 2.905567
v 1.657739 1.020795 2.905567
v 0.921673 1.179301 2.616746
v 0.921673 0.537458 -2.943072
v 0.921673 1.250380 1.822486
v 0.995387 0.537458 -2.943072
v 0.921673 1.459353 -2.329325
v 1.657739 1.459353 -2.329325
v 0.995387 0.004365 -1.974315
v 1.657739 0.004365 -1.974315
v 1.657739 0.596453 -3.045363
v 1.657739 0.899961 -3.153671
v 1.657739 1.209865 -3.057397
v 1.657739 1.405333 -2.768575
v 0.921673 1.405333 -2.768575
v 0.921673 0.899961 -3.153671
v 0.921673 0.596453 -3.045363
v 0.921673 1.209865 -3.057397
vn -1.0000 -0.0000 -0.0000
vn -0.0000 0.8752 0.4838
vn -0.0036 0.8761 0.4821
vn 1.0000 -0.0000 -0.0000
vn -0.0000 1.0000 -0.0002
vn -0.0000 -0.9925 0.1221
vn -0.0000 -0.8282 0.5605
vn -0.0000 0.3361 0.9418
vn -0.0000 0.8663 0.4996
vn -0.0000 -0.2967 0.9550
vn -0.0000 0.4709 -0.8822
vn -0.0000 -0.2847 -0.9586
vn -0.0000 0.9081 -0.4187
vn -0.0004 0.4721 -0.8815
vn -0.0000 0.4734 -0.8808
vn -0.0000 -0.8767 -0.4811
vn -0.0000 -0.9987 -0.0503
vn -0.0000 -0.9960 -0.0891
s 0
f 4//1 23//1 22//1
f 4//1 22//1 21//1
f 24//1 23//1 4//1
f 24//1 4//1 18//1
f 19//2 20//2 21//2
f 19//3 21//3 16//3
f 19//4 5//4 6//4
f 20//5 19//5 6//5
f 20//5 6//5 1//5
f 4//1 21//1 20//1
f 4//1 20//1 1//1
f 25//6 24//6 18//6
f 25//6 18//6 17//6
f 24//7 25//7 28//7
f 24//7 28//7 23//7
f 14//4 28//4 25//4
f 14//4 25//4 17//4
f 27//4 26//4 28//4
f 27//4 28//4 14//4
f 22//8 26//8 27//8
f 22//8 27//8 21//8
f 16//9 21//9 27//9
f 16//9 27//9 14//9
f 23//10 28//10 26//10
f 23//10 26//10 22//10
f 19//4 16//4 7//4
f 19//4 7//4 5//4
f 9//11 10//11 8//11
f 9//11 8//11 7//11
f 11//12 12//12 8//12
f 11//12 8//12 10//12
f 8//1 12//1 3//1
f 8//1 3//1 2//1
f 3//1 4//1 1//1
f 3//1 1//1 2//1
f 1//13 6//13 5//13
f 1//13 5//13 2//13
f 7//14 8//14 2//14
f 7//15 2//15 5//15
f 11//16 13//16 3//16
f 11//16 3//16 12//16
f 15//4 14//4 17//4
f 15//17 17//17 18//17
f 15//17 18//17 4//17
f 3//18 13//18 15//18
f 3//18 15//18 4//18
f 14//4 15//4 13//4
f 14//4 13//4 11//4
f 14//4 11//4 10//4
f 14//4 10//4 9//4
f 7//5 16//5 14//5
f 7//5 14//5 9//5
o Chassis_havok_s_leftTrack_1
v -1.657739 0.005076 1.978931
v -1.657739 1.250380 1.822486
v -1.657739 1.179301 2.616746
v -1.657739 0.404540 2.845396
v -0.995387 0.404540 2.845396
v -0.995387 0.005076 1.978931
v -1.657739 0.696675 3.001841
v -0.995387 0.537458 2.917602
v -0.921673 0.696675 3.001841
v -0.921673 0.537458 2.917602
v -0.921673 1.020795 2.905567
v -1.657739 1.020795 2.905567
v -0.921673 1.179301 2.616746
v -0.921673 1.250380 1.822486
v -0.921673 0.537458 -2.943072
v -0.995387 0.537458 -2.943072
v -0.921673 1.459353 -2.329325
v -1.657739 1.459353 -2.329325
v -0.995387 0.004365 -1.974315
v -1.657739 0.004365 -1.974315
v -1.657739 0.596453 -3.045363
v -1.657739 0.899961 -3.153671
v -1.657739 1.209865 -3.057397
v -1.657739 1.405333 -2.768575
v -0.921673 1.405333 -2.768575
v -0.921673 0.596453 -3.045363
v -0.921673 0.899961 -3.153671
v -0.921673 1.209865 -3.057397
vn 1.0000 -0.0000 -0.0000
vn 0.0032 0.8752 0.4838
vn -0.0000 0.8761 0.4821
vn -1.0000 -0.0000 -0.0000
vn -0.0000 1.0000 -0.0002
vn -0.0000 -0.9925 0.1221
vn -0.0000 -0.8282 0.5605
vn -0.0000 0.3361 0.9418
vn -0.0000 0.8663 0.4996
vn -0.0000 -0.2967 0.9550
vn -0.0000 0.4677 -0.8839
vn -0.0000 -0.2847 -0.9586
vn -0.0000 -0.8767 -0.4811
vn -0.0000 0.9081 -0.4187
vn 0.0014 0.4721 -0.8815
vn -0.0000 0.4773 -0.8787
vn -0.0000 -0.9987 -0.0503
vn -0.0000 -0.9960 -0.0891
vn -0.0000 1.0000 -0.0000
s 0
f 50//19 51//19 30//19
f 50//19 30//19 49//19
f 30//19 51//19 52//19
f 30//19 52//19 46//19
f 44//20 49//20 48//20
f 44//21 48//21 47//21
f 33//22 47//22 34//22
f 34//23 47//23 48//23
f 34//23 48//23 29//23
f 48//19 49//19 30//19
f 48//19 30//19 29//19
f 46//24 52//24 53//24
f 46//24 53//24 45//24
f 56//25 53//25 52//25
f 56//25 52//25 51//25
f 53//22 56//22 43//22
f 53//22 43//22 45//22
f 56//22 55//22 54//22
f 56//22 54//22 43//22
f 54//26 55//26 50//26
f 54//26 50//26 49//26
f 43//27 54//27 49//27
f 43//27 49//27 44//27
f 55//28 56//28 51//28
f 55//28 51//28 50//28
f 36//22 44//22 47//22
f 36//22 47//22 33//22
f 37//29 38//29 36//29
f 37//29 36//29 35//29
f 35//30 40//30 39//30
f 35//30 39//30 37//30
f 31//31 41//31 39//31
f 31//31 39//31 40//31
f 31//19 32//19 29//19
f 31//19 29//19 30//19
f 33//32 34//32 29//32
f 33//32 29//32 32//32
f 32//33 35//33 36//33
f 32//34 36//34 33//34
f 40//19 35//19 32//19
f 40//19 32//19 31//19
f 42//22 45//22 43//22
f 46//35 45//35 42//35
f 46//35 42//35 30//35
f 42//36 41//36 31//36
f 42//36 31//36 30//36
f 41//22 42//22 43//22
f 41//22 43//22 39//22
f 37//22 39//22 43//22
f 37//22 43//22 38//22
f 38//37 43//37 44//37
f 38//37 44//37 36//37
o Turret_01_havok_s_armor_1_0
v 0.092280 1.960682 -1.622257
v 0.067503 1.914340 -1.611884
v 0.026720 1.960682 -1.622257
vn -0.0000 -0.2184 -0.9759
s 0
f 57//38 58//38 59//38
o Hull_havok_s_armor_12_0
v 0.882551 2.488383 -0.340607
v 0.829499 2.488383 -0.340607
v 0.829499 2.475342 -0.446813
v 0.882551 2.475342 -0.446813
v 0.674563 2.515241 -0.692709
v 0.567559 2.515241 -0.692709
v 0.567559 2.513604 -0.745761
v 0.674563 2.513604 -0.745761
v -0.780999 2.554584 0.195582
v -0.780999 2.567625 0.301788
v -0.834051 2.567625 0.301788
v -0.834051 2.554584 0.195582
v 0.632551 2.642341 0.905893
v 0.579500 2.642341 0.905893
v 0.579500 2.629301 0.799687
v 0.632551 2.629301 0.799687
vn -0.0000 -0.9925 0.1219
vn -0.0000 -0.9995 0.0309
s 0
f 70//39 71//39 68//39
f 70//39 68//39 69//39
f 74//39 75//39 72//39
f 74//39 72//39 73//39
f 62//39 63//39 60//39
f 62//39 60//39 61//39
f 66//40 67//40 64//40
f 66//40 64//40 65//40
o Hull_havok_s_armor_1_1
v -0.658384 1.988817 -1.755016
v -0.993090 2.419504 -1.139710
v -1.513330 1.519268 -2.426560
v -0.921673 1.515527 -2.431910
v -0.496937 2.328650 -1.268476
v -0.544661 1.988926 -1.755016
v -0.495384 1.572230 -2.350396
v -0.658350 1.956656 -1.801252
v -0.544626 1.956765 -1.801252
v 0.622869 2.328650 -1.268476
v 0.621316 1.572230 -2.350396
v 0.638053 1.966007 -1.785730
v 0.708512 2.065177 -1.642720
v 0.885500 2.107478 -1.581730
v 1.513330 1.519268 -2.426560
v 1.132950 1.966007 -1.785730
v 1.112330 1.911928 -1.863710
v 0.921673 1.515527 -2.431910
v 0.982563 1.837368 -1.971230
v 0.658668 1.911928 -1.863710
v 0.788437 1.837368 -1.971230
v 0.993090 2.420337 -1.139710
v 1.062490 2.065177 -1.642720
v 0.531496 2.403809 -1.162851
v 0.410314 2.187554 -1.360715
v 0.344654 2.188155 -1.361321
v 0.344654 1.707244 -1.361321
v 0.397621 1.655945 -1.374959
v -0.218721 1.707244 -1.361321
v -0.218721 2.188155 -1.361321
v -0.284381 2.187554 -1.360715
v -0.271688 1.655945 -1.374959
v 0.428596 2.265426 -1.360221
v -0.302663 2.265426 -1.360221
v -0.253672 1.550212 -1.574897
v 0.379605 1.550212 -1.574897
v 1.009990 2.391068 -1.102690
v -1.009990 2.391068 -1.102690
v -0.405563 2.403809 -1.162851
v -1.536380 1.479338 -2.333210
v -0.921673 1.479338 -2.333210
v -0.407891 1.538963 -2.398769
v 0.533824 1.538963 -2.398769
v 0.921673 1.479338 -2.333210
v 1.536380 1.479338 -2.333210
v -0.921673 1.055588 -3.088770
v 0.921673 1.055588 -3.088770
vn 0.0008 -0.8199 0.5724
vn -0.0014 -0.8196 0.5729
vn -0.0000 -0.7844 -0.6202
vn 0.0003 -0.7931 -0.6091
vn -0.0000 -0.8138 0.5812
vn 0.0003 -0.8235 0.5673
vn -0.0000 -0.2569 0.9664
vn 0.0093 -0.0042 0.9999
vn -0.0093 -0.0042 0.9999
vn -0.0000 -0.8840 0.4675
vn 0.0010 -0.8152 0.5792
vn -0.0012 -0.8230 0.5681
vn -0.0000 -0.8198 0.5727
vn 0.0007 -0.8197 0.5728
vn -0.0000 -0.8192 0.5736
vn -0.0000 0.9194 0.3933
vn -0.0090 0.9388 0.3442
vn 0.0090 0.9388 0.3442
vn 0.0009 -0.8232 0.5678
vn -0.0000 -0.8165 0.5774
vn -0.0517 -0.8184 0.5723
vn -0.0120 -0.8189 0.5738
vn -0.0027 -0.8180 0.5752
vn -0.0035 -0.8213 0.5705
vn -0.0000 -0.8201 0.5722
vn -0.0430 -0.8202 0.5705
vn 0.0008 -0.8191 0.5736
vn -0.0000 -0.8195 0.5730
vn -0.0003 -0.8193 0.5733
vn -0.0074 -0.8195 0.5730
vn 0.0076 -0.8209 0.5710
vn -0.0007 -0.8193 0.5734
vn -0.0039 -0.8195 0.5730
vn -0.0092 -0.0000 1.0000
vn 0.2206 -0.0314 0.9749
vn 0.0092 -0.0000 1.0000
vn -0.2206 -0.0314 0.9749
vn -0.0000 -0.0142 0.9999
vn 0.0013 -0.8164 0.5775
vn 0.0001 -0.8147 0.5798
vn 0.0108 -0.8203 0.5718
vn 0.0029 -0.8201 0.5722
vn 0.0133 -0.8165 0.5771
vn 0.0037 -0.8166 0.5771
vn 0.0290 -0.8147 0.5792
s 0
f 76//41 81//41 80//41
f 76//42 80//42 77//42
f 97//43 112//43 113//43
f 97//44 113//44 77//44
f 114//45 99//45 97//45
f 114//46 97//46 77//46
f 104//47 107//47 103//47
f 104//47 103//47 102//47
f 109//48 106//48 105//48
f 108//49 101//49 100//49
f 110//50 111//50 103//50
f 110//50 103//50 107//50
f 77//51 80//51 114//51
f 86//52 118//52 93//52
f 93//53 94//53 96//53
f 93//54 96//54 86//54
f 79//55 121//55 122//55
f 79//55 122//55 93//55
f 119//56 120//56 90//56
f 119//57 90//57 93//57
f 78//56 115//56 116//56
f 78//58 116//58 79//58
f 117//59 82//59 79//59
f 93//60 118//60 117//60
f 93//60 117//60 79//60
f 85//61 86//61 87//61
f 85//62 87//62 88//62
f 85//63 88//63 89//63
f 90//64 91//64 92//64
f 90//65 92//65 93//65
f 82//66 81//66 84//66
f 82//67 84//67 83//67
f 78//68 79//68 76//68
f 78//69 76//69 77//69
f 80//70 81//70 82//70
f 83//71 76//71 79//71
f 83//72 79//72 82//72
f 94//73 93//73 92//73
f 100//74 101//74 102//74
f 100//75 102//75 103//75
f 104//76 105//76 106//76
f 104//77 106//77 107//77
f 101//78 108//78 109//78
f 101//78 109//78 105//78
f 85//79 89//79 97//79
f 85//80 97//80 99//80
f 95//81 87//81 86//81
f 95//82 86//82 96//82
f 90//83 97//83 91//83
f 97//84 89//84 98//84
f 97//85 98//85 91//85
o Hull_havok_s_armor_3_2
v -0.854711 2.665027 1.092320
v -1.306610 1.877317 1.643540
v -1.536380 1.479338 -2.333210
v -1.009990 2.391067 -1.102690
v -0.993089 2.419504 -1.139710
v -1.513330 1.519268 -2.426560
v -1.644920 1.291338 2.094290
v -1.306610 1.878585 3.418271
v -1.644920 1.291338 3.072030
v -1.618111 1.248338 3.047210
v 1.306610 1.877317 1.643540
v 0.855312 2.665027 1.092333
v 1.009990 2.391067 -1.102690
v 1.536380 1.479338 -2.333210
v 0.993091 2.420337 -1.139710
v 1.513330 1.519268 -2.426560
v 1.644920 1.291338 2.094290
v 1.644920 1.291338 3.072030
v 1.306610 1.878585 3.418271
v 1.618111 1.248338 3.047210
vn -0.8660 -0.5000 -0.0000
vn -0.8679 -0.4967 0.0008
vn -0.8486 0.5291 -0.0000
vn -0.8665 -0.4992 -0.0000
vn -0.8661 -0.4998 0.0004
vn 0.8659 -0.5002 -0.0001
vn 0.8628 -0.5056 0.0055
vn 0.8652 -0.5014 0.0014
vn 0.8673 -0.4978 -0.0003
vn 0.8660 -0.5000 -0.0000
vn 0.8486 0.5291 -0.0000
vn 0.8665 -0.4992 -0.0000
vn 0.8661 -0.4998 0.0004
s 0
f 137//86 138//86 136//86
f 137//86 136//86 135//86
f 133//87 134//87 135//87
f 136//86 139//86 133//86
f 136//86 133//86 135//86
f 140//88 139//88 142//88
f 139//89 140//89 141//89
f 139//90 141//90 133//90
f 125//91 128//91 127//91
f 125//92 127//92 126//92
f 125//93 126//93 123//93
f 125//94 123//94 124//94
f 124//95 129//95 125//95
f 131//96 132//96 129//96
f 130//97 131//97 129//97
f 130//98 129//98 124//98
o Hull_havok_s_armor_4_3
v 0.921668 1.248337 3.047210
v -0.921669 1.248337 3.047210
v -1.306610 1.878585 3.418271
v 1.306610 1.878585 3.418271
v -1.618111 1.248337 3.047210
v -1.644920 1.291337 3.072030
v 1.618111 1.248337 3.047210
v 1.644920 1.291337 3.072030
v 1.306610 1.877318 1.643540
v -1.306610 1.877318 1.643540
v -0.854711 2.665028 1.092321
v 0.855312 2.665028 1.092333
v 0.921675 0.538338 2.637290
v -0.921675 0.538338 2.637290
vn -0.0000 -0.5733 -0.8193
vn -0.0000 0.5000 -0.8660
vn -0.0089 0.5041 -0.8636
vn -0.0000 0.5074 -0.8617
vn 0.0089 0.5041 -0.8636
s 0
f 153//99 154//99 151//99
f 153//99 151//99 152//99
f 155//100 156//100 144//100
f 155//100 144//100 143//100
f 146//101 150//101 149//101
f 146//102 149//102 143//102
f 145//102 146//102 143//102
f 145//102 143//102 144//102
f 147//103 148//103 145//103
f 147//102 145//102 144//102
o Hull_havok_s_armor_7_4
v 0.511603 2.508753 -0.180918
v -0.505000 2.626258 0.766092
v -1.306610 1.878585 3.418271
v -1.306610 1.877318 1.643540
v 1.306610 1.877318 1.643540
v 1.306610 1.878585 3.418271
v -1.009990 2.391068 -1.102690
v 0.336978 2.453303 -0.620332
v -0.780999 2.554584 0.195581
v -0.834051 2.554584 0.195581
v -0.854710 2.665027 1.092321
v 0.579499 2.642341 0.905894
v 0.855312 2.665027 1.092333
v 0.579499 2.629301 0.799687
v -0.834051 2.567624 0.301788
v -0.780999 2.567624 0.301788
v 0.632551 2.629301 0.799687
v 0.882551 2.488383 -0.340606
v 0.946805 2.433897 -0.770366
v 1.009990 2.391068 -1.102690
v 0.829499 2.488383 -0.340606
v 0.632551 2.642341 0.905894
v 0.829499 2.475342 -0.446813
v 0.456597 2.397180 -1.053240
v 0.336978 2.412602 -0.933680
v 0.620000 2.393858 -1.082521
v 0.378101 2.508337 -0.913270
v 0.480340 2.505107 -1.015460
v 0.567558 2.513604 -0.745762
v 0.340679 2.512747 -0.773682
v 0.293195 2.433897 -0.770366
v 0.674563 2.513604 -0.745762
v 0.759660 2.505107 -1.015460
v 0.861899 2.508337 -0.913270
v 0.899321 2.512747 -0.773682
v 0.861899 2.517158 -0.634092
v 0.674563 2.515241 -0.692709
v 0.759660 2.520387 -0.531904
v 0.620000 2.503928 -1.052860
v 0.480340 2.520387 -0.531904
v 0.378101 2.517158 -0.634092
v 0.567558 2.515241 -0.692709
v 0.620000 2.521567 -0.494502
v 0.456597 2.467513 -0.513585
v 0.620000 2.473174 -0.471721
v 0.783403 2.467513 -0.513585
v 0.783403 2.397180 -1.053240
v 0.903022 2.412602 -0.933680
v 0.882551 2.475342 -0.446813
v 0.903022 2.453303 -0.620332
vn -0.0000 -0.9995 0.0315
vn 0.0003 -0.9995 0.0318
vn -0.0001 -0.9995 0.0319
vn -0.0003 -0.9995 0.0318
vn -0.0001 -0.9917 0.1283
vn -0.0004 -0.9916 0.1292
vn -0.0001 -0.9995 0.0315
vn 0.0006 -0.9995 0.0309
vn 0.0001 -0.9995 0.0316
vn 0.0001 -0.9995 0.0315
vn 0.0033 -0.9917 0.1284
vn -0.0010 -0.9930 0.1182
vn 0.0010 -0.9919 0.1270
vn -0.0060 -0.9921 0.1253
vn -0.0000 -0.9932 0.1165
vn -0.0133 -0.9921 0.1244
vn -0.0265 -0.9922 0.1218
vn -0.0006 -0.9995 0.0309
vn -0.0001 -0.9995 0.0316
vn -0.0000 -0.9995 0.0319
vn 0.0001 -0.9995 0.0319
vn -0.0036 -0.9928 0.1201
vn -0.0044 -0.9928 0.1195
vn 0.0095 -0.9925 0.1215
vn 0.0030 -0.9925 0.1225
vn -0.0010 -0.9925 0.1219
vn -0.0010 -0.9925 0.1223
vn -0.0000 -0.9930 0.1180
vn 0.0058 -0.9925 0.1219
vn -0.0000 -0.9921 0.1253
vn 0.0041 -0.9925 0.1224
vn -0.0162 -0.9924 0.1219
vn 0.0012 -0.9922 0.1247
vn 0.0013 -0.9922 0.1245
vn -0.0000 -1.0000 0.0007
vn -0.0000 -0.9922 0.1250
vn 0.0174 -0.9923 0.1226
vn -0.0010 -0.9921 0.1251
vn -0.0024 -0.9925 0.1219
vn -0.0000 -0.9927 0.1208
vn -0.0009 -0.9925 0.1219
vn -0.0000 -0.9906 0.1370
vn 0.0003 -0.9934 0.1143
vn -0.0002 -0.9918 0.1278
vn -0.0337 -0.9920 0.1214
vn -0.0267 -0.9922 0.1218
vn -0.0000 -0.9925 0.1220
vn -0.0010 -0.9925 0.1221
vn -0.0000 -0.9925 0.1223
vn -0.0021 -0.9925 0.1224
vn -0.0013 -0.9925 0.1222
s 0
f 195//104 189//104 188//104
f 195//104 188//104 185//104
f 192//105 194//105 193//105
f 198//106 199//106 196//106
f 198//107 196//107 197//107
f 184//104 195//104 185//104
f 187//108 164//108 163//108
f 187//109 163//109 181//109
f 185//110 186//110 183//110
f 185//110 183//110 184//110
f 192//111 193//111 188//111
f 192//112 188//112 191//112
f 190//113 191//113 188//113
f 190//113 188//113 189//113
f 175//114 204//114 176//114
f 203//115 182//115 176//115
f 203//116 176//116 204//116
f 202//117 206//117 205//117
f 202//118 205//118 179//118
f 205//119 206//119 175//119
f 205//120 175//120 174//120
f 185//121 198//121 197//121
f 185//122 197//122 186//122
f 199//123 198//123 193//123
f 199//124 193//124 194//124
f 157//125 201//125 202//125
f 157//126 202//126 179//126
f 157//127 164//127 200//127
f 157//128 200//128 201//128
f 158//129 170//129 168//129
f 158//130 168//130 169//130
f 158//131 169//131 167//131
f 172//132 165//132 158//132
f 172//133 158//133 171//133
f 171//134 158//134 167//134
f 171//135 167//135 166//135
f 163//136 164//136 157//136
f 163//137 157//137 158//137
f 161//138 162//138 159//138
f 161//138 159//138 160//138
f 163//139 165//139 166//139
f 163//140 166//140 167//140
f 163//141 158//141 165//141
f 177//142 157//142 179//142
f 169//143 168//143 178//143
f 169//144 178//144 173//144
f 163//145 176//145 182//145
f 163//146 182//146 180//146
f 163//147 180//147 181//147
f 175//148 176//148 169//148
f 175//149 169//149 174//149
f 157//150 173//150 170//150
f 157//151 170//151 158//151
f 174//152 169//152 177//152
f 157//153 177//153 169//153
f 157//154 169//154 173//154
o Hull_havok_s_armor_6_5
v 0.921675 0.538338 2.637290
v 0.921669 1.248338 3.047210
v 0.921673 1.479338 -2.333210
v 0.921674 0.538338 -1.252421
v -0.921675 0.538338 2.637290
v -0.921674 0.538338 -1.252421
v -0.921673 1.479338 -2.333210
v -0.921669 1.248338 3.047210
v -0.921673 0.538339 -2.333210
v 0.921673 0.538339 -2.333210
v 0.921673 1.515527 -2.431911
v 0.921673 1.055588 -3.088770
v -0.921673 1.055588 -3.088770
v -0.921673 1.515527 -2.431911
vn -1.0000 -0.0000 -0.0000
vn 1.0000 -0.0000 -0.0000
s 0
f 216//155 210//155 209//155
f 217//155 218//155 216//155
f 217//155 216//155 209//155
f 215//156 219//156 220//156
f 215//156 220//156 213//156
f 209//155 210//155 207//155
f 209//155 207//155 208//155
f 213//156 214//156 211//156
f 213//156 211//156 212//156
f 215//156 213//156 212//156
o Hull_havok_s_armor_8_6
v -1.644920 1.291338 2.094290
v -0.921669 1.248338 3.047210
v -0.921673 1.479338 -2.333210
v -1.536380 1.479338 -2.333210
v -1.618111 1.248338 3.047210
v -0.921673 0.538338 -1.252420
v -0.921675 0.538338 2.637290
v 0.921675 0.538338 2.637290
v 0.921673 0.538338 -1.252420
v 0.921673 1.479338 -2.333210
v 0.921668 1.248338 3.047210
v 1.644920 1.291338 2.094290
v 1.536380 1.479338 -2.333210
v 1.618111 1.248338 3.047210
vn -0.0000 0.9991 0.0424
vn -0.0029 0.9991 0.0429
vn -0.0000 0.9990 0.0451
vn -0.0000 1.0000 -0.0000
vn 0.0029 0.9991 0.0429
s 0
f 232//157 233//157 230//157
f 232//158 230//158 231//158
f 231//159 234//159 232//159
f 228//160 229//160 226//160
f 228//160 226//160 227//160
f 223//157 224//157 221//157
f 223//161 221//161 222//161
f 225//159 222//159 221//159
o Hull_havok_s_armor_5_7
v 0.921673 0.538338 -2.333210
v 0.921673 1.055588 -3.088770
v -0.921673 1.055588 -3.088770
v -0.921673 0.538338 -2.333210
vn -0.0000 0.8252 0.5649
s 0
f 237//162 238//162 235//162
f 237//162 235//162 236//162
o Hull_havok_s_armor_14_8
v 0.620000 2.393858 -1.082520
v 0.620000 2.503928 -1.052860
v 0.480340 2.505107 -1.015460
v 0.456597 2.397180 -1.053240
v 0.759660 2.505107 -1.015460
v 0.783403 2.397180 -1.053240
v 0.336978 2.412602 -0.933680
v 0.378101 2.508337 -0.913270
v 0.903022 2.412602 -0.933680
v 0.861899 2.508337 -0.913270
v 0.946806 2.433897 -0.770366
v 0.899321 2.512748 -0.773682
v 0.293195 2.433897 -0.770366
v 0.340679 2.512748 -0.773682
v 0.336978 2.453303 -0.620331
v 0.378101 2.517158 -0.634092
v 0.620000 2.473174 -0.471721
v 0.456597 2.467513 -0.513585
v 0.480340 2.520387 -0.531904
v 0.620000 2.521568 -0.494501
v 0.759660 2.520387 -0.531904
v 0.783403 2.467513 -0.513585
v 0.861899 2.517158 -0.634092
v 0.903022 2.453303 -0.620331
vn -0.2395 -0.4121 -0.8791
vn -0.2388 -0.4136 -0.8786
vn 0.2388 -0.4136 -0.8786
vn 0.2395 -0.4121 -0.8791
vn 0.8042 -0.5605 -0.1979
vn 0.8395 -0.5131 -0.1786
vn -0.8042 -0.5605 -0.1979
vn -0.8395 -0.5131 -0.1786
vn -0.6027 -0.5188 -0.6063
vn -0.6236 -0.4908 -0.6084
vn 0.6236 -0.4908 -0.6084
vn 0.6027 -0.5188 -0.6063
vn 0.6374 -0.4125 0.6508
vn 0.6302 -0.3764 0.6791
vn -0.2483 -0.2520 0.9353
vn -0.1577 -0.3570 0.9207
vn 0.2483 -0.2520 0.9353
vn 0.1577 -0.3570 0.9207
vn 0.8361 -0.4934 0.2397
vn 0.8569 -0.4290 0.2857
vn -0.8361 -0.4934 0.2397
vn -0.8569 -0.4290 0.2857
vn -0.6374 -0.4125 0.6508
vn -0.6302 -0.3764 0.6791
s 0
f 259//163 260//163 255//163
f 259//164 255//164 258//164
f 257//165 258//165 255//165
f 257//166 255//166 256//166
f 252//167 254//167 253//167
f 252//168 253//168 251//168
f 262//169 261//169 250//169
f 262//170 250//170 249//170
f 261//171 262//171 260//171
f 261//172 260//172 259//172
f 254//173 257//173 256//173
f 254//174 256//174 253//174
f 241//175 246//175 245//175
f 241//176 245//176 242//176
f 243//177 240//177 239//177
f 243//178 239//178 244//178
f 239//179 240//179 241//179
f 239//180 241//180 242//180
f 246//181 252//181 251//181
f 246//182 251//182 245//182
f 249//183 250//183 248//183
f 249//184 248//184 247//184
f 247//185 248//185 243//185
f 247//186 243//186 244//186
o Hull_havok_s_armor_9_9
v 0.263646 1.741529 -1.685320
v 0.263646 2.105816 -1.685320
v -0.137713 2.105816 -1.685320
v -0.137713 1.741529 -1.685320
vn -0.0000 -0.0000 1.0000
s 0
f 265//187 266//187 263//187
f 265//187 263//187 264//187
o Hull_havok_s_armor_10_10
v -0.251752 1.685238 -2.045794
v 0.377684 1.685238 -2.045794
v -0.307485 1.641468 -1.443594
v -0.329311 1.742089 -1.964717
v 0.455243 1.742089 -1.964717
v 0.433418 1.641468 -1.443594
v -0.335936 2.156397 -1.412648
v 0.461869 2.156397 -1.412648
v 0.379604 1.550212 -1.574897
v -0.253672 1.550212 -1.574897
v -0.271688 1.655945 -1.374959
v 0.397621 1.655945 -1.374959
v -0.364503 2.230429 -1.411522
v -0.355772 1.753401 -2.092733
v -0.284382 2.187554 -1.360715
v -0.302662 2.265426 -1.360221
v 0.490435 2.230429 -1.411522
v 0.481705 1.753401 -2.092733
v 0.410314 2.187554 -1.360715
v 0.428595 2.265426 -1.360221
v 0.389955 1.715449 -2.146400
v -0.264023 1.715449 -2.146400
vn 0.9979 -0.0570 0.0308
vn 0.8773 -0.0769 0.4738
vn 0.6984 -0.0358 0.7148
vn -0.5832 -0.1420 0.7998
vn -0.6097 -0.2467 0.7533
vn 0.9489 -0.2641 0.1728
vn 0.9013 -0.3516 0.2531
vn -0.5611 -0.8267 0.0429
vn -0.4722 -0.8585 -0.2002
vn 0.5611 -0.8267 0.0429
vn 0.4722 -0.8585 -0.2002
vn 0.5832 -0.1420 0.7998
vn 0.6097 -0.2467 0.7533
vn -0.0000 -0.9577 -0.2876
vn -0.4240 -0.8158 0.3932
vn 0.7056 -0.6804 -0.1980
vn 0.8902 -0.4528 -0.0501
vn -0.0000 -0.9613 -0.2756
vn -0.7056 -0.6804 -0.1980
vn -0.8902 -0.4528 -0.0501
vn -0.9979 -0.0570 0.0308
vn -0.8773 -0.0769 0.4738
vn -0.6984 -0.0358 0.7148
vn 0.4240 -0.8158 0.3932
vn -0.9489 -0.2641 0.1728
vn -0.9013 -0.3516 0.2531
s 0
f 271//188 274//188 272//188
f 278//189 272//189 274//189
f 278//190 274//190 285//190
f 281//191 282//191 279//191
f 281//192 279//192 273//192
f 271//193 284//193 283//193
f 271//194 283//194 274//194
f 267//195 270//195 280//195
f 267//196 280//196 288//196
f 284//197 271//197 268//197
f 284//198 268//198 287//198
f 283//199 286//199 285//199
f 283//200 285//200 274//200
f 267//201 288//201 287//201
f 267//201 287//201 268//201
f 276//202 277//202 269//202
f 275//203 268//203 271//203
f 275//204 271//204 272//204
f 275//205 276//205 267//205
f 275//205 267//205 268//205
f 270//206 267//206 276//206
f 270//207 276//207 269//207
f 270//208 269//208 273//208
f 273//209 269//209 277//209
f 273//210 277//210 281//210
f 272//211 278//211 275//211
f 279//212 280//212 270//212
f 279//213 270//213 273//213
o Hull_havok_s_armor_2_11
v -0.264023 1.715450 -2.146400
v -0.407891 1.538963 -2.398769
v 0.533824 1.538963 -2.398769
v 0.389955 1.715450 -2.146400
v -0.355772 1.753401 -2.092733
v -0.495384 1.572229 -2.350397
v 0.481705 1.753401 -2.092733
v 0.621316 1.572229 -2.350397
v 0.622870 2.328651 -1.268477
v 0.490435 2.230429 -1.411522
v -0.364503 2.230429 -1.411522
v -0.496937 2.328651 -1.268477
v -0.405563 2.403810 -1.162852
v -0.302662 2.265426 -1.360221
v 0.428595 2.265426 -1.360221
v 0.531496 2.403810 -1.162852
vn -0.0000 -0.8188 0.5741
vn 0.0122 -0.8190 0.5737
vn 0.0060 -0.8195 0.5730
vn 0.0061 -0.8173 0.5762
vn -0.0017 -0.8251 0.5650
vn -0.0061 -0.8173 0.5762
vn 0.0017 -0.8251 0.5650
vn -0.0015 -0.8177 0.5757
vn 0.0040 -0.8206 0.5715
vn -0.0000 -0.8195 0.5731
vn 0.0015 -0.8177 0.5757
vn -0.0040 -0.8206 0.5715
vn -0.0122 -0.8190 0.5737
vn -0.0060 -0.8195 0.5730
s 0
f 303//214 304//214 301//214
f 303//214 301//214 302//214
f 293//215 299//215 300//215
f 293//216 300//216 294//216
f 302//217 301//217 300//217
f 302//218 300//218 299//218
f 297//219 304//219 303//219
f 297//220 303//220 298//220
f 289//221 293//221 294//221
f 289//222 294//222 290//222
f 291//223 292//223 289//223
f 291//223 289//223 290//223
f 296//224 295//224 292//224
f 296//225 292//225 291//225
f 297//226 298//226 295//226
f 297//227 295//227 296//227
o Hull_havok_s_armor_13_12
v 1.132950 1.966007 -1.785730
v 0.658669 1.911927 -1.863710
v 0.982563 1.837368 -1.971230
v 1.112330 1.911927 -1.863710
v 0.788437 1.837368 -1.971230
v 0.708512 2.065177 -1.642720
v 0.638053 1.966007 -1.785730
v 0.885500 2.107477 -1.581730
v 1.062490 2.065177 -1.642720
vn -0.0000 -0.8218 0.5698
vn -0.0000 -0.8217 0.5699
s 0
f 305//228 310//228 311//228
f 305//229 311//229 306//229
f 305//228 313//228 312//228
f 305//229 312//229 310//229
f 307//229 308//229 305//229
f 307//229 305//229 306//229
f 307//228 306//228 309//228
o Hull_havok_s_surveyingDevice_13
v -0.658023 2.015677 -1.819730
v -0.544380 2.015677 -1.819730
v -0.824755 2.610973 0.189397
v -0.824755 2.623987 0.295700
v -0.806506 2.610973 0.189397
v -0.806506 2.623987 0.295700
v 0.855006 2.531890 -0.453736
v 0.855006 2.544904 -0.347433
v 0.873255 2.531890 -0.453736
v 0.873255 2.544904 -0.347433
v 0.674172 2.570264 -0.735439
v 0.567165 2.570264 -0.735439
v 0.567165 2.570264 -0.719494
v 0.674172 2.570264 -0.719494
v 0.623572 2.698733 0.898969
v 0.623572 2.685719 0.792666
v 0.605323 2.685719 0.792666
v 0.605323 2.698733 0.898969
v -0.544661 1.988926 -1.755017
v -0.658385 1.988816 -1.755017
v -0.544626 1.956766 -1.801252
v -0.658351 1.956656 -1.801252
v -0.834051 2.567625 0.301788
v -0.834051 2.554584 0.195582
v -0.780999 2.554584 0.195582
v -0.780999 2.567625 0.301788
v 0.829499 2.488383 -0.340607
v 0.829499 2.475343 -0.446813
v 0.882551 2.475343 -0.446813
v 0.882551 2.488383 -0.340607
v 0.674563 2.513604 -0.745761
v 0.567559 2.513604 -0.745761
v 0.674563 2.515241 -0.692710
v 0.567559 2.515241 -0.692710
v 0.632551 2.629301 0.799687
v 0.632551 2.642341 0.905893
v 0.579500 2.642341 0.905893
v 0.579500 2.629301 0.799687
vn -0.0000 -1.0000 -0.0000
vn -0.0000 -0.4377 -0.8991
vn 1.0000 0.0070 -0.0002
vn 1.0000 0.0069 -0.0000
vn -0.9869 -0.1600 0.0196
vn -0.9869 -0.1599 0.0196
vn -0.0000 -0.9926 0.1215
vn -0.0000 -0.1792 0.9838
vn 0.9105 -0.4105 0.0504
vn 0.9104 -0.4107 0.0503
vn -0.0000 -0.1219 -0.9925
vn -0.0000 0.1235 0.9923
vn -1.0000 -0.0070 0.0002
vn -1.0000 -0.0069 -0.0000
vn -0.9877 -0.1549 0.0190
vn -0.9878 -0.1548 0.0190
vn 1.0000 -0.0044 0.0038
vn 0.9868 -0.1605 0.0197
vn 0.9868 -0.1606 0.0197
vn 0.0009 -0.9236 -0.3834
vn -0.0000 -0.9242 -0.3820
vn -1.0000 0.0032 -0.0030
vn -0.0003 0.2993 0.9542
vn -0.0000 0.2988 0.9543
vn 0.9127 -0.4056 0.0498
vn 0.9126 -0.4058 0.0497
vn -0.0000 0.1215 0.9926
vn -0.0000 -0.1199 -0.9928
vn -0.0000 0.1090 0.9940
vn -0.0000 -0.1074 -0.9942
vn -0.9119 -0.4073 0.0500
vn -0.9120 -0.4071 0.0498
s 0
f 324//230 327//230 326//230
f 324//230 326//230 325//230
f 346//231 347//231 326//231
f 346//231 326//231 327//231
f 326//232 347//232 345//232
f 326//233 345//233 325//233
f 342//234 343//234 323//234
f 342//235 323//235 322//235
f 320//236 322//236 323//236
f 320//236 323//236 321//236
f 325//237 345//237 344//237
f 325//237 344//237 324//237
f 350//238 351//238 330//238
f 350//239 330//239 331//239
f 349//240 350//240 331//240
f 349//240 331//240 328//240
f 330//241 351//241 348//241
f 330//241 348//241 329//241
f 344//242 346//242 327//242
f 344//243 327//243 324//243
f 348//244 349//244 328//244
f 348//245 328//245 329//245
f 328//236 331//236 330//236
f 328//236 330//236 329//236
f 333//246 335//246 314//246
f 336//247 337//247 316//247
f 336//248 316//248 317//248
f 316//236 318//236 319//236
f 316//236 319//236 317//236
f 332//249 333//249 314//249
f 332//250 314//250 315//250
f 332//251 315//251 334//251
f 335//252 334//252 315//252
f 335//253 315//253 314//253
f 340//254 341//254 320//254
f 340//255 320//255 321//255
f 320//256 341//256 342//256
f 320//256 342//256 322//256
f 343//257 340//257 321//257
f 343//257 321//257 323//257
f 337//258 338//258 318//258
f 337//258 318//258 316//258
f 319//259 339//259 336//259
f 319//259 336//259 317//259
f 338//260 339//260 319//260
f 338//261 319//261 318//261
o Hull_havok_s_armor_11_14
v -0.544626 1.956765 -1.801252
v -0.544661 1.988926 -1.755016
v -0.658385 1.988816 -1.755016
v -0.658351 1.956656 -1.801252
vn 0.0008 -0.8209 0.5710
s 0
f 354//262 355//262 352//262
f 354//262 352//262 353//262
o Hull_havok_s_armor_15_15
v -0.137713 1.741529 -1.685320
v -0.218721 1.707243 -1.361320
v 0.344653 1.707243 -1.361320
v 0.263646 1.741529 -1.685320
v -0.137713 2.105816 -1.685320
v -0.218721 2.188155 -1.361320
v 0.263646 2.105816 -1.685320
v 0.344653 2.188155 -1.361320
vn -0.9701 -0.0000 0.2426
vn -0.0000 -0.9692 0.2463
vn -0.0000 0.9944 0.1052
vn 0.9701 -0.0000 0.2426
s 0
f 358//263 363//263 362//263
f 358//263 362//263 359//263
f 360//264 362//264 363//264
f 360//264 363//264 361//264
f 358//265 359//265 356//265
f 358//265 356//265 357//265
f 360//266 361//266 357//266
f 360//266 357//266 356//266
o Hull_havok_s_armor_16_16
v 0.921673 0.538338 -2.333210
v -0.921673 0.538338 -2.333210
v 0.921674 0.538338 -1.252420
v -0.921674 0.538338 -1.252420
vn -0.0000 1.0000 -0.0000
s 0
f 365//267 367//267 366//267
f 364//267 365//267 366//267
o Gun_03_havok_s_gun_0
v 0.197833 2.064779 -2.604792
v 0.198809 2.062851 -1.065823
v -0.079809 2.062851 -1.065823
v -0.078833 2.064779 -2.604792
v -0.079809 1.813378 -1.065823
v -0.078833 1.811450 -2.604792
v 0.197833 1.811450 -2.604792
v 0.198809 1.813378 -1.065823
v 0.149038 1.856108 -2.639997
v -0.030038 1.856108 -2.639997
v 0.149038 2.020121 -2.639997
v -0.070213 2.053052 -0.200782
v 0.189212 2.053052 -0.200782
v -0.070213 1.823177 -0.200782
v 0.189212 1.823177 -0.200782
v 0.146436 1.853859 -4.576281
v -0.027436 1.853859 -4.576281
v -0.027436 2.022370 -4.576281
v -0.030038 2.020121 -2.639997
v 0.146436 2.022370 -4.576281
v -0.060128 2.065261 -4.576281
v 0.179128 2.065261 -4.576281
v -0.060128 1.810969 -4.576281
v -0.106971 2.102530 -4.913244
v -0.106971 1.773700 -4.913244
v -0.069887 1.823177 -5.345765
v -0.069887 2.053052 -5.345765
v 0.188887 1.823177 -5.345765
v 0.188887 2.053052 -5.345765
v 0.225971 1.773700 -4.913244
v 0.225971 2.102530 -4.913244
v 0.179128 1.810969 -4.576281
vn 0.9963 -0.0000 0.0854
vn -0.0000 -0.0000 1.0000
vn -0.9963 -0.0000 0.0854
vn 0.5851 -0.0000 0.8110
vn -0.0000 -0.0000 -1.0000
vn -0.0000 -0.6191 0.7853
vn -0.0000 0.9935 0.1137
vn -0.9905 -0.0000 -0.1377
vn -0.0000 0.9939 -0.1099
vn -0.0000 -0.9939 -0.1099
vn -0.0000 -0.9935 0.1137
vn 0.9905 -0.0000 -0.1377
vn -0.0000 0.6191 0.7853
vn -0.5851 -0.0000 0.8110
vn -0.0000 -0.9999 -0.0113
vn -0.0000 1.0000 -0.0013
vn -0.0000 -1.0000 -0.0013
vn 1.0000 -0.0000 0.0006
vn -1.0000 -0.0000 0.0006
vn 0.9999 -0.0000 -0.0111
vn 1.0000 -0.0000 0.0013
vn -1.0000 -0.0000 0.0013
vn -0.0000 -1.0000 -0.0012
vn -0.0000 1.0000 -0.0012
vn -0.0000 0.9999 -0.0113
vn -0.9999 -0.0000 -0.0111
s 0
f 393//268 394//268 391//268
f 393//268 391//268 392//268
f 393//269 395//269 396//269
f 393//269 396//269 394//269
f 397//270 398//270 396//270
f 397//270 396//270 395//270
f 373//271 377//271 386//271
f 373//271 386//271 371//271
f 388//272 389//272 387//272
f 388//272 387//272 385//272
f 390//272 388//272 385//272
f 390//272 385//272 384//272
f 371//273 386//273 378//273
f 371//273 378//273 368//273
f 392//274 397//274 395//274
f 392//274 395//274 393//274
f 398//275 397//275 399//275
f 398//275 399//275 389//275
f 390//276 399//276 397//276
f 390//276 397//276 392//276
f 391//277 398//277 389//277
f 391//277 389//277 388//277
f 389//272 399//272 383//272
f 389//272 383//272 387//272
f 394//278 396//278 398//278
f 394//278 398//278 391//278
f 392//279 391//279 388//279
f 392//279 388//279 390//279
f 399//272 390//272 384//272
f 399//272 384//272 383//272
f 374//280 376//280 377//280
f 374//280 377//280 373//280
f 368//281 378//281 376//281
f 368//281 376//281 374//281
f 369//282 380//282 379//282
f 369//282 379//282 370//282
f 375//283 374//283 373//283
f 375//283 373//283 372//283
f 370//284 371//284 368//284
f 370//284 368//284 369//284
f 372//285 373//285 371//285
f 372//285 371//285 370//285
f 374//286 375//286 369//286
f 374//286 369//286 368//286
f 370//287 379//287 381//287
f 370//287 381//287 372//287
f 385//288 386//288 377//288
f 385//288 377//288 384//288
f 378//289 387//289 383//289
f 378//289 383//289 376//289
f 385//290 387//290 378//290
f 385//290 378//290 386//290
f 376//291 383//291 384//291
f 376//291 384//291 377//291
f 381//292 382//292 375//292
f 381//292 375//292 372//292
f 382//272 381//272 379//272
f 382//272 379//272 380//272
f 375//293 382//293 380//293
f 375//293 380//293 369//293
o Gun_03_havok_s_armor_1_1
v -0.248245 1.951767 -1.767293
v -0.127339 1.752601 -1.838207
v -0.127339 2.122206 -1.838207
v 0.246338 1.752601 -1.838207
v 0.367243 1.951767 -1.767293
v 0.246338 2.122206 -1.838207
v 0.059676 2.198809 -1.838207
v 0.059323 2.296093 -1.656160
v -0.193802 2.256643 -1.646281
v 0.418858 1.798945 -1.700966
v 0.413202 2.161657 -1.664627
v 0.312801 2.256643 -1.646281
v 0.355931 1.712385 -1.705200
v -0.299859 1.798945 -1.700966
v -0.294203 2.161657 -1.664627
v 0.059323 1.616632 -1.705200
v 0.244570 1.649571 -1.705200
v 0.059676 1.675999 -1.838207
v -0.125571 1.649571 -1.705200
v -0.236932 1.712385 -1.705200
v 0.334012 2.379590 -1.482934
v 0.059323 2.400656 -1.477289
v -0.215013 2.379590 -1.482934
v -0.302334 2.342821 -1.477641
v 0.421333 2.342821 -1.477641
v -0.132321 1.937511 -2.087210
v -0.076138 1.801877 -2.087210
v -0.076138 2.073145 -2.087210
v 0.251320 1.937511 -2.087210
v 0.195138 1.801877 -2.087210
v 0.195138 2.073145 -2.087210
v 0.059500 2.129329 -2.087210
v 0.418838 2.126788 -1.527386
v 0.406736 1.697355 -1.561957
v -0.299836 2.126788 -1.527386
v -0.287734 1.697355 -1.561957
v 0.059233 1.598331 -1.566507
v 0.302971 1.635177 -1.562894
v -0.183971 1.635177 -1.562894
v 0.059500 1.745693 -2.087210
v 0.367163 2.393273 -1.438207
v 0.059233 2.398507 -1.431957
v -0.248164 2.393273 -1.438207
v -0.302337 2.329523 -1.435707
v -0.239837 2.370773 -1.413207
v 0.421338 2.329523 -1.435707
v 0.358835 2.370773 -1.413207
vn -0.1453 -0.7813 0.6070
vn -0.0557 -0.8620 0.5039
vn -0.3705 0.8944 0.2506
vn -0.3673 0.8951 0.2527
vn -0.0652 -0.9397 0.3358
vn -0.0179 -0.9987 -0.0474
vn 0.1455 -0.7813 0.6070
vn 0.0558 -0.8620 0.5039
vn 0.3705 0.8945 0.2501
vn 0.3667 0.8954 0.2526
vn 0.6305 0.4266 0.6485
vn 0.4085 0.7242 0.5556
vn 0.7710 0.5443 0.3306
vn -0.4976 0.8265 0.2632
vn -0.4719 0.8366 0.2783
vn -0.6305 0.4266 0.6485
vn -0.4085 0.7242 0.5556
vn 0.0652 -0.9397 0.3358
vn 0.0180 -0.9987 -0.0473
vn -0.3404 -0.8296 0.4427
vn -0.1457 -0.7859 0.6010
vn 0.9999 0.0108 0.0035
vn 0.9991 0.0020 0.0415
vn -0.9999 0.0107 0.0035
vn -0.9991 0.0020 0.0415
vn -0.5146 -0.6516 0.5573
vn -0.3235 -0.6725 0.6656
vn 0.4744 -0.6218 0.6231
vn 0.3428 -0.7287 0.5929
vn 0.5684 -0.5084 -0.6469
vn 0.3605 -0.7831 0.5067
vn 0.7423 -0.6387 -0.2025
vn -0.5684 -0.5084 -0.6469
vn -0.3605 -0.7831 0.5067
vn -0.7423 -0.6387 -0.2025
vn 0.3397 -0.8293 0.4438
vn 0.1459 -0.7858 0.6010
vn -0.3706 -0.8946 0.2499
vn -0.3674 -0.8953 0.2519
vn -0.6849 -0.1936 0.7024
vn -0.4840 -0.6291 0.6083
vn -0.6372 0.1155 0.7620
vn -0.8545 -0.0650 0.5153
vn 0.3706 -0.8947 0.2494
vn 0.3668 -0.8955 0.2519
vn 0.8303 -0.4554 0.3212
vn 0.8930 -0.3699 0.2565
vn 0.8600 0.4178 0.2930
vn 0.8929 0.3699 0.2568
vn -0.8303 -0.4554 0.3212
vn -0.8930 -0.3699 0.2565
vn -0.8600 0.4178 0.2930
vn -0.8929 0.3699 0.2568
vn -0.9992 -0.0192 0.0362
vn -0.9975 0.0332 -0.0628
vn -0.1499 0.9756 0.1602
vn -0.1736 0.9764 0.1287
vn 0.3502 0.8550 0.3826
vn 0.1396 0.7837 0.6052
vn 0.4976 0.8265 0.2632
vn 0.4719 0.8366 0.2783
vn 0.1502 0.9756 0.1603
vn 0.1739 0.9763 0.1289
vn -0.1394 0.7837 0.6053
vn -0.3510 0.8554 0.3809
vn 0.6372 0.1155 0.7620
vn 0.8545 -0.0650 0.5153
vn -0.7710 0.5443 0.3306
vn 0.9992 -0.0192 0.0361
vn 0.9975 0.0332 -0.0628
vn 0.6849 -0.1936 0.7024
vn 0.4840 -0.6291 0.6083
s 0
f 407//294 411//294 420//294
f 407//295 420//295 421//295
f 429//296 439//296 417//296
f 429//297 417//297 403//297
f 421//298 420//298 440//298
f 421//299 440//299 441//299
f 422//300 408//300 407//300
f 422//301 407//301 421//301
f 417//302 439//302 426//302
f 417//303 426//303 401//303
f 401//304 413//304 419//304
f 401//305 419//305 418//305
f 435//306 419//306 413//306
f 437//307 433//307 412//307
f 437//308 412//308 416//308
f 412//309 409//309 403//309
f 412//310 403//310 416//310
f 442//311 422//311 421//311
f 442//312 421//312 441//312
f 407//313 406//313 405//313
f 407//314 405//314 411//314
f 423//315 443//315 434//315
f 423//316 434//316 414//316
f 432//317 445//317 424//317
f 432//318 424//318 410//318
f 420//319 411//319 410//319
f 420//320 410//320 424//320
f 423//321 414//321 408//321
f 423//322 408//322 422//322
f 444//323 443//323 442//323
f 423//324 422//324 442//324
f 423//325 442//325 443//325
f 445//326 446//326 440//326
f 440//327 420//327 424//327
f 440//328 424//328 445//328
f 402//329 406//329 407//329
f 402//330 407//330 408//330
f 406//331 431//331 430//331
f 406//332 430//332 405//332
f 405//333 404//333 410//333
f 405//334 410//334 411//334
f 404//335 403//335 409//335
f 404//336 409//336 410//336
f 427//337 431//337 406//337
f 427//338 406//338 402//338
f 402//339 400//339 425//339
f 402//340 425//340 427//340
f 425//341 400//341 401//341
f 425//342 401//342 426//342
f 428//343 404//343 405//343
f 428//344 405//344 430//344
f 403//345 404//345 428//345
f 403//346 428//346 429//346
f 432//347 410//347 409//347
f 432//348 409//348 433//348
f 436//349 437//349 416//349
f 436//350 416//350 415//350
f 415//351 417//351 401//351
f 415//352 401//352 418//352
f 419//353 435//353 438//353
f 419//354 438//354 418//354
f 418//355 438//355 436//355
f 418//356 436//356 415//356
f 415//357 416//357 403//357
f 415//358 403//358 417//358
f 413//359 401//359 400//359
f 413//360 400//360 414//360
f 409//361 412//361 433//361
f 413//362 414//362 434//362
f 413//363 434//363 435//363
f 414//364 400//364 402//364
f 414//365 402//365 408//365
o Gun_03_havok_s_armor_2_2
v -0.076138 1.801877 -2.087210
v 0.059500 1.745693 -2.087210
v 0.195138 2.073145 -2.087210
v -0.132321 1.937511 -2.087210
v -0.076138 2.073145 -2.087210
v 0.059500 2.129329 -2.087210
v 0.195138 1.801877 -2.087210
v 0.251320 1.937511 -2.087210
vn -0.0000 -0.0000 1.0000
s 0
f 453//366 454//366 449//366
f 453//366 449//366 448//366
f 449//366 452//366 451//366
f 449//366 451//366 450//366
f 449//366 450//366 447//366
f 449//366 447//366 448//366
o Gun_03_havok_s_armor_4_3
v 0.059233 2.398507 -1.431957
v 0.059233 2.378507 -1.407962
v -0.239837 2.370773 -1.413207
v -0.248164 2.393273 -1.438207
v 0.367163 2.393273 -1.438207
v 0.358835 2.370773 -1.413207
vn -0.0262 -0.7387 -0.6735
vn -0.0310 -0.7678 -0.6400
vn 0.0263 -0.7387 -0.6736
vn 0.0311 -0.7678 -0.6400
s 0
f 455//367 459//367 460//367
f 455//368 460//368 456//368
f 457//369 458//369 455//369
f 457//370 455//370 456//370
