# Blender 5.1.0
# www.blender.org
o Chassis_havok_s_rightTrack_0
v 1.629204 1.215478 2.811017
v 1.629204 1.125414 1.881840
v 1.629204 0.016375 2.119077
v 1.629204 0.333900 3.094383
v 0.989069 0.016375 2.119077
v 0.989069 0.333900 3.094383
v 1.629204 0.940026 3.338209
v 1.629204 0.587000 3.338209
v 0.915114 0.587000 3.338209
v 0.915114 0.940026 3.338209
v 0.915114 0.505482 3.259130
v 0.989069 0.505482 3.259130
v 1.629204 1.191154 3.087793
v 0.915114 1.191154 3.087793
v 0.915114 1.215478 2.811017
v 0.915114 1.125414 1.881840
v 0.989069 0.014402 -2.131410
v 0.989069 0.504825 -3.225334
v 1.629204 0.014402 -2.131410
v 1.629204 1.136589 -1.933713
v 0.915114 0.881517 -3.403261
v 0.915114 1.208246 -3.264873
v 0.915114 1.136589 -1.933713
v 0.915114 0.504825 -3.225334
v 0.915114 0.525205 -3.271463
v 1.629204 0.525205 -3.271463
v 1.629204 1.360106 -2.941968
v 0.915114 1.360106 -2.941968
v 1.629204 1.208246 -3.264873
v 1.629204 0.881517 -3.403261
vn -0.0000 -1.0000 -0.0029
vn -0.0000 -0.9953 0.0965
vn -1.0000 -0.0000 -0.0000
vn -0.0000 1.0000 -0.0001
vn 1.0000 -0.0000 -0.0000
vn 0.0004 0.9126 0.4089
vn -0.0000 0.9125 0.4091
vn -0.0000 0.3469 0.9379
vn -0.0000 0.9147 0.4041
vn -0.0000 -0.3900 0.9208
vn -0.0000 -0.9763 -0.2164
vn -0.0000 -0.9049 0.4256
vn 0.0006 0.6938 -0.7202
vn -0.0000 0.6926 -0.7213
vn -0.0000 0.6963 -0.7178
vn -0.0000 0.9509 -0.3096
vn -0.0000 -0.0000 -1.0000
vn -0.0000 -0.7061 -0.7081
vn -0.0000 1.0000 -0.0005
vn -0.0000 -0.9962 -0.0875
s 0
f 23//1 20//1 2//1
f 23//1 2//1 16//1
f 15//2 16//2 2//2
f 15//2 2//2 1//2
f 20//3 27//3 26//3
f 20//3 26//3 19//3
f 12//4 18//4 24//4
f 12//4 24//4 11//4
f 11//5 21//5 22//5
f 11//5 22//5 9//5
f 23//5 16//5 9//5
f 23//5 9//5 22//5
f 24//5 25//5 21//5
f 24//5 21//5 11//5
f 19//6 26//6 18//6
f 19//7 18//7 17//7
f 26//8 30//8 21//8
f 26//8 21//8 25//8
f 18//9 26//9 25//9
f 18//9 25//9 24//9
f 30//10 29//10 22//10
f 30//10 22//10 21//10
f 29//3 30//3 26//3
f 29//3 26//3 27//3
f 23//11 28//11 27//11
f 23//11 27//11 20//11
f 28//5 23//5 22//5
f 29//12 27//12 28//12
f 29//12 28//12 22//12
f 12//13 8//13 4//13
f 12//14 4//14 6//14
f 13//3 1//3 4//3
f 8//3 7//3 13//3
f 8//3 13//3 4//3
f 8//15 12//15 11//15
f 8//15 11//15 9//15
f 3//3 4//3 1//3
f 3//3 1//3 2//3
f 5//16 6//16 4//16
f 5//16 4//16 3//16
f 9//17 10//17 7//17
f 9//17 7//17 8//17
f 10//18 14//18 13//18
f 10//18 13//18 7//18
f 17//5 6//5 5//5
f 3//19 19//19 17//19
f 3//19 17//19 5//19
f 2//3 20//3 19//3
f 2//3 19//3 3//3
f 17//5 18//5 12//5
f 17//5 12//5 6//5
f 14//20 15//20 1//20
f 14//20 1//20 13//20
f 15//5 9//5 16//5
f 9//5 15//5 14//5
f 9//5 14//5 10//5
o Chassis_havok_s_leftTrack_1
v -1.629204 0.016375 2.119077
v -1.629204 1.125414 1.881840
v -1.629204 1.215478 2.811017
v -1.629204 0.333900 3.094383
v -0.989069 0.333900 3.094383
v -0.989069 0.016375 2.119077
v -1.629204 0.587000 3.338209
v -1.629204 0.940026 3.338209
v -0.915114 0.940026 3.338209
v -0.915114 0.587000 3.338209
v -0.915114 0.504168 3.259130
v -0.989069 0.504168 3.259130
v -0.915114 1.191154 3.087793
v -1.629204 1.191154 3.087793
v -0.915114 1.215478 2.811017
v -0.989069 0.014402 -2.131410
v -0.989069 0.504825 -3.225334
v -0.915114 0.504825 -3.225334
v -1.629204 0.014402 -2.131410
v -1.629204 1.136589 -1.933713
v -0.915114 1.136589 -1.933713
v -0.915114 1.125414 1.881840
v -1.629204 1.360106 -2.941968
v -0.915114 1.360106 -2.941968
v -1.629204 0.881517 -3.403261
v -1.629204 1.208246 -3.264873
v -1.629204 0.525205 -3.271463
v -0.915114 0.881517 -3.403261
v -0.915114 1.208246 -3.264873
v -0.915114 0.525205 -3.271463
vn -1.0000 -0.0000 -0.0000
vn 1.0000 -0.0000 -0.0000
vn -0.0000 -0.9953 0.0965
vn -0.0000 -0.9763 -0.2164
vn -0.0000 0.9147 0.4041
vn -0.0000 -0.9049 0.4256
vn -0.0000 0.3469 0.9379
vn -0.0004 0.9126 0.4089
vn -0.0000 0.9125 0.4091
vn -0.0000 -0.3900 0.9208
vn -0.0000 -1.0000 -0.0029
vn 0.0008 0.6938 -0.7202
vn -0.0000 0.6954 -0.7187
vn -0.0000 0.6905 -0.7233
vn -0.0000 0.9509 -0.3096
vn -0.0000 -0.0000 -1.0000
vn -0.0000 1.0000 0.0001
vn -0.0000 1.0000 -0.0005
vn -0.0000 -0.7061 -0.7081
vn -0.0000 -0.9962 -0.0875
s 0
f 52//21 51//21 48//21
f 49//22 55//22 56//22
f 49//22 56//22 53//22
f 57//22 55//22 49//22
f 41//21 43//21 48//21
f 52//23 45//23 33//23
f 52//23 33//23 32//23
f 50//24 53//24 54//24
f 50//24 54//24 51//24
f 45//21 52//21 48//21
f 45//21 48//21 43//21
f 53//22 50//22 49//22
f 48//25 60//25 57//25
f 48//25 57//25 47//25
f 53//26 56//26 59//26
f 53//26 59//26 54//26
f 54//21 59//21 48//21
f 54//21 48//21 51//21
f 60//27 58//27 55//27
f 60//27 55//27 57//27
f 47//28 57//28 49//28
f 47//29 49//29 46//29
f 58//30 59//30 56//30
f 58//30 56//30 55//30
f 59//21 58//21 60//21
f 59//21 60//21 48//21
f 50//31 51//31 52//31
f 50//31 52//31 32//31
f 34//32 37//32 42//32
f 34//33 42//33 35//33
f 43//21 41//21 40//21
f 43//21 40//21 39//21
f 33//22 38//22 37//22
f 33//22 37//22 34//22
f 40//34 41//34 42//34
f 40//34 42//34 37//34
f 33//22 34//22 31//22
f 33//22 31//22 32//22
f 35//35 36//35 31//35
f 35//35 31//35 34//35
f 39//36 40//36 37//36
f 39//36 37//36 38//36
f 33//22 44//22 38//22
f 41//37 48//37 47//37
f 41//37 47//37 42//37
f 36//38 46//38 49//38
f 36//38 49//38 31//38
f 31//22 49//22 50//22
f 31//22 50//22 32//22
f 35//21 46//21 36//21
f 38//39 44//39 43//39
f 38//39 43//39 39//39
f 45//40 43//40 44//40
f 45//40 44//40 33//40
f 42//21 47//21 46//21
f 42//21 46//21 35//21
o Turret_01_havok_s_armor_1_0
v -0.233799 2.297019 0.282369
v -0.054190 2.284114 0.171750
v 0.021509 2.189689 0.385512
vn -0.2581 -0.9142 -0.3124
s 0
f 61//41 62//41 63//41
o Hull_havok_s_armor_3_0
v 1.489277 1.762097 0.105514
v 1.489527 1.194395 -1.834260
v 1.489552 1.194395 1.880220
v 1.489514 1.371945 1.880220
v 1.489261 1.780023 -0.183788
v 1.489251 1.780023 -1.834260
v 1.489299 1.762097 3.439166
v 1.489478 1.371945 3.058591
v 1.489389 1.734574 3.439166
v 1.550000 1.792032 3.505748
v 1.550000 1.791977 0.105514
v -1.489527 1.194395 -1.834260
v -1.489251 1.780023 -1.834260
v -1.489261 1.780023 -0.183788
v -1.489552 1.194395 1.880220
v -1.489514 1.371945 1.880220
v -1.489277 1.762097 0.105514
v -1.489299 1.762097 3.439166
v -1.488900 1.734574 3.439166
v -1.488501 1.371945 3.058591
v -1.489557 1.904898 0.106027
v -1.014105 2.784791 0.176498
v -0.914169 2.959160 3.102362
v -1.550000 1.792032 3.505748
v -1.550000 1.791977 0.105514
v -1.489557 1.904898 -0.144042
v 1.489431 1.905118 0.106045
v 1.014105 2.784791 0.176498
v 1.489431 1.905118 -0.143961
v 0.914169 2.959160 3.102362
vn 0.4423 0.8969 -0.0000
vn 0.4415 0.8973 -0.0000
vn 1.0000 0.0020 -0.0000
vn 1.0000 0.0023 0.0002
vn 0.8781 -0.4785 -0.0003
vn 0.8798 -0.4753 -0.0017
vn 0.8816 -0.4719 -0.0000
vn 0.8798 -0.4754 -0.0000
vn -0.8816 -0.4720 -0.0000
vn -1.0000 0.0011 -0.0000
vn -1.0000 0.0013 0.0001
vn -0.8798 -0.4754 -0.0000
vn -0.8798 -0.4753 -0.0017
vn -0.8781 -0.4785 -0.0003
vn -1.0000 -0.0006 -0.0000
vn -1.0000 -0.0002 -0.0000
vn -1.0000 -0.0033 0.0007
vn -1.0000 -0.0002 0.0001
vn -1.0000 -0.0005 -0.0000
vn -0.4423 0.8969 -0.0000
vn -0.4415 0.8973 -0.0000
vn 1.0000 0.0020 -0.0009
vn 0.9999 0.0145 -0.0038
vn 1.0000 -0.0002 0.0001
vn 1.0000 -0.0004 -0.0000
vn 1.0000 -0.0005 -0.0000
vn 1.0000 -0.0006 -0.0000
s 0
f 88//42 87//42 81//42
f 88//43 81//43 80//43
f 89//44 84//44 80//44
f 89//45 80//45 77//45
f 86//46 87//46 84//46
f 86//47 84//47 85//47
f 88//48 84//48 87//48
f 85//49 84//49 89//49
f 74//50 73//50 90//50
f 64//51 90//51 92//51
f 64//52 92//52 68//52
f 90//53 91//53 92//53
f 93//54 91//54 90//54
f 93//55 90//55 73//55
f 64//56 67//56 70//56
f 67//57 71//57 72//57
f 67//58 72//58 70//58
f 66//59 67//59 64//59
f 66//60 64//60 65//60
f 68//60 69//60 65//60
f 68//60 65//60 64//60
f 70//61 73//61 74//61
f 70//62 74//62 64//62
f 82//63 83//63 79//63
f 82//64 79//64 81//64
f 80//65 79//65 78//65
f 80//66 78//66 77//66
f 77//67 78//67 75//67
f 77//67 75//67 76//67
f 79//68 80//68 81//68
o Hull_havok_s_surveyingDevice_1
v -0.697318 1.925152 -2.079287
v -0.791030 1.925152 -2.028190
v -0.599281 1.925152 -2.103332
v -0.492353 1.925152 -2.103332
v -0.394556 1.925152 -2.079287
v -0.299162 1.925152 -2.031196
v -0.326074 2.964834 0.893324
v -0.406330 2.964834 0.893324
v -0.326074 2.969425 0.971471
v -0.406330 2.969425 0.971471
v -0.676413 1.780023 -2.042375
v -0.770170 1.780023 -1.990813
v -0.795710 1.780023 -2.037253
v -0.701954 1.780023 -2.088816
v -0.599343 1.780023 -2.060043
v -0.492343 1.780023 -2.060043
v -0.599343 1.780023 -2.113043
v -0.492343 1.780023 -2.113043
v -0.414172 1.780023 -2.040904
v -0.390203 1.780023 -2.088173
v -0.294770 1.780023 -2.039783
v -0.318739 1.780023 -1.992513
v -0.406379 2.828618 0.897779
v -0.326131 2.828618 0.897779
v -0.406379 2.835439 1.024904
v -0.326131 2.835439 1.024904
vn -1.0000 -0.0001 -0.0000
vn -0.0000 0.0327 0.9995
vn -0.4512 -0.0680 0.8898
vn -0.4492 -0.0663 0.8910
vn 0.4333 -0.2862 -0.8546
vn -0.8919 -0.0002 -0.4522
vn -1.0000 0.0004 -0.0000
vn -0.0000 -0.3704 -0.9289
vn -0.0000 -0.9983 0.0587
vn 1.0000 -0.0004 -0.0000
vn 0.4807 -0.0701 0.8741
vn 0.4774 -0.0727 0.8756
vn -0.8762 -0.0037 0.4819
vn -0.4625 -0.2805 -0.8410
vn -0.4592 -0.2829 -0.8421
vn 0.8762 0.0018 -0.4819
vn -0.0000 -0.0668 0.9978
vn 0.4315 -0.2847 -0.8560
vn 0.8919 -0.0009 0.4522
vn -0.0000 -0.2858 -0.9583
s 0
f 97//69 111//69 109//69
f 116//70 117//70 100//70
f 116//70 100//70 101//70
f 98//71 113//71 114//71
f 98//72 114//72 99//72
f 115//73 112//73 99//73
f 115//74 99//74 114//74
f 117//75 119//75 102//75
f 117//75 102//75 100//75
f 119//76 118//76 103//76
f 119//76 103//76 102//76
f 102//77 103//77 101//77
f 102//77 101//77 100//77
f 103//78 118//78 116//78
f 103//78 116//78 101//78
f 95//79 106//79 107//79
f 95//80 107//80 94//80
f 94//81 107//81 104//81
f 94//82 104//82 105//82
f 94//83 105//83 95//83
f 106//84 95//84 105//84
f 96//85 110//85 111//85
f 96//85 111//85 97//85
f 98//86 99//86 112//86
f 98//87 112//87 113//87
f 97//88 109//88 108//88
f 97//88 108//88 96//88
f 110//78 96//78 108//78
o Hull_havok_s_armor_10_2
v 0.274990 2.195424 0.056971
v -0.274990 2.195424 0.056971
v -0.165980 2.082916 0.056065
v 0.165980 2.082916 0.056065
v 0.279782 2.428935 0.058028
v -0.279782 2.428935 0.058028
v 0.130920 2.602178 0.059903
v -0.124208 2.599244 0.060409
vn 0.0021 -0.0090 1.0000
vn -0.0000 -0.0140 0.9999
vn -0.0000 -0.0045 1.0000
vn -0.0000 -0.0080 1.0000
s 0
f 124//89 126//89 127//89
f 124//90 127//90 125//90
f 124//91 125//91 121//91
f 124//91 121//91 120//91
f 122//92 123//92 120//92
f 122//92 120//92 121//92
o Hull_havok_s_armor_1_3
v -0.240203 1.977394 -0.222414
v -0.447402 2.229710 -0.130577
v -0.275610 2.194361 -0.143909
v -0.174633 2.093597 -0.180643
v -0.250694 2.443833 -0.053257
v -0.447402 2.559630 -0.010301
v -0.105567 2.596198 0.005104
v 0.240203 1.977394 -0.222414
v 0.174633 2.093597 -0.180643
v 0.447402 2.229710 -0.130577
v 0.275610 2.194361 -0.143909
v 0.250694 2.443833 -0.053257
v 0.447402 2.559630 -0.010301
v 0.112561 2.599448 0.004512
v 0.240203 2.809102 0.080648
v -0.240203 2.809102 0.080648
v -0.447402 2.192660 -0.037960
v -0.240335 1.940423 -0.129871
v -0.165980 2.082917 0.056065
v -0.274989 2.195424 0.056971
v -0.279782 2.428935 0.058027
v -0.447402 2.522774 0.082329
v -0.124208 2.599244 0.060409
v 0.240335 1.940423 -0.129871
v 0.165980 2.082917 0.056065
v 0.447402 2.192660 -0.037960
v 0.274990 2.195424 0.056971
v 0.279782 2.428935 0.058027
v 0.447402 2.522774 0.082329
v 0.130920 2.602178 0.059903
v -0.240335 2.784791 0.176498
v 0.240335 2.784791 0.176498
vn -1.0000 -0.0000 -0.0000
vn 0.0001 -0.3479 0.9375
vn 0.7533 0.6484 -0.1101
vn 0.6733 0.6932 -0.2573
vn 0.7181 -0.6959 0.0059
vn 0.7074 -0.7067 -0.0060
vn 0.9951 0.0985 0.0026
vn 0.9667 -0.0187 -0.2552
vn -0.0035 -0.3425 0.9395
vn -0.0026 -0.3418 0.9398
vn -0.0000 -0.3344 0.9424
vn 0.0077 -0.3455 0.9384
vn -0.8010 -0.5805 -0.1461
vn -0.0063 -0.3379 0.9412
vn 0.7883 -0.5718 -0.2275
vn 0.8010 -0.5805 -0.1461
vn -0.0116 0.9982 -0.0589
vn -0.0150 0.9989 -0.0442
vn -0.0000 -0.9693 -0.2459
vn 0.0009 -0.3418 0.9398
vn -0.7883 -0.5718 -0.2275
vn -0.9951 0.0985 0.0026
vn -0.9667 -0.0187 -0.2552
vn 0.0035 -0.3425 0.9395
vn 0.0026 -0.3418 0.9398
vn 1.0000 -0.0000 -0.0000
vn 0.7917 0.5670 0.2276
vn 0.7915 0.5674 0.2270
vn 0.0031 -0.3398 0.9405
vn -0.7181 -0.6959 0.0059
vn -0.7074 -0.7067 -0.0060
vn -0.0043 -0.3541 0.9352
vn -0.0000 -0.9990 -0.0451
vn -0.7917 0.5670 0.2276
vn -0.7915 0.5674 0.2270
vn -0.0031 -0.3398 0.9405
vn -0.6483 0.7163 -0.2580
vn -0.7338 0.6717 -0.1019
vn -0.0000 -0.3383 0.9410
vn -0.0000 0.9286 0.3710
s 0
f 137//93 153//93 156//93
f 137//93 156//93 140//93
f 139//94 140//94 141//94
f 157//95 155//95 139//95
f 157//96 139//96 141//96
f 138//97 154//97 152//97
f 138//98 152//98 136//98
f 154//99 138//99 139//99
f 154//100 139//100 155//100
f 137//101 140//101 139//101
f 137//102 139//102 138//102
f 142//103 143//103 134//103
f 142//104 134//104 141//104
f 156//105 159//105 142//105
f 133//106 134//106 143//106
f 133//107 143//107 149//107
f 143//108 158//108 149//108
f 134//109 150//109 157//109
f 134//110 157//110 141//110
f 142//111 159//111 158//111
f 142//111 158//111 143//111
f 142//112 141//112 140//112
f 142//113 140//113 156//113
f 132//114 130//114 147//114
f 132//115 147//115 148//115
f 132//116 133//116 129//116
f 132//117 129//117 130//117
f 149//118 144//118 129//118
f 149//118 129//118 133//118
f 144//119 145//119 128//119
f 144//120 128//120 129//120
f 128//121 131//121 130//121
f 128//121 130//121 129//121
f 146//122 147//122 130//122
f 146//123 130//123 131//123
f 133//124 132//124 134//124
f 136//125 152//125 146//125
f 136//125 146//125 131//125
f 135//126 151//126 153//126
f 135//127 153//127 137//127
f 135//128 137//128 138//128
f 135//128 138//128 136//128
f 150//129 134//129 132//129
f 150//130 132//130 148//130
f 135//131 136//131 131//131
f 135//131 131//131 128//131
f 145//132 151//132 135//132
f 145//132 135//132 128//132
o Hull_havok_s_armor_5_4
v -1.030103 1.796153 -2.313974
v 1.030103 1.796153 -2.313974
v 0.956632 1.780023 -2.398725
v -0.956632 1.780023 -2.398725
v 1.030103 1.780023 -2.309748
v -1.030103 1.780023 -2.309748
v -0.915113 1.427011 -2.473557
v 0.915114 1.427011 -2.473557
v -0.981991 1.427011 -2.365490
v 0.981991 1.427011 -2.365490
vn -0.8503 -0.0115 0.5262
vn -0.7606 0.1645 0.6280
vn -0.7711 0.0046 0.6367
vn -0.0000 -0.9824 0.1870
vn 0.7606 0.1645 0.6280
vn 0.7711 0.0046 0.6367
vn -0.0000 -0.2534 -0.9674
vn -0.0000 -0.2074 0.9783
vn 0.8503 -0.0115 0.5262
s 0
f 162//133 167//133 169//133
f 164//134 161//134 162//134
f 164//135 162//135 169//135
f 163//136 162//136 161//136
f 163//136 161//136 160//136
f 163//137 160//137 165//137
f 163//138 165//138 168//138
f 164//139 165//139 160//139
f 164//139 160//139 161//139
f 166//140 167//140 162//140
f 166//140 162//140 163//140
f 166//141 163//141 168//141
o Hull_havok_s_armor_6_5
v -0.915114 1.427011 -2.473557
v -0.915114 1.337152 -2.903785
v 0.915114 1.337152 -2.903785
v 0.915114 1.427011 -2.473557
v -0.915114 1.337152 -3.005653
v 0.915114 1.337152 -3.005653
vn -0.0000 -1.0000 -0.0000
vn -0.0000 -0.9789 0.2045
s 0
f 174//142 175//142 172//142
f 174//142 172//142 171//142
f 172//143 173//143 170//143
f 172//143 170//143 171//143
o Hull_havok_s_armor_8_6
v 0.915114 0.507673 2.857785
v 0.915114 0.507673 -1.431545
v -0.915114 0.507673 -1.431545
v -0.915114 0.507673 2.857785
vn -0.0000 1.0000 -0.0000
s 0
f 178//144 179//144 176//144
f 178//144 176//144 177//144
o Hull_havok_s_armor_7_7
v -0.915114 0.507673 -1.431545
v -0.915114 1.194395 -1.834260
v -0.915114 1.194395 1.880221
v -0.915114 0.507673 2.857785
v -0.915114 1.371945 2.633891
v -0.915114 0.614625 3.058591
v -0.914137 1.371945 3.058591
v -0.915060 0.507729 -2.737530
v -0.915114 1.427011 -2.365491
v 0.915114 1.194395 1.880221
v 0.915114 1.194395 -1.834260
v 0.915114 0.507673 -1.431545
v 0.915114 0.507673 2.857785
v 0.915114 1.371945 2.633891
v 0.915114 0.614625 3.058591
v 0.915114 1.371945 3.058591
v 0.915114 1.427011 -2.365491
v 0.915114 0.507673 -2.737807
v 0.915114 0.921365 -3.251409
v 0.914360 0.508468 -2.811697
v 0.915114 1.427011 -2.473557
v 0.915114 1.337152 -2.903785
v 0.915114 1.337152 -3.005653
v -0.915114 1.427011 -2.473557
v -0.915114 1.337152 -2.903785
v -0.915114 1.337152 -3.005653
v -0.915114 0.507673 -2.812148
v -0.915114 0.921365 -3.251409
vn -1.0000 -0.0000 -0.0000
vn -1.0000 0.0011 -0.0007
vn -0.9999 -0.0029 0.0102
vn 1.0000 -0.0000 -0.0000
vn 1.0000 -0.0001 -0.0007
vn 1.0000 0.0001 -0.0000
vn 1.0000 -0.0013 -0.0023
s 0
f 198//145 200//145 201//145
f 198//145 201//145 202//145
f 198//146 199//146 200//146
f 190//145 196//145 197//145
f 190//145 197//145 191//145
f 200//147 199//147 197//147
f 200//145 197//145 196//145
f 206//148 205//148 204//148
f 206//149 204//149 187//149
f 205//148 206//148 207//148
f 187//150 204//150 203//150
f 187//150 203//150 188//150
f 184//151 186//151 185//151
f 184//148 185//148 183//148
f 182//148 184//148 183//148
f 182//148 183//148 180//148
f 182//148 180//148 181//148
f 187//148 188//148 181//148
f 187//148 181//148 180//148
f 194//145 195//145 193//145
f 194//145 193//145 192//145
f 193//145 189//145 192//145
f 191//145 192//145 189//145
f 191//145 189//145 190//145
o Hull_havok_s_armor_4_8
v -0.014238 2.773803 3.166349
v -0.263583 2.692844 3.193836
v 0.362608 2.599145 3.226139
v 0.203340 2.727365 3.181934
v -0.399352 2.542432 3.245691
v -0.448090 2.350514 3.312282
v 0.426576 2.219829 3.357337
v 0.316916 2.051335 3.415426
v 0.138502 1.948184 3.450846
v 0.442676 2.416679 3.289046
v -0.399352 2.158596 3.378589
v -0.263583 2.008184 3.431294
v -0.069938 1.932568 3.456230
v -1.488501 1.371944 3.058591
v -1.488900 1.734573 3.439167
v 1.489389 1.734573 3.439167
v -0.914136 1.371944 3.058591
v 0.915113 1.371944 3.058591
v 1.489478 1.371944 3.058591
v 0.915113 0.614625 3.058591
v -0.915113 0.614625 3.058591
v -0.914169 2.959160 3.102362
v 0.914169 2.959160 3.102362
v 1.550000 1.792031 3.505748
v -1.550000 1.792031 3.505748
v 1.489299 1.762097 3.439167
v -1.489299 1.762097 3.439167
vn 0.0006 -0.3263 -0.9453
vn -0.0000 -0.3278 -0.9448
vn -0.0005 -0.3264 -0.9452
vn -0.0004 -0.3266 -0.9451
vn 0.0010 -0.3262 -0.9453
vn 0.0005 -0.3258 -0.9455
vn -0.0009 -0.3268 -0.9451
vn -0.0014 -0.3275 -0.9449
vn -0.0009 -0.3152 -0.9490
vn -0.0040 -0.3339 -0.9426
vn 0.0007 -0.3259 -0.9454
vn 0.0003 -0.3294 -0.9442
vn 0.0008 -0.3300 -0.9440
vn -0.0016 -0.3170 -0.9484
vn -0.0000 -0.0000 -1.0000
vn -0.0000 -0.3323 -0.9432
vn -0.0000 0.9121 -0.4101
vn 0.0007 -0.3234 -0.9463
vn -0.0000 -0.3263 -0.9453
vn -0.0009 -0.3221 -0.9467
vn 0.0003 -0.3256 -0.9455
vn -0.0000 0.7240 -0.6898
vn -0.0008 -0.3277 -0.9448
vn -0.0000 -0.3259 -0.9454
vn 0.0002 -0.3261 -0.9453
vn 0.0004 -0.3262 -0.9453
vn -0.0005 -0.3202 -0.9474
vn -0.0004 -0.3256 -0.9455
vn -0.0019 -0.3274 -0.9449
s 0
f 231//152 215//152 214//152
f 231//153 214//153 217//153
f 232//154 229//154 213//154
f 232//155 213//155 218//155
f 230//156 231//156 217//156
f 230//157 217//157 210//157
f 216//158 218//158 213//158
f 216//159 213//159 212//159
f 216//160 220//160 219//160
f 216//161 219//161 218//161
f 216//162 215//162 231//162
f 216//163 231//163 220//163
f 232//164 218//164 219//164
f 232//165 219//165 220//165
f 234//166 233//166 223//166
f 234//166 223//166 222//166
f 232//167 220//167 231//167
f 233//168 234//168 232//168
f 233//168 232//168 231//168
f 208//169 209//169 229//169
f 208//170 229//170 230//170
f 211//171 208//171 230//171
f 211//172 230//172 210//172
f 227//166 228//166 224//166
f 227//166 224//166 225//166
f 223//173 224//173 221//173
f 223//173 221//173 222//173
f 223//173 226//173 225//173
f 223//173 225//173 224//173
f 217//174 214//174 209//174
f 217//175 209//175 210//175
f 209//176 216//176 212//176
f 215//162 216//162 209//162
f 215//177 209//177 214//177
f 211//175 210//175 209//175
f 211//178 209//178 208//178
f 229//179 209//179 212//179
f 229//180 212//180 213//180
o Hull_havok_s_armor_9_9
v 1.364482 1.780023 -1.638244
v 1.368493 1.780023 -0.272166
v -1.364482 1.780023 -1.638244
v -1.368493 1.780023 -0.272166
v 0.914168 2.959160 3.102362
v -0.914168 2.959160 3.102362
v -0.326130 2.835439 1.024904
v 1.014105 2.784791 0.176498
v -1.014105 2.784791 0.176498
v -0.406378 2.835439 1.024904
v -0.326130 2.828618 0.897779
v 0.240335 2.784791 0.176498
v -0.240335 2.784791 0.176498
v -0.406378 2.828618 0.897779
v 1.489251 1.780023 -1.834260
v 1.489261 1.780023 -0.183789
v -1.489261 1.780023 -0.183789
v -1.489251 1.780023 -1.834260
v -1.030103 1.780023 -2.309748
v -0.770169 1.780023 -1.990813
v -0.795710 1.780023 -2.037252
v -0.701954 1.780023 -2.088814
v -0.599342 1.780023 -2.060044
v -0.676413 1.780023 -2.042375
v -0.599342 1.780023 -2.113044
v -0.492343 1.780023 -2.060044
v -0.492343 1.780023 -2.113044
v -0.390203 1.780023 -2.088173
v -0.414171 1.780023 -2.040904
v 1.030103 1.780023 -2.309748
v -0.318739 1.780023 -1.992513
v -0.294771 1.780023 -2.039784
vn -0.0000 -1.0000 -0.0000
vn 0.0084 -0.9985 0.0536
vn -0.0000 -0.9982 0.0607
vn -0.0038 -0.9986 0.0536
vn -0.0001 -0.9982 0.0595
vn -0.0000 -0.9982 0.0594
vn 0.0002 -0.9982 0.0595
s 0
f 260//181 263//181 237//181
f 260//181 237//181 257//181
f 237//181 252//181 254//181
f 237//181 254//181 257//181
f 262//181 263//181 260//181
f 262//181 260//181 261//181
f 257//181 254//181 258//181
f 259//181 257//181 258//181
f 259//181 258//181 256//181
f 265//181 235//181 237//181
f 265//181 237//181 263//181
f 235//181 265//181 264//181
f 235//181 264//181 249//181
f 266//181 262//181 264//181
f 266//181 264//181 265//181
f 259//181 256//181 253//181
f 259//181 253//181 264//181
f 261//181 259//181 264//181
f 261//181 264//181 262//181
f 255//181 254//181 253//181
f 255//181 253//181 256//181
f 248//182 244//182 243//182
f 248//183 243//183 247//183
f 245//183 248//183 247//183
f 245//183 247//183 246//183
f 245//183 246//183 242//183
f 245//184 242//184 241//184
f 241//185 242//185 239//185
f 241//186 239//186 240//186
f 244//186 241//186 240//186
f 244//187 240//187 243//187
f 250//181 251//181 238//181
f 250//181 238//181 236//181
f 253//181 254//181 252//181
f 236//181 238//181 237//181
f 236//181 237//181 235//181
f 235//181 249//181 250//181
f 235//181 250//181 236//181
f 251//181 252//181 237//181
f 251//181 237//181 238//181
o Hull_havok_s_armor_2_10
v -1.489261 1.780023 -0.183788
v 1.489261 1.780023 -0.183788
v 1.489431 1.905118 -0.143961
v -1.489557 1.904897 -0.144041
v 1.550000 1.791977 0.105515
v 1.489431 1.905118 0.106045
v 1.489277 1.762097 0.105515
v -1.489557 1.904897 0.106027
v -1.550000 1.791977 0.105515
v -1.489277 1.762097 0.105515
v 1.014105 2.784791 0.176498
v 0.447402 2.192660 -0.037960
v 0.240335 1.940423 -0.129871
v -1.014105 2.784791 0.176498
v -0.447402 2.192660 -0.037960
v -0.447402 2.522773 0.082329
v -0.240335 2.784791 0.176498
v 0.447402 2.522773 0.082329
v 0.240335 2.784791 0.176498
v -0.240335 1.940423 -0.129871
vn 0.0022 -0.3424 0.9396
vn -0.0000 -0.3382 0.9411
vn -0.0022 -0.3424 0.9396
vn -0.0000 -0.3707 0.9288
vn -0.0000 -0.3706 0.9288
vn -0.0009 -0.3430 0.9393
vn -0.0013 -0.3417 0.9398
vn 0.0018 -0.0037 1.0000
vn -0.0000 -0.3033 0.9529
vn -0.0000 -0.3034 0.9529
vn 0.0009 -0.3430 0.9393
vn 0.0013 -0.3417 0.9398
vn -0.0018 -0.0036 1.0000
s 0
f 284//188 278//188 277//188
f 284//189 277//189 285//189
f 280//190 281//190 282//190
f 280//189 282//189 283//189
f 269//191 279//191 286//191
f 269//192 286//192 270//192
f 270//193 286//193 281//193
f 270//194 281//194 280//194
f 271//195 272//195 273//195
f 269//196 270//196 267//196
f 269//197 267//197 268//197
f 278//198 279//198 269//198
f 278//199 269//199 277//199
f 274//200 275//200 276//200
o Hull_havok_s_armor_11_11
v -0.795710 1.780023 -2.037253
v -0.701954 1.780023 -2.088815
v -0.676413 1.780023 -2.042375
v -0.770170 1.780023 -1.990813
v -0.318739 1.780023 -1.992513
v -0.414172 1.780023 -2.040903
v -0.390203 1.780023 -2.088174
v -0.294770 1.780023 -2.039783
v -0.599343 1.780023 -2.113044
v -0.492343 1.780023 -2.113044
v -0.492343 1.780023 -2.060043
v -0.599343 1.780023 -2.060043
vn -0.0000 -1.0000 -0.0000
s 0
f 297//201 298//201 295//201
f 297//201 295//201 296//201
f 293//201 294//201 291//201
f 293//201 291//201 292//201
f 289//201 290//201 287//201
f 289//201 287//201 288//201
o Hull_havok_s_armor_13_12
v -0.326131 2.828618 0.897778
v -0.326131 2.835439 1.024904
v -0.406379 2.835439 1.024904
v -0.406379 2.828618 0.897778
vn -0.0000 -0.9986 0.0536
s 0
f 301//202 302//202 299//202
f 301//202 299//202 300//202
o Hull_havok_s_armor_14_13
v -0.915114 0.507673 2.857785
v -0.915114 0.614625 3.058591
v 0.915114 0.614625 3.058591
v 0.915114 0.507673 2.857785
vn -0.0000 0.8826 -0.4701
s 0
f 305//203 306//203 303//203
f 305//203 303//203 304//203
o Hull_havok_s_armor_15_14
v -1.489552 1.194395 1.880221
v -0.915113 1.194395 1.880221
v -0.915113 1.194395 -1.834260
v -1.489527 1.194395 -1.834260
v -0.915113 1.371945 2.633891
v -1.489513 1.371945 1.880221
v 1.489552 1.194395 1.880221
v 1.489527 1.194395 -1.834260
v 0.915113 1.194395 -1.834260
v 0.915113 1.194395 1.880221
v 1.489479 1.371945 3.058591
v 1.489513 1.371945 1.880221
v 0.915113 1.371945 2.633891
v 0.915113 1.371945 3.058591
v -1.488502 1.371945 3.058591
v -0.914136 1.371945 3.058591
vn -0.0000 1.0000 -0.0000
vn -0.0000 0.9734 -0.2293
vn -0.7953 -0.0002 -0.6062
vn 0.7953 -0.0002 -0.6062
s 0
f 319//204 320//204 317//204
f 319//204 317//204 318//204
f 313//205 316//205 319//205
f 313//206 319//206 318//206
f 321//204 322//204 311//204
f 321//204 311//204 312//204
f 309//204 310//204 307//204
f 309//204 307//204 308//204
f 311//205 308//205 307//205
f 311//207 307//207 312//207
f 315//204 316//204 313//204
f 315//204 313//204 314//204
o Hull_havok_s_armor_12_15
v 0.915114 0.507673 -1.431545
v 0.915114 0.507673 -2.737808
v -0.915060 0.507729 -2.737530
v -0.915114 0.507673 -1.431545
v 0.914360 0.508468 -2.811697
v -0.915114 0.507673 -2.812147
vn -0.0004 1.0000 -0.0007
vn -0.0000 0.9999 0.0108
vn -0.0000 1.0000 -0.0000
s 0
f 327//208 328//208 325//208
f 327//209 325//209 324//209
f 325//210 326//210 323//210
f 325//210 323//210 324//210
o Hull_havok_s_armor_16_16
v 0.981991 1.427011 -2.365490
v 1.489527 1.194395 -1.834260
v 1.489250 1.780023 -1.834260
v 1.030103 1.780023 -2.309748
v -1.489250 1.780023 -1.834260
v -1.489527 1.194395 -1.834260
v -0.981991 1.427011 -2.365490
v -1.030102 1.780023 -2.309748
vn 0.7193 -0.0116 0.6946
vn 0.7231 -0.0003 0.6907
vn -0.7193 -0.0116 0.6946
vn -0.7231 -0.0003 0.6907
s 0
f 335//211 336//211 333//211
f 335//212 333//212 334//212
f 331//213 332//213 329//213
f 331//214 329//214 330//214
o Hull_havok_s_armor_17_17
v -0.915114 0.921365 -3.251409
v -0.915114 0.507673 -2.812147
v 0.914360 0.508468 -2.811696
v 0.915114 0.921365 -3.251409
vn -0.0000 0.7290 0.6845
vn -0.0005 0.7280 0.6856
s 0
f 339//215 340//215 337//215
f 339//216 337//216 338//216
o Hull_havok_s_armor_18_18
v -0.981991 1.427011 -2.365490
v -1.489527 1.194395 -1.834260
v -0.915114 1.194395 -1.834260
v 0.915114 1.194395 -1.834260
v 1.489527 1.194395 -1.834260
v 0.981991 1.427011 -2.365490
v 0.915114 1.427011 -2.365490
v 0.915114 1.427011 -2.473557
v -0.915114 1.427011 -2.365490
v -0.915114 1.427011 -2.473557
vn -0.0000 1.0000 -0.0000
vn -0.0000 0.9160 0.4011
s 0
f 346//217 348//217 347//217
f 341//218 343//218 349//218
f 341//217 349//217 350//217
f 341//218 342//218 343//218
f 346//218 347//218 344//218
f 346//218 344//218 345//218
o Hull_havok_s_armor_19_19
v -0.915114 1.337152 -3.005653
v -0.915114 0.921365 -3.251409
v 0.915114 0.921365 -3.251409
v 0.915114 1.337152 -3.005653
vn -0.0000 -0.5088 0.8609
s 0
f 353//219 354//219 351//219
f 353//219 351//219 352//219
o Gun_02_havok_s_armor_3_0
v -0.000111 2.100509 -0.276037
v -0.159995 2.166851 -0.276037
v -0.131247 2.195599 -0.251613
v -0.000111 2.141419 -0.251613
v -0.159995 2.486840 -0.276037
v 0.000111 2.553182 -0.276037
v -0.131247 2.458092 -0.251613
v 0.000111 2.512271 -0.251613
v -0.226337 2.326956 -0.276037
v -0.185426 2.326956 -0.251613
v 0.159995 2.486840 -0.276037
v 0.226337 2.326956 -0.276037
v 0.159995 2.166851 -0.276037
v 0.131247 2.458092 -0.251613
v 0.185426 2.326956 -0.251613
v 0.131247 2.195599 -0.251613
v -0.000000 2.100509 -0.453113
v -0.160045 2.166801 -0.453113
v -0.131143 2.195703 -0.143598
v -0.000000 2.141382 -0.143598
v -0.160045 2.486891 -0.453113
v 0.000000 2.553182 -0.453113
v -0.226337 2.326846 -0.453113
v -0.131143 2.457989 -0.143598
v -0.185465 2.326846 -0.143598
v 0.160045 2.486891 -0.453113
v 0.226337 2.326846 -0.453113
v 0.160045 2.166801 -0.453113
v 0.131143 2.457989 -0.143598
v 0.185464 2.326846 -0.143598
v 0.131143 2.195703 -0.143598
v 0.000000 2.512309 -0.143598
vn -0.5015 -0.2072 -0.8400
vn -0.5034 -0.2089 -0.8384
vn -0.5042 0.2079 -0.8382
vn -0.5014 0.2078 -0.8399
vn -0.3827 0.9239 -0.0004
vn -0.3828 0.9238 -0.0002
vn -0.9239 0.3827 -0.0002
vn -0.9238 0.3828 -0.0004
vn -0.9239 -0.3827 -0.0001
vn -0.9242 -0.3818 -0.0013
vn -0.9239 0.3827 -0.0013
vn -0.9245 0.3813 0.0007
vn -0.2082 -0.5040 -0.8383
vn -0.2080 -0.5014 -0.8398
vn -0.3827 -0.9239 -0.0012
vn -0.3818 -0.9242 -0.0001
vn 0.3827 -0.9239 0.0007
vn 0.3813 -0.9245 -0.0012
vn -0.3827 0.9239 0.0007
vn -0.3813 0.9245 -0.0013
vn -0.2087 0.5036 -0.8384
vn -0.2069 0.5015 -0.8401
vn -0.3827 -0.9239 0.0002
vn -0.3833 -0.9236 -0.0004
vn 0.3827 -0.9239 -0.0004
vn 0.3828 -0.9238 -0.0002
vn 0.2069 -0.5015 -0.8401
vn 0.2087 -0.5036 -0.8384
vn 0.9239 -0.3827 0.0002
vn 0.9236 -0.3833 -0.0004
vn 0.3827 0.9239 0.0002
vn 0.3833 0.9236 -0.0004
vn 0.3827 0.9239 -0.0013
vn 0.3818 0.9242 -0.0001
vn 0.2082 0.5040 -0.8383
vn 0.2080 0.5014 -0.8398
vn 0.5014 -0.2080 -0.8398
vn 0.5040 -0.2082 -0.8383
vn 0.5015 0.2069 -0.8401
vn 0.5036 0.2087 -0.8384
vn -0.9239 -0.3827 -0.0004
vn -0.9236 -0.3833 0.0002
vn 0.9239 0.3827 -0.0004
vn 0.9238 0.3828 -0.0002
vn 0.9239 -0.3827 -0.0013
vn 0.9242 -0.3818 -0.0001
vn 0.9239 0.3827 0.0007
vn 0.9245 0.3813 -0.0013
s 0
f 366//220 369//220 368//220
f 366//221 368//221 365//221
f 367//222 370//222 369//222
f 367//223 369//223 366//223
f 367//224 382//224 371//224
f 367//225 371//225 355//225
f 366//226 381//226 382//226
f 366//227 382//227 367//227
f 369//228 384//228 383//228
f 369//229 383//229 368//229
f 370//230 385//230 384//230
f 370//231 384//231 369//231
f 365//232 368//232 362//232
f 365//233 362//233 360//233
f 368//234 383//234 386//234
f 368//235 386//235 362//235
f 362//236 386//236 378//236
f 362//237 378//237 361//237
f 358//238 374//238 385//238
f 358//239 385//239 370//239
f 370//240 367//240 355//240
f 370//241 355//241 358//241
f 360//242 376//242 380//242
f 360//243 380//243 365//243
f 359//244 375//244 376//244
f 359//245 376//245 360//245
f 360//246 362//246 361//246
f 360//247 361//247 359//247
f 363//248 377//248 375//248
f 363//249 375//249 359//249
f 355//250 371//250 372//250
f 355//251 372//251 356//251
f 357//252 373//252 374//252
f 357//253 374//253 358//253
f 356//254 357//254 358//254
f 356//255 358//255 355//255
f 364//256 363//256 359//256
f 364//257 359//257 361//257
f 363//258 364//258 357//258
f 363//259 357//259 356//259
f 365//260 380//260 381//260
f 365//261 381//261 366//261
f 356//262 372//262 377//262
f 356//263 377//263 363//263
f 361//264 378//264 379//264
f 361//265 379//265 364//265
f 364//266 379//266 373//266
f 364//267 373//267 357//267
o Gun_02_havok_s_armor_6_1
v -0.155882 2.536257 -0.453113
v -0.360726 2.705476 -0.453113
v -0.428386 2.576289 -0.453113
v -0.252223 2.403655 -0.453113
v -0.428386 2.214918 -0.453113
v -0.252223 2.239751 -0.453113
v 0.257458 2.748975 -0.453113
v -0.257432 2.748975 -0.453113
v 0.000000 2.586907 -0.453113
v 0.155884 2.536257 -0.453113
v -0.155882 2.107149 -0.453113
v -0.257432 2.041243 -0.453113
v 0.000000 2.056500 -0.453113
v -0.360685 2.085113 -0.453113
v 0.257458 2.041243 -0.453113
v 0.155884 2.107149 -0.453113
v 0.428412 2.576289 -0.453113
v 0.360752 2.705476 -0.453113
v 0.252224 2.403655 -0.453113
v 0.252224 2.239751 -0.453113
v 0.428412 2.214918 -0.453113
v 0.360711 2.085113 -0.453113
vn -0.0000 -0.0000 1.0000
s 0
f 396//268 405//268 403//268
f 396//268 403//268 404//268
f 396//268 404//268 393//268
f 399//268 398//268 401//268
f 399//268 401//268 402//268
f 402//268 401//268 406//268
f 408//268 407//268 406//268
f 408//268 406//268 401//268
f 405//268 406//268 407//268
f 405//268 407//268 403//268
f 395//268 396//268 393//268
f 395//268 393//268 394//268
f 391//268 392//268 390//268
f 391//268 390//268 389//268
f 389//268 390//268 387//268
f 389//268 387//268 388//268
f 400//268 398//268 392//268
f 400//268 392//268 391//268
f 397//268 392//268 398//268
f 397//268 398//268 399//268
f 387//268 395//268 394//268
f 387//268 394//268 388//268
o Gun_02_havok_s_gun_2
v -0.140024 2.449195 0.999497
v -0.144838 2.459163 0.059023
v 0.144839 2.459163 0.059023
v 0.140025 2.449195 0.999497
v -0.140024 2.192525 0.999497
v 0.140025 2.192525 0.999497
v 0.144839 2.181561 0.059023
v -0.144838 2.181561 0.059023
v 0.108152 2.216780 -0.252893
v -0.108151 2.216780 -0.252893
v 0.108152 2.427100 -0.252893
v -0.108151 2.427100 -0.252893
v 0.150317 2.467304 -0.276523
v 0.150317 2.174417 -0.276523
v -0.150316 2.174417 -0.276523
v -0.150316 2.467304 -0.276523
v -0.141850 2.174417 -0.734945
v -0.141850 2.467304 -0.734945
v 0.141851 2.174417 -0.734945
v 0.141851 2.467304 -0.734945
v 0.131559 2.192858 -1.098847
v 0.124587 2.192858 -0.758575
v 0.124587 2.448863 -0.758575
v 0.131559 2.448863 -1.098847
v -0.124586 2.192858 -0.758575
v -0.131558 2.192858 -1.098847
v -0.131558 2.448863 -1.098847
v -0.124586 2.448863 -0.758575
v 0.094706 2.229572 -1.131929
v -0.094705 2.229572 -1.131929
v 0.094706 2.412148 -1.131929
v -0.094705 2.412148 -1.131929
v -0.088397 2.409324 -3.064863
v 0.088398 2.409324 -3.064863
v -0.088397 2.232396 -3.064863
v 0.088398 2.232396 -3.064863
v 0.169906 2.490894 -3.390957
v 0.112302 2.459163 -3.835201
v 0.112302 2.182557 -3.835201
v 0.169906 2.150827 -3.390957
v -0.112301 2.459163 -3.835201
v -0.112301 2.182557 -3.835201
v -0.169905 2.150827 -3.390957
v -0.169905 2.490894 -3.390957
vn -0.0000 -1.0000 0.0015
vn -0.8075 -0.0000 0.5899
vn 1.0000 -0.0000 0.0033
vn -1.0000 -0.0000 0.0033
vn -0.0000 1.0000 0.0015
vn -0.6680 -0.0000 0.7442
vn -0.0000 0.6694 0.7429
vn -0.0000 0.7884 0.6152
vn 0.8075 -0.0000 0.5899
vn -0.0000 -0.7884 0.6152
vn -0.0000 -0.6694 0.7429
vn -0.0000 -0.9701 -0.2427
vn -0.0000 -0.9975 0.0712
vn 0.9702 -0.0000 -0.2425
vn -0.0000 0.9701 -0.2427
vn -0.9702 -0.0000 -0.2425
vn -0.9917 -0.0000 0.1286
vn 0.6680 -0.0000 0.7442
vn -0.0000 -0.0000 1.0000
vn 0.9917 -0.0000 0.1286
vn -0.0000 0.9975 0.0712
vn -0.9932 -0.0000 0.1168
vn -0.0000 0.9937 0.1122
vn -0.0000 -0.9948 0.1023
vn -0.4889 -0.0000 -0.8724
vn 0.9932 -0.0000 0.1168
vn -0.0000 -0.0000 -1.0000
vn -0.0000 -0.9999 -0.0106
vn -0.0000 0.9999 -0.0117
vn 1.0000 -0.0000 -0.0051
vn -1.0000 -0.0000 -0.0051
vn 0.4889 -0.0000 -0.8724
vn -0.9998 -0.0000 -0.0205
vn -0.0000 -0.5067 -0.8621
vn 0.9998 -0.0000 -0.0205
vn -0.0000 -1.0000 -0.0000
vn -0.0000 1.0000 -0.0000
vn -0.9998 -0.0000 0.0185
vn 0.9998 -0.0000 0.0185
vn -0.0000 0.4871 -0.8733
s 0
f 441//269 442//269 439//269
f 441//269 439//269 440//269
f 428//270 431//270 430//270
f 428//270 430//270 427//270
f 443//271 441//271 440//271
f 443//271 440//271 438//271
f 442//272 444//272 437//272
f 442//272 437//272 439//272
f 444//273 443//273 438//273
f 444//273 438//273 437//273
f 432//274 439//274 437//274
f 432//274 437//274 429//274
f 429//275 437//275 438//275
f 429//275 438//275 434//275
f 427//276 430//276 433//276
f 427//276 433//276 425//276
f 425//277 433//277 436//277
f 425//277 436//277 426//277
f 426//278 436//278 431//278
f 426//278 431//278 428//278
f 435//279 440//279 439//279
f 435//279 439//279 432//279
f 441//280 452//280 445//280
f 441//280 445//280 442//280
f 452//281 449//281 446//281
f 452//281 446//281 445//281
f 443//282 451//282 452//282
f 443//282 452//282 441//282
f 444//283 448//283 451//283
f 444//283 451//283 443//283
f 442//284 445//284 448//284
f 442//284 448//284 444//284
f 447//285 448//285 445//285
f 447//285 445//285 446//285
f 434//286 438//286 440//286
f 434//286 440//286 435//286
f 449//287 450//287 447//287
f 449//287 447//287 446//287
f 449//288 452//288 451//288
f 449//288 451//288 450//288
f 450//289 451//289 448//289
f 450//289 448//289 447//289
f 411//290 419//290 417//290
f 411//290 417//290 415//290
f 415//291 417//291 418//291
f 415//291 418//291 416//291
f 410//292 420//292 419//292
f 410//292 419//292 411//292
f 421//293 422//293 417//293
f 421//293 417//293 419//293
f 418//294 420//294 410//294
f 418//294 410//294 416//294
f 412//295 414//295 413//295
f 412//295 413//295 409//295
f 411//296 412//296 409//296
f 411//296 409//296 410//296
f 414//297 415//297 416//297
f 414//297 416//297 413//297
f 413//298 416//298 410//298
f 413//298 410//298 409//298
f 415//299 414//299 412//299
f 415//299 412//299 411//299
f 418//300 423//300 424//300
f 418//300 424//300 420//300
f 431//301 432//301 429//301
f 431//301 429//301 430//301
f 420//302 424//302 421//302
f 420//302 421//302 419//302
f 435//303 436//303 433//303
f 435//303 433//303 434//303
f 436//304 435//304 432//304
f 436//304 432//304 431//304
f 434//305 433//305 430//305
f 434//305 430//305 429//305
f 421//306 428//306 427//306
f 421//306 427//306 422//306
f 423//307 425//307 426//307
f 423//307 426//307 424//307
f 424//304 426//304 428//304
f 424//304 428//304 421//304
f 417//308 422//308 423//308
f 417//308 423//308 418//308
f 422//305 427//305 425//305
f 422//305 425//305 423//305
o Gun_02_havok_s_armor_7_3
v 0.000001 2.539621 -0.582921
v -0.207252 2.254363 -0.582921
v 0.128089 2.145403 -0.582921
v -0.128089 2.498003 -0.582921
v -0.207252 2.389044 -0.582921
v -0.128089 2.145403 -0.582921
v 0.000001 2.103785 -0.582921
v 0.207253 2.389044 -0.582921
v 0.128089 2.498003 -0.582921
v 0.207253 2.254363 -0.582921
vn -0.0000 -0.0000 1.0000
s 0
f 460//309 461//309 453//309
f 460//309 453//309 455//309
f 462//309 460//309 455//309
f 454//309 458//309 459//309
f 454//309 459//309 455//309
f 453//309 454//309 455//309
f 456//309 457//309 454//309
f 456//309 454//309 453//309
o Gun_02_havok_s_armor_8_4
v 0.000138 2.043357 0.061011
v -0.200395 2.126451 0.061011
v 0.200395 2.126451 0.061011
v 0.200395 2.527241 0.061011
v 0.000138 2.610335 0.061011
v -0.200395 2.527241 0.061011
v -0.283489 2.326707 0.061011
v 0.283489 2.326707 0.061011
v 0.000000 2.141382 -0.143598
v -0.131143 2.195703 -0.143598
v -0.000000 2.042160 0.131164
v 0.201303 2.125543 0.131164
v -0.201303 2.125543 0.131164
v 0.131143 2.457989 -0.143598
v 0.000000 2.512309 -0.143598
v -0.131143 2.457989 -0.143598
v 0.000000 2.611532 0.131164
v 0.201303 2.528149 0.131164
v -0.201303 2.528149 0.131164
v -0.185465 2.326846 -0.143598
v -0.284686 2.326846 0.131164
v 0.185465 2.326846 -0.143598
v 0.131143 2.195703 -0.143598
v 0.284685 2.326846 0.131164
vn 0.9238 0.3826 0.0150
vn 0.9235 0.3832 0.0169
vn -0.8449 -0.3500 0.4044
vn -0.8449 -0.3501 0.4045
vn 0.8449 0.3500 0.4044
vn 0.8446 0.3504 0.4049
vn 0.9237 -0.3826 0.0169
vn 0.9237 -0.3828 0.0165
vn -0.9237 0.3826 0.0169
vn -0.9235 0.3832 0.0150
vn -0.3500 0.8449 0.4044
vn -0.3504 0.8446 0.4049
vn -0.8447 0.3499 0.4049
vn -0.8447 0.3505 0.4045
vn -0.9238 -0.3826 0.0165
vn -0.9237 -0.3827 0.0169
vn 0.3826 0.9237 0.0169
vn 0.3828 0.9237 0.0165
vn -0.3499 -0.8447 0.4049
vn -0.3505 -0.8447 0.4045
vn 0.3500 0.8449 0.4045
vn 0.3501 0.8449 0.4045
vn -0.3826 0.9238 0.0150
vn -0.3832 0.9235 0.0169
vn 0.3826 -0.9238 0.0165
vn 0.3827 -0.9237 0.0169
vn 0.8449 -0.3500 0.4045
vn 0.8449 -0.3501 0.4045
vn 0.3500 -0.8450 0.4044
vn 0.3501 -0.8449 0.4045
vn -0.3826 -0.9237 0.0169
vn -0.3832 -0.9235 0.0150
s 0
f 469//310 483//310 475//310
f 469//311 475//311 464//311
f 466//312 476//312 484//312
f 466//313 484//313 470//313
f 464//314 472//314 482//314
f 464//315 482//315 469//315
f 468//316 481//316 483//316
f 468//317 483//317 469//317
f 465//318 474//318 486//318
f 465//319 486//319 470//319
f 465//320 485//320 471//320
f 465//321 471//321 463//321
f 470//322 484//322 485//322
f 470//323 485//323 465//323
f 470//324 486//324 480//324
f 470//325 480//325 466//325
f 464//326 475//326 473//326
f 464//327 473//327 463//327
f 467//328 477//328 476//328
f 467//329 476//329 466//329
f 463//330 471//330 472//330
f 463//331 472//331 464//331
f 463//332 473//332 474//332
f 463//333 474//333 465//333
f 467//334 479//334 481//334
f 467//335 481//335 468//335
f 469//336 482//336 478//336
f 469//337 478//337 468//337
f 468//338 478//338 477//338
f 468//339 477//339 467//339
f 466//340 480//340 479//340
f 466//341 479//341 467//341
o Gun_02_havok_s_armor_10_5
v -0.128089 2.145404 -0.582921
v -0.155882 2.107149 -0.453113
v 0.000001 2.056500 -0.453113
v 0.000001 2.103785 -0.582921
v 0.155883 2.107149 -0.453113
v 0.128090 2.145404 -0.582921
v -0.207252 2.254363 -0.582921
v -0.252223 2.239751 -0.453113
v 0.252224 2.239751 -0.453113
v 0.207253 2.254363 -0.582921
v 0.252224 2.403655 -0.453113
v 0.207253 2.389044 -0.582921
v -0.155882 2.536258 -0.453113
v -0.128089 2.498003 -0.582921
v 0.000001 2.539621 -0.582921
v 0.000001 2.586907 -0.453113
v 0.128090 2.498003 -0.582921
v 0.155883 2.536258 -0.453113
v -0.252223 2.403655 -0.453113
v -0.207252 2.389044 -0.582921
vn -0.2920 -0.8987 0.3274
vn 0.2920 -0.8987 0.3274
vn -0.7644 -0.5554 0.3274
vn 0.9449 -0.0000 0.3274
vn 0.7644 -0.5554 0.3274
vn -0.2920 0.8987 0.3274
vn 0.2920 0.8987 0.3274
vn 0.7644 0.5554 0.3274
vn -0.9449 -0.0000 0.3274
vn -0.7644 0.5554 0.3274
s 0
f 503//342 504//342 502//342
f 503//342 502//342 501//342
f 501//343 502//343 499//343
f 501//343 499//343 500//343
f 504//344 503//344 498//344
f 504//344 498//344 497//344
f 506//345 505//345 494//345
f 506//345 494//345 493//345
f 505//346 506//346 500//346
f 505//346 500//346 499//346
f 491//347 492//347 490//347
f 491//347 490//347 489//347
f 489//348 490//348 487//348
f 489//348 487//348 488//348
f 493//349 494//349 488//349
f 493//349 488//349 487//349
f 497//350 498//350 496//350
f 497//350 496//350 495//350
f 495//351 496//351 492//351
f 495//351 492//351 491//351
