# Blender 5.1.0
# www.blender.org
o Chassis_havok_s_leftTrack_0
v -1.442391 0.521296 -2.048041
v -1.442391 0.521296 2.147089
v -1.442391 0.045654 1.927509
v -1.442391 0.028728 1.794605
v -1.442391 0.023085 1.661702
v -1.442391 0.021957 -1.660887
v -1.042369 0.023085 1.661702
v -1.042369 0.021957 -1.660887
v -0.957867 0.521296 -2.048041
v -0.957867 0.521296 2.147089
v -1.442391 0.839518 0.274882
v -1.442391 0.831055 0.563803
v -0.957867 0.831055 0.563803
v -0.957867 0.839518 0.274882
v -0.957867 0.798894 1.655923
v -0.957867 0.806229 1.413230
v -1.442391 0.806229 1.413230
v -1.442391 0.798894 1.655923
v -1.042369 0.058067 -1.932473
v -1.042369 0.024214 -1.793791
v -1.042369 0.475594 2.880948
v -1.042369 0.336230 -2.729895
v -1.042369 0.335102 2.794271
v -1.042369 0.254417 2.661368
v -1.042369 0.045654 1.927509
v -1.042369 0.028728 1.794605
v -1.042369 0.431020 -2.868577
v -0.957867 0.475594 2.880948
v -0.957867 0.431020 -2.868577
v -0.957867 1.077621 -2.227172
v -0.957867 0.571512 -2.966809
v -0.957867 0.740779 -3.001480
v -0.957867 0.906661 -2.966809
v -1.442391 1.077621 -2.227172
v -1.442391 0.571512 -2.966809
v -1.442391 0.431020 -2.868577
v -1.442391 0.336230 -2.729895
v -1.442391 0.740779 -3.001480
v -1.442391 0.906661 -2.966809
v -1.442391 0.058067 -1.932473
v -1.442391 0.024214 -1.793791
v -1.442391 1.031919 2.505351
v -1.442391 0.254417 2.661368
v -1.442391 0.936565 2.147089
v -1.442391 1.055617 2.037299
v -1.442391 0.999194 2.655589
v -0.957867 0.936565 2.147089
v -0.957867 1.031919 2.505351
v -1.442391 0.335102 2.794271
v -1.442391 0.475594 2.880948
v -0.957867 0.625677 2.909840
v -1.442391 0.625677 2.909840
v -1.442391 0.781403 2.880948
v -0.957867 0.781403 2.880948
v -1.442391 0.911175 2.794271
v -0.957867 0.911175 2.794271
v -0.957867 0.999194 2.655589
v -1.442391 1.021199 -0.470534
v -1.442391 1.090599 1.603918
v -1.442391 0.996937 0.274882
v -1.442391 0.960263 1.413230
v -1.442391 0.987345 0.563803
v -1.442391 1.029662 -0.730562
v -1.442391 1.053924 -1.499092
v -1.442391 1.062387 -1.753342
v -1.442391 1.170718 -1.568433
v -0.957867 1.021199 -0.470534
v -0.957867 0.996937 0.274882
v -0.957867 1.090599 1.603918
v -0.957867 0.987345 0.563803
v -0.957867 0.960263 1.413230
v -0.957867 1.029662 -0.730562
v -0.957867 1.053924 -1.499092
v -0.957867 1.170718 -1.568433
v -0.957867 1.062387 -1.753342
v -1.442391 0.868858 -0.730562
v -1.442391 0.860959 -0.470534
v -0.957867 0.860959 -0.470534
v -0.957867 0.868858 -0.730562
v -1.442391 1.057309 -2.868577
v -0.957867 1.057309 -2.868577
v -0.957867 1.148149 -2.724116
v -1.442391 1.148149 -2.724116
v -0.957867 1.176925 -2.562320
v -1.442391 1.176925 -2.562320
v -1.442391 0.898198 -1.753342
v -1.442391 0.890863 -1.499092
v -0.957867 0.890863 -1.499092
v -0.957867 0.898198 -1.753342
v -1.442391 0.952363 1.655923
v -0.957867 0.952363 1.655923
v -0.957867 1.055617 2.037299
vn -0.0000 -0.0000 -1.0000
vn 1.0000 -0.0000 -0.0000
vn -1.0000 -0.0000 -0.0000
vn -0.0000 -0.0000 1.0000
vn -0.0000 0.9995 0.0304
vn -0.0000 -0.5462 0.8377
vn -0.0000 -0.8465 0.5323
vn -0.0000 -0.9846 0.1751
vn -0.0000 -0.9997 -0.0252
vn -0.0000 0.9995 0.0316
vn -0.0000 0.9995 0.0325
vn -0.0000 0.9995 0.0319
vn -0.0000 -0.8443 -0.5359
vn -0.0000 -0.9771 -0.2128
vn -0.0000 -0.5554 -0.8316
vn -0.0000 -0.9987 -0.0506
vn -0.0000 -0.9968 -0.0805
vn -0.0000 0.9996 0.0288
vn -0.0000 -1.0000 -0.0062
vn -0.0000 0.9995 0.0321
vn -0.0000 -0.3065 -0.9519
vn -0.0000 0.5730 0.8195
vn -0.0000 0.8256 0.5643
vn -0.0000 0.2007 0.9797
vn -0.0000 -0.2046 0.9788
vn -0.0000 -1.0000 -0.0000
vn -0.0000 0.9996 0.0293
vn -0.0000 0.9995 0.0302
vn -0.0000 1.0000 -0.0003
vn -0.0000 1.0000 -0.0078
vn -0.0000 0.9442 0.3294
vn -0.0000 0.1890 -0.9820
vn -0.0000 0.8548 -0.5189
vn -0.0000 -0.1824 -0.9832
vn -0.0000 0.9715 0.2371
vn -0.0000 0.9999 0.0170
vn -0.0000 0.5251 -0.8511
vn -0.0000 0.9618 -0.2736
vn -0.0000 0.9920 -0.1263
vn -0.0000 0.9991 -0.0424
s 0
f 78//1 77//1 58//1
f 78//1 58//1 67//1
f 58//2 77//2 76//2
f 58//2 76//2 63//2
f 79//3 78//3 67//3
f 79//3 67//3 72//3
f 68//4 60//4 11//4
f 68//4 11//4 14//4
f 70//3 68//3 14//3
f 70//3 14//3 13//3
f 78//5 79//5 76//5
f 78//5 76//5 77//5
f 81//6 80//6 39//6
f 81//6 39//6 33//6
f 74//3 84//3 30//3
f 74//3 30//3 75//3
f 30//3 84//3 82//3
f 30//3 82//3 81//3
f 76//4 79//4 72//4
f 76//4 72//4 63//4
f 82//7 83//7 80//7
f 82//7 80//7 81//7
f 84//8 85//8 83//8
f 84//8 83//8 82//8
f 72//3 67//3 69//3
f 72//3 69//3 73//3
f 74//3 75//3 73//3
f 74//3 73//3 69//3
f 66//9 74//9 69//9
f 66//9 69//9 59//9
f 64//2 65//2 66//2
f 64//2 66//2 59//2
f 67//3 68//3 69//3
f 70//3 71//3 69//3
f 70//3 69//3 68//3
f 71//4 61//4 17//4
f 71//4 17//4 16//4
f 62//1 70//1 13//1
f 62//1 13//1 12//1
f 11//2 60//2 62//2
f 11//2 62//2 12//2
f 72//10 73//10 64//10
f 72//10 64//10 63//10
f 68//11 67//11 58//11
f 68//11 58//11 60//11
f 71//12 70//12 62//12
f 71//12 62//12 61//12
f 33//3 30//3 81//3
f 92//3 69//3 91//3
f 92//3 91//3 47//3
f 92//3 47//3 48//3
f 91//3 71//3 16//3
f 91//3 16//3 15//3
f 90//2 59//2 45//2
f 90//2 45//2 44//2
f 17//2 61//2 90//2
f 17//2 90//2 18//2
f 59//2 90//2 61//2
f 46//13 57//13 56//13
f 46//13 56//13 55//13
f 42//14 48//14 57//14
f 42//14 57//14 46//14
f 55//15 56//15 54//15
f 55//15 54//15 53//15
f 71//3 91//3 69//3
f 45//16 92//16 48//16
f 45//16 48//16 42//16
f 59//17 69//17 92//17
f 59//17 92//17 45//17
f 88//18 89//18 86//18
f 88//18 86//18 87//18
f 88//1 87//1 64//1
f 88//1 64//1 73//1
f 89//3 88//3 73//3
f 89//3 73//3 75//3
f 34//2 85//2 66//2
f 34//2 66//2 65//2
f 83//2 85//2 34//2
f 83//2 34//2 80//2
f 39//2 80//2 34//2
f 85//19 84//19 74//19
f 85//19 74//19 66//19
f 47//20 91//20 90//20
f 47//20 90//20 44//20
f 90//1 91//1 15//1
f 90//1 15//1 18//1
f 86//4 89//4 75//4
f 86//4 75//4 65//4
f 64//2 87//2 86//2
f 64//2 86//2 65//2
f 34//20 65//20 75//20
f 34//20 75//20 30//20
f 1//21 34//21 30//21
f 1//21 30//21 9//21
f 31//22 35//22 36//22
f 31//22 36//22 27//22
f 29//22 31//22 27//22
f 27//3 22//3 21//3
f 30//3 31//3 29//3
f 30//3 29//3 9//3
f 30//3 33//3 32//3
f 30//3 32//3 31//3
f 1//2 40//2 37//2
f 1//2 37//2 34//2
f 34//2 37//2 36//2
f 34//2 36//2 35//2
f 38//2 39//2 34//2
f 38//2 34//2 35//2
f 27//23 36//23 37//23
f 27//23 37//23 22//23
f 32//24 38//24 35//24
f 32//24 35//24 31//24
f 33//25 39//25 38//25
f 33//25 38//25 32//25
f 9//26 10//26 2//26
f 9//26 2//26 1//26
f 13//27 14//27 11//27
f 13//27 11//27 12//27
f 17//28 18//28 15//28
f 17//28 15//28 16//28
f 3//2 4//2 1//2
f 3//2 1//2 2//2
f 1//2 4//2 5//2
f 1//2 5//2 6//2
f 7//29 8//29 6//29
f 7//29 6//29 5//29
f 26//3 25//3 8//3
f 26//3 8//3 7//3
f 28//30 29//30 27//30
f 28//30 27//30 21//30
f 29//3 28//3 10//3
f 29//3 10//3 9//3
f 21//3 22//3 19//3
f 21//3 19//3 20//3
f 8//3 23//3 21//3
f 8//3 21//3 20//3
f 8//3 25//3 24//3
f 8//3 24//3 23//3
f 22//31 37//31 40//31
f 22//31 40//31 19//31
f 51//32 28//32 21//32
f 55//2 53//2 43//2
f 55//2 43//2 46//2
f 43//2 53//2 52//2
f 43//2 52//2 50//2
f 24//33 43//33 49//33
f 24//33 49//33 23//33
f 53//34 54//34 51//34
f 53//34 51//34 52//34
f 52//32 51//32 21//32
f 52//32 21//32 50//32
f 58//2 59//2 60//2
f 59//2 61//2 62//2
f 59//2 62//2 60//2
f 59//2 58//2 63//2
f 59//2 63//2 64//2
f 49//2 43//2 50//2
f 28//3 56//3 57//3
f 28//3 57//3 48//3
f 51//3 54//3 56//3
f 51//3 56//3 28//3
f 3//2 2//2 42//2
f 3//2 42//2 43//2
f 42//2 2//2 44//2
f 42//2 44//2 45//2
f 46//2 43//2 42//2
f 41//2 40//2 1//2
f 41//2 1//2 6//2
f 19//35 40//35 41//35
f 19//35 41//35 20//35
f 20//36 41//36 6//36
f 20//36 6//36 8//36
f 28//3 48//3 47//3
f 28//3 47//3 10//3
f 10//4 47//4 44//4
f 10//4 44//4 2//4
f 23//37 49//37 50//37
f 23//37 50//37 21//37
f 43//38 24//38 25//38
f 43//38 25//38 3//38
f 3//39 25//39 26//39
f 3//39 26//39 4//39
f 4//40 26//40 7//40
f 4//40 7//40 5//40
o Chassis_havok_s_rightTrack_1
v 1.442391 0.045654 1.927509
v 1.442391 0.254417 2.661368
v 1.442391 0.521296 2.147089
v 1.442391 0.023085 1.661702
v 1.442391 0.028728 1.794605
v 1.442391 1.031919 2.505351
v 1.442391 0.936565 2.147089
v 1.042397 0.028728 1.794605
v 1.042397 0.023085 1.661702
v 1.042397 0.254417 2.661368
v 1.042397 0.045654 1.927509
v 0.964964 0.521296 2.147089
v 0.964964 0.936565 2.147089
v 0.964964 0.952363 1.655923
v 0.964964 1.090599 1.603918
v 0.964964 1.055617 2.037299
v 0.964964 1.031919 2.505351
v 0.964964 0.798894 1.655923
v 0.964964 0.806229 1.413230
v 0.964964 0.960263 1.413230
v 1.442391 0.798894 1.655923
v 1.442391 0.806229 1.413230
v 1.442391 0.952363 1.655923
v 1.442391 1.055617 2.037299
v 1.442391 1.090599 1.603918
v 1.442391 0.960263 1.413230
v 0.964964 0.625677 2.909840
v 0.964964 0.781403 2.880948
v 1.442391 0.781403 2.880948
v 1.442391 0.625677 2.909840
v 1.442391 0.475594 2.880948
v 1.042397 0.475594 2.880948
v 0.964964 0.475594 2.880948
v 1.442391 0.911175 2.794271
v 0.964964 0.911175 2.794271
v 1.042397 0.335102 2.794271
v 1.442391 0.335102 2.794271
v 0.964964 0.999194 2.655589
v 1.442391 0.999194 2.655589
v 1.442391 0.058067 -1.932473
v 1.442391 0.024214 -1.793791
v 1.442391 0.521296 -2.048041
v 1.442391 0.021957 -1.660887
v 1.042397 0.021957 -1.660887
v 0.964964 0.521296 -2.048041
v 0.964964 0.831055 0.563803
v 1.442391 0.831055 0.563803
v 1.442391 0.839518 0.274882
v 0.964964 0.839518 0.274882
v 1.042397 0.024214 -1.793791
v 1.042397 0.058067 -1.932473
v 1.042397 0.336230 -2.729895
v 1.042397 0.431020 -2.868577
v 0.964964 0.431020 -2.868577
v 1.442391 1.021199 -0.470534
v 1.442391 0.996937 0.274882
v 1.442391 0.987345 0.563803
v 1.442391 1.053924 -1.499092
v 1.442391 1.029662 -0.730562
v 1.442391 1.170718 -1.568433
v 1.442391 1.062387 -1.753342
v 0.964964 1.021199 -0.470534
v 0.964964 0.996937 0.274882
v 0.964964 0.987345 0.563803
v 0.964964 1.029662 -0.730562
v 0.964964 1.053924 -1.499092
v 0.964964 1.170718 -1.568433
v 0.964964 1.062387 -1.753342
v 1.442391 0.868858 -0.730562
v 0.964964 0.868858 -0.730562
v 0.964964 0.860959 -0.470534
v 1.442391 0.860959 -0.470534
v 1.442391 1.176925 -2.562320
v 1.442391 0.336230 -2.729895
v 1.442391 1.077621 -2.227172
v 0.964964 0.571512 -2.966809
v 0.964964 1.077621 -2.227172
v 0.964964 0.740779 -3.001480
v 0.964964 0.906661 -2.966809
v 1.442391 0.431020 -2.868577
v 1.442391 0.571512 -2.966809
v 1.442391 0.740779 -3.001480
v 1.442391 0.906661 -2.966809
v 1.442391 1.148149 -2.724116
v 0.964964 1.057309 -2.868577
v 1.442391 1.057309 -2.868577
v 0.964964 1.148149 -2.724116
v 0.964964 1.176925 -2.562320
v 0.964964 0.898198 -1.753342
v 1.442391 0.898198 -1.753342
v 0.964964 0.890863 -1.499092
v 1.442391 0.890863 -1.499092
vn -1.0000 -0.0000 -0.0000
vn 1.0000 -0.0000 -0.0000
vn -0.0000 -0.0000 1.0000
vn -0.0000 0.9995 0.0304
vn -0.0000 -0.0000 -1.0000
vn -0.0000 0.9715 0.2371
vn -0.0000 0.9999 0.0170
vn -0.0000 0.9442 0.3294
vn -0.0000 -0.9997 -0.0252
vn -0.0000 0.9995 0.0316
vn -0.0000 0.9995 0.0325
vn -0.0000 0.9995 0.0319
vn -0.0000 -1.0000 -0.0062
vn -0.0000 -0.9846 0.1751
vn -0.0000 0.9996 0.0288
vn -0.0000 0.9995 0.0321
vn -0.0000 -0.8465 0.5323
vn -0.0000 0.5730 0.8195
vn -0.0000 0.8256 0.5643
vn -0.0000 0.2007 0.9797
vn -0.0000 -0.3065 -0.9519
vn -0.0000 -0.5462 0.8377
vn -0.0000 -0.2046 0.9788
vn -0.0000 0.1890 -0.9820
vn -0.0000 -0.5554 -0.8316
vn -0.0000 -0.9968 -0.0805
vn -0.0000 -0.9987 -0.0506
vn -0.0000 -0.1824 -0.9832
vn -0.0000 0.9995 0.0302
vn -0.0000 0.9920 -0.1263
vn -0.0000 0.9991 -0.0424
vn -0.0000 0.9618 -0.2736
vn -0.0000 0.9996 0.0293
vn -0.0000 1.0000 -0.0003
vn -0.0000 -1.0000 -0.0000
vn -0.0000 1.0000 -0.0078
vn -0.0000 -0.9771 -0.2128
vn -0.0000 0.5251 -0.8511
vn -0.0000 0.8548 -0.5189
vn -0.0000 -0.8443 -0.5359
s 0
f 161//41 164//41 147//41
f 161//41 147//41 151//41
f 154//42 163//42 162//42
f 154//42 162//42 157//42
f 157//43 162//43 161//43
f 157//43 161//43 151//43
f 141//42 155//42 156//42
f 141//42 156//42 138//42
f 163//44 164//44 161//44
f 163//44 161//44 162//44
f 147//45 164//45 163//45
f 147//45 163//45 154//45
f 143//46 142//46 133//46
f 143//46 133//46 132//46
f 142//47 136//47 135//47
f 142//47 135//47 133//47
f 146//42 168//42 169//42
f 146//42 169//42 137//42
f 132//41 167//41 165//41
f 132//41 165//41 166//41
f 167//41 132//41 134//41
f 132//48 166//48 144//48
f 132//48 144//48 143//48
f 140//43 148//43 155//43
f 140//43 155//43 141//43
f 107//42 154//42 157//42
f 107//42 157//42 158//42
f 158//42 160//42 159//42
f 158//42 159//42 107//42
f 107//49 159//49 152//49
f 107//49 152//49 117//49
f 152//41 153//41 150//41
f 152//41 150//41 117//41
f 154//42 107//42 155//42
f 156//42 155//42 107//42
f 156//42 107//42 112//42
f 114//43 118//43 112//43
f 114//43 112//43 111//43
f 138//45 156//45 149//45
f 138//45 149//45 139//45
f 149//41 148//41 140//41
f 149//41 140//41 139//41
f 150//50 158//50 157//50
f 150//50 157//50 151//50
f 147//51 154//51 155//51
f 147//51 155//51 148//51
f 149//52 156//52 112//52
f 149//52 112//52 118//52
f 171//42 177//42 169//42
f 159//53 180//53 165//53
f 159//53 165//53 152//53
f 152//41 165//41 167//41
f 152//41 167//41 153//41
f 180//54 179//54 176//54
f 180//54 176//54 165//54
f 169//42 180//42 159//42
f 169//42 159//42 160//42
f 179//42 180//42 169//42
f 179//42 169//42 177//42
f 183//55 184//55 182//55
f 183//55 182//55 181//55
f 150//45 184//45 183//45
f 150//45 183//45 158//45
f 167//56 169//56 160//56
f 167//56 160//56 153//56
f 160//43 181//43 182//43
f 160//43 182//43 153//43
f 158//42 183//42 181//42
f 158//42 181//42 160//42
f 182//41 184//41 150//41
f 182//41 150//41 153//41
f 179//57 177//57 178//57
f 179//57 178//57 176//57
f 146//58 145//58 168//58
f 166//59 172//59 145//59
f 166//59 145//59 144//59
f 173//60 174//60 170//60
f 173//60 170//60 168//60
f 170//42 171//42 169//42
f 170//42 169//42 168//42
f 169//61 167//61 134//61
f 169//61 134//61 137//61
f 172//58 173//58 168//58
f 172//58 168//58 145//58
f 176//41 175//41 174//41
f 176//41 174//41 173//41
f 175//62 178//62 177//62
f 175//62 177//62 171//62
f 178//41 175//41 176//41
f 174//63 175//63 171//63
f 174//63 171//63 170//63
f 165//41 176//41 172//41
f 165//41 172//41 166//41
f 173//41 172//41 176//41
f 151//41 147//41 117//41
f 151//41 117//41 150//41
f 115//41 118//41 114//41
f 115//41 114//41 113//41
f 118//41 115//41 117//41
f 115//56 106//56 105//56
f 115//56 105//56 99//56
f 115//45 113//45 110//45
f 115//45 110//45 106//45
f 116//41 117//41 115//41
f 116//41 115//41 99//41
f 116//41 99//41 98//41
f 122//64 123//64 124//64
f 122//64 124//64 119//64
f 124//64 125//64 119//64
f 120//65 127//65 126//65
f 120//65 126//65 121//65
f 117//66 116//66 108//66
f 117//66 108//66 107//66
f 109//67 108//67 116//67
f 109//67 116//67 98//67
f 121//68 122//68 119//68
f 121//68 119//68 120//68
f 110//69 113//69 114//69
f 110//69 114//69 111//69
f 102//42 103//42 100//42
f 102//42 100//42 101//42
f 100//70 103//70 93//70
f 100//70 93//70 97//70
f 101//71 100//71 97//71
f 101//71 97//71 96//71
f 93//41 94//41 95//41
f 95//41 96//41 97//41
f 95//41 97//41 93//41
f 98//41 99//41 95//41
f 98//41 95//41 94//41
f 108//42 109//42 105//42
f 111//42 112//42 106//42
f 111//42 106//42 110//42
f 112//42 107//42 106//42
f 103//72 102//72 94//72
f 103//72 94//72 93//72
f 99//43 105//43 104//43
f 99//43 104//43 95//43
f 106//42 107//42 108//42
f 106//42 108//42 105//42
f 140//73 141//73 138//73
f 140//73 138//73 139//73
f 143//42 144//42 124//42
f 143//42 124//42 142//42
f 136//42 142//42 124//42
f 136//42 124//42 128//42
f 95//41 133//41 135//41
f 95//41 135//41 96//41
f 135//74 136//74 101//74
f 135//74 101//74 96//74
f 137//75 134//75 95//75
f 137//75 95//75 104//75
f 145//42 124//42 144//42
f 147//41 148//41 117//41
f 117//41 148//41 149//41
f 117//41 149//41 118//41
f 136//42 128//42 102//42
f 136//42 102//42 101//42
f 145//76 146//76 125//76
f 145//76 125//76 124//76
f 146//42 137//42 104//42
f 146//42 104//42 125//42
f 95//41 134//41 132//41
f 95//41 132//41 133//41
f 98//77 131//77 130//77
f 98//77 130//77 109//77
f 126//41 131//41 94//41
f 126//41 94//41 121//41
f 94//41 123//41 122//41
f 94//41 122//41 121//41
f 123//78 129//78 128//78
f 123//78 128//78 124//78
f 102//79 128//79 129//79
f 102//79 129//79 94//79
f 127//80 130//80 131//80
f 127//80 131//80 126//80
f 109//42 130//42 125//42
f 119//42 125//42 130//42
f 119//42 130//42 120//42
f 120//42 130//42 127//42
f 123//41 94//41 129//41
f 98//41 94//41 131//41
f 105//42 109//42 125//42
f 105//42 125//42 104//42
o Turret_01_havok_s_armor_2_0
v -0.268301 2.339360 0.218169
v -0.268301 2.369474 0.333386
v -0.268301 1.840313 0.333386
v -0.268301 1.840619 -0.291746
v 0.268301 1.840313 0.333386
v 0.268301 2.369473 0.333386
v 0.268301 2.339360 0.218169
v 0.268301 1.840619 -0.291746
vn -1.0000 -0.0000 -0.0000
vn 1.0000 -0.0000 -0.0000
s 0
f 191//81 192//81 189//81
f 191//81 189//81 190//81
f 187//82 188//82 185//82
f 187//82 185//82 186//82
o Turret_01_havok_s_armor_8_1
v -0.162283 2.597834 -0.462641
v -0.162283 1.769289 -0.945713
v 0.162282 1.769289 -0.945713
v 0.162282 2.597834 -0.462641
vn -0.0000 -0.5037 0.8639
s 0
f 195//83 196//83 193//83
f 195//83 193//83 194//83
o Turret_01_havok_s_armor_1_2
v -0.612626 2.597834 -0.194932
v -1.069540 1.769289 -0.272542
v -0.954573 1.769289 -0.475188
v -0.503533 2.597834 -0.324795
v -0.685645 2.597834 -0.030468
v -1.093654 1.769289 -0.191225
v -0.703396 2.597834 0.155062
v -0.750937 2.514406 0.277812
v -0.703494 2.597834 0.234076
v -0.730416 2.552961 0.288212
v -0.383399 2.597834 -0.409195
v -0.774358 1.769289 -0.671543
v -0.571709 1.769289 -0.816065
v -0.364505 1.769289 -0.905944
v -0.257164 2.597834 -0.454245
v 0.774358 1.769289 -0.671543
v 0.503533 2.597834 -0.324795
v 0.383398 2.597834 -0.409195
v 0.571709 1.769289 -0.816065
v 0.954573 1.769289 -0.475188
v 0.257164 2.597834 -0.454245
v 0.364505 1.769289 -0.905944
v 0.162283 2.597834 -0.462641
v 0.162283 1.769289 -0.945713
v -0.162282 1.769289 -0.945713
v -0.162282 2.597834 -0.462641
v 1.069540 1.769289 -0.272542
v 0.612626 2.597834 -0.194932
v 1.093654 1.769289 -0.191225
v 0.685645 2.597834 -0.030468
v 0.703396 2.597834 0.155062
v 0.750938 2.514406 0.277812
v 0.730416 2.552961 0.288212
v 0.708284 2.590309 0.257363
vn -0.1684 -0.4886 0.8561
vn -0.0762 -0.5022 0.8614
vn 0.1675 -0.4966 0.8517
vn 0.0771 -0.4849 0.8712
vn -0.6526 -0.4640 0.5990
vn -0.3484 -0.4831 0.8033
vn -0.2959 -0.4744 0.8291
vn -0.8960 -0.4416 0.0469
vn -0.8873 -0.4534 0.0849
vn -0.8763 -0.4794 0.0482
vn -0.8724 -0.4887 0.0057
vn -0.6755 -0.4708 0.5675
vn -0.7698 -0.4654 0.4367
vn -0.8080 -0.4675 0.3587
vn -0.8382 -0.4855 0.2486
vn 0.8960 -0.4416 0.0469
vn 0.8873 -0.4534 0.0849
vn 0.8775 -0.4779 0.0402
vn 0.8695 -0.4939 0.0011
vn 0.7698 -0.4654 0.4367
vn 0.6755 -0.4708 0.5675
vn 0.8035 -0.4765 0.3567
vn 0.8481 -0.4664 0.2515
vn 0.3484 -0.4831 0.8033
vn 0.2959 -0.4744 0.8291
vn -0.5127 -0.4695 0.7188
vn -0.5079 -0.4685 0.7229
vn 0.5127 -0.4695 0.7188
vn 0.5079 -0.4685 0.7229
vn 0.6526 -0.4640 0.5990
s 0
f 220//84 218//84 217//84
f 220//85 217//85 219//85
f 210//86 221//86 222//86
f 210//87 222//87 211//87
f 213//88 212//88 216//88
f 217//89 218//89 215//89
f 217//90 215//90 214//90
f 225//91 228//91 227//91
f 225//92 227//92 226//92
f 228//93 229//93 230//93
f 228//94 230//94 227//94
f 224//95 213//95 216//95
f 224//96 216//96 223//96
f 225//97 226//97 224//97
f 225//98 224//98 223//98
f 203//99 204//99 202//99
f 203//100 202//100 201//100
f 205//101 206//101 204//101
f 205//102 204//102 203//102
f 197//103 198//103 199//103
f 197//104 199//104 200//104
f 198//105 197//105 201//105
f 198//106 201//106 202//106
f 209//107 210//107 211//107
f 209//108 211//108 207//108
f 214//109 215//109 212//109
f 214//110 212//110 213//110
f 208//111 209//111 207//111
f 208//112 207//112 200//112
f 199//113 208//113 200//113
o Hull_havok_s_armor_12_0
v -0.509254 0.754931 1.149056
v 0.515349 0.754931 1.149056
v -0.509254 0.900159 1.091990
v 0.515349 0.900159 1.091990
v -0.509254 0.754931 1.036766
v -0.509254 0.900159 1.036766
v 0.934717 1.043417 1.036766
v 0.934717 0.754931 1.036766
v 0.934717 1.244766 0.909749
v 0.934717 1.256581 0.869251
v 0.934717 1.294980 0.826912
v 0.515349 0.754931 1.036766
v -0.928622 1.043417 1.036766
v -0.928622 0.754931 1.036766
v -0.928622 1.244766 0.909749
v -0.928622 1.256581 0.869251
v -0.928622 1.294980 0.826912
v -0.509254 1.244766 0.909749
v -0.509254 1.043417 1.036766
v -0.509254 1.256581 0.736711
v -0.509254 0.900159 0.734870
v -0.509254 1.256581 0.869251
v 0.515349 0.900159 1.036766
v 0.515349 0.900159 0.734870
v 0.515349 1.244766 0.909749
v 0.515349 1.256581 0.869251
v 0.515349 1.043417 1.036766
v 0.515349 1.256581 0.736711
v 0.959001 1.762662 0.374069
v 0.608750 1.719832 0.414567
v 0.608750 1.762662 0.374069
v -0.952906 1.762662 0.374069
v -0.602654 1.719832 0.414567
v -0.465356 1.720324 -0.358579
v -0.302839 1.720324 -0.496641
v 0.612486 1.720324 0.026153
v -0.569964 1.720324 -0.178178
v 0.308934 1.720324 -0.496641
v 0.471451 1.720324 -0.358579
v 0.576059 1.720324 -0.178178
v -0.606390 1.720324 0.026153
v -0.105764 1.720324 -0.570274
v 0.111859 1.720324 -0.570274
v -0.105764 1.762662 -0.570274
v 0.111859 1.762662 -0.570274
v -0.302839 1.762662 -0.496641
v 0.308934 1.762662 -0.496641
v -0.465356 1.762662 -0.358579
v 0.739510 1.762662 -0.734107
v 0.471451 1.762662 -0.358579
v 0.576059 1.762662 -0.178178
v 0.612486 1.762662 0.026153
v -0.740887 1.762662 -0.734107
v -0.569964 1.762662 -0.178178
v -0.606390 1.762662 0.026153
v -0.602654 1.762662 0.374069
v 0.934327 0.754931 2.920237
v -0.928232 0.754931 2.920237
v 0.934327 1.294973 3.026980
v 0.959190 1.294972 0.827422
v 0.959190 1.294973 3.026980
v -0.928248 1.294973 3.026980
v -0.953095 1.294973 3.026980
v -0.950013 1.294972 0.827422
v 0.959190 1.294972 -1.156294
v 0.959143 1.762662 -0.768573
v -0.953045 1.294972 -1.156294
v -0.952906 1.762662 -0.768573
v -0.247140 1.762662 -0.997678
v 0.247141 1.762662 -0.997678
v 0.882135 1.762662 -0.756501
v -0.882134 1.762662 -0.756448
vn -0.3500 -0.0000 -0.9368
vn -0.0000 -0.0000 -1.0000
vn -0.0000 -1.0000 -0.0000
vn -0.6474 -0.0000 -0.7621
vn -0.0000 1.0000 -0.0000
vn -0.0170 -0.6896 -0.7240
vn -0.0021 -0.6960 -0.7180
vn -0.0000 0.0052 -1.0000
vn -0.0000 -1.0000 -0.0013
vn -0.0000 -0.6871 -0.7266
vn -0.9999 -0.0000 0.0107
vn -0.9999 0.0091 0.0096
vn -0.9845 -0.0000 -0.1755
vn -0.8651 -0.0000 -0.5016
vn 0.6474 -0.0000 -0.7621
vn 0.3500 -0.0000 -0.9368
vn 0.9845 -0.0000 -0.1755
vn 0.8651 -0.0000 -0.5016
vn 0.9999 -0.0000 0.0107
vn 0.9999 0.0091 0.0096
vn -0.0000 -0.7407 -0.6718
vn 0.0081 -0.6996 -0.7145
vn 0.0004 -1.0000 -0.0000
vn -1.0000 0.0001 0.0002
vn -1.0000 0.0002 0.0002
vn -1.0000 0.0006 0.0002
vn -1.0000 -0.0000 -0.0000
vn -0.0000 -0.5335 -0.8458
vn -1.0000 -0.0001 0.0002
vn -1.0000 -0.0000 0.0002
vn 1.0000 -0.0000 -0.0000
vn 1.0000 -0.0000 0.0002
vn -0.0000 -0.3657 -0.9307
vn -0.0003 -1.0000 -0.0000
vn 1.0000 0.0001 0.0002
vn 1.0000 0.0002 0.0002
vn 1.0000 0.0006 0.0002
vn -1.0000 -0.0000 -0.0001
vn -1.0000 -0.0004 -0.0000
vn -0.0081 -0.6996 -0.7145
vn 1.0000 -0.0003 -0.0000
vn 1.0000 0.0047 -0.0015
vn -0.0000 -0.7005 -0.7137
vn 0.0237 -0.6869 -0.7264
vn -0.0000 -0.6956 -0.7184
vn 0.0147 -0.6959 -0.7179
vn -0.0000 -0.9600 -0.2801
s 0
f 265//114 276//114 274//114
f 265//114 274//114 272//114
f 272//115 274//115 275//115
f 272//115 275//115 273//115
f 299//116 274//116 276//116
f 277//116 275//116 300//116
f 280//116 277//116 279//116
f 280//116 279//116 281//116
f 273//116 268//116 266//116
f 264//117 278//117 276//117
f 264//117 276//117 265//117
f 279//116 277//116 300//116
f 279//116 300//116 301//116
f 274//116 299//116 300//116
f 274//116 300//116 275//116
f 252//118 256//118 258//118
f 252//118 258//118 250//118
f 266//116 267//116 264//116
f 266//116 264//116 265//116
f 263//119 247//119 294//119
f 263//120 294//120 262//120
f 258//121 254//121 251//121
f 258//121 251//121 250//121
f 272//116 273//116 266//116
f 272//116 266//116 265//116
f 271//116 267//116 266//116
f 269//116 270//116 266//116
f 269//116 266//116 268//116
f 271//122 266//122 260//122
f 271//122 260//122 263//122
f 286//123 263//123 262//123
f 286//124 285//124 271//124
f 286//125 271//125 263//125
f 302//116 283//116 262//116
f 302//116 262//116 298//116
f 262//116 284//116 285//116
f 262//116 285//116 286//116
f 299//116 276//116 283//116
f 299//116 283//116 302//116
f 283//116 276//116 278//116
f 283//116 278//116 284//116
f 271//126 285//126 284//126
f 271//126 284//126 267//126
f 267//127 284//127 278//127
f 267//127 278//127 264//127
f 283//116 284//116 262//116
f 261//116 282//116 301//116
f 261//116 301//116 259//116
f 296//116 259//116 301//116
f 277//128 280//128 269//128
f 277//128 269//128 268//128
f 275//129 277//129 268//129
f 275//129 268//129 273//129
f 281//130 282//130 266//130
f 281//130 266//130 270//130
f 280//131 281//131 270//131
f 280//131 270//131 269//131
f 301//116 282//116 281//116
f 301//116 281//116 279//116
f 266//132 282//132 261//132
f 266//133 261//133 260//133
f 252//134 246//134 247//134
f 252//135 247//135 263//135
f 293//136 294//136 247//136
f 293//116 247//116 292//116
f 235//116 231//116 288//116
f 235//116 288//116 244//116
f 245//137 243//137 292//137
f 292//138 247//138 246//138
f 292//139 246//139 245//139
f 249//115 236//115 243//115
f 250//140 251//140 236//140
f 250//140 236//140 249//140
f 248//141 249//141 243//141
f 248//141 243//141 245//141
f 244//115 243//115 236//115
f 244//115 236//115 235//115
f 288//142 292//142 243//142
f 288//143 243//143 244//143
f 235//144 236//144 233//144
f 235//144 233//144 231//144
f 237//145 289//145 287//145
f 237//145 287//145 238//145
f 287//116 288//116 231//116
f 287//116 231//116 232//116
f 231//146 233//146 234//146
f 231//146 234//146 232//146
f 290//116 291//116 289//116
f 290//147 289//147 241//147
f 287//116 232//116 242//116
f 287//116 242//116 238//116
f 239//148 289//148 237//148
f 240//149 241//149 289//149
f 240//150 289//150 239//150
f 259//151 296//151 295//151
f 259//152 295//152 290//152
f 241//134 240//134 256//134
f 241//153 256//153 260//153
f 258//144 256//144 255//144
f 258//144 255//144 257//144
f 234//140 253//140 242//140
f 234//140 242//140 232//140
f 297//154 298//154 262//154
f 297//155 262//155 294//155
f 252//156 263//156 260//156
f 252//156 260//156 256//156
f 241//157 260//157 261//157
f 241//158 261//158 259//158
f 290//159 241//159 259//159
f 258//144 257//144 253//144
f 258//144 253//144 254//144
f 236//116 253//116 234//116
f 236//116 234//116 233//116
f 255//160 256//160 240//160
f 255//160 240//160 239//160
f 248//140 252//140 250//140
f 248//140 250//140 249//140
f 251//116 254//116 253//116
f 251//116 253//116 236//116
f 238//115 242//115 253//115
f 238//115 253//115 237//115
f 253//115 257//115 237//115
f 252//160 248//160 245//160
f 252//160 245//160 246//160
f 257//141 255//141 239//141
f 257//141 239//141 237//141
o Hull_havok_s_armor_11_1
v -1.447854 1.294972 3.026980
v -1.122617 2.620408 1.002278
v -1.180138 2.315669 2.788569
v -1.183865 2.299917 2.823779
v -1.189409 2.278042 2.843348
v -1.196938 2.248941 2.863399
v 1.472168 1.294972 0.733741
v 1.447854 1.294972 3.026980
v 1.196938 2.248941 2.863399
v 1.189410 2.278041 2.843348
v 1.183866 2.299917 2.823779
v 1.180138 2.315668 2.788569
v -1.472167 1.294972 -0.796162
v -1.122616 2.620408 0.058822
v 1.122616 2.620408 1.002278
v 1.122616 2.620408 0.058822
v 1.472168 1.294972 -0.796162
vn 0.9679 -0.2513 -0.0062
vn 0.9712 -0.2383 -0.0000
vn -0.9675 -0.2527 -0.0120
vn -0.9669 -0.2550 -0.0000
vn -0.9671 -0.2540 -0.0113
vn -0.9669 -0.2548 -0.0109
vn 0.9665 -0.2564 -0.0124
vn 0.9665 -0.2564 -0.0126
vn 0.9667 -0.2557 -0.0081
vn 0.9665 -0.2565 -0.0129
vn -0.9664 -0.2568 -0.0099
vn -0.9666 -0.2560 -0.0102
s 0
f 303//161 315//161 316//161
f 303//162 316//162 304//162
f 309//163 314//163 317//163
f 318//164 319//164 309//164
f 318//164 309//164 317//164
f 313//165 314//165 309//165
f 313//166 309//166 312//166
f 305//167 306//167 303//167
f 305//168 303//168 304//168
f 307//169 308//169 303//169
f 307//170 303//170 306//170
f 311//171 312//171 309//171
f 311//172 309//172 310//172
o Hull_havok_s_armor_9_2
v 0.959143 1.762662 -0.768573
v 0.959190 1.294972 -1.156294
v 1.472167 1.294972 -0.796162
v 0.751652 2.088329 -0.466657
v 0.747016 1.910659 -0.612799
v 0.882135 1.762662 -0.756501
v 0.739166 1.762662 -0.734107
v -1.472167 1.294972 -0.796162
v -0.953046 1.294972 -1.156294
v -0.952905 1.762662 -0.768573
v -0.882136 1.762662 -0.756448
v -0.740992 1.762662 -0.734107
v -0.748841 1.910659 -0.612800
v 0.960332 2.620408 -0.061419
v 1.122616 2.620408 0.058822
v 0.718444 2.533636 -0.095458
v 0.737661 2.413879 -0.195705
v 0.747005 2.282382 -0.304844
v 0.698884 2.620408 -0.020300
v -0.700709 2.620408 -0.020301
v -0.960332 2.620408 -0.061419
v -0.720268 2.533636 -0.095458
v -1.122616 2.620408 0.058822
v -0.739487 2.413879 -0.195705
v -0.748830 2.282382 -0.304845
v -0.753477 2.088329 -0.466658
vn -0.1209 -0.6342 0.7637
vn 0.1201 -0.6344 0.7637
vn 0.1162 -0.6344 0.7642
vn 0.1417 -0.6262 0.7667
vn 0.4679 -0.5598 0.6839
vn 0.4934 -0.5596 0.6659
vn -0.1252 -0.6322 0.7646
vn -0.1484 -0.6253 0.7661
vn -0.1210 -0.6340 0.7638
vn -0.1200 -0.6321 0.7655
vn -0.1954 -0.6109 0.7672
vn 0.1199 -0.6331 0.7647
vn 0.1198 -0.6332 0.7647
vn 0.1206 -0.6325 0.7651
vn -0.4755 -0.5615 0.6772
vn 0.4711 -0.5631 0.6790
vn 0.1188 -0.6317 0.7660
vn 0.1821 -0.6138 0.7682
vn -0.4934 -0.5596 0.6659
vn -0.4738 -0.5598 0.6798
vn -0.1316 -0.6269 0.7679
vn -0.1210 -0.6331 0.7646
s 0
f 339//173 340//173 341//173
f 338//174 335//174 333//174
f 337//175 323//175 320//175
f 337//176 320//176 336//176
f 327//177 329//177 340//177
f 327//178 340//178 342//178
f 345//179 329//179 332//179
f 344//180 343//180 329//180
f 344//181 329//181 345//181
f 341//182 340//182 329//182
f 341//183 329//183 343//183
f 325//184 320//184 324//184
f 325//185 324//185 326//185
f 323//186 324//186 320//186
f 320//187 321//187 322//187
f 327//188 328//188 329//188
f 320//189 333//189 335//189
f 320//190 335//190 336//190
f 322//191 334//191 333//191
f 322//192 333//192 320//192
f 332//193 329//193 330//193
f 332//194 330//194 331//194
o Hull_havok_s_armor_1_3
v -0.791270 1.395450 -2.135202
v -0.887484 1.129836 -2.935447
v 0.864068 1.129836 -2.935447
v -0.171280 1.395450 -2.135202
v -0.953095 1.129836 -2.935447
v -0.875604 1.537383 -1.707584
v -0.885396 1.742968 -1.088195
v -0.952906 1.762662 -1.028860
v 0.959190 1.129836 -2.935447
v 0.959190 1.762662 -1.028860
v -0.086946 1.537383 -1.707583
v -0.077154 1.742968 -1.088195
vn -0.0000 -0.9491 0.3150
s 0
f 348//195 354//195 355//195
f 348//195 355//195 349//195
f 356//195 349//195 355//195
f 356//195 355//195 357//195
f 357//195 355//195 353//195
f 357//195 353//195 352//195
f 348//195 349//195 346//195
f 348//195 346//195 347//195
f 352//195 353//195 350//195
f 352//195 350//195 351//195
f 346//195 351//195 350//195
f 346//195 350//195 347//195
o Hull_havok_s_armor_13_4
v -0.953095 1.294972 3.026980
v -1.447854 1.294972 3.026980
v -1.196938 2.248941 2.863399
v 1.196938 2.248941 2.863399
v 0.934327 1.294972 3.026980
v -0.928249 1.294972 3.026980
v 1.447854 1.294972 3.026980
v 0.959190 1.294972 3.026980
vn -0.0000 -0.1690 -0.9856
s 0
f 365//196 362//196 361//196
f 365//196 361//196 364//196
f 363//196 358//196 361//196
f 363//196 361//196 362//196
f 360//196 361//196 358//196
f 360//196 358//196 359//196
o Hull_havok_s_armor_4_5
v -0.928232 0.754931 2.920237
v 0.934327 0.754931 2.920237
v -0.953095 0.646592 2.898823
v -0.953095 1.294972 3.026980
v -0.928248 1.294972 3.026980
v 0.934327 1.294972 3.026980
v 0.959190 0.646592 2.898823
v 0.959190 1.294972 3.026980
vn -0.0000 0.1939 -0.9810
s 0
f 368//197 366//197 372//197
f 366//197 367//197 372//197
f 371//197 373//197 372//197
f 371//197 372//197 367//197
f 368//197 369//197 370//197
f 368//197 370//197 366//197
f 370//197 371//197 367//197
f 370//197 367//197 366//197
o Hull_havok_s_armor_6_6
v -0.950013 1.294972 0.827422
v -1.472167 1.294972 -0.796162
v -1.447854 1.294972 3.026980
v -0.953095 1.294972 3.026980
v 1.447854 1.294972 3.026980
v 1.472168 1.294972 0.733742
v 0.959190 1.294972 0.827422
v 0.959190 1.294972 3.026980
v -0.953095 0.414341 -2.372916
v -0.953095 0.414339 2.107961
v 0.959190 0.414339 2.107961
v 0.959190 0.414341 -2.372916
v -0.953046 1.294972 -1.156294
v 0.959190 1.294972 -1.156293
v 1.472168 1.294972 -0.796162
vn -0.0000 1.0000 -0.0000
s 0
f 386//198 375//198 374//198
f 387//198 380//198 388//198
f 388//198 380//198 379//198
f 376//198 377//198 374//198
f 376//198 374//198 375//198
f 380//198 381//198 378//198
f 380//198 378//198 379//198
f 384//198 385//198 382//198
f 384//198 382//198 383//198
o Hull_havok_s_armor_7_7
v 0.882135 1.762662 -0.756501
v 0.247141 1.762662 -0.997678
v 0.959190 1.762662 -1.028860
v 0.959143 1.762661 -0.768573
v -0.952906 1.762662 -1.028860
v -0.247140 1.762662 -0.997678
v -0.882135 1.762662 -0.756448
v -0.952906 1.762661 -0.768573
v -0.077154 1.742968 -1.088195
v -0.885396 1.742968 -1.088195
v -0.732240 1.740800 -1.707583
v -0.230309 1.740800 -1.707583
v -0.614883 1.740800 -1.974336
v -0.347666 1.740800 -1.974336
vn -0.0000 -1.0000 -0.0000
vn -0.0000 -1.0000 0.0035
s 0
f 401//199 402//199 400//199
f 401//199 400//199 399//199
f 390//199 394//199 393//199
f 390//199 393//199 391//199
f 399//200 400//200 397//200
f 399//200 397//200 398//200
f 391//199 392//199 389//199
f 391//199 389//199 390//199
f 395//199 396//199 393//199
f 395//199 393//199 394//199
o Hull_havok_s_armor_16_8
v -0.238253 1.851284 -0.951581
v -0.901898 1.851284 -0.685908
v -0.882135 1.762662 -0.756448
v -0.247141 1.762662 -0.997678
v 0.238253 1.851284 -0.951581
v 0.247141 1.762662 -0.997678
v 0.882135 1.762662 -0.756501
v 0.901898 1.851284 -0.685908
vn -0.0000 -0.4615 0.8872
vn -0.3148 -0.4627 0.8288
vn -0.3107 -0.5489 0.7760
vn 0.3107 -0.5485 0.7762
vn 0.3148 -0.4627 0.8288
s 0
f 408//201 407//201 403//201
f 408//201 403//201 406//201
f 407//202 408//202 409//202
f 407//203 409//203 410//203
f 403//204 404//204 405//204
f 403//205 405//205 406//205
o Hull_havok_s_armor_3_9
v -0.953095 0.414341 -2.372916
v -0.953045 1.294972 -1.156294
v -0.950013 1.294972 0.827422
v -0.953095 0.414339 2.107960
v -0.953095 0.523728 -2.724201
v -0.953095 0.556469 -2.735613
v -0.953095 0.907149 -2.857834
v -0.953095 1.129836 -2.935447
v -0.953095 0.646593 2.898823
v -0.953095 1.294973 3.026980
v 0.959190 0.523728 -2.724201
v 0.959190 0.646593 2.898823
v 0.959190 1.294972 -1.156294
v 0.959190 1.294971 0.827422
v 0.959190 1.294973 3.026980
v 0.959190 0.556469 -2.735613
v 0.959190 0.907149 -2.857834
v 0.959190 0.414341 -2.372916
v 0.959190 0.414339 2.107960
v 0.959142 1.762662 -0.768573
v 0.959190 1.762662 -1.028860
v 0.959190 1.129836 -2.935447
v -0.952906 1.762662 -1.028860
v -0.952906 1.762662 -0.768574
vn -1.0000 -0.0000 -0.0000
vn 1.0000 -0.0003 -0.0000
vn -1.0000 -0.0000 -0.0002
vn 1.0000 -0.0000 -0.0000
vn 1.0000 -0.0035 -0.0000
vn 1.0000 0.0021 -0.0015
vn 1.0000 -0.0003 0.0014
vn 1.0000 -0.0025 0.0007
s 0
f 421//206 428//206 429//206
f 421//206 429//206 422//206
f 426//206 421//206 423//206
f 426//206 423//206 427//206
f 424//206 423//206 422//206
f 424//206 422//206 425//206
f 433//207 434//207 412//207
f 433//207 412//207 418//207
f 432//206 427//206 423//206
f 431//206 432//206 423//206
f 431//208 423//208 430//208
f 412//209 415//209 416//209
f 412//209 416//209 417//209
f 412//209 411//209 415//209
f 413//210 414//210 411//210
f 413//211 411//211 412//211
f 421//206 422//206 423//206
f 413//212 420//212 419//212
f 413//213 419//213 414//213
f 418//209 412//209 417//209
o Hull_havok_s_armor_2_10
v 0.864069 0.523728 -2.724201
v 0.864069 0.556469 -2.735612
v -0.887484 0.556469 -2.735612
v -0.887484 0.523728 -2.724201
v -0.953095 0.556469 -2.735612
v -0.953095 0.523728 -2.724201
v 0.959190 0.523728 -2.724201
v 0.959190 0.556469 -2.735612
v -0.887484 0.907149 -2.857833
v -0.953095 0.907149 -2.857833
v -0.887484 1.129836 -2.935447
v 0.864069 0.907149 -2.857834
v 0.864069 1.129836 -2.935447
v -0.953095 1.129836 -2.935447
v 0.959190 0.907149 -2.857833
v 0.959190 1.129836 -2.935447
vn -0.0000 0.3291 0.9443
s 0
f 445//214 448//214 444//214
f 445//214 444//214 443//214
f 446//214 447//214 445//214
f 446//214 445//214 443//214
f 449//214 450//214 447//214
f 449//214 447//214 446//214
f 442//214 449//214 446//214
f 442//214 446//214 436//214
f 437//214 439//214 440//214
f 437//214 440//214 438//214
f 437//214 438//214 435//214
f 437//214 435//214 436//214
f 443//214 444//214 439//214
f 443//214 439//214 437//214
f 441//214 442//214 436//214
f 441//214 436//214 435//214
o Hull_havok_s_armor_10_11
v -0.953095 0.523728 -2.724201
v -0.953095 0.414341 -2.372916
v -0.887484 0.523728 -2.724201
v 0.959190 0.646592 2.898823
v 0.959190 0.414339 2.107960
v -0.953095 0.414339 2.107960
v -0.953095 0.646592 2.898823
v 0.959190 0.414341 -2.372916
v 0.864069 0.523728 -2.724201
v 0.959190 0.523728 -2.724201
vn -0.0000 0.9548 0.2973
vn -0.0000 0.9595 -0.2818
s 0
f 458//215 459//215 453//215
f 458//215 453//215 452//215
f 460//215 459//215 458//215
f 451//215 452//215 453//215
f 456//216 457//216 454//216
f 456//216 454//216 455//216
o Hull_havok_s_armor_5_12
v -0.347666 1.740800 -1.974336
v -0.614884 1.740800 -1.974336
v -0.791270 1.395450 -2.135201
v -0.171280 1.395450 -2.135201
v -0.732240 1.740800 -1.707583
v -0.875604 1.537383 -1.707584
v -0.885396 1.742968 -1.088195
v -0.086946 1.537383 -1.707583
v -0.230309 1.740800 -1.707583
v -0.077154 1.742968 -1.088195
vn -0.7692 -0.5421 0.3384
vn -0.7678 -0.5473 0.3331
vn -0.8009 -0.5644 0.2000
vn 0.8009 -0.5644 0.2000
vn -0.0000 -0.4222 0.9065
vn 0.7692 -0.5421 0.3384
vn 0.7678 -0.5473 0.3331
s 0
f 468//217 469//217 461//217
f 468//218 461//218 464//218
f 469//219 468//219 470//219
f 467//220 466//220 465//220
f 463//221 464//221 461//221
f 463//221 461//221 462//221
f 462//222 465//222 466//222
f 462//223 466//223 463//223
o Hull_havok_s_armor_15_13
v 0.864069 0.556469 -2.735612
v 0.864069 0.907149 -2.857834
v -0.887484 0.907149 -2.857833
v -0.887484 0.556469 -2.735612
vn -0.0000 0.3291 0.9443
s 0
f 474//224 471//224 473//224
f 471//224 472//224 473//224
o Gun_02_havok_s_armor_1_0
v -0.156135 2.538633 -0.462393
v 0.156135 2.538633 -0.462393
v 0.156135 2.667847 -0.415325
v -0.156135 2.667847 -0.415325
v 0.156135 2.425071 -0.483221
v -0.156135 2.425071 -0.483221
v 0.156135 2.786904 -0.348057
v 0.155199 2.924228 -0.222880
v -0.156135 2.924228 -0.222880
v -0.156135 2.786904 -0.348057
vn -0.0000 -0.6737 0.7390
vn -0.0000 -0.4919 0.8706
vn -0.0000 -0.3423 0.9396
vn -0.0000 -0.1804 0.9836
s 0
f 483//225 484//225 481//225
f 483//225 481//225 482//225
f 477//226 481//226 484//226
f 477//226 484//226 478//226
f 477//227 478//227 475//227
f 477//227 475//227 476//227
f 475//228 480//228 479//228
f 475//228 479//228 476//228
o Gun_02_havok_s_gun_1
v 0.134637 2.204495 -1.608828
v 0.090284 2.025711 -1.608828
v -0.096970 2.025711 -1.608828
v -0.141323 2.204495 -1.608828
v -0.114630 2.468240 -0.766597
v 0.101877 2.468240 -0.766597
v -0.114630 2.260055 -0.766597
v 0.101877 2.260055 -0.766597
v 0.062782 2.430192 -0.876313
v -0.074456 2.430192 -0.876313
v -0.074456 2.298103 -0.876313
v 0.062782 2.298103 -0.876313
v -0.052752 2.414842 -4.067757
v -0.052752 2.313452 -4.067757
v 0.052806 2.414842 -4.067757
v 0.052806 2.313452 -4.067757
v 0.134637 2.204399 -0.684372
v 0.090308 2.025711 -0.786854
v -0.096994 2.025711 -0.786854
v -0.141323 2.204399 -0.684372
v 0.099584 2.468240 -0.533051
v -0.116907 2.468240 -0.533051
v -0.115717 2.259970 -0.652500
v 0.100773 2.259970 -0.652500
v 0.059207 2.540509 -0.445392
v 0.059207 2.662015 -0.394252
v -0.060145 2.662015 -0.394252
v -0.060145 2.540509 -0.445392
vn -0.0000 -0.3879 0.9217
vn 1.0000 -0.0000 0.0068
vn -0.0000 0.9448 0.3276
vn -0.0000 1.0000 0.0007
vn -0.0000 -1.0000 0.0048
vn -0.0000 -0.0000 1.0000
vn -0.0000 1.0000 0.0048
vn -1.0000 -0.0000 0.0031
vn -0.9420 -0.0000 0.3357
vn 0.9706 0.2408 -0.0000
vn -0.0000 -1.0000 -0.0001
vn -0.9706 0.2408 -0.0000
vn -0.0000 1.0000 -0.0000
vn -0.0000 -1.0000 -0.0000
vn -0.0000 -0.9448 0.3276
vn 0.9390 -0.0000 0.3438
vn 1.0000 0.0001 0.0097
vn 1.0000 -0.0000 0.0095
vn -1.0000 -0.0001 -0.0098
vn -1.0000 -0.0000 -0.0097
s 0
f 511//229 512//229 509//229
f 511//229 509//229 510//229
f 495//230 498//230 497//230
f 495//230 497//230 494//230
f 492//231 496//231 495//231
f 492//231 495//231 491//231
f 491//232 507//232 508//232
f 491//232 508//232 492//232
f 494//233 497//233 499//233
f 494//233 499//233 493//233
f 500//234 499//234 497//234
f 500//234 497//234 498//234
f 485//234 488//234 487//234
f 485//234 487//234 486//234
f 496//235 500//235 498//235
f 496//235 498//235 495//235
f 493//236 499//236 500//236
f 493//236 500//236 496//236
f 490//237 493//237 496//237
f 490//237 496//237 492//237
f 488//238 504//238 503//238
f 488//238 503//238 487//238
f 485//239 501//239 504//239
f 485//239 504//239 488//239
f 486//240 502//240 501//240
f 486//240 501//240 485//240
f 487//241 503//241 502//241
f 487//241 502//241 486//241
f 505//242 506//242 489//242
f 505//242 489//242 490//242
f 489//243 494//243 493//243
f 489//243 493//243 490//243
f 491//244 495//244 494//244
f 491//244 494//244 489//244
f 489//245 506//245 507//245
f 489//246 507//246 491//246
f 508//247 505//247 490//247
f 508//248 490//248 492//248
o Gun_02_havok_s_gunBreech_2
v 0.187117 2.528040 0.825807
v 0.187117 2.528040 1.379972
v -0.186793 2.528040 1.379972
v -0.187159 2.528040 0.825807
v 0.110872 2.487941 0.834203
v 0.110872 2.240506 0.834203
v 0.187117 2.224342 0.825807
v -0.146202 2.487941 0.832804
v -0.187159 2.204448 0.825807
v -0.146202 2.240506 0.832804
v -0.141266 2.204448 0.832804
v 0.134642 2.204448 0.834203
v -0.187159 2.204448 1.379972
v 0.187117 2.224342 1.379972
v 0.134642 2.204448 1.379972
v -0.141266 2.204448 1.379972
v 0.090394 2.025711 1.515714
v 0.134642 2.204448 1.515714
v -0.097018 2.025711 1.515714
v -0.141266 2.204448 1.515714
v -0.122982 2.468358 0.084121
v -0.122982 2.260090 0.084121
v 0.093502 2.468358 0.085520
v 0.093502 2.260090 0.085520
v -0.060084 2.540474 0.625691
v -0.060084 2.662015 0.625691
v 0.059128 2.540474 0.625691
v 0.059128 2.662015 0.625691
v -0.115717 2.259970 -0.652500
v 0.100773 2.259970 -0.652500
v 0.099584 2.468240 -0.533051
v -0.116907 2.468240 -0.533051
v -0.060145 2.540509 -0.445392
v -0.060145 2.662015 -0.394253
v 0.059207 2.540509 -0.445392
v 0.059207 2.662015 -0.394253
v 0.134637 2.204399 -0.684371
v 0.090308 2.025711 -0.786855
v -0.096994 2.025711 -0.786855
v -0.141323 2.204399 -0.684372
vn -1.0000 -0.0001 -0.0098
vn -1.0000 -0.0000 -0.0099
vn -0.0000 1.0000 -0.0002
vn -0.0000 -1.0000 0.0002
vn 1.0000 0.0001 0.0099
vn 1.0000 -0.0000 0.0098
vn -0.9997 -0.0000 0.0232
vn 0.9995 -0.0000 0.0310
vn -0.0002 -0.9997 0.0261
vn -0.0001 -0.9997 0.0262
vn -0.0002 0.9997 0.0262
vn -0.0001 0.9997 0.0261
vn 1.0000 -0.0000 -0.0001
vn -0.0000 1.0000 -0.0000
vn -0.9706 0.2408 -0.0000
vn -0.9707 0.2404 -0.0000
vn 0.9706 0.2408 -0.0000
vn 0.9707 0.2401 -0.0000
vn -0.0000 -1.0000 -0.0000
vn -1.0000 -0.0000 -0.0001
vn -0.0000 -0.0000 -1.0000
vn -0.1507 -0.0206 0.9884
vn -0.0051 -0.0033 1.0000
vn -0.0054 -0.0007 1.0000
vn 1.0000 -0.0011 -0.0000
vn 1.0000 -0.0000 -0.0007
vn 0.1265 0.0834 0.9884
vn 0.1095 -0.0000 0.9940
vn -0.1684 -0.0000 0.9857
vn -0.0054 0.1666 0.9860
vn -0.0000 0.2049 0.9788
vn -1.0000 -0.0000 -0.0000
vn -0.9707 0.2403 -0.0000
vn 0.9707 0.2403 -0.0000
vn -0.3545 0.9351 -0.0000
s 0
f 535//249 543//249 542//249
f 535//250 542//250 536//250
f 536//251 542//251 541//251
f 536//251 541//251 534//251
f 544//252 543//252 535//252
f 544//252 535//252 533//252
f 534//253 541//253 544//253
f 534//254 544//254 533//254
f 517//255 535//255 536//255
f 517//255 536//255 518//255
f 522//256 534//256 533//256
f 522//256 533//256 520//256
f 520//257 533//257 535//257
f 520//258 535//258 517//258
f 518//259 536//259 534//259
f 518//260 534//260 522//260
f 537//261 545//261 546//261
f 537//261 546//261 538//261
f 529//262 550//262 551//262
f 529//262 551//262 531//262
f 524//263 549//263 550//263
f 524//264 550//264 529//264
f 531//265 551//265 552//265
f 531//266 552//266 523//266
f 523//267 552//267 549//267
f 523//267 549//267 524//267
f 548//268 547//268 539//268
f 548//268 539//268 540//268
f 539//262 547//262 545//262
f 539//262 545//262 537//262
f 540//269 539//269 537//269
f 540//269 537//269 538//269
f 538//267 546//267 548//267
f 538//267 548//267 540//267
f 525//262 528//262 523//262
f 525//262 523//262 521//262
f 521//270 523//270 522//270
f 523//271 524//271 518//271
f 523//272 518//272 522//272
f 515//273 525//273 521//273
f 515//274 521//274 516//274
f 524//275 519//275 518//275
f 517//276 518//276 519//276
f 517//276 519//276 513//276
f 515//267 516//267 513//267
f 515//267 513//267 514//267
f 521//277 522//277 520//277
f 521//277 520//277 516//277
f 516//278 520//278 517//278
f 516//279 517//279 513//279
f 513//280 519//280 526//280
f 513//280 526//280 514//280
f 531//269 532//269 530//269
f 531//269 530//269 529//269
f 529//281 530//281 527//281
f 529//281 527//281 524//281
f 528//282 532//282 531//282
f 528//282 531//282 523//282
f 527//267 530//267 532//267
f 527//267 532//267 528//267
f 514//269 527//269 528//269
f 514//269 528//269 515//269
f 527//283 526//283 519//283
f 527//283 519//283 524//283
f 515//269 528//269 525//269
f 527//269 514//269 526//269
