# Blender 5.1.0
# www.blender.org
o Chassis_havok_s_leftTrack_0
v -0.936734 0.494799 -3.794025
v -0.936734 1.043896 2.338365
v -0.936734 1.155611 -2.122286
v -0.936734 1.385135 -3.601132
v -0.936734 0.877339 4.130662
v -0.936734 0.957909 4.066364
v -0.936734 1.014782 3.985992
v -0.936734 0.785258 4.170848
v -0.936734 0.687084 4.178885
v -0.936734 0.494799 4.122624
v -0.936734 0.589587 4.170848
v -0.966318 0.494799 -3.794025
v -0.966318 0.494799 4.122624
v -0.936734 1.055406 3.897583
v -1.766300 1.044573 2.338365
v -1.766300 1.156288 -2.122286
v -1.766300 1.056083 3.897583
v -1.766300 0.494799 -3.794025
v -1.766300 1.385812 -3.601132
v -1.766300 1.015459 3.985992
v -1.766300 0.957909 4.066364
v -1.766300 0.877339 4.130662
v -1.766300 0.785258 4.170848
v -1.766300 0.687084 4.178885
v -1.766300 0.589587 4.170848
v -1.766300 0.494799 4.122624
v -1.766300 -0.000133 -2.033876
v -1.766300 -0.000133 3.150122
v -0.966318 0.000544 3.150122
v -0.966318 0.000544 -2.033876
v -1.766300 0.316054 3.905620
v -0.966318 0.316732 3.905620
v -0.966318 0.468393 -3.745802
v -0.966318 0.418968 4.074401
v -0.966318 0.357355 3.985992
v -1.766300 0.467716 -3.745802
v -1.766300 0.418291 4.074401
v -1.766300 0.356678 3.985992
v -1.766300 1.345188 -3.753839
v -1.766300 1.249723 -3.906546
v -1.766300 1.188787 -3.954770
v -1.766300 1.040511 -4.027104
v -1.766300 0.718906 -4.002992
v -1.766300 0.882755 -4.043178
v -0.936734 1.344511 -3.753839
v -0.936734 1.249046 -3.906546
v -0.936734 1.188787 -3.954770
v -0.936734 1.040511 -4.027104
v -0.936734 0.882755 -4.043178
v -0.936734 0.718906 -4.002992
v -1.766300 0.649169 -3.970844
v -0.936734 0.649846 -3.970844
v -0.936734 0.517142 -3.834211
v -0.936734 0.581463 -3.914583
v -1.766300 0.516465 -3.834211
v -1.766300 0.581463 -3.914583
vn -1.0000 -0.0000 -0.0000
vn 1.0000 -0.0000 -0.0000
vn -0.0003 0.4187 0.9081
vn -0.0000 0.4220 0.9066
vn -0.0000 0.2382 0.9712
vn -0.0000 -0.8131 -0.5822
vn -0.0007 -0.8163 -0.5776
vn -0.0000 -0.4000 -0.9165
vn -0.0000 -0.6238 -0.7816
vn -0.0007 -0.9087 -0.4175
vn -0.0008 -0.9882 -0.1534
vn -0.0008 0.9646 0.2636
vn -0.0000 0.8740 0.4859
vn -0.0006 0.7776 0.6288
vn -0.0000 0.7808 0.6248
vn -0.0007 0.8802 0.4746
vn -0.0007 0.8771 0.4803
vn -0.0000 0.8719 0.4897
vn -0.0000 0.6353 0.7722
vn -0.0005 0.6391 0.7691
vn -0.0000 -0.6248 0.7808
vn -0.0005 -0.6206 0.7842
vn -0.0000 -0.4384 0.8988
vn -0.0000 -0.1014 0.9948
vn -0.0007 -0.8479 0.5301
vn -0.0008 -0.9664 0.2571
vn -0.0008 -1.0000 0.0074
vn -0.0008 1.0000 -0.0000
vn -0.0008 -0.9997 -0.0250
vn -0.0000 1.0000 -0.0000
vn -0.0005 0.5332 -0.8460
vn -0.0000 0.5366 -0.8438
vn -0.0000 0.4534 -0.8913
vn -0.0000 -0.0816 -0.9967
vn -0.0008 0.8925 -0.4511
vn -0.0007 0.8204 -0.5718
vn -0.0000 0.0822 -0.9966
vn -0.0000 0.0821 -0.9966
vn -0.0008 0.9225 -0.3861
s 0
f 45//1 46//1 1//1
f 45//1 1//1 4//1
f 18//2 43//2 44//2
f 18//2 44//2 42//2
f 18//2 42//2 41//2
f 18//2 41//2 40//2
f 47//1 48//1 1//1
f 47//1 1//1 46//1
f 43//3 51//3 52//3
f 43//4 52//4 50//4
f 43//5 50//5 49//5
f 43//5 49//5 44//5
f 49//1 50//1 1//1
f 49//1 1//1 48//1
f 6//6 21//6 20//6
f 6//7 20//7 7//7
f 8//8 23//8 22//8
f 8//8 22//8 5//8
f 22//9 21//9 6//9
f 22//9 6//9 5//9
f 20//10 17//10 14//10
f 20//10 14//10 7//10
f 18//2 40//2 39//2
f 18//2 39//2 19//2
f 16//11 19//11 4//11
f 16//11 4//11 3//11
f 30//12 33//12 36//12
f 30//12 36//12 27//12
f 55//2 56//2 51//2
f 55//2 51//2 18//2
f 43//2 18//2 51//2
f 1//13 53//13 12//13
f 56//14 55//14 53//14
f 56//15 53//15 54//15
f 53//16 55//16 18//16
f 53//13 18//13 12//13
f 36//17 33//17 12//17
f 36//18 12//18 18//18
f 56//19 54//19 52//19
f 56//20 52//20 51//20
f 41//21 47//21 46//21
f 41//22 46//22 40//22
f 48//23 47//23 41//23
f 48//23 41//23 42//23
f 49//24 48//24 42//24
f 49//24 42//24 44//24
f 46//25 45//25 39//25
f 46//25 39//25 40//25
f 53//1 52//1 54//1
f 50//1 52//1 53//1
f 50//1 53//1 1//1
f 19//26 39//26 45//26
f 19//26 45//26 4//26
f 17//2 20//2 18//2
f 17//2 18//2 15//2
f 16//2 15//2 18//2
f 16//2 18//2 19//2
f 14//27 17//27 15//27
f 14//27 15//27 2//27
f 21//2 22//2 18//2
f 21//2 18//2 20//2
f 29//28 30//28 27//28
f 29//28 27//28 28//28
f 25//2 26//2 18//2
f 25//2 18//2 24//2
f 23//2 24//2 18//2
f 23//2 18//2 22//2
f 1//1 9//1 8//1
f 1//1 8//1 5//1
f 6//1 7//1 1//1
f 6//1 1//1 5//1
f 1//1 2//1 3//1
f 1//1 3//1 4//1
f 1//1 10//1 11//1
f 1//1 11//1 9//1
f 2//29 15//29 16//29
f 2//29 16//29 3//29
f 1//1 7//1 14//1
f 1//1 14//1 2//1
f 1//30 12//30 13//30
f 1//30 13//30 10//30
f 34//31 37//31 26//31
f 34//32 26//32 13//32
f 10//33 13//33 11//33
f 26//33 25//33 11//33
f 26//33 11//33 13//33
f 24//34 23//34 8//34
f 24//34 8//34 9//34
f 38//35 35//35 32//35
f 38//35 32//35 31//35
f 38//36 37//36 34//36
f 38//36 34//36 35//36
f 11//37 25//37 24//37
f 11//38 24//38 9//38
f 30//1 35//1 34//1
f 30//1 34//1 13//1
f 13//1 12//1 33//1
f 13//1 33//1 30//1
f 28//39 31//39 32//39
f 28//39 32//39 29//39
f 32//1 35//1 30//1
f 32//1 30//1 29//1
f 27//2 38//2 31//2
f 27//2 31//2 28//2
f 37//2 38//2 27//2
f 37//2 27//2 26//2
f 36//2 18//2 26//2
f 36//2 26//2 27//2
o Chassis_havok_s_rightTrack_1
v 0.936734 0.494799 -3.794025
v 0.936734 1.385135 -3.601132
v 0.936734 1.155611 -2.122286
v 0.936734 1.043896 2.338365
v 0.936734 0.957909 4.066364
v 0.936734 0.877339 4.130662
v 0.936734 1.014782 3.985992
v 0.936734 0.785258 4.170848
v 0.936734 0.687084 4.178885
v 0.936734 0.589587 4.170848
v 0.936734 0.494799 4.122624
v 0.966318 0.494799 4.122624
v 0.966318 0.494799 -3.794025
v 0.936734 1.055406 3.897583
v 1.766300 1.156288 -2.122286
v 1.766300 1.044573 2.338365
v 1.766300 1.056083 3.897583
v 1.766300 0.494799 -3.794025
v 1.766300 1.385812 -3.601132
v 1.766300 1.015459 3.985992
v 1.766300 0.877339 4.130662
v 1.766300 0.957909 4.066364
v 1.766300 0.687084 4.178885
v 1.766300 0.785258 4.170848
v 1.766300 0.494799 4.122624
v 1.766300 0.589587 4.170848
v 1.766300 -0.000133 -2.033876
v 0.966318 0.000544 -2.033876
v 0.966318 0.000544 3.150122
v 1.766300 -0.000133 3.150122
v 0.966318 0.316732 3.905620
v 1.766300 0.316054 3.905620
v 0.966318 0.468393 -3.745802
v 0.966318 0.418968 4.074401
v 0.966318 0.357355 3.985992
v 1.766300 0.467716 -3.745802
v 1.766300 0.418291 4.074401
v 1.766300 0.356678 3.985992
v 1.766300 1.337064 -3.753839
v 1.766300 1.249723 -3.906546
v 1.766300 1.188787 -3.954770
v 1.766300 1.040511 -4.027104
v 1.766300 0.882755 -4.043178
v 1.766300 0.718906 -4.002992
v 0.936734 1.249046 -3.906546
v 0.936734 1.336387 -3.753839
v 0.936734 1.040511 -4.027104
v 0.936734 1.188787 -3.954770
v 0.936734 0.718906 -4.002992
v 0.936734 0.882755 -4.043178
v 0.936734 0.649846 -3.970844
v 1.766300 0.649169 -3.970844
v 0.936734 0.517142 -3.834211
v 0.936734 0.581463 -3.914583
v 1.766300 0.516465 -3.834211
v 1.766300 0.581463 -3.914583
vn 1.0000 -0.0000 -0.0000
vn -1.0000 -0.0000 -0.0000
vn 0.0003 0.4187 0.9081
vn -0.0000 0.4220 0.9066
vn -0.0000 0.2382 0.9712
vn -0.0000 -0.8131 -0.5822
vn 0.0007 -0.8163 -0.5776
vn -0.0000 -0.4000 -0.9165
vn -0.0000 -0.6238 -0.7816
vn 0.0007 -0.9087 -0.4175
vn 0.0008 -0.9882 -0.1534
vn 0.0008 0.9646 0.2636
vn -0.0000 0.8740 0.4859
vn 0.0006 0.7776 0.6288
vn -0.0000 0.7808 0.6248
vn 0.0007 0.8742 0.4855
vn -0.0000 0.8802 0.4746
vn 0.0007 0.8771 0.4803
vn -0.0000 0.8719 0.4897
vn -0.0000 0.6353 0.7722
vn 0.0005 0.6391 0.7691
vn -0.0000 -0.6248 0.7808
vn 0.0005 -0.6206 0.7842
vn -0.0000 -0.4384 0.8988
vn -0.0000 -0.1014 0.9948
vn 0.0007 -0.8680 0.4965
vn 0.0008 -0.9526 0.3041
vn 0.0008 -1.0000 0.0074
vn 0.0008 1.0000 -0.0000
vn 0.0008 -0.9997 -0.0250
vn -0.0000 1.0000 -0.0000
vn 0.0005 0.5332 -0.8460
vn -0.0000 0.5366 -0.8438
vn -0.0000 0.4534 -0.8913
vn -0.0000 -0.0816 -0.9967
vn 0.0008 0.8925 -0.4511
vn 0.0007 0.8204 -0.5718
vn -0.0000 0.0822 -0.9966
vn -0.0000 0.0821 -0.9966
vn 0.0008 0.9225 -0.3861
s 0
f 57//40 101//40 102//40
f 57//40 102//40 58//40
f 99//41 100//41 74//41
f 99//41 74//41 98//41
f 97//41 98//41 74//41
f 97//41 74//41 96//41
f 57//40 103//40 104//40
f 57//40 104//40 101//40
f 107//42 108//42 100//42
f 107//43 100//43 105//43
f 106//44 105//44 100//44
f 106//44 100//44 99//44
f 57//40 105//40 106//40
f 57//40 106//40 103//40
f 76//45 78//45 61//45
f 76//46 61//46 63//46
f 77//47 80//47 64//47
f 77//47 64//47 62//47
f 61//48 78//48 77//48
f 61//48 77//48 62//48
f 70//49 73//49 76//49
f 70//49 76//49 63//49
f 95//41 96//41 74//41
f 95//41 74//41 75//41
f 58//50 75//50 71//50
f 58//50 71//50 59//50
f 92//51 89//51 84//51
f 92//51 84//51 83//51
f 111//41 108//41 112//41
f 100//41 108//41 111//41
f 100//41 111//41 74//41
f 57//52 69//52 109//52
f 109//53 111//53 112//53
f 109//54 112//54 110//54
f 111//55 109//55 69//55
f 111//56 69//56 74//56
f 69//57 89//57 92//57
f 69//58 92//58 74//58
f 107//59 110//59 112//59
f 107//60 112//60 108//60
f 101//61 104//61 97//61
f 101//62 97//62 96//62
f 97//63 104//63 103//63
f 97//63 103//63 98//63
f 98//64 103//64 106//64
f 98//64 106//64 99//64
f 95//65 102//65 101//65
f 95//65 101//65 96//65
f 107//40 109//40 110//40
f 109//40 107//40 105//40
f 109//40 105//40 57//40
f 102//66 95//66 75//66
f 102//66 75//66 58//66
f 74//41 76//41 73//41
f 74//41 73//41 72//41
f 74//41 72//41 71//41
f 74//41 71//41 75//41
f 60//67 72//67 73//67
f 60//67 73//67 70//67
f 74//41 77//41 78//41
f 74//41 78//41 76//41
f 85//68 86//68 83//68
f 85//68 83//68 84//68
f 74//41 81//41 82//41
f 74//41 82//41 79//41
f 74//41 79//41 80//41
f 74//41 80//41 77//41
f 64//40 65//40 57//40
f 64//40 57//40 62//40
f 57//40 63//40 61//40
f 57//40 61//40 62//40
f 57//40 58//40 59//40
f 57//40 59//40 60//40
f 66//40 67//40 57//40
f 66//40 57//40 65//40
f 59//69 71//69 72//69
f 59//69 72//69 60//69
f 70//40 63//40 57//40
f 70//40 57//40 60//40
f 68//70 69//70 57//70
f 68//70 57//70 67//70
f 81//71 93//71 90//71
f 81//72 90//72 68//72
f 67//73 66//73 68//73
f 66//73 82//73 81//73
f 66//73 81//73 68//73
f 64//74 80//74 79//74
f 64//74 79//74 65//74
f 87//75 91//75 94//75
f 87//75 94//75 88//75
f 90//76 93//76 94//76
f 90//76 94//76 91//76
f 79//77 82//77 66//77
f 79//78 66//78 65//78
f 90//40 91//40 84//40
f 90//40 84//40 68//40
f 89//40 69//40 68//40
f 89//40 68//40 84//40
f 87//79 88//79 86//79
f 87//79 86//79 85//79
f 84//40 91//40 87//40
f 84//40 87//40 85//40
f 88//41 94//41 83//41
f 88//41 83//41 86//41
f 83//41 94//41 93//41
f 83//41 93//41 81//41
f 81//41 74//41 92//41
f 81//41 92//41 83//41
o Turret_01_havok_s_armor_1_0
v -0.024078 2.387608 1.841107
v 0.019078 2.413509 1.873543
v 0.013330 2.397752 1.893772
vn 0.6578 -0.6733 -0.3376
s 0
f 113//80 114//80 115//80
o Hull_havok_s_armor_2_0
v -1.539850 1.721560 -3.299440
v -1.539850 1.464661 -3.604800
v -0.935484 1.464681 -3.604780
v 0.935482 1.464681 -3.604780
v 1.539850 1.721560 -3.299440
v 1.539850 1.464661 -3.604800
v -1.465199 1.802731 -3.202960
v 1.465449 1.802731 -3.202960
v 0.935482 1.095531 -4.043531
v -0.935484 1.095531 -4.043531
vn -0.0000 -0.7652 0.6438
s 0
f 120//81 123//81 122//81
f 120//81 122//81 116//81
f 118//81 125//81 124//81
f 118//81 124//81 119//81
f 119//81 121//81 120//81
f 116//81 117//81 118//81
f 118//81 119//81 120//81
f 118//81 120//81 116//81
o Hull_havok_s_armor_8_1
v -0.258766 2.046097 -0.301267
v -0.448600 3.229520 0.561202
v -0.447715 2.202960 -0.186804
v 0.218682 2.046097 -0.301267
v 0.409233 2.206461 -0.184250
v 0.410953 3.229791 0.560821
vn 0.0005 -0.5886 0.8084
vn -0.0004 -0.5891 0.8080
vn -0.0000 -0.5890 0.8082
vn 0.0007 -0.5889 0.8082
s 0
f 131//82 127//82 130//82
f 129//83 130//83 127//83
f 129//84 127//84 126//84
f 126//85 127//85 128//85
o Hull_havok_s_armor_1_2
v 0.983711 2.633921 0.129079
v -0.983711 2.633921 0.129079
v -0.982750 2.646805 0.138435
v 0.977944 2.685331 0.166465
v 1.342760 1.937431 -0.380560
v 1.539850 1.937431 -0.380560
v 0.409232 2.206460 -0.184250
v -1.340149 1.937431 -0.380560
v -0.447715 2.202960 -0.186804
v -1.539850 1.937431 -0.380560
v 0.218682 2.046097 -0.301267
v -0.258766 2.046097 -0.301267
v -1.539850 1.721560 -0.380560
v 1.539850 1.721560 -0.380560
v -0.448600 3.229520 0.561202
v -0.936324 3.229320 0.561484
v -1.308780 3.123481 0.487302
v 0.966022 3.280681 0.597401
v 0.922978 3.229981 0.560540
v 1.308780 3.123481 0.487302
v -0.966021 3.280681 0.597401
v 0.410953 3.229791 0.560821
vn -0.0071 -0.5841 0.8117
vn -0.0003 -0.5732 0.8194
vn 0.0061 -0.5879 0.8089
vn 0.0060 -0.5879 0.8089
vn -0.0000 -0.5905 0.8070
vn -0.0047 -0.5885 0.8085
vn -0.0082 -0.5867 0.8098
vn 0.0007 -0.5861 0.8102
vn -0.0029 -0.5886 0.8084
vn -0.0032 -0.5884 0.8086
vn 0.0007 -0.5877 0.8091
vn 0.0028 -0.5889 0.8082
vn 0.0042 -0.5878 0.8090
vn -0.0000 -0.5895 0.8078
vn -0.0006 -0.5907 0.8069
vn 0.0006 -0.5907 0.8069
vn -0.0000 -0.0000 1.0000
s 0
f 149//86 150//86 151//86
f 152//87 148//87 147//87
f 148//88 133//88 134//88
f 148//89 134//89 147//89
f 141//90 133//90 148//90
f 135//91 132//91 151//91
f 135//92 151//92 150//92
f 137//90 151//90 132//90
f 135//93 150//93 153//93
f 135//94 153//94 138//94
f 135//95 138//95 132//95
f 146//96 147//96 134//96
f 146//97 134//97 140//97
f 134//98 133//98 140//98
f 142//99 136//99 138//99
f 132//100 138//100 136//100
f 132//90 136//90 137//90
f 133//90 141//90 139//90
f 133//101 139//101 140//101
f 145//102 137//102 136//102
f 142//99 143//99 139//99
f 142//99 139//99 136//99
f 143//99 140//99 139//99
f 144//102 139//102 141//102
o Hull_havok_s_armor_3_3
v 1.308580 3.123471 3.737370
v 0.971047 3.280640 3.737370
v -1.308580 3.123471 3.737370
v -0.971047 3.280640 3.737370
v 1.308581 3.123471 4.133821
v 0.971990 3.280640 3.977020
v 0.971216 3.280610 3.504789
v 0.836982 3.280640 3.977020
v 0.776001 3.280640 3.737370
v 0.775808 3.280610 3.693590
v -0.971990 3.280640 3.977020
v -1.308581 3.123471 4.133821
v -0.836981 3.280640 3.977020
v -0.776001 3.280640 3.737370
v -1.308780 3.123481 0.487302
v -0.966021 3.280681 0.597402
v -0.971216 3.280610 3.504789
v -0.775807 3.280610 3.693590
v 0.966022 3.280681 0.597402
v 1.308780 3.123481 0.487302
v -1.539850 1.921510 5.335219
v -1.539850 1.937430 -0.380560
v 1.539850 1.921510 5.335219
v 1.539850 1.937430 -0.380560
vn -0.4167 -0.9090 0.0007
vn -0.4222 -0.9065 -0.0000
vn -0.0001 -1.0000 0.0001
vn -0.0000 -1.0000 0.0007
vn 0.4221 -0.9065 -0.0002
vn 0.9819 -0.1895 -0.0005
vn -0.9816 -0.1912 -0.0001
vn -0.9815 -0.1914 -0.0000
vn -0.9819 -0.1895 -0.0005
vn 0.9816 -0.1912 -0.0001
vn 0.9815 -0.1914 -0.0000
vn -0.0000 -1.0000 -0.0000
vn -0.4221 -0.9065 -0.0002
vn -0.4231 -0.9061 -0.0000
vn -0.4221 -0.9065 0.0017
vn 0.0001 -1.0000 0.0001
vn 0.4167 -0.9090 0.0007
vn 0.4222 -0.9065 -0.0000
vn 0.4231 -0.9061 -0.0000
vn 0.4221 -0.9065 0.0017
s 0
f 160//103 172//103 173//103
f 160//104 173//104 154//104
f 157//105 170//105 171//105
f 157//106 171//106 167//106
f 170//107 157//107 156//107
f 174//108 175//108 165//108
f 154//109 173//109 177//109
f 154//110 177//110 158//110
f 176//111 158//111 177//111
f 175//112 168//112 156//112
f 175//113 156//113 165//113
f 161//114 162//114 155//114
f 161//114 155//114 159//114
f 160//115 154//115 155//115
f 154//116 158//116 159//116
f 154//117 159//117 155//117
f 155//106 162//106 163//106
f 155//118 163//118 160//118
f 168//119 169//119 170//119
f 168//120 170//120 156//120
f 157//114 167//114 166//114
f 157//114 166//114 164//114
f 164//121 165//121 156//121
f 164//122 156//122 157//122
o Hull_havok_s_armor_11_4
v 1.539850 1.353420 -0.354331
v -1.539850 1.353420 -0.354331
v 1.539850 1.921510 5.335219
v 1.539850 1.721560 -0.380560
v 1.539850 1.353420 5.335213
v 1.539850 1.337420 -0.354341
v 1.539850 1.337420 5.335211
v 1.539850 1.464661 -3.604800
v 1.539850 1.721560 -3.299439
v -1.539850 1.464661 -3.604800
v -1.539850 1.721560 -3.299439
v -1.539850 1.337420 -0.354600
v -1.539850 1.721560 -0.380560
v -1.539850 1.353923 5.335205
v -1.541884 1.337419 5.335205
v -1.539850 1.921511 5.335219
v -1.539850 1.937431 -0.380560
v 1.539850 1.937431 -0.380560
vn 0.9925 -0.1223 -0.0000
vn 1.0000 -0.0000 0.0004
vn 1.0000 -0.0000 -0.0000
vn -1.0000 -0.0000 -0.0000
s 0
f 179//123 191//123 192//123
f 179//124 192//124 189//124
f 179//125 189//125 188//125
f 179//125 188//125 190//125
f 190//125 193//125 191//125
f 190//125 191//125 179//125
f 180//126 195//126 181//126
f 194//125 193//125 190//125
f 183//126 184//126 182//126
f 183//126 182//126 178//126
f 178//126 182//126 180//126
f 178//126 180//126 181//126
f 185//126 183//126 186//126
f 187//125 188//125 189//125
f 186//126 183//126 178//126
f 186//126 178//126 181//126
o Hull_havok_s_armor_12_5
v 0.849482 0.879370 4.865030
v -0.849482 0.879370 4.865030
v -0.849482 0.738087 -0.354331
v 0.849482 0.738087 -0.354331
v 0.849482 1.353420 -0.354331
v 0.849482 1.020052 4.206870
v -0.849482 1.353420 -0.354331
v 0.935484 0.879238 4.865029
v 0.849481 1.337420 5.335206
v 0.935484 1.337420 5.335211
v 0.935484 0.738087 4.865029
v 0.849481 0.738087 4.865029
v -0.935484 0.879238 4.865029
v -0.935484 1.337420 5.335208
v -0.849482 1.337420 5.335206
v -0.849482 1.353421 5.335211
v -0.849482 0.738087 4.865029
v 1.539850 1.353420 -0.354331
v 1.539850 1.353421 5.335212
v 1.446859 1.353421 5.335209
v 0.935484 1.353421 5.335208
v 0.849481 1.353421 5.335206
v -0.935484 0.738087 4.865029
v -1.539850 1.353421 -0.354331
v -0.935484 1.353588 5.335208
v -1.446859 1.353756 5.335206
v -1.539850 1.353923 5.335204
v -1.340149 1.937431 -0.380560
v 1.342760 1.937431 -0.380560
v 1.539850 1.721560 -0.380560
v -1.539850 1.721560 -0.380560
vn -0.0003 -1.0000 0.0001
vn -0.0000 -1.0000 -0.0000
vn -0.0019 -1.0000 -0.0000
vn -0.0000 -0.0000 -1.0000
vn -1.0000 -0.0000 -0.0000
vn -0.0000 -0.0711 -0.9975
vn 0.0254 -0.0235 -0.9994
vn -0.0255 -0.0233 -0.9994
vn -0.0018 -1.0000 0.0001
vn -0.0000 -0.0449 -0.9990
vn -0.0000 0.7163 -0.6978
vn -0.0011 0.7162 -0.6979
vn -0.0000 0.7162 -0.6979
vn 0.0011 0.7163 -0.6978
vn 1.0000 -0.0000 -0.0000
s 0
f 220//127 221//127 219//127
f 220//128 219//128 202//128
f 211//129 220//129 202//129
f 197//130 212//130 218//130
f 197//130 218//130 208//130
f 197//131 211//131 202//131
f 197//131 202//131 198//131
f 212//131 197//131 198//131
f 202//132 219//132 226//132
f 202//133 226//133 223//133
f 202//130 200//130 199//130
f 202//130 199//130 198//130
f 225//132 213//132 200//132
f 225//134 200//134 224//134
f 222//135 219//135 221//135
f 223//136 224//136 200//136
f 223//136 200//136 202//136
f 211//131 197//131 210//131
f 199//128 207//128 212//128
f 199//128 212//128 198//128
f 209//137 210//137 197//137
f 209//138 197//138 208//138
f 204//139 205//139 203//139
f 204//140 203//140 196//140
f 203//130 206//130 207//130
f 203//130 207//130 196//130
f 201//141 217//141 204//141
f 201//141 204//141 196//141
f 196//141 207//141 199//141
f 196//141 199//141 201//141
f 200//141 217//141 201//141
f 200//141 201//141 199//141
f 214//128 215//128 200//128
f 214//128 200//128 213//128
f 216//128 217//128 200//128
f 216//128 200//128 215//128
o Hull_havok_s_armor_4_6
v 0.919482 1.062760 5.335210
v -0.919482 1.062760 5.335210
v -0.919482 0.988798 5.313017
v 0.919482 0.988798 5.313017
v -0.919482 0.897114 5.227100
v 0.919482 0.897114 5.227100
v -0.919482 0.949713 5.287760
v 0.919482 0.949713 5.287760
v -0.849481 1.337420 5.335206
v 0.849483 1.337420 5.335206
v -0.935483 1.337420 5.335207
v -0.935484 1.062761 5.335210
v -0.935484 0.988770 5.312999
v -1.541884 1.337419 5.335204
v -1.539850 1.353924 5.335204
v -1.446860 1.353756 5.335206
v -0.935483 1.353588 5.335208
v -0.849481 1.353420 5.335210
v 1.446860 1.353420 5.335210
v 1.446860 1.337420 5.335210
v 0.935484 1.337420 5.335210
v 0.935484 1.353420 5.335208
v 0.849483 1.353420 5.335206
v 1.539850 1.337420 5.335210
v 1.539850 1.353420 5.335212
v 1.446860 1.921511 5.335219
v 1.539850 1.921511 5.335219
v 0.935486 1.062761 5.335210
v 0.935486 0.988770 5.312999
v -0.849481 0.738087 4.865030
v 0.849483 0.738087 4.865030
v -0.935484 0.738087 4.865030
v -0.935484 0.897114 5.227101
v -0.935484 0.949723 5.287761
v 0.935484 0.897114 5.227100
v 0.935484 0.738087 4.865030
v 0.935486 0.949723 5.287761
v 1.233130 2.990642 4.266600
v 1.308581 3.123472 4.133820
v -0.879134 3.180181 4.077350
v -1.233130 2.990642 4.266600
v -1.308580 3.123472 4.133820
v -0.971989 3.280640 3.977020
v -0.836982 3.280640 3.977020
v 0.879134 3.180181 4.077350
v 0.971989 3.280640 3.977020
v 0.836982 3.280640 3.977020
v -1.539850 1.921511 5.335219
v -1.446860 1.921511 5.335219
vn -0.0000 0.2874 -0.9578
vn -0.0000 0.5428 -0.8399
vn -0.0000 0.7555 -0.6551
vn -0.0003 0.5428 -0.8398
vn -0.0000 0.5427 -0.8399
vn 0.0003 0.5428 -0.8398
vn -0.0000 0.9156 -0.4021
vn -0.0005 0.7555 -0.6552
vn -0.0000 -0.7066 -0.7076
vn -0.0002 -0.7065 -0.7077
vn -0.0000 -0.7069 -0.7073
vn 0.0001 -0.7069 -0.7073
vn -0.0000 -0.0000 -1.0000
vn -0.0003 -0.7069 -0.7073
vn -0.0001 -0.7069 -0.7073
vn 0.0003 -0.7069 -0.7073
vn -0.0000 -0.7067 -0.7076
vn 0.0002 -0.7065 -0.7077
vn -0.0000 0.7555 -0.6552
vn 0.0005 0.7555 -0.6551
vn -0.0000 0.0002 -1.0000
vn -0.0000 -0.0002 -1.0000
vn -0.0000 -0.0001 -1.0000
vn -0.0000 0.0007 -1.0000
vn 0.0006 0.2875 -0.9578
vn -0.0006 0.2875 -0.9578
vn -0.0000 0.0001 -1.0000
s 0
f 227//142 230//142 229//142
f 227//142 229//142 228//142
f 230//143 234//143 233//143
f 230//143 233//143 229//143
f 231//144 233//144 234//144
f 231//144 234//144 232//144
f 255//145 263//145 234//145
f 255//146 234//146 230//146
f 233//147 260//147 239//147
f 233//146 239//146 229//146
f 232//148 261//148 262//148
f 232//148 262//148 257//148
f 234//149 263//149 261//149
f 234//144 261//144 232//144
f 271//150 273//150 272//150
f 271//151 272//151 265//151
f 267//152 275//152 274//152
f 267//153 274//153 268//153
f 274//154 275//154 242//154
f 274//154 242//154 241//154
f 264//155 271//155 265//155
f 252//156 264//156 265//156
f 252//152 265//152 253//152
f 266//157 267//157 268//157
f 269//158 270//158 266//158
f 269//159 266//159 268//159
f 231//160 259//160 260//160
f 231//161 260//161 233//161
f 243//154 237//154 242//154
f 243//162 244//162 235//162
f 243//154 235//154 237//154
f 247//163 248//163 245//163
f 247//164 245//164 246//164
f 241//165 242//165 237//165
f 241//154 237//154 240//154
f 235//154 236//154 227//154
f 235//154 227//154 228//154
f 228//154 238//154 237//154
f 228//154 237//154 235//154
f 229//166 239//166 238//166
f 229//142 238//142 228//142
f 254//167 255//167 230//167
f 254//142 230//142 227//142
f 232//148 257//148 256//148
f 232//148 256//148 231//148
f 258//148 259//148 231//148
f 258//148 231//148 256//148
f 247//154 254//154 227//154
f 247//154 227//154 236//154
f 249//164 248//164 247//164
f 249//154 247//154 236//154
f 245//168 251//168 250//168
f 245//164 250//164 246//164
f 245//154 252//154 253//154
f 245//154 253//154 251//154
o Hull_havok_s_armor_10_7
v -0.935483 0.879238 4.865030
v -0.935483 1.019951 4.203940
v 0.935484 0.879238 4.865030
v -0.935483 1.337420 4.200965
v -0.935483 1.337420 5.335208
v -0.935485 1.062761 5.335210
v -0.935485 0.988771 5.312999
v -0.935485 0.949723 5.287761
v -0.935484 0.897114 5.227101
v -0.935484 0.738087 4.865030
v 0.935485 0.988771 5.312999
v 0.935485 1.062761 5.335210
v 0.935484 1.337420 5.335210
v 0.935484 0.738087 4.865030
v 0.935484 0.897114 5.227101
v 0.935485 0.949723 5.287761
v 0.935482 1.337431 -0.354331
v 0.935483 1.464681 -3.604782
v 0.935483 1.095531 -4.043531
v 0.935484 0.493969 -3.441850
v 0.935484 0.493969 4.049580
v 0.935484 0.722204 4.865030
v -0.935484 0.493969 -3.441850
v -0.935482 1.337431 -0.354331
v -0.935484 0.493969 4.049580
v -0.935484 0.722204 4.865030
v -0.935483 1.095531 -4.043531
v -0.935483 1.464681 -3.604782
vn -1.0000 -0.0000 -0.0000
vn 1.0000 -0.0000 -0.0000
s 0
f 297//169 289//169 295//169
f 297//169 295//169 296//169
f 278//169 294//169 295//169
f 278//169 295//169 289//169
f 278//169 288//169 292//169
f 277//170 300//170 298//170
f 277//170 298//170 299//170
f 302//170 303//170 299//170
f 302//170 299//170 298//170
f 285//170 301//170 300//170
f 285//170 300//170 277//170
f 299//170 279//170 277//170
f 293//169 294//169 278//169
f 293//169 278//169 292//169
f 283//170 284//170 276//170
f 283//170 276//170 282//170
f 281//170 282//170 276//170
f 281//170 276//170 280//170
f 279//170 280//170 276//170
f 279//170 276//170 277//170
f 285//170 277//170 276//170
f 285//170 276//170 284//170
f 278//169 290//169 291//169
f 278//169 291//169 286//169
f 278//169 289//169 290//169
f 287//169 288//169 278//169
f 287//169 278//169 286//169
o Hull_havok_s_armor_6_8
v -0.935484 0.493969 4.049579
v 0.935484 0.493969 4.049579
v 0.935484 0.493969 -3.441849
v -0.935484 0.493969 -3.441849
v -1.539850 1.337420 -0.354601
v -1.541884 1.337420 5.335204
v -0.935483 1.337420 4.200964
v -0.935481 1.337431 -0.354331
v -0.935483 1.337420 5.335208
v -0.935483 1.464681 -3.604781
v -1.539850 1.464661 -3.604800
v 0.935483 1.337431 -0.354331
v 1.446860 1.337420 5.335210
v 1.539850 1.337420 5.335210
v 1.539850 1.337420 -0.354342
v 0.935484 1.337420 5.335210
v 1.539850 1.464661 -3.604800
v 0.935483 1.464681 -3.604781
vn -0.0000 1.0000 -0.0000
vn -0.0000 0.9992 0.0391
s 0
f 317//171 318//171 315//171
f 317//171 315//171 316//171
f 319//171 316//171 315//171
f 320//172 321//172 315//172
f 320//172 315//172 318//172
f 313//172 314//172 308//172
f 313//172 308//172 311//172
f 306//171 307//171 304//171
f 306//171 304//171 305//171
f 310//171 311//171 308//171
f 310//171 308//171 309//171
f 309//171 312//171 310//171
o Hull_havok_s_armor_15_9
v 0.665280 2.441189 6.224408
v 0.395926 2.309006 6.349649
v -0.940763 2.982783 5.690012
v 0.854352 2.635546 6.034884
v 0.078807 2.249759 6.408897
v -0.247846 2.270779 6.387875
v -0.544615 2.364547 6.296245
v -0.775735 2.536921 6.131674
v -0.913317 2.751666 5.921132
v 0.912903 3.092849 5.579948
v 0.940349 2.861731 5.811066
v 0.775323 3.303393 5.369404
v 0.247416 3.566717 5.106081
v 0.544185 3.475232 5.197711
v -0.396354 3.528491 5.144306
v -0.079234 3.587738 5.085060
v -0.854780 3.213361 5.459072
v -0.665693 3.396123 5.276671
vn 0.0002 -0.7073 -0.7069
vn -0.0001 -0.7069 -0.7073
vn 0.0005 -0.7035 -0.7107
vn -0.0014 -0.7057 -0.7085
vn 0.0018 -0.7080 -0.7062
vn -0.0000 -0.7071 -0.7071
vn 0.0010 -0.6995 -0.7146
vn -0.0020 -0.7016 -0.7125
vn 0.0021 -0.6992 -0.7149
vn 0.0056 -0.6938 -0.7201
vn -0.0265 -0.7084 -0.7053
vn -0.0261 -0.7084 -0.7054
vn -0.0010 -0.7005 -0.7137
s 0
f 324//173 334//173 335//173
f 324//174 335//174 333//174
f 332//175 325//175 324//175
f 338//176 339//176 336//176
f 338//177 336//177 324//177
f 324//178 336//178 337//178
f 324//178 337//178 334//178
f 324//178 333//178 331//178
f 324//178 331//178 332//178
f 326//179 327//179 324//179
f 326//180 324//180 323//180
f 324//181 325//181 322//181
f 324//182 322//182 323//182
f 329//183 330//183 324//183
f 329//184 324//184 328//184
f 328//185 324//185 327//185
o Hull_havok_s_armor_16_10
v -1.098651 1.750204 5.901381
v -1.031653 1.745072 5.917164
v -1.145772 1.781154 5.806190
v -1.145772 2.024396 5.058065
v 1.021515 2.060477 4.947090
v -1.031654 2.060477 4.947090
v -1.098651 2.055345 4.962875
v 1.122795 2.041775 5.004611
v 1.135633 2.024396 5.058063
v 1.021516 1.745072 5.917162
v 1.088514 1.750205 5.901379
v 1.135633 1.781154 5.806189
vn -0.0000 0.9510 0.3092
s 0
f 348//186 341//186 349//186
f 349//186 350//186 351//186
f 349//186 351//186 348//186
f 341//186 348//186 344//186
f 341//186 344//186 342//186
f 347//186 344//186 348//186
f 340//186 341//186 342//186
f 343//186 342//186 344//186
f 345//186 346//186 343//186
f 345//186 343//186 344//186
o Hull_havok_s_armor_5_11
v -1.539850 1.721560 -3.299440
v -1.465199 1.802731 -3.202960
v -1.340149 1.937431 -1.817710
v -1.539850 1.721560 -0.380560
v -1.340149 1.937431 -0.380560
v 1.342760 1.937431 -1.817710
v 1.465451 1.802731 -3.202960
v 1.539850 1.721560 -3.299440
v 1.539850 1.721560 -0.380560
v 1.342760 1.937431 -0.380560
vn -0.7385 -0.6743 -0.0000
vn -0.7369 -0.6760 0.0005
vn 0.7341 -0.6791 -0.0000
vn 0.7365 -0.6765 -0.0007
s 0
f 359//187 360//187 357//187
f 359//188 357//188 358//188
f 360//187 361//187 357//187
f 354//189 355//189 352//189
f 354//190 352//190 353//190
f 354//189 356//189 355//189
o Hull_havok_s_armor_7_12
v -1.340150 1.937431 -0.380560
v -1.340150 1.937431 -1.817711
v 1.342760 1.937431 -1.817711
v 1.342760 1.937431 -0.380560
v -1.465200 1.802731 -3.202960
v 1.465450 1.802731 -3.202960
vn -0.0000 -0.9953 0.0968
vn -0.0000 -1.0000 -0.0000
s 0
f 363//191 366//191 367//191
f 363//191 367//191 364//191
f 364//192 365//192 362//192
f 364//192 362//192 363//192
o Hull_havok_s_armor_13_13
v 0.935483 1.095531 -4.043531
v -0.935483 1.095531 -4.043531
v -0.935484 0.493969 -3.441849
v 0.935484 0.493969 -3.441849
vn -0.0000 0.7072 0.7070
s 0
f 370//193 371//193 368//193
f 370//193 368//193 369//193
o Hull_havok_s_armor_14_14
v -0.935484 0.493969 4.049579
v -0.935484 0.722204 4.865030
v 0.935484 0.722204 4.865030
v 0.935484 0.493969 4.049579
v -0.935484 0.730101 4.865030
v 0.849482 0.738087 4.865030
v 0.935484 0.738087 4.865030
v 0.935484 0.730101 4.865030
v -0.935484 0.738087 4.865030
v -0.849482 0.738087 4.865030
vn -0.0000 -0.0000 -1.0000
vn -0.0000 0.9630 -0.2695
vn -0.0000 0.0005 -1.0000
s 0
f 376//194 380//194 381//194
f 376//194 381//194 377//194
f 376//194 379//194 374//194
f 376//194 374//194 373//194
f 374//195 375//195 372//195
f 374//195 372//195 373//195
f 376//196 377//196 378//196
f 376//194 378//194 379//194
o Gun_01_havok_s_gun_0
v -0.134832 2.475641 -5.351573
v 0.123795 2.475641 -5.351573
v 0.123795 2.475641 -1.736825
v -0.134832 2.475641 -1.736825
v -0.134832 2.217796 -1.736825
v -0.134832 2.217796 -5.351573
v 0.123795 2.217796 -5.351573
v 0.123795 2.217796 -1.736825
v 0.146358 2.195301 -5.421087
v -0.157395 2.195301 -5.421087
v -0.157395 2.498136 -5.421087
v 0.146358 2.498136 -5.421087
v -0.196349 2.536972 -1.727556
v 0.185312 2.536972 -1.727556
v 0.185312 2.156465 -1.727556
v -0.196349 2.156465 -1.727556
v -0.223382 2.129513 -5.787196
v -0.223382 2.129513 -6.468437
v -0.223382 2.563923 -6.468437
v -0.223382 2.563923 -5.787196
v 0.212345 2.563923 -6.468437
v 0.212345 2.129513 -6.468437
v 0.212345 2.563923 -5.787196
v 0.212345 2.129513 -5.787196
v 0.146358 2.498136 -5.624996
v -0.157395 2.498136 -5.624996
v -0.157395 2.195301 -5.624996
v 0.146358 2.195301 -5.624996
v 0.204743 2.556344 0.242849
v -0.215780 2.556344 0.242849
v 0.201457 2.140368 0.020903
v -0.212494 2.140368 0.020903
vn -1.0000 -0.0000 -0.0000
vn -0.0000 1.0000 -0.0000
vn -0.0000 -0.9267 -0.3759
vn -0.0000 -1.0000 -0.0000
vn -0.1490 -0.0000 0.9888
vn 1.0000 -0.0000 -0.0000
vn -0.0000 -0.0000 1.0000
vn -0.0000 0.9267 -0.3759
vn -0.9263 -0.0000 -0.3768
vn 0.9263 -0.0000 -0.3768
vn 0.1490 -0.0000 0.9888
vn -0.0000 0.9514 -0.3079
vn -0.0000 -0.9514 -0.3079
vn 0.9512 -0.0000 -0.3087
vn -0.0000 1.0000 0.0092
vn -0.0000 0.1494 0.9888
vn -0.0000 -0.1494 0.9888
vn 0.9999 0.0027 0.0098
vn 1.0000 -0.0000 0.0092
vn -0.9512 -0.0000 -0.3087
vn -0.0000 -1.0000 0.0098
vn -0.9999 0.0027 0.0098
vn -1.0000 -0.0000 0.0092
s 0
f 403//197 405//197 404//197
f 403//197 404//197 402//197
f 398//198 405//198 403//198
f 398//198 403//198 399//198
f 406//199 407//199 401//199
f 406//199 401//199 404//199
f 400//200 402//200 404//200
f 400//200 404//200 401//200
f 396//201 395//201 384//201
f 396//201 384//201 389//201
f 400//202 401//202 398//202
f 400//202 398//202 399//202
f 399//203 403//203 402//203
f 399//203 402//203 400//203
f 406//197 409//197 390//197
f 406//197 390//197 393//197
f 408//204 409//204 405//204
f 408//204 405//204 398//204
f 409//198 408//198 391//198
f 409//198 391//198 390//198
f 409//205 406//205 404//205
f 409//205 404//205 405//205
f 407//200 406//200 393//200
f 407//200 393//200 392//200
f 407//206 408//206 398//206
f 407//206 398//206 401//206
f 408//202 407//202 392//202
f 408//202 392//202 391//202
f 394//207 397//207 386//207
f 394//207 386//207 385//207
f 390//208 391//208 387//208
f 390//208 387//208 388//208
f 392//209 393//209 383//209
f 392//209 383//209 382//209
f 391//210 392//210 382//210
f 391//210 382//210 387//210
f 383//197 388//197 389//197
f 383//197 389//197 384//197
f 384//200 385//200 382//200
f 384//200 382//200 383//200
f 385//202 386//202 387//202
f 385//202 387//202 382//202
f 386//198 389//198 388//198
f 386//198 388//198 387//198
f 413//211 412//211 396//211
f 413//211 396//211 397//211
f 397//212 396//212 389//212
f 397//212 389//212 386//212
f 395//213 394//213 385//213
f 395//213 385//213 384//213
f 394//214 411//214 413//214
f 394//215 413//215 397//215
f 393//216 390//216 388//216
f 393//216 388//216 383//216
f 410//217 411//217 394//217
f 410//217 394//217 395//217
f 412//218 410//218 395//218
f 412//219 395//219 396//219
o Gun_01_havok_s_armor_1_1
v 0.397146 2.339045 0.067351
v -0.408098 2.339045 0.067721
v -0.408152 2.062991 -0.033888
v 0.397092 2.062991 -0.034258
v 0.257674 1.828098 -0.100315
v -0.268813 1.828098 -0.100093
v 0.397213 2.564852 0.193587
v -0.408031 2.564852 0.193958
v 0.153826 3.196707 0.694125
v -0.164286 3.196708 0.694271
v -0.128480 2.705349 0.330626
v 0.117031 2.705349 0.330516
v 0.292796 2.705348 0.330441
v 0.292878 3.024872 0.564491
v -0.306747 3.024873 0.564752
v -0.306829 2.705351 0.330702
v 0.292783 2.724216 0.301721
v -0.303487 2.724216 0.301981
vn 0.0003 -0.5909 0.8067
vn 0.0131 -0.5954 0.8033
vn -0.0122 -0.5954 0.8033
vn 0.0004 -0.5612 0.8276
vn 0.0004 -0.5613 0.8276
vn 0.0004 -0.5949 0.8038
vn 0.0004 -0.3454 0.9384
vn 0.0004 -0.2711 0.9626
vn 0.0004 -0.2710 0.9626
vn 0.0004 -0.4880 0.8729
s 0
f 425//220 426//220 427//220
f 425//221 427//221 422//221
f 428//220 429//220 424//220
f 428//222 424//222 423//222
f 430//223 431//223 421//223
f 430//224 421//224 420//224
f 424//225 425//225 422//225
f 424//225 422//225 423//225
f 416//226 417//226 414//226
f 416//226 414//226 415//226
f 416//227 419//227 418//227
f 416//228 418//228 417//228
f 420//229 421//229 415//229
f 420//229 415//229 414//229
o Gun_01_havok_s_gunBreech_2
v 0.410022 1.908840 2.560914
v 0.398418 2.881307 2.560914
v 0.398418 2.881307 1.477389
v 0.410022 1.908840 1.477389
v 0.219949 2.571562 1.477389
v 0.219949 2.122146 1.477389
v -0.397489 1.908840 1.477389
v -0.230625 2.122146 1.477389
v -0.397489 1.908840 2.560914
v -0.409094 2.881307 1.477389
v -0.409094 2.881307 2.560914
v 0.303981 2.128797 2.560914
v -0.317058 2.128797 2.560914
v -0.317058 1.925467 2.560914
v 0.303981 1.925467 2.560914
v -0.317058 1.925467 2.987534
v -0.317058 2.128797 2.987534
v 0.303981 2.128797 2.987534
v 0.303981 1.925467 2.987534
v -0.230625 2.571562 1.477389
v 0.204743 2.556344 0.242849
v 0.201457 2.140368 0.020903
v -0.215780 2.556344 0.242849
v -0.212494 2.140368 0.020903
vn -0.0000 -0.0000 -1.0000
vn -0.9999 0.0011 0.0127
vn -0.9999 -0.0000 0.0123
vn -0.0000 1.0000 -0.0000
vn -0.0000 -1.0000 -0.0000
vn -1.0000 -0.0000 -0.0000
vn -0.0000 -0.0000 1.0000
vn -0.0000 0.9999 0.0125
vn -0.0000 -0.9999 0.0123
vn 0.9999 0.0012 0.0125
vn 0.9999 -0.0000 0.0120
vn 1.0000 -0.0000 -0.0000
vn 0.9999 0.0119 -0.0000
vn -0.9999 -0.0119 -0.0000
s 0
f 440//230 445//230 446//230
f 440//230 446//230 432//230
f 452//231 453//231 437//231
f 452//232 437//232 436//232
f 447//233 450//233 446//233
f 447//233 446//233 445//233
f 449//234 448//234 444//234
f 449//234 444//234 443//234
f 450//235 449//235 443//235
f 450//235 443//235 446//235
f 434//236 441//236 451//236
f 434//236 451//236 436//236
f 451//236 441//236 438//236
f 451//236 438//236 439//236
f 453//237 455//237 439//237
f 453//237 439//237 437//237
f 454//238 452//238 436//238
f 454//238 436//238 451//238
f 439//239 455//239 454//239
f 439//240 454//240 451//240
f 448//241 447//241 445//241
f 448//241 445//241 444//241
f 435//233 438//233 440//233
f 435//233 440//233 432//233
f 438//242 441//242 442//242
f 438//242 442//242 440//242
f 437//236 439//236 438//236
f 437//236 438//236 435//236
f 434//243 435//243 432//243
f 434//243 432//243 433//243
f 436//236 437//236 435//236
f 436//236 435//236 434//236
f 432//230 446//230 443//230
f 432//230 443//230 433//230
f 449//230 450//230 447//230
f 449//230 447//230 448//230
f 444//230 445//230 440//230
f 444//230 440//230 442//230
f 433//234 442//234 441//234
f 433//234 441//234 434//234
f 443//230 444//230 442//230
f 443//230 442//230 433//230
