# Blender 5.1.0
# www.blender.org
o Chassis_havok_s_leftTrack_0
v -0.982190 0.425980 -3.191850
v -0.982190 0.864532 3.496518
v -0.982190 0.987996 3.353633
v -0.982190 0.510218 -3.293911
v -0.982190 0.702487 3.564558
v -0.982190 0.425980 3.537342
v -1.034051 0.425980 3.537342
v -1.034051 0.425980 -3.191850
v -0.982190 0.948128 2.441892
v -0.982190 1.101814 -2.205265
v -1.774430 0.948128 2.441892
v -1.774430 0.987996 3.353633
v -1.774430 0.510218 -3.293911
v -1.774430 1.101814 -2.205265
v -1.774430 0.425980 -3.191850
v -1.774430 0.864532 3.496518
v -1.774430 0.702487 3.564558
v -1.774430 0.428552 3.537342
v -0.982190 1.054229 3.108688
v -1.774430 1.054229 3.108688
v -1.034051 0.012506 1.883961
v -1.034051 0.020865 -2.184853
v -1.774430 0.020865 -2.184853
v -1.774430 0.012506 1.883961
v -1.774430 0.062663 2.727662
v -1.034051 0.062663 2.727662
v -1.034051 0.321808 -3.062574
v -1.034051 0.174552 -2.729176
v -1.034051 0.049159 -2.422994
v -1.034051 0.135969 3.129100
v -1.034051 0.234354 3.374045
v -1.774430 0.174552 -2.729176
v -1.774430 0.321808 -3.062574
v -1.774430 0.049159 -2.422994
v -1.774430 0.234354 3.374045
v -1.774430 0.135969 3.129100
v -1.774430 0.787368 -3.395972
v -1.774430 1.006001 -3.361951
v -1.774430 1.240067 -3.171438
v -1.774430 1.328807 -2.865257
v -0.982190 1.328807 -2.865257
v -0.982190 1.240067 -3.171438
v -0.982190 1.006001 -3.361951
v -0.982190 0.787368 -3.395972
vn -0.0000 0.9837 -0.1796
vn -0.0000 0.9279 -0.3727
vn 1.0000 -0.0000 -0.0000
vn -0.0000 -0.9456 -0.3252
vn -0.0000 0.6486 -0.7611
vn 0.0022 0.6436 -0.7654
vn -0.0000 0.0013 -1.0000
vn 0.0003 0.0989 -0.9951
vn -0.0000 -0.3871 -0.9220
vn -1.0000 -0.0000 -0.0000
vn -0.0000 -0.6313 0.7756
vn -0.0000 0.7712 0.6365
vn -0.0000 0.7712 0.6366
vn -0.0000 0.7787 0.6274
vn -0.0000 0.9930 0.1180
vn -0.0000 0.9254 0.3790
vn -0.0000 0.9147 0.4040
vn -0.0000 0.3456 0.9384
vn -0.0000 -0.9605 0.2784
vn -0.0000 -0.1538 0.9881
vn -0.0000 -0.9995 -0.0331
vn -0.0000 -0.9876 0.1571
vn -0.0000 0.9982 -0.0593
vn -0.0000 1.0000 0.0021
vn -0.0000 1.0000 -0.0000
vn -0.0000 -0.9653 -0.2610
vn -0.0000 0.0980 -0.9952
vn -0.0000 -0.7567 -0.6538
s 0
f 25//1 36//1 30//1
f 25//1 30//1 26//1
f 30//2 36//2 35//2
f 30//2 35//2 31//2
f 37//3 38//3 14//3
f 37//3 14//3 13//3
f 14//4 40//4 41//4
f 14//4 41//4 10//4
f 39//3 40//3 14//3
f 39//3 14//3 38//3
f 7//5 31//5 35//5
f 7//6 35//6 18//6
f 18//7 6//7 7//7
f 7//8 18//8 17//8
f 5//9 17//9 16//9
f 5//9 16//9 2//9
f 19//10 9//10 3//10
f 20//3 12//3 11//3
f 38//11 43//11 42//11
f 38//11 42//11 39//11
f 13//12 8//12 1//12
f 13//13 1//13 4//13
f 33//14 27//14 8//14
f 33//14 8//14 15//14
f 15//13 8//13 13//13
f 22//15 29//15 34//15
f 22//15 34//15 23//15
f 32//16 34//16 29//16
f 32//16 29//16 28//16
f 33//17 32//17 28//17
f 33//17 28//17 27//17
f 44//18 37//18 13//18
f 44//18 13//18 4//18
f 39//19 42//19 41//19
f 39//19 41//19 40//19
f 37//20 44//20 43//20
f 37//20 43//20 38//20
f 41//10 42//10 43//10
f 41//10 43//10 10//10
f 10//10 43//10 44//10
f 10//10 44//10 4//10
f 11//21 14//21 10//21
f 11//21 10//21 9//21
f 17//3 18//3 15//3
f 17//3 15//3 16//3
f 9//22 19//22 20//22
f 9//22 20//22 11//22
f 25//23 26//23 21//23
f 25//23 21//23 24//23
f 23//24 24//24 21//24
f 23//24 21//24 22//24
f 12//3 16//3 15//3
f 12//3 15//3 13//3
f 1//10 6//10 5//10
f 1//10 5//10 2//10
f 3//10 4//10 1//10
f 3//10 1//10 2//10
f 1//25 8//25 7//25
f 1//25 7//25 6//25
f 11//3 12//3 13//3
f 11//3 13//3 14//3
f 4//10 3//10 9//10
f 4//10 9//10 10//10
f 27//10 28//10 21//10
f 27//10 21//10 26//10
f 23//3 36//3 25//3
f 23//3 25//3 24//3
f 35//3 36//3 23//3
f 20//26 19//26 3//26
f 20//26 3//26 12//26
f 6//27 7//27 17//27
f 6//27 17//27 5//27
f 2//28 16//28 12//28
f 2//28 12//28 3//28
f 18//3 35//3 23//3
f 18//3 23//3 34//3
f 30//10 31//10 27//10
f 30//10 27//10 26//10
f 28//10 29//10 22//10
f 28//10 22//10 21//10
f 27//10 31//10 7//10
f 27//10 7//10 8//10
f 15//3 18//3 33//3
f 18//3 34//3 32//3
f 18//3 32//3 33//3
o Chassis_havok_s_rightTrack_1
v 0.982190 0.425980 -3.191850
v 0.982190 0.510218 -3.293911
v 0.982190 0.987996 3.353633
v 0.982190 0.864532 3.496518
v 0.982190 0.702487 3.564558
v 0.982190 0.425980 3.537342
v 1.034051 0.425980 3.537342
v 1.034051 0.425980 -3.191850
v 0.982190 0.948128 2.441892
v 0.982190 1.101814 -2.205265
v 1.774430 0.948128 2.441892
v 1.774430 1.101814 -2.205265
v 1.774430 0.510218 -3.293911
v 1.774430 0.987996 3.353633
v 1.774430 0.425980 -3.191850
v 1.774430 0.864532 3.496518
v 1.774430 0.428552 3.537342
v 1.774430 0.702487 3.564558
v 1.774430 1.054229 3.108688
v 0.982190 1.054229 3.108688
v 1.034051 0.012506 1.883961
v 1.774430 0.012506 1.883961
v 1.774430 0.020865 -2.184853
v 1.034051 0.020865 -2.184853
v 1.034051 0.062663 2.727662
v 1.774430 0.062663 2.727662
v 1.034051 0.234354 3.374045
v 1.034051 0.321808 -3.062574
v 1.034051 0.174552 -2.729176
v 1.034051 0.135969 3.129100
v 1.034051 0.049159 -2.422994
v 1.774430 0.174552 -2.729176
v 1.774430 0.049159 -2.422994
v 1.774430 0.321808 -3.062574
v 1.774430 0.234354 3.374045
v 1.774430 0.135969 3.129100
v 0.982190 0.787368 -3.395972
v 0.982190 1.006001 -3.361951
v 0.982190 1.240067 -3.171438
v 0.982190 1.328807 -2.865257
v 1.774430 1.328807 -2.865257
v 1.774430 1.006001 -3.361951
v 1.774430 0.787368 -3.395972
v 1.774430 1.240067 -3.171438
vn -0.0000 0.9837 -0.1796
vn -0.0000 0.9279 -0.3727
vn 1.0000 -0.0000 -0.0000
vn -0.0000 -0.9456 -0.3252
vn -0.0000 0.6486 -0.7611
vn -0.0022 0.6436 -0.7654
vn -0.0000 0.0013 -1.0000
vn -0.0003 0.0989 -0.9951
vn -0.0000 -0.3871 -0.9220
vn -1.0000 -0.0000 -0.0000
vn -0.0000 0.7712 0.6366
vn -0.0000 0.7787 0.6274
vn -0.0000 0.9930 0.1180
vn -0.0000 0.9254 0.3790
vn -0.0000 0.9147 0.4040
vn -0.0000 -0.6313 0.7756
vn -0.0000 -0.9605 0.2784
vn -0.0000 -0.1538 0.9881
vn -0.0000 0.3456 0.9384
vn -0.0000 0.0980 -0.9952
vn -0.0000 -0.9995 -0.0331
vn -0.0000 -0.9876 0.1571
vn -0.0000 0.9982 -0.0593
vn -0.0000 1.0000 0.0021
vn -0.0000 1.0000 -0.0000
vn -0.0000 -0.7567 -0.6538
vn -0.0000 -0.9653 -0.2610
s 0
f 74//29 80//29 70//29
f 74//29 70//29 69//29
f 79//30 80//30 74//30
f 79//30 74//30 71//30
f 81//31 82//31 54//31
f 81//31 54//31 46//31
f 84//32 85//32 56//32
f 84//32 56//32 54//32
f 83//31 84//31 54//31
f 83//31 54//31 82//31
f 79//33 71//33 51//33
f 79//34 51//34 61//34
f 61//35 51//35 50//35
f 61//36 51//36 62//36
f 60//37 62//37 49//37
f 60//37 49//37 48//37
f 64//31 47//31 53//31
f 63//38 55//38 58//38
f 56//38 86//38 87//38
f 56//38 87//38 57//38
f 52//39 59//39 57//39
f 52//39 57//39 46//39
f 52//40 72//40 78//40
f 52//40 78//40 59//40
f 45//39 52//39 46//39
f 77//41 75//41 68//41
f 77//41 68//41 67//41
f 75//42 77//42 76//42
f 75//42 76//42 73//42
f 73//43 76//43 78//43
f 73//43 78//43 72//43
f 86//44 88//44 83//44
f 86//44 83//44 82//44
f 85//38 88//38 86//38
f 85//38 86//38 56//38
f 88//45 85//45 84//45
f 88//45 84//45 83//45
f 87//46 86//46 82//46
f 87//46 82//46 81//46
f 57//47 87//47 81//47
f 57//47 81//47 46//47
f 62//48 51//48 50//48
f 62//48 50//48 49//48
f 54//49 56//49 55//49
f 54//49 55//49 53//49
f 59//38 61//38 62//38
f 59//38 62//38 60//38
f 63//50 64//50 53//50
f 63//50 53//50 55//50
f 65//51 69//51 70//51
f 65//51 70//51 66//51
f 67//52 68//52 65//52
f 67//52 65//52 66//52
f 59//38 60//38 58//38
f 59//38 58//38 57//38
f 49//31 50//31 45//31
f 49//31 45//31 48//31
f 47//31 48//31 45//31
f 47//31 45//31 46//31
f 51//53 52//53 45//53
f 51//53 45//53 50//53
f 55//38 56//38 57//38
f 55//38 57//38 58//38
f 53//31 47//31 46//31
f 53//31 46//31 54//31
f 51//31 71//31 72//31
f 51//31 72//31 52//31
f 79//38 67//38 80//38
f 67//38 79//38 61//38
f 67//38 61//38 77//38
f 70//38 80//38 67//38
f 70//38 67//38 66//38
f 58//54 60//54 48//54
f 58//54 48//54 47//54
f 47//55 64//55 63//55
f 47//55 63//55 58//55
f 59//38 78//38 61//38
f 68//31 75//31 71//31
f 68//31 71//31 74//31
f 72//31 71//31 73//31
f 68//31 74//31 69//31
f 68//31 69//31 65//31
f 61//38 78//38 76//38
f 61//38 76//38 77//38
f 73//31 71//31 75//31
o Turret_01_havok_s_armor_9_0
v 0.065077 2.215843 -0.863108
v -0.065077 2.083357 -0.863108
v -0.000000 2.149600 -1.195850
vn 0.7134 -0.7008 -0.0000
s 0
f 89//56 90//56 91//56
o Hull_havok_s_surveyingDevice_0
v -0.577767 1.858994 -2.343765
v -0.443377 1.858994 -2.343765
v -0.443377 1.810523 -2.288073
v -0.577767 1.810523 -2.288073
v -0.542782 2.896379 -0.309009
v -0.579989 2.942065 -0.346800
v -0.506130 2.942065 -0.346800
v -0.542782 2.950979 -0.374646
v 0.422383 2.842338 -0.372657
v 0.556773 2.842338 -0.372657
v 0.422383 2.890808 -0.426360
v 0.556773 2.890808 -0.426360
v -0.577935 1.771688 -2.343239
v -0.441945 1.771688 -2.343239
v -0.441945 1.771688 -2.288555
v -0.577935 1.771688 -2.288555
v -0.542924 2.792852 -0.309009
v -0.579255 2.792852 -0.345339
v -0.506594 2.792852 -0.345339
v -0.542924 2.792852 -0.381669
v 0.556529 2.792852 -0.371382
v 0.422599 2.792852 -0.371382
v 0.422599 2.792852 -0.426902
v 0.556529 2.792852 -0.426902
vn -0.0000 -0.0258 -0.9997
vn -0.7068 -0.0308 0.7068
vn -0.6034 0.0097 0.7974
vn 0.7071 0.0104 0.7071
vn 0.6043 -0.0359 0.7959
vn 1.0000 0.0044 -0.0000
vn 1.0000 0.0022 0.0020
vn -1.0000 0.0049 -0.0000
vn -1.0000 0.0025 0.0022
vn -0.0000 -0.0055 1.0000
vn -0.0000 -0.7423 -0.6700
vn -0.0000 -0.6374 -0.7705
vn -0.0000 -0.9524 -0.3049
vn -0.0000 -0.7543 -0.6565
vn -0.9993 -0.0369 -0.0000
vn -0.9998 -0.0165 -0.0143
vn -0.0000 0.0060 1.0000
vn 1.0000 -0.0043 -0.0000
vn 1.0000 -0.0019 -0.0017
vn -0.7071 -0.0047 -0.7071
vn -0.7184 0.0010 -0.6956
vn 0.7071 -0.0010 -0.7071
vn 0.7105 -0.0034 -0.7037
vn -0.0000 0.0124 -0.9999
s 0
f 112//57 113//57 100//57
f 112//57 100//57 101//57
f 99//58 111//58 110//58
f 99//59 110//59 98//59
f 97//60 109//60 111//60
f 97//61 111//61 99//61
f 100//62 113//62 114//62
f 100//63 114//63 102//63
f 115//64 112//64 101//64
f 115//65 101//65 103//65
f 102//66 114//66 115//66
f 102//66 115//66 103//66
f 102//67 103//67 101//67
f 102//67 101//67 100//67
f 98//68 96//68 97//68
f 98//69 97//69 99//69
f 94//70 95//70 92//70
f 94//70 92//70 93//70
f 105//71 106//71 94//71
f 105//72 94//72 93//72
f 92//73 104//73 105//73
f 92//73 105//73 93//73
f 95//74 107//74 104//74
f 95//75 104//75 92//75
f 98//76 110//76 108//76
f 98//77 108//77 96//77
f 96//78 108//78 109//78
f 96//79 109//79 97//79
f 106//80 107//80 95//80
f 106//80 95//80 94//80
o Hull_havok_s_armor_1_1
v 0.871212 2.766887 -0.958942
v -0.871212 2.766887 -0.958942
v -1.310339 1.825749 -1.287829
v 1.310338 1.825749 -1.287829
v 0.988036 2.517147 -0.959244
v 0.988007 2.517147 -0.825705
v 0.888368 2.730957 -0.767608
v 0.890232 2.726946 -1.046515
v 0.871676 2.766887 -0.762582
v 0.775071 2.792852 -0.757524
v 0.775071 2.792852 -0.886690
v -0.775072 2.792852 -0.886690
v -0.890231 2.726946 -1.046515
v -0.887384 2.733076 -0.767608
v -1.172556 2.121133 -0.938450
v -1.172555 2.121133 -0.956790
v -0.871677 2.766887 -0.756925
v -0.775072 2.792852 -0.738355
v -0.568563 2.038152 -1.230956
v -0.591650 2.539390 -1.096738
v -1.335395 1.771688 -1.254435
v -1.203171 2.055439 -0.956791
v -1.334492 1.773640 -1.035463
v -0.578391 2.666150 -1.062794
v -0.523632 2.726946 -1.046515
v 0.578391 2.666402 -1.062727
v 0.591651 2.539390 -1.096738
v 0.523631 2.726946 -1.046515
v -0.303797 1.838625 -1.284380
v -0.467241 1.907705 -1.265881
v 0.568564 2.038152 -1.230956
v 0.467242 1.907705 -1.265881
v 0.303798 1.838625 -1.284380
v 1.335395 1.771688 -1.254430
v 1.079419 2.321071 -0.959244
v 1.334460 1.773709 -1.027715
v 1.079380 2.321071 -0.878984
vn -0.0000 -0.2586 0.9660
vn -0.0000 -0.2587 0.9660
vn -0.0000 0.5256 0.8507
vn -0.0000 0.5255 0.8508
vn -0.0000 -0.9098 0.4150
vn -0.9065 -0.4223 -0.0004
vn -0.9073 -0.4205 -0.0000
vn -0.9064 -0.4224 -0.0002
vn -0.9064 -0.4225 -0.0000
vn -0.0000 -0.2588 0.9659
vn -0.0000 -0.9411 0.3382
vn 0.9064 -0.4224 0.0001
vn 0.9064 -0.4224 -0.0000
vn -0.9068 -0.4216 0.0021
vn -0.9027 -0.4302 0.0002
vn -0.2596 -0.9657 -0.0000
vn -0.2603 -0.9655 0.0006
vn 0.9066 -0.4219 -0.0028
vn 0.2596 -0.9657 -0.0000
vn 0.2603 -0.9655 0.0006
vn 0.9067 -0.4219 0.0021
vn 0.9027 -0.4304 0.0002
s 0
f 119//81 146//81 147//81
f 119//82 147//82 148//82
f 136//83 149//83 119//83
f 136//84 119//84 118//84
f 145//81 134//81 118//81
f 145//82 118//82 144//82
f 141//82 142//82 123//82
f 141//82 123//82 143//82
f 128//85 123//85 116//85
f 128//85 116//85 117//85
f 151//86 152//86 150//86
f 151//86 150//86 119//86
f 151//87 119//87 149//87
f 119//88 150//88 120//88
f 119//89 120//89 123//89
f 148//90 144//90 118//90
f 148//90 118//90 119//90
f 123//82 142//82 146//82
f 123//82 146//82 119//82
f 128//82 135//82 139//82
f 128//82 139//82 140//82
f 116//91 126//91 127//91
f 116//91 127//91 117//91
f 130//92 131//92 128//92
f 130//93 128//93 129//93
f 122//94 124//94 116//94
f 122//95 116//95 123//95
f 122//89 123//89 120//89
f 122//88 120//88 121//88
f 124//96 125//96 126//96
f 124//97 126//97 116//97
f 128//93 131//93 136//93
f 128//98 136//98 118//98
f 137//93 138//93 136//93
f 137//93 136//93 131//93
f 134//82 135//82 128//82
f 134//82 128//82 118//82
f 127//99 133//99 132//99
f 127//100 132//100 117//100
f 117//101 132//101 129//101
f 117//102 129//102 128//102
o Hull_havok_s_armor_2_2
v -0.251418 1.725197 -2.564492
v -0.773544 1.725197 -2.564641
v 0.746538 1.779173 -2.499978
v 1.074474 1.779259 -2.499978
v 1.316247 1.813027 -2.460012
v 1.316247 1.813027 -2.411664
v -1.316247 1.813027 -2.460012
v -1.316247 1.813027 -2.411664
v -0.238558 1.813027 -2.411514
v 0.688666 1.813027 -2.411664
v -0.215409 1.813027 -2.460012
v 0.688666 1.813027 -2.460012
v 1.131059 1.813027 -2.460012
v 1.131059 1.813027 -2.411664
v -0.810839 1.813027 -2.460012
v -0.790263 1.813027 -2.411514
v -0.978297 1.418926 -2.929899
v 0.978490 1.418926 -2.929899
v 1.499843 1.418926 -2.929899
v 1.335395 1.771687 -2.389228
v 1.504611 1.408715 -2.705894
v 1.335395 1.771688 -2.230093
v -1.499843 1.418926 -2.929899
v -1.504611 1.408715 -2.705894
v -1.335395 1.771687 -2.389228
v -1.335395 1.771687 -2.230093
v 0.745917 1.771719 -2.389335
v -0.306775 1.771687 -2.389228
v 1.074299 1.771525 -2.389228
v -0.719862 1.771687 -2.389228
v -0.978297 1.012025 -3.414049
v 0.978490 1.012025 -3.414049
v 0.978490 0.927982 -3.312260
v -0.978297 0.927982 -3.312259
v -0.209783 1.942606 -1.482200
v -0.303797 1.838625 -1.284380
v 0.303798 1.838625 -1.284380
v 0.209783 1.942606 -1.482200
v 0.209783 2.497119 -1.482200
v 0.523630 2.726946 -1.046515
v -0.523631 2.726946 -1.046515
v -0.209783 2.497119 -1.482200
v -0.286730 2.456627 -1.482199
v -0.578391 2.666150 -1.062795
v -0.591650 2.539390 -1.096738
v -0.316789 2.372897 -1.482200
v -0.568564 2.038151 -1.230956
v -0.316789 2.066828 -1.482200
v 0.286731 2.456627 -1.482199
v 0.578391 2.666402 -1.062727
v 0.591650 2.539390 -1.096738
v 0.316788 2.372897 -1.482200
v 0.568563 2.038151 -1.230956
v 0.316788 2.066828 -1.482200
v -0.467242 1.907705 -1.265882
v -0.282743 1.983098 -1.482199
v 0.282742 1.983098 -1.482199
v 0.467241 1.907705 -1.265882
vn 0.3632 -0.6903 0.6258
vn -0.0000 -0.8845 0.4666
vn 0.4810 -0.6035 0.6360
vn 0.7337 -0.2463 0.6333
vn 0.7806 -0.1279 0.6118
vn 0.7064 -0.0000 0.7079
vn 0.7288 -0.2617 0.6327
vn -0.0000 0.7711 0.6367
vn -0.0000 -0.7655 0.6434
vn -0.0000 0.8852 0.4653
vn -0.0000 -1.0000 -0.0000
vn 0.6504 0.3209 0.6884
vn 0.3994 0.7196 0.5680
vn -0.3733 0.7298 0.5727
vn -0.6813 0.2770 0.6776
vn -0.6504 0.3209 0.6884
vn -0.3994 0.7196 0.5680
vn -0.4799 -0.6044 0.6359
vn -0.7337 -0.2462 0.6333
vn -0.3632 -0.6903 0.6258
vn -0.7288 -0.2616 0.6327
vn 0.3733 0.7298 0.5727
vn 0.6813 0.2770 0.6776
vn -0.7806 -0.1279 0.6118
vn -0.7064 -0.0000 0.7079
vn -0.6081 -0.7013 0.3720
vn -0.5461 -0.8051 0.2317
vn 0.9063 -0.4225 -0.0000
vn 0.9063 -0.4226 -0.0000
vn -0.0000 -0.7662 0.6426
vn -0.0001 -0.7662 0.6426
vn 0.9071 -0.4209 -0.0013
vn 0.9065 -0.4223 -0.0000
vn -0.0001 -0.4744 -0.8803
vn -0.0001 -0.4757 -0.8796
vn 0.0002 -0.7664 0.6423
vn -0.0001 -0.7665 0.6422
vn -0.0000 -0.7664 0.6424
vn -0.0002 -0.7662 0.6426
vn 0.0009 -0.7665 0.6422
vn -0.9071 -0.4209 -0.0013
vn -0.9065 -0.4223 -0.0000
vn -0.9063 -0.4225 -0.0000
vn -0.9063 -0.4226 -0.0000
vn -0.0000 -0.7659 0.6429
vn -0.0000 -0.7655 0.6435
vn -0.0005 -0.7634 0.6460
vn -0.0000 -0.4745 -0.8802
vn 0.0003 -0.4771 -0.8789
vn 0.6083 -0.6983 0.3774
vn 0.5619 -0.7826 0.2682
vn -0.0000 -0.9666 0.2562
vn -0.0001 -0.9666 0.2564
vn -0.5851 -0.8110 -0.0000
vn -0.5345 -0.8431 -0.0598
vn -0.0006 -0.9977 -0.0672
vn 0.0003 -0.9976 -0.0697
vn -0.0000 -0.7639 0.6454
vn 0.0003 -0.4759 -0.8795
vn -0.0000 -0.4770 -0.8789
vn 0.5902 -0.8072 -0.0000
vn 0.5413 -0.8388 -0.0577
s 0
f 194//103 193//103 195//103
f 193//104 194//104 191//104
f 193//104 191//104 192//104
f 195//105 193//105 196//105
f 195//106 196//106 197//106
f 198//107 197//107 199//107
f 198//108 199//108 200//108
f 198//109 195//109 197//109
f 183//110 186//110 185//110
f 183//110 185//110 184//110
f 183//111 184//111 170//111
f 183//111 170//111 169//111
f 189//112 190//112 187//112
f 189//112 187//112 188//112
f 166//113 165//113 157//113
f 166//113 157//113 158//113
f 167//113 168//113 160//113
f 167//113 160//113 159//113
f 200//114 199//114 207//114
f 188//115 187//115 208//115
f 209//116 189//116 210//116
f 209//117 210//117 206//117
f 205//118 206//118 210//118
f 209//119 190//119 189//119
f 202//120 192//120 201//120
f 202//121 201//121 203//121
f 192//122 191//122 201//122
f 204//123 203//123 201//123
f 207//124 188//124 208//124
f 207//125 208//125 200//125
f 205//126 203//126 204//126
f 205//127 204//127 206//127
f 167//128 154//128 182//128
f 167//129 182//129 168//129
f 177//130 178//130 176//130
f 177//131 176//131 175//131
f 159//132 175//132 169//132
f 159//133 169//133 154//133
f 160//134 177//134 175//134
f 160//135 175//135 159//135
f 163//113 164//113 162//113
f 163//113 162//113 161//113
f 179//136 180//136 161//136
f 179//137 161//137 162//137
f 170//138 156//138 155//138
f 170//139 155//139 153//139
f 169//140 170//140 153//140
f 169//141 153//141 154//141
f 170//132 171//132 157//132
f 170//142 157//142 156//142
f 171//143 172//143 158//143
f 171//144 158//144 157//144
f 173//145 174//145 172//145
f 173//146 172//146 171//146
f 159//147 154//147 167//147
f 164//148 163//148 153//148
f 164//149 153//149 155//149
f 168//150 182//150 177//150
f 168//151 177//151 160//151
f 180//152 153//152 163//152
f 180//153 163//153 161//153
f 180//154 182//154 154//154
f 180//155 154//155 153//155
f 179//156 162//156 164//156
f 179//157 164//157 155//157
f 181//158 179//158 155//158
f 181//159 155//159 156//159
f 165//160 156//160 157//160
f 172//161 181//161 166//161
f 172//162 166//162 158//162
f 165//163 166//163 181//163
f 165//164 181//164 156//164
o Hull_havok_s_armor_3_3
v -0.978209 0.426216 3.202859
v -0.978270 0.426216 -0.943235
v -0.978296 1.418926 -2.929900
v -0.978209 1.121136 3.603296
v -0.978296 0.426216 -2.704548
v -0.978296 0.927982 -3.312259
v -0.978296 1.012026 -3.414049
v -1.335395 1.771687 -1.254435
v -1.334491 1.773639 -1.035464
v -1.504611 1.408715 -2.705894
v -1.335395 1.771687 -2.230094
v -1.322374 1.799822 1.901394
v -1.638905 1.121136 3.603296
v -1.322342 1.799822 3.995468
v 0.978313 0.426216 3.202859
v 0.978313 1.121136 3.603296
v 0.978489 1.418926 -2.929900
v 0.978436 0.426216 -0.943235
v 0.978489 0.426216 -2.704548
v 0.978489 1.012026 -3.414049
v 0.978489 0.927982 -3.312259
v 1.504610 1.408715 -2.705894
v 1.334460 1.773708 -1.027715
v 1.335396 1.771687 -1.254430
v 1.335396 1.771687 -2.230094
v 1.638900 1.121136 3.603294
v 1.322373 1.799822 1.901394
v 1.322343 1.799822 3.995468
v 1.079428 2.321072 0.934538
v 1.079400 2.321072 -0.201202
v 1.079380 2.321072 -0.878985
v 1.079444 2.321072 1.691393
v 0.871677 2.766888 1.730844
v 0.988066 2.517148 1.691393
v 0.888368 2.730957 -0.767608
v 0.988049 2.517148 0.934538
v 0.988006 2.517148 -0.825705
v 0.988024 2.517148 -0.201202
v 0.871677 2.766887 -0.762582
v 0.775071 2.792852 1.653573
v 0.775071 2.792852 -0.757525
v -0.209783 2.497119 -1.482200
v -0.228678 2.408691 -1.513612
v 0.228679 2.408691 -1.513612
v 0.209783 2.497119 -1.482200
v 0.209783 1.942606 -1.482200
v 0.225497 2.031034 -1.513612
v -0.225498 2.031034 -1.513612
v -0.209783 1.942606 -1.482200
v 0.316789 2.066827 -1.482200
v 0.316789 2.372897 -1.482200
v 0.282743 1.983098 -1.482200
v 0.286732 2.456627 -1.482200
v -0.316788 2.066827 -1.482200
v -0.316788 2.372898 -1.482200
v -0.286731 2.456627 -1.482200
v -0.282742 1.983099 -1.482200
v -0.887384 2.733076 -0.767608
v -0.871677 2.766887 1.730844
v -1.172576 2.121133 -0.196662
v -1.311041 1.824015 -0.196662
v -1.311019 1.824015 -0.956792
v -1.172556 2.121133 -0.938449
v -0.775071 2.792852 1.653573
v -0.871676 2.766887 -0.756926
v -0.775071 2.792852 -0.738355
v -1.203170 2.055439 -0.956792
vn -0.1994 0.3593 0.9117
vn -0.3744 0.1522 0.9147
vn -0.3254 -0.0000 0.9456
vn -0.3348 0.0028 0.9423
vn 0.3358 -0.0000 0.9419
vn 0.3263 0.0027 0.9453
vn -0.1919 -0.3647 0.9112
vn -0.3815 -0.1370 0.9142
vn -0.0000 0.3347 0.9423
vn -0.9069 -0.4213 -0.0000
vn -0.2596 -0.9657 -0.0000
vn -0.0000 -0.3347 0.9423
vn -0.9064 -0.4224 -0.0000
vn 0.2596 -0.9657 -0.0000
vn 0.9064 -0.4224 -0.0000
vn 0.9069 -0.4213 -0.0000
vn 0.1994 0.3593 0.9117
vn 0.3744 0.1523 0.9147
vn 0.1919 -0.3647 0.9112
vn 0.3815 -0.1370 0.9142
vn -1.0000 -0.0000 -0.0000
vn 0.9063 -0.4227 -0.0000
vn 0.9063 -0.4226 -0.0000
vn 1.0000 -0.0000 -0.0000
vn 0.9063 -0.4225 -0.0000
vn -0.9063 -0.4226 -0.0000
vn -0.9063 -0.4225 -0.0000
vn -0.9063 -0.4227 -0.0000
s 0
f 257//165 256//165 262//165
f 257//166 262//166 260//166
f 257//167 260//167 261//167
f 257//168 261//168 254//168
f 253//169 265//169 264//169
f 253//170 264//170 258//170
f 263//171 255//171 254//171
f 263//172 254//172 261//172
f 258//173 259//173 256//173
f 258//173 256//173 257//173
f 249//174 245//174 243//174
f 250//175 251//175 249//175
f 250//175 249//175 243//175
f 254//176 255//176 252//176
f 254//176 252//176 253//176
f 239//177 246//177 248//177
f 239//177 248//177 240//177
f 275//178 276//178 274//178
f 275//178 274//178 269//178
f 273//179 268//179 270//179
f 219//179 277//179 272//179
f 275//180 269//180 268//180
f 219//179 272//179 271//179
f 219//179 271//179 222//179
f 267//181 259//181 258//181
f 267//182 258//182 264//182
f 253//183 252//183 266//183
f 253//184 266//184 265//184
f 270//179 222//179 271//179
f 222//179 270//179 268//179
f 222//179 268//179 269//179
f 227//185 228//185 225//185
f 227//185 225//185 226//185
f 222//186 224//186 223//186
f 227//185 230//185 231//185
f 227//185 231//185 229//185
f 227//185 229//185 228//185
f 222//187 223//187 220//187
f 222//187 220//187 219//187
f 213//188 212//188 215//188
f 213//188 214//188 211//188
f 213//188 211//188 212//188
f 218//187 219//187 220//187
f 218//189 220//189 221//189
f 216//188 217//188 213//188
f 216//188 213//188 215//188
f 237//177 243//177 244//177
f 237//177 244//177 242//177
f 237//177 242//177 239//177
f 245//177 247//177 248//177
f 245//177 248//177 246//177
f 243//177 245//177 246//177
f 243//177 246//177 244//177
f 240//177 241//177 233//177
f 232//190 236//190 237//190
f 232//190 237//190 233//190
f 232//190 233//190 234//190
f 232//191 234//191 235//191
f 239//177 240//177 233//177
f 239//177 233//177 237//177
f 238//192 237//192 236//192
o Hull_havok_s_armor_4_4
v 0.978313 1.121135 3.603295
v -0.978209 1.121135 3.603295
v -1.322342 1.799821 3.995468
v 1.322343 1.799821 3.995468
v -1.638905 1.121135 3.603297
v 0.978313 0.426216 3.202860
v -0.978209 0.426216 3.202860
v 1.638900 1.121135 3.603294
vn -0.0000 0.4993 -0.8664
vn -0.0000 0.5003 -0.8658
s 0
f 278//193 283//193 284//193
f 278//193 284//193 279//193
f 281//194 285//194 278//194
f 280//194 281//194 278//194
f 280//194 278//194 279//194
f 279//194 282//194 280//194
o Hull_havok_s_armor_6_5
v -0.978296 0.426216 -2.704548
v 0.978489 0.426216 -2.704548
v 0.978489 0.927982 -3.312260
v -0.978296 0.927982 -3.312259
vn -0.0000 0.7711 0.6367
s 0
f 288//195 289//195 286//195
f 288//195 286//195 287//195
o Hull_havok_s_armor_7_6
v 1.322373 1.799821 1.901393
v 1.322344 1.799821 3.995468
v -1.322342 1.799821 3.995468
v -1.322374 1.799821 1.901393
v -0.441945 1.771688 -2.288555
v 1.335395 1.771687 -2.230093
v 1.335395 1.771688 -1.254431
v -1.335395 1.771688 -1.254435
v -0.577935 1.771688 -2.288555
v -1.335395 1.771687 -2.230093
v 1.335395 1.771687 -2.389229
v -0.441945 1.771688 -2.343240
v 0.745916 1.771720 -2.389335
v 1.074298 1.771525 -2.389229
v -0.306774 1.771687 -2.389229
v -0.577935 1.771688 -2.343240
v -0.719863 1.771687 -2.389229
v -1.335395 1.771687 -2.389229
vn -0.0000 -1.0000 -0.0000
vn -0.0000 -1.0000 0.0001
vn 0.0006 -0.9997 0.0240
vn -0.0006 -0.9999 -0.0159
s 0
f 305//196 306//196 304//196
f 305//196 304//196 301//196
f 304//197 302//197 301//197
f 307//196 306//196 305//196
f 307//196 305//196 298//196
f 299//196 307//196 298//196
f 303//198 300//198 301//198
f 303//199 301//199 302//199
f 296//196 297//196 294//196
f 296//196 294//196 295//196
f 292//196 293//196 290//196
f 292//196 290//196 291//196
f 294//196 301//196 300//196
f 294//196 300//196 295//196
f 297//196 299//196 298//196
f 297//196 298//196 294//196
o Hull_havok_s_armor_9_7
v -0.391342 2.792823 1.728161
v 0.391342 2.792823 1.728161
v 1.322373 1.799821 1.901394
v -1.322374 1.799821 1.901394
v 0.871676 2.766887 1.730845
v -0.871677 2.766887 1.730845
v -0.775072 2.792852 1.653572
v 0.775071 2.792852 1.653572
vn -0.0000 -1.0000 -0.0004
vn -0.0506 -0.9641 -0.2607
vn 0.0040 -0.1755 -0.9845
vn 0.0506 -0.9641 -0.2607
vn -0.0000 -0.1719 -0.9851
vn -0.0040 -0.1755 -0.9845
s 0
f 308//200 314//200 315//200
f 308//200 315//200 309//200
f 312//201 309//201 315//201
f 308//202 311//202 313//202
f 308//203 313//203 314//203
f 308//204 310//204 311//204
f 309//205 312//205 310//205
f 309//204 310//204 308//204
o Hull_havok_s_armor_8_8
v -0.225498 2.031034 -1.513611
v 0.225498 2.031034 -1.513611
v 0.228679 2.408691 -1.513611
v -0.228679 2.408691 -1.513611
vn -0.0000 -0.0000 1.0000
s 0
f 318//206 319//206 316//206
f 318//206 316//206 317//206
o Hull_havok_s_armor_10_9
v -1.504611 1.408715 -2.705894
v -1.638905 1.121135 3.603297
v -0.978209 1.121135 3.603295
v -0.978296 1.418925 -2.929899
v -1.499844 1.418925 -2.929899
v 1.638900 1.121135 3.603293
v 1.504610 1.408715 -2.705893
v 0.978313 1.121135 3.603295
v 1.499843 1.418925 -2.929899
v 0.978489 1.418925 -2.929899
vn -0.0000 0.9990 0.0455
s 0
f 325//207 326//207 327//207
f 327//207 326//207 328//207
f 327//207 328//207 329//207
f 320//207 321//207 322//207
f 324//207 320//207 322//207
f 324//207 322//207 323//207
o Hull_havok_s_armor_11_10
v -0.775072 2.792852 1.653572
v -0.542924 2.792852 -0.309009
v 0.775071 2.792852 1.653572
v -0.506594 2.792852 -0.345339
v 0.422599 2.792852 -0.371382
v -0.775072 2.792852 -0.738354
v -0.579255 2.792852 -0.345339
v 0.556529 2.792852 -0.371382
v 0.775071 2.792852 -0.886690
v -0.775072 2.792852 -0.886690
v 0.422599 2.792852 -0.426903
v -0.542924 2.792852 -0.381669
v 0.556529 2.792852 -0.426903
vn -0.0000 -1.0000 -0.0000
s 0
f 339//208 341//208 336//208
f 339//208 336//208 335//208
f 333//208 341//208 339//208
f 338//208 337//208 342//208
f 338//208 342//208 340//208
f 334//208 333//208 340//208
f 339//208 338//208 340//208
f 339//208 340//208 333//208
f 332//208 331//208 333//208
f 332//208 333//208 334//208
f 330//208 331//208 332//208
f 332//208 334//208 337//208
f 332//208 337//208 338//208
f 336//208 331//208 330//208
f 336//208 330//208 335//208
o Hull_havok_s_armor_5_11
v -0.978270 0.426216 -0.943235
v 0.978436 0.426216 -0.943235
v 0.978489 0.426216 -2.704548
v -0.978296 0.426216 -2.704548
vn -0.0000 1.0000 -0.0000
s 0
f 345//209 346//209 343//209
f 345//209 343//209 344//209
o Hull_havok_s_armor_12_12
v -0.441945 1.771688 -2.288555
v -0.577936 1.771688 -2.288555
v -0.577936 1.771688 -2.343239
v -0.441945 1.771688 -2.343239
vn -0.0000 -1.0000 -0.0000
s 0
f 349//210 350//210 347//210
f 349//210 347//210 348//210
o Hull_havok_s_armor_13_13
v -0.579255 2.792852 -0.345339
v -0.542924 2.792852 -0.381670
v -0.542924 2.792852 -0.309009
v 0.422599 2.792852 -0.426902
v 0.556529 2.792852 -0.426902
v 0.556529 2.792852 -0.371382
v 0.422599 2.792852 -0.371382
v -0.506594 2.792852 -0.345339
vn -0.0000 -1.0000 -0.0000
s 0
f 352//211 358//211 353//211
f 356//211 357//211 354//211
f 356//211 354//211 355//211
f 351//211 352//211 353//211
o Hull_havok_s_armor_14_14
v -0.978207 0.426216 3.202860
v 0.978312 0.426216 3.202860
v 0.978436 0.426216 -0.943235
v -0.978270 0.426216 -0.943235
vn -0.0000 1.0000 -0.0000
s 0
f 361//212 362//212 359//212
f 361//212 359//212 360//212
o Hull_havok_s_armor_16_15
v 0.988036 2.517147 -0.959244
v 1.079419 2.321071 -0.959244
v 1.079381 2.321071 -0.878984
v 0.988007 2.517147 -0.825705
v -1.172555 2.121133 -0.956791
v -1.172555 2.121133 -0.938450
v -1.203171 2.055438 -0.956791
vn 0.9064 -0.4224 -0.0000
vn -0.9064 -0.4224 -0.0002
vn -0.9064 -0.4224 -0.0004
s 0
f 367//213 368//213 369//213
f 365//214 366//214 363//214
f 365//215 363//215 364//215
o Hull_havok_s_armor_15_16
v -1.311018 1.824015 -0.956791
v -1.203170 2.055438 -0.956791
v -1.311040 1.824015 -0.196662
v 0.988049 2.517147 0.934538
v 1.079429 2.321071 0.934538
v 1.079445 2.321071 1.691394
v 0.988065 2.517147 1.691394
v 0.988006 2.517147 -0.825705
v 1.079381 2.321071 -0.878984
v 1.079399 2.321071 -0.201203
v 0.988024 2.517147 -0.201203
v -1.172556 2.121133 -0.938450
v -1.172577 2.121133 -0.196662
vn -0.9064 -0.4224 -0.0000
vn 0.9064 -0.4224 -0.0000
s 0
f 379//216 380//216 377//216
f 379//216 377//216 378//216
f 381//217 382//217 372//217
f 381//217 372//217 371//217
f 370//217 371//217 372//217
f 375//216 376//216 373//216
f 375//216 373//216 374//216
o Gun_01_havok_s_armor_1_0
v -0.559829 2.021118 -1.460313
v -0.491563 1.882354 -1.452137
v -0.371571 2.135693 -1.657956
v -0.559829 2.164920 -1.505109
v -0.416739 1.860399 -1.455906
v -0.337143 2.039542 -1.657956
v -0.267313 1.969447 -1.657956
v -0.202527 1.944945 -1.657956
v -0.371571 2.368957 -1.657956
v -0.559829 2.452727 -1.465032
v -0.371571 2.251015 -1.657956
v 0.416738 1.860399 -1.448302
v 0.202527 1.944945 -1.657956
v 0.000000 1.944945 -1.657956
v 0.371570 2.135693 -1.657956
v 0.491564 1.882354 -1.444533
v 0.559828 2.021118 -1.452709
v 0.559828 2.164920 -1.497505
v 0.337143 2.039542 -1.657956
v 0.267313 1.969447 -1.657956
v 0.559828 2.452727 -1.457428
v 0.371570 2.368957 -1.657956
v 0.371570 2.251015 -1.657956
v 0.416738 2.778818 -1.316118
v -0.416739 2.778818 -1.323722
v 0.190729 2.545729 -1.657956
v 0.000000 2.545729 -1.657956
v -0.190729 2.545729 -1.657956
v 0.543190 2.704451 -1.322090
v 0.349120 2.447861 -1.657956
v 0.559828 2.618026 -1.355629
v 0.283404 2.514315 -1.657956
v -0.543190 2.704451 -1.329694
v -0.349120 2.447861 -1.657956
v -0.559829 2.618026 -1.363234
v -0.283404 2.514315 -1.657956
v 0.114457 2.387208 -1.898447
v -0.185196 2.169497 -1.898447
v -0.157537 2.115213 -1.898447
v -0.114458 2.072133 -1.898447
v -0.060174 2.044475 -1.898447
v 0.000000 2.034943 -1.898447
v 0.060174 2.044475 -1.898447
v -0.185196 2.289845 -1.898447
v -0.194727 2.229671 -1.898447
v -0.157537 2.344128 -1.898447
v -0.114458 2.387208 -1.898447
v 0.060174 2.414867 -1.898447
v 0.000000 2.424398 -1.898447
v -0.060174 2.414867 -1.898447
v 0.157537 2.115213 -1.898447
v 0.185196 2.169497 -1.898447
v 0.114457 2.072133 -1.898447
v 0.194726 2.229671 -1.898447
v 0.185196 2.289845 -1.898447
v 0.157537 2.344128 -1.898447
vn -0.0000 -0.0000 1.0000
vn 0.6609 -0.1880 0.7265
vn 0.6122 -0.4054 0.6789
vn 0.3395 -0.6331 0.6956
vn 0.2413 -0.7118 0.6596
vn 0.5444 -0.5384 0.6432
vn 0.7097 -0.3694 0.5999
vn 0.6303 -0.0000 0.7763
vn -0.0000 0.9274 0.3740
vn -0.0035 0.9238 0.3829
vn -0.2374 0.6922 0.6816
vn -0.6896 0.2469 0.6808
vn -0.5937 0.3352 0.7316
vn -0.6520 0.2255 0.7239
vn 0.6779 0.2427 0.6940
vn 0.2344 0.6797 0.6950
vn 0.5808 0.3296 0.7443
vn 0.6347 0.2298 0.7378
vn 0.6901 -0.0998 0.7168
vn 0.5253 0.5233 0.6709
vn 0.2808 0.7424 0.6083
vn -0.3438 -0.6398 0.6874
vn -0.6438 -0.3814 0.6634
vn -0.0000 -0.8202 0.5720
vn -0.2436 -0.7188 0.6512
vn -0.5494 -0.5433 0.6347
vn -0.5587 -0.4349 0.7062
vn -0.7422 -0.2112 0.6361
vn -0.6719 -0.1021 0.7336
vn -0.7291 -0.0000 0.6844
vn -0.2845 0.7524 0.5941
vn -0.5339 0.5319 0.6572
vn -0.0052 -0.8246 0.5657
vn -0.6487 -0.0000 0.7611
s 0
f 423//218 419//218 422//218
f 421//218 422//218 419//218
f 421//218 419//218 420//218
f 419//218 426//218 427//218
f 419//218 427//218 420//218
f 424//218 425//218 419//218
f 424//218 419//218 423//218
f 392//219 391//219 416//219
f 415//220 392//220 416//220
f 415//221 416//221 407//221
f 418//222 410//222 407//222
f 418//223 407//223 416//223
f 415//224 417//224 392//224
f 438//218 419//218 437//218
f 436//218 437//218 419//218
f 436//218 419//218 434//218
f 386//225 385//225 393//225
f 435//218 419//218 425//218
f 431//218 432//218 419//218
f 431//218 419//218 430//218
f 419//218 429//218 428//218
f 419//218 428//218 426//218
f 419//218 435//218 433//218
f 419//218 433//218 434//218
f 429//218 419//218 432//218
f 394//226 395//226 396//226
f 394//226 396//226 390//226
f 387//227 394//227 390//227
f 401//228 394//228 398//228
f 401//229 398//229 397//229
f 397//230 398//230 399//230
f 397//231 399//231 400//231
f 388//232 385//232 384//232
f 388//233 384//233 387//233
f 383//234 384//234 385//234
f 383//235 385//235 386//235
f 391//236 392//236 386//236
f 391//225 386//225 393//225
f 389//237 388//237 387//237
f 389//238 387//238 390//238
f 411//239 406//239 412//239
f 411//240 412//240 413//240
f 407//241 410//241 409//241
f 407//241 409//241 408//241
f 406//242 408//242 414//242
f 406//243 414//243 412//243
f 404//244 403//244 413//244
f 404//245 413//245 412//245
f 405//246 400//246 403//246
f 405//247 403//247 404//247
f 402//248 395//248 394//248
f 402//249 394//249 401//249
f 406//250 407//250 408//250
f 405//251 397//251 400//251
o Gun_01_havok_s_armor_2_1
v 0.000000 1.944945 -1.657956
v 0.202527 1.944945 -1.657956
v 0.076580 1.993981 -1.855563
v 0.000000 1.981852 -1.855563
v 0.145664 2.029181 -1.855563
v -0.076580 1.993981 -1.855563
v -0.202528 1.944945 -1.657956
v -0.145665 2.029181 -1.855563
v -0.267313 1.969447 -1.657956
v -0.200490 2.084006 -1.855563
v -0.337144 2.039542 -1.657956
v -0.235690 2.153090 -1.855563
v -0.371570 2.135693 -1.657956
v -0.247819 2.229671 -1.855563
v -0.371570 2.251015 -1.657956
v -0.235690 2.306251 -1.855563
v -0.371570 2.368957 -1.657956
v -0.200490 2.375336 -1.855563
v 0.267313 1.969447 -1.657956
v 0.200489 2.084006 -1.855563
v 0.337143 2.039542 -1.657956
v 0.235689 2.153090 -1.855563
v 0.371570 2.135693 -1.657956
v 0.235689 2.306251 -1.855563
v 0.247819 2.229671 -1.855563
v 0.371570 2.251015 -1.657956
v 0.371570 2.368957 -1.657956
v 0.145664 2.430160 -1.855563
v 0.200489 2.375336 -1.855563
v 0.283403 2.514314 -1.657956
v 0.190729 2.545729 -1.657956
v 0.076580 2.465361 -1.855563
v 0.000000 2.545728 -1.657956
v -0.000000 2.477490 -1.855563
v 0.349120 2.447860 -1.657956
v -0.349120 2.447860 -1.657956
v -0.283404 2.514314 -1.657956
v -0.145665 2.430160 -1.855563
v -0.190730 2.545729 -1.657956
v -0.076580 2.465361 -1.855563
vn -0.5538 -0.5538 0.6218
vn -0.2720 -0.8024 0.5313
vn -0.0000 -0.9263 0.3767
vn -0.1481 -0.9348 0.3228
vn -0.3851 -0.7557 0.5298
vn -0.7796 0.2791 0.5606
vn -0.7237 0.3687 0.5834
vn -0.8240 -0.0000 0.5666
vn -0.8336 -0.1320 0.5363
vn -0.8118 0.1286 0.5696
vn -0.8475 -0.0000 0.5308
vn 0.5538 -0.5538 0.6218
vn 0.2720 -0.8024 0.5313
vn 0.1481 -0.9348 0.3228
vn 0.3851 -0.7557 0.5298
vn -0.7423 -0.2112 0.6359
vn -0.5572 -0.5510 0.6213
vn -0.7105 -0.3620 0.6034
vn 0.7423 -0.2112 0.6359
vn 0.5572 -0.5510 0.6213
vn 0.4044 0.7936 0.4546
vn 0.3163 0.8364 0.4476
vn 0.5931 0.5931 0.5444
vn 0.5943 0.5921 0.5442
vn -0.0000 0.9706 0.2408
vn -0.1538 0.9713 0.1814
vn -0.4044 0.7936 0.4546
vn 0.1538 0.9713 0.1814
vn 0.7105 -0.3620 0.6034
vn -0.3163 0.8364 0.4476
vn -0.5931 0.5931 0.5444
vn -0.5943 0.5921 0.5442
vn 0.7796 0.2791 0.5606
vn 0.7237 0.3687 0.5834
vn 0.8118 0.1286 0.5696
vn 0.8475 -0.0000 0.5308
vn 0.8240 -0.0000 0.5666
vn 0.8336 -0.1320 0.5363
s 0
f 466//252 467//252 468//252
f 466//253 468//253 469//253
f 470//254 469//254 471//254
f 470//255 471//255 472//255
f 470//256 466//256 469//256
f 459//257 461//257 460//257
f 459//258 460//258 458//258
f 464//259 465//259 462//259
f 464//260 462//260 463//260
f 463//261 460//261 461//261
f 463//262 461//262 464//262
f 475//263 456//263 476//263
f 475//264 476//264 477//264
f 478//265 472//265 471//265
f 478//254 471//254 477//254
f 476//266 478//266 477//266
f 467//267 465//267 473//267
f 467//268 473//268 468//268
f 462//269 465//269 467//269
f 474//270 455//270 456//270
f 474//271 456//271 475//271
f 444//272 446//272 445//272
f 447//273 445//273 446//273
f 447//274 446//274 448//274
f 448//275 449//275 447//275
f 439//276 440//276 441//276
f 439//277 441//277 442//277
f 443//278 441//278 440//278
f 439//279 442//279 444//279
f 439//276 444//276 445//276
f 454//280 456//280 455//280
f 443//281 440//281 457//281
f 443//282 457//282 458//282
f 457//283 459//283 458//283
f 450//284 451//284 449//284
f 450//285 449//285 448//285
f 451//286 450//286 452//286
f 451//287 452//287 453//287
f 454//288 455//288 453//288
f 454//289 453//289 452//289
o Gun_01_havok_s_armor_5_2
v -0.559829 2.452727 -1.465032
v -0.557328 2.475830 -1.361176
v -0.557328 2.163408 -1.421318
v -0.559829 2.164920 -1.505109
v -0.559829 2.618026 -1.363233
v -0.557329 2.616794 -1.321081
v -0.489368 1.884407 -1.419119
v -0.491563 1.882354 -1.452137
v -0.559829 2.021118 -1.460313
v -0.557329 2.022551 -1.427293
v -0.540765 2.702835 -1.296666
v -0.543190 2.704451 -1.329694
v -0.416739 2.778818 -1.323722
v -0.414878 2.776870 -1.290694
v 0.540765 2.702835 -1.296666
v 0.414878 2.776870 -1.290694
v 0.416738 2.778818 -1.316118
v 0.543190 2.704451 -1.322090
v 0.559828 2.618026 -1.355629
v 0.557329 2.616794 -1.321081
v 0.559828 2.452727 -1.457428
v 0.559828 2.164920 -1.497505
v 0.557328 2.163408 -1.421318
v 0.557328 2.475830 -1.361176
v 0.557329 2.022551 -1.427293
v 0.559828 2.021118 -1.452709
v -0.414877 1.862549 -1.422888
v 0.414878 1.862549 -1.422888
v 0.416738 1.860399 -1.448302
v -0.416739 1.860399 -1.455906
v 0.491564 1.882354 -1.444533
v 0.489368 1.884407 -1.419119
vn -0.9949 -0.0300 -0.0962
vn -0.9995 0.0014 -0.0328
vn -0.9996 0.0079 -0.0279
vn -0.9966 0.0435 -0.0706
vn 0.0007 -0.9971 -0.0764
vn -0.0000 -0.9983 -0.0589
vn -0.9996 0.0052 -0.0272
vn -0.9995 0.0046 -0.0327
vn -0.8942 0.4333 -0.1122
vn -0.8942 0.4333 -0.1124
vn -0.2754 0.9560 -0.1010
vn -0.2754 0.9560 -0.1011
vn 0.0006 0.9979 -0.0650
vn -0.0000 0.9964 -0.0843
vn 0.2771 0.9577 -0.0780
vn 0.8959 0.4356 -0.0867
vn 0.8959 0.4357 -0.0866
vn 0.9970 -0.0232 -0.0745
vn 0.9996 0.0013 -0.0298
vn 0.9995 0.0041 -0.0298
vn 0.9997 0.0048 -0.0251
vn 0.9977 0.0358 -0.0581
vn 0.9996 0.0073 -0.0257
vn -0.5079 -0.8553 -0.1028
vn -0.5079 -0.8553 -0.1027
vn -0.9829 -0.1673 -0.0771
vn -0.9834 -0.1492 -0.1033
vn 0.5081 -0.8576 -0.0792
vn 0.5081 -0.8576 -0.0793
vn 0.9841 -0.1584 -0.0800
vn 0.9832 -0.1713 -0.0633
s 0
f 500//290 504//290 503//290
f 500//291 503//291 501//291
f 499//292 502//292 498//292
f 499//293 498//293 497//293
f 491//294 495//294 494//294
f 491//295 494//295 492//295
f 501//296 502//296 499//296
f 501//297 499//297 500//297
f 504//298 509//298 510//298
f 504//299 510//299 503//299
f 506//300 510//300 509//300
f 506//301 509//301 507//301
f 507//302 508//302 505//302
f 507//303 505//303 506//303
f 505//304 508//304 486//304
f 505//304 486//304 485//304
f 487//305 488//305 485//305
f 487//306 485//306 486//306
f 488//307 487//307 482//307
f 488//308 482//308 481//308
f 481//309 482//309 479//309
f 481//310 479//310 480//310
f 479//311 483//311 484//311
f 479//312 484//312 480//312
f 495//313 496//313 493//313
f 495//314 493//314 494//314
f 497//315 498//315 493//315
f 497//316 493//316 496//316
f 491//317 492//317 489//317
f 491//318 489//318 490//318
f 483//319 490//319 489//319
f 483//320 489//320 484//320
o Gun_01_havok_s_gun_3
v 0.095537 2.130082 -2.670169
v 0.095537 2.326581 -2.670169
v 0.077486 2.307343 -5.470407
v 0.077486 2.149319 -5.470407
v -0.098590 2.326581 -2.670169
v -0.098590 2.130082 -2.670169
v -0.080692 2.149319 -5.470407
v -0.080845 2.307343 -5.470407
v 0.096455 2.326275 -5.470407
v 0.096455 2.130387 -5.470407
v -0.099814 2.326275 -5.470407
v 0.132098 2.362308 -2.563831
v -0.135151 2.362308 -2.563831
v 0.132098 2.094355 -2.563831
v -0.135151 2.094355 -2.563831
v 0.150609 2.375133 0.017824
v -0.153814 2.375133 0.017824
v 0.150609 2.141380 0.017824
v -0.153814 2.141380 0.017824
v 0.154892 2.384599 -5.842591
v 0.154892 2.072063 -5.842591
v 0.096455 2.130387 -5.671268
v 0.096455 2.326275 -5.671268
v 0.115883 2.345665 -5.842591
v 0.115883 2.110997 -5.842591
v -0.157792 2.072063 -5.842591
v -0.099508 2.130387 -5.671268
v -0.118936 2.110997 -5.842591
v -0.099814 2.326275 -5.671268
v -0.158251 2.384599 -5.842591
v -0.099508 2.130387 -5.470407
v 0.115883 2.110997 -6.025729
v -0.118936 2.110997 -6.025729
v 0.115883 2.345665 -6.025729
v -0.119242 2.345665 -6.025729
v -0.119242 2.345665 -5.842591
vn -0.0000 -0.0000 -1.0000
vn 1.0000 0.0016 -0.0000
vn -0.0000 1.0000 -0.0000
vn -0.0000 -0.0000 1.0000
vn -0.0000 0.9466 -0.3223
vn -0.0000 -0.9466 -0.3223
vn 0.9466 0.0014 -0.3224
vn 0.9466 0.0015 -0.3225
vn -1.0000 -0.0000 -0.0000
vn 1.0000 0.0013 -0.0000
vn -0.0000 -1.0000 -0.0000
vn -0.0000 0.9479 0.3185
vn -0.0000 -0.9479 0.3185
vn 1.0000 0.0010 0.0063
vn 1.0000 -0.0000 0.0064
vn -1.0000 -0.0000 0.0064
vn -0.0000 -1.0000 0.0069
vn -0.0000 1.0000 0.0069
vn -0.9457 -0.0000 0.3251
vn -1.0000 -0.0000 0.0072
vn -0.0000 0.9998 -0.0182
vn -0.9465 -0.0000 -0.3228
vn -0.0000 -1.0000 0.0050
vn 0.9457 -0.0000 0.3251
vn 1.0000 -0.0000 0.0072
s 0
f 541//321 521//321 518//321
f 541//321 518//321 517//321
f 521//322 541//322 537//322
f 521//322 537//322 539//322
f 532//323 537//323 541//323
f 532//323 541//323 520//323
f 520//321 541//321 517//321
f 520//321 517//321 514//321
f 535//324 538//324 536//324
f 535//324 536//324 531//324
f 531//325 536//325 537//325
f 531//325 537//325 532//325
f 533//326 539//326 540//326
f 533//326 540//326 530//326
f 536//327 540//327 539//327
f 536//328 539//328 537//328
f 533//329 532//329 520//329
f 533//329 520//329 519//329
f 538//324 546//324 540//324
f 538//324 540//324 536//324
f 543//330 545//330 546//330
f 543//330 546//330 538//330
f 530//324 540//324 546//324
f 530//324 546//324 534//324
f 534//331 546//331 545//331
f 534//331 545//331 544//331
f 542//323 543//323 538//323
f 542//323 538//323 535//323
f 539//331 533//331 519//331
f 539//331 519//331 521//331
f 544//324 545//324 543//324
f 544//324 543//324 542//324
f 544//329 542//329 535//329
f 544//329 535//329 534//329
f 521//321 519//321 513//321
f 521//321 513//321 518//321
f 519//321 520//321 514//321
f 519//321 514//321 513//321
f 516//332 525//332 524//332
f 516//332 524//332 511//332
f 512//333 522//333 523//333
f 512//333 523//333 515//333
f 517//334 518//334 515//334
f 517//335 515//335 516//335
f 513//336 514//336 511//336
f 513//336 511//336 512//336
f 515//337 518//337 513//337
f 515//337 513//337 512//337
f 517//338 516//338 511//338
f 517//338 511//338 514//338
f 524//339 522//339 512//339
f 524//339 512//339 511//339
f 524//340 528//340 526//340
f 524//340 526//340 522//340
f 525//341 529//341 528//341
f 525//341 528//341 524//341
f 534//324 535//324 531//324
f 534//324 531//324 530//324
f 532//342 533//342 530//342
f 532//342 530//342 531//342
f 526//343 527//343 523//343
f 526//343 523//343 522//343
f 523//344 525//344 516//344
f 523//344 516//344 515//344
f 527//345 529//345 525//345
f 527//345 525//345 523//345
f 526//321 528//321 529//321
f 526//321 529//321 527//321
o Gun_01_havok_s_armor_3_4
v 0.557329 2.475830 -1.361176
v 0.557328 2.163408 -1.421318
v 0.543639 2.162963 -1.405713
v 0.546073 2.476896 -1.345966
v 0.557329 2.616794 -1.321081
v 0.541703 2.619961 -1.301695
v 0.489368 1.884407 -1.419119
v 0.537277 2.010447 -1.412138
v 0.557329 2.022551 -1.427293
v -0.543639 2.162963 -1.405713
v -0.557329 2.163408 -1.421318
v -0.557329 2.475830 -1.361176
v -0.546073 2.476896 -1.345966
v -0.557329 2.022551 -1.427293
v -0.537277 2.010447 -1.412138
v -0.489368 1.884407 -1.419119
v 0.462503 2.748482 -1.273096
v -0.462460 2.748429 -1.273147
v -0.414878 2.776870 -1.290694
v 0.414877 2.776870 -1.290694
v 0.540765 2.702835 -1.296666
v 0.511349 2.710870 -1.272820
v -0.557329 2.616794 -1.321081
v -0.540266 2.619961 -1.301695
v -0.540765 2.702835 -1.296666
v -0.511393 2.710923 -1.272769
vn -0.6225 0.0404 -0.7815
vn -0.7759 0.0295 -0.6302
vn -0.5074 -0.8615 -0.0164
vn -0.5478 -0.7146 -0.4350
vn -0.0000 -0.5269 -0.8499
vn 0.0001 -0.5252 -0.8510
vn 0.5075 -0.8614 -0.0199
vn 0.5473 -0.7184 -0.4295
vn 0.6218 0.0512 -0.7815
vn 0.7463 0.0448 -0.6641
vn 0.7243 0.1768 -0.6664
vn 0.7866 0.1689 -0.5939
vn 0.6243 0.0589 -0.7790
vn 0.7518 0.0279 -0.6588
vn -0.6833 0.2967 -0.6671
vn -0.7527 0.1735 -0.6351
vn -0.7866 0.1689 -0.5939
vn -0.7941 0.1196 -0.5960
vn -0.7476 0.1256 -0.6522
vn 0.6833 0.2967 -0.6671
vn 0.7941 0.1196 -0.5960
vn 0.7476 0.1256 -0.6522
vn -0.6243 0.0589 -0.7790
vn -0.7518 0.0279 -0.6587
s 0
f 552//346 568//346 567//346
f 552//347 567//347 551//347
f 563//348 566//348 567//348
f 563//349 567//349 568//349
f 565//350 566//350 563//350
f 565//351 563//351 564//351
f 571//352 565//352 564//352
f 571//353 564//353 572//353
f 571//354 572//354 570//354
f 571//355 570//355 569//355
f 569//356 570//356 559//356
f 569//357 559//357 558//357
f 556//358 561//358 560//358
f 556//359 560//359 557//359
f 553//360 554//360 555//360
f 550//361 552//361 551//361
f 550//362 551//362 547//362
f 549//363 550//363 547//363
f 549//364 547//364 548//364
f 560//365 561//365 562//365
f 558//366 559//366 556//366
f 558//367 556//367 557//367
f 555//368 554//368 549//368
f 555//369 549//369 548//369
o Gun_01_havok_s_armor_4_5
v 0.414878 1.862549 -1.422888
v -0.414878 1.862549 -1.422888
v -0.537277 2.010447 -1.412138
v 0.489368 1.884407 -1.419119
v -0.489369 1.884407 -1.419119
v 0.537277 2.010447 -1.412138
v -0.546073 2.476897 -1.345966
v 0.546073 2.476897 -1.345966
v 0.543639 2.162963 -1.405713
v -0.543639 2.162963 -1.405713
v -0.540266 2.619961 -1.301695
v 0.541703 2.619961 -1.301695
v -0.462460 2.748428 -1.273147
v 0.511349 2.710870 -1.272820
v -0.511393 2.710923 -1.272769
v 0.462503 2.748482 -1.273096
vn 0.0121 0.3064 -0.9518
vn -0.0255 0.0231 -0.9994
vn -0.0000 0.2956 -0.9553
vn -0.0000 0.3030 -0.9530
vn 0.0001 -0.0073 -1.0000
vn -0.0000 0.0421 -0.9991
vn -0.0386 0.0406 -0.9984
vn 0.0100 0.1366 -0.9906
vn -0.0000 0.0725 -0.9974
vn -0.0000 0.1870 -0.9824
vn -0.0000 0.0553 -0.9985
s 0
f 585//370 586//370 584//370
f 585//371 584//371 587//371
f 583//372 584//372 580//372
f 583//372 580//372 579//372
f 583//373 587//373 584//373
f 586//374 585//374 588//374
f 582//375 581//375 578//375
f 582//375 578//375 575//375
f 575//376 574//376 577//376
f 575//377 576//377 573//377
f 575//378 573//378 574//378
f 581//379 582//379 579//379
f 581//379 579//379 580//379
f 578//380 576//380 575//380
o Gun_01_havok_s_armor_9_6
v -0.200490 2.084006 -1.855563
v -0.145664 2.029181 -1.855563
v -0.114458 2.072133 -1.898447
v -0.157537 2.115213 -1.898447
v -0.076580 1.993981 -1.855563
v -0.060174 2.044475 -1.898447
v 0.060174 2.044475 -1.898447
v -0.000000 2.034944 -1.898447
v -0.000000 1.981851 -1.855563
v 0.076580 1.993981 -1.855563
v -0.235690 2.153090 -1.855563
v -0.185196 2.169497 -1.898447
v -0.194727 2.229671 -1.898447
v -0.247819 2.229671 -1.855563
v 0.145664 2.029181 -1.855563
v 0.200490 2.084006 -1.855563
v 0.157537 2.115213 -1.898447
v 0.114457 2.072133 -1.898447
v 0.185196 2.169497 -1.898447
v 0.235690 2.153090 -1.855563
v -0.145664 2.430160 -1.855563
v -0.200490 2.375335 -1.855563
v -0.157537 2.344128 -1.898447
v -0.114458 2.387208 -1.898447
v -0.060174 2.414867 -1.898447
v -0.076580 2.465360 -1.855563
v -0.185196 2.289845 -1.898447
v -0.235690 2.306251 -1.855563
v -0.000000 2.477490 -1.855563
v -0.000000 2.424398 -1.898447
v 0.060174 2.414867 -1.898447
v 0.076580 2.465360 -1.855563
v 0.145664 2.430160 -1.855563
v 0.114457 2.387208 -1.898447
v 0.200490 2.375335 -1.855563
v 0.157537 2.344128 -1.898447
v 0.235690 2.306251 -1.855563
v 0.185196 2.289845 -1.898447
v 0.247819 2.229671 -1.855563
v 0.194726 2.229671 -1.898447
vn 0.0990 -0.6253 0.7741
vn -0.0990 -0.6253 0.7741
vn 0.6253 -0.0990 0.7741
vn 0.2874 -0.5641 0.7741
vn 0.5641 -0.2874 0.7741
vn -0.6253 -0.0990 0.7741
vn -0.6253 0.0990 0.7741
vn -0.5641 -0.2874 0.7741
vn -0.2874 -0.5641 0.7741
vn -0.4476 -0.4476 0.7741
vn 0.0990 0.6253 0.7741
vn 0.5641 0.2874 0.7741
vn -0.0990 0.6253 0.7741
vn 0.4476 0.4476 0.7741
vn 0.2874 0.5641 0.7741
vn -0.5641 0.2874 0.7741
vn 0.4476 -0.4476 0.7741
vn -0.2874 0.5641 0.7741
vn 0.6253 0.0990 0.7741
vn -0.4476 0.4476 0.7741
s 0
f 613//381 618//381 617//381
f 613//381 617//381 614//381
f 618//382 619//382 620//382
f 618//382 620//382 617//382
f 601//383 615//383 616//383
f 601//383 616//383 602//383
f 612//384 613//384 614//384
f 612//384 614//384 609//384
f 610//385 616//385 615//385
f 610//385 615//385 611//385
f 626//386 628//386 627//386
f 626//386 627//386 625//386
f 608//387 627//387 628//387
f 608//387 628//387 607//387
f 624//388 626//388 625//388
f 624//388 625//388 623//388
f 619//389 622//389 621//389
f 619//389 621//389 620//389
f 622//390 624//390 623//390
f 622//390 623//390 621//390
f 593//391 597//391 596//391
f 593//391 596//391 594//391
f 592//392 600//392 599//392
f 592//392 599//392 589//392
f 597//393 598//393 595//393
f 597//393 595//393 596//393
f 591//394 592//394 589//394
f 591//394 589//394 590//394
f 590//395 593//395 594//395
f 590//395 594//395 591//395
f 604//396 608//396 607//396
f 604//396 607//396 605//396
f 611//397 612//397 609//397
f 611//397 609//397 610//397
f 598//398 603//398 606//398
f 598//398 606//398 595//398
f 600//399 601//399 602//399
f 600//399 602//399 599//399
f 605//400 606//400 603//400
f 605//400 603//400 604//400
