# Blender 5.1.0
# www.blender.org
o Chassis_havok_s_leftTrack_0
v -1.703887 1.069104 2.074775
v -1.703887 0.005000 2.853681
v -1.703887 0.005000 -2.850185
v -1.703887 1.141523 -2.598663
v -1.064031 0.005000 2.853681
v -1.064031 0.005000 -2.850185
v -0.999701 1.141523 -2.598663
v -0.999701 1.069104 2.074775
v -1.703887 1.209375 3.681269
v -1.703887 0.020006 2.967272
v -0.999701 1.209375 3.681269
v -0.999701 0.456478 -3.904953
v -0.999701 1.140871 3.916564
v -0.999701 0.726581 4.143745
v -0.999701 0.964064 4.086950
v -0.999701 1.340513 -3.572296
v -1.064031 0.445386 4.022041
v -1.064031 0.445386 -3.880613
v -1.064031 0.064371 -3.077366
v -1.064031 0.020006 -2.963776
v -1.064031 0.324036 3.900337
v -1.064031 0.020006 2.967272
v -0.999701 0.492361 4.078836
v -0.999701 0.456478 4.038268
v -1.703887 0.324036 3.900337
v -1.703887 0.492361 4.078836
v -1.703887 0.726581 4.143745
v -1.703887 0.964064 4.086950
v -1.703887 1.140871 3.916564
v -1.703887 1.340513 -3.572296
v -1.703887 0.020006 -2.963776
v -1.703887 0.064371 -3.077366
v -1.703887 0.456478 -3.904953
v -0.999701 1.340513 -3.823818
v -0.999701 1.217204 -4.034771
v -0.999701 1.004514 -4.156476
v -0.999701 0.545860 -4.034771
v -0.999701 0.758550 -4.156476
v -1.703887 1.340513 -3.823818
v -1.703887 1.217204 -4.034771
v -1.703887 1.004514 -4.156476
v -1.703887 0.545860 -4.034771
v -1.703887 0.758550 -4.156476
vn -0.0000 0.9914 0.1310
vn -0.0000 0.9315 0.3638
vn -0.0000 -0.9797 -0.2002
vn -1.0000 -0.0000 -0.0000
vn -0.0006 0.9037 0.4282
vn -0.0000 0.9035 0.4286
vn -0.0000 -0.9601 -0.2795
vn -0.0000 -0.6939 -0.7201
vn 1.0000 -0.0000 -0.0000
vn -0.0000 0.8236 0.5671
vn -0.0000 0.4967 0.8679
vn -0.0000 0.4967 0.8680
vn -0.0000 0.9100 0.4146
vn -0.0000 -0.0000 1.0000
vn -0.0000 -0.4967 0.8680
vn -0.0000 -0.4967 0.8679
vn -0.0000 -1.0000 -0.0000
vn -0.0000 -0.8633 0.5046
vn -0.0000 1.0000 -0.0000
vn -0.0000 -0.9999 -0.0155
vn -0.0000 -0.9962 0.0870
vn -0.0000 -0.2326 -0.9726
vn -0.0000 0.2671 -0.9637
vn -0.0000 0.7275 -0.6861
vn -0.0325 0.7879 -0.6149
vn -0.0000 0.7081 -0.7061
vn 0.0380 0.7485 -0.6620
vn -0.1699 0.9855 -0.0000
vn -0.0000 0.9914 -0.1310
vn -0.0000 0.9508 -0.3098
s 0
f 6//1 20//1 31//1
f 6//1 31//1 3//1
f 32//2 31//2 20//2
f 32//2 20//2 19//2
f 30//3 16//3 7//3
f 30//3 7//3 4//3
f 36//4 37//4 12//4
f 36//4 12//4 35//4
f 34//4 35//4 12//4
f 34//4 12//4 16//4
f 18//5 33//5 32//5
f 18//6 32//6 19//6
f 11//7 13//7 29//7
f 11//7 29//7 9//7
f 15//8 28//8 29//8
f 15//8 29//8 13//8
f 4//9 3//9 30//9
f 32//9 33//9 30//9
f 31//9 32//9 30//9
f 31//9 30//9 3//9
f 12//10 37//10 42//10
f 12//10 42//10 33//10
f 43//11 42//11 37//11
f 43//12 37//12 38//12
f 12//13 33//13 18//13
f 41//14 43//14 38//14
f 41//14 38//14 36//14
f 40//15 41//15 36//15
f 40//16 36//16 35//16
f 30//17 39//17 34//17
f 30//17 34//17 16//17
f 33//9 40//9 39//9
f 33//9 39//9 30//9
f 37//4 36//4 38//4
f 33//9 42//9 41//9
f 33//9 41//9 40//9
f 39//18 40//18 35//18
f 39//18 35//18 34//18
f 41//9 42//9 43//9
f 25//9 28//9 27//9
f 25//9 27//9 26//9
f 12//4 8//4 7//4
f 12//4 7//4 16//4
f 12//4 14//4 15//4
f 12//4 15//4 13//4
f 19//4 20//4 17//4
f 19//4 17//4 18//4
f 5//4 22//4 21//4
f 5//4 21//4 6//4
f 6//4 21//4 17//4
f 6//4 17//4 20//4
f 12//4 13//4 11//4
f 12//4 11//4 8//4
f 2//19 5//19 6//19
f 2//19 6//19 3//19
f 3//9 4//9 1//9
f 3//9 1//9 2//9
f 7//20 8//20 1//20
f 7//20 1//20 4//20
f 8//21 11//21 9//21
f 8//21 9//21 1//21
f 10//9 2//9 1//9
f 10//9 1//9 9//9
f 14//22 27//22 28//22
f 14//22 28//22 15//22
f 23//23 26//23 27//23
f 23//23 27//23 14//23
f 25//24 26//24 23//24
f 25//25 23//25 17//25
f 29//9 28//9 25//9
f 29//9 25//9 9//9
f 21//26 25//26 17//26
f 25//9 10//9 9//9
f 23//4 12//4 24//4
f 23//27 24//27 17//27
f 23//4 14//4 12//4
f 18//28 17//28 24//28
f 18//28 24//28 12//28
f 2//29 10//29 22//29
f 2//29 22//29 5//29
f 25//30 21//30 22//30
f 25//30 22//30 10//30
o Chassis_havok_s_rightTrack_1
v 1.703887 0.005000 2.853681
v 1.703887 1.069104 2.074775
v 1.703887 1.141523 -2.598663
v 1.703887 0.005000 -2.850185
v 1.703887 0.064371 -3.077366
v 1.703887 0.020006 -2.963776
v 1.064031 0.005000 -2.850185
v 1.064031 0.005000 2.853681
v 0.999701 1.069104 2.074775
v 0.999701 1.141523 -2.598663
v 1.703887 1.209375 3.681269
v 0.999701 1.209375 3.681269
v 0.999701 0.456478 -3.904953
v 0.999701 1.140871 3.916564
v 0.999701 0.964064 4.086950
v 0.999701 0.726581 4.143745
v 0.999701 1.340513 -3.572296
v 1.064031 0.064371 -3.077366
v 1.064031 0.445386 -3.880613
v 1.064031 0.445386 4.022041
v 1.064031 0.020006 -2.963776
v 1.064031 0.324036 3.900337
v 1.064031 0.020006 2.967272
v 0.999701 0.492361 4.078836
v 0.999701 0.456478 4.038268
v 1.703887 0.020006 2.967272
v 1.703887 0.324036 3.900337
v 1.703887 0.726581 4.143745
v 1.703887 0.492361 4.078836
v 1.703887 0.964064 4.086950
v 1.703887 1.140871 3.916564
v 1.703887 1.340513 -3.572296
v 1.703887 0.456478 -3.904953
v 0.999701 1.340513 -3.823818
v 0.999701 1.217204 -4.034771
v 0.999701 1.004514 -4.156476
v 0.999701 0.545860 -4.034771
v 0.999701 0.758550 -4.156476
v 1.703887 1.340513 -3.823818
v 1.703887 0.545860 -4.034771
v 1.703887 1.217204 -4.034771
v 1.703887 1.004514 -4.156476
v 1.703887 0.758550 -4.156476
vn -0.0000 0.9914 0.1310
vn -0.0000 0.9315 0.3638
vn -0.0000 -0.9797 -0.2002
vn 1.0000 -0.0000 -0.0000
vn 0.0006 0.9037 0.4282
vn -0.0000 0.9035 0.4286
vn -1.0000 -0.0000 -0.0000
vn -0.0000 -0.6939 -0.7201
vn -0.0000 -0.9601 -0.2795
vn -0.0000 0.8236 0.5671
vn -0.0000 0.4967 0.8679
vn -0.0000 0.4967 0.8680
vn -0.0000 0.9100 0.4146
vn -0.0000 -0.0000 1.0000
vn -0.0000 -0.4967 0.8680
vn -0.0000 -0.4967 0.8679
vn -0.0000 -1.0000 -0.0000
vn -0.0000 -0.8633 0.5046
vn -0.0000 -0.9962 0.0870
vn -0.0000 1.0000 -0.0000
vn -0.0000 -0.9999 -0.0155
vn -0.0000 0.2671 -0.9637
vn -0.0000 0.9914 -0.1310
vn -0.0000 -0.2326 -0.9726
vn -0.0000 0.7081 -0.7061
vn -0.0000 0.7275 -0.6861
vn 0.0325 0.7879 -0.6149
vn -0.0000 0.9508 -0.3098
vn -0.0380 0.7485 -0.6620
vn 0.1699 0.9855 -0.0000
s 0
f 49//31 64//31 50//31
f 49//31 50//31 47//31
f 48//32 61//32 64//32
f 48//32 64//32 49//32
f 53//33 60//33 75//33
f 53//33 75//33 46//33
f 56//34 80//34 79//34
f 56//34 79//34 78//34
f 56//34 78//34 77//34
f 56//34 77//34 60//34
f 48//35 76//35 62//35
f 48//36 62//36 61//36
f 71//37 73//37 70//37
f 71//37 70//37 72//37
f 70//37 73//37 74//37
f 70//37 74//37 54//37
f 74//38 73//38 58//38
f 74//38 58//38 57//38
f 75//37 76//37 48//37
f 75//37 48//37 46//37
f 74//39 57//39 55//39
f 74//39 55//39 54//39
f 83//40 80//40 56//40
f 83//40 56//40 76//40
f 80//41 83//41 86//41
f 80//42 86//42 81//42
f 56//43 62//43 76//43
f 81//44 86//44 85//44
f 81//44 85//44 79//44
f 79//45 85//45 84//45
f 79//46 84//46 78//46
f 77//47 82//47 75//47
f 77//47 75//47 60//47
f 75//37 82//37 83//37
f 75//37 83//37 76//37
f 79//34 80//34 81//34
f 84//37 83//37 82//37
f 78//48 84//48 82//48
f 78//48 82//48 77//48
f 85//37 86//37 83//37
f 85//37 83//37 84//37
f 58//34 59//34 56//34
f 58//34 56//34 57//34
f 55//34 57//34 56//34
f 55//34 56//34 52//34
f 53//34 52//34 56//34
f 53//34 56//34 60//34
f 63//34 65//34 50//34
f 63//34 50//34 64//34
f 63//34 64//34 61//34
f 63//34 61//34 62//34
f 54//49 55//49 52//49
f 54//49 52//49 45//49
f 46//37 48//37 49//37
f 46//37 49//37 47//37
f 46//37 47//37 44//37
f 46//37 44//37 45//37
f 50//50 51//50 44//50
f 50//50 44//50 47//50
f 45//37 44//37 54//37
f 45//51 52//51 53//51
f 45//51 53//51 46//51
f 71//52 72//52 67//52
f 71//52 67//52 59//52
f 66//53 69//53 44//53
f 66//53 44//53 51//53
f 73//54 71//54 59//54
f 73//54 59//54 58//54
f 65//55 63//55 70//55
f 67//56 72//56 70//56
f 67//57 70//57 63//57
f 70//58 69//58 66//58
f 70//58 66//58 65//58
f 67//34 56//34 59//34
f 65//34 66//34 51//34
f 65//34 51//34 50//34
f 68//34 56//34 67//34
f 68//59 67//59 63//59
f 69//37 70//37 54//37
f 69//37 54//37 44//37
f 68//60 63//60 62//60
f 68//60 62//60 56//60
o Turret_01_havok_s_armor_1_0
v -0.142559 2.288743 1.909185
v 0.000146 2.424903 1.623775
v 0.142851 2.346756 1.909185
vn 0.1869 -0.9197 -0.3453
s 0
f 87//61 88//61 89//61
o Hull_havok_s_armor_14_0
v 0.835748 1.218395 4.224155
v 1.431611 1.218395 4.224155
v 1.431611 1.446415 3.951651
v 1.431611 1.446415 3.502019
v 0.590968 1.263281 5.661615
v 0.590968 0.631286 5.457237
v 0.756019 1.263281 5.661615
v 0.756019 0.631286 5.457237
v 0.756019 0.774921 5.661615
v -1.431611 1.218395 4.224155
v -1.431611 1.446415 3.951651
v -0.835748 1.218395 4.224155
v -0.592367 0.631286 5.457237
v -0.592367 0.774921 5.661615
v -0.592367 1.263281 5.661615
v -0.757418 0.631286 5.457237
v -0.757418 1.263281 5.661615
v -0.757418 0.774921 5.661615
v 0.879109 1.189668 5.954557
v 0.879109 1.477536 5.838743
v 0.775602 1.477536 5.838743
v 0.775602 1.365621 5.954557
v 0.775602 1.189668 5.954557
v 0.879109 1.365621 5.954557
v 0.590968 0.774921 5.661615
v -0.879109 1.477536 5.838743
v -0.879109 1.365621 5.954557
v -0.879109 1.189668 5.954557
v -0.775602 1.189668 5.954557
v -0.775602 1.365621 5.954557
v -0.775602 1.477536 5.838743
v 0.835748 1.446415 3.502019
v 0.835748 1.446415 3.951651
v 1.431611 1.218395 -1.014740
v 1.431611 1.815677 -1.014740
v -1.431611 1.815677 -1.014740
v -1.431611 1.446415 3.502019
v -1.431611 1.218395 2.507378
v 0.835748 0.590590 -1.014740
v -0.835748 0.590590 -1.014740
v -0.835748 1.446415 3.951651
v -0.835748 1.218395 2.507378
v -0.835748 1.446415 3.502019
v 0.835748 1.218395 2.507378
v 1.431611 1.218395 2.507378
v 0.835665 0.590591 4.897751
v 0.835665 1.165782 4.897751
v 0.835665 1.218341 5.306724
v 0.835665 1.165782 5.306724
v 0.908929 0.798787 5.306724
v 0.908929 0.590591 4.897751
v 0.908929 1.165782 4.897751
v 0.908929 1.165782 5.306724
v 1.431611 1.218340 5.306724
v 1.431611 1.783813 5.306724
v 0.591190 0.631330 3.367090
v 0.591190 1.263409 3.367090
v 0.756662 1.263409 3.367090
v 0.756662 0.631330 3.367090
v -1.431611 1.218340 5.306724
v -1.431611 1.783813 5.306724
v -0.835666 1.218341 5.306724
v -0.835666 1.165782 4.897751
v -0.835666 1.165782 5.306724
v -0.591956 1.263409 3.367090
v -0.591956 0.631330 3.367090
v -0.757429 0.631330 3.367090
v -0.757429 1.263409 3.367090
v -0.879759 1.754402 5.726908
v 0.879761 1.754402 5.726908
v 0.775880 1.616933 5.783082
v -0.775880 1.616933 5.783082
v 0.879761 1.754402 5.417974
v 0.879761 0.961079 5.650157
v 0.879761 0.961079 5.417974
v 0.775880 0.961079 5.650157
v 0.775880 0.961079 5.417974
v 0.775880 1.616933 5.417974
v -0.879759 0.961079 5.417974
v -0.879759 1.754402 5.417974
v -0.879759 0.961079 5.650157
v -0.775880 0.961079 5.650157
v -0.775880 1.616933 5.417974
v -0.775880 0.961079 5.417974
v -0.908929 0.798787 5.306724
v -0.908929 1.165782 5.306724
v -0.908929 1.165782 4.897751
v -0.908929 0.590591 4.897751
v -0.561011 1.903167 3.982567
v 0.569290 1.903166 3.982567
v 0.569290 1.637475 3.997205
v -0.561011 1.637475 3.997205
v 0.569290 2.276258 1.889197
v 0.569290 2.242871 1.653669
v 0.569290 1.909261 1.269557
v 0.569290 2.005471 2.355640
v -0.561011 2.276258 1.889197
v -0.561011 2.005471 2.355640
v -0.561011 1.909261 1.269557
v -0.561011 2.242872 1.653669
v 0.569290 1.993710 2.394930
v 0.569290 1.386035 -0.140167
v -0.561011 1.386035 -0.140167
v -0.561011 1.993710 2.394930
v 1.473834 1.815677 -1.043039
v 1.473834 1.783813 5.306724
v -1.473834 1.783813 5.306724
v -1.473834 1.815677 -1.043039
v -0.561011 1.610759 -0.175490
v -0.561011 1.885678 1.219093
v 0.569290 1.610759 -0.175490
v 0.569290 1.885678 1.219093
v -1.431611 1.218339 -1.014739
v 0.835665 1.218339 -1.014739
v -0.835666 0.590591 4.897751
v -0.835666 1.218339 -1.014739
vn -0.0034 -1.0000 -0.0050
vn -0.0000 -1.0000 -0.0050
vn -1.0000 -0.0000 -0.0000
vn 1.0000 -0.0000 -0.0000
vn 0.0034 -1.0000 -0.0050
vn -0.0000 -0.0000 -1.0000
vn 0.0115 -0.3708 -0.9286
vn -0.0000 -0.3745 -0.9272
vn -0.0000 -0.7191 -0.6949
vn -1.0000 0.0004 0.0004
vn -1.0000 -0.0000 0.0009
vn -1.0000 -0.0007 0.0033
vn -0.0000 -1.0000 -0.0000
vn -0.0000 -0.0550 -0.9985
vn 1.0000 -0.0001 -0.0000
vn -0.0000 -0.7669 -0.6417
vn -0.0000 -0.9747 0.2235
vn 1.0000 0.0001 -0.0000
vn 0.0001 -1.0000 -0.0000
vn -1.0000 0.0001 -0.0000
vn -1.0000 -0.0006 0.0001
vn 1.0000 -0.0013 -0.0011
vn -0.0000 0.7996 -0.6005
vn -1.0000 -0.0016 -0.0000
vn -1.0000 -0.0000 0.0001
vn -1.0000 -0.0000 -0.0002
vn -1.0000 0.0002 -0.0001
vn -0.0000 -1.0000 -0.0001
vn -0.0000 1.0000 -0.0000
vn -0.0000 -0.3783 -0.9257
vn 1.0000 -0.0000 0.0001
vn 1.0000 -0.0006 0.0001
vn -1.0000 -0.0000 -0.0003
vn -1.0000 0.0003 -0.0002
vn -0.0058 -0.3745 -0.9272
vn -0.0000 -0.3708 -0.9287
vn 1.0000 0.0005 -0.0000
vn -1.0000 0.0024 -0.0000
vn 1.0000 -0.0000 -0.0021
vn 1.0000 -0.0009 -0.0009
vn 1.0000 -0.0013 -0.0000
vn -0.0000 0.8182 -0.5750
vn 1.0000 0.0012 -0.0030
vn 1.0000 -0.0000 0.0009
vn 1.0000 0.0004 0.0004
vn -1.0000 -0.0005 -0.0018
vn -1.0000 -0.0008 -0.0021
vn 1.0000 -0.0012 0.0021
s 0
f 124//62 194//62 195//62
f 124//63 195//63 144//63
f 125//64 126//64 100//64
f 125//64 100//64 150//64
f 123//65 124//65 144//65
f 123//65 144//65 93//65
f 179//64 190//64 191//64
f 179//64 191//64 180//64
f 192//65 193//65 178//65
f 192//65 178//65 181//65
f 191//64 190//64 185//64
f 191//64 185//64 200//64
f 185//64 184//64 201//64
f 185//64 201//64 200//64
f 199//65 188//65 187//65
f 199//65 187//65 198//65
f 196//66 197//66 125//66
f 196//63 125//63 150//63
f 187//65 193//65 192//65
f 187//65 192//65 198//65
f 119//67 118//67 117//67
f 119//67 117//67 116//67
f 158//68 161//68 120//68
f 158//69 120//69 115//69
f 120//70 119//70 116//70
f 120//70 116//70 115//70
f 119//71 120//71 171//71
f 119//72 171//72 118//72
f 161//73 171//73 120//73
f 184//64 185//64 182//64
f 184//64 182//64 183//64
f 188//65 189//65 186//65
f 188//65 186//65 187//65
f 92//74 122//74 121//74
f 92//74 121//74 93//74
f 176//64 177//64 174//64
f 176//64 174//64 175//64
f 180//75 181//75 178//75
f 180//75 178//75 179//75
f 125//64 202//64 127//64
f 125//64 127//64 126//64
f 132//74 130//74 100//74
f 132//74 100//74 126//74
f 133//76 121//76 135//76
f 130//77 101//77 99//77
f 130//77 99//77 100//77
f 131//78 132//78 126//78
f 131//78 126//78 127//78
f 131//64 130//64 132//64
f 134//65 123//65 93//65
f 128//79 203//79 133//79
f 128//76 133//76 135//76
f 133//80 203//80 123//80
f 133//74 123//74 134//74
f 133//78 134//78 93//78
f 133//78 93//78 121//78
f 122//77 92//77 91//77
f 122//77 91//77 90//77
f 128//74 135//74 204//74
f 128//74 204//74 129//74
f 129//67 205//67 203//67
f 129//67 203//67 128//67
f 197//74 194//74 124//74
f 197//74 124//74 125//74
f 123//67 203//67 125//67
f 123//67 125//67 124//67
f 125//67 203//67 202//67
f 205//81 129//81 131//81
f 127//74 202//74 205//74
f 127//74 205//74 131//74
f 129//64 204//64 152//64
f 129//82 152//82 101//82
f 122//83 90//83 135//83
f 122//76 135//76 121//76
f 130//64 131//64 129//64
f 130//64 129//64 101//64
f 118//84 171//84 170//84
f 118//84 170//84 117//84
f 101//85 152//85 153//85
f 101//86 153//86 151//86
f 154//87 155//87 102//87
f 154//88 102//88 103//88
f 101//74 151//74 149//74
f 101//89 149//89 99//89
f 97//90 148//90 145//90
f 97//90 145//90 95//90
f 99//64 149//64 150//64
f 99//64 150//64 100//64
f 106//89 157//89 154//89
f 106//89 154//89 104//89
f 160//91 161//91 158//91
f 160//91 158//91 159//91
f 156//65 157//65 106//65
f 156//65 106//65 105//65
f 104//87 154//87 103//87
f 102//90 155//90 156//90
f 102//90 156//90 105//90
f 143//74 137//74 90//74
f 143//89 90//89 91//89
f 144//65 143//65 91//65
f 144//65 91//65 92//65
f 141//65 142//65 139//65
f 141//65 139//65 140//65
f 135//92 90//92 136//92
f 137//65 138//65 136//65
f 137//93 136//93 90//93
f 147//94 148//94 97//94
f 147//95 97//95 98//95
f 96//94 147//94 98//94
f 94//89 146//89 147//89
f 94//89 147//89 96//89
f 92//65 93//65 144//65
f 145//92 146//92 94//92
f 145//92 94//92 95//92
f 105//65 106//65 107//65
f 95//65 94//65 114//65
f 96//67 98//67 114//67
f 96//67 114//67 94//67
f 160//96 159//96 109//96
f 160//97 109//97 110//97
f 166//98 110//98 165//98
f 162//99 109//99 159//99
f 172//64 173//64 171//64
f 172//64 171//64 161//64
f 116//100 117//100 170//100
f 116//101 170//101 115//101
f 168//102 115//102 170//102
f 114//103 98//103 97//103
f 114//103 97//103 95//103
f 168//65 169//65 158//65
f 168//104 158//104 115//104
f 164//64 163//64 162//64
f 111//105 112//105 165//105
f 111//106 165//106 110//106
f 162//107 163//107 108//107
f 162//108 108//108 109//108
f 103//67 107//67 106//67
f 103//67 106//67 104//67
f 102//103 105//103 107//103
f 102//103 107//103 103//103
f 163//84 165//84 112//84
f 163//84 112//84 108//84
f 166//65 167//65 160//65
f 166//109 160//109 110//109
f 108//64 113//64 109//64
f 109//70 113//70 111//70
f 109//70 111//70 110//70
f 111//67 113//67 108//67
f 111//67 108//67 112//67
o Hull_havok_s_armor_9_1
v -0.988383 1.165780 -2.586745
v -1.473834 1.165780 -2.586745
v -1.473834 1.165781 2.802441
v -0.988383 1.165781 2.802441
v -0.988383 1.374194 -3.091014
v -1.473834 1.361495 3.514599
v -0.988383 1.361495 3.514599
v -1.473834 1.165781 4.212090
v -0.988383 1.165781 4.212090
v -0.988383 1.361495 3.934559
v -1.473834 1.361495 3.934559
v -1.473834 1.165781 5.306725
v -0.988383 1.165781 5.306725
v -1.593809 1.783813 5.306725
v -1.473834 1.783813 5.306725
v -1.473834 1.783813 -1.064783
v -1.697497 1.783813 -1.064783
v -1.697497 1.783813 5.306725
v -1.473834 1.815677 -1.043039
v 0.988383 1.165780 -2.586745
v 0.988383 1.165781 2.802441
v 1.473834 1.165781 2.802441
v 1.473834 1.165780 -2.586745
v 0.988383 1.374194 -3.091014
v 1.473834 1.783813 -1.064783
v 1.473834 1.783813 5.306725
v 1.593809 1.783813 5.306725
v 1.697497 1.783813 -1.064783
v 1.697497 1.783813 5.306725
v 1.473834 1.815677 -1.043039
v 1.473834 1.361495 3.514599
v 0.988383 1.361495 3.514599
v 1.473834 1.165781 4.212090
v 1.473834 1.361495 3.934559
v 0.988383 1.361495 3.934559
v 0.988383 1.165781 4.212090
v 1.473834 1.165781 5.306725
v 0.988383 1.165781 5.306725
v 0.908929 1.165781 4.897752
v 0.835665 1.165781 4.897752
v 0.835665 1.165781 5.306725
v 0.908929 1.165781 5.306725
v -0.908929 1.165781 4.897752
v -0.908929 1.165781 5.306725
v -0.835665 1.165781 5.306725
v -0.835665 1.165781 4.897752
v 0.988334 0.478253 4.677080
v 0.988383 0.478251 -3.609637
v -0.988383 0.478251 -3.609637
v -0.988334 0.478253 4.677080
vn -0.0000 0.9643 -0.2650
vn -0.0000 0.8172 0.5763
vn 1.0000 -0.0000 -0.0000
vn -0.0000 1.0000 -0.0000
vn -0.0000 0.9242 0.3820
vn -1.0000 -0.0000 -0.0000
s 0
f 226//110 237//110 236//110
f 226//110 236//110 227//110
f 240//111 241//111 238//111
f 240//111 238//111 239//111
f 230//112 235//112 231//112
f 232//113 233//113 230//113
f 232//113 230//113 231//113
f 234//113 233//113 232//113
f 250//113 251//113 248//113
f 250//113 248//113 249//113
f 254//113 255//113 252//113
f 254//113 252//113 253//113
f 246//113 247//113 244//113
f 246//113 244//113 245//113
f 237//113 240//113 239//113
f 237//113 239//113 236//113
f 241//113 243//113 242//113
f 241//113 242//113 238//113
f 228//114 229//114 225//114
f 215//111 216//111 213//111
f 215//111 213//111 214//111
f 216//113 215//113 212//113
f 216//113 212//113 211//113
f 211//110 212//110 209//110
f 211//110 209//110 208//110
f 208//113 209//113 206//113
f 208//113 206//113 207//113
f 207//114 206//114 210//114
f 220//115 224//115 221//115
f 227//113 228//113 225//113
f 227//113 225//113 226//113
f 223//113 219//113 222//113
f 213//113 217//113 218//113
f 213//113 218//113 214//113
f 221//113 222//113 219//113
f 221//113 219//113 220//113
o Hull_havok_s_armor_1_2
v -0.976384 1.379344 -3.103477
v -0.903568 1.410604 -3.179113
v -0.978448 1.815677 -3.101365
v -1.056673 1.815677 -3.020103
v 0.976384 1.379345 -3.103477
v 1.054294 1.815677 -3.022573
v 0.978448 1.815677 -3.101365
v 0.903567 1.410604 -3.179113
v 0.988383 1.307730 -3.709222
v -0.988383 1.307730 -3.709222
v -0.988383 0.868363 -3.973502
v 0.988383 0.868363 -3.973502
vn -0.0000 -0.5154 0.8569
vn -0.0000 -0.1885 0.9821
vn 0.7204 0.0001 0.6935
vn 0.7204 -0.0000 0.6936
vn -0.7204 -0.0000 0.6936
vn -0.7204 -0.0000 0.6935
s 0
f 266//116 267//116 264//116
f 266//116 264//116 265//116
f 257//117 263//117 262//117
f 257//117 262//117 258//117
f 258//118 259//118 256//118
f 258//119 256//119 257//119
f 262//120 263//120 260//120
f 262//121 260//121 261//121
o Hull_havok_s_armor_2_3
v -1.473834 1.815677 -2.586744
v -1.473834 1.165780 -2.586744
v -0.988382 1.374194 -3.091014
v -1.056673 1.815677 -3.020103
v -0.976384 1.379344 -3.103477
v 1.473834 1.815677 -2.586744
v 1.054294 1.815677 -3.022573
v 0.988382 1.374194 -3.091014
v 1.473834 1.165780 -2.586744
v -0.988382 0.868363 -3.973502
v -0.988382 0.478251 -3.609637
v 0.988382 0.478251 -3.609637
v 0.988382 0.868363 -3.973502
v 0.976385 1.379345 -3.103477
vn -0.0000 0.6821 0.7313
vn -0.7204 -0.0000 0.6935
vn 0.7204 -0.0000 0.6935
s 0
f 279//122 280//122 277//122
f 279//122 277//122 278//122
f 281//123 275//123 274//123
f 275//123 276//123 273//123
f 275//123 273//123 274//123
f 270//124 271//124 268//124
f 270//124 268//124 269//124
f 272//124 271//124 270//124
o Hull_havok_s_armor_10_4
v 1.473834 1.815677 -1.043039
v -1.473834 1.815677 -1.043039
v -1.473834 1.815677 -2.586745
v 1.473834 1.815677 -2.586745
v -1.056673 1.815677 -3.020103
v 1.054294 1.815677 -3.022573
v -0.978448 1.815677 -3.101365
v 0.978448 1.815677 -3.101365
vn -0.0000 -1.0000 -0.0000
s 0
f 285//125 284//125 287//125
f 286//125 288//125 289//125
f 286//125 289//125 287//125
f 284//125 285//125 282//125
f 284//125 282//125 283//125
f 284//125 286//125 287//125
o Hull_havok_s_armor_11_5
v -1.059266 2.692719 -0.450306
v -1.059266 3.209035 -0.101362
v -1.530808 3.222373 -0.092473
v -1.473834 1.815677 -1.043039
v -1.697497 1.783813 -1.064781
v -1.473834 1.783813 -1.064781
v -0.665710 2.692719 -0.450103
v -0.468743 2.209459 -0.777013
v -0.422820 2.093705 -0.855308
v -0.302592 2.022165 -0.903670
v -1.102307 3.300712 -0.039442
v -1.149542 3.399812 0.029157
v -0.665710 3.209035 -0.101039
v -0.468743 3.335288 -0.015511
v 1.102307 3.300712 -0.039442
v 0.468743 2.209459 -0.777013
v 1.473834 1.815677 -1.043040
v 1.530808 3.222373 -0.092473
v 0.468742 3.335288 -0.015511
v 1.149542 3.399812 0.029157
v 1.473834 1.783813 -1.064781
v 1.697497 1.783813 -1.064781
v 0.302590 2.022165 -0.903670
v 0.422819 2.093705 -0.855308
vn 0.1332 -0.5585 0.8187
vn -0.0000 -0.5600 0.8285
vn -0.0021 -0.5685 0.8227
vn 0.0007 -0.5603 0.8283
vn -0.0002 -0.5602 0.8284
vn -0.0001 -0.5599 0.8286
vn -0.0000 -0.5594 0.8289
vn -0.0006 -0.5603 0.8283
vn 0.0008 -0.5601 0.8284
vn 0.0002 -0.5599 0.8286
vn -0.0001 -0.5599 0.8285
vn 0.0003 -0.5602 0.8283
vn -0.0004 -0.5598 0.8286
vn -0.1334 -0.5586 0.8186
vn -0.0002 -0.5599 0.8285
vn -0.0007 -0.5601 0.8284
vn -0.0007 -0.5599 0.8285
vn 0.0021 -0.5685 0.8227
vn -0.0002 -0.5598 0.8286
vn 0.0002 -0.5602 0.8284
vn 0.0001 -0.5599 0.8286
s 0
f 307//126 306//126 310//126
f 307//127 310//127 311//127
f 309//128 304//128 307//128
f 308//129 305//129 304//129
f 306//130 305//130 313//130
f 306//131 313//131 312//131
f 306//132 312//132 299//132
f 306//132 299//132 293//132
f 297//133 303//133 302//133
f 297//134 302//134 296//134
f 306//135 307//135 304//135
f 306//136 304//136 305//136
f 293//137 297//137 296//137
f 293//138 296//138 290//138
f 295//139 293//139 292//139
f 295//127 292//127 294//127
f 292//131 293//131 290//131
f 292//140 290//140 291//140
f 302//141 303//141 300//141
f 302//142 300//142 291//142
f 300//143 301//143 292//143
f 300//144 292//144 291//144
f 298//145 297//145 293//145
f 298//146 293//146 299//146
o Hull_havok_s_armor_8_6
v -0.302591 2.022165 -0.903670
v 0.422819 2.093705 -0.855308
v 0.468743 2.209459 -0.777013
v -0.422820 2.093705 -0.855308
v 0.302591 2.022165 -0.903670
v -0.468743 3.335288 -0.015511
v -0.468743 2.209459 -0.777013
v 0.468743 3.335288 -0.015511
v -1.059266 2.692718 -0.450306
v -0.665709 2.692718 -0.450103
v -0.665709 3.209035 -0.101039
v -1.059266 3.209035 -0.101362
vn -0.0000 -0.5603 0.8283
vn -0.0007 -0.5599 0.8285
vn -0.0004 -0.5601 0.8284
vn -0.0000 -0.5601 0.8284
vn -0.0000 -0.5601 0.8285
s 0
f 320//147 317//147 316//147
f 324//148 325//148 322//148
f 324//149 322//149 323//149
f 316//147 321//147 319//147
f 316//147 319//147 320//147
f 316//150 317//150 314//150
f 316//147 314//147 315//147
f 314//151 318//151 315//151
o Hull_havok_s_armor_6_7
v -0.976384 1.379344 -3.103477
v -0.988382 1.374194 -3.091014
v -0.988382 1.410604 -3.179113
v -0.903568 1.410604 -3.179113
v 0.988382 1.410604 -3.179113
v 0.903568 1.410604 -3.179113
v -0.988382 1.307730 -3.709222
v 0.988382 1.307730 -3.709222
v 0.976384 1.379345 -3.103477
v 0.988382 1.374194 -3.091014
vn -0.0000 -0.9817 0.1905
vn -0.0000 -0.9242 -0.3819
vn -0.0000 -0.9242 -0.3820
s 0
f 329//152 328//152 332//152
f 329//152 332//152 331//152
f 334//153 331//153 330//153
f 334//154 330//154 335//154
f 326//154 327//154 328//154
f 326//154 328//154 329//154
f 330//152 331//152 332//152
f 330//152 332//152 333//152
o Hull_havok_s_armor_7_8
v -0.988382 0.478251 -3.609637
v -0.988382 1.165780 -2.586743
v -0.988382 1.165781 4.212090
v -0.988334 0.478253 4.677080
v -0.988382 1.374194 -3.091012
v -0.988382 1.165781 5.306724
v -0.988382 0.798786 5.306724
v -0.988382 1.361495 3.514599
v -0.988382 1.361495 3.934560
v -0.988382 1.165781 2.802441
v 0.988382 1.165781 4.212090
v 0.988382 1.165780 -2.586743
v 0.988382 0.478251 -3.609637
v 0.988334 0.478253 4.677080
v 0.988382 0.798786 5.306724
v 0.988382 1.165781 5.306724
v 0.988382 1.361495 3.514599
v 0.988382 1.165781 2.802441
v 0.988382 1.361495 3.934560
v 0.988382 1.374194 -3.091012
v 0.988382 1.410604 -3.179113
v 0.988382 1.307730 -3.709222
v 0.988382 0.868363 -3.973502
v -0.988382 1.307730 -3.709222
v -0.988382 1.410604 -3.179113
v -0.988382 0.868363 -3.973502
vn -1.0000 -0.0000 -0.0000
vn 1.0000 -0.0000 -0.0000
vn 1.0000 0.0001 -0.0000
vn -1.0000 0.0001 -0.0000
s 0
f 356//155 357//155 348//155
f 356//155 348//155 355//155
f 355//155 348//155 347//155
f 346//155 354//155 352//155
f 346//155 352//155 353//155
f 361//156 359//156 336//156
f 336//156 359//156 360//156
f 336//156 360//156 340//156
f 358//155 348//155 357//155
f 338//156 341//156 342//156
f 338//157 342//157 339//157
f 340//156 337//156 336//156
f 338//157 339//157 336//157
f 338//156 336//156 337//156
f 350//155 351//155 346//155
f 350//158 346//158 349//158
f 348//158 349//158 346//158
f 348//155 346//155 347//155
f 338//156 345//156 343//156
f 338//156 343//156 344//156
o Hull_havok_s_armor_3_9
v 1.473834 1.165781 4.212090
v 1.473834 1.165781 5.306725
v 1.473834 1.783814 5.306725
v 1.473834 1.361495 3.934559
v -1.473834 1.783814 5.306725
v -1.473834 1.165781 5.306725
v -1.473834 1.165781 4.212090
v -1.473834 1.361495 3.934559
v 1.473834 1.165781 2.802440
v 1.473834 1.361495 3.514600
v 1.473834 1.815677 -1.043041
v 1.473834 1.165780 -2.586744
v 1.473834 1.815677 -2.586744
v -1.473834 1.815677 -1.043041
v -1.473834 1.361495 3.514600
v -1.473834 1.165781 2.802440
v -1.473834 1.165780 -2.586744
v -1.473834 1.815677 -2.586744
vn 1.0000 -0.0000 -0.0000
vn -1.0000 -0.0000 -0.0000
s 0
f 377//159 378//159 375//159
f 377//159 375//159 376//159
f 372//160 371//160 365//160
f 372//160 365//160 364//160
f 369//159 376//159 375//159
f 369//159 375//159 366//159
f 379//159 375//159 378//159
f 368//159 369//159 366//159
f 368//159 366//159 367//159
f 364//160 365//160 362//160
f 364//160 362//160 363//160
f 374//160 373//160 372//160
f 372//160 373//160 370//160
f 372//160 370//160 371//160
o Hull_havok_s_armor_12_10
v -1.530918 3.222281 4.007084
v -1.682120 1.916524 5.306725
v -1.149627 3.399812 3.827823
v 1.149626 3.399812 3.827823
v 1.530918 3.222281 4.007084
v 1.682120 1.916524 5.306725
v -1.697497 1.783813 -1.064781
v -1.530808 3.222373 -0.092474
v -1.697497 1.783813 5.306725
v -1.446686 3.071383 4.159418
v -1.593809 1.916524 5.306725
v -1.593809 1.783813 5.306725
v -1.149542 3.399812 3.295236
v -1.149542 3.399812 0.029157
v -1.052009 3.286571 3.942157
v -0.973460 3.399812 3.748205
v -0.980836 3.399812 3.827825
v 1.052009 3.286571 3.942157
v 1.446685 3.071383 4.159418
v 0.936918 3.399812 3.505736
v 1.149542 3.399812 3.295236
v 0.973460 3.399812 3.748205
v 0.980836 3.399812 3.827825
v -0.936916 3.399812 3.505736
v 1.530808 3.222373 -0.092474
v 1.149542 3.399812 0.029157
v 1.697497 1.783813 -1.064781
v 1.697497 1.783813 5.306725
v 1.593809 1.916524 5.306725
v 1.593809 1.783813 5.306725
vn -0.0000 -1.0000 -0.0000
vn -0.4215 -0.9069 0.0001
vn -0.4221 -0.9066 -0.0000
vn -0.0000 -0.7105 -0.7037
vn -0.4219 -0.9066 -0.0000
vn -0.0166 -0.7057 -0.7083
vn -0.0000 -0.7054 -0.7088
vn -0.0000 -0.0000 -1.0000
vn -0.9934 -0.1151 -0.0000
vn -0.9934 -0.1150 -0.0000
vn 0.0166 -0.7058 -0.7083
vn 0.9934 -0.1151 -0.0000
vn 0.9934 -0.1150 -0.0000
vn 0.4214 -0.9069 0.0001
vn 0.4221 -0.9066 -0.0000
vn 0.4219 -0.9066 -0.0000
s 0
f 403//161 395//161 382//161
f 403//161 382//161 392//161
f 383//162 400//162 404//162
f 383//163 404//163 384//163
f 383//161 401//161 399//161
f 383//161 399//161 400//161
f 383//164 397//164 402//164
f 383//161 402//161 401//161
f 400//165 405//165 404//165
f 408//166 398//166 384//166
f 408//167 384//167 385//167
f 409//168 408//168 385//168
f 409//168 385//168 407//168
f 406//169 407//169 404//169
f 404//169 407//169 385//169
f 404//170 385//170 384//170
f 380//171 389//171 390//171
f 380//167 390//167 381//167
f 381//168 390//168 391//168
f 381//168 391//168 388//168
f 386//172 387//172 388//172
f 381//172 388//172 387//172
f 381//173 387//173 380//173
f 387//174 392//174 382//174
f 387//175 382//175 380//175
f 396//164 394//164 382//164
f 396//161 382//161 395//161
f 384//164 398//164 397//164
f 384//164 397//164 383//164
f 387//176 393//176 392//176
f 394//164 389//164 380//164
f 394//164 380//164 382//164
o Hull_havok_s_armor_16_11
v -0.883987 2.017930 5.315726
v -0.883987 2.017930 5.829170
v -1.273414 1.920790 6.012941
v -1.273414 1.920790 5.131955
v -1.234845 1.920790 5.041740
v -1.144020 1.920790 5.002759
v -1.234845 1.920790 6.103156
v -1.144020 1.920790 6.142138
v 1.144020 1.920790 5.002759
v 0.883987 2.017930 5.315726
v 0.883987 2.017930 5.829170
v 1.144020 1.920790 6.142138
v 1.273414 1.920790 6.012941
v 1.273414 1.920790 5.131955
v 1.234845 1.920790 5.041740
v 1.234845 1.920790 6.103156
v -1.273414 1.859181 6.012718
v -1.273414 1.859181 5.132178
v -1.234381 1.859181 5.041791
v -1.143994 1.859181 5.002759
v -1.234381 1.859181 6.103106
v -1.143994 1.859181 6.142138
v 1.143994 1.859181 5.002759
v 1.143994 1.859181 6.142138
v 1.273414 1.859181 5.132178
v 1.273414 1.859181 6.012718
v 1.234382 1.859181 5.041791
v 1.234382 1.859181 6.103106
vn -0.0953 -0.9704 0.2220
vn -0.2025 -0.9755 0.0866
vn -0.0953 -0.9704 -0.2220
vn -0.2025 -0.9755 -0.0866
vn -0.2420 -0.9703 -0.0000
vn -0.0000 -0.0000 -1.0000
vn 0.2025 -0.9755 -0.0866
vn 0.0953 -0.9704 -0.2220
vn -0.9181 0.0014 -0.3965
vn -0.9195 0.0072 -0.3931
vn -0.3964 0.0037 -0.9181
vn -0.3944 0.0001 -0.9189
vn -0.3964 0.0037 0.9180
vn -0.3944 0.0002 0.9189
vn -1.0000 -0.0000 -0.0000
vn -0.9181 0.0014 0.3965
vn -0.9195 0.0072 0.3931
vn -0.0000 -0.9551 -0.2964
vn 0.3964 0.0037 0.9180
vn 0.3944 0.0002 0.9189
vn 0.9181 0.0014 -0.3965
vn 0.9195 0.0072 -0.3931
vn 0.9181 0.0014 0.3965
vn 0.9195 0.0072 0.3931
vn 0.2420 -0.9703 -0.0000
vn 1.0000 -0.0000 -0.0000
vn -0.0000 -1.0000 -0.0000
vn 0.2025 -0.9755 0.0866
vn 0.0953 -0.9704 0.2220
vn -0.0000 -0.0000 1.0000
vn 0.3964 0.0037 -0.9181
vn 0.3944 0.0002 -0.9189
vn -0.0000 -0.9551 0.2964
s 0
f 419//177 418//177 424//177
f 419//178 424//178 423//178
f 425//179 421//179 420//179
f 425//180 420//180 422//180
f 419//181 423//181 422//181
f 419//181 422//181 420//181
f 421//182 433//182 431//182
f 421//182 431//182 417//182
f 416//183 412//183 411//183
f 416//184 411//184 417//184
f 422//185 435//185 437//185
f 422//186 437//186 425//186
f 425//187 437//187 433//187
f 425//188 433//188 421//188
f 432//189 436//189 424//189
f 432//190 424//190 418//190
f 434//191 435//191 422//191
f 434//191 422//191 423//191
f 436//192 434//192 423//192
f 436//193 423//193 424//193
f 411//194 420//194 421//194
f 411//194 421//194 417//194
f 414//195 428//195 429//195
f 414//196 429//196 415//196
f 430//197 426//197 412//197
f 430//198 412//198 416//198
f 413//199 427//199 428//199
f 413//200 428//200 414//200
f 412//201 413//201 410//201
f 412//201 410//201 411//201
f 412//202 426//202 427//202
f 412//202 427//202 413//202
f 419//203 420//203 411//203
f 419//203 411//203 410//203
f 410//204 413//204 414//204
f 410//205 414//205 415//205
f 429//206 432//206 418//206
f 429//206 418//206 415//206
f 431//207 430//207 416//207
f 431//208 416//208 417//208
f 418//209 419//209 410//209
f 418//209 410//209 415//209
o Hull_havok_s_armor_4_12
v 0.988335 0.478253 4.677080
v -0.988334 0.478253 4.677080
v 0.908929 0.590592 4.897752
v 0.835665 0.590592 4.897752
v -0.835666 0.590592 4.897752
v 0.908929 0.798786 5.306724
v 0.988382 0.798786 5.306724
v 0.835665 1.165782 4.897752
v 0.908929 1.165782 4.897752
v -0.835666 1.165782 4.897752
v -0.908929 0.590592 4.897752
v -0.908929 1.165782 4.897752
v -0.908929 0.798786 5.306724
v -0.988382 0.798786 5.306724
v -0.988382 1.165782 5.306724
v -0.908929 1.165782 5.306724
v 0.988382 1.165782 5.306724
v 0.835665 1.218340 5.306724
v 1.431611 1.218340 5.306725
v 1.473834 1.165782 5.306724
v 0.908929 1.165782 5.306724
v 0.835665 1.165782 5.306724
v -1.431611 1.218340 5.306725
v -0.835666 1.218340 5.306724
v -0.835666 1.165782 5.306724
v -1.473834 1.165782 5.306724
v -1.473834 1.783813 5.306725
v -1.431611 1.783813 5.306725
v 1.431611 1.783813 5.306725
v 1.473834 1.783813 5.306725
vn -0.0000 -0.0000 -1.0000
vn -0.0000 0.8912 -0.4537
s 0
f 460//210 461//210 453//210
f 460//210 453//210 452//210
f 462//210 453//210 461//210
f 456//210 457//210 454//210
f 456//210 454//210 455//210
f 458//210 459//210 455//210
f 458//210 455//210 454//210
f 458//210 454//210 444//210
f 458//210 444//210 443//210
f 466//210 467//210 457//210
f 466//210 457//210 456//210
f 452//210 463//210 460//210
f 464//210 465//210 460//210
f 464//210 460//210 463//210
f 443//211 444//211 438//211
f 443//211 438//211 440//211
f 445//210 446//210 440//210
f 445//210 440//210 441//210
f 438//211 439//211 440//211
f 441//211 440//211 439//211
f 441//211 439//211 442//211
f 451//211 450//211 448//211
f 451//211 448//211 439//211
f 448//211 442//211 439//211
f 448//210 449//210 447//210
f 448//210 447//210 442//210
f 452//210 453//210 450//210
f 452//210 450//210 451//210
o Gun_01_havok_s_gun_0
v 0.129315 2.468791 -5.452533
v 0.129315 2.210945 -5.452533
v 0.129315 2.210945 -1.837785
v 0.129315 2.468791 -1.837785
v -0.129312 2.210945 -5.452533
v -0.129312 2.468791 -5.452533
v -0.129312 2.468791 -1.837785
v -0.129312 2.210945 -1.837785
v 0.151878 2.491286 -5.522048
v 0.151878 2.188450 -5.522048
v -0.151875 2.188450 -5.522048
v -0.151875 2.491286 -5.522048
v -0.190829 2.530122 -1.828516
v 0.190832 2.530122 -1.828516
v 0.190832 2.149614 -1.828516
v -0.190829 2.149614 -1.828516
v 0.217865 2.557073 -5.888156
v -0.217862 2.557073 -5.888156
v -0.217862 2.557073 -6.569397
v 0.217865 2.557073 -6.569397
v -0.217862 2.122663 -6.569397
v 0.217865 2.122663 -6.569397
v -0.217862 2.122663 -5.888156
v 0.217865 2.122663 -5.888156
v -0.151875 2.188450 -5.725956
v 0.151878 2.188450 -5.725956
v 0.151878 2.491286 -5.725956
v -0.151875 2.491286 -5.725956
v 0.210263 2.549494 0.141889
v -0.210260 2.549494 0.141889
v 0.206977 2.133518 -0.080057
v -0.206974 2.133518 -0.080057
vn -1.0000 -0.0000 -0.0000
vn 1.0000 -0.0000 -0.0000
vn -0.0000 0.9267 -0.3759
vn -0.0000 1.0000 -0.0000
vn -0.0000 0.1494 0.9888
vn -0.0000 -1.0000 -0.0000
vn -0.0000 -0.0000 1.0000
vn -0.0000 -0.9267 -0.3759
vn 0.9263 -0.0000 -0.3768
vn -0.9263 -0.0000 -0.3768
vn -0.1490 -0.0000 0.9888
vn -0.9512 -0.0000 -0.3087
vn 0.9512 -0.0000 -0.3087
vn -0.0000 0.9514 -0.3079
vn -0.0000 1.0000 0.0092
vn -0.0000 -0.1494 0.9888
vn 0.1490 -0.0000 0.9888
vn 0.9999 0.0027 0.0098
vn 1.0000 -0.0000 0.0092
vn -0.0000 -0.9514 -0.3079
vn -0.0000 -1.0000 0.0098
vn -0.9999 0.0027 0.0098
vn -1.0000 -0.0000 0.0092
s 0
f 489//212 491//212 484//212
f 489//212 484//212 487//212
f 490//213 488//213 486//213
f 490//213 486//213 485//213
f 492//214 493//214 491//214
f 492//214 491//214 490//214
f 490//215 491//215 489//215
f 490//215 489//215 488//215
f 483//216 482//216 470//216
f 483//216 470//216 475//216
f 486//217 487//217 484//217
f 486//217 484//217 485//217
f 488//218 489//218 487//218
f 488//218 487//218 486//218
f 492//213 495//213 479//213
f 492//213 479//213 478//213
f 494//219 495//219 485//219
f 494//219 485//219 484//219
f 495//217 494//217 476//217
f 495//217 476//217 479//217
f 495//220 492//220 490//220
f 495//220 490//220 485//220
f 493//215 492//215 478//215
f 493//215 478//215 477//215
f 493//221 494//221 484//221
f 493//221 484//221 491//221
f 494//212 493//212 477//212
f 494//212 477//212 476//212
f 482//222 481//222 471//222
f 482//222 471//222 470//222
f 476//223 477//223 469//223
f 476//223 469//223 468//223
f 478//224 479//224 473//224
f 478//224 473//224 472//224
f 477//225 478//225 472//225
f 477//225 472//225 469//225
f 471//217 474//217 473//217
f 471//217 473//217 468//217
f 470//212 471//212 468//212
f 470//212 468//212 469//212
f 474//213 475//213 472//213
f 474//213 472//213 473//213
f 469//215 472//215 475//215
f 469//215 475//215 470//215
f 499//226 498//226 482//226
f 499//226 482//226 483//226
f 481//227 480//227 474//227
f 481//227 474//227 471//227
f 480//228 483//228 475//228
f 480//228 475//228 474//228
f 480//229 497//229 499//229
f 480//230 499//230 483//230
f 479//231 476//231 468//231
f 479//231 468//231 473//231
f 496//232 497//232 480//232
f 496//232 480//232 481//232
f 498//233 496//233 481//233
f 498//234 481//234 482//234
o Gun_01_havok_s_armor_1_1
v 0.402666 2.332194 -0.033610
v -0.402578 2.332194 -0.033239
v -0.402632 2.056141 -0.134848
v 0.402612 2.056141 -0.135218
v 0.263194 1.821248 -0.201275
v -0.263293 1.821248 -0.201053
v 0.402733 2.558002 0.092627
v -0.402511 2.558002 0.092998
v 0.159346 3.189857 0.593165
v -0.158766 3.189858 0.593311
v -0.122960 2.698499 0.229666
v 0.122551 2.698498 0.229556
v 0.298398 3.018022 0.463530
v 0.298316 2.698497 0.229481
v -0.301227 3.018023 0.463792
v -0.301309 2.698501 0.229742
v 0.298303 2.717365 0.200761
v -0.297967 2.717365 0.201020
vn 0.0003 -0.5909 0.8067
vn 0.0131 -0.5954 0.8033
vn -0.0122 -0.5954 0.8033
vn 0.0004 -0.5612 0.8276
vn 0.0004 -0.5613 0.8276
vn 0.0004 -0.5949 0.8038
vn 0.0004 -0.3454 0.9384
vn 0.0004 -0.2711 0.9626
vn 0.0004 -0.2710 0.9626
vn 0.0004 -0.4880 0.8729
s 0
f 511//235 513//235 512//235
f 511//236 512//236 508//236
f 514//235 515//235 510//235
f 514//237 510//237 509//237
f 516//238 517//238 507//238
f 516//239 507//239 506//239
f 510//240 511//240 508//240
f 510//240 508//240 509//240
f 502//241 503//241 500//241
f 502//241 500//241 501//241
f 502//242 505//242 504//242
f 502//243 504//243 503//243
f 506//244 507//244 501//244
f 506//244 501//244 500//244
o Gun_01_havok_s_gunBreech_2
v 0.403938 2.874457 1.376429
v 0.415542 1.901989 1.376429
v 0.415542 1.901989 2.459954
v 0.403938 2.874457 2.459954
v 0.225469 2.564711 1.376429
v 0.225469 2.115296 1.376429
v -0.225105 2.115296 1.376429
v -0.391969 1.901989 1.376429
v -0.391969 1.901989 2.459954
v -0.403574 2.874457 1.376429
v -0.403574 2.874457 2.459954
v 0.309501 2.121947 2.459954
v -0.311538 2.121947 2.459954
v -0.311538 1.918617 2.459954
v 0.309501 1.918617 2.459954
v 0.309501 2.121947 2.886574
v -0.311538 2.121947 2.886574
v 0.309501 1.918617 2.886574
v -0.311538 1.918617 2.886574
v -0.225105 2.564711 1.376429
v 0.210263 2.549494 0.141889
v 0.206977 2.133518 -0.080057
v -0.210260 2.549494 0.141889
v -0.206974 2.133518 -0.080057
vn -0.0000 -0.0000 -1.0000
vn -0.9999 0.0011 0.0127
vn -0.9999 -0.0000 0.0123
vn -0.0000 1.0000 -0.0000
vn -1.0000 -0.0000 -0.0000
vn 1.0000 -0.0000 -0.0000
vn -0.0000 -0.0000 1.0000
vn -0.0000 0.9999 0.0125
vn -0.0000 -0.9999 0.0123
vn 0.9999 0.0012 0.0125
vn 0.9999 -0.0000 0.0120
vn 0.9999 0.0119 -0.0000
vn -0.9999 -0.0119 -0.0000
vn -0.0000 -1.0000 -0.0000
s 0
f 526//245 531//245 532//245
f 526//245 532//245 520//245
f 538//246 539//246 523//246
f 538//247 523//247 522//247
f 536//248 535//248 532//248
f 536//248 532//248 531//248
f 535//249 533//249 529//249
f 535//249 529//249 532//249
f 534//250 536//250 531//250
f 534//250 531//250 530//250
f 518//251 527//251 537//251
f 518//251 537//251 522//251
f 537//251 527//251 525//251
f 537//251 525//251 524//251
f 539//252 541//252 524//252
f 539//252 524//252 523//252
f 540//253 538//253 522//253
f 540//253 522//253 537//253
f 524//254 541//254 540//254
f 524//255 540//255 537//255
f 533//245 535//245 536//245
f 533//245 536//245 534//245
f 519//248 525//248 526//248
f 519//248 526//248 520//248
f 525//256 527//256 528//256
f 525//256 528//256 526//256
f 523//251 524//251 525//251
f 523//251 525//251 519//251
f 520//257 521//257 518//257
f 520//257 518//257 519//257
f 522//251 523//251 519//251
f 522//251 519//251 518//251
f 520//245 532//245 529//245
f 520//245 529//245 521//245
f 533//258 534//258 530//258
f 533//258 530//258 529//258
f 530//245 531//245 526//245
f 530//245 526//245 528//245
f 521//258 528//258 527//258
f 521//258 527//258 518//258
f 529//245 530//245 528//245
f 529//245 528//245 521//245
