# Blender 5.1.0
# www.blender.org
o Chassis_havok_s_leftTrack_0
v -1.558728 0.105355 2.857164
v -1.558728 0.878325 2.851240
v -1.558728 0.846719 2.940106
v -1.558728 0.135298 2.940106
v -1.161246 0.105355 2.857164
v -1.161246 0.135298 2.940106
v -1.558728 0.540081 2.418760
v -1.558728 0.892742 2.709055
v -1.558728 0.847828 2.418760
v -1.110686 0.801804 3.011199
v -1.558728 0.801804 3.011199
v -1.110686 0.846719 2.940106
v -1.110686 0.878325 2.851240
v -1.110686 0.892742 2.709055
v -1.110686 0.540081 2.418760
v -1.110686 0.847828 2.418760
v -1.110686 0.740255 3.070442
v -1.110686 0.668725 3.117837
v -1.110686 0.584441 3.147460
v -1.558728 0.319945 3.123762
v -1.558728 0.404229 3.147460
v -1.161246 0.381495 3.141535
v -1.161246 0.319945 3.123762
v -1.161246 0.242870 3.076367
v -1.558728 0.242870 3.076367
v -1.558728 0.584441 3.147460
v -1.558728 0.491840 3.159308
v -1.161246 0.181875 3.011199
v -1.558728 0.181875 3.011199
v -1.558728 0.668725 3.117837
v -1.558728 0.740255 3.070442
v -1.558728 -0.000000 1.974431
v -1.558728 0.509584 -2.836173
v -1.558728 0.602740 -2.883568
v -1.558728 0.540081 -2.095624
v -1.558728 -0.000000 -2.107473
v -1.558728 0.426964 -2.753231
v -1.161246 -0.000000 1.974431
v -1.161246 -0.000000 -2.107473
v -1.161246 0.381495 -2.676214
v -1.110686 0.400348 -2.711761
v -1.110686 0.540081 -2.095624
v -1.110686 0.900505 1.275353
v -1.558728 0.900505 1.275353
v -1.558728 0.953737 0.120097
v -1.558728 0.965381 -0.128727
v -1.558728 0.912150 1.026528
v -1.110686 0.912150 1.026528
v -1.110686 0.953737 0.120097
v -1.110686 0.657635 1.275353
v -1.110686 0.668725 1.026528
v -1.558728 0.668725 1.026528
v -1.558728 0.657635 1.275353
v -1.558728 0.719739 -0.128727
v -1.110686 0.719739 -0.128727
v -1.110686 0.965381 -0.128727
v -1.110686 0.708649 0.120097
v -1.558728 0.708649 0.120097
v -1.558728 1.017504 -1.266210
v -1.558728 0.770753 -1.266210
v -1.110686 0.770753 -1.266210
v -1.110686 1.017504 -1.266210
v -1.110686 0.760217 -1.029234
v -1.110686 1.006414 -1.029234
v -1.558728 0.760217 -1.029234
v -1.558728 1.006414 -1.029234
v -1.558728 1.135058 -2.545878
v -1.110686 1.135058 -2.545878
v -1.558728 1.055765 -2.095624
v -1.110686 1.055765 -2.095624
v -1.558728 1.107333 -2.646592
v -1.110686 1.107333 -2.646592
v -1.110686 1.058537 -2.735458
v -1.558728 0.714194 -2.901341
v -1.558728 0.821212 -2.895416
v -1.558728 0.915477 -2.859870
v -1.558728 1.000315 -2.800627
v -1.558728 1.058537 -2.735458
v -1.110686 0.602740 -2.883568
v -1.110686 0.714194 -2.901341
v -1.110686 0.821212 -2.895416
v -1.110686 0.509584 -2.836173
v -1.110686 1.000315 -2.800627
v -1.110686 0.915477 -2.859870
v -1.110686 0.426964 -2.753231
v -1.110686 0.492052 3.159308
v -1.110686 0.404071 3.150342
v -1.110686 0.400255 3.149029
vn 1.0000 -0.0000 -0.0000
vn -0.0000 -0.9989 -0.0461
vn -0.0000 -1.0000 -0.0000
vn -0.0000 0.9990 0.0455
vn -1.0000 -0.0000 -0.0000
vn -0.0000 0.9989 0.0461
vn -0.0000 -0.0000 -1.0000
vn -0.0000 -0.0000 1.0000
vn -0.0000 0.9990 0.0445
vn -0.0000 0.9990 0.0444
vn -0.0000 -0.3528 0.9357
vn -0.0000 -0.8766 0.4813
vn -0.0000 -0.5725 0.8199
vn -0.0000 -0.7457 0.6662
vn 0.0658 0.8398 0.5390
vn -0.0000 0.7085 0.7057
vn -0.0000 0.8342 0.5515
vn -0.8460 0.4461 -0.2921
vn -0.0000 0.8305 0.5571
vn -0.0000 -0.9641 0.2654
vn -0.0000 -0.0553 0.9985
vn -0.0000 0.4535 0.8913
vn -0.0000 0.1575 0.9875
vn -0.0000 0.5238 -0.8518
vn 0.0001 -0.1269 -0.9919
vn -0.0000 -0.1272 -0.9919
vn 0.0062 0.3255 -0.9455
vn 0.0064 0.3559 -0.9345
vn -0.0000 0.2774 -0.9607
vn 0.0011 0.2707 -0.9627
vn -0.0000 0.1014 -0.9948
vn 0.0064 0.1340 -0.9910
vn -0.0000 -0.3316 -0.9434
vn -0.0000 -0.6935 -0.7205
vn -0.0000 -0.5523 -0.8336
vn -0.0000 0.7301 -0.6833
vn -0.0000 0.8365 -0.5480
vn -0.0000 -0.8454 -0.5341
vn -0.0000 0.9406 -0.3396
vn -0.0000 -0.9422 -0.3351
vn -0.0000 -0.9949 -0.1009
vn -0.3494 0.9370 -0.0000
vn -0.3479 0.9375 -0.0000
vn -0.0000 0.9989 0.0460
vn -0.0000 0.9989 0.0458
vn -0.0000 0.9930 -0.1185
vn -0.0000 1.0000 -0.0000
s 0
f 69//1 67//1 8//1
f 69//1 8//1 59//1
f 66//1 59//1 8//1
f 66//1 8//1 46//1
f 67//2 68//2 14//2
f 67//2 14//2 8//2
f 66//1 65//1 60//1
f 66//1 60//1 59//1
f 35//3 42//3 15//3
f 35//3 15//3 7//3
f 56//4 64//4 66//4
f 56//4 66//4 46//4
f 56//5 49//5 68//5
f 56//5 68//5 64//5
f 62//5 64//5 68//5
f 62//5 68//5 70//5
f 48//5 43//5 68//5
f 48//5 68//5 49//5
f 62//6 70//6 69//6
f 62//6 69//6 59//6
f 68//5 43//5 16//5
f 68//5 16//5 14//5
f 65//7 66//7 64//7
f 65//7 64//7 63//7
f 55//8 56//8 46//8
f 55//8 46//8 54//8
f 55//5 57//5 49//5
f 55//5 49//5 56//5
f 51//5 50//5 43//5
f 51//5 43//5 48//5
f 44//1 53//1 52//1
f 44//1 52//1 47//1
f 47//8 52//8 51//8
f 47//8 51//8 48//8
f 54//9 58//9 57//9
f 54//9 57//9 55//9
f 61//5 63//5 64//5
f 61//5 64//5 62//5
f 60//10 65//10 63//10
f 60//10 63//10 61//10
f 61//8 62//8 59//8
f 61//8 59//8 60//8
f 49//7 57//7 58//7
f 49//7 58//7 45//7
f 45//1 58//1 54//1
f 45//1 54//1 46//1
f 75//11 81//11 84//11
f 75//11 84//11 76//11
f 78//12 73//12 72//12
f 78//12 72//12 71//12
f 76//13 84//13 83//13
f 76//13 83//13 77//13
f 41//5 84//5 81//5
f 41//5 81//5 80//5
f 80//5 79//5 41//5
f 77//14 83//14 73//14
f 77//14 73//14 78//14
f 79//5 82//5 85//5
f 79//5 85//5 41//5
f 40//15 41//15 85//15
f 85//16 82//16 33//16
f 85//16 33//16 37//16
f 85//17 37//17 36//17
f 85//18 36//18 40//18
f 39//19 40//19 36//19
f 83//5 84//5 41//5
f 83//5 41//5 73//5
f 72//5 73//5 41//5
f 72//5 41//5 68//5
f 34//1 74//1 69//1
f 34//1 69//1 35//1
f 42//5 70//5 68//5
f 42//5 68//5 41//5
f 35//7 69//7 70//7
f 35//7 70//7 42//7
f 71//20 72//20 68//20
f 71//20 68//20 67//20
f 75//1 76//1 69//1
f 75//1 69//1 74//1
f 74//21 80//21 81//21
f 74//21 81//21 75//21
f 33//22 82//22 79//22
f 33//22 79//22 34//22
f 34//23 79//23 80//23
f 34//23 80//23 74//23
f 77//1 78//1 69//1
f 77//1 69//1 76//1
f 69//1 78//1 71//1
f 69//1 71//1 67//1
f 24//24 25//24 20//24
f 24//24 20//24 23//24
f 86//25 27//25 26//25
f 86//26 26//26 19//26
f 21//27 87//27 88//27
f 21//28 88//28 22//28
f 86//5 19//5 15//5
f 22//29 23//29 20//29
f 22//30 20//30 21//30
f 27//31 86//31 87//31
f 27//32 87//32 21//32
f 19//33 26//33 30//33
f 19//33 30//33 18//33
f 17//34 31//34 11//34
f 17//34 11//34 10//34
f 18//35 30//35 31//35
f 18//35 31//35 17//35
f 28//36 29//36 25//36
f 28//36 25//36 24//36
f 29//37 28//37 6//37
f 29//37 6//37 4//37
f 15//5 19//5 18//5
f 15//5 18//5 17//5
f 9//1 8//1 7//1
f 3//38 12//38 10//38
f 3//38 10//38 11//38
f 1//1 7//1 8//1
f 1//1 8//1 2//1
f 3//1 4//1 1//1
f 3//1 1//1 2//1
f 4//39 6//39 5//39
f 4//39 5//39 1//39
f 2//40 13//40 12//40
f 2//40 12//40 3//40
f 13//5 14//5 15//5
f 13//5 15//5 12//5
f 15//5 14//5 16//5
f 15//5 17//5 10//5
f 15//5 10//5 12//5
f 14//41 13//41 2//41
f 14//41 2//41 8//41
f 15//8 16//8 9//8
f 15//8 9//8 7//8
f 88//5 86//5 41//5
f 88//42 41//42 40//42
f 88//43 40//43 22//43
f 41//5 86//5 15//5
f 41//5 15//5 42//5
f 28//5 24//5 39//5
f 28//5 39//5 6//5
f 39//5 38//5 5//5
f 39//5 5//5 6//5
f 16//44 43//44 44//44
f 16//44 44//44 9//44
f 52//9 53//9 50//9
f 52//9 50//9 51//9
f 50//7 53//7 44//7
f 50//7 44//7 43//7
f 48//45 49//45 45//45
f 48//45 45//45 47//45
f 8//1 47//1 45//1
f 8//1 45//1 46//1
f 44//1 47//1 8//1
f 44//1 8//1 9//1
f 23//5 39//5 24//5
f 31//1 30//1 3//1
f 31//1 3//1 11//1
f 3//1 25//1 29//1
f 3//1 29//1 4//1
f 26//1 3//1 30//1
f 20//1 25//1 3//1
f 20//1 3//1 21//1
f 3//1 26//1 27//1
f 3//1 27//1 21//1
f 34//1 35//1 32//1
f 34//1 32//1 33//1
f 38//46 32//46 1//46
f 38//46 1//46 5//46
f 22//5 40//5 39//5
f 22//5 39//5 23//5
f 38//47 39//47 36//47
f 38//47 36//47 32//47
f 32//1 36//1 37//1
f 32//1 37//1 33//1
f 32//1 35//1 7//1
f 32//1 7//1 1//1
o Chassis_havok_s_rightTrack_1
v 1.558728 0.847828 2.418760
v 1.110686 0.847828 2.418760
v 1.110686 0.540081 2.418760
v 1.558728 0.540081 2.418760
v 1.558728 0.878325 2.851240
v 1.110686 0.878325 2.851240
v 1.110686 0.892742 2.709055
v 1.558728 0.892742 2.709055
v 1.110686 0.846719 2.940106
v 1.558728 0.846719 2.940106
v 1.110686 0.801804 3.011199
v 1.110686 0.740255 3.070442
v 1.110686 0.668725 3.117837
v 1.110686 0.584441 3.147460
v 1.558728 0.105355 2.857164
v 1.161246 0.242870 3.076367
v 1.161246 0.319945 3.123762
v 1.558728 0.319945 3.123762
v 1.558728 0.242870 3.076367
v 1.558728 0.181875 3.011199
v 1.161246 0.181875 3.011199
v 1.161246 0.135298 2.940106
v 1.558728 0.135298 2.940106
v 1.161246 0.105355 2.857164
v 1.558728 0.584441 3.147460
v 1.558728 0.668725 3.117837
v 1.558728 0.740255 3.070442
v 1.558728 0.491840 3.159308
v 1.558728 0.404229 3.147460
v 1.558728 0.801804 3.011199
v 1.161246 0.381495 3.141535
v 1.558728 0.900505 1.275353
v 1.110686 0.900505 1.275353
v 1.558728 0.965381 -0.128727
v 1.558728 0.953737 0.120097
v 1.558728 0.912150 1.026528
v 1.110686 0.953737 0.120097
v 1.110686 0.912150 1.026528
v 1.558728 0.668725 1.026528
v 1.110686 0.668725 1.026528
v 1.110686 0.657635 1.275353
v 1.558728 0.657635 1.275353
v 1.558728 0.719739 -0.128727
v 1.110686 0.719739 -0.128727
v 1.110686 0.708649 0.120097
v 1.558728 0.708649 0.120097
v 1.110686 0.965381 -0.128727
v 1.110686 0.770753 -1.266210
v 1.558728 0.770753 -1.266210
v 1.558728 1.017504 -1.266210
v 1.110686 1.017504 -1.266210
v 1.110686 1.006414 -1.029234
v 1.110686 0.760217 -1.029234
v 1.558728 0.760217 -1.029234
v 1.558728 1.006414 -1.029234
v 1.558728 0.540081 -2.095624
v 1.110686 0.540081 -2.095624
v 1.558728 1.135058 -2.545878
v 1.110686 1.135058 -2.545878
v 1.558728 1.055765 -2.095624
v 1.110686 1.055765 -2.095624
v 1.110686 1.107333 -2.646592
v 1.558728 1.107333 -2.646592
v 1.110686 0.400348 -2.711761
v 1.110686 1.058537 -2.735458
v 1.558728 0.602740 -2.883568
v 1.558728 0.714194 -2.901341
v 1.558728 0.821212 -2.895416
v 1.558728 0.915477 -2.859870
v 1.558728 1.000315 -2.800627
v 1.558728 1.058537 -2.735458
v 1.110686 0.714194 -2.901341
v 1.110686 0.602740 -2.883568
v 1.110686 0.821212 -2.895416
v 1.110686 0.509584 -2.836173
v 1.558728 0.509584 -2.836173
v 1.110686 1.000315 -2.800627
v 1.110686 0.915477 -2.859870
v 1.558728 -0.000000 1.974431
v 1.558728 0.426964 -2.753231
v 1.558728 -0.000000 -2.107473
v 1.161246 -0.000000 1.974431
v 1.161246 -0.000000 -2.107473
v 1.161246 0.381495 -2.676214
v 1.110686 0.426964 -2.753231
v 1.110686 0.492052 3.159308
v 1.110686 0.404071 3.150342
v 1.110686 0.400255 3.149029
vn 1.0000 -0.0000 -0.0000
vn -1.0000 -0.0000 -0.0000
vn -0.0000 -0.0000 -1.0000
vn -0.0000 -0.9641 0.2654
vn -0.0000 -0.0553 0.9985
vn -0.0000 0.4535 0.8913
vn -0.0000 0.1575 0.9875
vn -0.0000 -0.9989 -0.0461
vn -0.0000 -1.0000 -0.0000
vn -0.0000 0.9990 0.0455
vn -0.0000 0.9989 0.0461
vn -0.0000 0.8416 0.5401
vn -0.0080 0.8786 0.4774
vn -0.0000 0.8305 0.5571
vn 0.0114 0.8341 0.5515
vn -0.0000 0.7085 0.7057
vn 0.3494 0.9370 -0.0000
vn 0.3479 0.9375 -0.0000
vn -0.0000 -0.3528 0.9357
vn -0.0000 -0.8766 0.4813
vn -0.0000 -0.5725 0.8199
vn -0.0000 -0.7457 0.6662
vn -0.0000 1.0000 -0.0000
vn -0.0000 0.9930 -0.1185
vn -0.0000 0.9406 -0.3396
vn -0.0000 0.7301 -0.6833
vn -0.0000 0.8365 -0.5480
vn -0.0000 -0.8454 -0.5341
vn -0.0000 -0.5523 -0.8336
vn -0.0000 -0.6935 -0.7205
vn -0.0000 -0.9422 -0.3351
vn -0.0000 -0.0000 1.0000
vn -0.0000 -0.9949 -0.1009
vn -0.0000 0.5238 -0.8518
vn -0.0000 -0.3316 -0.9434
vn -0.0000 0.9990 0.0445
vn -0.0000 0.9990 0.0444
vn -0.0062 0.3255 -0.9455
vn -0.0064 0.3559 -0.9345
vn -0.0000 0.9989 0.0460
vn -0.0011 0.2707 -0.9627
vn -0.0000 0.2774 -0.9607
vn -0.0001 -0.1269 -0.9919
vn -0.0000 -0.1272 -0.9919
vn -0.0000 0.1014 -0.9948
vn -0.0064 0.1340 -0.9910
vn -0.0000 0.9989 0.0458
s 0
f 152//48 153//48 150//48
f 152//48 150//48 147//48
f 148//49 155//49 154//49
f 148//49 154//49 144//49
f 145//48 152//48 147//48
f 145//48 147//48 149//48
f 149//50 148//50 144//50
f 149//50 144//50 145//50
f 147//51 150//51 151//51
f 147//51 151//51 146//51
f 148//49 157//49 156//49
f 148//49 156//49 155//49
f 162//52 160//52 155//52
f 162//52 155//52 156//52
f 161//53 163//53 164//53
f 161//53 164//53 154//53
f 160//54 161//54 154//54
f 160//54 154//54 155//54
f 148//49 159//49 158//49
f 148//49 158//49 157//49
f 151//49 159//49 148//49
f 151//49 148//49 146//49
f 96//49 146//49 148//49
f 96//49 148//49 138//49
f 96//49 138//49 143//49
f 96//49 143//49 122//49
f 95//55 147//55 146//55
f 95//55 146//55 96//55
f 137//49 142//49 143//49
f 137//49 143//49 138//49
f 91//56 145//56 144//56
f 91//56 144//56 92//56
f 143//57 140//57 135//57
f 143//57 135//57 122//57
f 147//48 125//48 135//48
f 147//48 135//48 140//48
f 147//48 140//48 139//48
f 147//48 139//48 149//48
f 147//48 121//48 126//48
f 147//48 126//48 125//48
f 148//58 149//58 139//58
f 148//58 139//58 138//58
f 90//48 121//48 147//48
f 90//48 147//48 95//48
f 152//48 166//48 165//48
f 152//48 165//48 153//48
f 173//48 163//48 161//48
f 173//48 161//48 152//48
f 171//48 172//48 119//48
f 171//48 119//48 105//48
f 168//59 173//59 152//59
f 168//60 152//60 172//60
f 172//61 171//61 169//61
f 172//62 169//62 168//62
f 173//63 168//63 164//63
f 173//63 164//63 163//63
f 105//48 104//48 171//48
f 176//48 152//48 174//48
f 172//64 152//64 176//64
f 172//65 176//65 119//65
f 91//48 174//48 152//48
f 91//48 152//48 145//48
f 109//48 110//48 171//48
f 109//48 171//48 104//48
f 112//48 170//48 171//48
f 112//48 171//48 110//48
f 166//66 162//66 156//66
f 166//66 156//66 157//66
f 150//67 153//67 159//67
f 150//67 159//67 151//67
f 165//68 166//68 157//68
f 165//68 157//68 158//68
f 162//48 166//48 152//48
f 162//48 152//48 160//48
f 160//48 152//48 161//48
f 153//69 165//69 158//69
f 153//69 158//69 159//69
f 169//70 171//70 170//70
f 169//70 170//70 167//70
f 103//71 167//71 170//71
f 103//71 170//71 112//71
f 92//49 144//49 167//49
f 92//49 167//49 103//49
f 154//49 164//49 167//49
f 154//49 167//49 144//49
f 168//49 169//49 167//49
f 168//49 167//49 164//49
f 114//49 115//49 103//49
f 114//49 103//49 113//49
f 103//49 117//49 116//49
f 103//49 116//49 113//49
f 112//72 110//72 111//72
f 112//72 111//72 103//72
f 107//73 108//73 109//73
f 107//73 109//73 104//73
f 108//74 111//74 110//74
f 108//74 110//74 109//74
f 106//49 117//49 103//49
f 106//49 103//49 107//49
f 98//75 118//75 99//75
f 98//75 99//75 97//75
f 115//76 114//76 101//76
f 115//76 101//76 100//76
f 118//77 115//77 100//77
f 118//77 100//77 99//77
f 103//49 111//49 108//49
f 103//49 108//49 107//49
f 103//49 115//49 118//49
f 103//49 118//49 98//49
f 99//48 100//48 91//48
f 99//48 91//48 97//48
f 94//48 97//48 91//48
f 94//48 91//48 95//48
f 93//78 98//78 97//78
f 93//78 97//78 94//78
f 91//79 92//79 89//79
f 91//79 89//79 90//79
f 95//80 96//80 93//80
f 95//80 93//80 94//80
f 91//48 90//48 95//48
f 103//49 98//49 93//49
f 103//49 93//49 96//49
f 106//81 107//81 104//81
f 106//81 104//81 105//81
f 92//49 103//49 96//49
f 92//49 96//49 89//49
f 101//48 102//48 91//48
f 101//48 91//48 100//48
f 174//48 91//48 102//48
f 114//82 113//82 102//82
f 114//82 102//82 101//82
f 134//50 133//50 125//50
f 134//50 125//50 123//50
f 131//49 134//49 123//49
f 131//49 123//49 122//49
f 133//83 134//83 131//83
f 133//83 131//83 132//83
f 128//79 127//79 124//79
f 128//79 124//79 126//79
f 121//48 129//48 128//48
f 121//48 128//48 126//48
f 122//79 135//79 132//79
f 122//79 132//79 131//79
f 141//84 142//84 137//84
f 141//84 137//84 136//84
f 140//50 143//50 142//50
f 140//50 142//50 141//50
f 140//48 141//48 136//48
f 140//48 136//48 139//48
f 132//48 135//48 125//48
f 132//48 125//48 133//48
f 138//79 139//79 136//79
f 138//79 136//79 137//79
f 176//85 175//85 117//85
f 176//86 117//86 119//86
f 120//87 121//87 90//87
f 120//87 90//87 89//87
f 119//88 117//88 106//88
f 119//89 106//89 105//89
f 113//90 116//90 174//90
f 113//91 174//91 102//91
f 175//92 174//92 116//92
f 175//93 116//93 117//93
f 123//49 124//49 96//49
f 123//49 96//49 122//49
f 120//50 130//50 129//50
f 120//50 129//50 121//50
f 127//49 130//49 120//49
f 127//49 120//49 124//49
f 129//83 130//83 127//83
f 129//83 127//83 128//83
f 96//49 124//49 120//49
f 96//49 120//49 89//49
f 123//94 125//94 126//94
f 123//94 126//94 124//94
o Turret_01_havok_s_armor_1_0
v -0.776659 1.819912 0.475598
v 0.776649 1.819912 0.475589
v -1.286048 1.591392 0.648303
v -0.776659 1.765209 0.424537
v -0.528009 1.765209 0.424536
v -0.269640 1.418696 0.424534
v -0.269640 1.765209 0.424534
v -0.528009 1.418696 0.424536
v 0.776648 1.765209 0.424528
v 1.286040 1.591392 0.648286
v 0.529396 1.765209 0.424529
v 0.269629 1.765209 0.424531
v 0.269629 1.418696 0.424531
v 0.529396 1.418696 0.424529
v 0.269629 1.819912 0.475592
v -0.776652 2.622193 1.588019
v -1.286042 2.391071 1.761309
v -0.269640 1.819912 0.475595
v -0.269633 2.622193 1.588016
v 1.282059 2.391071 1.752483
v 0.776656 2.622193 1.588009
v 0.269437 2.622193 1.588019
vn -0.0000 -0.8111 0.5849
vn 0.4932 -0.7065 0.5076
vn 0.4901 -0.7070 0.5099
vn -0.0000 -0.6824 0.7310
vn -0.4894 -0.7071 0.5103
vn -0.4900 -0.7070 0.5099
vn -0.0000 -0.0000 1.0000
vn 0.4846 -0.5969 0.6395
vn -0.4846 -0.5969 0.6395
vn -0.0000 -0.6823 0.7310
s 0
f 177//95 194//95 195//95
f 177//95 195//95 192//95
f 192//96 193//96 179//96
f 192//97 179//97 177//97
f 181//98 183//98 194//98
f 181//98 194//98 177//98
f 197//95 198//95 191//95
f 197//95 191//95 178//95
f 186//99 196//99 197//99
f 186//100 197//100 178//100
f 181//101 184//101 182//101
f 181//101 182//101 183//101
f 177//102 179//102 180//102
f 177//98 180//98 181//98
f 185//103 186//103 178//103
f 185//98 178//98 187//98
f 191//104 188//104 187//104
f 191//98 187//98 178//98
f 189//101 190//101 187//101
f 189//101 187//101 188//101
o Turret_01_havok_s_armor_2_1
v 0.502184 1.343497 1.217383
v -0.158599 1.343497 1.812217
v -0.343317 1.343497 1.705535
v -0.468796 1.343497 1.533119
v 0.256612 1.343497 1.769113
v 0.053584 1.343497 1.834846
v -0.512956 1.343497 1.325143
v -0.468796 1.343497 1.116089
v -0.551192 1.281170 1.433980
v -0.467180 1.281170 1.636569
v -0.551192 1.281170 1.215228
v -0.512956 1.281170 1.325143
v -0.468796 1.281170 1.533119
v -0.343317 1.281170 1.705535
v -0.312082 1.281170 1.791742
v 0.502184 1.343497 1.431825
v 0.414941 1.343497 1.625793
v 0.414941 1.281170 1.625793
v 0.256612 1.281170 1.769113
v 0.502184 1.281170 1.431825
v 0.551191 1.281170 1.433980
v 0.467179 1.281170 1.636569
v 0.502184 1.281170 1.217383
v 0.551191 1.281170 1.215228
v 0.053584 1.281170 1.834846
v 0.312081 1.281170 1.791742
v 0.109592 1.281170 1.875795
v -0.158599 1.281170 1.812217
v -0.109592 1.281170 1.875795
v -0.343317 1.343497 0.943674
v -0.158599 1.343497 0.836992
v 0.053584 1.343497 0.814362
v 0.256612 1.343497 0.880096
v 0.414941 1.343497 1.023416
v 0.414941 1.281170 1.023416
v 0.256612 1.281170 0.880096
v 0.312081 1.281170 0.857466
v 0.467179 1.281170 1.012640
v -0.467180 1.281170 1.012640
v -0.312082 1.281170 0.857466
v -0.343317 1.281170 0.943674
v -0.468796 1.281170 1.116089
v 0.053584 1.281170 0.814362
v -0.158599 1.281170 0.836992
v -0.109592 1.281170 0.773414
v 0.109592 1.281170 0.773414
v -0.551190 1.216479 1.434246
v -0.467275 1.216479 1.636832
v -0.551192 1.216479 1.214969
v 0.467279 1.216479 1.636826
v 0.551191 1.216479 1.434240
v 0.551189 1.216479 1.214963
v 0.109641 1.216479 1.875794
v 0.312227 1.216479 1.791880
v -0.109636 1.216479 1.875795
v -0.312222 1.216479 1.791884
v 0.467274 1.216479 1.012378
v 0.312221 1.216479 0.857326
v -0.467279 1.216479 1.012383
v -0.312227 1.216479 0.857330
v 0.109635 1.216479 0.773414
v -0.109642 1.216479 0.773415
vn -0.9120 -0.0000 0.4102
vn -0.0000 -1.0000 -0.0000
vn -0.7071 -0.0031 0.7071
vn -0.7073 -0.0039 0.7069
vn -0.9239 -0.0029 0.3827
vn -0.9237 -0.0015 0.3831
vn 0.7071 -0.0031 -0.7071
vn 0.7073 -0.0039 -0.7069
vn 0.3827 -0.0003 -0.9239
vn 0.3834 -0.0028 -0.9236
vn -0.6711 -0.0000 0.7414
vn 0.8085 -0.0000 0.5884
vn -0.3080 -0.0000 0.9514
vn 0.3827 -0.0028 0.9239
vn 0.3834 -0.0003 0.9236
vn 0.5001 -0.0000 0.8660
vn -0.3827 -0.0003 0.9239
vn -0.3834 -0.0028 0.9236
vn -0.0000 -0.0000 1.0000
vn 0.9784 -0.0000 0.2067
vn 0.7071 -0.0039 0.7071
vn 0.7073 -0.0031 0.7069
vn 0.1060 -0.0000 0.9944
vn 0.9239 -0.0015 0.3827
vn 0.9237 -0.0029 0.3831
vn 0.5001 -0.0000 -0.8660
vn 0.8085 -0.0000 -0.5884
vn 0.9782 -0.0000 -0.2077
vn -0.9120 -0.0000 -0.4102
vn -0.6711 -0.0000 -0.7414
vn 1.0000 -0.0000 -0.0000
vn 0.9239 -0.0029 -0.3827
vn 0.9237 -0.0016 -0.3831
vn -0.0000 -0.0000 -1.0000
vn 0.1060 -0.0000 -0.9944
vn -0.7071 -0.0039 -0.7071
vn -0.7073 -0.0031 -0.7069
vn -0.3827 -0.0028 -0.9239
vn -0.3834 -0.0003 -0.9236
vn -1.0000 -0.0000 -0.0000
vn -0.9239 -0.0015 -0.3827
vn -0.9237 -0.0029 -0.3831
vn -0.3080 -0.0000 -0.9514
s 0
f 232//105 233//105 221//105
f 232//105 221//105 199//105
f 235//106 236//106 222//106
f 235//106 222//106 233//106
f 235//107 256//107 255//107
f 235//108 255//108 236//108
f 239//106 240//106 237//106
f 239//106 237//106 238//106
f 236//109 255//109 250//109
f 236//110 250//110 222//110
f 233//106 222//106 221//106
f 233//106 234//106 235//106
f 228//106 229//106 199//106
f 228//106 199//106 206//106
f 213//111 254//111 246//111
f 213//112 246//112 208//112
f 227//113 253//113 254//113
f 227//114 254//114 213//114
f 231//115 234//115 233//115
f 231//115 233//115 232//115
f 232//106 199//106 231//106
f 230//106 231//106 199//106
f 230//106 199//106 229//106
f 206//116 240//116 239//116
f 206//116 239//116 228//116
f 234//106 241//106 244//106
f 234//106 244//106 235//106
f 230//117 241//117 234//117
f 230//117 234//117 231//117
f 238//118 258//118 260//118
f 238//119 260//119 243//119
f 228//120 239//120 242//120
f 228//120 242//120 229//120
f 238//106 243//106 242//106
f 238//106 242//106 239//106
f 244//121 259//121 256//121
f 244//122 256//122 235//122
f 243//123 260//123 259//123
f 243//123 259//123 244//123
f 205//124 210//124 240//124
f 205//124 240//124 206//124
f 209//106 237//106 240//106
f 209//106 240//106 210//106
f 237//125 257//125 258//125
f 237//126 258//126 238//126
f 243//106 244//106 241//106
f 243//106 241//106 242//106
f 229//127 242//127 241//127
f 229//127 241//127 230//127
f 209//128 247//128 257//128
f 209//129 257//129 237//129
f 200//130 226//130 212//130
f 200//130 212//130 201//130
f 201//131 212//131 211//131
f 201//131 211//131 202//131
f 212//106 213//106 208//106
f 212//106 208//106 211//106
f 202//132 211//132 210//132
f 202//132 210//132 205//132
f 214//133 218//133 216//133
f 214//133 216//133 215//133
f 215//134 216//134 217//134
f 215//134 217//134 203//134
f 199//106 214//106 215//106
f 199//106 215//106 203//106
f 207//106 210//106 211//106
f 207//106 211//106 208//106
f 205//106 206//106 199//106
f 205//106 199//106 202//106
f 199//106 203//106 204//106
f 199//106 204//106 200//106
f 201//106 202//106 199//106
f 201//106 199//106 200//106
f 209//106 210//106 207//106
f 207//135 245//135 247//135
f 207//135 247//135 209//135
f 208//136 246//136 245//136
f 208//137 245//137 207//137
f 218//106 219//106 220//106
f 218//106 220//106 216//106
f 225//138 251//138 253//138
f 225//138 253//138 227//138
f 227//106 226//106 223//106
f 227//106 223//106 225//106
f 204//139 223//139 226//139
f 204//139 226//139 200//139
f 226//106 227//106 213//106
f 226//106 213//106 212//106
f 216//106 220//106 224//106
f 216//106 224//106 217//106
f 220//140 248//140 252//140
f 220//141 252//141 224//141
f 224//142 252//142 251//142
f 224//143 251//143 225//143
f 218//106 221//106 222//106
f 218//106 222//106 219//106
f 199//144 221//144 218//144
f 199//144 218//144 214//144
f 219//145 249//145 248//145
f 219//146 248//146 220//146
f 217//106 224//106 225//106
f 217//106 225//106 223//106
f 203//147 217//147 223//147
f 203//147 223//147 204//147
f 222//144 250//144 249//144
f 222//144 249//144 219//144
o Turret_01_havok_s_armor_3_2
v -0.376830 1.924326 1.588052
v -0.376828 1.347684 1.966385
v -0.376836 1.347684 0.701252
v -0.376836 1.578560 0.701252
v -0.376838 1.418695 0.435566
v -0.376837 1.578560 0.614200
v -0.376825 1.924326 2.497465
v -0.376825 1.655089 2.497465
v 0.376828 1.347684 0.701247
v 0.376836 1.347684 1.966380
v 0.376834 1.924326 1.588047
v 0.376828 1.578560 0.701247
v 0.376839 1.924326 2.497460
v 0.376839 1.655089 2.497460
v 0.376828 1.578560 0.614195
v 0.376826 1.418695 0.435561
v 0.376827 1.638753 0.568945
v 0.376826 1.715399 0.435561
v 0.376827 1.691329 0.572773
v 0.376827 1.732751 0.553630
v 0.376827 1.743838 0.468439
v 0.376827 1.752134 0.512836
v -0.376838 1.715399 0.435566
v -0.376837 1.638753 0.568950
v -0.376837 1.691329 0.572778
v -0.376837 1.743838 0.468444
v -0.376837 1.732751 0.553635
v -0.376837 1.752134 0.512841
vn -1.0000 -0.0000 -0.0000
vn 1.0000 -0.0000 -0.0000
s 0
f 280//148 282//148 281//148
f 279//148 280//148 281//148
f 279//148 281//148 278//148
f 278//148 277//148 279//148
f 265//149 283//149 284//149
f 265//149 284//149 266//149
f 287//149 286//149 288//149
f 286//149 287//149 285//149
f 286//149 285//149 283//149
f 283//149 285//149 284//149
f 267//149 268//149 262//149
f 267//149 262//149 261//149
f 263//149 265//149 266//149
f 263//149 266//149 264//149
f 263//149 264//149 261//149
f 263//149 261//149 262//149
f 271//148 272//148 269//148
f 271//148 269//148 270//148
f 277//148 278//148 276//148
f 277//148 276//148 275//148
f 275//148 276//148 269//148
f 275//148 269//148 272//148
f 270//148 274//148 273//148
f 270//148 273//148 271//148
o Turret_01_havok_s_armor_8_3
v -0.312222 1.216479 1.791883
v 0.467274 1.216479 1.012378
v -0.467275 1.216479 1.636832
v -0.551190 1.216479 1.434246
v -0.551192 1.216479 1.214969
v -0.109636 1.216479 1.875795
v 0.109641 1.216479 1.875794
v 0.312227 1.216479 1.791880
v 0.467279 1.216479 1.636826
v 0.551191 1.216479 1.434240
v 0.551189 1.216479 1.214963
v -0.467279 1.216479 1.012383
v -0.312227 1.216479 0.857329
v -0.109642 1.216479 0.773415
v 0.109635 1.216479 0.773414
v 0.312221 1.216479 0.857326
v -0.269633 2.622193 1.588016
v -0.269640 1.819912 0.475595
v 0.269630 1.819912 0.475592
v 0.269437 2.622193 1.588019
v -0.269641 1.418696 0.424534
v 0.269629 1.418696 0.424531
v 0.269629 1.765209 0.424531
v -0.269641 1.765209 0.424534
vn -0.0000 1.0000 -0.0000
vn -0.0000 -0.8111 0.5849
vn -0.0000 -0.6824 0.7310
vn -0.0000 -0.0000 1.0000
s 0
f 303//150 290//150 304//150
f 290//150 303//150 302//150
f 290//150 302//150 301//150
f 307//151 308//151 305//151
f 307//151 305//151 306//151
f 306//152 312//152 311//152
f 306//152 311//152 307//152
f 311//153 312//153 309//153
f 311//153 309//153 310//153
f 290//150 301//150 300//150
f 290//150 300//150 293//150
f 290//150 293//150 292//150
f 290//150 292//150 291//150
f 289//150 290//150 291//150
f 294//150 295//150 290//150
f 294//150 290//150 289//150
f 298//150 299//150 290//150
f 298//150 290//150 297//150
f 296//150 297//150 290//150
f 296//150 290//150 295//150
o Hull_havok_s_armor_12_0
v 0.752402 1.072343 2.032138
v 0.688446 1.128351 0.678670
v 0.563474 1.218764 1.891896
v 0.563474 1.218764 0.756730
v -0.563480 1.218764 0.756730
v -0.563480 1.218764 1.891896
v -0.752408 1.072343 2.032138
v -0.688452 1.128351 0.678670
v 1.106895 1.046516 2.655881
v 1.106895 1.145706 0.260381
v 1.064323 1.145706 0.260381
v -1.106901 1.046516 2.655881
v -1.106901 1.145706 0.260381
v -1.060618 1.145706 0.260381
v -1.106901 1.203985 -1.135215
v -1.060618 1.202006 -1.135300
v 1.064242 1.202006 -1.135300
v 1.106895 1.203985 -1.135215
vn -0.0428 -0.9982 -0.0417
vn -0.0000 -0.9992 -0.0403
vn -0.0000 -0.9991 -0.0415
vn 0.6108 -0.7918 -0.0039
vn 0.5862 -0.8102 -0.0000
vn -0.0000 -0.6535 0.7569
vn 0.0464 -0.9981 -0.0417
vn -0.0000 -0.9991 -0.0414
vn -0.0001 -0.9991 -0.0414
vn -0.5862 -0.8102 -0.0000
vn -0.6108 -0.7918 -0.0039
vn 0.0001 -0.9991 -0.0414
vn -0.0000 -0.6917 -0.7222
vn -0.0000 -1.0000 -0.0000
s 0
f 325//154 327//154 328//154
f 325//155 328//155 326//155
f 325//156 326//156 320//156
f 318//157 319//157 320//157
f 318//158 320//158 317//158
f 316//159 317//159 320//159
f 316//159 320//159 314//159
f 320//156 326//156 323//156
f 320//156 323//156 314//156
f 329//160 330//160 322//160
f 329//155 322//155 323//155
f 319//161 324//161 325//161
f 319//162 325//162 320//162
f 315//163 316//163 314//163
f 315//164 314//164 313//164
f 323//161 322//161 313//161
f 323//165 313//165 314//165
f 321//161 313//161 322//161
f 319//166 318//166 315//166
f 319//166 315//166 313//166
f 321//161 324//161 319//161
f 321//161 319//161 313//161
f 315//167 318//167 317//167
f 315//167 317//167 316//167
o Hull_havok_s_armor_7_1
v -1.106901 0.398785 2.526404
v 1.106895 0.398785 2.526404
v 1.106895 0.398786 -2.447448
v -1.106901 0.398786 -2.447448
v -1.106901 1.203985 -1.135215
v -1.106901 1.241856 -1.966364
v -1.278829 1.202006 -1.135301
v 1.106895 1.241856 -1.966340
v 1.106895 1.203984 -1.135215
v 1.278297 1.202006 -1.135301
vn 0.0116 0.9989 0.0455
vn -0.0115 0.9989 0.0455
vn -0.0000 1.0000 -0.0000
s 0
f 338//168 339//168 340//168
f 335//169 336//169 337//169
f 333//170 334//170 331//170
f 333//170 331//170 332//170
o Hull_havok_s_armor_15_2
v 0.390041 1.034373 -2.614951
v 0.390041 1.182009 -2.231745
v -0.511779 1.181050 -2.234232
v -0.511779 1.031193 -2.623166
vn -0.0000 -0.9331 0.3595
s 0
f 343//171 344//171 341//171
f 343//171 341//171 342//171
o Hull_havok_s_armor_16_3
v -0.513329 0.969352 -2.810388
v -0.513329 0.622406 -2.738774
v 0.465848 0.622407 -2.738774
v 0.465848 0.969352 -2.810389
vn -0.0000 0.2022 0.9794
s 0
f 347//172 348//172 345//172
f 347//172 345//172 346//172
o Hull_havok_s_armor_1_4
v 1.090265 1.240231 -2.046972
v 1.090779 1.631957 -1.985957
v -1.090570 1.631958 -1.985957
v -1.090274 1.240231 -2.046972
vn -0.0000 -0.1539 0.9881
s 0
f 351//173 352//173 349//173
f 351//173 349//173 350//173
o Hull_havok_s_armor_5_5
v 1.090675 0.974869 -2.769397
v 1.106895 1.246129 -2.065315
v 0.390041 1.182009 -2.231745
v 0.390041 1.034373 -2.614951
v -0.511779 1.181050 -2.234232
v -1.106901 1.246129 -2.065315
v -1.090681 0.974869 -2.769397
v -0.511779 1.031193 -2.623166
v 0.465848 0.969351 -2.810389
v -0.513329 0.969352 -2.810389
v -1.106901 0.969353 -2.810389
v 1.106895 0.969351 -2.810389
v 1.090265 1.240231 -2.046972
v -1.090274 1.240231 -2.046972
v -1.106901 1.241856 -1.966364
v 1.106895 1.241855 -1.966340
vn -0.0000 -0.9331 0.3595
vn -0.0000 -0.9911 0.1334
vn -0.0000 -0.9520 -0.3061
vn 0.2932 -0.9551 -0.0412
vn -0.2933 -0.9551 -0.0412
vn -0.0000 -0.9332 0.3594
s 0
f 358//174 357//174 355//174
f 358//174 355//174 354//174
f 353//175 361//175 364//175
f 365//176 366//176 358//176
f 365//176 358//176 354//176
f 368//177 365//177 354//177
f 367//178 358//178 366//178
f 362//175 359//175 363//175
f 356//174 353//174 355//174
f 353//174 354//174 355//174
f 359//174 360//174 357//174
f 359//174 357//174 358//174
f 359//175 362//175 361//175
f 359//175 361//175 353//175
f 356//179 360//179 359//179
f 356//174 359//174 353//174
o Hull_havok_s_armor_2_6
v 0.465848 0.622406 -2.738774
v -0.513329 0.622406 -2.738774
v -1.106901 0.583234 -2.730688
v 1.106895 0.583234 -2.730688
v 1.106895 0.969351 -2.810389
v 0.465848 0.969351 -2.810389
v -1.106901 0.969353 -2.810388
v -0.513329 0.969352 -2.810388
vn -0.0000 0.2022 0.9794
s 0
f 375//180 371//180 370//180
f 376//180 375//180 370//180
f 371//180 372//180 369//180
f 371//180 369//180 370//180
f 373//180 374//180 369//180
f 373//180 369//180 372//180
o Hull_havok_s_armor_13_7
v 1.106895 0.583234 -2.730688
v -1.106901 0.583234 -2.730688
v -1.106901 0.588098 -2.695256
v 1.106895 0.588098 -2.695256
v -1.106901 0.398786 -2.447448
v 1.106895 0.398786 -2.447448
vn -0.0000 0.7947 0.6071
vn -0.0000 0.7946 0.6071
vn -0.0000 0.9907 -0.1360
s 0
f 381//181 382//181 380//181
f 381//182 380//182 379//182
f 379//183 380//183 377//183
f 379//183 377//183 378//183
o Hull_havok_s_armor_3_8
v -1.106901 0.398786 -2.447448
v -1.106901 1.203984 -1.135216
v -1.106901 1.145706 0.260381
v -1.106901 0.398785 2.526404
v -1.106901 1.046516 2.655881
v -1.106901 1.241857 -1.966365
v -1.106901 1.246129 -2.065315
v -1.106901 0.588098 -2.695256
v -1.090681 0.974869 -2.769398
v -1.106901 0.583234 -2.730690
v -1.106901 0.969353 -2.810389
v -1.285726 1.632068 -1.135300
v -1.278829 1.202006 -1.135300
v -1.060618 1.632068 -1.135300
v -1.060618 1.202006 -1.135300
v -1.090274 1.240231 -2.046973
v -1.090570 1.631958 -1.985957
v -1.060618 1.529903 0.198532
v -1.060618 1.145706 0.260381
v 1.106895 1.241855 -1.966341
v 1.278297 1.202006 -1.135300
v 1.278297 1.632068 -1.135300
v 1.106895 1.203984 -1.135216
v 1.064243 1.632068 -1.135300
v 1.064243 1.202006 -1.135300
v 1.090779 1.631958 -1.985957
v 1.090265 1.240231 -2.046973
v 1.064324 1.145706 0.260381
v 1.064243 1.529903 0.198532
v 1.106895 0.398786 -2.447448
v 1.106895 1.246129 -2.065315
v 1.090675 0.974869 -2.769398
v 1.106895 0.588098 -2.695256
v 1.106895 0.969351 -2.810389
v 1.106895 0.583234 -2.730690
v 1.106895 0.398785 2.526404
v 1.106895 1.145706 0.260381
v 1.106895 1.046516 2.655881
vn -0.9794 -0.0000 0.2020
vn -0.9760 -0.0322 0.2152
vn -1.0000 -0.0002 -0.0000
vn -1.0000 -0.0000 -0.0000
vn 0.0020 -0.0000 -1.0000
vn -0.0000 -0.0002 -1.0000
vn -0.0005 -0.0000 -1.0000
vn -0.9992 -0.0408 0.0056
vn -0.9307 -0.0740 -0.3583
vn -0.9987 -0.0349 0.0365
vn 1.0000 -0.0000 -0.0000
vn 0.9987 -0.0349 0.0365
vn 0.9294 -0.1067 -0.3534
vn 0.9793 0.0194 0.2016
vn 0.9741 -0.0341 0.2235
vn -0.0018 -0.0000 -1.0000
vn 0.9790 0.0157 0.2033
vn 0.0005 -0.0000 -1.0000
s 0
f 409//184 402//184 404//184
f 409//185 404//185 408//185
f 407//186 410//186 411//186
f 407//187 411//187 406//187
f 407//188 406//188 405//188
f 402//184 403//184 404//184
f 405//189 406//189 404//189
f 405//190 404//190 403//190
f 412//187 418//187 419//187
f 412//187 419//187 405//187
f 420//187 419//187 418//187
f 417//191 415//191 414//191
f 417//192 414//192 416//192
f 402//187 413//187 412//187
f 402//187 412//187 405//187
f 415//187 412//187 413//187
f 415//193 413//193 414//193
f 389//194 383//194 390//194
f 389//195 390//195 391//195
f 393//196 391//196 390//196
f 393//194 390//194 392//194
f 383//194 389//194 388//194
f 383//194 388//194 384//194
f 385//194 386//194 383//194
f 385//194 383//194 384//194
f 387//194 386//194 385//194
f 394//197 388//197 398//197
f 394//198 398//198 399//198
f 400//194 401//194 397//194
f 400//194 397//194 396//194
f 397//199 384//199 396//199
f 394//200 395//200 388//200
f 394//189 396//189 384//189
f 394//201 384//201 395//201
o Hull_havok_s_armor_4_9
v -1.106901 0.398785 2.526404
v -1.106901 1.046516 2.655881
v 1.106895 1.046516 2.655881
v 1.106895 0.398785 2.526404
vn -0.0000 0.1960 -0.9806
s 0
f 423//202 424//202 421//202
f 423//202 421//202 422//202
o Hull_havok_s_armor_6_10
v 1.064243 1.529903 0.198533
v -1.060618 1.529903 0.198533
v -1.060618 1.632068 -1.135300
v 1.064243 1.632068 -1.135300
v 1.090779 1.631958 -1.985957
v -1.090570 1.631958 -1.985957
v -1.285726 1.632068 -1.135300
v 1.278297 1.632068 -1.135300
vn -0.0000 -1.0000 0.0001
vn -0.0000 -0.9971 -0.0764
s 0
f 431//203 430//203 427//203
f 432//203 428//203 429//203
f 427//204 428//204 425//204
f 427//204 425//204 426//204
f 427//203 430//203 429//203
f 427//203 429//203 428//203
o Hull_havok_s_armor_11_11
v 1.064242 1.529903 0.198533
v 1.064323 1.145706 0.260381
v -1.060618 1.145706 0.260381
v -1.060618 1.529903 0.198533
vn -0.0000 -0.1589 -0.9873
s 0
f 435//205 436//205 433//205
f 435//205 433//205 434//205
o Gun_01_havok_s_gun_0
v -0.153229 2.071930 -0.056209
v -0.153229 1.717259 -0.056209
v 0.152578 1.717259 -0.056209
v 0.152578 2.071930 -0.056209
v -0.350040 2.486339 1.417348
v 0.349389 2.486339 1.417348
v -0.153229 2.377383 1.417348
v 0.152578 2.377383 1.417348
v -0.091043 2.134298 -4.704112
v -0.091043 2.315391 -4.704112
v 0.090392 2.315391 -4.704112
v 0.090392 2.134298 -4.704112
v 0.135494 2.089213 -5.626807
v 0.134127 2.089213 -5.069058
v 0.134127 2.360100 -5.069058
v 0.135494 2.360100 -5.626807
v -0.135462 2.089213 -5.626807
v -0.135462 2.360100 -5.626807
v -0.136828 2.089213 -5.069058
v -0.136828 2.360100 -5.069058
v -0.153079 2.270118 1.417348
v -0.153079 1.717259 0.678527
v 0.152428 1.717259 0.678527
v 0.152428 2.270118 1.417348
v 0.349389 2.486339 1.706297
v -0.350040 2.486339 1.706297
v -0.350040 2.270118 1.417348
v 0.349389 2.270118 1.417348
vn -0.0000 -0.0000 1.0000
vn -0.0000 1.0000 -0.0000
vn -0.0000 -1.0000 -0.0000
vn -0.9999 0.0014 0.0101
vn -0.0000 0.9999 0.0134
vn -1.0000 -0.0000 -0.0025
vn -0.0000 0.9925 -0.1226
vn -0.0000 -0.9926 -0.1216
vn 1.0000 -0.0000 0.0025
vn 0.9922 -0.0000 -0.1245
vn -0.9929 -0.0000 -0.1190
vn -0.9958 -0.0908 0.0121
vn -0.9999 -0.0000 0.0101
vn 1.0000 0.0002 -0.0001
vn 1.0000 -0.0000 -0.0002
vn -1.0000 0.0002 -0.0001
vn -1.0000 -0.0000 -0.0002
vn 0.9958 -0.0908 0.0121
vn 0.9999 -0.0000 0.0101
vn 0.9999 0.0014 0.0101
vn -0.0000 -0.9999 0.0101
vn 1.0000 -0.0000 -0.0000
vn -1.0000 -0.0000 -0.0000
s 0
f 452//206 454//206 453//206
f 452//206 453//206 449//206
f 453//207 455//207 450//207
f 453//207 450//207 449//207
f 451//208 456//208 454//208
f 451//208 454//208 452//208
f 444//209 447//209 460//209
f 448//210 445//210 437//210
f 448//210 437//210 440//210
f 451//211 452//211 449//211
f 451//211 449//211 450//211
f 450//212 455//212 445//212
f 450//212 445//212 448//212
f 446//213 456//213 451//213
f 446//213 451//213 447//213
f 438//206 439//206 440//206
f 438//206 440//206 437//206
f 454//214 456//214 455//214
f 454//214 455//214 453//214
f 455//215 456//215 446//215
f 455//215 446//215 445//215
f 451//216 450//216 448//216
f 451//216 448//216 447//216
f 448//217 440//217 460//217
f 448//218 460//218 447//218
f 461//208 462//208 441//208
f 461//208 441//208 442//208
f 443//206 444//206 442//206
f 443//206 442//206 441//206
f 463//206 457//206 443//206
f 463//206 443//206 441//206
f 437//219 457//219 458//219
f 437//220 458//220 438//220
f 458//207 459//207 439//207
f 458//207 439//207 438//207
f 459//221 460//221 440//221
f 459//222 440//222 439//222
f 457//223 437//223 445//223
f 457//224 445//224 446//224
f 443//225 457//225 446//225
f 446//226 447//226 444//226
f 446//226 444//226 443//226
f 444//206 460//206 464//206
f 444//206 464//206 442//206
f 463//227 441//227 462//227
f 461//228 442//228 464//228
o Gun_01_havok_s_gunBreech_1
v -0.350040 1.687549 1.417348
v -0.350040 1.687549 2.940355
v 0.349389 1.687549 2.940355
v 0.349389 1.687549 1.417348
v -0.350040 2.010265 2.468416
v 0.349389 2.010265 2.468416
v 0.349389 2.010265 2.940355
v -0.350040 2.010265 2.940355
v -0.350040 2.486339 2.468416
v -0.153229 1.717206 1.417348
v 0.349389 2.486339 2.468416
v 0.152578 1.717206 1.417348
v -0.350040 2.270118 1.417348
v -0.350040 2.486339 1.706298
v -0.153079 2.270118 1.417348
v 0.349389 2.486339 1.706298
v 0.349389 2.270118 1.417348
v -0.153079 1.717260 0.678528
v 0.152428 1.717260 0.678528
v 0.152428 2.270118 1.417348
vn -0.0000 -1.0000 -0.0000
vn -0.0000 -0.0000 -1.0000
vn -1.0000 -0.0000 -0.0000
vn 1.0000 -0.0003 0.0002
vn -0.0000 -0.0000 1.0000
vn -0.0000 1.0000 0.0001
vn -1.0000 -0.0003 0.0002
vn 1.0000 -0.0000 -0.0000
vn -0.0000 1.0000 -0.0000
s 0
f 478//229 480//229 475//229
f 478//229 475//229 473//229
f 473//230 475//230 470//230
f 473//230 470//230 469//230
f 475//231 480//231 470//231
f 468//231 467//231 481//231
f 479//232 474//232 482//232
f 481//233 484//233 476//233
f 481//233 476//233 468//233
f 468//233 476//233 474//233
f 468//233 474//233 465//233
f 483//234 482//234 474//234
f 483//234 474//234 476//234
f 483//235 476//235 484//235
f 467//231 470//231 480//231
f 467//231 480//231 481//231
f 472//230 471//230 467//230
f 472//230 467//230 466//230
f 472//236 466//236 469//236
f 467//237 468//237 465//237
f 467//237 465//237 466//237
f 471//229 472//229 469//229
f 471//229 469//229 470//229
f 470//231 467//231 471//231
f 469//236 478//236 473//236
f 474//233 479//233 477//233
f 474//233 477//233 465//233
f 478//236 469//236 466//236
f 478//236 466//236 477//236
f 465//236 477//236 466//236
