# Blender 5.1.0
# www.blender.org
o Chassis_havok_s_leftTrack_0
v -1.288537 0.991781 2.458021
v -1.288537 0.266001 2.597180
v -1.288537 0.042957 1.945915
v -1.288537 0.000978 1.734393
v -0.997184 0.266001 2.597180
v -0.997184 0.042957 1.945915
v -0.997184 0.370190 2.458021
v -0.997184 0.414698 2.313295
v -0.997184 0.546198 2.652844
v -0.997184 0.983183 2.569349
v -0.997184 0.991781 2.458021
v -0.799284 0.414698 2.313295
v -0.799284 0.546198 2.652844
v -0.799284 0.370190 2.458021
v -0.799284 0.415204 2.630579
v -1.288537 0.983183 2.569349
v -0.997184 0.891133 2.741906
v -0.997184 0.942216 2.675110
v -1.288537 0.942216 2.675110
v -0.997184 0.415204 2.630579
v -0.997184 0.351476 2.741906
v -1.288537 0.351476 2.741906
v -0.997184 0.872925 2.764172
v -0.997184 0.868373 2.769738
v -1.288537 0.868373 2.769738
v -0.997184 0.908835 2.741906
v -0.997184 0.908835 2.764172
v -0.997184 0.770254 2.830968
v -1.288537 0.770254 2.830968
v -0.997184 0.657973 2.858800
v -1.288537 0.657973 2.858800
v -0.997184 0.544175 2.853234
v -1.288537 0.544175 2.853234
v -1.288537 0.440492 2.814269
v -0.997184 0.440492 2.814269
v -0.997184 0.573004 2.753039
v -0.799284 0.573004 2.753039
v -0.799284 0.908835 2.741906
v -0.799284 0.908835 2.764172
v -0.997184 1.036289 -2.529449
v -0.997184 0.000978 1.734393
v -0.997184 0.000978 -1.733458
v -1.288537 0.000978 -1.733458
v -1.288537 1.036289 -2.529449
v -1.288537 0.462240 -2.679742
v -1.288537 0.044980 -1.933847
v -0.997184 0.462240 -2.679742
v -0.997184 0.044980 -1.933847
v -1.288537 0.978125 -2.713140
v -0.997184 0.978125 -2.713140
v -1.288537 0.595763 -2.807768
v -0.997184 0.595763 -2.807768
v -0.997184 0.684779 -2.835600
v -1.288537 0.684779 -2.835600
v -0.997184 0.779864 -2.835600
v -1.288537 0.779864 -2.835600
v -0.997184 0.869385 -2.807768
v -1.288537 0.869385 -2.807768
v -1.288537 0.518381 -2.752105
v -0.997184 0.518381 -2.752105
vn -0.0000 -1.0000 -0.0089
vn -0.0000 0.9809 -0.1947
vn -0.0000 1.0000 -0.0000
vn 1.0000 -0.0000 -0.0000
vn -0.0000 0.8727 0.4882
vn -1.0000 -0.0000 -0.0000
vn -0.0000 -1.0000 -0.0000
vn -0.0000 -0.0000 1.0000
vn -0.0000 0.0371 -0.9993
vn -0.0000 0.7901 0.6130
vn -0.0000 0.2984 0.9544
vn -0.0000 -0.9533 0.3019
vn -0.0000 0.9767 0.2145
vn -0.0000 0.5839 0.8118
vn -0.0000 -0.6565 0.7544
vn -0.0000 -0.2969 0.9549
vn -0.0000 0.0331 -0.9995
vn -0.0562 -0.0000 -0.9984
vn -0.0000 -0.9325 -0.3612
vn -0.0000 0.9676 -0.2524
vn 0.0094 -0.7741 -0.6330
vn -0.0000 -0.7884 -0.6152
vn -0.0000 0.8610 -0.5085
vn -0.0000 -0.9970 -0.0770
vn -0.0000 0.9461 -0.3240
vn -0.0000 0.9558 0.2939
vn -0.0000 -0.9325 0.3611
vn -0.0000 0.6131 -0.7900
vn 0.0213 -0.2385 0.9709
vn -0.0000 -0.2500 0.9682
vn -0.0000 -0.5294 -0.8484
vn -0.0000 -0.7943 -0.6075
vn -0.0000 -0.2406 -0.9706
vn -0.0000 0.3518 -0.9361
vn -0.0000 0.6308 -0.7760
vn -0.0000 0.0489 -0.9988
s 0
f 1//1 44//1 40//1
f 1//1 40//1 11//1
f 3//2 6//2 41//2
f 3//2 41//2 4//2
f 42//3 43//3 4//3
f 42//3 4//3 41//3
f 1//4 46//4 45//4
f 1//4 45//4 44//4
f 46//5 48//5 47//5
f 46//5 47//5 45//5
f 40//6 47//6 48//6
f 40//6 48//6 42//6
f 43//4 46//4 1//4
f 43//4 1//4 4//4
f 40//6 42//6 41//6
f 40//6 41//6 6//6
f 26//7 38//7 39//7
f 26//7 39//7 27//7
f 26//8 17//8 38//8
f 36//9 23//9 37//9
f 36//6 32//6 30//6
f 36//6 30//6 28//6
f 8//6 11//6 40//6
f 8//6 40//6 6//6
f 35//6 32//6 36//6
f 35//6 36//6 21//6
f 24//6 23//6 36//6
f 24//6 36//6 28//6
f 44//4 56//4 58//4
f 44//4 58//4 49//4
f 54//4 56//4 44//4
f 54//4 44//4 51//4
f 59//4 51//4 44//4
f 59//4 44//4 45//4
f 40//6 50//6 47//6
f 52//6 57//6 55//6
f 52//6 55//6 53//6
f 60//6 57//6 52//6
f 57//6 60//6 47//6
f 57//6 47//6 50//6
f 60//10 59//10 45//10
f 60//10 45//10 47//10
f 53//11 54//11 51//11
f 53//11 51//11 52//11
f 49//12 50//12 40//12
f 49//12 40//12 44//12
f 48//13 46//13 43//13
f 48//13 43//13 42//13
f 55//8 56//8 54//8
f 55//8 54//8 53//8
f 59//14 60//14 52//14
f 59//14 52//14 51//14
f 58//15 57//15 50//15
f 58//15 50//15 49//15
f 57//16 58//16 56//16
f 57//16 56//16 55//16
f 27//17 39//17 37//17
f 27//18 37//18 23//18
f 16//4 19//4 2//4
f 16//4 2//4 1//4
f 18//19 19//19 16//19
f 18//19 16//19 10//19
f 9//6 17//6 18//6
f 9//6 18//6 10//6
f 20//20 15//20 14//20
f 20//20 14//20 7//20
f 19//21 23//21 24//21
f 19//22 24//22 25//22
f 22//23 21//23 5//23
f 22//23 5//23 2//23
f 5//6 21//6 20//6
f 5//6 20//6 7//6
f 10//24 16//24 1//24
f 10//24 1//24 11//24
f 7//6 8//6 6//6
f 7//6 6//6 5//6
f 2//25 5//25 6//25
f 2//25 6//25 3//25
f 3//4 4//4 1//4
f 3//4 1//4 2//4
f 10//6 11//6 8//6
f 10//6 8//6 9//6
f 7//26 14//26 12//26
f 7//26 12//26 8//26
f 14//6 15//6 13//6
f 14//6 13//6 12//6
f 8//27 12//27 13//27
f 8//27 13//27 9//27
f 2//4 33//4 34//4
f 2//4 34//4 22//4
f 31//4 33//4 2//4
f 31//4 2//4 29//4
f 25//4 29//4 2//4
f 25//4 2//4 19//4
f 36//28 37//28 15//28
f 36//28 15//28 20//28
f 13//29 38//29 17//29
f 13//30 17//30 9//30
f 15//6 37//6 13//6
f 37//6 39//6 38//6
f 37//6 38//6 13//6
f 20//6 21//6 36//6
f 28//31 29//31 25//31
f 28//31 25//31 24//31
f 26//4 27//4 23//4
f 26//4 23//4 17//4
f 17//21 23//21 19//21
f 17//32 19//32 18//32
f 30//33 31//33 29//33
f 30//33 29//33 28//33
f 35//34 34//34 33//34
f 35//34 33//34 32//34
f 34//35 35//35 21//35
f 34//35 21//35 22//35
f 32//36 33//36 31//36
f 32//36 31//36 30//36
o Chassis_havok_s_rightTrack_1
v 1.288537 0.991781 2.458021
v 1.288537 0.000978 1.734393
v 1.288537 0.042957 1.945915
v 1.288537 0.266001 2.597180
v 1.004838 0.042957 1.945915
v 1.004838 0.266001 2.597180
v 1.004838 0.414698 2.313295
v 1.004838 0.370190 2.458021
v 1.288537 0.440492 2.814269
v 1.288537 0.351476 2.741906
v 1.004838 0.351476 2.741906
v 1.004838 0.440492 2.814269
v 1.004838 0.544175 2.853234
v 1.288537 0.544175 2.853234
v 1.004838 0.657973 2.858800
v 1.004838 0.770254 2.830968
v 1.288537 0.770254 2.830968
v 1.288537 0.657973 2.858800
v 1.004838 0.573004 2.753039
v 1.004838 0.872925 2.764172
v 1.004838 0.868373 2.769738
v 1.288537 0.942216 2.675110
v 1.288537 0.868373 2.769738
v 1.004838 0.891133 2.741906
v 1.004838 0.942216 2.675110
v 1.004838 0.546198 2.652844
v 1.004838 0.983183 2.569349
v 1.288537 0.983183 2.569349
v 1.004838 0.415204 2.630579
v 0.807002 0.370190 2.458021
v 0.807002 0.415204 2.630579
v 1.004838 0.991781 2.458021
v 0.807002 0.546198 2.652844
v 0.807002 0.414698 2.313295
v 1.004838 0.908835 2.741906
v 0.807002 0.908835 2.741906
v 1.004838 0.908835 2.764172
v 0.807002 0.573004 2.753039
v 0.807002 0.908835 2.764172
v 1.004838 1.036289 -2.529449
v 1.288537 1.036289 -2.529449
v 1.288537 0.000978 -1.733458
v 1.004838 0.000978 -1.733458
v 1.004838 0.000978 1.734393
v 1.288537 0.462240 -2.679742
v 1.288537 0.044980 -1.933847
v 1.004838 0.044980 -1.933847
v 1.004838 0.462240 -2.679742
v 1.288537 0.595763 -2.807768
v 1.288537 0.684779 -2.835600
v 1.004838 0.684779 -2.835600
v 1.004838 0.595763 -2.807768
v 1.004838 0.779864 -2.835600
v 1.288537 0.779864 -2.835600
v 1.004838 0.869385 -2.807768
v 1.288537 0.869385 -2.807768
v 1.288537 0.518381 -2.752105
v 1.004838 0.518381 -2.752105
v 1.004838 0.978125 -2.713140
v 1.288537 0.978125 -2.713140
vn 1.0000 -0.0000 -0.0000
vn -0.0000 0.9809 -0.1947
vn -0.0000 1.0000 -0.0000
vn -1.0000 -0.0000 -0.0000
vn -0.0000 -1.0000 -0.0089
vn -0.0000 -1.0000 -0.0000
vn -0.0000 0.0371 -0.9993
vn -0.0000 0.6131 -0.7900
vn -0.0000 -0.6565 0.7544
vn -0.0000 -0.9533 0.3019
vn -0.0000 -0.9534 0.3019
vn -0.0000 0.2984 0.9544
vn -0.0000 0.9767 0.2145
vn -0.0000 0.8727 0.4882
vn -0.0000 -0.0000 1.0000
vn -0.0000 0.7901 0.6130
vn -0.0000 0.5839 0.8118
vn -0.0000 -0.2969 0.9549
vn -0.0097 -0.7741 -0.6330
vn -0.0000 -0.7884 -0.6152
vn -0.0000 -0.7943 -0.6075
vn -0.0000 -0.9325 -0.3612
vn -0.0000 -0.5294 -0.8484
vn -0.0000 0.9461 -0.3240
vn -0.0000 0.6308 -0.7760
vn -0.0000 0.0489 -0.9988
vn -0.0000 -0.2406 -0.9706
vn -0.0000 0.3518 -0.9361
vn -0.0000 -0.9325 0.3611
vn -0.0000 0.9558 0.2939
vn -0.0000 0.0331 -0.9995
vn 0.0562 -0.0000 -0.9984
vn -0.0000 -0.2500 0.9682
vn -0.4105 -0.0000 0.9119
vn -0.0000 -0.2385 0.9711
vn -0.0000 -0.9970 -0.0770
vn -0.0000 0.8610 -0.5085
vn -0.0000 0.9676 -0.2524
s 0
f 100//37 92//37 67//37
f 100//37 67//37 65//37
f 104//38 65//38 63//38
f 104//38 63//38 62//38
f 103//39 104//39 62//39
f 103//39 62//39 102//39
f 104//37 103//37 100//37
f 104//37 100//37 65//37
f 107//37 108//37 100//37
f 107//37 100//37 103//37
f 61//40 106//40 102//40
f 61//40 102//40 62//40
f 105//40 106//40 61//40
f 105//40 61//40 101//40
f 100//41 101//41 61//41
f 100//41 61//41 92//41
f 80//40 97//40 95//40
f 80//40 95//40 84//40
f 97//42 99//42 96//42
f 97//42 96//42 95//42
f 79//43 98//43 80//43
f 96//37 99//37 98//37
f 96//37 98//37 93//37
f 89//37 79//37 71//37
f 91//44 98//44 79//44
f 91//44 79//44 89//44
f 91//37 93//37 98//37
f 101//40 109//40 117//40
f 101//40 117//40 105//40
f 118//37 112//37 111//37
f 118//37 111//37 108//37
f 113//37 115//37 108//37
f 113//37 108//37 111//37
f 101//40 114//40 110//40
f 101//40 110//40 109//40
f 116//45 120//45 119//45
f 116//45 119//45 115//45
f 100//46 119//46 120//46
f 100//47 120//47 101//47
f 101//40 120//40 116//40
f 101//40 116//40 114//40
f 108//37 115//37 119//37
f 108//37 119//37 100//37
f 111//48 112//48 109//48
f 111//48 109//48 110//48
f 102//49 106//49 107//49
f 102//49 107//49 103//49
f 108//50 107//50 106//50
f 108//50 106//50 105//50
f 110//51 114//51 113//51
f 110//51 113//51 111//51
f 105//52 117//52 118//52
f 105//52 118//52 108//52
f 112//53 118//53 117//53
f 112//53 117//53 109//53
f 114//54 116//54 115//54
f 114//54 115//54 113//54
f 81//55 80//55 82//55
f 81//56 82//56 83//56
f 79//37 73//37 72//37
f 79//37 72//37 71//37
f 79//37 80//37 81//37
f 79//37 81//37 76//37
f 84//57 85//57 82//57
f 84//55 82//55 80//55
f 85//58 87//58 88//58
f 85//58 88//58 82//58
f 86//37 87//37 85//37
f 86//37 85//37 84//37
f 76//59 81//59 83//59
f 76//59 83//59 77//59
f 79//37 76//37 75//37
f 79//37 75//37 73//37
f 65//37 67//37 68//37
f 65//37 68//37 66//37
f 65//60 66//60 64//60
f 65//60 64//60 63//60
f 63//40 64//40 61//40
f 63//40 61//40 62//40
f 71//61 72//61 69//61
f 71//61 69//61 70//61
f 73//62 75//62 78//62
f 73//62 78//62 74//62
f 77//63 78//63 75//63
f 77//63 75//63 76//63
f 72//64 73//64 74//64
f 72//64 74//64 69//64
f 90//37 94//37 93//37
f 90//37 93//37 91//37
f 93//65 94//65 67//65
f 93//65 67//65 86//65
f 67//37 92//37 87//37
f 67//37 87//37 86//37
f 94//66 90//66 68//66
f 94//66 68//66 67//66
f 98//67 99//67 97//67
f 98//68 97//68 80//68
f 86//69 84//69 93//69
f 93//70 84//70 95//70
f 93//71 95//71 96//71
f 87//72 92//72 61//72
f 87//72 61//72 88//72
f 69//40 74//40 64//40
f 69//40 64//40 70//40
f 78//40 77//40 64//40
f 78//40 64//40 74//40
f 83//40 82//40 64//40
f 83//40 64//40 77//40
f 64//40 82//40 88//40
f 64//40 88//40 61//40
f 66//73 71//73 70//73
f 66//73 70//73 64//73
f 89//37 71//37 66//37
f 89//37 66//37 68//37
f 90//74 91//74 89//74
f 90//74 89//74 68//74
o Turret_01_havok_s_armor_7_0
v 0.751905 1.372157 -0.187984
v 0.751905 1.435086 -0.187984
v 0.788005 1.435086 -0.322709
v 0.788005 1.372157 -0.322709
v 0.795918 1.435086 -0.262516
v 0.773452 1.435086 -0.203111
v 0.773452 1.476328 -0.203111
v 0.795918 1.486579 -0.262516
v 0.813470 1.492215 -0.321828
v 0.813470 1.435086 -0.321828
v 0.800161 1.435086 -0.461656
v 0.800161 1.372157 -0.461656
v 0.822929 1.490281 -0.381004
v 0.822929 1.435086 -0.381004
v 0.827292 1.482000 -0.448746
v 0.827292 1.435086 -0.448747
v 0.692960 1.372157 -0.063580
v 0.692960 1.435086 -0.063580
v 0.702440 1.435086 -0.063580
v 0.773320 1.502731 -0.054835
v 0.626518 1.502731 -0.054835
v 0.632641 1.435086 -0.063580
v -0.795919 1.486579 -0.262516
v -0.795919 1.435086 -0.262516
v -0.813472 1.435086 -0.321828
v -0.813472 1.492215 -0.321828
v -0.822930 1.490281 -0.381004
v -0.822930 1.435086 -0.381004
v -0.773453 1.476283 -0.203111
v -0.773453 1.435086 -0.203111
v -0.827293 1.435086 -0.448747
v -0.827293 1.482000 -0.448746
v -0.825461 1.470624 -0.501612
v -0.825460 1.435086 -0.501612
v -0.788004 1.372157 -0.322710
v -0.788004 1.435086 -0.322710
v -0.751905 1.435086 -0.187985
v -0.751905 1.372157 -0.187985
v -0.800161 1.372157 -0.461656
v -0.800161 1.435086 -0.461656
v -0.702440 1.435086 -0.063580
v -0.702440 1.372157 -0.063580
v -0.626516 1.502731 -0.054835
v -0.574080 1.503443 0.020054
v -0.574080 1.435086 0.020054
v -0.632435 1.435086 -0.063580
v -0.773321 1.502731 -0.054835
v -0.612959 1.435086 0.052677
v -0.612959 1.372157 0.052677
v -0.514334 1.435086 0.151302
v -0.514334 1.372157 0.151302
v -0.481710 1.435086 0.112423
v -0.481710 1.504322 0.112423
v 0.514333 1.372157 0.151303
v 0.514333 1.435086 0.151303
v 0.612959 1.435086 0.052678
v 0.612959 1.372157 0.052678
v 0.574079 1.502964 0.020054
v 0.574079 1.435086 0.020054
v 0.481710 1.435086 0.112424
v 0.481710 1.503408 0.112424
v 0.400081 1.435086 0.231304
v 0.400081 1.372157 0.231304
v 0.273671 1.372157 0.290250
v 0.273671 1.435086 0.290250
v 0.374704 1.503919 0.187350
v 0.374704 1.435086 0.187350
v 0.256312 1.435086 0.242557
v 0.256312 1.504483 0.242557
v 0.138947 1.372157 0.326349
v 0.138947 1.435086 0.326349
v 0.130133 1.435086 0.276366
v 0.130133 1.505082 0.276366
v -0.130133 1.435086 0.276366
v -0.130133 1.505881 0.276366
v -0.000000 1.505698 0.287751
v -0.000000 1.435086 0.287751
v -0.256313 1.435086 0.242556
v -0.256313 1.505559 0.242556
v -0.000000 1.435086 0.338505
v -0.000000 1.372157 0.338505
v -0.138947 1.372157 0.326348
v -0.138947 1.435086 0.326348
v -0.400080 1.435086 0.231304
v -0.400080 1.372157 0.231304
v -0.374704 1.505034 0.187349
v -0.374704 1.435086 0.187349
v -0.273672 1.435086 0.290249
v -0.273671 1.372157 0.290249
v -0.342350 1.435086 -1.171844
v -0.400080 1.372157 -1.136778
v -0.273671 1.372157 -1.213561
v -0.273671 1.435086 -1.213561
v -0.367237 1.435086 -1.156727
v -0.400080 1.435086 -1.136778
v -0.138946 1.372157 -1.249660
v -0.138946 1.435086 -1.249660
v 0.000001 1.435086 -1.261817
v 0.000001 1.372157 -1.261817
v 0.138947 1.372157 -1.249660
v 0.138947 1.435086 -1.249660
v 0.273671 1.372157 -1.213561
v 0.273671 1.435086 -1.213561
v -0.514333 1.372157 -1.074615
v -0.514334 1.435086 -1.074615
v -0.602756 1.435086 -0.978648
v -0.602756 1.372157 -0.978648
v -0.623575 1.435086 -0.972956
v -0.638934 1.459265 -0.962243
v -0.638934 1.435086 -0.962243
v -0.692959 1.435086 -0.861737
v -0.692959 1.372157 -0.861737
v -0.688788 1.435086 -0.899891
v -0.665303 1.435086 -0.934529
v -0.665303 1.471393 -0.934529
v -0.688788 1.478666 -0.899891
v -0.718829 1.485296 -0.848029
v -0.718829 1.435086 -0.848029
v -0.751905 1.435086 -0.735327
v -0.751905 1.372157 -0.735327
v -0.748426 1.490139 -0.792172
v -0.748426 1.435086 -0.792171
v -0.771258 1.489913 -0.737894
v -0.771257 1.435086 -0.737893
v -0.788004 1.435086 -0.600603
v -0.788004 1.372157 -0.600603
v -0.793253 1.486640 -0.676981
v -0.793253 1.435086 -0.676980
v -0.807925 1.478002 -0.617423
v -0.807925 1.435086 -0.617423
v -0.818445 1.466753 -0.560209
v -0.818445 1.435086 -0.560209
v -0.821385 1.460581 -0.535655
v 0.514333 1.435086 -1.074615
v 0.514333 1.372157 -1.074615
v 0.604111 1.372157 -0.976121
v 0.604111 1.435086 -0.976121
v 0.400081 1.435086 -1.136778
v 0.400081 1.372157 -1.136778
v 0.367232 1.435086 -1.156731
v 0.341314 1.435086 -1.172474
v 0.692960 1.372157 -0.861736
v 0.692960 1.435086 -0.861736
v 0.638933 1.459265 -0.962243
v 0.638933 1.435086 -0.962243
v 0.665302 1.435086 -0.934529
v 0.665302 1.471393 -0.934529
v 0.807924 1.478001 -0.617423
v 0.793253 1.486640 -0.676981
v 0.793252 1.435086 -0.676980
v 0.807924 1.435086 -0.617423
v 0.818444 1.435086 -0.560209
v 0.818445 1.466753 -0.560209
v 0.821384 1.460581 -0.535656
v 0.825459 1.435086 -0.501612
v 0.825460 1.470624 -0.501612
v 0.788005 1.435086 -0.600602
v 0.788005 1.372157 -0.600602
v 0.751905 1.435086 -0.735327
v 0.751905 1.372157 -0.735327
v 0.771257 1.489913 -0.737894
v 0.771256 1.435086 -0.737893
v 0.748426 1.490139 -0.792172
v 0.748425 1.435086 -0.792171
v 0.688787 1.478666 -0.899891
v 0.688787 1.435086 -0.899891
v 0.718828 1.435086 -0.848029
v 0.718829 1.485296 -0.848029
vn 0.8836 -0.0000 0.4682
vn 0.9218 -0.0000 0.3877
vn 0.9063 -0.0000 0.4226
vn 0.7245 -0.0000 0.6893
vn 0.8653 -0.0000 0.5012
vn 0.9962 -0.0000 0.0872
vn 0.9835 -0.0000 0.1808
vn 0.9710 -0.0000 0.2392
vn 0.9659 -0.0000 0.2588
vn 0.9406 -0.0000 0.3396
vn 0.8277 -0.0000 0.5612
vn -0.0872 -0.0000 0.9962
vn 0.0872 -0.0000 0.9962
vn 0.2588 -0.0000 0.9659
vn 0.5192 -0.0000 0.8547
vn 0.5191 -0.0000 0.8547
vn 0.4779 -0.0000 0.8784
vn 0.7917 -0.0000 0.6109
vn 0.5721 -0.0000 0.8202
vn -0.2588 -0.0000 0.9659
vn 0.7354 -0.0000 0.6776
vn 0.9929 -0.0000 0.1189
vn -0.9659 -0.0000 0.2588
vn -0.9406 -0.0000 0.3396
vn -0.9962 -0.0000 0.0872
vn -0.9929 -0.0000 0.1188
vn -0.9994 -0.0000 0.0346
vn -0.8836 -0.0000 0.4682
vn -0.9063 -0.0000 0.4226
vn -0.8277 -0.0000 0.5612
vn -0.9218 -0.0000 0.3877
vn -0.8653 -0.0000 0.5013
vn -0.8653 -0.0000 0.5012
vn -0.9929 -0.0000 0.1189
vn -0.5191 -0.0000 0.8547
vn -0.5192 -0.0000 0.8547
vn -0.4779 -0.0000 0.8784
vn -0.7391 -0.0000 0.6736
vn -0.9710 -0.0000 0.2392
vn -0.9835 -0.0000 0.1808
vn -0.9835 -0.0000 0.1809
vn -0.3702 -0.0000 0.9289
vn -0.7897 -0.0000 0.6134
vn -0.7245 -0.0000 0.6893
vn 0.2588 -0.0000 -0.9659
vn 0.9994 -0.0000 0.0346
vn 0.9659 -0.0000 -0.2588
vn 0.9979 -0.0000 -0.0643
vn 0.9875 -0.0000 -0.1578
vn 0.9353 -0.0000 -0.3537
vn 0.8201 0.0022 -0.5722
vn 0.8192 -0.0000 -0.5736
vn -0.0000 0.1282 -0.9917
vn 0.9292 -0.0000 -0.3695
vn 0.9962 -0.0000 -0.0872
vn 0.8912 -0.0000 -0.4536
vn 0.9589 -0.0000 -0.2838
vn -0.9962 -0.0000 -0.0872
vn -0.9875 -0.0000 -0.1578
vn -0.9589 -0.0000 -0.2838
vn -0.9659 -0.0000 -0.2588
vn -0.9353 -0.0000 -0.3537
vn -0.8912 -0.0000 -0.4536
vn -0.9979 -0.0000 -0.0643
vn -0.9037 -0.0000 -0.4282
vn 0.7924 -0.0000 -0.6099
vn 0.7925 -0.0000 -0.6099
vn 0.0872 -0.0000 -0.9962
vn -0.0872 -0.0000 -0.9962
vn -0.5736 -0.0000 -0.8192
vn 0.4226 -0.0000 -0.9063
vn 0.5736 -0.0000 -0.8192
vn -0.7071 -0.0000 -0.7071
vn -0.8238 -0.0000 -0.5669
vn 0.7071 -0.0000 -0.7071
vn -0.2588 -0.0000 -0.9659
vn -0.4226 -0.0000 -0.9063
vn -0.8191 -0.0000 -0.5736
s 0
f 237//75 241//75 242//75
f 237//75 242//75 238//75
f 243//76 244//76 242//76
f 243//76 242//76 241//76
f 239//77 240//77 232//77
f 239//77 232//77 231//77
f 229//78 235//78 234//78
f 229//78 234//78 230//78
f 236//79 237//79 238//79
f 236//79 238//79 233//79
f 246//80 245//80 160//80
f 246//80 160//80 159//80
f 251//81 252//81 250//81
f 251//81 250//81 249//81
f 249//82 250//82 248//82
f 249//82 248//82 247//82
f 245//83 246//83 240//83
f 245//83 240//83 239//83
f 247//84 248//84 244//84
f 247//84 244//84 243//84
f 235//85 236//85 233//85
f 235//85 233//85 234//85
f 220//86 221//86 218//86
f 220//86 218//86 219//86
f 219//87 218//87 217//87
f 219//87 217//87 216//87
f 216//88 217//88 213//88
f 216//88 213//88 212//88
f 212//89 213//89 210//89
f 212//89 210//89 211//89
f 214//90 215//90 211//90
f 214//89 211//89 210//89
f 225//91 224//91 211//91
f 225//91 211//91 215//91
f 231//92 232//92 227//92
f 231//92 227//92 226//92
f 228//93 229//93 230//93
f 222//94 223//94 221//94
f 222//94 221//94 220//94
f 226//95 227//95 224//95
f 226//95 224//95 225//95
f 154//96 252//96 253//96
f 154//96 253//96 153//96
f 279//97 280//97 278//97
f 279//97 278//97 277//97
f 269//98 281//98 282//98
f 269//98 282//98 270//98
f 277//99 278//99 132//99
f 277//99 132//99 131//99
f 272//100 274//100 273//100
f 276//101 275//101 136//101
f 276//101 136//101 135//101
f 288//102 287//102 284//102
f 288//102 284//102 283//102
f 280//103 279//103 263//103
f 280//103 263//103 262//103
f 286//104 285//104 267//104
f 286//104 267//104 266//104
f 281//105 283//105 284//105
f 281//105 284//105 282//105
f 287//106 288//106 285//106
f 287//107 285//107 286//107
f 275//108 276//108 274//108
f 275//108 274//108 272//108
f 259//109 258//109 260//109
f 259//110 260//110 222//110
f 222//110 260//110 261//110
f 222//110 261//110 223//110
f 258//111 259//111 255//111
f 258//111 255//111 254//111
f 251//96 253//96 252//96
f 256//112 257//112 254//112
f 256//112 254//112 255//112
f 270//113 271//113 268//113
f 270//113 268//113 269//113
f 271//114 272//114 273//114
f 271//115 273//115 268//115
f 264//116 257//116 265//116
f 262//117 263//117 257//117
f 262//117 257//117 256//117
f 266//118 267//118 264//118
f 266//118 264//118 265//118
f 209//119 208//119 203//119
f 209//119 203//119 202//119
f 151//120 154//120 153//120
f 151//120 153//120 152//120
f 157//121 158//121 155//121
f 157//121 155//121 156//121
f 148//122 151//122 152//122
f 148//122 152//122 147//122
f 145//123 148//123 147//123
f 145//123 147//123 146//123
f 149//124 150//124 144//124
f 149//124 144//124 143//124
f 165//125 166//125 163//125
f 165//126 163//126 164//126
f 161//127 167//127 163//127
f 161//127 163//127 166//127
f 161//128 162//128 158//128
f 161//128 158//128 157//128
f 159//129 160//129 156//129
f 159//129 156//129 155//129
f 150//130 149//130 161//130
f 145//131 146//131 143//131
f 145//131 143//131 144//131
f 131//132 132//132 124//132
f 131//132 124//132 123//132
f 133//133 134//133 130//133
f 133//133 130//133 129//133
f 128//134 129//134 130//134
f 128//134 130//134 125//134
f 123//135 124//135 121//135
f 123//135 121//135 122//135
f 127//136 128//136 125//136
f 127//136 125//136 126//136
f 140//127 139//127 141//127
f 138//127 142//127 141//127
f 138//127 141//127 139//127
f 139//137 127//137 126//137
f 135//138 136//138 134//138
f 135//138 134//138 133//138
f 137//139 138//139 122//139
f 137//139 122//139 121//139
f 168//140 169//140 162//140
f 168//141 162//141 161//141
f 194//119 198//119 199//119
f 194//119 199//119 195//119
f 202//142 203//142 200//142
f 202//142 200//142 201//142
f 197//143 196//143 193//143
f 197//143 193//143 192//143
f 187//144 186//144 181//144
f 187//144 181//144 180//144
f 196//142 197//142 194//142
f 196//142 194//142 195//142
f 198//145 207//145 206//145
f 198//145 206//145 199//145
f 208//145 209//145 205//145
f 208//145 205//145 204//145
f 173//146 206//146 207//146
f 173//146 207//146 172//146
f 201//143 200//143 191//143
f 201//143 191//143 190//143
f 204//146 205//146 171//146
f 204//146 171//146 170//146
f 183//144 182//144 175//144
f 183//144 175//144 174//144
f 180//147 181//147 178//147
f 180//147 178//147 179//147
f 177//148 176//148 138//148
f 177//148 138//148 137//148
f 176//147 177//147 174//147
f 176//147 174//147 175//147
f 170//149 171//149 169//149
f 170//149 169//149 168//149
f 164//149 173//149 172//149
f 164//149 172//149 165//149
f 190//150 191//150 185//150
f 190//150 185//150 184//150
f 192//150 193//150 189//150
f 192//150 189//150 188//150
f 188//151 189//151 186//151
f 188//151 186//151 187//151
f 179//152 178//152 141//152
f 179//152 141//152 142//152
f 184//151 185//151 182//151
f 184//151 182//151 183//151
o Turret_01_havok_s_armor_1_1
v -0.810962 1.642521 -1.104922
v -0.429465 1.565222 -1.116786
v -0.429018 1.823459 -1.077106
v -0.434254 1.978997 -1.053200
v -0.544906 1.435086 -1.136778
v -0.400080 1.435086 -1.136778
v -0.424413 1.558105 -1.117879
v -0.427561 1.562732 -1.117168
v -0.367233 1.482270 -1.129532
v -0.367233 1.435086 -1.136778
v -0.220878 1.908337 -1.064063
v -0.189355 1.933005 -1.060273
v -0.367234 1.908337 -1.064063
v -0.169194 1.939939 -1.059207
v 0.447301 1.978749 -1.053238
v 0.143787 1.939939 -1.059207
v 0.450487 1.844939 -1.073805
v 0.450484 1.587804 -1.113316
v 0.544903 1.435086 -1.136778
v 0.446792 1.584145 -1.113878
v 0.400081 1.435086 -1.136778
v 0.367235 1.506556 -1.125800
v 0.367234 1.435086 -1.136778
v 0.163948 1.933005 -1.060273
v 0.367236 1.908337 -1.064063
v 0.195471 1.908337 -1.064063
v 0.810960 1.642521 -1.104922
vn -0.0000 -0.1519 0.9884
vn -0.0000 -0.1518 0.9884
vn -0.0000 -0.1520 0.9884
vn -0.0003 -0.1519 0.9884
vn 0.0001 -0.1519 0.9884
vn 0.0001 -0.1518 0.9884
s 0
f 307//153 306//153 308//153
f 307//154 308//154 309//154
f 310//154 311//154 309//154
f 310//154 309//154 308//154
f 302//155 304//155 303//155
f 302//155 303//155 292//155
f 307//156 303//156 305//156
f 307//153 305//153 306//153
f 305//153 303//153 313//153
f 315//157 303//157 307//157
f 312//153 313//153 303//153
f 312//153 303//153 304//153
f 314//153 313//153 312//153
f 294//154 295//154 293//154
f 293//153 295//153 296//153
f 293//153 296//153 290//153
f 291//153 292//153 289//153
f 291//153 289//153 290//153
f 290//154 289//154 293//154
f 300//153 302//153 292//153
f 291//153 301//153 292//153
f 294//154 298//154 297//154
f 294//158 297//158 295//158
f 292//155 301//155 299//155
f 292//153 299//153 300//153
o Turret_01_havok_s_armor_2_2
v -0.186133 1.611161 -1.381851
v -0.186133 1.672403 -1.396401
v -0.205355 1.647278 -1.353808
v -0.186133 1.557322 -1.354601
v -0.186133 1.735215 -1.396401
v -0.205355 1.757199 -1.354866
v -0.186133 1.796457 -1.381851
v -0.211407 1.703136 -1.313595
v -0.211407 1.748002 -1.308568
v -0.211407 1.656476 -1.308304
v -0.205355 1.551938 -1.303013
v -0.211407 1.616545 -1.294018
v -0.315231 1.703136 -1.313595
v -0.315231 1.656476 -1.308304
v -0.315231 1.748002 -1.308568
v -0.315231 1.616545 -1.294018
v -0.211407 1.789054 -1.294282
v -0.315231 1.789054 -1.294282
v -0.340624 1.658270 -1.304071
v -0.340624 1.703136 -1.309627
v -0.340624 1.746432 -1.304335
v -0.340624 1.787035 -1.290578
v -0.315231 1.568539 -1.259890
v -0.211407 1.568539 -1.259890
v -0.340624 1.618564 -1.290049
v -0.340624 1.571455 -1.255657
v -0.315350 1.511335 -1.196396
v -0.211288 1.511335 -1.196661
v -0.340624 1.520757 -1.194809
v -0.367203 1.511335 -1.196396
v -0.363050 1.535563 -1.192428
v -0.205355 1.485761 -1.215180
v -0.225883 1.493837 -1.175761
v -0.367203 1.487556 -1.154332
v -0.428430 1.780081 -1.213328
v -0.428430 1.804757 -1.179729
v -0.428430 1.742394 -1.236873
v -0.428549 1.659616 -1.231318
v -0.428430 1.699322 -1.241635
v -0.429023 1.603534 -1.181052
v -0.428549 1.629108 -1.211211
v -0.429023 1.810590 -1.147189
v -0.429023 1.591869 -1.182904
v -0.404461 1.593664 -1.182639
v -0.381561 1.592542 -1.182904
v -0.381323 1.621480 -1.219148
v -0.363050 1.579755 -1.245075
v -0.363050 1.624172 -1.278673
v -0.404461 1.622378 -1.218090
v -0.404343 1.655803 -1.239519
v -0.381679 1.655130 -1.240577
v -0.404343 1.698425 -1.250630
v -0.381679 1.698425 -1.251689
v -0.363050 1.661635 -1.291901
v -0.363050 1.703136 -1.297192
v -0.363050 1.781427 -1.279202
v -0.381442 1.788157 -1.220735
v -0.381679 1.746207 -1.246662
v -0.363050 1.743067 -1.292166
v -0.404343 1.745759 -1.245339
v -0.404461 1.787035 -1.219942
v -0.211407 1.830330 -1.269943
v -0.315231 1.830330 -1.269943
v -0.211407 1.859942 -1.238461
v -0.315231 1.859942 -1.238461
v -0.205355 1.852315 -1.308304
v -0.340624 1.826068 -1.267033
v -0.340743 1.856128 -1.235021
v -0.363050 1.845809 -1.226820
v -0.363050 1.816646 -1.257773
v -0.186133 1.897405 -1.313595
v -0.186133 1.850296 -1.354601
v -0.186133 1.932400 -1.263065
v -0.205355 1.913556 -1.221265
v -0.211407 1.882150 -1.197719
v -0.186133 1.943168 -1.240048
v -0.186133 1.944963 -1.214386
v -0.315231 1.882150 -1.197719
v -0.340743 1.876318 -1.197190
v -0.363050 1.862634 -1.193751
v -0.211407 1.892470 -1.134225
v -0.315231 1.892470 -1.133961
v -0.340743 1.886861 -1.134754
v -0.367203 1.918940 -1.129463
v -0.220899 1.918940 -1.129728
v -0.205355 1.909743 -1.131315
v -0.186133 1.936887 -1.126818
v -0.189336 1.943617 -1.125759
v -0.404461 1.815076 -1.182110
v -0.380849 1.816871 -1.182375
v -0.404461 1.821582 -1.145337
v -0.381086 1.822479 -1.145337
v -0.429023 1.834144 -1.143220
v -0.363050 1.872729 -1.137135
v 0.145655 1.545956 -1.361417
v 0.155267 1.528432 -1.340214
v 0.172888 1.524976 -1.311439
v 0.132306 1.507206 -1.321788
v 0.212757 1.508933 -1.181949
v 0.166658 1.474872 -1.230917
v 0.219521 1.506959 -1.168318
v 0.132306 1.468702 -1.247325
v -0.144825 1.467961 -1.246315
v -0.003857 1.471664 -1.252120
v 0.000059 1.447475 -1.248587
v 0.189797 1.840657 -1.318254
v 0.189797 1.851764 -1.141309
v 0.195492 1.919146 -1.130455
v 0.189797 1.909767 -1.131970
v 0.189797 1.872991 -1.290236
v 0.189797 1.913469 -1.221326
v 0.160606 1.936917 -1.127427
v 0.163988 1.943828 -1.126417
v 0.160606 1.945062 -1.214258
v 0.160606 1.943087 -1.240005
v 0.160606 1.932227 -1.263227
v 0.132306 1.950739 -1.244800
v 0.132306 1.940125 -1.268023
v 0.132306 1.952713 -1.219306
v 0.132306 1.944321 -1.126164
v 0.143697 1.950739 -1.125155
v 0.160606 1.897426 -1.313710
v 0.132306 1.902609 -1.322293
v 0.159182 1.836462 -1.362427
v 0.132306 1.841892 -1.370252
v 0.146367 1.822887 -1.383377
v 0.450483 1.809115 -1.148954
v 0.447829 1.809788 -1.181095
v 0.450483 1.618685 -1.180317
v 0.450483 1.592106 -1.184465
v 0.447829 1.618180 -1.209607
v 0.442698 1.599507 -1.212199
v 0.442698 1.599507 -1.183169
v 0.429604 1.586050 -1.185242
v 0.429604 1.586050 -1.214532
v 0.437301 1.809283 -1.207793
v 0.441415 1.829133 -1.178244
v 0.441415 1.829133 -1.145585
v 0.428587 1.841918 -1.176430
v 0.428587 1.841918 -1.143511
v 0.450483 1.855881 -1.141178
v 0.427658 1.827788 -1.205201
v 0.409345 1.848311 -1.142474
v 0.363473 1.837881 -1.203127
v 0.408726 1.838049 -1.203386
v 0.409345 1.848311 -1.175652
v 0.359935 1.833002 -1.216606
v 0.367233 1.511526 -1.197425
v 0.365729 1.533395 -1.193796
v 0.360112 1.518760 -1.196388
v 0.373426 1.573601 -1.187316
v 0.365729 1.564853 -1.188612
v 0.365729 1.565694 -1.213236
v 0.409345 1.579489 -1.215828
v 0.409345 1.579489 -1.186538
v 0.365729 1.610106 -1.257559
v 0.365729 1.809956 -1.352686
v 0.365729 1.801040 -1.371867
v 0.365729 1.781358 -1.382235
v 0.365729 1.734928 -1.391307
v 0.365729 1.675040 -1.391307
v 0.365729 1.813657 -1.317694
v 0.365729 1.812311 -1.226974
v 0.360112 1.829806 -1.319249
v 0.365729 1.615657 -1.375496
v 0.365729 1.553414 -1.338689
v 0.365729 1.581339 -1.248746
v 0.360112 1.536928 -1.341022
v 0.360112 1.673021 -1.406340
v 0.360112 1.611451 -1.390529
v 0.360112 1.736442 -1.406340
v 0.360112 1.546180 -1.353982
v 0.360112 1.785395 -1.396750
v 0.360112 1.814330 -1.381716
v 0.360112 1.825432 -1.358907
v 0.410407 1.615489 -1.248746
v 0.411822 1.812647 -1.219457
v 0.373515 1.812311 -1.219198
v 0.373471 1.610610 -1.249524
v 0.437876 1.619358 -1.235786
v 0.428631 1.600349 -1.238638
v 0.407664 1.589078 -1.240452
v 0.373471 1.584704 -1.241230
v 0.373426 1.573601 -1.216865
v -0.157751 1.554114 -1.363684
v -0.157751 1.611135 -1.392183
v -0.157751 1.672248 -1.406722
v -0.157751 1.737278 -1.406722
v -0.157751 1.798391 -1.392184
v -0.186133 1.511146 -1.312884
v -0.157751 1.507216 -1.321874
v -0.186133 1.472055 -1.234615
v -0.367239 1.443048 -1.161482
v -0.214761 1.445548 -1.184673
v -0.221876 1.447350 -1.215147
v -0.342350 1.435086 -1.171844
v -0.221878 1.435086 -1.216741
v -0.201436 1.447625 -1.208107
v -0.110940 1.435086 -1.241436
v -0.110939 1.447413 -1.239800
v -0.429464 1.565222 -1.116786
v -0.429018 1.823459 -1.077106
v -0.427562 1.562732 -1.117168
v -0.424413 1.558105 -1.117879
v -0.367233 1.482270 -1.129532
v -0.367237 1.435086 -1.156727
v -0.367233 1.435086 -1.136778
v -0.157751 1.902659 -1.322281
v -0.157751 1.855492 -1.363389
v -0.157751 1.950832 -1.244872
v -0.157751 1.940037 -1.268126
v -0.157751 1.952713 -1.219304
v -0.220878 1.908337 -1.064063
v -0.367234 1.908337 -1.064063
v -0.157752 1.944181 -1.125723
v -0.189356 1.933005 -1.060273
v -0.169194 1.939939 -1.059207
v -0.169198 1.950572 -1.124658
v 0.345120 1.609661 -1.397936
v 0.345121 1.544797 -1.363395
v 0.345121 1.528379 -1.340187
v 0.345120 1.671986 -1.412959
v 0.345120 1.737349 -1.412652
v 0.345120 1.786569 -1.403298
v 0.345751 1.511521 -1.197433
v 0.207664 1.445144 -1.191196
v 0.172538 1.449001 -1.218681
v 0.219521 1.444169 -1.177981
v 0.367231 1.443049 -1.161481
v 0.367233 1.506827 -1.151839
v 0.103831 1.447475 -1.240566
v 0.103862 1.435086 -1.242046
v 0.207726 1.435086 -1.217961
v 0.207664 1.447475 -1.216678
v 0.256141 1.435086 -1.201837
v 0.287447 1.445262 -1.189413
v -0.000002 1.435086 -1.250259
v 0.345712 1.845349 -1.186280
v 0.345821 1.848314 -1.142251
v 0.345120 1.837849 -1.320188
v 0.367230 1.919162 -1.130679
v 0.367236 1.908337 -1.064063
v 0.195471 1.908337 -1.064063
v 0.163948 1.933005 -1.060273
v 0.143787 1.939939 -1.059207
v 0.345120 1.833426 -1.362781
v 0.345120 1.822382 -1.385650
v 0.450483 1.587804 -1.113316
v 0.446792 1.584145 -1.113878
v 0.450488 1.844939 -1.073805
v 0.367235 1.506556 -1.125800
v 0.367234 1.435086 -1.136778
v 0.341313 1.435086 -1.172474
v 0.367232 1.435086 -1.156731
vn 0.1809 -0.4995 0.8472
vn 0.1637 -0.5096 0.8447
vn 0.9289 -0.2695 0.2539
vn 0.9298 -0.1914 0.3145
vn 0.3335 -0.6194 0.7107
vn 0.3324 -0.6192 0.7114
vn 0.4956 -0.4486 0.7437
vn 0.4908 -0.4529 0.7443
vn 0.9908 -0.0689 0.1168
vn 0.9899 -0.1032 0.0970
vn 0.5075 -0.6272 0.5909
vn 0.5074 -0.6272 0.5909
vn 0.1969 -0.7143 0.6715
vn 0.1973 -0.7141 0.6717
vn 0.8990 -0.3581 0.2520
vn 0.9017 -0.3555 0.2462
vn 0.9881 -0.1352 0.0737
vn 0.9845 -0.1435 0.1010
vn 0.3041 -0.8641 0.4011
vn 0.3019 -0.8635 0.4040
vn 0.9890 -0.0651 0.1330
vn 0.9917 -0.0422 0.1212
vn 0.8680 -0.3261 0.3746
vn 0.3352 -0.4242 0.8412
vn 0.3378 -0.4250 0.8398
vn 0.9030 -0.1940 0.3834
vn 0.9074 -0.1848 0.3775
vn 0.9237 -0.0401 0.3809
vn 0.9261 -0.0471 0.3743
vn 0.3609 -0.4880 0.7948
vn 0.3487 -0.4966 0.7948
vn 0.0600 -0.5230 0.8502
vn 0.0549 -0.5252 0.8492
vn 0.9145 -0.1295 0.3833
vn 0.9279 -0.1999 0.3149
vn 0.5061 0.6606 0.5545
vn 0.4986 0.6660 0.5549
vn 0.9373 0.2670 0.2241
vn 0.0039 -0.1623 0.9867
vn 0.4900 -0.2791 0.8258
vn 0.4891 -0.2799 0.8261
vn -0.0000 -0.5079 0.8614
vn -0.0000 -0.7284 0.6851
vn 0.4820 -0.1094 0.8693
vn 0.4865 -0.1060 0.8672
vn 0.3427 -0.1044 0.9336
vn 0.3446 -0.1032 0.9331
vn 0.0600 -0.1044 0.9927
vn 0.0464 -0.1110 0.9927
vn 0.4819 0.1108 0.8692
vn 0.4866 0.1074 0.8670
vn 0.2712 -0.9599 0.0706
vn 0.2737 -0.9595 0.0671
vn 0.0674 -0.7992 0.5972
vn 0.0596 -0.8020 0.5944
vn 0.3931 -0.9054 0.1602
vn 0.4039 -0.8992 0.1685
vn 0.0379 -0.9880 0.1498
vn 0.0766 -0.9818 0.1737
vn 0.3754 -0.7446 0.5519
vn 0.3691 -0.7491 0.5501
vn -0.0070 -0.1586 0.9873
vn 0.0039 -0.1636 0.9865
vn 0.3301 -0.9317 -0.1514
vn 0.3286 -0.9323 -0.1510
vn 0.0029 -0.1594 0.9872
vn -0.0003 -0.1555 0.9878
vn 0.8117 -0.5765 -0.0932
vn 0.8117 -0.5766 -0.0931
vn 0.0023 -0.1618 0.9868
vn 0.0063 -0.1632 0.9866
vn -0.0015 -0.1639 0.9865
vn 0.0062 -0.1632 0.9866
vn 0.9325 -0.3219 0.1638
vn 0.9402 -0.2794 0.1946
vn -0.0000 -0.1661 0.9861
vn 1.0000 -0.0000 -0.0001
vn 0.9362 -0.3461 0.0617
vn 0.9352 -0.3491 0.0589
vn 0.5188 -0.8429 0.1423
vn 0.5336 -0.8326 0.1485
vn 0.2061 -0.8592 0.4683
vn 0.1917 -0.8659 0.4621
vn 0.0004 -0.9872 0.1598
vn -0.0000 -0.9870 0.1604
vn 0.2074 -0.9657 0.1563
vn 0.2231 -0.9612 0.1623
vn 0.5231 -0.7519 0.4013
vn 0.5011 -0.7713 0.3924
vn 0.8487 -0.5275 0.0369
vn 0.8752 -0.4381 0.2050
vn 0.3101 -0.7824 0.5400
vn 0.3071 -0.7824 0.5418
vn -0.0000 -0.8780 0.4786
vn 0.9394 -0.3384 0.0550
vn 0.9807 -0.1952 -0.0083
vn 0.2482 -0.9647 -0.0880
vn 0.2512 -0.9639 -0.0889
vn 0.6207 -0.7740 -0.1252
vn 0.6208 -0.7739 -0.1252
vn 0.8191 -0.5713 -0.0527
vn 0.8549 -0.5184 -0.0220
vn -0.0000 -0.9871 -0.1600
vn -0.0003 -0.9872 -0.1594
vn 0.0182 -0.2207 0.9752
vn 0.0018 -0.1613 0.9869
vn 0.0020 -0.1668 0.9860
vn 0.0025 -0.1666 0.9860
vn 0.4897 0.2903 0.8221
vn 0.4897 0.2903 0.8222
vn 0.1750 -0.3159 0.9325
vn 0.1617 -0.3243 0.9320
vn -0.0000 0.5794 0.8150
vn 0.9910 0.0776 0.1092
vn 0.1533 -0.1199 0.9809
vn 0.1700 -0.1097 0.9793
vn -0.0000 0.3369 0.9416
vn -0.0000 -0.3287 0.9444
vn 0.1533 0.1214 0.9807
vn 0.1710 0.1110 0.9790
vn -0.0017 -0.1614 0.9869
vn 0.8948 0.3566 0.2687
vn 0.7368 0.6049 0.3021
vn 0.9826 0.1385 0.1235
vn 0.9883 0.1218 0.0918
vn 0.3038 0.7075 0.6380
vn 0.1913 0.7541 0.6283
vn 0.1983 0.5779 0.7916
vn 0.1709 0.5709 0.8030
vn 0.1778 0.3277 0.9279
vn 0.1714 0.3319 0.9276
vn 0.0017 0.7429 0.6694
vn -0.0000 0.7416 0.6709
vn 0.8784 -0.1105 0.4650
vn 0.3475 -0.2170 0.9122
vn 0.3470 -0.2168 0.9125
vn 0.9075 -0.0000 0.4200
vn 0.9106 0.0040 0.4133
vn 0.3417 -0.0000 0.9398
vn 0.9067 0.1904 0.3763
vn 0.8801 0.1098 0.4619
vn 0.3100 0.4250 0.8504
vn 0.3190 0.4280 0.8456
vn 0.3346 0.2181 0.9168
vn 0.3341 0.2179 0.9170
vn 0.3115 0.6370 0.7051
vn 0.2997 0.6349 0.7121
vn -0.0000 0.1127 0.9936
vn -0.0000 -0.1113 0.9938
vn 0.9878 0.0734 0.1377
vn 0.9914 0.0440 0.1230
vn 0.9918 -0.0142 0.1268
vn 0.9892 0.0014 0.1469
vn 0.9915 0.0146 0.1289
vn 0.9129 0.1919 0.3602
vn 0.8746 0.3251 0.3598
vn 0.1511 -0.1456 0.9777
vn 0.1549 -0.1568 0.9754
vn 0.9289 0.2234 0.2953
vn 0.9363 0.2715 0.2229
vn 0.3328 0.7328 0.5935
vn 0.3698 0.7058 0.6043
vn 0.0587 0.7799 0.6231
vn 0.0453 0.7763 0.6288
vn 0.4624 0.4547 0.7612
vn 0.8013 0.5849 0.1256
vn 0.8112 0.5091 0.2878
vn 1.0000 -0.0000 -0.0002
vn 1.0000 0.0001 -0.0003
vn 1.0000 -0.0010 0.0010
vn 0.9275 0.1244 0.3524
vn 0.9344 0.1983 0.2958
vn 0.9226 0.0488 0.3827
vn 0.9325 0.0898 0.3498
vn 0.5143 0.5174 0.6840
vn 0.4867 0.5151 0.7055
vn 0.0451 0.2520 0.9667
vn 0.0525 0.2482 0.9673
vn 0.3642 0.5017 0.7846
vn 0.3467 0.5162 0.7832
vn 0.0552 0.5388 0.8407
vn 0.0593 0.5367 0.8417
vn 0.3450 0.2368 0.9082
vn 0.3477 0.2348 0.9077
vn 0.7623 0.1929 0.6179
vn 0.2155 -0.1285 0.9680
vn 0.2153 -0.1259 0.9684
vn 1.0000 -0.0028 0.0045
vn 1.0000 -0.0036 0.0027
vn 0.8482 0.1796 0.4982
vn 0.8903 0.1242 0.4382
vn 0.3466 -0.1209 0.9302
vn 0.3469 -0.1254 0.9295
vn 0.0429 0.8461 0.5313
vn -0.0000 0.8705 0.4921
vn 0.0016 0.7662 0.6426
vn 0.8646 -0.1473 0.4804
vn 0.7895 0.5674 0.2339
vn 1.0000 -0.0010 0.0063
vn 0.0008 -0.1568 0.9876
vn 0.0034 -0.1638 0.9865
vn 0.0014 -0.1651 0.9863
vn 0.8116 0.5079 0.2888
vn 0.7898 0.5671 0.2338
vn 1.0000 -0.0012 0.0070
vn 1.0000 -0.0008 0.0074
vn 0.9993 -0.0352 -0.0141
vn 0.9998 0.0115 0.0175
vn 0.9998 0.0005 0.0182
vn 1.0000 -0.0018 0.0003
vn 0.0003 -0.9959 -0.0908
vn -0.0000 -0.9960 -0.0897
vn -0.3085 -0.8652 0.3954
vn -0.3019 -0.8636 0.4039
vn -0.7656 -0.5827 0.2725
vn -0.7276 -0.6840 0.0525
vn -0.0004 -0.9070 0.4211
vn 0.0001 -0.9095 0.4157
vn 0.0017 -0.1616 0.9869
vn 0.0016 -0.1582 0.9874
vn -0.0000 -0.9871 -0.1604
vn 0.0003 -0.9869 -0.1616
vn -0.0000 -0.9973 0.0734
vn -0.0003 -0.9970 0.0772
vn -1.0000 -0.0000 -0.0000
vn -0.0000 -0.9870 -0.1607
vn -0.0001 -0.9871 -0.1604
vn 0.0098 -0.1493 0.9887
vn 0.0034 -0.1614 0.9869
vn -0.6207 -0.7738 -0.1262
vn -0.6218 -0.7729 -0.1268
vn -0.6851 -0.7252 -0.0680
vn -0.7373 -0.6750 -0.0280
vn -0.0007 -0.1590 0.9873
vn -0.2455 -0.9655 -0.0870
vn -0.2559 -0.9625 -0.0903
vn -0.3275 -0.6889 0.6467
vn -0.0139 -0.9004 0.4348
vn 0.0041 -0.8404 0.5420
vn -0.0167 -0.9945 0.1033
vn -0.0160 -0.9943 0.1056
vn -0.0130 -0.6570 0.7538
vn -0.0001 -0.6198 0.7847
vn -0.0000 -0.4503 0.8929
vn 0.0209 -0.5577 0.8298
vn 0.0091 -0.4420 0.8970
vn 0.0095 -0.4405 0.8977
vn -0.0000 -0.8230 0.5680
vn -0.0001 -0.8226 0.5686
vn 0.0023 -0.1594 0.9872
vn 0.0105 -0.1496 0.9887
vn -0.3286 -0.9321 -0.1522
vn -0.3271 -0.9326 -0.1528
vn -0.2720 -0.9594 0.0743
vn -0.2725 -0.9593 0.0736
vn -0.7534 -0.5414 0.3732
vn -0.7883 -0.5305 0.3116
vn -0.3335 -0.5844 0.7398
vn -0.3316 -0.5842 0.7408
vn -0.7277 -0.4177 0.5440
vn -0.7563 -0.4285 0.4944
vn -0.3074 -0.7827 0.5411
vn -0.3099 -0.7828 0.5396
vn 0.0013 -0.1616 0.9869
vn 0.0024 -0.1592 0.9872
vn -0.0000 0.9931 0.1173
vn -0.0048 0.9922 0.1244
vn 0.0118 -0.0000 0.9999
vn 0.0124 -0.0047 0.9999
vn 0.0161 -0.2314 0.9727
vn 0.0116 -0.1867 0.9824
vn -0.7536 0.5826 0.3042
vn -0.3687 0.8018 0.4704
vn -0.4516 0.7925 0.4098
vn -0.7452 -0.0370 0.6658
vn -0.8976 -0.0670 0.4357
vn -0.7116 -0.0448 0.7011
vn -0.5827 0.2354 0.7778
vn 0.0003 0.9929 0.1191
vn 0.0001 0.8164 0.5775
vn 0.0108 0.7732 0.6341
vn 0.0115 0.4700 0.8826
vn -0.1400 0.7311 0.6677
vn -0.4504 0.8111 0.3732
vn 0.0122 0.2314 0.9728
vn 0.0118 0.2343 0.9721
vn 0.0053 0.4471 0.8945
vn -0.0002 0.6655 0.7464
vn 0.0139 0.7126 0.7015
vn -0.1098 -0.1486 0.9828
vn -0.1109 -0.1512 0.9823
vn -0.0781 -0.1330 0.9880
vn -0.0765 -0.1185 0.9900
vn -0.0764 0.1320 0.9883
vn -0.0259 0.3347 0.9420
vn 0.0786 -0.1337 0.9879
vn 0.0783 -0.1312 0.9883
vn 0.2104 0.8746 0.4368
vn 0.2517 0.8758 0.4119
vn -0.0174 -0.9983 0.0560
vn -0.0269 -0.9974 0.0672
vn -0.0217 -0.9978 0.0626
vn 0.2694 0.6257 0.7321
vn 0.2536 0.6463 0.7197
vn -0.2230 -0.1016 0.9695
vn -0.2244 -0.1162 0.9676
vn -0.2571 0.5889 0.7662
vn -0.4544 0.2944 0.8407
vn -0.0111 0.9941 0.1076
vn -0.0024 0.9895 0.1445
vn -0.3235 -0.1460 0.9349
vn -0.3144 -0.0994 0.9441
vn 0.0779 0.1565 0.9846
vn 0.0295 0.3460 0.9378
vn 0.0031 0.8883 0.4593
vn -0.0001 0.8874 0.4610
vn -0.0051 0.8948 0.4465
vn -0.9347 0.2893 0.2065
vn -0.3910 -0.1718 0.9042
vn -0.4056 -0.1757 0.8970
vn -0.9378 0.1696 0.3030
vn -0.9486 0.1610 0.2723
vn -0.4012 0.7478 0.5290
vn -0.3964 0.7472 0.5334
vn -0.9366 -0.0673 0.3438
vn -0.9368 -0.0671 0.3433
vn -0.4866 -0.8689 0.0902
vn -0.4752 -0.8746 0.0965
vn -0.9440 -0.3281 0.0362
vn -0.9449 -0.3254 0.0344
vn -0.4274 -0.3996 0.8109
vn -0.3901 -0.4245 0.8171
vn -0.9354 -0.1630 0.3137
vn -0.9343 -0.1661 0.3154
vn -0.9475 0.3172 0.0399
vn -0.9353 0.3505 0.0484
vn -0.4537 0.8848 0.1065
vn -0.4879 0.8661 0.1088
vn -0.4068 0.2141 0.8881
vn -0.4531 0.2217 0.8634
vn -0.9367 -0.0000 0.3500
vn -0.4416 0.4217 0.7919
vn -0.5100 0.4202 0.7505
vn -0.9370 0.0869 0.3385
vn -0.9409 0.0871 0.3272
vn -0.4036 -0.0043 0.9149
vn -0.3880 -0.0000 0.9217
vn -0.5131 -0.7729 0.3732
vn -0.5098 -0.7735 0.3765
vn -0.2479 0.3136 0.9166
vn -0.4342 0.0766 0.8975
vn -0.0606 0.3044 0.9506
vn -0.0603 0.3048 0.9505
vn -0.4493 0.7603 0.4691
vn -0.3080 0.8793 0.3634
vn -0.6933 0.6072 0.3882
vn -0.7265 0.2095 0.6544
vn -0.7112 0.2059 0.6722
vn -0.6234 0.7120 0.3233
vn -0.6000 0.7321 0.3225
vn -0.7165 0.6975 -0.0000
vn -0.7522 0.6585 0.0225
vn -0.1591 0.8985 0.4091
vn -0.1262 0.9214 0.3674
vn -0.1618 0.9868 -0.0000
vn -0.7027 -0.1056 0.7036
vn -0.7129 -0.1049 0.6934
vn -0.4078 -0.1313 0.9036
vn -0.4270 -0.1331 0.8944
vn -0.9452 -0.2936 0.1429
vn -0.9476 -0.2898 0.1347
vn -0.0012 -0.1487 0.9889
vn 0.0080 -0.1470 0.9891
vn -0.9341 -0.0548 0.3527
vn -0.6186 -0.4836 0.6193
vn -0.7463 -0.5388 0.3909
vn -0.2151 -0.5407 0.8132
vn -0.4282 -0.3404 0.8371
vn -0.8274 0.3348 0.4509
vn -0.9125 0.2013 0.3560
vn 0.0104 -0.5337 0.8456
vn 0.0068 -0.5302 0.8479
vn -0.6103 -0.7819 -0.1270
vn -0.0017 -0.1652 0.9863
vn -0.0004 -0.1642 0.9864
vn -0.7790 -0.4649 0.4208
vn -0.8723 -0.3409 0.3504
vn -1.0000 -0.0000 0.0001
vn 0.0035 -0.1622 0.9867
vn 0.0352 -0.9971 0.0671
vn -0.0001 -1.0000 -0.0000
vn -0.2843 -0.8971 0.3383
vn -0.4028 -0.8163 0.4139
vn -0.0216 -0.9222 0.3861
vn 0.0055 -0.9379 0.3469
vn -0.0577 -0.9338 0.3531
vn -0.9643 0.2650 -0.0000
vn -0.9277 0.3651 0.0778
vn 0.0179 -0.1541 0.9879
vn 0.0102 -0.1620 0.9867
vn -0.9965 -0.0135 0.0820
vn -0.7067 0.7063 0.0427
vn -0.7167 0.6973 -0.0000
vn -0.7059 -0.7083 -0.0000
vn 0.0045 -0.1640 0.9864
vn -0.0019 -0.1619 0.9868
vn -0.9285 -0.0546 0.3672
vn -0.9958 -0.0135 0.0905
vn -0.9109 -0.4126 -0.0000
vn -0.9436 -0.3233 0.0712
vn -0.6334 -0.6863 0.3575
vn -0.3222 -0.1498 0.9347
vn -0.3285 -0.2038 0.9222
vn -0.4625 0.4542 0.7614
vn -0.0003 0.9947 0.1025
vn -0.0004 -0.1422 0.9898
vn -0.9443 -0.3290 -0.0049
vn -0.9620 -0.2728 0.0068
vn -0.5950 -0.8023 0.0476
vn -0.4739 -0.8802 0.0266
vn -0.6995 0.7109 0.0733
vn 0.0169 -0.1806 0.9834
vn -0.0086 -0.1501 0.9886
vn -0.3153 -0.9490 -0.0000
vn -0.6987 0.7153 0.0075
vn -0.7067 0.7062 0.0427
vn 0.0186 -0.1626 0.9865
vn -0.0185 -0.1384 0.9902
vn 0.0049 -0.1600 0.9871
vn -0.3081 0.9514 -0.0000
vn 0.0150 -0.1780 0.9839
s 0
f 333//159 378//159 382//159
f 333//160 382//160 337//160
f 385//161 384//161 372//161
f 385//162 372//162 371//162
f 387//163 524//163 523//163
f 387//164 523//164 386//164
f 337//165 382//165 385//165
f 337//166 385//166 371//166
f 377//167 332//167 381//167
f 377//168 381//168 379//168
f 384//169 385//169 382//169
f 384//170 382//170 383//170
f 383//171 382//171 378//171
f 383//172 378//172 380//172
f 388//173 389//173 381//173
f 388//174 381//174 386//174
f 389//175 390//175 379//175
f 389//176 379//176 381//176
f 388//177 526//177 525//177
f 388//178 525//178 391//178
f 321//179 381//179 332//179
f 321//180 332//180 324//180
f 386//181 381//181 387//181
f 322//182 504//182 524//182
f 322//183 524//183 387//183
f 322//184 387//184 381//184
f 322//185 381//185 321//185
f 374//186 373//186 368//186
f 374//187 368//187 370//187
f 375//188 376//188 350//188
f 375//189 350//189 352//189
f 376//190 375//190 373//190
f 376//191 373//191 372//191
f 373//192 374//192 371//192
f 373//193 371//193 372//193
f 341//194 362//194 346//194
f 341//195 346//195 344//195
f 346//196 362//196 360//196
f 345//197 346//197 358//197
f 371//198 374//198 336//198
f 371//199 336//199 337//199
f 332//200 377//200 378//200
f 332//200 378//200 333//200
f 379//201 380//201 378//201
f 379//201 378//201 377//201
f 374//202 370//202 335//202
f 374//203 335//203 336//203
f 367//204 375//204 352//204
f 367//205 352//205 354//205
f 368//206 373//206 375//206
f 368//207 375//207 367//207
f 335//208 370//208 369//208
f 335//209 369//209 334//209
f 391//210 525//210 527//210
f 391//211 527//211 392//211
f 372//212 405//212 404//212
f 372//213 404//213 376//213
f 404//214 406//214 357//214
f 404//215 357//215 351//215
f 405//216 407//216 406//216
f 405//217 406//217 404//217
f 376//218 404//218 351//218
f 376//219 351//219 350//219
f 401//220 402//220 403//220
f 401//221 403//221 400//221
f 403//222 533//222 532//222
f 403//223 532//223 531//223
f 402//224 530//224 533//224
f 402//225 533//225 403//225
f 529//226 517//226 408//226
f 529//227 408//227 399//227
f 399//228 408//228 406//228
f 399//229 406//229 407//229
f 409//230 398//230 399//230
f 409//231 399//231 407//231
f 384//232 395//232 405//232
f 384//233 405//233 372//233
f 357//234 406//234 408//234
f 357//235 408//235 517//235
f 395//236 409//236 407//236
f 395//237 407//237 405//237
f 394//238 398//238 409//238
f 394//239 409//239 395//239
f 380//240 393//240 394//240
f 380//241 394//241 383//241
f 396//242 397//242 393//242
f 396//243 393//243 390//243
f 393//244 397//244 398//244
f 393//245 398//245 394//245
f 383//246 394//246 395//246
f 383//247 395//247 384//247
f 391//248 392//248 389//248
f 391//249 389//249 388//249
f 386//250 523//250 526//250
f 386//251 526//251 388//251
f 390//252 393//252 380//252
f 390//252 380//252 379//252
f 401//253 396//253 390//253
f 401//254 390//254 389//254
f 392//255 527//255 530//255
f 392//256 530//256 402//256
f 531//257 528//257 400//257
f 531//258 400//258 403//258
f 392//259 402//259 401//259
f 392//260 401//260 389//260
f 528//261 529//261 399//261
f 528//262 399//262 400//262
f 398//263 397//263 400//263
f 398//264 400//264 399//264
f 396//265 401//265 400//265
f 396//266 400//266 397//266
f 334//267 369//267 363//267
f 334//268 363//268 340//268
f 337//269 336//269 330//269
f 337//270 330//270 333//270
f 338//271 339//271 327//271
f 338//271 327//271 331//271
f 326//272 327//272 339//272
f 336//273 335//273 328//273
f 336//274 328//274 330//274
f 325//275 329//275 331//275
f 325//275 331//275 327//275
f 324//276 332//276 333//276
f 324//276 333//276 330//276
f 328//277 335//277 334//277
f 328//278 334//278 329//278
f 345//234 342//234 344//234
f 345//279 344//279 346//279
f 505//280 326//280 347//280
f 505//281 347//281 507//281
f 339//282 343//282 347//282
f 339//283 347//283 326//283
f 344//284 342//284 338//284
f 344//285 338//285 341//285
f 340//286 341//286 338//286
f 340//287 338//287 331//287
f 329//288 334//288 340//288
f 329//289 340//289 331//289
f 338//290 342//290 343//290
f 338//291 343//291 339//291
f 321//292 320//292 322//292
f 320//293 503//293 504//293
f 320//294 504//294 322//294
f 317//295 320//295 321//295
f 317//296 321//296 318//296
f 502//297 503//297 320//297
f 502//297 320//297 317//297
f 318//298 319//298 316//298
f 318//299 316//299 317//299
f 500//300 501//300 316//300
f 500//301 316//301 319//301
f 501//302 502//302 317//302
f 501//303 317//303 316//303
f 319//304 505//304 506//304
f 319//305 506//305 500//305
f 328//306 329//306 325//306
f 328//306 325//306 323//306
f 324//307 330//307 328//307
f 324//307 328//307 323//307
f 327//308 326//308 318//308
f 327//309 318//309 325//309
f 321//310 324//310 323//310
f 321//311 323//311 318//311
f 318//312 323//312 325//312
f 319//313 318//313 326//313
f 319//314 326//314 505//314
f 508//315 509//315 348//315
f 508//316 348//316 349//316
f 362//317 363//317 361//317
f 362//318 361//318 360//318
f 355//319 359//319 364//319
f 355//320 364//320 356//320
f 360//321 361//321 364//321
f 360//322 364//322 359//322
f 508//323 521//323 511//323
f 519//324 520//324 349//324
f 519//325 349//325 345//325
f 520//326 522//326 521//326
f 520//327 521//327 508//327
f 349//328 520//328 508//328
f 363//329 369//329 366//329
f 363//330 366//330 361//330
f 369//331 370//331 368//331
f 369//332 368//332 366//332
f 363//333 362//333 341//333
f 363//334 341//334 340//334
f 368//335 367//335 365//335
f 368//336 365//336 366//336
f 356//337 364//337 365//337
f 356//338 365//338 353//338
f 366//339 365//339 364//339
f 366//340 364//340 361//340
f 353//341 365//341 367//341
f 353//342 367//342 354//342
f 507//343 347//343 513//343
f 512//344 514//344 515//344
f 512//345 515//345 510//345
f 516//346 352//346 350//346
f 516//347 350//347 351//347
f 509//348 513//348 347//348
f 509//349 347//349 348//349
f 511//350 512//350 510//350
f 511//351 510//351 508//351
f 349//352 348//352 342//352
f 349//353 342//353 345//353
f 343//354 342//354 348//354
f 343//355 348//355 347//355
f 516//356 518//356 358//356
f 516//357 358//357 355//357
f 355//358 358//358 359//358
f 346//359 360//359 359//359
f 346//360 359//360 358//360
f 518//361 519//361 345//361
f 518//362 345//362 358//362
f 516//363 353//363 354//363
f 516//364 354//364 352//364
f 516//365 355//365 356//365
f 516//366 356//366 353//366
f 516//367 351//367 357//367
f 516//368 357//368 517//368
f 435//369 530//369 527//369
f 435//370 527//370 434//370
f 432//371 433//371 431//371
f 432//372 431//372 430//372
f 430//373 431//373 426//373
f 430//374 426//374 429//374
f 432//375 525//375 526//375
f 432//376 526//376 433//376
f 436//377 533//377 530//377
f 436//378 530//378 435//378
f 560//379 532//379 533//379
f 560//380 533//380 436//380
f 434//381 527//381 525//381
f 434//382 525//382 432//382
f 425//383 424//383 426//383
f 424//383 425//383 421//383
f 424//383 421//383 422//383
f 557//384 558//384 423//384
f 557//385 423//385 556//385
f 423//386 428//386 427//386
f 423//387 427//387 424//387
f 423//388 558//388 559//388
f 423//389 559//389 428//389
f 424//390 427//390 429//390
f 424//391 429//391 426//391
f 422//392 423//392 424//392
f 435//393 434//393 429//393
f 435//394 429//394 427//394
f 441//395 439//395 440//395
f 562//396 561//396 439//396
f 562//397 439//397 441//397
f 561//398 555//398 421//398
f 561//399 421//399 439//399
f 523//400 524//400 440//400
f 523//401 440//401 438//401
f 440//402 524//402 504//402
f 440//403 504//403 441//403
f 539//404 562//404 441//404
f 539//405 441//405 504//405
f 433//406 526//406 523//406
f 433//407 523//407 438//407
f 436//408 435//408 427//408
f 436//409 427//409 428//409
f 559//410 560//410 436//410
f 559//411 436//411 428//411
f 434//412 432//412 430//412
f 434//413 430//413 429//413
f 431//414 437//414 425//414
f 431//415 425//415 426//415
f 438//416 440//416 439//416
f 438//417 439//417 437//417
f 437//418 439//418 421//418
f 437//419 421//419 425//419
f 433//420 438//420 437//420
f 433//421 437//421 431//421
f 554//422 556//422 423//422
f 554//423 423//423 422//423
f 540//424 536//424 412//424
f 540//425 412//425 414//425
f 538//426 503//426 502//426
f 538//427 502//427 537//427
f 539//428 504//428 503//428
f 539//429 503//429 538//429
f 414//430 412//430 415//430
f 417//431 415//431 412//431
f 417//432 412//432 413//432
f 414//433 541//433 543//433
f 414//434 543//434 416//434
f 541//435 414//435 415//435
f 541//436 415//436 542//436
f 411//437 412//437 536//437
f 411//438 536//438 535//438
f 411//439 535//439 410//439
f 534//440 410//440 535//440
f 411//441 410//441 413//441
f 411//442 413//442 412//442
f 537//443 502//443 501//443
f 537//444 501//444 534//444
f 501//445 500//445 410//445
f 501//440 410//440 534//440
f 500//446 506//446 413//446
f 500//447 413//447 410//447
f 544//448 545//448 416//448
f 544//449 416//449 543//449
f 420//450 552//450 547//450
f 420//451 547//451 546//451
f 419//452 420//452 546//452
f 419//453 546//453 417//453
f 514//454 552//454 420//454
f 514//455 420//455 515//455
f 505//456 507//456 418//456
f 505//457 418//457 506//457
f 553//458 421//458 555//458
f 421//459 553//459 554//459
f 421//460 554//460 422//460
f 418//461 507//461 513//461
f 418//462 513//462 515//462
f 548//463 549//463 546//463
f 548//464 546//464 547//464
f 417//465 546//465 542//465
f 417//466 542//466 415//466
f 416//467 545//467 540//467
f 416//468 540//468 414//468
f 550//469 551//469 549//469
f 550//470 549//470 548//470
f 515//471 420//471 419//471
f 515//472 419//472 418//472
f 413//473 419//473 417//473
f 413//474 506//474 418//474
f 413//475 418//475 419//475
f 483//476 481//476 487//476
f 539//477 538//477 486//477
f 539//478 486//478 488//478
f 480//479 485//479 487//479
f 480//480 487//480 481//480
f 487//481 535//481 536//481
f 487//482 536//482 483//482
f 474//483 488//483 486//483
f 474//484 486//484 475//484
f 555//485 561//485 490//485
f 555//486 490//486 479//486
f 479//487 490//487 472//487
f 479//488 472//488 477//488
f 489//489 562//489 539//489
f 489//490 539//490 488//490
f 473//491 489//491 488//491
f 473//492 488//492 474//492
f 481//493 483//493 465//493
f 481//494 465//494 464//494
f 468//383 482//383 481//383
f 468//383 481//383 464//383
f 481//383 482//383 471//383
f 481//383 471//383 480//383
f 536//495 540//495 465//495
f 536//496 465//496 483//496
f 484//497 537//497 534//497
f 484//498 534//498 485//498
f 486//499 484//499 476//499
f 486//499 476//499 475//499
f 485//500 534//500 535//500
f 485//501 535//501 487//501
f 476//502 484//502 485//502
f 476//503 485//503 480//503
f 538//504 537//504 484//504
f 538//505 484//505 486//505
f 561//506 562//506 489//506
f 561//507 489//507 490//507
f 491//508 497//508 496//508
f 491//509 496//509 495//509
f 494//510 498//510 497//510
f 494//511 497//511 491//511
f 450//512 496//512 497//512
f 450//513 497//513 469//513
f 447//514 496//514 450//514
f 482//515 498//515 494//515
f 482//516 494//516 471//516
f 499//517 498//517 482//517
f 499//518 482//518 468//518
f 466//519 499//519 468//519
f 466//520 468//520 467//520
f 498//521 499//521 469//521
f 498//522 469//522 497//522
f 469//523 499//523 466//523
f 469//523 466//523 470//523
f 494//524 493//524 478//524
f 494//525 478//525 471//525
f 492//526 491//526 495//526
f 492//527 495//527 451//527
f 490//528 489//528 473//528
f 490//529 473//529 472//529
f 493//530 494//530 491//530
f 493//531 491//531 492//531
f 495//532 446//532 451//532
f 462//533 478//533 493//533
f 462//534 493//534 459//534
f 457//535 460//535 492//535
f 457//536 492//536 451//536
f 495//537 496//537 447//537
f 495//538 447//538 446//538
f 493//539 492//539 460//539
f 493//540 460//540 459//540
f 557//541 556//541 456//541
f 557//541 456//541 565//541
f 556//542 458//542 455//542
f 556//543 455//543 456//543
f 452//544 457//544 451//544
f 452//545 451//545 443//545
f 442//546 563//546 565//546
f 442//546 565//546 456//546
f 458//547 556//547 554//547
f 554//548 553//548 461//548
f 554//549 461//549 458//549
f 454//550 461//550 460//550
f 454//551 460//551 457//551
f 461//552 553//552 459//552
f 461//553 459//553 460//553
f 553//554 462//554 459//554
f 446//555 447//555 448//555
f 446//556 448//556 444//556
f 445//557 444//557 448//557
f 445//558 448//558 449//558
f 444//383 563//383 442//383
f 444//559 442//559 443//559
f 563//383 444//383 445//383
f 563//560 445//560 564//560
f 447//561 450//561 449//561
f 447//561 449//561 448//561
f 453//562 455//562 454//562
f 453//562 454//562 452//562
f 453//563 442//563 456//563
f 453//564 456//564 455//564
f 443//565 451//565 446//565
f 443//566 446//566 444//566
f 442//567 453//567 452//567
f 442//568 452//568 443//568
f 457//569 452//569 454//569
f 551//570 550//570 568//570
f 551//571 568//571 544//571
f 473//383 474//383 471//383
f 473//383 471//383 472//383
f 569//546 567//546 544//546
f 569//572 544//572 568//572
f 540//573 545//573 463//573
f 540//574 463//574 465//574
f 475//383 476//383 471//383
f 475//383 471//383 474//383
f 479//575 477//575 478//575
f 479//576 478//576 462//576
f 476//383 480//383 471//383
f 471//383 478//383 477//383
f 471//383 477//383 472//383
f 462//577 553//577 555//577
f 462//578 555//578 479//578
f 445//579 463//579 545//579
f 445//580 464//580 465//580
f 445//581 465//581 463//581
f 455//582 458//582 461//582
f 455//582 461//582 454//582
f 545//583 566//583 564//583
f 545//584 564//584 445//584
f 464//585 466//585 467//585
f 464//383 467//383 468//383
f 464//586 449//586 470//586
f 464//587 470//587 466//587
f 545//546 544//546 567//546
f 545//546 567//546 566//546
f 450//588 469//588 470//588
f 450//588 470//588 449//588
f 445//589 449//589 464//589
o Turret_01_havok_s_armor_5_3
v 0.382858 2.039444 0.533133
v -0.382420 2.039444 0.533133
v -0.106084 2.134991 -0.085344
v 0.105987 2.134991 -0.085344
v -0.482564 2.051358 -0.085344
v 0.483539 2.051358 -0.085344
v 0.138655 2.135780 -0.317843
v 0.548339 2.051358 -0.516911
v -0.138752 2.135780 -0.317843
v -0.547900 2.051358 -0.516911
v -0.051995 2.135386 -0.203873
v 0.052434 2.135386 -0.203873
v -0.051995 2.135543 -0.249461
v 0.052434 2.135543 -0.249461
v -0.413481 1.974274 -1.021418
v 0.427308 1.974274 -1.021418
v 0.256312 1.504483 0.242557
v 0.130133 1.505082 0.276366
v -0.636952 1.508731 0.576076
v 0.632797 1.502731 0.577828
v -0.000000 1.505698 0.287751
v -0.130133 1.505881 0.276366
v -0.256313 1.505559 0.242556
v -0.374704 1.505034 0.187349
v -0.273672 1.435086 0.290249
v -0.400081 1.435086 0.231304
v -0.374704 1.435086 0.187349
v -0.256313 1.435086 0.242556
v -0.130133 1.435086 0.276366
v -0.138947 1.435086 0.326348
v -0.514334 1.435086 0.151302
v -0.481710 1.435086 0.112423
v -0.000000 1.435086 0.287751
v -0.000000 1.435086 0.338505
v 0.138947 1.435086 0.326349
v 0.130133 1.435086 0.276366
v 0.273671 1.435086 0.290250
v 0.256312 1.435086 0.242557
v -0.626517 1.502731 -0.054835
v -0.773321 1.502731 -0.054835
v -0.658467 1.502731 0.591076
v -0.574080 1.435086 0.020053
v -0.612959 1.435086 0.052677
v -0.702440 1.435086 -0.063580
v -0.632435 1.435086 -0.063580
v -0.481710 1.504322 0.112423
v -0.574080 1.503443 0.020053
v -0.788004 1.435086 -0.322710
v -0.795918 1.435086 -0.262516
v -0.773453 1.435086 -0.203111
v -0.751905 1.435086 -0.187985
v -0.822930 1.435086 -0.381004
v -0.813471 1.435086 -0.321828
v 0.481709 1.503408 0.112424
v 0.374703 1.503919 0.187350
v 0.514333 1.435086 0.151303
v 0.400080 1.435086 0.231304
v 0.374703 1.435086 0.187350
v 0.481709 1.435086 0.112424
v 0.612958 1.435086 0.052678
v 0.574080 1.435086 0.020054
v 0.574080 1.502964 0.020054
v 0.626517 1.502731 -0.054835
v 0.773320 1.502731 -0.054835
v 0.658466 1.502731 0.591075
v 0.402380 2.039395 0.564278
v 0.380397 2.029788 0.551028
v 0.632641 1.435086 -0.063581
v 0.692959 1.435086 -0.063581
v 0.751905 1.435086 -0.187984
v 0.702439 1.435086 -0.063581
v 0.773452 1.435086 -0.203111
v 0.827291 1.435086 -0.448746
v 0.800161 1.435086 -0.461656
v 0.788005 1.435086 -0.322709
v 0.822929 1.435086 -0.381004
v 0.795917 1.435086 -0.262516
v 0.813470 1.435086 -0.321828
v -0.381077 2.039395 0.551033
v -0.402381 2.039395 0.564278
v -0.503063 2.051402 -0.104286
v 0.503472 2.051401 -0.104352
v 0.568505 2.051392 -0.517351
v -0.568512 2.051393 -0.517340
v 0.447300 1.974566 -1.024282
v -0.434253 1.974811 -1.024246
v 0.447301 1.978750 -1.053238
v -0.434254 1.978997 -1.053200
v 0.207663 1.447475 -1.216678
v 0.207664 1.445144 -1.191196
v 0.172538 1.449000 -1.218681
v 0.103830 1.447475 -1.240566
v 0.544904 1.435086 -1.136778
v 0.400081 1.435086 -1.136778
v 0.514333 1.435086 -1.074615
v 0.549031 1.435086 -1.105517
v 0.367234 1.435086 -1.136778
v 0.367232 1.435086 -1.156730
v 0.604111 1.435086 -0.976120
v 0.692960 1.435086 -0.861737
v 0.638933 1.435086 -0.962243
v 0.688787 1.435086 -0.899890
v 0.665302 1.435086 -0.934529
v 0.718828 1.435086 -0.848029
v 0.788005 1.435086 -0.600602
v 0.793252 1.435086 -0.676980
v 0.771256 1.435086 -0.737893
v 0.751906 1.435086 -0.735327
v 0.748425 1.435086 -0.792171
v 0.818444 1.435086 -0.560210
v 0.807924 1.435086 -0.617423
v 0.825459 1.435086 -0.501612
v 0.138947 1.435086 -1.249660
v 0.273671 1.435086 -1.213561
v 0.256140 1.435086 -1.201837
v 0.207726 1.435086 -1.217961
v 0.103862 1.435086 -1.242047
v -0.000000 1.435086 -1.261817
v -0.000003 1.435086 -1.250259
v -0.110940 1.435086 -1.241436
v -0.138946 1.435086 -1.249661
v -0.201435 1.447625 -1.208107
v -0.214761 1.445548 -1.184673
v -0.221876 1.447350 -1.215147
v -0.110939 1.447413 -1.239801
v 0.341314 1.435086 -1.172474
v 0.287448 1.445262 -1.189414
v 0.219521 1.444169 -1.177981
v 0.367231 1.443049 -1.161482
v -0.788004 1.435086 -0.600603
v -0.751905 1.435086 -0.735328
v -0.771257 1.435086 -0.737893
v -0.793253 1.435086 -0.676980
v -0.748426 1.435086 -0.792171
v -0.692959 1.435086 -0.861737
v -0.718829 1.435086 -0.848029
v -0.602756 1.435086 -0.978648
v -0.623575 1.435086 -0.972956
v -0.638934 1.435086 -0.962243
v -0.665303 1.435086 -0.934529
v -0.688788 1.435086 -0.899890
v -0.818445 1.435086 -0.560210
v -0.800161 1.435086 -0.461657
v -0.807925 1.435086 -0.617423
v -0.825460 1.435086 -0.501612
v -0.827293 1.435086 -0.448746
v -0.514334 1.435086 -1.074615
v -0.400080 1.435086 -1.136778
v -0.544906 1.435086 -1.136778
v -0.549032 1.435086 -1.105517
v -0.367237 1.435086 -1.156727
v -0.367233 1.435086 -1.136778
v -0.367239 1.443048 -1.161483
v -0.342350 1.435086 -1.171844
v -0.273671 1.435086 -1.213561
v -0.221878 1.435086 -1.216741
vn -0.0000 1.0000 -0.0000
vn -0.0000 -1.0000 -0.0000
vn 0.1142 -0.9771 0.1797
vn -0.0047 -0.9890 0.1482
vn -0.0445 -0.9893 0.1393
vn 0.0049 -0.9889 0.1487
vn 0.0349 -0.9891 0.1428
vn -0.0000 -0.9747 0.2237
vn -0.1154 -0.9774 0.1770
vn -0.0014 -0.9843 -0.1766
vn -0.0000 -0.9903 -0.1393
vn -0.0380 -0.9951 -0.0910
vn -0.0559 -0.9684 0.2430
vn -0.0060 -0.9897 -0.1430
vn -0.0003 -0.9897 -0.1431
vn 0.0071 -0.9981 -0.0607
vn 0.0032 -0.9971 -0.0764
vn 0.0035 -0.9958 -0.0911
vn 0.0367 -0.9970 -0.0675
vn 0.0056 -0.9997 0.0227
vn 0.0019 -0.9964 -0.0843
vn -0.0000 1.0000 -0.0095
vn 0.0047 1.0000 -0.0001
vn 0.0044 1.0000 -0.0000
vn 0.0019 1.0000 -0.0062
vn -0.2406 0.9697 0.0428
vn 0.0017 -1.0000 0.0003
vn 0.0025 -1.0000 0.0004
vn 0.2173 -0.9756 -0.0329
vn 0.2167 -0.9756 -0.0338
vn -0.2169 -0.9757 -0.0326
vn -0.2161 -0.9758 -0.0337
vn -0.2160 -0.9749 -0.0539
vn 0.0210 -0.9997 -0.0148
vn -0.0192 -0.9996 -0.0224
vn -0.0017 -1.0000 0.0003
vn -0.0025 -1.0000 0.0004
vn -0.0000 -1.0000 -0.0035
vn 0.0001 -1.0000 -0.0034
vn -0.0000 -1.0000 -0.0033
vn -0.0001 -1.0000 -0.0034
vn 0.5412 -0.7689 -0.3405
vn 0.2165 -0.9748 -0.0538
vn -0.0207 -0.9997 -0.0148
vn 0.0184 -0.9996 -0.0222
vn -0.0017 -1.0000 -0.0026
vn -0.0000 -0.9883 -0.1527
vn -0.0126 -0.9999 -0.0018
vn -0.0000 -0.8800 -0.4749
s 0
f 671//590 669//590 673//590
f 676//590 677//590 674//590
f 676//590 674//590 675//590
f 669//590 671//590 672//590
f 669//590 672//590 670//590
f 668//590 665//590 664//590
f 668//590 669//590 670//590
f 678//590 677//590 676//590
f 681//590 679//590 643//590
f 681//590 643//590 642//590
f 684//591 685//591 682//591
f 684//591 682//591 683//591
f 675//590 674//590 680//590
f 677//590 678//590 673//590
f 677//590 673//590 669//590
f 679//590 680//590 674//590
f 679//590 674//590 643//590
f 579//592 584//592 578//592
f 579//593 653//593 655//593
f 579//594 655//594 584//594
f 654//595 652//595 577//595
f 654//596 577//596 585//596
f 584//597 585//597 576//597
f 584//597 576//597 578//597
f 577//598 576//598 585//598
f 584//599 655//599 656//599
f 584//600 656//600 585//600
f 664//590 665//590 662//590
f 664//590 662//590 663//590
f 666//591 667//591 663//591
f 658//601 659//601 660//601
f 658//602 660//602 661//602
f 654//603 585//603 656//603
f 657//604 656//604 655//604
f 685//591 686//591 682//591
f 714//590 715//590 712//590
f 714//590 712//590 711//590
f 617//590 712//590 715//590
f 617//590 715//590 621//590
f 702//590 713//590 699//590
f 704//590 709//590 710//590
f 704//590 710//590 705//590
f 699//590 713//590 711//590
f 699//590 711//590 712//590
f 718//590 719//590 716//590
f 718//590 716//590 717//590
f 723//591 724//591 725//591
f 725//591 724//591 690//591
f 725//591 690//591 689//591
f 692//605 722//605 693//605
f 720//591 721//591 717//591
f 706//590 716//590 719//590
f 695//591 684//591 683//591
f 696//606 697//606 659//606
f 696//607 659//607 658//607
f 691//608 692//608 693//608
f 691//609 693//609 694//609
f 689//591 690//591 687//591
f 689//591 687//591 688//591
f 686//591 688//591 687//591
f 686//591 687//591 682//591
f 698//610 697//610 696//610
f 706//590 707//590 704//590
f 708//590 709//590 704//590
f 708//590 704//590 707//590
f 700//590 704//590 705//590
f 700//590 705//590 703//590
f 701//590 702//590 699//590
f 701//590 699//590 700//590
f 703//590 701//590 700//590
f 619//590 620//590 617//590
f 619//590 617//590 618//590
f 617//590 621//590 622//590
f 617//590 622//590 618//590
f 616//611 608//611 588//611
f 616//611 588//611 615//611
f 612//591 613//591 614//591
f 612//591 614//591 611//591
f 615//611 588//611 593//611
f 613//590 620//590 619//590
f 628//591 630//591 629//591
f 628//591 629//591 625//591
f 631//612 623//612 589//612
f 631//613 589//613 632//613
f 607//591 627//591 626//591
f 607//591 626//591 606//591
f 624//612 586//612 589//612
f 624//612 589//612 623//612
f 627//591 628//591 625//591
f 627//591 625//591 626//591
f 596//591 597//591 594//591
f 596//591 594//591 595//591
f 597//591 598//591 599//591
f 597//591 599//591 594//591
f 588//611 591//611 592//611
f 588//611 592//611 593//611
f 586//612 587//612 588//612
f 586//612 588//612 589//612
f 588//612 587//612 590//612
f 588//614 590//614 591//614
f 595//591 600//591 601//591
f 595//591 601//591 596//591
f 588//611 608//611 609//611
f 588//615 609//615 610//615
f 600//591 612//591 611//591
f 600//591 611//591 601//591
f 605//591 607//591 606//591
f 605//591 606//591 604//591
f 598//591 602//591 603//591
f 598//591 603//591 599//591
f 602//591 605//591 604//591
f 602//591 604//591 603//591
f 589//590 634//590 633//590
f 589//590 633//590 632//590
f 577//616 652//616 651//616
f 577//617 651//617 575//617
f 574//618 579//618 578//618
f 574//619 578//619 572//619
f 576//620 577//620 575//620
f 576//621 575//621 573//621
f 573//622 575//622 570//622
f 651//623 635//623 570//623
f 651//624 570//624 575//624
f 650//625 653//625 579//625
f 650//626 579//626 574//626
f 580//627 582//627 583//627
f 580//627 583//627 581//627
f 581//627 583//627 576//627
f 581//628 576//628 573//628
f 576//627 583//627 582//627
f 576//627 582//627 578//627
f 580//629 581//629 573//629
f 580//629 573//629 572//629
f 578//627 582//627 580//627
f 578//630 580//630 572//630
f 644//590 645//590 642//590
f 644//590 642//590 643//590
f 644//590 646//590 647//590
f 644//590 647//590 645//590
f 640//590 641//590 639//590
f 640//590 639//590 638//590
f 635//631 636//631 570//631
f 637//591 638//591 629//591
f 637//591 629//591 630//591
f 641//590 646//590 644//590
f 641//590 644//590 639//590
f 572//632 571//632 574//632
f 571//633 649//633 650//633
f 571//634 650//634 574//634
f 571//635 648//635 649//635
f 572//636 573//636 570//636
f 572//636 570//636 571//636
f 636//637 648//637 571//637
f 636//638 571//638 570//638
o Turret_01_havok_s_surveyingDevice_4
v 0.052177 2.203758 -0.203872
v -0.052016 2.203758 -0.203872
v 0.052177 2.203758 -0.241417
v -0.052016 2.203758 -0.241417
v 0.052177 2.165654 -0.249058
v -0.052016 2.165654 -0.249058
v -0.052016 2.135380 -0.203872
v 0.052177 2.135380 -0.203872
v 0.052177 2.135538 -0.249058
v -0.052016 2.135538 -0.249058
vn -1.0000 -0.0000 -0.0000
vn -0.0000 -0.0000 -1.0000
vn -0.0000 0.1966 -0.9805
vn -0.0000 1.0000 -0.0000
vn -0.0000 -0.0000 1.0000
vn 1.0000 -0.0000 -0.0000
s 0
f 731//639 727//639 729//639
f 735//639 732//639 727//639
f 735//639 727//639 731//639
f 730//640 734//640 735//640
f 730//640 735//640 731//640
f 730//641 731//641 729//641
f 730//641 729//641 728//641
f 728//642 729//642 727//642
f 728//642 727//642 726//642
f 732//643 733//643 726//643
f 732//643 726//643 727//643
f 730//644 728//644 726//644
f 726//644 733//644 734//644
f 726//644 734//644 730//644
o Turret_01_havok_s_armor_3_5
v -1.021630 1.642693 -0.567338
v 1.021628 1.642693 -0.567338
v 0.811014 1.642693 -1.075920
v -0.811015 1.642693 -1.075920
v -0.568512 2.051393 -0.517340
v -0.503063 2.051402 -0.104286
v -0.817804 1.642694 0.810107
v -0.402381 2.039395 0.564277
v -0.658466 1.502731 0.591076
v -0.773321 1.502731 -0.054835
v -0.702441 1.435086 -0.063580
v -0.773453 1.476283 -0.203111
v -0.795919 1.486579 -0.262516
v -0.813471 1.492215 -0.321828
v -0.822930 1.490281 -0.381004
v -0.827293 1.482000 -0.448746
v -0.825461 1.470624 -0.501612
v -0.821385 1.460581 -0.535655
v 0.402380 2.039395 0.564277
v 0.503471 2.051401 -0.104352
v 0.817804 1.642694 0.810106
v 0.568506 2.051392 -0.517351
v 0.773320 1.502731 -0.054835
v 0.658465 1.502731 0.591076
v 0.773451 1.476328 -0.203111
v 0.702439 1.435086 -0.063580
v 0.795918 1.486579 -0.262516
v 0.813471 1.492215 -0.321828
v 0.822929 1.490281 -0.381004
v 0.827291 1.482000 -0.448746
v 0.447300 1.974567 -1.024282
v 0.447302 1.978749 -1.053238
v 0.810960 1.642521 -1.104922
v 0.821384 1.460581 -0.535655
v 0.825460 1.470624 -0.501612
v 0.748425 1.490139 -0.792172
v 0.771256 1.489913 -0.737894
v 0.793253 1.486640 -0.676981
v 0.807924 1.478001 -0.617423
v 0.818445 1.466753 -0.560209
v 0.549032 1.435086 -1.105517
v 0.604111 1.435086 -0.976121
v 0.638932 1.459265 -0.962243
v 0.544904 1.435086 -1.136777
v 0.688787 1.478666 -0.899891
v 0.718829 1.485296 -0.848029
v 0.665302 1.471393 -0.934529
v -0.434253 1.974811 -1.024246
v -0.434254 1.978997 -1.053200
v -0.810962 1.642521 -1.104922
v -0.771258 1.489913 -0.737894
v -0.748427 1.490139 -0.792172
v -0.793254 1.486640 -0.676981
v -0.807925 1.478002 -0.617423
v -0.818446 1.466753 -0.560209
v -0.688788 1.478666 -0.899891
v -0.665303 1.471393 -0.934529
v -0.638934 1.459265 -0.962243
v -0.623575 1.435086 -0.972955
v -0.602756 1.435086 -0.978647
v -0.718829 1.485296 -0.848029
v -0.549032 1.435086 -1.105517
v -0.544906 1.435086 -1.136778
vn -0.6171 0.7417 0.2626
vn -0.6171 0.7417 0.2627
vn 0.6657 -0.7462 0.0056
vn 0.6657 -0.7386 -0.1068
vn 0.6305 -0.7310 0.2611
vn 0.6144 -0.7397 0.2745
vn -0.6266 0.7348 0.2597
vn -0.6267 0.7347 0.2597
vn -0.6236 0.7370 0.2605
vn -0.6189 0.7812 0.0817
vn -0.6208 0.7839 -0.0035
vn -0.6185 0.7415 0.2601
vn -0.6173 0.7415 0.2628
vn 0.6269 0.7345 0.2596
vn 0.6171 0.7417 0.2627
vn 0.7759 0.5908 -0.2212
vn 0.2144 0.5824 0.7841
vn 0.6189 0.7812 0.0817
vn 0.6208 0.7839 -0.0035
vn 0.6174 0.7419 0.2615
vn 0.6237 0.7370 0.2605
vn 0.6171 0.7418 0.2627
vn 0.6171 0.7417 0.2626
vn 0.6265 0.7348 0.2597
vn 0.6267 0.7347 0.2597
vn -0.6171 0.7418 0.2627
vn 0.6783 0.7228 -0.1320
vn 0.6772 0.7241 -0.1306
vn -0.6767 -0.7272 -0.1154
vn -0.6567 -0.7479 -0.0972
vn 0.6510 -0.7508 -0.1115
vn 0.6690 -0.7367 -0.0990
vn 0.6724 -0.7325 -0.1065
vn 0.6761 0.7252 -0.1300
vn 0.6766 0.7248 -0.1299
vn 0.6274 0.7731 -0.0928
vn 0.5737 0.8127 -0.1020
vn -0.6724 -0.7326 -0.1059
vn -0.6784 -0.7346 0.0056
vn -0.6784 -0.7271 -0.1051
vn -0.6301 -0.7312 0.2615
vn -0.6305 -0.7310 0.2611
vn -0.6783 0.7228 -0.1320
vn -0.6269 0.7345 0.2596
vn -0.6761 0.7253 -0.1297
vn -0.6764 0.7250 -0.1297
vn -0.6274 0.7731 -0.0928
vn -0.5737 0.8127 -0.1020
vn -0.6779 0.7232 -0.1316
s 0
f 738//645 778//645 782//645
f 738//646 782//646 780//646
f 781//646 771//646 738//646
f 781//646 738//646 780//646
f 739//647 785//647 784//647
f 739//648 784//648 783//648
f 740//649 736//649 739//649
f 740//650 739//650 783//650
f 775//651 769//651 738//651
f 775//652 738//652 774//652
f 774//653 738//653 773//653
f 768//654 779//654 776//654
f 768//655 776//655 738//655
f 777//656 778//656 738//656
f 777//657 738//657 776//657
f 736//658 753//658 739//658
f 739//659 787//659 796//659
f 739//659 796//659 791//659
f 739//660 793//660 794//660
f 739//661 794//661 795//661
f 797//662 798//662 785//662
f 797//663 785//663 739//663
f 797//664 739//664 795//664
f 789//665 788//665 739//665
f 786//659 787//659 739//659
f 786//666 739//666 788//666
f 739//659 791//659 792//659
f 739//667 792//667 793//667
f 739//668 753//668 790//668
f 739//669 790//669 789//669
f 738//646 771//646 772//646
f 738//670 772//670 773//670
f 736//671 749//671 750//671
f 736//671 750//671 751//671
f 736//672 747//672 748//672
f 736//671 748//671 749//671
f 754//673 755//673 737//673
f 754//674 737//674 756//674
f 736//671 751//671 752//671
f 736//671 752//671 753//671
f 741//675 743//675 742//675
f 741//676 742//676 736//676
f 741//677 736//677 740//677
f 745//678 746//678 747//678
f 745//679 747//679 736//679
f 745//680 736//680 742//680
f 745//681 742//681 744//681
f 755//682 757//682 737//682
f 767//683 768//683 738//683
f 767//684 738//684 766//684
f 757//685 766//685 738//685
f 757//686 738//686 737//686
f 770//687 765//687 737//687
f 770//687 737//687 769//687
f 737//688 738//688 769//688
f 760//689 761//689 758//689
f 760//690 758//690 737//690
f 756//691 737//691 758//691
f 756//692 758//692 759//692
f 764//687 763//687 737//687
f 764//687 737//687 765//687
f 762//693 760//693 737//693
f 762//687 737//687 763//687
o Turret_01_havok_s_armor_4_6
v -0.402381 2.039395 0.564277
v -0.381077 2.039395 0.551032
v -0.796610 1.642693 0.799528
v -0.817804 1.642693 0.810107
v 0.380397 2.029788 0.551028
v 0.785923 1.642693 0.796859
v 0.402380 2.039395 0.564277
v 0.817803 1.642693 0.810106
vn 0.3783 -0.1680 -0.9103
vn 0.5169 -0.0021 -0.8560
vn -0.0068 -0.5412 -0.8409
vn -0.0014 -0.5298 -0.8481
vn -0.4449 -0.0864 -0.8914
vn -0.5279 0.0211 -0.8491
s 0
f 805//694 806//694 804//694
f 805//695 804//695 803//695
f 800//696 803//696 804//696
f 800//697 804//697 801//697
f 801//698 802//698 799//698
f 801//699 799//699 800//699
o Turret_01_havok_s_armor_6_7
v -0.658467 1.502731 0.591076
v -0.817804 1.642693 0.810107
v -0.796610 1.642693 0.799528
v -0.636952 1.508731 0.576076
v 0.785923 1.642693 0.796859
v 0.632797 1.502731 0.577828
v 0.658466 1.502731 0.591075
v 0.817803 1.642693 0.810106
vn 0.2702 0.7100 -0.6503
vn 0.3428 0.6644 -0.6642
vn 0.0047 0.8411 -0.5408
vn -0.0009 0.8574 -0.5146
vn -0.5942 0.4279 -0.6811
vn -0.3333 0.6656 -0.6678
s 0
f 811//700 814//700 813//700
f 811//701 813//701 812//701
f 811//702 812//702 810//702
f 811//703 810//703 809//703
f 809//704 810//704 807//704
f 809//705 807//705 808//705
o Turret_01_havok_s_armor_8_8
v 0.273671 1.372157 0.290250
v 0.400080 1.372157 0.231304
v -0.751905 1.372157 -0.187985
v 0.138946 1.372157 0.326349
v -0.000000 1.372157 0.338505
v -0.138947 1.372157 0.326348
v -0.273671 1.372157 0.290249
v -0.514333 1.372157 0.151302
v -0.400081 1.372157 0.231304
v -0.702441 1.372157 -0.063580
v -0.612959 1.372157 0.052677
v 0.514333 1.372157 0.151303
v 0.612959 1.372157 0.052678
v 0.692959 1.372157 -0.063580
v 0.751905 1.372157 -0.187984
v -0.788005 1.372157 -0.322710
v 0.800161 1.372157 -0.461656
v 0.788005 1.372157 -0.600602
v 0.788005 1.372157 -0.322709
v 0.751905 1.372157 -0.735327
v -0.800161 1.372157 -0.461656
v -0.751905 1.372157 -0.735327
v -0.788005 1.372157 -0.600603
v 0.692960 1.372157 -0.861736
v -0.602755 1.372157 -0.978648
v -0.692959 1.372157 -0.861737
v 0.604111 1.372157 -0.976121
v -0.514333 1.372157 -1.074615
v -0.400080 1.372157 -1.136778
v 0.514334 1.372157 -1.074615
v -0.273671 1.372157 -1.213561
v 0.400080 1.372157 -1.136778
v -0.138947 1.372157 -1.249660
v 0.138947 1.372157 -1.249660
v 0.000000 1.372157 -1.261817
v 0.273672 1.372157 -1.213561
vn -0.0000 1.0000 -0.0000
s 0
f 836//706 834//706 840//706
f 841//706 842//706 839//706
f 841//706 839//706 838//706
f 839//706 840//706 834//706
f 839//706 834//706 838//706
f 834//706 835//706 830//706
f 834//706 830//706 832//706
f 834//706 836//706 837//706
f 834//706 837//706 835//706
f 848//706 846//706 850//706
f 844//706 846//706 843//706
f 846//706 848//706 849//706
f 846//706 849//706 847//706
f 841//706 844//706 843//706
f 841//706 843//706 842//706
f 846//706 847//706 845//706
f 846//706 845//706 843//706
f 817//706 822//706 823//706
f 817//706 823//706 821//706
f 817//706 824//706 825//706
f 817//706 825//706 822//706
f 821//706 820//706 817//706
f 817//706 818//706 815//706
f 817//706 815//706 816//706
f 817//706 820//706 819//706
f 817//706 819//706 818//706
f 830//706 833//706 831//706
f 830//706 831//706 832//706
f 829//706 833//706 830//706
f 827//706 828//706 817//706
f 826//706 827//706 817//706
f 826//706 817//706 816//706
f 828//706 829//706 830//706
f 828//706 830//706 817//706
o Hull_havok_s_armor_12_0
v -0.997107 0.662786 -2.720775
v 1.004825 0.662786 -2.720775
v 1.004825 0.847388 -2.819392
v -0.997107 0.847388 -2.819392
vn -0.0000 0.4712 0.8820
s 0
f 853//707 854//707 851//707
f 853//707 851//707 852//707
o Hull_havok_s_surveyingDevice_1
v 0.374670 1.329207 -1.923658
v 0.439207 1.358322 -1.903775
v 0.310132 1.358322 -1.903775
v 0.310132 1.300093 -1.903776
v 0.439207 1.300093 -1.903776
vn -0.2944 -0.0000 0.9557
vn -0.0000 0.5640 0.8258
vn -0.0000 -0.5640 0.8258
vn 0.2944 -0.0000 0.9557
s 0
f 856//708 855//708 859//708
f 859//709 855//709 858//709
f 855//710 856//710 857//710
f 855//711 857//711 858//711
o Hull_havok_s_armor_1_2
v 0.310132 1.300093 -1.903776
v 0.310132 1.358322 -1.903775
v 0.439207 1.358322 -1.903775
v 0.439207 1.300093 -1.903776
v 0.089733 1.442663 -1.903775
v 0.089733 1.189475 -1.903776
v 0.846462 1.442663 -1.903775
v 0.846462 1.189475 -1.903776
vn -0.0000 -0.0000 1.0000
s 0
f 865//712 867//712 863//712
f 865//712 863//712 860//712
f 863//712 867//712 866//712
f 863//712 866//712 862//712
f 863//712 862//712 861//712
f 863//712 861//712 860//712
f 864//712 865//712 860//712
f 864//712 860//712 861//712
f 862//712 866//712 864//712
f 862//712 864//712 861//712
o Hull_havok_s_armor_2_3
v -0.997107 1.252636 -1.397560
v 0.089733 1.252636 -1.397560
v 0.089733 1.393673 -1.325419
v -0.854216 1.292637 -1.377099
v -0.854216 1.393673 -1.325419
v -0.997107 1.292637 -1.377099
v 0.846462 1.393673 -1.325419
v 0.846462 1.252636 -1.397560
v 0.862016 1.292637 -1.377099
v 0.862016 1.393673 -1.325419
v 1.004825 1.252636 -1.397560
v 1.004825 1.292637 -1.377099
vn -0.0000 -0.4554 0.8903
s 0
f 876//713 877//713 874//713
f 876//713 874//713 875//713
f 878//713 879//713 876//713
f 878//713 876//713 875//713
f 873//713 868//713 871//713
f 870//713 871//713 868//713
f 870//713 868//713 869//713
f 872//713 871//713 870//713
o Hull_havok_s_armor_3_4
v 1.004825 1.292637 2.247266
v 1.004825 1.292637 -1.377100
v 1.004825 0.416234 0.372066
v 1.004825 0.416234 2.312433
v 0.862016 1.393673 0.372066
v 0.862016 1.292637 0.372066
v 0.807002 1.292637 0.372066
v 0.381045 1.393673 0.372066
v -0.997107 0.416234 0.372066
v -0.997107 1.292637 -1.377100
v -0.997107 1.292637 2.247266
v -0.997107 0.416234 2.312433
v -0.819935 0.910364 2.744023
v -0.819935 1.292637 2.247266
v -0.819935 1.292637 2.744022
v -0.799283 1.292637 2.744023
v -0.997107 0.910363 2.744022
v -0.997107 0.547776 2.654052
v 0.827654 0.910364 2.744023
v 0.827654 1.292637 2.744022
v 0.827654 1.292637 2.247266
v 1.004825 0.910363 2.744022
v 1.004825 0.547776 2.654052
v -0.373327 1.393673 2.744022
v 0.381044 1.393673 2.744022
v 0.807002 1.292637 2.744023
v 1.004825 1.252636 -1.397561
v 1.004825 1.147865 -2.237264
v 1.004825 0.416234 -2.252412
v 1.004825 0.662786 -2.720776
v 1.004825 0.847388 -2.819392
v 0.862016 1.393673 -1.325419
v 0.862016 1.292637 -1.377100
v 0.846462 1.462105 -1.625675
v 0.846462 1.442663 -1.903775
v 0.846462 1.189475 -1.903776
v 0.846462 1.252636 -1.397561
v 0.846462 1.393673 -1.325419
v 0.089733 1.189475 -1.903776
v 0.089733 1.442663 -1.903775
v 0.089733 1.462105 -1.625675
v 0.089733 1.252636 -1.397561
v 0.089733 1.393673 -1.325419
v -0.997107 0.416234 -2.252412
v -0.997107 1.147865 -2.237264
v -0.997107 1.252636 -1.397561
v -0.997107 0.662786 -2.720776
v -0.997107 0.847388 -2.819392
v -0.854216 1.393673 -1.325419
v -0.854216 1.393673 0.372066
v -0.854216 1.292637 0.372066
v -0.854216 1.292637 -1.377100
v -0.799283 1.292637 0.372066
v -0.373327 1.393673 0.372066
vn -1.0000 -0.0000 -0.0000
vn 1.0000 -0.0000 -0.0000
vn -0.0000 -0.0000 -1.0000
vn 0.0001 -0.0000 -1.0000
vn -0.0000 0.2408 -0.9706
vn -0.0001 -0.0000 -1.0000
s 0
f 911//714 912//714 885//714
f 911//714 885//714 884//714
f 915//714 916//714 913//714
f 915//714 913//714 914//714
f 917//714 913//714 916//714
f 907//714 908//714 882//714
f 907//714 882//714 906//714
f 906//714 882//714 881//714
f 907//714 910//714 909//714
f 907//714 909//714 908//714
f 920//715 921//715 918//715
f 920//715 918//715 919//715
f 926//715 927//715 924//715
f 926//715 924//715 923//715
f 930//715 931//715 928//715
f 930//715 928//715 929//715
f 929//716 933//716 932//716
f 929//716 932//716 930//716
f 922//715 921//715 920//715
f 924//715 925//715 888//715
f 924//715 888//715 923//715
f 925//715 889//715 888//715
f 892//715 893//715 894//715
f 892//717 894//717 895//717
f 896//718 892//718 897//718
f 890//715 896//715 897//715
f 890//715 897//715 891//715
f 882//714 883//714 880//714
f 882//714 880//714 881//714
f 886//716 887//716 884//716
f 886//716 884//716 885//716
f 890//715 891//715 888//715
f 890//715 888//715 889//715
f 898//714 899//714 900//714
f 895//716 903//716 898//716
f 895//716 898//716 892//716
f 903//716 904//716 898//716
f 905//719 899//719 898//719
f 905//716 898//716 904//716
f 901//718 902//718 898//718
f 902//714 901//714 880//714
f 902//714 880//714 883//714
f 892//718 898//718 902//718
f 892//718 902//718 897//718
o Hull_havok_s_armor_4_5
v 1.004825 0.547776 2.654052
v 1.004825 0.416234 2.312434
v -0.997107 0.416234 2.312434
v -0.997107 0.547776 2.654052
v -0.819935 1.292637 2.247267
v -0.819935 0.910364 2.744023
v -0.997107 0.910363 2.744022
v -0.997107 1.292637 2.247267
v 0.089733 1.462105 -1.625676
v 0.846462 1.462105 -1.625674
v 0.846462 1.393673 -1.325419
v 0.089733 1.393673 -1.325419
v 0.846462 1.442663 -1.903775
v 0.089733 1.442663 -1.903775
v 0.827654 1.292637 2.247267
v 1.004825 1.292637 2.247267
v 1.004825 0.910363 2.744022
v 0.827654 0.910364 2.744023
vn -0.0000 -0.9976 0.0697
vn -0.0000 -0.7925 -0.6099
vn -0.0000 -0.9750 -0.2222
vn -0.0000 0.9332 -0.3593
s 0
f 942//720 947//720 946//720
f 942//720 946//720 943//720
f 950//721 951//721 948//721
f 950//721 948//721 949//721
f 944//722 945//722 942//722
f 944//722 942//722 943//722
f 936//723 937//723 934//723
f 936//723 934//723 935//723
f 940//721 941//721 938//721
f 940//721 938//721 939//721
o Hull_havok_s_armor_5_6
v 0.381045 1.393673 2.744022
v -0.373327 1.393673 2.744022
v -0.373328 1.393673 0.372066
v 0.381045 1.393673 0.372066
v 0.807001 1.292637 0.372066
v 0.807001 1.292637 2.744023
v -0.799284 1.292637 2.744023
v -0.799284 1.292637 0.372066
v -0.652567 1.393673 -0.502717
v -0.854216 1.393673 0.372066
v -0.854216 1.393673 -1.325419
v -0.329595 1.393673 -1.062122
v -0.329596 1.393673 0.056686
v 0.089733 1.393673 -1.325419
v 0.316348 1.393673 -1.062122
v 0.316348 1.393673 0.056686
v 0.862017 1.393673 0.372066
v 0.639320 1.393673 -0.502717
v 0.846462 1.393673 -1.325419
v 0.862017 1.393673 -1.325419
vn -0.0000 -1.0000 -0.0000
vn -0.2308 -0.9730 -0.0000
vn 0.2308 -0.9730 -0.0000
s 0
f 954//724 964//724 967//724
f 954//724 967//724 955//724
f 965//724 966//724 963//724
f 965//724 963//724 962//724
f 967//724 969//724 968//724
f 967//724 968//724 955//724
f 966//724 965//724 970//724
f 966//724 970//724 969//724
f 970//724 971//724 968//724
f 970//724 968//724 969//724
f 956//725 957//725 952//725
f 956//725 952//725 955//725
f 954//724 955//724 952//724
f 954//724 952//724 953//724
f 958//726 959//726 954//726
f 958//726 954//726 953//726
f 961//724 960//724 964//724
f 961//724 964//724 954//724
f 960//724 961//724 962//724
f 960//724 962//724 963//724
o Hull_havok_s_armor_6_7
v 1.004825 0.416234 -2.252412
v -0.997107 0.416234 -2.252412
v -0.997107 0.416234 0.372066
v 1.004825 0.416234 0.372066
vn -0.0000 1.0000 -0.0000
s 0
f 974//727 975//727 972//727
f 974//727 972//727 973//727
o Hull_havok_s_armor_7_8
v -0.997107 0.416234 0.372066
v -0.997107 0.416234 2.312434
v 1.004825 0.416234 2.312434
v 1.004825 0.416234 0.372066
vn -0.0000 1.0000 -0.0000
s 0
f 978//728 979//728 976//728
f 978//728 976//728 977//728
o Hull_havok_s_armor_9_9
v -0.997107 1.292637 2.247266
v -0.997107 1.292637 -1.377100
v -0.854216 1.292637 -1.377100
v -0.854216 1.292637 0.372066
v -0.819935 1.292637 2.247267
v -0.799283 1.292637 0.372066
v 1.004825 1.292637 -1.377100
v 1.004825 1.292637 2.247266
v 0.827654 1.292637 2.247267
v 0.862016 1.292637 0.372066
v 0.862016 1.292637 -1.377100
v 0.807002 1.292637 2.744023
v 0.807002 1.292637 0.372066
v 0.827654 1.292637 2.744022
v -0.819935 1.292637 2.744022
v -0.799283 1.292637 2.744023
vn -0.0000 -1.0000 -0.0000
s 0
f 991//729 992//729 989//729
f 991//729 989//729 988//729
f 990//729 986//729 989//729
f 985//729 995//729 994//729
f 985//729 994//729 984//729
f 993//729 991//729 988//729
f 980//729 983//729 984//729
f 982//729 983//729 980//729
f 982//729 980//729 981//729
f 988//729 989//729 986//729
f 988//729 986//729 987//729
f 984//729 983//729 985//729
o Hull_havok_s_armor_10_10
v -0.997107 1.252636 -1.397560
v -0.997107 1.147865 -2.237264
v 0.089733 1.189475 -1.903776
v 0.089733 1.252636 -1.397560
v 0.846462 1.189475 -1.903776
v 1.004825 1.147865 -2.237264
v 1.004825 1.252636 -1.397560
v 0.846462 1.252636 -1.397560
vn -0.0000 -0.9923 0.1238
s 0
f 1002//730 1003//730 1000//730
f 1002//730 1000//730 1001//730
f 997//730 1001//730 1000//730
f 997//730 1000//730 998//730
f 998//730 999//730 996//730
f 998//730 996//730 997//730
o Hull_havok_s_armor_11_11
v -0.997107 0.416234 -2.252412
v 1.004825 0.416234 -2.252412
v 1.004825 0.662786 -2.720775
v -0.997107 0.662786 -2.720775
v -0.997107 1.147865 -2.237264
v -0.997107 0.847388 -2.819392
v 1.004825 0.847388 -2.819392
v 1.004825 1.147865 -2.237264
vn -0.0000 -0.8886 0.4587
vn -0.0000 0.8849 0.4658
s 0
f 1010//731 1011//731 1008//731
f 1010//731 1008//731 1009//731
f 1006//732 1007//732 1004//732
f 1006//732 1004//732 1005//732
o Hull_havok_s_armor_8_12
v -0.329596 1.393673 -1.062122
v 0.316348 1.393673 -1.062122
v 0.639320 1.393673 -0.502718
v -0.652568 1.393673 -0.502718
v -0.329596 1.393673 0.056686
v 0.316348 1.393673 0.056686
vn -0.0000 -1.0000 -0.0000
s 0
f 1014//733 1017//733 1016//733
f 1014//733 1016//733 1015//733
f 1014//733 1015//733 1012//733
f 1014//733 1012//733 1013//733
o Gun_02_havok_s_gun_0
v 0.046588 1.614809 -1.086407
v -0.072151 1.614809 -1.086407
v -0.116211 1.570749 -0.851145
v 0.090648 1.570749 -0.851145
v -0.072151 1.733548 -1.086407
v 0.046588 1.733548 -1.086407
v 0.090648 1.777608 -0.851145
v -0.116211 1.777608 -0.851145
v -0.060429 1.722028 -1.328085
v 0.035270 1.722028 -1.328085
v 0.035270 1.626329 -1.328085
v -0.060429 1.626329 -1.328085
v 0.090648 1.777608 -0.378483
v -0.116211 1.777608 -0.378483
v 0.090648 1.570749 -0.378483
v -0.116211 1.570749 -0.378483
v 0.035270 1.626329 -2.566417
v -0.060429 1.626329 -2.566417
v -0.060429 1.722028 -2.566417
v 0.035270 1.722028 -2.566417
vn -0.0000 1.0000 -0.0000
vn 1.0000 -0.0000 -0.0000
vn -0.0000 -1.0000 -0.0000
vn 0.9988 -0.0000 0.0484
vn -0.9989 -0.0000 0.0468
vn -0.0000 -0.0000 1.0000
vn -1.0000 -0.0000 -0.0000
vn 0.9829 -0.0000 0.1841
vn -0.9829 -0.0000 0.1841
vn -0.0000 0.9829 0.1841
vn -0.0000 -0.9829 0.1841
vn -0.0000 -0.9989 0.0476
vn -0.0000 -0.0000 -1.0000
vn -0.0000 0.9989 0.0476
s 0
f 1028//734 1034//734 1035//734
f 1028//734 1035//734 1029//734
f 1029//735 1035//735 1036//735
f 1029//735 1036//735 1026//735
f 1031//735 1033//735 1020//735
f 1031//735 1020//735 1025//735
f 1033//734 1032//734 1021//734
f 1033//734 1021//734 1020//734
f 1026//736 1036//736 1037//736
f 1026//736 1037//736 1027//736
f 1029//737 1026//737 1022//737
f 1029//737 1022//737 1019//737
f 1027//738 1028//738 1018//738
f 1027//738 1018//738 1023//738
f 1034//739 1037//739 1036//739
f 1034//739 1036//739 1035//739
f 1027//740 1037//740 1034//740
f 1027//740 1034//740 1028//740
f 1019//741 1022//741 1025//741
f 1019//741 1025//741 1020//741
f 1021//742 1024//742 1023//742
f 1021//742 1023//742 1018//742
f 1020//743 1021//743 1018//743
f 1020//743 1018//743 1019//743
f 1024//744 1025//744 1022//744
f 1024//744 1022//744 1023//744
f 1026//745 1027//745 1023//745
f 1026//745 1023//745 1022//745
f 1030//746 1032//746 1033//746
f 1030//746 1033//746 1031//746
f 1032//740 1030//740 1024//740
f 1032//740 1024//740 1021//740
f 1018//747 1028//747 1029//747
f 1018//747 1029//747 1019//747
f 1030//736 1031//736 1025//736
f 1030//736 1025//736 1024//736
