# Blender 5.1.0
# www.blender.org
o Chassis_havok_s_rightTrack_0
v 1.363098 0.001996 1.915641
v 1.363098 0.001996 -1.722258
v 0.809382 0.001996 -1.722258
v 0.809382 0.001996 1.915641
v 0.809382 0.010508 2.045079
v 1.363098 0.010508 2.045079
v 1.363098 0.727119 -2.062885
v 1.363098 0.008187 -1.913009
v 0.809382 0.008187 -1.913009
v 0.750750 0.727119 -2.062885
v 1.363098 0.727119 2.351644
v 0.750750 0.727119 2.351644
v 1.363098 0.191596 2.712709
v 0.809382 0.542162 -2.580639
v 0.809382 0.542162 2.494708
v 0.809382 0.219455 -2.553388
v 0.750750 0.542162 2.494708
v 0.750750 0.542162 -2.580639
v 1.363098 1.466171 -1.463381
v 0.750750 1.466171 -1.463381
v 0.750750 1.466171 2.515145
v 1.363098 1.466171 2.515145
v 0.750750 1.572966 -2.083323
v 0.750750 1.586122 3.114649
v 0.809382 1.572966 -2.083323
v 1.363098 1.586122 3.114649
v 1.363098 1.571419 -2.567014
v 1.363098 0.847070 3.448464
v 1.363098 0.255054 2.842147
v 0.809382 0.255054 2.842147
v 0.809382 0.847070 3.448464
v 1.363098 0.994880 2.685459
v 0.750750 0.994880 2.685459
v 0.809382 0.191596 2.712709
v 0.750750 0.847070 3.448464
v 1.363098 0.943030 3.523402
v 1.363098 1.389557 3.509777
v 1.363098 1.545107 3.339463
v 1.363098 1.170550 3.577902
v 0.750750 1.545107 3.339463
v 0.750750 1.389557 3.509777
v 0.750750 1.170550 3.577902
v 0.750750 0.943030 3.523402
v 0.750750 0.973211 -2.437575
v 1.363098 0.973211 -2.437575
v 0.750750 1.121796 -2.335387
v 1.363098 1.121796 -2.335387
v 0.809382 1.571419 -2.567014
v 0.809382 1.281215 -2.096948
v 0.809382 1.001071 -2.757765
v 0.750750 1.281215 -2.096948
v 0.750750 1.001071 -2.757765
v 1.363098 0.219455 -2.553388
v 0.809083 0.778968 -3.221018
v 1.362799 0.778968 -3.221018
v 0.809382 1.560584 -2.996204
v 1.363098 1.560584 -2.996204
v 1.362799 1.296692 -3.364081
v 1.362799 1.482423 -3.221018
v 0.809083 1.482423 -3.221018
v 0.809083 1.296692 -3.364081
v 1.362799 1.075363 -3.391331
v 0.809083 1.075363 -3.391331
v 1.362799 0.857904 -3.302768
v 0.809083 0.857904 -3.302768
vn 1.0000 -0.0000 -0.0000
vn -0.0000 0.9301 -0.3673
vn -0.0000 -0.9207 0.3903
vn -1.0000 -0.0000 -0.0000
vn -0.0000 0.9497 0.3133
vn -0.0000 -0.0466 0.9989
vn -0.0000 -0.0467 0.9989
vn -0.0000 -0.7384 -0.6744
vn -0.0000 -0.9838 -0.1795
vn -0.0000 0.6155 -0.7882
vn -0.0000 0.6155 -0.7881
vn -0.0000 -0.2970 -0.9549
vn -0.0000 -1.0000 0.0032
vn -0.0000 -0.8358 -0.5490
vn -0.0000 0.5667 -0.8239
vn -0.0000 0.7664 0.6423
vn 1.0000 -0.0003 -0.0003
vn -0.0000 0.7194 0.6946
vn 1.0000 -0.0002 -0.0005
vn 1.0000 0.0007 -0.0016
vn -1.0000 0.0003 0.0003
vn -0.0000 -0.9445 0.3284
vn -1.0000 0.0002 0.0005
vn -1.0000 -0.0007 0.0016
vn -0.0000 0.3772 0.9261
vn -1.0000 -0.0001 0.0004
vn 1.0000 -0.0004 -0.0000
vn 1.0000 0.0003 -0.0008
vn 1.0000 -0.0000 -0.0005
vn -0.0000 0.3601 0.9329
vn -0.0000 -0.6102 0.7922
vn -0.0000 -0.1222 0.9925
vn -0.0000 -0.9997 0.0252
vn -1.0000 0.0004 -0.0000
vn -1.0000 0.0001 0.0004
vn -0.0000 1.0000 -0.0000
vn -0.0000 0.7155 -0.6986
vn -0.0000 -1.0000 0.0025
vn -0.0005 -1.0000 0.0026
vn -0.0000 0.9995 0.0324
vn -0.0000 0.9978 -0.0656
vn -0.0000 -1.0000 -0.0000
vn -0.0000 -0.7801 0.6257
vn -0.0000 0.3399 0.9405
vn -0.0000 0.2330 -0.9725
vn -0.0000 0.9525 -0.3045
vn -0.0000 0.8979 -0.4402
vn -0.0000 0.9651 -0.2618
s 0
f 18//1 52//1 44//1
f 18//1 44//1 10//1
f 47//2 46//2 20//2
f 47//2 20//2 19//2
f 51//3 52//3 50//3
f 51//3 50//3 49//3
f 46//1 44//1 52//1
f 46//1 52//1 51//1
f 7//4 45//4 53//4
f 7//4 53//4 8//4
f 53//5 16//5 9//5
f 53//5 9//5 8//5
f 51//1 23//1 20//1
f 51//1 20//1 46//1
f 47//4 19//4 27//4
f 47//4 27//4 45//4
f 23//6 51//6 49//6
f 23//7 49//7 25//7
f 37//8 41//8 40//8
f 37//8 40//8 38//8
f 38//9 40//9 24//9
f 38//9 24//9 26//9
f 31//10 43//10 36//10
f 31//11 36//11 28//11
f 39//12 42//12 41//12
f 39//12 41//12 37//12
f 48//13 27//13 25//13
f 49//1 50//1 48//1
f 49//1 48//1 25//1
f 44//14 45//14 7//14
f 44//14 7//14 10//14
f 46//15 47//15 45//15
f 46//15 45//15 44//15
f 53//16 55//16 54//16
f 53//16 54//16 16//16
f 61//1 60//1 63//1
f 65//17 56//17 54//17
f 64//18 65//18 54//18
f 64//18 54//18 55//18
f 56//19 65//19 63//19
f 56//20 63//20 60//20
f 64//21 55//21 57//21
f 56//22 60//22 59//22
f 56//22 59//22 57//22
f 62//23 64//23 57//23
f 62//24 57//24 59//24
f 58//4 62//4 59//4
f 63//25 65//25 64//25
f 63//25 64//25 62//25
f 55//26 53//26 45//26
f 54//27 56//27 48//27
f 54//28 48//28 50//28
f 54//19 50//19 14//19
f 54//29 14//29 16//29
f 14//30 50//30 52//30
f 14//30 52//30 18//30
f 60//31 61//31 58//31
f 60//31 58//31 59//31
f 61//32 63//32 62//32
f 61//32 62//32 58//32
f 48//33 56//33 57//33
f 48//33 57//33 27//33
f 27//34 57//34 55//34
f 27//35 55//35 45//35
f 21//36 22//36 19//36
f 21//36 19//36 20//36
f 20//1 23//1 24//1
f 20//1 24//1 21//1
f 12//1 17//1 18//1
f 12//1 18//1 10//1
f 18//36 17//36 15//36
f 18//36 15//36 14//36
f 26//4 27//4 19//4
f 26//4 19//4 22//4
f 30//37 31//37 28//37
f 30//37 28//37 29//37
f 23//38 25//38 24//38
f 25//39 27//39 26//39
f 25//38 26//38 24//38
f 3//1 9//1 16//1
f 3//1 16//1 4//1
f 2//4 7//4 8//4
f 8//40 9//40 3//40
f 8//40 3//40 2//40
f 3//36 4//36 1//36
f 3//36 1//36 2//36
f 5//41 6//41 1//41
f 5//41 1//41 4//41
f 1//4 6//4 7//4
f 1//4 7//4 2//4
f 4//1 16//1 14//1
f 4//1 14//1 15//1
f 11//42 12//42 10//42
f 11//42 10//42 7//42
f 6//4 13//4 11//4
f 6//4 11//4 7//4
f 32//43 33//43 12//43
f 32//43 12//43 11//43
f 33//44 32//44 22//44
f 33//44 22//44 21//44
f 40//1 41//1 33//1
f 40//1 33//1 24//1
f 39//4 37//4 32//4
f 39//4 32//4 36//4
f 22//4 32//4 26//4
f 43//11 31//11 35//11
f 43//1 35//1 33//1
f 36//45 43//45 42//45
f 36//45 42//45 39//45
f 21//1 24//1 33//1
f 42//1 43//1 33//1
f 42//1 33//1 41//1
f 32//4 37//4 38//4
f 32//4 38//4 26//4
f 17//46 35//46 31//46
f 17//46 31//46 15//46
f 28//4 36//4 32//4
f 28//4 32//4 29//4
f 30//1 34//1 15//1
f 30//1 15//1 31//1
f 33//1 35//1 17//1
f 33//1 17//1 12//1
f 13//47 34//47 30//47
f 13//47 30//47 29//47
f 15//1 34//1 5//1
f 15//1 5//1 4//1
f 29//4 32//4 11//4
f 29//4 11//4 13//4
f 34//48 13//48 6//48
f 34//48 6//48 5//48
o Chassis_havok_s_leftTrack_1
v -0.809067 0.001996 -1.722258
v -1.362937 0.001996 -1.722258
v -1.362937 0.001996 1.915641
v -0.809067 0.001996 1.915641
v -1.362937 0.010508 2.045079
v -0.809067 0.010508 2.045079
v -1.362937 0.008187 -1.913009
v -1.362937 0.727119 -2.062885
v -0.809067 0.008187 -1.913009
v -1.362937 0.727119 2.351644
v -0.750750 0.727119 -2.062885
v -0.750750 0.727119 2.351644
v -1.362937 0.191596 2.712709
v -0.809067 0.542162 2.494708
v -0.809067 0.542162 -2.580639
v -0.809067 0.219455 -2.553388
v -0.750750 0.542162 -2.580639
v -0.750750 0.542162 2.494708
v -0.750750 1.466171 2.515145
v -0.750750 1.466171 -1.463381
v -1.362937 1.466171 -1.463381
v -1.362937 1.466171 2.515145
v -0.750750 1.586122 3.114649
v -0.750750 1.572966 -2.083323
v -0.809067 1.572966 -2.083323
v -1.362937 1.586122 3.114649
v -1.362937 1.571419 -2.567014
v -1.362937 0.847070 3.448464
v -0.809067 0.847070 3.448464
v -0.809067 0.255054 2.842147
v -1.362937 0.255054 2.842147
v -0.750750 0.994880 2.685459
v -1.362937 0.994880 2.685459
v -0.809067 0.191596 2.712709
v -0.750750 0.847070 3.448464
v -1.362937 0.943030 3.523402
v -1.362937 1.545107 3.339463
v -1.362937 1.389557 3.509777
v -1.362937 1.170550 3.577902
v -0.750750 1.545107 3.339463
v -0.750750 1.389557 3.509777
v -0.750750 0.943030 3.523402
v -0.750750 1.170550 3.577902
v -0.750750 0.973211 -2.437575
v -1.362937 0.973211 -2.437575
v -0.750750 1.121796 -2.335387
v -1.362937 1.121796 -2.335387
v -0.809067 1.571419 -2.567014
v -0.809067 1.281215 -2.096948
v -0.809067 1.001071 -2.757765
v -0.750750 1.281215 -2.096948
v -0.750750 1.001071 -2.757765
v -1.362937 0.219455 -2.553388
v -0.809067 0.778968 -3.221018
v -1.362937 0.778968 -3.221018
v -0.809067 1.560584 -2.996204
v -1.362937 1.560584 -2.996204
v -1.362937 0.857904 -3.302768
v -1.362937 1.075363 -3.391331
v -1.362937 1.482423 -3.221018
v -1.362937 1.296692 -3.364081
v -0.809067 1.075363 -3.391331
v -0.809067 0.857904 -3.302768
v -0.809067 1.482423 -3.221018
v -0.809067 1.296692 -3.364081
vn -1.0000 -0.0000 -0.0000
vn -0.0000 0.9301 -0.3673
vn -0.0000 -0.9207 0.3903
vn 1.0000 -0.0000 -0.0000
vn -0.0000 0.9497 0.3133
vn -0.0000 -0.0467 0.9989
vn -0.0000 -0.7384 -0.6744
vn -0.0000 -0.9838 -0.1795
vn -0.0000 0.6155 -0.7881
vn -0.0000 -0.2970 -0.9549
vn -0.0000 -1.0000 0.0032
vn -0.0000 -0.8358 -0.5490
vn -0.0000 0.5667 -0.8239
vn -0.0000 0.7664 0.6423
vn -0.0000 -0.6102 0.7922
vn -0.0000 0.7194 0.6946
vn -0.0000 -0.9445 0.3284
vn -0.0000 -0.1222 0.9925
vn -0.0000 0.3772 0.9261
vn -0.0000 0.3601 0.9329
vn -0.0000 -0.9997 0.0252
vn -0.0000 1.0000 -0.0000
vn -0.0000 0.7155 -0.6986
vn -0.0000 -1.0000 0.0025
vn 0.0005 -1.0000 0.0026
vn -0.0000 0.9995 0.0324
vn -0.0000 0.9978 -0.0656
vn -0.0000 -1.0000 -0.0000
vn -0.0000 -0.7801 0.6257
vn -0.0000 0.3399 0.9405
vn -0.0000 0.2330 -0.9725
vn -0.0000 0.9525 -0.3045
vn -0.0000 0.8979 -0.4402
vn -0.0000 0.9651 -0.2618
s 0
f 109//49 117//49 82//49
f 109//49 82//49 76//49
f 85//50 111//50 112//50
f 85//50 112//50 86//50
f 115//51 117//51 116//51
f 115//51 116//51 114//51
f 117//49 109//49 111//49
f 117//49 111//49 116//49
f 118//52 110//52 73//52
f 118//52 73//52 72//52
f 81//53 118//53 72//53
f 81//53 72//53 74//53
f 85//49 89//49 116//49
f 85//49 116//49 111//49
f 92//52 86//52 112//52
f 92//52 112//52 110//52
f 114//54 116//54 89//54
f 114//54 89//54 90//54
f 105//55 106//55 103//55
f 105//55 103//55 102//55
f 88//56 105//56 102//56
f 88//56 102//56 91//56
f 101//57 107//57 94//57
f 101//57 94//57 93//57
f 106//58 108//58 104//58
f 106//58 104//58 103//58
f 113//59 90//59 92//59
f 113//49 115//49 114//49
f 113//49 114//49 90//49
f 73//60 110//60 109//60
f 73//60 109//60 76//60
f 110//61 112//61 111//61
f 110//61 111//61 109//61
f 119//62 120//62 118//62
f 119//62 118//62 81//62
f 128//49 119//49 121//49
f 126//63 130//63 129//63
f 126//63 129//63 125//63
f 121//49 129//49 127//49
f 121//49 127//49 128//49
f 130//49 127//49 129//49
f 119//64 128//64 123//64
f 119//64 123//64 120//64
f 125//65 129//65 121//65
f 125//65 121//65 122//65
f 124//66 127//66 130//66
f 124//66 130//66 126//66
f 123//67 128//67 127//67
f 123//67 127//67 124//67
f 123//52 122//52 120//52
f 120//52 110//52 118//52
f 113//49 121//49 119//49
f 113//49 119//49 115//49
f 80//49 115//49 119//49
f 80//49 119//49 81//49
f 117//68 115//68 80//68
f 117//68 80//68 82//68
f 124//52 125//52 122//52
f 124//52 122//52 123//52
f 126//52 125//52 124//52
f 122//69 121//69 113//69
f 122//69 113//69 92//69
f 120//52 122//52 92//52
f 120//52 92//52 110//52
f 86//70 87//70 84//70
f 86//70 84//70 85//70
f 88//49 89//49 85//49
f 88//49 85//49 84//49
f 82//49 83//49 77//49
f 82//49 77//49 76//49
f 79//70 83//70 82//70
f 79//70 82//70 80//70
f 86//52 92//52 91//52
f 86//52 91//52 87//52
f 95//71 96//71 93//71
f 95//71 93//71 94//71
f 89//72 88//72 90//72
f 91//73 92//73 90//73
f 91//72 90//72 88//72
f 81//49 74//49 66//49
f 81//49 66//49 69//49
f 67//52 72//52 73//52
f 66//74 74//74 72//74
f 66//74 72//74 67//74
f 68//70 69//70 66//70
f 68//70 66//70 67//70
f 68//75 70//75 71//75
f 68//75 71//75 69//75
f 73//52 70//52 68//52
f 73//52 68//52 67//52
f 80//49 81//49 69//49
f 80//49 69//49 79//49
f 76//76 77//76 75//76
f 76//76 75//76 73//76
f 75//52 78//52 70//52
f 75//52 70//52 73//52
f 77//77 97//77 98//77
f 77//77 98//77 75//77
f 87//78 98//78 97//78
f 87//78 97//78 84//78
f 97//49 106//49 105//49
f 97//49 105//49 88//49
f 98//52 103//52 104//52
f 98//52 104//52 101//52
f 87//52 91//52 98//52
f 100//57 94//57 107//57
f 100//49 107//49 97//49
f 108//79 107//79 101//79
f 108//79 101//79 104//79
f 84//49 97//49 88//49
f 97//49 107//49 108//49
f 97//49 108//49 106//49
f 102//52 103//52 98//52
f 102//52 98//52 91//52
f 94//80 100//80 83//80
f 94//80 83//80 79//80
f 98//52 101//52 93//52
f 98//52 93//52 96//52
f 79//49 99//49 95//49
f 79//49 95//49 94//49
f 83//49 100//49 97//49
f 83//49 97//49 77//49
f 95//81 99//81 78//81
f 95//81 78//81 96//81
f 71//49 99//49 79//49
f 71//49 79//49 69//49
f 75//52 98//52 96//52
f 75//52 96//52 78//52
f 70//82 78//82 99//82
f 70//82 99//82 71//82
o Turret_01_havok_s_armor_1_0
v -0.281745 1.582745 -1.498970
v -0.301745 1.668745 -1.498970
v -0.286745 1.625745 -1.573970
vn -0.9720 -0.2260 -0.0648
s 0
f 131//83 132//83 133//83
o Hull_havok_s_armor_3_0
v -0.750747 2.619009 0.737836
v 0.750746 2.619009 0.737836
v 0.750746 1.667152 0.736652
v -0.750747 1.667152 0.736652
v 0.750746 1.716494 -0.171530
v 0.750746 2.619009 -0.171530
v -0.750747 1.716493 -0.171530
v -0.750747 2.619009 -0.171530
v -0.790747 2.619009 -0.171530
v -0.790746 1.716493 -0.171530
v 1.384130 1.466540 2.512991
v 1.384130 0.727257 2.351136
v 1.384130 0.995252 2.682829
v -1.384128 0.727257 2.351138
v -1.384128 1.466542 2.512991
v -1.384128 0.995252 2.682829
v -1.384128 1.466542 -1.466575
v -1.384128 0.727263 -2.065896
v 1.384130 1.466542 -1.466575
v 1.384130 0.727263 -2.065896
v 0.790747 1.716494 -0.171530
v 0.790747 2.619009 -0.171530
v 0.790747 2.619009 -1.126358
v 0.790747 1.716494 -2.074259
v 0.790747 2.503618 -2.034652
v -0.790747 2.619009 -1.126358
v -0.790746 1.716493 -2.074252
v -0.790746 2.503618 -2.034646
v 1.384130 1.121420 -2.338392
v 1.384130 0.973015 -2.435348
v 0.750746 0.973018 -2.435361
v 0.750746 1.121424 -2.338406
v -1.384128 1.121420 -2.338392
v -1.384128 0.973015 -2.435348
v -0.750747 0.973018 -2.435361
v -0.750747 1.121424 -2.338406
vn 1.0000 -0.0000 -0.0000
vn -1.0000 -0.0000 -0.0000
vn -0.0000 -0.0000 -1.0000
vn -0.0000 -0.5469 0.8372
vn -0.0000 0.0012 -1.0000
s 0
f 143//84 160//84 159//84
f 143//84 159//84 142//84
f 160//84 161//84 159//84
f 156//85 158//85 157//85
f 155//86 154//86 138//86
f 155//86 138//86 139//86
f 151//84 167//84 166//84
f 151//84 166//84 150//84
f 167//87 168//87 169//87
f 167//87 169//87 166//87
f 162//85 163//85 153//85
f 162//85 153//85 152//85
f 162//87 165//87 164//87
f 162//87 164//87 163//87
f 156//85 157//85 154//85
f 156//85 154//85 155//85
f 140//84 141//84 134//84
f 140//84 134//84 137//84
f 140//86 143//86 142//86
f 140//86 142//86 141//86
f 136//88 137//88 134//88
f 136//88 134//88 135//88
f 135//85 139//85 138//85
f 135//85 138//85 136//85
f 147//84 151//84 150//84
f 147//84 150//84 148//84
f 152//85 153//85 145//85
f 152//85 145//85 144//85
f 144//85 145//85 146//85
f 147//84 148//84 149//84
o Hull_havok_s_surveyingDevice_1
v 0.325853 1.590353 -2.094097
v 0.445202 2.316473 -2.058343
v 0.212084 2.704571 -0.874898
v 0.315490 2.704571 -0.874898
v 0.429658 1.622588 -2.078959
v 0.222122 1.622596 -2.078947
v 0.222122 1.558119 -2.082190
v 0.429658 1.558111 -2.082201
v 0.420282 2.371646 -2.041282
v 0.420282 2.260781 -2.046853
v 0.470123 2.260781 -2.046855
v 0.315479 2.669169 -0.821873
v 0.211824 2.669169 -0.821875
v 0.315458 2.669169 -0.874898
v 0.212078 2.669169 -0.874898
v 0.470123 2.371647 -2.041282
vn -1.0000 0.0009 0.0004
vn -0.0000 -0.0000 1.0000
vn -0.0000 -0.2954 0.9554
vn -0.4969 -0.0436 0.8667
vn 1.0000 -0.0002 0.0048
vn -0.1290 -0.0498 0.9904
vn 0.0001 0.3463 0.9381
vn -0.0000 -0.4252 0.9051
vn 0.1292 -0.0498 0.9904
vn -0.0000 -0.8317 -0.5553
vn 0.4969 -0.0436 0.8667
vn -0.0000 0.2020 0.9794
s 0
f 183//89 181//89 173//89
f 172//90 184//90 183//90
f 172//90 183//90 173//90
f 185//91 178//91 171//91
f 185//92 171//92 180//92
f 182//93 184//93 172//93
f 177//94 174//94 170//94
f 177//95 170//95 176//95
f 170//96 174//96 175//96
f 170//97 175//97 176//97
f 181//98 182//98 172//98
f 181//98 172//98 173//98
f 171//99 178//99 179//99
f 171//100 179//100 180//100
o Hull_havok_s_armor_7_2
v 0.750746 0.727258 2.351128
v 0.750746 0.727265 -2.065907
v 0.750746 0.541919 0.189205
v 0.750746 0.541919 2.496711
v 0.750746 0.727490 -2.653280
v 0.750746 0.541919 -2.583617
v -0.750747 0.727258 2.351128
v -0.750747 0.541919 2.496711
v -0.750747 0.541919 0.189205
v -0.750747 0.727265 -2.065907
v 1.384130 0.727263 -2.065896
v 1.384130 0.973015 -2.435347
v 0.750746 0.973018 -2.435361
v -1.384128 0.727263 -2.065896
v -0.750747 0.973018 -2.435361
v -1.384128 0.973015 -2.435347
v -0.750747 1.001167 -2.756019
v 0.750746 1.001167 -2.756019
v 0.750746 1.281348 -2.096136
v -0.750747 1.281348 -2.096133
v 1.384130 1.121421 -2.338393
v 1.384130 1.466542 -1.466574
v 0.750746 1.466544 -1.466587
v 0.750746 1.121423 -2.338406
v -1.384128 1.466542 -1.466574
v -1.384128 1.121421 -2.338393
v -0.750747 1.121423 -2.338406
v -0.750747 1.466544 -1.466587
v -0.750747 0.541919 -2.583617
v -0.750747 0.727490 -2.653280
vn -0.0000 -0.9298 0.3681
vn -0.0000 -0.9205 0.3908
vn 1.0000 -0.0000 -0.0000
vn -0.0000 0.8326 0.5538
vn -1.0000 -0.0000 -0.0000
s 0
f 208//101 209//101 206//101
f 208//101 206//101 207//101
f 204//102 205//102 202//102
f 204//102 202//102 203//102
f 214//103 215//103 195//103
f 214//103 195//103 194//103
f 212//101 213//101 210//101
f 212//101 210//101 211//101
f 200//104 201//104 199//104
f 200//104 199//104 195//104
f 187//105 190//105 191//105
f 187//105 191//105 188//105
f 188//105 189//105 186//105
f 188//105 186//105 187//105
f 197//104 198//104 187//104
f 197//104 187//104 196//104
f 194//103 195//103 192//103
f 194//103 192//103 193//103
o Hull_havok_s_armor_15_3
v -0.088141 2.619009 -0.385943
v 0.060107 2.619009 -0.239314
v -0.750747 2.619009 -0.171529
v -0.142340 2.619009 -0.585552
v 0.457181 2.619009 -0.240929
v 0.604263 2.619009 -0.388809
v 0.750746 2.619009 -0.171529
v 0.258568 2.619009 -0.187309
v -0.790747 2.619009 -0.171529
v -0.790747 2.619009 -1.126358
v 0.172247 2.669169 -0.900443
v 0.340132 2.669169 -0.900443
v 0.174337 2.669169 -0.273607
v 0.107539 2.669169 -0.878613
v 0.405143 2.669169 -0.878613
v 0.342223 2.669169 -0.273607
v -0.067094 2.669169 -0.585803
v -0.024299 2.669169 -0.745807
v 0.106046 2.669169 -0.295418
v -0.023101 2.669169 -0.423783
v 0.537571 2.669169 -0.749987
v 0.414684 2.669169 -0.298268
v 0.581564 2.669169 -0.587967
v 0.547200 2.669169 -0.426377
v 0.790747 2.619009 -1.126358
v 0.790747 2.619009 -0.171529
v 0.656811 2.619009 -0.588218
v 0.602611 2.619009 -0.787828
v -0.750747 2.619009 0.737837
v 0.750746 2.619009 0.737837
v -0.790747 2.503619 -2.034645
v 0.790747 2.503619 -2.034652
v 0.255902 2.619009 -0.986461
v 0.057916 2.619009 -0.933595
v 0.455868 2.619009 -0.933595
v -0.089711 2.619009 -0.785104
vn -0.0000 -1.0000 -0.0000
vn -0.0000 -0.9920 0.1260
s 0
f 221//106 242//106 241//106
f 221//106 241//106 222//106
f 222//106 245//106 244//106
f 222//106 244//106 218//106
f 238//106 239//106 237//106
f 238//106 237//106 236//106
f 242//106 243//106 240//106
f 242//106 240//106 241//106
f 240//106 243//106 250//106
f 240//106 250//106 248//106
f 251//106 219//106 225//106
f 251//106 225//106 249//106
f 246//107 247//107 240//107
f 246//107 240//107 225//107
f 225//106 240//106 248//106
f 225//106 248//106 249//106
f 230//106 236//106 237//106
f 230//106 237//106 231//106
f 218//106 217//106 223//106
f 218//106 223//106 222//106
f 218//106 224//106 225//106
f 218//106 225//106 219//106
f 216//106 217//106 218//106
f 216//106 218//106 219//106
f 220//106 221//106 222//106
f 220//106 222//106 223//106
f 228//106 232//106 233//106
f 228//106 233//106 229//106
f 234//106 235//106 232//106
f 234//106 232//106 228//106
f 228//106 229//106 226//106
f 228//106 226//106 227//106
f 230//106 231//106 228//106
f 230//106 228//106 227//106
o Hull_havok_s_armor_5_4
v 0.255869 2.645912 -0.986461
v 0.455755 2.645912 -0.933340
v 0.057936 2.645912 -0.933340
v 0.602545 2.645912 -0.788040
v 0.656811 2.645912 -0.588057
v 0.604107 2.645912 -0.388855
v 0.258602 2.645912 -0.187309
v 0.060278 2.645912 -0.239648
v 0.457316 2.645912 -0.241211
v -0.142340 2.645912 -0.585713
v -0.088074 2.645912 -0.385730
v -0.089636 2.645912 -0.784915
v 0.340132 2.669169 -0.900443
v 0.405143 2.669169 -0.878613
v 0.255902 2.619010 -0.986461
v 0.455868 2.619010 -0.933594
v 0.172247 2.669169 -0.900443
v 0.537571 2.669169 -0.749987
v 0.602611 2.619010 -0.787828
v 0.581564 2.669169 -0.587967
v 0.656811 2.619010 -0.588218
v 0.547200 2.669169 -0.426377
v 0.604263 2.619010 -0.388809
v 0.174337 2.669169 -0.273607
v 0.342223 2.669169 -0.273607
v 0.106046 2.669169 -0.295418
v 0.258568 2.619010 -0.187309
v 0.060107 2.619010 -0.239314
v 0.414684 2.669169 -0.298268
v 0.457181 2.619010 -0.240929
v -0.067094 2.669169 -0.585803
v -0.023101 2.669169 -0.423783
v -0.142340 2.619010 -0.585552
v -0.088140 2.619010 -0.385943
v -0.024298 2.669169 -0.745807
v -0.089711 2.619010 -0.785104
v 0.107539 2.669169 -0.878613
v 0.057916 2.619010 -0.933594
v -0.750747 0.727490 -2.653280
v 0.750746 0.727490 -2.653280
v 0.750746 1.001167 -2.756019
v -0.750747 1.001167 -2.756019
v -0.750747 0.541919 -2.583617
v 0.750746 0.541919 -2.583617
vn 0.2945 -0.9524 0.0788
vn 0.2928 -0.9530 0.0775
vn 0.9669 0.0015 0.2550
vn 0.9667 -0.0045 0.2558
vn 0.2172 -0.9514 -0.2185
vn 0.2138 -0.9525 -0.2171
vn 0.9651 -0.0003 -0.2620
vn 0.9651 -0.0016 -0.2619
vn -0.2173 -0.9499 -0.2248
vn -0.2331 -0.9444 -0.2318
vn -0.7090 -0.0053 -0.7052
vn -0.7091 -0.0038 -0.7050
vn 0.2943 -0.9524 -0.0799
vn 0.2942 -0.9524 -0.0798
vn -0.0000 0.3515 0.9362
vn 0.2580 -0.0093 0.9661
vn 0.2592 0.0003 0.9658
vn 0.1038 -0.9458 0.3078
vn 0.7032 0.0039 -0.7110
vn 0.7016 -0.0133 -0.7125
vn 0.2134 -0.9537 0.2119
vn 0.2129 -0.9539 0.2116
vn 0.7091 -0.0069 0.7050
vn 0.7091 -0.0072 0.7050
vn -0.7047 -0.0097 0.7094
vn -0.7035 0.0039 0.7107
vn -0.2943 -0.9524 0.0799
vn -0.2942 -0.9524 0.0798
vn -0.9651 -0.0003 0.2620
vn -0.9651 -0.0016 0.2619
vn -0.2076 -0.9546 0.2137
vn -0.2142 -0.9525 0.2164
vn -0.1030 -0.9462 0.3068
vn -0.0909 -0.9353 0.3419
vn -0.2556 -0.0003 0.9668
vn -0.2568 -0.0102 0.9664
vn 0.0918 -0.9352 0.3421
vn -0.0000 -0.9653 0.2610
vn 0.2535 -0.0003 -0.9673
vn 0.2551 -0.0136 -0.9668
vn -0.1046 -0.9458 -0.3074
vn -0.0927 -0.9352 -0.3419
vn -0.2606 -0.0088 -0.9654
vn -0.2618 0.0003 -0.9651
vn 0.0997 -0.9448 -0.3122
vn -0.2948 -0.9535 -0.0627
vn -0.3274 -0.9409 -0.0866
vn -0.9670 0.0015 -0.2548
vn -0.9667 -0.0060 -0.2558
vn 0.0897 -0.9362 -0.3399
vn -0.0000 -0.9656 -0.2602
s 0
f 286//108 282//108 261//108
f 286//109 261//109 263//109
f 261//110 284//110 287//110
f 261//111 287//111 263//111
f 283//112 277//112 259//112
f 283//113 259//113 262//113
f 262//114 285//114 284//114
f 262//115 284//115 261//115
f 260//116 280//116 273//116
f 260//117 273//117 257//117
f 257//118 274//118 281//118
f 257//119 281//119 260//119
f 261//120 282//120 283//120
f 261//121 283//121 262//121
f 292//122 293//122 290//122
f 292//122 290//122 291//122
f 294//122 295//122 291//122
f 294//122 291//122 290//122
f 254//123 289//123 266//123
f 254//124 266//124 252//124
f 288//125 254//125 268//125
f 279//126 285//126 262//126
f 279//127 262//127 259//127
f 254//128 288//128 286//128
f 254//129 286//129 263//129
f 263//130 287//130 289//130
f 263//131 289//131 254//131
f 253//132 267//132 270//132
f 253//133 270//133 255//133
f 256//134 271//134 269//134
f 256//135 269//135 255//135
f 255//136 270//136 272//136
f 255//137 272//137 256//137
f 269//138 265//138 253//138
f 269//139 253//139 255//139
f 253//140 265//140 264//140
f 253//141 264//141 252//141
f 252//142 266//142 267//142
f 252//143 267//143 253//143
f 268//144 254//144 252//144
f 268//145 252//145 264//145
f 258//146 278//146 279//146
f 258//147 279//147 259//147
f 276//148 280//148 260//148
f 276//149 260//149 258//149
f 260//150 281//150 278//150
f 260//151 278//151 258//151
f 259//152 277//152 275//152
f 273//153 271//153 256//153
f 273//154 256//154 257//154
f 256//155 272//155 274//155
f 256//156 274//156 257//156
f 258//157 259//157 275//157
f 258//158 275//158 276//158
o Hull_havok_s_armor_2_5
v 1.384131 1.466541 3.304442
v 1.384131 1.466540 2.512992
v 1.384131 0.995252 2.682829
v 1.384131 0.805156 3.075656
v 1.384131 1.310217 3.400859
v 1.384131 0.863754 3.262031
v 1.384131 0.982005 3.380283
v 1.384131 1.143539 3.423565
v 1.384131 0.727257 2.351136
v 1.373638 1.254721 -2.001659
v 1.373638 1.078744 -2.866290
v 1.373638 1.121421 -2.338392
v 1.373638 0.748652 -2.098051
v 1.373638 0.973015 -2.435349
v 1.373638 0.748652 -2.694591
v -1.384128 1.466541 3.304442
v -1.384128 0.805156 3.075656
v -1.384128 0.995252 2.682829
v -1.384128 1.466543 2.512992
v -1.384128 1.310217 3.400859
v -1.384128 1.143539 3.423565
v -1.384128 0.982005 3.380283
v -1.384128 0.863754 3.262031
v -1.384128 0.727257 2.351137
v -1.372587 0.748652 -2.098051
v -1.372587 0.748652 -2.694591
v -1.372587 0.973015 -2.435349
v -1.372587 1.078744 -2.866290
v -1.372587 1.121421 -2.338392
v -1.372587 1.030986 -3.163546
v -1.372587 1.078744 -3.163546
v -1.372587 1.318375 -2.001659
v -1.372587 1.254721 -2.001659
v -1.372587 1.183889 -2.866290
v -1.372587 1.318377 -3.017389
v -1.372587 1.210191 -3.163547
v -1.372587 1.183889 -3.163547
v 1.373638 1.078744 -3.163546
v 1.373638 1.030986 -3.163546
v 1.373638 1.318375 -2.001659
v 1.373638 1.183889 -2.866290
v 1.373638 1.318377 -3.017389
v 1.373638 1.210191 -3.163547
v 1.373638 1.183889 -3.163547
vn 1.0000 -0.0000 -0.0000
vn -1.0000 -0.0000 -0.0000
s 0
f 328//159 324//159 323//159
f 327//159 329//159 330//159
f 323//159 329//159 327//159
f 323//159 327//159 328//159
f 323//159 324//159 322//159
f 323//159 322//159 321//159
f 325//159 326//159 323//159
f 325//159 323//159 321//159
f 329//159 332//159 331//159
f 329//159 331//159 330//159
f 335//160 337//160 336//160
f 338//160 339//160 336//160
f 338//160 336//160 337//160
f 335//160 336//160 306//160
f 335//160 306//160 305//160
f 306//160 310//160 309//160
f 306//160 309//160 307//160
f 306//160 333//160 334//160
f 306//160 334//160 310//160
f 320//159 321//159 322//159
f 304//160 299//160 298//160
f 305//160 306//160 307//160
f 301//160 302//160 303//160
f 301//160 303//160 300//160
f 298//160 299//160 296//160
f 298//160 296//160 297//160
f 299//160 301//160 300//160
f 299//160 300//160 296//160
f 308//160 309//160 310//160
f 318//159 312//159 317//159
f 319//159 313//159 312//159
f 316//159 317//159 312//159
f 316//159 312//159 315//159
f 313//159 314//159 311//159
f 313//159 311//159 312//159
f 311//159 315//159 312//159
o Hull_havok_s_armor_12_6
v -1.368749 0.505529 2.516948
v -1.368749 0.701720 -2.065519
v -1.368749 0.727265 -2.065907
v -1.368749 0.727265 2.583313
v -1.368749 0.505529 -2.063042
v -1.368749 0.492420 -2.165753
v -1.368749 0.703177 -2.431324
v 1.368751 0.727265 -2.065907
v 1.368751 0.701720 -2.065519
v 1.368751 0.505529 2.516948
v 1.368751 0.727265 2.583313
v 1.368751 0.505529 -2.063039
v 1.368751 0.492420 -2.165753
v 1.368751 0.703177 -2.431323
v -1.368749 0.804321 -2.372427
v 1.368751 0.804321 -2.372427
vn -1.0000 -0.0000 -0.0000
vn 1.0000 -0.0000 -0.0000
s 0
f 348//161 353//161 352//161
f 348//161 352//161 351//161
f 349//161 348//161 351//161
f 348//161 355//161 353//161
f 341//162 346//162 354//162
f 340//162 344//162 341//162
f 342//162 343//162 340//162
f 342//162 340//162 341//162
f 349//161 350//161 347//161
f 349//161 347//161 348//161
f 345//162 346//162 341//162
f 345//162 341//162 344//162
o Hull_havok_s_armor_9_7
v -0.750747 1.667152 3.637706
v -0.750747 1.667152 2.512991
v 0.750746 1.667152 2.512991
v 0.750746 1.667152 3.637706
v -0.750747 1.667152 0.736652
v 0.750746 1.667152 0.736652
v -1.384128 1.466542 -1.466575
v -0.750747 1.466544 -1.466587
v -0.750747 1.466545 2.512991
v -1.384128 1.466543 2.512991
v 1.384130 1.466542 -1.466575
v 1.384130 1.466540 2.512991
v 0.750746 1.466545 2.512991
v 0.750746 1.466544 -1.466587
v -0.750747 0.541919 -2.583616
v -0.750747 0.541919 0.189205
v 0.750746 0.541919 0.189205
v 0.750746 0.541919 -2.583616
vn -0.0000 -1.0000 -0.0000
vn -0.0000 1.0000 -0.0000
s 0
f 368//163 369//163 366//163
f 368//163 366//163 367//163
f 372//164 373//164 370//164
f 372//164 370//164 371//164
f 364//163 365//163 362//163
f 364//163 362//163 363//163
f 358//163 359//163 356//163
f 358//163 356//163 357//163
f 360//163 361//163 358//163
f 360//163 358//163 357//163
o Hull_havok_s_armor_10_8
v -0.750747 0.541919 2.496711
v 0.750746 0.541919 2.496711
v 0.750746 0.541919 0.189205
v -0.750747 0.541919 0.189205
v -1.384128 0.727263 -2.065896
v -1.384128 0.727257 2.351138
v -0.750747 0.727258 2.351129
v -0.750747 0.727266 -2.065907
v 1.384130 0.727257 2.351137
v 1.384130 0.727263 -2.065896
v 0.750746 0.727266 -2.065907
v 0.750746 0.727258 2.351129
v 0.750746 0.995255 2.682826
v 1.384130 0.995252 2.682829
v -1.384128 1.466543 2.512992
v -0.750747 1.466545 2.512992
v -0.750747 0.995255 2.682826
v -1.384128 0.995252 2.682829
v 0.750746 1.466545 2.512992
v 1.384130 1.466540 2.512992
vn -0.0000 -0.3390 -0.9408
vn -0.0000 0.7778 -0.6285
vn -0.0000 1.0000 -0.0000
s 0
f 390//165 391//165 388//165
f 390//165 388//165 389//165
f 391//166 390//166 380//166
f 391//166 380//166 379//166
f 392//165 393//165 387//165
f 392//165 387//165 386//165
f 385//166 386//166 387//166
f 385//166 387//166 382//166
f 376//167 377//167 374//167
f 376//167 374//167 375//167
f 380//167 381//167 378//167
f 380//167 378//167 379//167
f 384//167 385//167 382//167
f 384//167 382//167 383//167
o Hull_havok_s_armor_8_9
v 0.750746 0.874556 3.535276
v 0.750746 0.541919 2.496711
v -0.750747 0.541919 2.496711
v -0.750747 0.874556 3.535265
v -0.750747 0.995255 2.682825
v -0.750747 0.727258 2.351128
v 0.750746 1.247854 3.583519
v 0.750746 1.466545 2.512992
v 0.750746 0.995255 2.682825
v 0.750746 0.727258 2.351128
v -0.750747 1.466545 2.512992
v -0.750747 1.247854 3.583513
v -0.750747 1.667152 2.512992
v -0.750747 1.667152 3.637706
v 0.750746 1.667152 3.637706
v 0.750746 1.667152 2.512992
vn 1.0000 -0.0000 -0.0000
vn -1.0000 -0.0000 -0.0000
vn -0.0000 0.9523 -0.3050
s 0
f 404//168 405//168 397//168
f 404//168 397//168 398//168
f 404//168 406//168 407//168
f 404//168 407//168 405//168
f 408//169 409//169 401//169
f 408//169 401//169 400//169
f 402//169 403//169 395//169
f 402//169 395//169 394//169
f 396//170 397//170 394//170
f 396//170 394//170 395//170
f 396//168 399//168 398//168
f 396//168 398//168 397//168
f 401//169 402//169 394//169
f 401//169 394//169 400//169
o Hull_havok_s_armor_6_10
v -0.750747 1.466544 -1.466586
v -0.750748 1.716493 -2.074252
v -0.750747 1.716493 -0.171530
v -0.750747 1.667152 0.736652
v -0.790747 1.716493 -2.074252
v -0.790747 1.716493 -0.171530
v -0.750747 1.667152 2.512992
v -0.750747 1.466545 2.512992
v 0.750746 1.667152 0.736652
v 0.750746 1.466544 -1.466586
v 0.750746 1.466545 2.512992
v 0.750746 1.667152 2.512992
v 0.750746 1.716493 -0.171530
v 0.750746 1.716493 -2.074255
v 0.750746 1.281348 -2.096136
v 0.750746 1.121423 -2.338405
v 0.750746 1.001167 -2.756019
v 0.750746 0.973018 -2.435361
v 0.750746 0.727490 -2.653280
v 0.750746 0.727266 -2.065907
v 0.790747 1.716493 -0.171530
v 0.790747 1.716493 -2.074259
v -0.750747 1.121423 -2.338405
v -0.750748 1.281348 -2.096132
v -0.750747 0.973018 -2.435361
v -0.750747 1.001167 -2.756019
v -0.750747 0.727490 -2.653280
v -0.750747 0.727266 -2.065907
vn -0.0000 1.0000 -0.0000
vn -1.0000 -0.0000 -0.0000
vn 1.0000 -0.0000 -0.0000
s 0
f 422//171 430//171 431//171
f 422//171 431//171 423//171
f 428//172 429//172 427//172
f 428//172 427//172 426//172
f 425//172 424//172 426//172
f 425//172 426//172 427//172
f 434//173 437//173 436//173
f 434//173 436//173 435//173
f 435//173 433//173 432//173
f 435//173 432//173 434//173
f 433//173 411//173 410//173
f 433//173 410//173 432//173
f 413//173 416//173 417//173
f 413//173 417//173 410//173
f 411//171 414//171 415//171
f 411//171 415//171 412//171
f 412//173 413//173 410//173
f 412//173 410//173 411//173
f 419//172 423//172 424//172
f 419//172 424//172 425//172
f 422//172 423//172 419//172
f 422//172 419//172 418//172
f 420//172 421//172 418//172
f 420//172 418//172 419//172
o Hull_havok_s_armor_4_11
v -0.750747 1.667152 3.637706
v 0.750746 1.667152 3.637706
v 0.750746 1.247854 3.583519
v -0.750747 1.247854 3.583513
v 0.750746 0.874556 3.535276
v -0.750747 0.874556 3.535265
vn -0.0000 0.1282 -0.9918
s 0
f 442//174 443//174 441//174
f 442//174 441//174 440//174
f 440//174 441//174 438//174
f 440//174 438//174 439//174
o Hull_havok_s_armor_1_12
v -0.790746 1.716493 -2.074252
v -0.750747 1.716493 -2.074252
v -0.790746 2.503619 -2.034645
v 0.750746 1.716493 -2.074255
v 0.790747 2.503619 -2.034652
v 0.790747 1.716493 -2.074259
v -0.750747 1.281348 -2.096133
v 0.750746 1.281348 -2.096136
vn 0.0001 -0.0503 0.9987
vn -0.0000 -0.0502 0.9987
vn -0.0000 -0.0503 0.9987
s 0
f 449//175 448//175 447//175
f 445//176 450//176 451//176
f 445//176 451//176 447//176
f 444//177 445//177 446//177
f 445//177 447//177 448//177
f 445//177 448//177 446//177
o Hull_havok_s_armor_11_13
v -0.750747 1.664090 3.835999
v 0.750746 1.664090 3.835999
v 0.750746 1.237841 3.835999
v -0.750747 1.237841 3.835999
v -0.750747 1.667152 3.637706
v -0.750747 1.247854 3.583513
v 0.750746 1.667152 3.637706
v 0.750746 1.247854 3.583519
vn -1.0000 -0.0000 -0.0000
vn 1.0000 -0.0000 -0.0000
vn -0.0000 -0.0000 -1.0000
s 0
f 458//178 459//178 454//178
f 458//178 454//178 453//178
f 455//179 457//179 456//179
f 455//179 456//179 452//179
f 454//180 455//180 452//180
f 454//180 452//180 453//180
o Gun_01_havok_s_gun_0
v -0.116607 1.450606 -1.127367
v -0.116607 1.800882 -1.127367
v -0.116607 1.800882 -1.620754
v -0.116607 1.450606 -1.620754
v -0.466883 1.450606 -1.127367
v -0.466883 1.800882 -1.127367
v -0.466883 1.800882 -1.620754
v -0.466883 1.450606 -1.620754
v -0.164862 1.498861 -1.658707
v -0.418628 1.498861 -1.658707
v -0.418628 1.752627 -1.658707
v -0.164862 1.752627 -1.658707
v -0.375678 1.709677 -4.113966
v -0.207812 1.709677 -4.113966
v -0.375678 1.541811 -4.113966
v -0.207812 1.541811 -4.113966
vn -0.0000 0.9998 0.0175
vn -0.0000 -0.0000 1.0000
vn -0.0000 -0.9998 0.0175
vn -0.9998 -0.0000 0.0175
vn -0.6182 -0.0000 0.7860
vn -0.0000 -0.6182 0.7860
vn 0.9998 -0.0000 0.0175
vn -0.0000 -1.0000 -0.0000
vn -0.0000 -0.0000 -1.0000
vn -1.0000 -0.0000 -0.0000
vn -0.0000 1.0000 -0.0000
vn 0.6182 -0.0000 0.7860
vn -0.0000 0.6182 0.7860
vn 1.0000 -0.0000 -0.0000
s 0
f 468//181 475//181 474//181
f 468//181 474//181 469//181
f 474//182 475//182 473//182
f 474//182 473//182 472//182
f 472//183 473//183 471//183
f 472//183 471//183 470//183
f 471//184 473//184 475//184
f 471//184 475//184 468//184
f 471//185 468//185 463//185
f 471//185 463//185 462//185
f 470//186 471//186 462//186
f 470//186 462//186 466//186
f 474//187 472//187 470//187
f 474//187 470//187 469//187
f 461//188 465//188 466//188
f 461//188 466//188 462//188
f 460//189 464//189 465//189
f 460//189 465//189 461//189
f 462//190 463//190 460//190
f 462//190 460//190 461//190
f 463//191 467//191 464//191
f 463//191 464//191 460//191
f 469//192 470//192 466//192
f 469//192 466//192 467//192
f 468//193 469//193 467//193
f 468//193 467//193 463//193
f 467//194 466//194 465//194
f 467//194 465//194 464//194
