# Blender 5.1.0
# www.blender.org
o Chassis_havok_s_leftTrack_0
v -1.495649 0.844794 2.793324
v -0.994669 0.844794 2.793324
v -0.994669 0.700588 2.906597
v -1.495649 0.700588 2.906597
v -1.495649 0.896330 2.623413
v -0.994669 0.896330 2.623413
v -1.495649 0.437708 2.872615
v -1.495649 0.306740 2.748014
v -0.994669 0.437708 2.872615
v -0.994669 0.306740 2.748014
v -0.994669 0.003671 1.949434
v -0.994669 0.138894 2.476157
v -0.994669 0.900113 -1.901873
v -0.994669 0.000834 -1.941518
v -1.495649 0.900113 -1.901873
v -1.495649 0.138894 2.476157
v -1.495649 0.003671 1.949434
v -1.495649 0.000834 -1.941518
v -0.994669 0.968670 -2.655143
v -0.994669 0.340309 -2.666471
v -1.495649 0.968670 -2.655143
v -1.495649 0.340309 -2.666471
v -0.994669 0.597516 -2.887354
v -1.495649 0.597516 -2.887354
v -1.495649 0.884037 -2.819390
v -0.994669 0.884037 -2.819390
vn -1.0000 -0.0000 -0.0000
vn -0.0000 -0.9959 -0.0906
vn -0.0000 0.9056 0.4241
vn -0.0000 1.0000 -0.0007
vn -0.0000 0.9686 -0.2487
vn -0.0000 0.8509 -0.5253
vn -0.0000 -0.2308 0.9730
vn -0.0000 -0.8889 0.4580
vn 1.0000 -0.0000 -0.0000
vn -0.0000 0.6515 0.7586
vn -0.0000 0.1282 -0.9917
vn -0.0000 0.6893 -0.7245
vn -0.0000 -0.6177 -0.7864
vn -0.0000 -0.9569 -0.2903
vn -0.0000 -1.0000 -0.0008
s 0
f 13//1 19//1 20//1
f 13//1 20//1 14//1
f 15//2 21//2 19//2
f 15//2 19//2 13//2
f 20//3 22//3 18//3
f 20//3 18//3 14//3
f 18//4 17//4 11//4
f 18//4 11//4 14//4
f 11//5 17//5 16//5
f 11//5 16//5 12//5
f 10//6 12//6 16//6
f 10//6 16//6 8//6
f 26//7 25//7 24//7
f 26//7 24//7 23//7
f 25//8 26//8 19//8
f 25//8 19//8 21//8
f 26//1 23//1 20//1
f 26//1 20//1 19//1
f 22//9 21//9 15//9
f 22//9 15//9 18//9
f 23//10 24//10 22//10
f 23//10 22//10 20//10
f 22//9 24//9 25//9
f 22//9 25//9 21//9
f 8//9 16//9 15//9
f 8//9 15//9 5//9
f 4//9 7//9 1//9
f 9//11 7//11 4//11
f 9//11 4//11 3//11
f 7//12 9//12 10//12
f 7//12 10//12 8//12
f 3//13 4//13 1//13
f 3//13 1//13 2//13
f 5//14 6//14 2//14
f 5//14 2//14 1//14
f 7//9 8//9 5//9
f 7//9 5//9 1//9
f 13//1 12//1 10//1
f 13//1 10//1 6//1
f 5//15 15//15 13//15
f 5//15 13//15 6//15
f 17//9 18//9 15//9
f 17//9 15//9 16//9
f 6//1 10//1 9//1
f 6//1 9//1 2//1
f 3//1 2//1 9//1
f 13//1 14//1 11//1
f 13//1 11//1 12//1
o Chassis_havok_s_rightTrack_1
v 1.495649 0.844794 2.793324
v 1.495649 0.700588 2.906597
v 0.994669 0.700588 2.906597
v 0.994669 0.844794 2.793324
v 0.994669 0.896330 2.623413
v 1.495649 0.896330 2.623413
v 1.495649 0.437708 2.872615
v 1.495649 0.306740 2.748014
v 0.994669 0.437708 2.872615
v 0.994669 0.306740 2.748014
v 0.994669 0.900113 -1.901873
v 0.994669 0.138894 2.476157
v 0.994669 0.003671 1.949434
v 0.994669 0.000834 -1.941518
v 1.495649 0.900113 -1.901873
v 1.495649 0.000834 -1.941518
v 1.495649 0.003671 1.949434
v 1.495649 0.138894 2.476157
v 0.994669 0.340309 -2.666471
v 0.994669 0.968670 -2.655143
v 1.495649 0.968670 -2.655143
v 1.495649 0.340309 -2.666471
v 0.994669 0.597516 -2.887354
v 1.495649 0.597516 -2.887354
v 1.495649 0.884037 -2.819390
v 0.994669 0.884037 -2.819390
vn 1.0000 -0.0000 -0.0000
vn -0.0000 -0.9959 -0.0906
vn -0.0000 0.9056 0.4241
vn -0.0000 1.0000 -0.0007
vn -0.0000 0.9686 -0.2487
vn -0.0000 0.8509 -0.5253
vn -0.0000 -0.2308 0.9730
vn -0.0000 -0.8889 0.4580
vn -1.0000 -0.0000 -0.0000
vn -0.0000 0.6515 0.7586
vn -0.0000 0.1282 -0.9917
vn -0.0000 0.6893 -0.7245
vn -0.0000 -0.6177 -0.7864
vn -0.0000 -0.9569 -0.2903
vn -0.0000 -1.0000 -0.0008
s 0
f 45//16 46//16 37//16
f 45//16 37//16 40//16
f 46//17 47//17 41//17
f 46//17 41//17 37//17
f 42//18 48//18 45//18
f 42//18 45//18 40//18
f 39//19 43//19 42//19
f 39//19 42//19 40//19
f 44//20 43//20 39//20
f 44//20 39//20 38//20
f 44//21 38//21 36//21
f 44//21 36//21 34//21
f 50//22 51//22 52//22
f 50//22 52//22 49//22
f 46//23 52//23 51//23
f 46//23 51//23 47//23
f 45//16 49//16 52//16
f 45//16 52//16 46//16
f 41//24 47//24 48//24
f 41//24 48//24 42//24
f 48//25 50//25 49//25
f 48//25 49//25 45//25
f 51//24 50//24 48//24
f 51//24 48//24 47//24
f 41//24 44//24 34//24
f 41//24 34//24 32//24
f 28//24 27//24 33//24
f 28//26 33//26 35//26
f 28//26 35//26 29//26
f 36//27 35//27 33//27
f 36//27 33//27 34//27
f 29//28 30//28 27//28
f 29//28 27//28 28//28
f 30//29 31//29 32//29
f 30//29 32//29 27//29
f 32//24 34//24 33//24
f 32//24 33//24 27//24
f 36//16 38//16 37//16
f 36//16 37//16 31//16
f 37//30 41//30 32//30
f 37//30 32//30 31//30
f 43//24 44//24 41//24
f 43//24 41//24 42//24
f 35//16 36//16 31//16
f 35//16 31//16 30//16
f 29//16 35//16 30//16
f 39//16 40//16 37//16
f 39//16 37//16 38//16
o Turret_01_havok_s_armor_1_0
v 0.806618 2.421776 -0.384225
v 1.012000 1.853603 -0.481587
v 1.007039 1.974975 -0.284990
v 0.798681 2.420716 -0.236308
v 0.961399 1.956425 -0.064051
v 0.976282 1.708379 -0.389842
v 0.876071 1.712089 0.096972
v 0.956438 1.676049 -0.507800
v 0.821501 1.665448 -0.073413
v -0.026816 2.420716 0.111951
v 0.022793 2.420716 -0.071541
v -0.026816 2.420716 -0.253160
v -0.159769 2.420716 -0.387969
v -0.343323 2.420716 -0.436651
v -0.343323 2.634841 -0.419800
v -0.168698 2.634841 -0.372990
v -0.343323 2.634841 -0.071541
v -0.516955 2.634841 -0.372990
v -0.041699 2.634841 -0.245670
v 0.004934 2.634841 -0.071541
v -0.525885 2.420716 -0.387969
v -0.493143 1.549906 -0.060306
v 0.001957 1.549906 0.143781
v 0.496065 1.549906 -0.060306
v -0.697532 1.549906 -0.554609
v 0.700454 1.549906 -0.554609
v 0.931633 1.549906 -0.507800
v 0.804634 1.549906 -0.079030
v -0.794766 2.421246 -0.384225
v -0.887039 1.836642 -0.987125
v -0.927719 1.549906 -0.507800
v -1.001141 1.968615 -0.294351
v -1.019000 1.864203 -0.490949
v -0.970383 1.676579 -0.509673
v -0.980305 1.710499 -0.401076
v -0.659829 2.420716 -0.253160
v -0.644947 2.634841 -0.245670
v -0.796751 2.421246 -0.236308
v -0.691579 2.634841 -0.071541
v -0.708446 2.420716 -0.071541
v -0.948555 1.975505 -0.084647
v -0.828501 1.664388 -0.065924
v -0.801712 1.549906 -0.079030
v -0.866204 1.715269 0.076376
v 0.446455 1.711559 0.862767
v 0.503010 1.665978 0.272974
v -0.004988 1.664918 0.424635
v -0.433612 1.722160 0.857150
v 0.001957 1.549906 0.359102
v 0.493088 1.549906 0.216803
v 0.491104 1.837172 0.928299
v -0.486197 1.839822 0.928299
v -0.382018 2.421246 0.821575
v 0.395854 2.421246 0.821575
v -0.159769 2.420716 0.246760
v -0.343323 2.420716 0.295442
v 0.465307 2.420716 0.769149
v -0.168698 2.634841 0.229909
v -0.041699 2.634841 0.102589
v 0.736173 1.830282 0.595019
v 0.623064 1.836642 0.834681
v 0.829438 1.841942 0.359102
v 0.702439 1.714209 0.572551
v 0.586353 1.716859 0.776638
v -0.508025 1.669688 0.271101
v -0.691579 1.717919 0.538849
v -0.585416 1.720570 0.778511
v -0.490166 1.549906 0.216803
v -0.445518 2.421246 0.769149
v -0.615181 1.832402 0.830937
v -0.525885 2.420716 0.246760
v -0.516955 2.634841 0.229909
v -0.343323 2.634841 0.276718
v -0.644947 2.634841 0.102589
v -0.659829 2.420716 0.111951
v -0.812626 1.818622 0.357230
v -0.730274 1.836642 0.563189
v 0.484337 2.311593 -1.571260
v 0.513659 2.245862 -1.641236
v 0.552755 2.079342 -1.750399
v 0.663061 1.839124 -1.688820
v 0.273498 1.722401 -1.554466
v 0.273498 1.851075 -1.650753
v -0.238239 1.851075 -1.650753
v -0.238239 1.722401 -1.554466
v -0.475607 2.316772 -1.569021
v -0.493759 2.261796 -1.655231
v -0.551007 2.065399 -1.767193
v -0.642463 1.839522 -1.720729
v -0.363207 2.365373 -1.353494
v -0.245221 2.365373 -1.353494
v -0.448380 2.268170 -1.717370
v -0.366697 2.266975 -1.746480
v -0.366697 2.235106 -1.718490
v -0.366697 2.272154 -1.657471
v -0.245221 2.348243 -1.350695
v -0.237541 2.272154 -1.657471
v -0.238239 2.235106 -1.567901
v -0.245221 2.264984 -1.337259
v 0.395673 2.365373 -1.353494
v 0.276989 2.365373 -1.353494
v 0.276291 2.348243 -1.350695
v 0.397767 2.272154 -1.657471
v 0.274894 2.278130 -1.653552
v 0.273498 2.235106 -1.567901
v 0.275593 2.264984 -1.337259
v 0.451524 2.268170 -1.717370
v 0.397767 2.266975 -1.746480
v 0.397767 2.235106 -1.718490
v 0.391484 2.070179 -1.874677
v 0.391484 1.851075 -1.801342
v 0.474563 2.070179 -1.844447
v 0.391484 1.840319 -1.848926
v 0.520640 1.840319 -1.817016
v 0.273498 1.851075 -1.801342
v 0.273498 2.235106 -1.718490
v 0.274196 2.272154 -1.657471
v 0.391484 1.722401 -1.704495
v 0.273498 1.722401 -1.704495
v 0.391484 1.713238 -1.740882
v 0.538792 1.717620 -1.705614
v 0.662363 1.720409 -1.556145
v -0.238239 1.722401 -1.704495
v -0.238239 1.851075 -1.801342
v -0.238239 2.235106 -1.718490
v -0.360414 1.713238 -1.740882
v -0.360414 1.840319 -1.848926
v -0.517496 1.840319 -1.817016
v -0.536346 1.717620 -1.705614
v -0.360414 1.851075 -1.801342
v -0.360414 1.722401 -1.704495
v -0.671087 1.721206 -1.535432
v -0.471419 2.070179 -1.844447
v -0.360414 2.070179 -1.874677
v 0.001223 1.549906 -1.503523
v -0.341564 1.549906 -1.424030
v -0.354829 1.549906 -1.452020
v -0.358320 1.645515 -1.456499
v -0.595688 1.644718 -1.328862
v 0.001223 1.674596 -1.503523
v -0.341564 1.660653 -1.424030
v 0.394277 1.641930 -1.458178
v 0.371936 1.660653 -1.424030
v 0.371936 1.549906 -1.424030
v 0.387295 1.549906 -1.452020
v 0.599530 1.649100 -1.340618
v 0.758008 1.711246 -1.301991
v 0.597139 2.421375 -1.169285
v 0.789702 1.838595 -1.302612
v 0.858299 1.669715 -0.964085
v -0.596273 2.421375 -1.169285
v 0.001557 1.549906 -1.254467
v -0.492921 1.549906 -1.049648
v 0.496034 1.549906 -1.049648
v 0.854074 1.549906 -0.962439
v 0.592150 1.549906 -1.314953
v -0.791999 1.840410 -1.296376
v -0.850962 1.549906 -0.962439
v -0.589037 1.549906 -1.314955
v -0.765589 1.710796 -1.284976
v -0.858190 1.668946 -0.966094
vn -0.0000 1.0000 -0.0000
vn -0.9532 0.1667 -0.2522
vn -0.6823 0.1345 -0.7186
vn -0.6854 0.3638 -0.6308
vn -0.5623 -0.2406 -0.7912
vn -0.5864 -0.2372 -0.7745
vn -0.2103 0.9580 -0.1949
vn -0.1499 0.9869 -0.0591
vn -0.8857 0.3221 -0.3342
vn -0.8839 0.3371 -0.3242
vn 0.0381 0.9949 -0.0939
vn 0.0382 0.9948 -0.0939
vn 0.1477 0.9861 -0.0763
vn -0.4684 0.4974 -0.7302
vn -0.4879 0.5338 -0.6907
vn -0.1187 0.9897 -0.0803
vn -0.0901 0.9923 -0.0853
vn -0.8083 0.4382 -0.3931
vn -0.8190 0.3290 -0.4701
vn 0.0014 0.5179 -0.8554
vn 0.0112 0.4594 -0.8882
vn 0.0003 -1.0000 0.0010
vn -0.0000 -1.0000 0.0009
vn -0.0000 -0.1797 -0.9837
vn -0.0005 -0.1805 -0.9836
vn -0.2500 0.4390 -0.8630
vn -0.2538 0.4672 -0.8469
vn -0.0040 -1.0000 0.0048
vn -0.0000 -1.0000 -0.0000
vn -0.8979 -0.3241 -0.2977
vn -0.8709 -0.2805 -0.4036
vn -0.8420 -0.4079 -0.3530
vn -0.8240 -0.4270 -0.3725
vn -0.7057 -0.0798 -0.7040
vn -0.7094 -0.0846 -0.6997
vn -0.9628 -0.0803 -0.2579
vn -0.9624 -0.0783 -0.2602
vn 0.8419 0.4342 -0.3204
vn 0.8566 0.3558 -0.3736
vn 0.8470 0.3932 -0.3578
vn 0.8529 0.3562 -0.3817
vn 0.2611 0.9288 -0.2629
vn 0.1615 0.9846 -0.0666
vn 0.6689 0.2372 -0.7045
vn 0.6647 0.3884 -0.6382
vn 0.8181 -0.4143 -0.3988
vn 0.9584 0.1549 -0.2398
vn 0.9630 -0.0782 -0.2579
vn 0.9639 -0.0759 -0.2554
vn -0.0040 -1.0000 -0.0011
vn -0.0119 -0.9999 0.0031
vn -0.0347 -0.9993 0.0121
vn -0.0012 -1.0000 0.0012
vn 0.8911 -0.3301 -0.3113
vn 0.8768 -0.2927 -0.3815
vn 0.8896 -0.3178 -0.3279
vn 0.4593 0.6009 -0.6542
vn 0.4011 0.4742 -0.7838
vn -0.0003 -1.0000 0.0011
vn -0.0008 -1.0000 0.0009
vn 0.5923 -0.2510 -0.7656
vn 0.6168 -0.2477 -0.7471
vn 0.2507 0.4304 -0.8671
vn 0.2587 0.4900 -0.8325
vn 0.2594 -0.0841 -0.9621
vn 0.2567 -0.0865 -0.9626
vn -0.2580 -0.0842 -0.9625
vn -0.2554 -0.0864 -0.9630
vn 0.7071 -0.0799 -0.7026
vn 0.7027 -0.0849 -0.7064
vn 0.2595 -0.0782 0.9626
vn 0.2569 -0.0758 0.9635
vn -0.2582 -0.0758 0.9631
vn -0.2556 -0.0781 0.9636
vn -0.9628 -0.0803 0.2579
vn -0.9619 -0.0760 0.2627
vn -0.7058 -0.0787 0.7040
vn -0.7101 -0.0738 0.7003
vn 0.0011 -1.0000 -0.0011
vn 0.0001 -1.0000 -0.0072
vn -0.9789 0.1620 -0.1247
vn -0.9545 0.2866 0.0820
vn -0.4491 0.8879 -0.0992
vn -0.5236 0.8400 -0.1422
vn -0.9586 0.2037 -0.1989
vn -0.9656 0.1838 -0.1840
vn -0.9096 -0.3633 0.2013
vn -0.9069 -0.4183 -0.0517
vn -0.8931 -0.3937 -0.2176
vn 0.0011 -1.0000 0.0002
vn -0.0000 -1.0000 -0.0009
vn 0.0002 -1.0000 -0.0007
vn -0.9037 -0.3538 0.2413
vn -0.8963 -0.3667 0.2494
vn -0.9432 0.2658 0.1992
vn -0.9581 0.1262 0.2571
vn 0.9632 -0.0759 0.2579
vn 0.9632 -0.0760 0.2578
vn -0.0039 -1.0000 -0.0001
vn -0.0020 -1.0000 -0.0020
vn 0.9748 0.1478 -0.1670
vn 0.9682 0.2498 0.0104
vn 0.7033 -0.0736 0.7070
vn 0.7072 -0.0786 0.7026
vn 0.9107 -0.4128 0.0122
vn 0.9004 -0.3792 -0.2133
vn -0.0258 0.9965 -0.0795
vn 0.0127 0.9928 -0.1188
vn 0.9596 0.1608 -0.2309
vn 0.9531 0.1782 -0.2448
vn 0.9244 0.2494 -0.2887
vn 0.9141 0.3039 -0.2686
vn 0.5620 0.8148 -0.1424
vn 0.6268 0.7582 -0.1796
vn 0.8984 -0.3760 0.2271
vn 0.8930 -0.3599 0.2701
vn -0.0020 -1.0000 -0.0007
vn -0.0002 -1.0000 -0.0008
vn -0.9677 0.1903 0.1651
vn -0.9771 0.0373 0.2096
vn -0.9422 0.1853 -0.2791
vn -0.9449 0.1520 -0.2898
vn 0.9476 0.2227 0.2292
vn 0.9507 0.1939 0.2421
vn 0.9351 0.3173 0.1579
vn 0.9692 0.0661 0.2371
vn 0.8787 -0.4028 0.2561
vn 0.9119 -0.3910 0.1248
vn 0.9341 0.1980 0.2972
vn 0.9327 0.2155 0.2893
vn -1.0000 -0.0000 -0.0000
vn -0.9995 -0.0099 -0.0297
vn -0.9996 -0.0183 -0.0209
vn -0.0000 -0.8548 0.5190
vn -0.0000 -0.2109 0.9775
vn 0.2259 -0.0000 0.9741
vn -0.0000 0.9729 0.2314
vn 0.0100 0.9767 0.2144
vn 0.4670 0.1603 0.8696
vn 0.5042 0.0588 0.8616
vn 0.5148 0.5316 0.6726
vn 0.6289 0.6076 0.4851
vn 0.6085 -0.0841 0.7891
vn 0.6972 -0.0544 0.7149
vn 0.1650 0.6490 0.7427
vn 0.1529 0.6401 0.7529
vn -0.0000 0.6014 0.7990
vn 0.2233 -0.5270 0.8200
vn 0.2751 -0.5418 0.7942
vn 0.5798 -0.7368 0.3478
vn 0.7284 -0.4871 0.4819
vn 0.6290 -0.4704 0.6189
vn 0.1985 0.0768 0.9771
vn 0.2612 0.1075 0.9593
vn -0.4032 0.8861 0.2286
vn -0.9245 0.2316 0.3028
vn -0.8245 0.0368 0.5646
vn -0.7849 0.2093 0.5832
vn -0.8955 0.3340 0.2941
vn -0.9086 0.2278 0.3501
vn -0.1964 0.6430 0.7402
vn -0.1850 0.6366 0.7487
vn -0.1823 0.9481 0.2605
vn -0.3971 0.8996 0.1819
vn -0.0092 0.9767 0.2144
vn -0.2097 -0.0000 0.9778
vn -0.5535 0.0973 0.8272
vn -0.4875 0.2525 0.8358
vn 0.1544 0.9436 0.2930
vn 0.3977 0.8982 0.1874
vn 0.9057 0.2798 0.3186
vn 0.9104 0.2165 0.3525
vn -0.8887 -0.0000 0.4586
vn -0.9036 -0.0129 0.4282
vn 0.0704 0.9705 0.2306
vn 0.2000 0.9701 0.1379
vn -0.9999 -0.0150 0.0038
vn -0.8242 0.5389 0.1740
vn 0.9998 0.0196 -0.0049
vn 0.7821 0.5949 0.1855
vn 0.8762 -0.0343 0.4808
vn 0.8368 -0.0000 0.5475
vn -0.0873 0.9657 0.2445
vn -0.2211 0.9612 0.1649
vn 0.8104 0.0671 0.5820
vn 0.7945 0.1423 0.5903
vn 0.4042 0.8844 0.2335
vn 0.1426 -0.9460 0.2911
vn -0.0401 -0.9734 0.2255
vn 0.9999 -0.0096 -0.0078
vn 0.9996 -0.0285 0.0020
vn -0.0000 0.1613 0.9869
vn -0.0000 -0.9568 0.2909
vn -0.9995 -0.0048 -0.0296
vn -0.9995 -0.0260 -0.0186
vn 0.0367 -0.9666 0.2537
vn -0.0000 -0.9917 0.1285
vn -0.0003 0.1613 0.9869
vn 0.0001 0.1593 0.9872
vn 0.0764 -0.9603 0.2683
vn -0.1090 -0.9644 0.2409
vn 0.9996 0.0277 -0.0016
vn 1.0000 -0.0000 -0.0000
vn 0.8594 -0.3673 0.3556
vn 0.8591 -0.4939 0.1341
vn 0.8785 -0.4027 0.2572
vn -0.0000 0.5991 0.8007
vn -0.8616 -0.4965 0.1053
vn -0.8659 -0.3645 0.3425
vn -0.8861 -0.3811 0.2640
vn -0.8951 -0.3359 0.2931
vn -0.9989 0.0462 -0.0027
vn -0.1442 -0.9456 0.2916
vn -0.0000 -0.9706 0.2407
vn -0.1374 -0.9485 0.2855
vn 0.0720 -0.9677 0.2417
vn 0.8998 -0.2990 0.3177
vn -0.0426 -0.9696 0.2409
vn -0.0000 0.1593 0.9872
vn 0.9949 -0.0954 -0.0317
vn 0.9998 -0.0188 -0.0000
vn -0.6626 -0.6641 0.3462
vn -0.9998 0.0188 -0.0000
vn -0.5768 0.5007 0.6455
vn -0.6343 0.5778 0.5136
vn -0.2393 0.0676 0.9686
vn -0.3401 0.1047 0.9346
vn -0.2930 -0.5153 0.8054
vn -0.3952 -0.5283 0.7515
vn 0.9995 -0.0099 -0.0297
vn 0.9996 -0.0183 -0.0209
vn -0.0000 -0.5484 0.8362
vn -0.7433 -0.4800 0.4660
vn -0.6610 -0.4583 0.5942
vn -0.6650 -0.1163 0.7377
vn -0.7630 -0.0764 0.6418
s 0
f 102//31 80//31 76//31
f 114//32 57//32 59//32
f 61//33 80//33 102//33
f 61//34 102//34 98//34
f 109//35 113//35 103//35
f 109//36 103//36 106//36
f 59//37 61//37 98//37
f 59//38 98//38 115//38
f 115//39 112//39 114//39
f 115//40 114//40 59//40
f 99//41 117//41 100//41
f 119//42 100//42 117//42
f 119//43 117//43 118//43
f 113//44 116//44 97//44
f 113//45 97//45 103//45
f 116//46 115//46 98//46
f 116//47 98//47 97//47
f 116//48 113//48 112//48
f 116//49 112//49 115//49
f 100//50 104//50 103//50
f 100//51 103//51 97//51
f 105//52 108//52 107//52
f 105//53 107//53 106//53
f 105//54 106//54 103//54
f 105//55 103//55 104//55
f 75//31 101//31 102//31
f 75//31 102//31 76//31
f 98//56 102//56 101//56
f 98//57 101//57 99//57
f 109//58 106//58 107//58
f 109//59 107//59 62//59
f 109//60 56//60 112//60
f 109//61 112//61 113//61
f 114//62 112//62 56//62
f 114//63 56//63 57//63
f 109//59 62//59 56//59
f 110//64 111//64 62//64
f 110//65 62//65 107//65
f 111//66 72//66 63//66
f 111//67 63//67 62//67
f 118//68 96//68 128//68
f 118//69 128//69 129//69
f 129//70 122//70 119//70
f 129//71 119//71 118//71
f 120//31 74//31 95//31
f 117//72 94//72 96//72
f 117//73 96//73 118//73
f 120//74 95//74 94//74
f 120//75 94//75 117//75
f 93//76 90//76 128//76
f 93//77 128//77 96//77
f 91//78 126//78 127//78
f 91//79 127//79 92//79
f 90//80 88//80 92//80
f 90//81 92//81 127//81
f 121//82 90//82 127//82
f 121//83 127//83 123//83
f 128//84 90//84 121//84
f 121//85 122//85 129//85
f 121//86 129//86 128//86
f 122//87 104//87 100//87
f 122//88 100//88 119//88
f 121//89 123//89 108//89
f 121//90 108//90 105//90
f 104//91 122//91 121//91
f 104//92 121//92 105//92
f 120//31 101//31 75//31
f 120//31 75//31 74//31
f 101//93 120//93 117//93
f 101//94 117//94 99//94
f 124//95 125//95 108//95
f 124//96 108//96 123//96
f 69//59 124//59 126//59
f 69//59 126//59 91//59
f 111//59 110//59 69//59
f 111//59 69//59 72//59
f 125//59 124//59 69//59
f 125//59 69//59 110//59
f 108//97 125//97 110//97
f 108//98 110//98 107//98
f 123//99 127//99 126//99
f 123//100 126//100 124//100
f 67//101 70//101 73//101
f 67//102 73//102 66//102
f 68//103 67//103 66//103
f 68//104 66//104 65//104
f 63//105 72//105 71//105
f 63//106 71//106 64//106
f 71//59 72//59 69//59
f 71//59 69//59 68//59
f 71//107 68//107 65//107
f 71//108 65//108 64//108
f 64//109 65//109 53//109
f 64//110 53//110 56//110
f 207//31 206//31 78//31
f 207//31 78//31 79//31
f 207//31 208//31 206//31
f 78//31 206//31 204//31
f 78//31 204//31 76//31
f 75//31 76//31 204//31
f 75//31 204//31 74//31
f 204//31 205//31 77//31
f 204//31 77//31 74//31
f 58//111 55//111 54//111
f 58//112 54//112 60//112
f 61//113 59//113 58//113
f 61//114 58//114 60//114
f 58//115 59//115 57//115
f 58//116 57//116 55//116
f 53//117 54//117 55//117
f 53//118 55//118 56//118
f 57//119 56//119 55//119
f 56//59 62//59 63//59
f 56//59 63//59 64//59
f 200//120 53//120 65//120
f 69//59 70//59 67//59
f 69//59 67//59 68//59
f 66//121 203//121 200//121
f 66//122 200//122 65//122
f 53//123 200//123 201//123
f 53//124 201//124 54//124
f 202//125 60//125 54//125
f 202//126 54//126 201//126
f 89//127 91//127 92//127
f 89//128 92//128 88//128
f 69//59 91//59 89//59
f 69//59 89//59 70//59
f 88//129 90//129 81//129
f 88//130 81//130 73//130
f 85//131 84//131 87//131
f 85//132 87//132 86//132
f 70//133 89//133 88//133
f 70//134 88//134 73//134
f 84//135 81//135 90//135
f 84//136 90//136 93//136
f 77//31 83//31 95//31
f 77//31 95//31 74//31
f 97//137 98//137 99//137
f 97//138 99//138 100//138
f 93//139 96//139 87//139
f 93//140 87//140 84//140
f 86//141 94//141 95//141
f 86//142 95//142 83//142
f 87//143 96//143 94//143
f 87//144 94//144 86//144
f 203//145 81//145 82//145
f 203//146 82//146 209//146
f 73//147 81//147 203//147
f 73//148 203//148 66//148
f 207//149 79//149 60//149
f 207//150 60//150 202//150
f 80//31 79//31 78//31
f 80//31 78//31 76//31
f 60//151 79//151 80//151
f 60//152 80//152 61//152
f 77//31 205//31 210//31
f 77//31 210//31 83//31
f 85//153 86//153 213//153
f 85//154 213//154 82//154
f 86//155 83//155 210//155
f 86//156 210//156 213//156
f 85//157 82//157 81//157
f 85//158 81//158 84//158
f 211//31 210//31 205//31
f 82//159 213//159 212//159
f 82//160 212//160 209//160
f 177//161 176//161 136//161
f 177//161 136//161 150//161
f 188//31 205//31 204//31
f 188//31 204//31 187//31
f 186//162 182//162 146//162
f 186//163 146//163 145//163
f 177//164 149//164 147//164
f 177//164 147//164 146//164
f 146//165 182//165 176//165
f 146//165 176//165 177//165
f 187//166 192//166 193//166
f 187//166 193//166 188//166
f 175//167 192//167 171//167
f 183//168 193//168 192//168
f 183//167 192//167 175//167
f 211//31 205//31 188//31
f 211//31 188//31 189//31
f 190//169 191//169 211//169
f 190//170 211//170 189//170
f 181//171 180//171 141//171
f 181//172 141//172 184//172
f 140//173 141//173 180//173
f 140//174 180//174 185//174
f 178//161 183//161 182//161
f 178//161 182//161 179//161
f 180//175 181//175 178//175
f 180//176 178//176 179//176
f 176//177 182//177 183//177
f 176//177 183//177 175//177
f 185//178 186//178 145//178
f 185//179 145//179 144//179
f 139//180 144//180 138//180
f 144//181 139//181 140//181
f 144//182 140//182 185//182
f 185//183 180//183 179//183
f 185//184 179//184 186//184
f 186//161 179//161 182//161
f 175//59 171//59 134//59
f 175//59 134//59 137//59
f 199//185 198//185 202//185
f 199//186 202//186 201//186
f 207//187 202//187 198//187
f 207//188 198//188 208//188
f 201//189 133//189 174//189
f 201//190 174//190 199//190
f 172//191 173//191 166//191
f 172//192 166//192 165//192
f 174//193 194//193 198//193
f 174//194 198//194 199//194
f 192//195 195//195 170//195
f 192//167 170//167 171//167
f 187//196 196//196 195//196
f 187//196 195//196 192//196
f 194//197 197//197 208//197
f 194//198 208//198 198//198
f 204//31 206//31 196//31
f 204//31 196//31 187//31
f 196//31 206//31 208//31
f 196//31 208//31 197//31
f 191//199 190//199 184//199
f 191//200 184//200 212//200
f 184//201 141//201 209//201
f 184//202 209//202 212//202
f 188//203 193//203 190//203
f 188//204 190//204 189//204
f 190//205 178//205 181//205
f 190//206 181//206 184//206
f 183//207 178//207 190//207
f 183//208 190//208 193//208
f 194//209 172//209 170//209
f 194//210 170//210 195//210
f 196//211 197//211 194//211
f 196//212 194//212 195//212
f 173//213 172//213 194//213
f 173//214 194//214 174//214
f 191//215 213//215 210//215
f 191//216 210//216 211//216
f 213//217 191//217 212//217
f 155//218 152//218 154//218
f 155//219 154//219 156//219
f 154//220 158//220 157//220
f 154//221 157//221 156//221
f 153//222 154//222 152//222
f 153//223 152//223 200//223
f 150//224 151//224 148//224
f 150//225 148//225 149//225
f 130//226 200//226 152//226
f 150//227 157//227 158//227
f 150//227 158//227 151//227
f 151//228 154//228 153//228
f 151//229 153//229 148//229
f 153//223 200//223 203//223
f 153//223 203//223 143//223
f 159//230 130//230 152//230
f 159//231 152//231 160//231
f 160//232 152//232 155//232
f 160//233 155//233 161//233
f 209//234 138//234 203//234
f 139//235 138//235 209//235
f 139//236 209//236 140//236
f 136//237 137//237 134//237
f 136//237 134//237 135//237
f 130//238 131//238 201//238
f 130//239 201//239 200//239
f 201//240 131//240 132//240
f 201//241 132//241 133//241
f 147//242 142//242 145//242
f 147//161 145//161 146//161
f 148//243 142//243 147//243
f 148//244 147//244 149//244
f 142//245 138//245 144//245
f 142//246 144//246 145//246
f 141//247 140//247 209//247
f 203//248 138//248 142//248
f 203//223 142//223 143//223
f 158//249 154//249 151//249
f 163//233 170//233 172//233
f 163//233 172//233 165//233
f 171//233 167//233 135//233
f 171//233 135//233 134//233
f 167//177 171//177 170//177
f 167//177 170//177 163//177
f 169//250 156//250 157//250
f 169//251 157//251 168//251
f 131//252 130//252 159//252
f 136//161 176//161 175//161
f 136//161 175//161 137//161
f 149//253 177//253 150//253
f 135//233 167//233 168//233
f 135//233 168//233 157//233
f 133//254 166//254 173//254
f 133//255 173//255 174//255
f 135//165 157//165 150//165
f 135//165 150//165 136//165
f 165//256 166//256 164//256
f 165//257 164//257 162//257
f 163//233 165//233 162//233
f 160//258 162//258 164//258
f 160//259 164//259 159//259
f 148//222 153//222 143//222
f 148//222 143//222 142//222
f 161//260 163//260 162//260
f 161//261 162//261 160//261
f 155//164 169//164 168//164
f 155//164 168//164 161//164
f 155//262 156//262 169//262
f 161//165 168//165 167//165
f 161//165 167//165 163//165
f 132//263 131//263 159//263
f 132//264 159//264 164//264
f 166//265 133//265 132//265
f 166//266 132//266 164//266
o Hull_havok_s_armor_1_0
v 0.947955 1.177201 3.203444
v -0.947958 1.177201 3.203444
v -0.947958 1.549139 2.788104
v 0.947955 1.549139 2.788104
v 0.947955 0.809936 2.847438
v 0.663889 0.810604 2.847438
v -0.663892 0.810604 2.847438
v -0.947958 1.549139 2.230362
v 0.947955 1.549139 2.230362
v -0.947958 0.810604 2.847438
v -0.947958 1.111761 2.230362
v -0.663892 0.696418 2.918639
v -0.947958 0.696418 2.918639
v 0.947955 1.111761 2.230362
v 1.315569 1.111761 2.230362
v 0.944099 1.548471 2.165095
v 0.947955 0.401271 2.378698
v 0.663889 0.401271 2.443965
v -0.663892 0.401271 2.443965
v 0.663889 0.696418 2.918639
v 0.663889 0.302444 2.521100
v 0.663889 0.302444 2.716903
v 0.663889 0.401271 2.378698
v -0.663892 0.401271 2.384631
v -0.663892 0.460033 2.894906
v -0.663892 0.302444 2.521100
v -0.663892 0.295098 2.669436
v -0.663892 0.347183 2.805904
v 0.947955 0.303111 2.521100
v 0.947955 0.303111 2.716903
v 0.947955 0.381906 2.835572
v 0.947955 0.503437 2.918639
v 0.947955 0.696418 2.918639
v 0.663889 0.381906 2.841505
v 0.663889 0.503437 2.918639
v -0.947958 0.347183 2.805904
v -0.947958 0.295098 2.669436
v -0.947958 0.303111 2.521100
v -0.947958 0.460033 2.894906
v -0.947958 0.401271 2.384631
v 0.947955 1.111761 -2.201905
v 0.947955 0.801923 -2.735913
v 0.947955 0.638324 -2.747780
v 0.947955 0.401271 -2.332441
v 0.947955 1.549139 0.135864
v 0.947955 1.549139 -1.442427
v 1.315569 1.111761 -2.201905
v -0.947958 0.401271 -2.332441
v -0.947958 0.801923 -2.735913
v -0.947958 1.111761 -2.201905
v -0.947958 0.638324 -2.747780
v -0.947958 1.549139 -1.442427
v -0.947958 1.549139 0.141797
v -1.315572 1.111761 2.230362
v -1.315572 1.111761 -2.201905
v -0.944102 1.549139 2.165095
v -0.013498 1.401566 -1.697564
v -0.013498 1.161174 -2.112904
v 0.292419 1.288715 -1.893367
v 0.284707 1.143145 -2.142571
v 0.296275 1.299399 -2.095104
v 0.395248 1.378862 -2.059503
v 0.409387 1.372852 -1.745032
v 0.355402 1.119774 -2.184105
v 0.540494 1.406908 -1.685697
v -0.517361 1.161174 -2.112904
v -0.517361 1.401566 -1.697564
v 0.785999 1.288715 -1.893367
v 0.701165 1.119774 -2.184105
v 0.791140 1.143145 -2.142571
v 0.779572 1.299399 -2.095104
v 0.681884 1.378862 -2.059503
v 0.537923 1.408243 -2.047636
v 0.670316 1.372852 -1.745032
v 0.947955 0.713112 -2.866449
v -0.947958 0.713112 -2.866449
v -0.807853 1.661989 1.909957
v -0.824563 1.659986 0.319800
v -0.599624 1.659986 0.319800
v -0.303990 1.661989 0.509670
v -0.864409 1.642624 0.260466
v -0.854126 1.648634 2.052360
v 0.807850 1.661989 1.909957
v 0.307843 1.661989 0.503736
v 0.599621 1.659986 0.319800
v 0.824560 1.659986 0.319800
v 0.854123 1.648634 2.052360
v 0.868262 1.642624 0.254532
v 0.324553 1.549139 0.385068
v 0.635611 1.549139 0.135864
v 0.599621 1.642624 0.254532
v 0.298846 1.633276 0.444402
v -0.298849 1.633276 0.444402
v -0.328412 1.549139 0.385068
v 0.001926 1.549139 0.147731
v -0.642041 1.549139 0.129930
v -0.492939 1.549139 -0.059939
v 0.495506 1.549139 -0.059939
v -0.599624 1.642624 0.254532
v -0.697312 1.549139 -0.552413
v 0.495506 1.549139 -1.050821
v 0.701165 1.549139 -0.552413
v -0.492939 1.549139 -1.050821
v 0.001926 1.549139 -1.252558
v -0.338695 1.549139 -1.442427
v 0.352831 1.491045 -1.543295
v -0.338695 1.490377 -1.543295
v -0.339980 1.549139 -1.543295
v 0.351546 1.549139 -1.543295
v 0.352831 1.549139 -1.442427
vn 0.7406 -0.6720 -0.0020
vn 0.7465 -0.6654 -0.0014
vn 0.2818 -0.9595 0.0016
vn 0.4033 -0.9151 -0.0031
vn -0.0000 -1.0000 0.0013
vn -0.0056 -1.0000 0.0020
vn 0.0055 -1.0000 0.0020
vn -0.0000 -0.8268 0.5625
vn -0.0000 -0.8650 0.5019
vn -0.0000 -0.9119 0.4105
vn -0.0004 -0.9999 0.0103
vn -0.0000 -1.0000 -0.0000
vn -0.0000 -0.9956 -0.0934
vn 0.5002 -0.6000 0.6244
vn 0.4998 -0.3920 0.7724
vn -0.0000 -0.7498 -0.6617
vn -0.0003 -0.7477 -0.6641
vn -0.7419 -0.6705 -0.0036
vn -0.7621 -0.6475 -0.0017
vn -0.2801 -0.9600 0.0010
vn -0.3727 -0.9279 -0.0027
vn -1.0000 -0.0000 -0.0000
vn 0.0062 -0.8771 0.4802
vn 0.0182 -0.8632 0.5046
vn -0.9962 -0.0821 0.0274
vn -0.0113 -0.4217 0.9066
vn -0.0000 -0.4334 0.9012
vn -0.3357 -0.2965 0.8941
vn -0.0256 -0.4348 0.9002
vn -0.0042 -0.8655 0.5009
vn -0.0013 -0.8666 0.4991
vn -0.0000 -0.8666 0.4991
vn 0.0039 -0.8666 0.4990
vn -0.0000 0.8685 0.4957
vn -0.0000 0.8460 0.5332
vn 1.0000 -0.0000 -0.0000
vn -0.6190 -0.7845 -0.0378
vn -0.6354 -0.7719 -0.0206
vn 0.0147 -0.4352 0.9002
vn 0.2537 -0.9673 -0.0054
vn 0.2038 -0.9786 -0.0279
vn -0.2020 -0.9790 -0.0261
vn -0.2545 -0.9671 -0.0018
vn 0.2415 -0.8873 0.3928
vn 0.1889 -0.9490 0.2524
vn -0.0010 -0.8640 0.5035
vn -0.0026 -0.8614 0.5079
vn 0.0008 -0.8659 0.5002
vn -0.0000 -0.8641 0.5034
vn 0.9997 0.0219 -0.0127
vn 0.0024 -0.8650 0.5017
vn 0.0078 -0.8672 0.4980
vn -0.9997 -0.0221 0.0127
vn -0.0015 -0.8680 0.4965
vn -0.0000 -0.8656 0.5007
vn -0.0000 -0.0000 1.0000
vn -0.0000 -0.9153 0.4027
vn 0.0042 -0.9004 0.4351
vn -0.0000 -0.7855 0.6188
vn -0.0000 -0.9664 0.2571
vn -0.0000 -0.5763 0.8172
vn 0.0062 -0.9609 0.2770
vn -0.5036 -0.3727 0.7794
vn -0.5054 -0.5988 0.6213
vn -0.1889 -0.9490 0.2524
vn -0.2353 -0.8963 0.3758
vn 0.0134 -0.8020 0.5972
vn 0.0236 -0.7933 0.6084
vn -0.0116 0.8330 -0.5531
vn -0.0020 0.8431 -0.5377
vn -0.0024 1.0000 -0.0000
vn -0.0019 0.8215 0.5702
vn -0.0000 0.8233 0.5675
vn -0.0176 0.5358 -0.8442
vn -0.0000 0.5643 -0.8256
vn -0.0000 -0.5291 -0.8486
vn -0.0012 -0.5314 -0.8471
vn -0.0000 -0.0000 -1.0000
vn -0.0000 0.6967 -0.7174
vn -0.0000 -0.5291 -0.8485
vn -0.0000 -0.7450 -0.6671
vn 0.0016 0.7004 -0.7138
vn -0.0000 0.6960 -0.7180
vn -0.0000 1.0000 -0.0000
vn -0.0000 0.7020 -0.7122
vn -0.7645 -0.6426 0.0517
vn -0.0000 0.0999 -0.9950
vn 0.7621 -0.6475 -0.0015
vn 0.7647 -0.6428 0.0452
vn 0.0013 -0.8655 0.5009
vn 0.7655 -0.6434 -0.0000
vn -0.0000 -0.8655 0.5009
vn -0.0000 -0.8743 0.4854
vn -0.0022 -0.8643 0.5030
vn -0.0013 -0.8725 0.4887
vn -0.0034 -0.8687 0.4954
vn -0.0024 -0.8650 0.5018
vn -0.0020 -0.8634 0.5044
vn 0.9968 -0.0783 0.0149
vn 0.6186 -0.7845 -0.0428
vn 0.6321 -0.7743 -0.0289
vn 0.4106 -0.2927 0.8636
vn 0.0271 -0.4366 0.8992
vn -0.0000 0.9985 0.0539
vn 0.0023 0.9988 0.0495
vn -0.0000 0.8118 0.5839
vn 0.0019 0.8099 0.5865
vn -0.0000 0.9343 -0.3566
vn -0.0000 0.6193 -0.7852
vn -0.7616 -0.6481 -0.0017
vn -0.7655 -0.6434 -0.0000
s 0
f 294//267 295//267 269//267
f 294//268 269//268 266//268
f 290//269 295//269 294//269
f 290//270 294//270 291//270
f 298//271 299//271 296//271
f 298//272 296//272 297//272
f 292//273 293//273 290//273
f 292//271 290//271 291//271
f 289//274 288//274 255//274
f 289//274 255//274 262//274
f 254//275 263//275 262//275
f 254//275 262//275 255//275
f 254//276 282//276 277//276
f 254//276 277//276 263//276
f 269//277 229//277 222//277
f 269//278 222//278 221//278
f 296//279 300//279 295//279
f 296//279 295//279 290//279
f 302//280 303//280 304//280
f 302//281 304//281 305//281
f 269//282 295//282 300//282
f 269//283 300//283 229//283
f 229//284 300//284 301//284
f 229//285 301//285 258//285
f 301//286 300//286 296//286
f 301//287 296//287 299//287
f 293//278 297//278 296//278
f 293//278 296//278 290//278
f 288//288 256//288 255//288
f 254//289 283//289 282//289
f 283//290 254//290 281//290
f 283//291 281//291 284//291
f 285//292 286//292 277//292
f 285//293 277//293 282//293
f 282//294 283//294 284//294
f 282//295 284//295 285//295
f 263//296 279//296 280//296
f 263//297 280//297 265//297
f 268//298 263//298 265//298
f 259//299 281//299 254//299
f 259//298 254//298 260//298
f 264//300 261//300 257//300
f 264//300 257//300 256//300
f 288//301 289//301 264//301
f 288//301 264//301 256//301
f 262//302 264//302 289//302
f 281//303 287//303 285//303
f 281//304 285//304 284//304
f 286//305 275//305 277//305
f 286//306 278//306 276//306
f 286//307 276//307 275//307
f 286//308 285//308 287//308
f 286//309 287//309 278//309
f 298//310 297//310 305//310
f 298//311 305//311 304//311
f 313//278 266//278 265//278
f 313//278 265//278 316//278
f 259//312 319//312 270//312
f 259//313 270//313 278//313
f 319//314 320//314 270//314
f 316//278 314//278 313//278
f 314//278 316//278 317//278
f 314//278 317//278 259//278
f 265//278 318//278 317//278
f 265//278 317//278 316//278
f 310//278 313//278 314//278
f 310//278 314//278 308//278
f 318//315 265//315 320//315
f 318//316 320//316 321//316
f 317//278 318//278 323//278
f 317//278 323//278 259//278
f 259//317 278//317 287//317
f 259//318 287//318 281//318
f 319//298 259//298 323//298
f 319//319 323//319 322//319
f 270//320 320//320 265//320
f 270//321 265//321 280//321
f 322//278 323//278 318//278
f 322//278 318//278 321//278
f 322//322 321//322 320//322
f 322//322 320//322 319//322
f 311//278 315//278 258//278
f 311//278 258//278 303//278
f 307//278 308//278 302//278
f 307//278 309//278 310//278
f 307//278 310//278 308//278
f 302//278 308//278 311//278
f 302//278 311//278 303//278
f 293//323 306//323 305//323
f 293//324 305//324 297//324
f 301//325 304//325 303//325
f 301//325 303//325 258//325
f 304//326 301//326 299//326
f 304//326 299//326 298//326
f 306//327 307//327 302//327
f 306//327 302//327 305//327
f 313//278 310//278 309//278
f 313//278 309//278 266//278
f 314//278 315//278 311//278
f 314//278 311//278 308//278
f 259//278 258//278 315//278
f 259//278 315//278 314//278
f 291//328 294//328 312//328
f 291//326 312//326 292//326
f 307//329 306//329 312//329
f 307//330 312//330 309//330
f 292//331 312//331 306//331
f 292//332 306//332 293//332
f 309//333 312//333 294//333
f 309//334 294//334 266//334
f 247//335 244//335 243//335
f 247//336 243//336 235//336
f 243//337 242//337 234//337
f 243//337 234//337 235//337
f 236//338 234//338 242//338
f 236//339 242//339 230//339
f 245//288 246//288 218//288
f 245//288 218//288 244//288
f 239//288 232//288 237//288
f 242//288 243//288 218//288
f 242//288 218//288 230//288
f 243//288 244//288 218//288
f 233//302 248//302 247//302
f 233//302 247//302 235//302
f 250//302 251//302 223//302
f 250//302 223//302 249//302
f 252//302 249//302 223//302
f 252//302 223//302 226//302
f 244//340 247//340 248//340
f 244//341 248//341 245//341
f 234//302 236//302 231//302
f 246//342 233//342 219//342
f 246//343 219//343 218//343
f 245//344 248//344 233//344
f 245//344 233//344 246//344
f 240//288 241//288 238//288
f 240//288 238//288 239//288
f 215//345 220//345 223//345
f 215//302 223//302 224//302
f 225//342 226//342 223//342
f 225//346 223//346 220//346
f 224//302 221//302 216//302
f 224//302 216//302 215//302
f 221//278 222//278 217//278
f 221//278 217//278 216//278
f 216//347 217//347 214//347
f 216//347 214//347 215//347
f 218//348 219//348 215//348
f 218//349 215//349 214//349
f 215//345 219//345 220//345
f 219//302 233//302 231//302
f 233//302 235//302 234//302
f 233//302 234//302 231//302
f 231//350 236//350 237//350
f 231//350 237//350 232//350
f 231//351 232//351 220//351
f 231//351 220//351 219//351
f 217//288 222//288 227//288
f 217//288 227//288 214//288
f 228//344 227//344 222//344
f 228//352 222//352 229//352
f 227//288 230//288 218//288
f 227//288 218//288 214//288
f 238//353 252//353 226//353
f 238//353 226//353 225//353
f 269//354 267//354 266//354
f 221//344 224//344 267//344
f 221//355 267//355 269//355
f 270//356 271//356 272//356
f 263//350 268//350 267//350
f 263//350 267//350 224//350
f 264//302 262//302 253//302
f 264//302 253//302 261//302
f 253//350 237//350 261//350
f 267//357 268//357 265//357
f 267//357 265//357 266//357
f 270//358 280//358 279//358
f 270//358 279//358 271//358
f 271//359 279//359 263//359
f 271//360 263//360 273//360
f 263//361 277//361 273//361
f 270//362 272//362 276//362
f 270//363 276//363 278//363
f 272//364 271//364 273//364
f 272//365 273//365 274//365
f 275//366 276//366 272//366
f 275//367 272//367 274//367
f 274//368 273//368 277//368
f 274//369 277//369 275//369
f 253//302 262//302 263//302
f 253//302 263//302 224//302
f 251//370 250//370 240//370
f 251//371 240//371 239//371
f 237//372 253//372 251//372
f 237//373 251//373 239//373
f 223//302 251//302 253//302
f 223//302 253//302 224//302
f 250//374 249//374 241//374
f 250//374 241//374 240//374
f 241//375 249//375 252//375
f 241//375 252//375 238//375
f 225//288 220//288 232//288
f 239//288 238//288 225//288
f 239//288 225//288 232//288
f 228//350 260//350 254//350
f 228//350 254//350 227//350
f 229//376 258//376 228//376
f 236//350 257//350 261//350
f 236//350 261//350 237//350
f 259//377 260//377 228//377
f 259//377 228//377 258//377
f 254//288 255//288 230//288
f 254//288 230//288 227//288
f 256//288 257//288 230//288
f 256//288 230//288 255//288
f 230//350 257//350 236//350
o Gun_01_havok_s_armor_1_0
v 0.334507 1.788454 -1.822883
v 0.019526 1.855756 -1.874493
v -0.315355 1.788454 -1.822883
v 0.326958 1.901949 -1.877127
v 0.102903 1.880535 -1.880286
v -0.063851 1.880229 -1.880286
v -0.296484 1.901949 -1.877127
v -0.322561 1.741955 -1.778646
v 0.341026 1.741955 -1.778646
v 0.348232 1.692091 -1.689118
v -0.330109 1.692091 -1.689118
v -0.295798 2.022173 -1.882920
v 0.328331 2.015749 -1.890292
v 0.330733 2.131385 -1.862907
v 0.365044 2.318299 -1.628028
v -0.337315 2.318299 -1.627502
v -0.316728 2.270576 -1.753367
v 0.352349 2.270576 -1.753367
v 0.343428 2.231419 -1.798131
v -0.308150 2.231419 -1.798131
v -0.299229 2.131385 -1.862907
v -0.065224 2.150352 -1.860801
v 0.019526 2.175436 -1.850268
v 0.103590 2.150963 -1.860274
v -0.184628 2.064389 -1.886606
v -0.080664 2.119454 -1.877127
v 0.118687 2.117313 -1.878180
v 0.223680 2.064389 -1.887659
v -0.061106 2.145457 -2.129911
v 0.019526 2.169012 -2.129911
v 0.099472 2.146069 -2.129911
v 0.019526 1.862792 -2.129911
v 0.099129 1.886041 -2.129911
v -0.060077 1.885735 -2.129911
v -0.088555 2.050929 -2.166249
v 0.086434 1.923669 -2.166249
v 0.127951 1.980569 -2.166249
v 0.127951 2.050929 -2.166249
v -0.047381 1.923669 -2.166249
v 0.019526 1.901949 -2.166249
v -0.082379 1.909902 -2.129911
v -0.088555 1.980569 -2.166249
v 0.120402 1.908985 -2.129911
v 0.019526 2.129549 -2.166249
v -0.047381 2.107829 -2.166249
v 0.086434 2.107829 -2.166249
v -0.082036 2.120372 -2.129911
v 0.120059 2.119760 -2.129911
v -0.176736 1.968638 -2.129911
v -0.184285 1.966191 -1.892399
v -0.077919 1.914185 -1.889766
v -0.176736 2.063166 -2.129911
v 0.215789 1.968638 -2.129911
v 0.114569 1.912962 -1.889239
v 0.223680 1.966191 -1.891872
v 0.215789 2.063166 -2.129911
v -0.379929 1.733200 -1.642560
v 0.405925 1.734315 -1.641699
v -0.379929 1.865523 -1.788710
v -0.379929 1.776573 -1.720297
v -0.379205 1.915866 -1.806587
v -0.377859 2.029692 -1.818136
v 0.405925 1.865523 -1.788710
v 0.405201 1.915866 -1.806587
v 0.405925 1.776573 -1.720297
v 0.403855 2.015056 -1.818170
v 0.403855 2.116758 -1.800810
v 0.421688 2.294296 -1.576029
v -0.395692 2.294296 -1.576029
v 0.401147 2.165549 -1.780373
v 0.401147 2.238388 -1.710870
v -0.375152 2.238388 -1.710870
v -0.375152 2.165549 -1.780373
v -0.377859 2.116758 -1.800810
vn 0.2075 -0.6393 0.7404
vn 0.1941 -0.6645 0.7216
vn -0.2065 -0.6361 0.7435
vn -0.1908 -0.6649 0.7221
vn 0.5801 -0.4197 0.6981
vn 0.5557 -0.4637 0.6900
vn -0.5883 -0.4292 0.6853
vn -0.5764 -0.4510 0.6814
vn 0.9995 -0.0000 0.0318
vn 0.9995 0.0016 0.0324
vn 0.3810 -0.0000 0.9246
vn 0.5283 0.8487 -0.0249
vn 0.4387 0.8984 0.0232
vn 0.9214 0.3880 0.0225
vn 0.7346 0.6780 -0.0257
vn -0.0000 -0.0000 1.0000
vn 0.5722 0.4140 0.7079
vn 0.5289 0.4881 0.6943
vn -0.5731 0.4182 0.7047
vn -0.5289 0.4904 0.6926
vn 0.2076 0.6396 0.7402
vn 0.1924 0.6675 0.7193
vn -0.2084 0.6421 0.7377
vn -0.1949 0.6672 0.7190
vn 0.2812 -0.4655 0.8392
vn -0.2861 0.4575 0.8419
vn -0.5088 -0.8606 0.0209
vn -0.4509 -0.8925 -0.0111
vn -0.3823 -0.0000 0.9240
vn -0.2797 -0.4731 0.8354
vn -0.0816 -0.2281 0.9702
vn -0.0307 0.1764 0.9838
vn -0.1265 0.3060 0.9436
vn -0.7875 -0.6162 -0.0103
vn -0.9079 -0.4187 0.0215
vn -0.0696 0.1155 0.9909
vn 0.0052 -0.0429 0.9991
vn -0.9995 -0.0000 0.0331
vn -0.9995 -0.0014 0.0326
vn 0.7678 -0.6406 -0.0065
vn 0.8896 -0.4561 0.0219
vn 0.1081 0.0472 0.9930
vn 0.0553 -0.0586 0.9967
vn 0.2850 0.4579 0.8421
vn 0.5169 -0.8558 0.0211
vn 0.4685 -0.8835 -0.0058
vn -0.5300 0.8475 -0.0269
vn -0.4379 0.8987 0.0238
vn -0.9388 0.3438 0.0218
vn -0.7330 0.6796 -0.0290
vn 0.0994 -0.1763 0.9793
vn 0.0487 0.1497 0.9875
vn 0.0395 0.2838 0.9581
vn -0.7201 0.4230 0.5500
vn -0.7188 0.6124 0.3292
vn -0.6834 0.6130 0.3964
vn 0.6221 0.0718 0.7797
vn 0.6517 0.0328 0.7578
vn -0.7198 0.4229 0.5506
vn -0.6259 0.2530 0.7377
vn -0.6567 -0.1269 0.7434
vn -0.6830 -0.1548 0.7138
vn -0.0000 -0.9346 0.3558
vn 0.0003 -0.9350 0.3546
vn -0.6751 0.0765 0.7337
vn -0.6873 0.0917 0.7206
vn -0.6694 0.2836 0.6866
vn 0.6526 0.2452 0.7169
vn 0.6574 0.2331 0.7165
vn 0.0518 0.4236 0.9044
vn 0.0575 0.4113 0.9097
vn -0.0000 0.6893 0.7245
vn -0.0000 0.6085 0.7935
vn -0.0536 0.4277 0.9023
vn -0.0602 0.4147 0.9080
vn 0.7538 0.4006 0.5209
vn 0.7622 0.3802 0.5238
vn 0.7618 0.5657 0.3156
vn 0.7292 0.5698 0.3789
vn -0.0000 0.8736 0.4866
vn -0.0003 0.7470 -0.6648
vn -0.0000 0.7496 -0.6619
vn -0.0000 -0.9063 -0.4226
vn -0.0003 -0.9081 -0.4188
vn 0.5454 -0.3494 0.7619
vn 0.6144 -0.3895 0.6862
vn 0.6298 -0.1516 0.7618
vn 0.6077 -0.1246 0.7843
vn 0.6178 -0.6886 0.3796
vn 0.6379 -0.6797 0.3621
vn 0.6717 -0.5114 0.5360
vn 0.6487 -0.5068 0.5677
vn -0.2803 0.9596 0.0254
vn -0.2831 0.9587 0.0264
vn 0.2769 0.9606 0.0254
vn 0.2799 0.9597 0.0264
vn 0.2803 -0.9597 0.0217
vn 0.2812 -0.9594 0.0220
vn -0.2758 -0.9610 0.0217
vn -0.2770 -0.9606 0.0221
vn -0.0168 -0.3227 0.9463
vn -0.1905 -0.5264 0.8286
vn -0.6327 -0.6765 0.3769
vn -0.6984 -0.6425 0.3154
vn 0.0473 -0.5183 0.8539
vn 0.0363 -0.5409 0.8403
vn -0.6492 -0.3242 0.6881
vn -0.6281 -0.3652 0.6871
vn -0.7355 -0.4678 0.4902
vn -0.6978 -0.4644 0.5453
vn -0.0000 -0.7527 0.6584
vn 0.0164 -0.3083 0.9511
vn 0.2097 -0.5367 0.8173
vn -0.0485 -0.5161 0.8552
vn -0.0368 -0.5399 0.8409
vn -0.0000 -0.6815 0.7318
s 0
f 352//378 368//378 367//378
f 352//379 367//379 353//379
f 367//380 369//380 354//380
f 367//381 354//381 353//381
f 370//382 358//382 368//382
f 370//383 368//383 352//383
f 369//384 361//384 371//384
f 369//385 371//385 354//385
f 373//386 372//386 375//386
f 373//387 375//387 348//387
f 375//388 372//388 365//388
f 375//388 365//388 358//388
f 374//389 364//389 372//389
f 374//390 372//390 373//390
f 374//391 329//391 357//391
f 374//392 357//392 364//392
f 369//393 358//393 361//393
f 362//394 365//394 364//394
f 362//395 364//395 357//395
f 362//393 358//393 365//393
f 360//393 361//393 358//393
f 360//393 358//393 359//393
f 358//393 362//393 363//393
f 358//393 363//393 359//393
f 366//396 360//396 359//396
f 366//397 359//397 356//397
f 358//393 369//393 367//393
f 358//393 367//393 368//393
f 363//398 362//398 357//398
f 363//399 357//399 355//399
f 356//400 359//400 363//400
f 356//401 363//401 355//401
f 370//402 375//402 358//402
f 366//403 376//403 360//403
f 371//404 379//404 351//404
f 371//405 351//405 350//405
f 360//406 376//406 379//406
f 360//406 379//406 361//406
f 361//407 379//407 371//407
f 337//408 351//408 336//408
f 328//409 327//409 378//409
f 328//410 378//410 377//410
f 354//411 371//411 350//411
f 354//412 350//412 347//412
f 378//413 327//413 336//413
f 378//414 336//414 351//414
f 379//415 376//415 378//415
f 379//416 378//416 351//416
f 349//417 370//417 352//417
f 349//418 352//418 345//418
f 335//419 330//419 373//419
f 335//420 373//420 348//420
f 365//421 372//421 364//421
f 348//422 375//422 370//422
f 348//423 370//423 349//423
f 376//424 366//424 377//424
f 376//425 377//425 378//425
f 356//426 328//426 377//426
f 356//427 377//427 366//427
f 344//428 335//428 348//428
f 374//429 373//429 330//429
f 374//430 330//430 329//430
f 332//431 388//431 386//431
f 333//432 381//432 388//432
f 333//433 388//433 332//433
f 335//434 385//434 384//434
f 335//435 384//435 330//435
f 324//436 332//436 386//436
f 324//437 386//437 387//437
f 389//438 390//438 337//438
f 389//439 337//439 336//439
f 340//440 341//440 338//440
f 340//441 338//441 339//441
f 327//442 387//442 389//442
f 327//443 389//443 336//443
f 327//444 324//444 387//444
f 330//445 384//445 382//445
f 330//446 382//446 326//446
f 329//447 330//447 326//447
f 329//448 326//448 325//448
f 326//449 331//449 332//449
f 326//449 332//449 324//449
f 324//450 325//450 326//450
f 324//451 327//451 328//451
f 324//452 328//452 325//452
f 326//453 382//453 383//453
f 326//454 383//454 331//454
f 383//455 380//455 334//455
f 383//456 334//456 331//456
f 331//457 334//457 333//457
f 331//457 333//457 332//457
f 380//458 381//458 333//458
f 380//459 333//459 334//459
f 391//460 392//460 339//460
f 391//461 339//461 338//461
f 343//462 396//462 397//462
f 343//463 397//463 344//463
f 344//464 397//464 385//464
f 344//465 385//465 335//465
f 339//466 392//466 395//466
f 339//467 395//467 340//467
f 340//468 395//468 396//468
f 340//469 396//469 343//469
f 328//470 356//470 355//470
f 328//471 355//471 325//471
f 355//472 357//472 329//472
f 355//473 329//473 325//473
f 345//474 352//474 353//474
f 345//475 353//475 346//475
f 353//476 354//476 347//476
f 353//477 347//477 346//477
f 351//478 337//478 347//478
f 351//479 347//479 350//479
f 394//480 391//480 338//480
f 394//481 338//481 341//481
f 345//482 346//482 343//482
f 345//483 343//483 344//483
f 337//484 390//484 393//484
f 337//485 393//485 342//485
f 393//486 394//486 341//486
f 393//487 341//487 342//487
f 343//488 342//488 341//488
f 343//488 341//488 340//488
f 345//489 344//489 348//489
f 345//490 348//490 349//490
f 342//491 346//491 347//491
f 342//492 347//492 337//492
f 343//493 346//493 342//493
o Gun_01_havok_s_gun_1
v 0.076582 1.963352 -5.096569
v 0.095884 1.947850 -0.867435
v 0.095884 2.098241 -0.867435
v 0.076582 2.079286 -5.096569
v -0.056670 1.947850 -0.867435
v -0.056670 2.098241 -0.867435
v -0.037368 1.963352 -5.096569
v -0.037368 2.079286 -5.096569
vn -0.0000 1.0000 0.0037
vn -0.0000 -1.0000 0.0045
vn -0.0000 -0.0000 1.0000
vn -1.0000 -0.0000 0.0046
vn -0.0000 -0.0000 -1.0000
vn 1.0000 -0.0000 0.0046
s 0
f 398//494 404//494 402//494
f 398//494 402//494 399//494
f 400//495 403//495 405//495
f 400//495 405//495 401//495
f 401//496 405//496 404//496
f 401//496 404//496 398//496
f 400//497 401//497 398//497
f 400//497 398//497 399//497
f 399//498 402//498 403//498
f 399//498 403//498 400//498
f 402//499 404//499 405//499
f 402//499 405//499 403//499
