# Blender 5.1.0
# www.blender.org
o Chassis_havok_s_leftTrack_0
v -1.073151 0.000007 1.867724
v -1.073151 0.302195 2.772128
v -1.073151 1.002274 2.667100
v -1.073151 0.935178 1.295908
v -1.429235 0.934138 1.295908
v -1.429235 1.002274 2.667100
v -1.429235 0.302195 2.772128
v -1.429235 0.000007 1.867724
v -1.429235 0.376052 2.871320
v -1.429235 0.497239 2.947173
v -1.429235 0.677720 2.976348
v -1.429235 0.894089 2.877155
v -1.073151 0.894089 2.877155
v -1.073151 0.376052 2.871320
v -1.073151 0.677720 2.976348
v -1.073151 0.497239 2.947173
v -1.073151 0.923736 0.000568
v -1.429235 0.000007 -1.866587
v -1.429235 1.064688 -2.718477
v -1.429235 0.967946 -1.475652
v -1.429061 0.923736 0.000568
v -1.073151 0.968466 -1.481486
v -1.073151 1.064688 -2.718477
v -1.073151 0.000007 -1.866587
v -1.429235 0.979388 -2.899358
v -1.429235 0.799948 -2.992715
v -1.429235 0.449909 -2.835174
v -1.429235 0.610105 -2.975211
v -1.073151 0.449909 -2.835174
v -1.073151 0.979388 -2.899358
v -1.073151 0.799948 -2.992715
v -1.073151 0.610105 -2.975211
vn 1.0000 -0.0005 0.0001
vn 1.0000 -0.0000 -0.0000
vn -0.0000 1.0000 -0.0000
vn -0.0000 -1.0000 0.0080
vn 0.0029 -1.0000 0.0088
vn 0.0010 -0.9995 -0.0302
vn -0.0000 -0.9996 -0.0299
vn -1.0000 -0.0000 -0.0000
vn -0.0000 -0.9970 -0.0776
vn 0.0002 -0.9970 -0.0776
vn -0.0000 -0.9045 0.4265
vn -0.0000 -0.4615 0.8871
vn -0.0000 0.9069 0.4213
vn -0.0000 0.6581 0.7529
vn -0.0000 0.0918 0.9958
vn 1.0000 -0.0000 -0.0001
vn -0.0000 0.9485 -0.3169
vn -0.0000 -0.8890 -0.4579
vn -0.0000 -0.9988 0.0496
vn 0.0029 -0.9988 0.0489
vn -0.0000 0.5306 -0.8476
vn -0.0000 0.5306 -0.8477
vn -0.0000 0.1596 -0.9872
vn -0.0000 0.8021 -0.5972
vn -0.0000 -0.4167 -0.9090
s 0
f 18//1 21//1 5//1
f 18//2 5//2 8//2
f 24//3 18//3 8//3
f 24//3 8//3 1//3
f 18//2 27//2 28//2
f 18//2 28//2 26//2
f 18//2 26//2 25//2
f 18//2 25//2 19//2
f 5//4 21//4 17//4
f 5//5 17//5 4//5
f 20//6 22//6 17//6
f 20//7 17//7 21//7
f 22//8 24//8 1//8
f 22//8 1//8 17//8
f 19//9 23//9 22//9
f 19//10 22//10 20//10
f 32//8 29//8 23//8
f 25//11 30//11 23//11
f 25//11 23//11 19//11
f 29//8 24//8 22//8
f 29//8 22//8 23//8
f 31//8 32//8 23//8
f 31//8 23//8 30//8
f 26//12 31//12 30//12
f 26//12 30//12 25//12
f 29//13 27//13 18//13
f 29//13 18//13 24//13
f 29//14 32//14 28//14
f 29//14 28//14 27//14
f 28//15 32//15 31//15
f 28//15 31//15 26//15
f 18//2 19//2 20//2
f 18//16 20//16 21//16
f 6//2 11//2 10//2
f 6//2 10//2 9//2
f 1//17 8//17 7//17
f 1//17 7//17 2//17
f 13//18 12//18 6//18
f 13//18 6//18 3//18
f 12//2 11//2 6//2
f 3//19 6//19 5//19
f 3//20 5//20 4//20
f 3//8 4//8 1//8
f 3//8 1//8 2//8
f 9//2 7//2 5//2
f 9//2 5//2 6//2
f 7//2 8//2 5//2
f 16//21 14//21 9//21
f 16//22 9//22 10//22
f 11//23 15//23 16//23
f 11//23 16//23 10//23
f 17//8 1//8 4//8
f 7//24 9//24 14//24
f 7//24 14//24 2//24
f 2//8 14//8 15//8
f 2//8 15//8 13//8
f 3//8 2//8 13//8
f 12//25 13//25 15//25
f 12//25 15//25 11//25
f 15//8 14//8 16//8
o Chassis_havok_s_rightTrack_1
v 1.426494 0.000007 1.867724
v 1.426494 0.302195 2.772128
v 1.426494 1.002274 2.667100
v 1.426494 0.935178 1.295908
v 1.070410 1.002274 2.667100
v 1.070410 0.934138 1.295908
v 1.070410 0.302195 2.772128
v 1.070410 0.000007 1.867724
v 1.070410 0.376052 2.871320
v 1.070410 0.894089 2.877155
v 1.426494 0.894089 2.877155
v 1.426494 0.677720 2.976348
v 1.070410 0.677720 2.976348
v 1.426494 0.497239 2.947173
v 1.070410 0.497239 2.947173
v 1.426494 0.376052 2.871320
v 1.426494 0.923736 0.000568
v 1.070410 0.000007 -1.866587
v 1.070410 1.064688 -2.718477
v 1.070410 0.967946 -1.475652
v 1.070584 0.923736 0.000568
v 1.426494 0.968466 -1.481486
v 1.426494 1.064688 -2.718477
v 1.426494 0.000007 -1.866587
v 1.070410 0.979388 -2.899358
v 1.070410 0.799948 -2.992715
v 1.070410 0.449909 -2.835174
v 1.070410 0.610105 -2.975211
v 1.426494 0.449909 -2.835174
v 1.426494 0.979388 -2.899358
v 1.426494 0.799948 -2.992715
v 1.426494 0.610105 -2.975211
vn 1.0000 -0.0005 0.0001
vn 1.0000 -0.0000 -0.0000
vn -0.0000 1.0000 -0.0000
vn -0.0000 -1.0000 0.0080
vn 0.0029 -1.0000 0.0088
vn 0.0010 -0.9995 -0.0302
vn -0.0000 -0.9996 -0.0299
vn -1.0000 -0.0000 -0.0000
vn -0.0000 -0.9970 -0.0776
vn 0.0002 -0.9970 -0.0776
vn -0.0000 -0.9045 0.4265
vn -0.0000 -0.4615 0.8871
vn -0.0000 0.9069 0.4213
vn -0.0000 0.6581 0.7529
vn -0.0000 0.0918 0.9958
vn 1.0000 -0.0000 -0.0001
vn -0.0000 -0.4167 -0.9090
vn -0.0000 0.9485 -0.3169
vn -0.0000 0.5306 -0.8476
vn -0.0000 0.5306 -0.8477
vn -0.0000 0.1596 -0.9872
vn -0.0000 -0.9988 0.0496
vn 0.0029 -0.9988 0.0489
vn -0.0000 -0.8890 -0.4579
vn -0.0000 0.8021 -0.5972
s 0
f 50//26 53//26 38//26
f 50//27 38//27 40//27
f 56//28 50//28 40//28
f 56//28 40//28 33//28
f 50//27 59//27 60//27
f 50//27 60//27 58//27
f 50//27 58//27 57//27
f 50//27 57//27 51//27
f 38//29 53//29 49//29
f 38//30 49//30 36//30
f 52//31 54//31 49//31
f 52//32 49//32 53//32
f 54//33 56//33 33//33
f 54//33 33//33 49//33
f 51//34 55//34 54//34
f 51//35 54//35 52//35
f 63//33 64//33 55//33
f 63//33 55//33 62//33
f 64//33 61//33 55//33
f 61//33 56//33 54//33
f 61//33 54//33 55//33
f 57//36 62//36 55//36
f 57//36 55//36 51//36
f 58//37 63//37 62//37
f 58//37 62//37 57//37
f 61//38 59//38 50//38
f 61//38 50//38 56//38
f 61//39 64//39 60//39
f 61//39 60//39 59//39
f 60//40 64//40 63//40
f 60//40 63//40 58//40
f 50//27 51//27 52//27
f 50//41 52//41 53//41
f 44//42 45//42 42//42
f 44//42 42//42 43//42
f 33//43 40//43 39//43
f 33//43 39//43 34//43
f 46//44 48//44 41//44
f 46//45 41//45 47//45
f 46//46 47//46 45//46
f 46//46 45//46 44//46
f 35//47 37//47 38//47
f 35//48 38//48 36//48
f 35//33 36//33 33//33
f 35//33 33//33 34//33
f 41//27 39//27 38//27
f 41//27 38//27 37//27
f 39//27 40//27 38//27
f 42//27 45//27 37//27
f 37//27 45//27 47//27
f 37//27 47//27 41//27
f 49//33 33//33 36//33
f 43//49 42//49 37//49
f 43//49 37//49 35//49
f 35//33 34//33 43//33
f 39//50 41//50 48//50
f 39//50 48//50 34//50
f 44//33 48//33 46//33
f 34//33 48//33 44//33
f 34//33 44//33 43//33
o Turret_01_havok_s_surveyingDevice_0
v -0.370247 2.264530 -0.995381
v -0.466079 2.264530 -0.995381
v -0.504863 2.326051 -0.464881
v -0.292249 2.326051 -0.464881
v -0.504863 2.329341 -0.510504
v -0.467153 2.347568 -0.535968
v -0.467153 2.353153 -0.495650
v -0.310406 2.353153 -0.495650
v -0.310406 2.347568 -0.535968
v -0.285588 2.332978 -0.534907
v -0.286663 2.331376 0.027423
v -0.499276 2.331376 0.027423
v -0.286878 2.333281 0.082595
v -0.505507 2.333281 0.090022
v -0.370222 2.197887 -0.993185
v -0.466089 2.197901 -0.993185
v -0.370222 2.202508 -0.966924
v -0.466089 2.202522 -0.966925
v -0.292297 2.287880 -0.442412
v -0.504883 2.287880 -0.442412
v -0.504883 2.287880 -0.526846
v -0.485020 2.287880 -0.534727
v -0.285588 2.287880 -0.534727
v -0.499243 2.288144 -0.002783
v -0.286658 2.288144 -0.002783
v -0.286658 2.288144 0.081653
v -0.505952 2.288144 0.089530
vn -0.0404 0.0040 0.9992
vn -0.9965 -0.0414 -0.0724
vn -0.9955 -0.0004 -0.0947
vn -0.0000 0.0208 0.9998
vn -0.7451 -0.6530 -0.1355
vn -0.5070 -0.8538 0.1183
vn -0.0000 -0.5727 0.8197
vn -0.0359 0.0113 -0.9993
vn -0.0339 0.0207 -0.9992
vn 0.9961 -0.0498 0.0724
vn 0.9950 -0.0109 0.0994
vn -1.0000 -0.0001 -0.0000
vn -1.0000 -0.0048 -0.0037
vn 0.0010 -0.9995 0.0305
vn -0.0000 -0.9994 0.0345
vn -0.0000 -0.9905 0.1372
vn -0.0001 -0.4170 -0.9089
vn -0.0000 -0.4171 -0.9089
vn 1.0000 -0.0002 -0.0000
vn -0.0000 0.0329 0.9995
vn -1.0000 -0.0004 0.0001
vn -0.0000 -0.5073 -0.8618
vn 1.0000 -0.0005 -0.0000
vn -0.0000 -0.7504 -0.6610
vn 0.4961 -0.8600 0.1191
vn 0.5498 -0.8332 -0.0601
vn 0.6055 -0.1651 0.7785
vn 0.3462 -0.3442 0.8727
s 0
f 87//51 74//51 73//51
f 87//52 83//52 68//52
f 87//53 68//53 74//53
f 70//54 86//54 87//54
f 70//54 87//54 73//54
f 74//55 68//55 72//55
f 74//56 72//56 73//56
f 88//57 89//57 75//57
f 88//57 75//57 76//57
f 90//58 91//58 78//58
f 90//59 78//59 77//59
f 91//60 88//60 76//60
f 91//61 76//61 78//61
f 75//62 89//62 90//62
f 75//63 90//63 77//63
f 77//64 78//64 76//64
f 77//65 76//65 75//65
f 70//66 73//66 72//66
f 70//66 72//66 71//66
f 65//67 81//67 82//67
f 65//68 82//68 66//68
f 82//69 80//69 66//69
f 66//70 80//70 79//70
f 66//70 79//70 65//70
f 79//71 81//71 65//71
f 83//72 84//72 67//72
f 83//72 67//72 68//72
f 67//73 84//73 85//73
f 67//73 85//73 69//73
f 71//74 72//74 68//74
f 71//74 68//74 67//74
f 69//75 70//75 71//75
f 69//76 71//76 67//76
f 86//77 70//77 69//77
f 86//78 69//78 85//78
o Turret_01_havok_s_armor_1_1
v -0.671157 1.511083 -1.451377
v 0.672637 1.511083 -1.451377
v 0.071368 1.639306 -1.451192
v 0.027817 1.650956 -1.451191
v 0.163423 1.677519 -1.451192
v 0.114680 1.650956 -1.451191
v 0.176637 1.694687 -1.451192
v -0.081619 1.711855 -1.451192
v -0.220537 1.711855 -1.451192
v -0.048544 1.677519 -1.451192
v -0.001908 1.677519 -1.451192
v -0.290876 1.796405 -1.451192
v 0.672637 2.128593 -1.451377
v 0.176637 1.966171 -1.451191
v 0.140054 1.677519 -1.451192
v -0.671157 2.128593 -1.451377
v -0.290876 1.966171 -1.451191
v 0.155548 2.003046 -1.451192
v 0.122338 2.024023 -1.451192
v -0.276577 1.995097 -1.451192
v -0.236577 2.024023 -1.451191
vn -0.0005 -0.0000 1.0000
vn -0.0000 -0.0000 1.0000
vn 0.0004 -0.0000 1.0000
vn -0.0000 0.0018 1.0000
vn -0.0004 0.0002 1.0000
vn -0.0003 0.0004 1.0000
vn 0.0003 0.0002 1.0000
vn 0.0003 0.0004 1.0000
vn 0.0002 -0.0006 1.0000
vn 0.0002 -0.0004 1.0000
vn 0.0003 -0.0002 1.0000
vn -0.0000 -0.0014 1.0000
vn -0.0001 -0.0006 1.0000
vn -0.0003 -0.0002 1.0000
vn -0.0000 -0.0011 1.0000
vn -0.0002 -0.0002 1.0000
vn -0.0000 -0.0009 1.0000
s 0
f 103//79 108//79 107//79
f 103//79 107//79 92//79
f 96//80 106//80 97//80
f 104//81 105//81 98//81
f 104//81 98//81 93//81
f 107//82 112//82 110//82
f 107//82 110//82 104//82
f 107//83 108//83 111//83
f 107//84 111//84 112//84
f 109//85 105//85 104//85
f 109//86 104//86 110//86
f 93//87 97//87 94//87
f 96//88 97//88 93//88
f 96//89 93//89 98//89
f 92//90 93//90 94//90
f 92//91 94//91 95//91
f 100//92 103//92 92//92
f 102//93 101//93 92//93
f 102//94 92//94 95//94
f 92//94 101//94 99//94
f 92//95 99//95 100//95
o Turret_01_havok_s_armor_2_2
v -0.236577 2.024023 -1.451191
v -0.276577 1.995097 -1.451192
v -0.081619 1.711855 -1.451192
v 0.122338 2.024023 -1.451192
v -0.290876 1.966171 -1.451191
v -0.290876 1.796405 -1.451192
v -0.220537 1.711855 -1.451192
v 0.176637 1.966171 -1.451191
v 0.155548 2.003046 -1.451192
v -0.048544 1.677518 -1.451192
v -0.001908 1.677518 -1.451192
v 0.027817 1.650956 -1.451191
v 0.071368 1.639306 -1.451192
v 0.114680 1.650956 -1.451191
v 0.140054 1.677518 -1.451192
v 0.176637 1.694686 -1.451192
v 0.163423 1.677518 -1.451192
vn -0.0000 -0.0000 1.0000
s 0
f 125//96 126//96 120//96
f 124//96 125//96 120//96
f 124//96 120//96 123//96
f 129//96 128//96 127//96
f 120//96 126//96 127//96
f 120//96 127//96 128//96
f 122//96 123//96 120//96
f 122//96 120//96 115//96
f 117//96 118//96 115//96
f 117//96 115//96 114//96
f 115//96 116//96 113//96
f 115//96 113//96 114//96
f 115//96 120//96 121//96
f 115//96 121//96 116//96
f 119//96 115//96 118//96
o Turret_01_havok_s_armor_8_3
v -0.736069 1.480553 -0.574497
v -0.595952 1.480553 -0.143253
v -0.229114 1.480553 0.123270
v -0.595952 1.480553 -1.005742
v 0.591157 1.480553 -1.005742
v 0.224319 1.480553 -1.272266
v -0.229114 1.480553 -1.272266
v 0.731274 1.480553 -0.574497
v 0.591157 1.480553 -0.143253
v 0.224319 1.480553 0.123269
vn -0.0000 1.0000 -0.0000
s 0
f 138//97 132//97 139//97
f 133//97 132//97 136//97
f 132//97 138//97 137//97
f 132//97 137//97 134//97
f 132//97 133//97 130//97
f 132//97 130//97 131//97
f 135//97 136//97 132//97
f 135//97 132//97 134//97
o Turret_01_havok_s_armor_6_4
v -0.949912 1.511093 -0.179611
v -0.736069 1.511090 -0.574497
v -0.595952 1.511086 -1.005742
v -0.671157 1.511083 -1.387236
v -0.595952 1.511093 -0.143253
v -0.671333 1.511093 0.510586
v 0.224319 1.511093 0.123269
v 0.672817 1.511093 0.510586
v 0.591157 1.511093 -0.143253
v -0.229114 1.511093 0.123270
v 0.602783 1.511093 0.556221
v -0.601304 1.511093 0.556221
v 0.648745 1.511093 0.556221
v -0.647260 1.511093 0.556221
v 0.591157 1.511086 -1.005742
v 0.672637 1.511083 -1.387236
v 0.224319 1.511084 -1.272266
v -0.229114 1.511084 -1.272266
v 0.672637 1.511083 -1.451377
v -0.671157 1.511083 -1.451377
v 0.731274 1.511090 -0.574497
v 0.951396 1.511093 -0.179611
vn -0.0000 1.0000 -0.0000
s 0
f 157//98 143//98 142//98
f 154//98 155//98 156//98
f 151//98 145//98 153//98
f 143//98 157//98 156//98
f 143//98 156//98 155//98
f 161//98 160//98 148//98
f 161//98 148//98 147//98
f 160//98 161//98 155//98
f 160//98 155//98 154//98
f 158//98 159//98 143//98
f 158//98 143//98 155//98
f 146//98 147//98 148//98
f 140//98 145//98 144//98
f 140//98 144//98 141//98
f 142//98 143//98 140//98
f 142//98 140//98 141//98
f 144//98 145//98 149//98
f 150//98 152//98 147//98
f 145//98 151//98 150//98
f 145//98 150//98 147//98
f 147//98 146//98 149//98
f 147//98 149//98 145//98
o Turret_01_havok_s_armor_3_5
v 0.906178 1.908367 -0.067580
v 0.887954 1.790578 -0.022559
v 0.843705 2.074637 0.087124
v 0.887832 2.025992 -0.022257
v 0.843888 1.741608 0.086822
v 0.799639 2.025667 0.196505
v 0.799761 1.790253 0.196203
v 0.781415 1.907879 0.241526
v -0.671157 1.511083 -1.387236
v -0.671157 2.128593 -1.387236
v -0.830635 2.250233 -0.696069
v -0.949912 1.511093 -0.179611
v -0.949912 2.250194 -0.179611
v -0.671157 1.511083 -1.451377
v -0.671157 2.128593 -1.451377
v -0.671333 1.511093 0.510586
v -0.671333 2.250194 0.510581
v -0.647260 2.250194 0.556221
v -0.647260 1.511093 0.556221
v 0.672817 1.511093 0.510586
v 0.648745 1.511093 0.556221
v 0.648745 2.250194 0.556221
v 0.672817 2.250194 0.510581
v 0.832119 2.250233 -0.696069
v 0.672637 2.128593 -1.387236
v 0.672637 1.511083 -1.387236
v 0.951396 1.511093 -0.179611
v 0.672637 2.128593 -1.451377
v 0.672637 1.511083 -1.451377
v 0.951396 2.250194 -0.179611
vn -0.9271 0.0002 -0.3748
vn -0.9275 -0.0005 -0.3739
vn -0.9271 -0.0002 -0.3748
vn -0.9273 -0.0000 -0.3743
vn -0.9273 0.0003 -0.3742
vn -0.9281 0.0038 -0.3722
vn -0.9274 -0.0000 -0.3741
vn -0.9275 -0.0002 -0.3738
vn -0.9269 -0.0000 -0.3752
vn -0.9273 0.0001 -0.3743
vn -0.9744 -0.0000 0.2250
vn -0.9273 0.0002 -0.3742
vn -0.9272 -0.0003 -0.3746
vn -0.9273 -0.0002 -0.3743
vn -0.9272 0.0003 -0.3746
vn 0.9273 -0.0000 -0.3743
vn 0.8845 -0.0000 -0.4666
vn 0.8845 -0.0000 -0.4665
vn 1.0000 -0.0000 -0.0000
vn 0.9744 -0.0001 0.2249
vn 0.9744 -0.0000 0.2248
vn 0.9744 -0.0000 0.2250
vn -0.9275 -0.0006 -0.3739
vn -0.9272 0.0002 -0.3747
vn -1.0000 -0.0000 -0.0000
vn -0.8845 -0.0000 -0.4665
vn -0.8845 -0.0000 -0.4666
vn -0.9744 -0.0001 0.2249
vn -0.9744 -0.0000 0.2248
s 0
f 163//99 162//99 188//99
f 163//100 188//100 166//100
f 162//101 165//101 191//101
f 162//102 191//102 188//102
f 191//103 165//103 164//103
f 191//104 164//104 167//104
f 166//105 168//105 167//105
f 166//106 167//106 164//106
f 169//107 167//107 168//107
f 188//108 181//108 166//108
f 185//109 188//109 191//109
f 168//110 166//110 181//110
f 168//111 181//111 169//111
f 184//112 191//112 167//112
f 169//102 181//102 184//102
f 169//113 184//113 167//113
f 174//114 178//114 177//114
f 174//114 177//114 173//114
f 179//115 180//115 177//115
f 179//116 177//116 178//116
f 175//117 176//117 171//117
f 175//117 171//117 170//117
f 172//118 173//118 170//118
f 172//119 170//119 171//119
f 172//120 174//120 173//120
f 164//121 165//121 162//121
f 164//122 162//122 163//122
f 166//106 164//106 163//106
f 186//123 189//123 190//123
f 186//123 190//123 187//123
f 183//124 184//124 181//124
f 183//125 181//125 182//125
f 187//126 188//126 185//126
f 187//127 185//127 186//127
o Turret_01_havok_s_armor_4_6
v -0.601304 1.511093 0.556221
v -0.647261 1.511093 0.556221
v -0.647261 2.250194 0.556221
v -0.601304 2.250194 0.556221
v 0.602783 2.250194 0.556221
v 0.602783 1.511093 0.556221
v 0.648745 2.250194 0.556221
v 0.648745 1.511093 0.556221
vn -0.0000 -0.0000 -1.0000
s 0
f 198//128 199//128 197//128
f 198//128 197//128 196//128
f 196//128 197//128 192//128
f 196//128 192//128 195//128
f 194//128 195//128 192//128
f 194//128 192//128 193//128
o Turret_01_havok_s_armor_7_7
v -0.396417 2.286670 -0.634346
v -0.396417 2.250227 -0.668862
v -0.713670 2.250218 -0.537451
v -0.396417 2.288097 -0.632994
v -0.688307 2.288089 -0.512089
v -0.688307 2.288067 0.071692
v -0.396417 2.288067 0.192597
v -0.396417 2.250194 0.228466
v -0.713670 2.250194 0.097055
v -0.809213 2.288068 -0.220198
v -0.845081 2.250195 -0.220198
v -0.079164 2.250203 -0.537451
v -0.104527 2.288075 -0.512088
v -0.079164 2.250194 0.097055
v -0.104527 2.288067 0.071692
v 0.016378 2.288067 -0.220198
v 0.052247 2.250194 -0.220198
vn -0.2881 -0.6585 0.6953
vn -0.2880 -0.6585 0.6953
vn -0.2880 -0.6585 -0.6953
vn -0.6953 -0.6585 -0.2880
vn -0.6953 -0.6585 0.2880
vn 0.2880 -0.6585 0.6953
vn 0.2880 -0.6585 -0.6953
vn 0.6953 -0.6585 -0.2880
vn 0.6953 -0.6585 0.2880
s 0
f 203//129 200//129 212//129
f 201//130 211//130 212//130
f 201//130 212//130 200//130
f 206//131 214//131 213//131
f 206//131 213//131 207//131
f 214//132 215//132 216//132
f 214//132 216//132 213//132
f 211//133 216//133 215//133
f 211//133 215//133 212//133
f 202//134 200//134 203//134
f 202//134 203//134 204//134
f 201//134 200//134 202//134
f 207//135 208//135 205//135
f 207//135 205//135 206//135
f 208//136 210//136 209//136
f 208//136 209//136 205//136
f 204//137 209//137 210//137
f 204//137 210//137 202//137
o Turret_01_havok_s_armor_9_8
v -0.736069 1.480553 -0.574497
v -0.736069 1.511090 -0.574497
v -0.595952 1.511093 -0.143253
v -0.595952 1.480553 -0.143253
v -0.595952 1.480553 -1.005742
v -0.595952 1.511086 -1.005742
v -0.229114 1.511093 0.123270
v -0.229114 1.480553 0.123270
v -0.229114 1.480553 -1.272266
v -0.229114 1.511084 -1.272266
v 0.224319 1.480553 -1.272266
v 0.224319 1.511084 -1.272266
v 0.731274 1.511090 -0.574497
v 0.731274 1.480553 -0.574497
v 0.591157 1.480553 -0.143253
v 0.591157 1.511093 -0.143253
v 0.591157 1.511086 -1.005742
v 0.591157 1.480553 -1.005742
v 0.224319 1.480553 0.123269
v 0.224319 1.511093 0.123269
vn -0.9511 -0.0000 0.3090
vn -0.9511 -0.0000 -0.3090
vn -0.5878 -0.0000 0.8090
vn -0.0000 -0.0000 -1.0000
vn -0.5878 -0.0000 -0.8090
vn 0.9511 -0.0000 0.3090
vn 0.9511 -0.0000 -0.3090
vn 0.5878 -0.0000 -0.8090
vn -0.0000 -0.0000 1.0000
vn 0.5878 -0.0000 0.8090
s 0
f 233//138 234//138 230//138
f 233//138 230//138 229//138
f 231//139 232//139 229//139
f 231//139 229//139 230//139
f 234//140 233//140 228//140
f 234//140 228//140 227//140
f 236//141 235//141 224//141
f 236//141 224//141 223//141
f 235//142 236//142 232//142
f 235//142 232//142 231//142
f 221//143 222//143 218//143
f 221//143 218//143 217//143
f 219//144 220//144 217//144
f 219//144 217//144 218//144
f 223//145 224//145 220//145
f 223//145 220//145 219//145
f 227//146 228//146 226//146
f 227//146 226//146 225//146
f 225//147 226//147 222//147
f 225//147 222//147 221//147
o Turret_01_havok_s_armor_10_9
v -0.370222 2.197887 -0.993185
v -0.370222 2.202508 -0.966924
v -0.466089 2.202522 -0.966925
v -0.466089 2.197901 -0.993185
vn -0.0001 -0.9849 0.1733
s 0
f 239//148 240//148 237//148
f 239//148 237//148 238//148
o Turret_01_havok_s_armor_11_10
v -0.499243 2.288144 -0.002783
v -0.286658 2.288144 -0.002783
v -0.286658 2.288144 0.081653
v -0.505952 2.288144 0.089530
v -0.292297 2.287880 -0.442412
v -0.504883 2.287880 -0.442412
v -0.504883 2.287880 -0.526846
v -0.485020 2.287880 -0.534727
v -0.285588 2.287880 -0.534727
vn -0.0000 -1.0000 -0.0000
s 0
f 249//149 245//149 248//149
f 247//149 248//149 245//149
f 247//149 245//149 246//149
f 243//149 244//149 241//149
f 243//149 241//149 242//149
o Turret_01_havok_s_armor_5_11
v 0.151444 2.250194 0.050927
v 0.602129 2.250194 0.050927
v 0.602129 2.250194 -0.524204
v 0.151444 2.250195 -0.524204
v -0.671333 2.250194 0.510581
v -0.396417 2.250194 0.228466
v 0.602783 2.250194 0.556221
v -0.601304 2.250194 0.556221
v -0.647260 2.250194 0.556221
v 0.672817 2.250194 0.510581
v 0.648745 2.250194 0.556221
v 0.951396 2.250194 -0.179611
v -0.713670 2.250194 0.097055
v -0.688307 2.288067 0.071692
v -0.499243 2.288144 -0.002783
v -0.505952 2.288144 0.089530
v -0.396417 2.288067 0.192597
v -0.286658 2.288144 0.081653
v -0.104526 2.288067 0.071692
v -0.949912 2.250194 -0.179611
v -0.845081 2.250195 -0.220198
v -0.079164 2.250194 0.097055
v 0.052247 2.250194 -0.220198
v 0.016378 2.288067 -0.220198
v -0.286658 2.288144 -0.002783
v -0.809213 2.288068 -0.220198
v -0.504883 2.287880 -0.442412
v -0.292297 2.287880 -0.442412
v -0.104526 2.288075 -0.512088
v -0.688307 2.288089 -0.512088
v -0.285588 2.287880 -0.534727
v -0.713670 2.250218 -0.537452
v -0.830635 2.250233 -0.696069
v -0.079164 2.250203 -0.537451
v 0.832119 2.250233 -0.696069
v -0.370222 2.202508 -0.966924
v 0.672637 2.128593 -1.387236
v -0.671157 2.128593 -1.387236
v -0.466089 2.197901 -0.993185
v -0.370222 2.197887 -0.993185
v -0.671157 2.128593 -1.451377
v 0.672637 2.128593 -1.451377
v -0.396417 2.250227 -0.668862
v -0.396417 2.288097 -0.632994
v -0.485020 2.287880 -0.534727
v -0.504883 2.287880 -0.526846
v -0.466089 2.202522 -0.966925
vn -0.0000 -0.9849 0.1733
vn -0.0000 -0.9848 0.1735
vn -0.0001 -0.9849 0.1733
vn -0.0000 -0.9849 0.1732
vn -0.0001 -0.9850 0.1728
vn 0.0001 -1.0000 -0.0001
vn -0.0000 -1.0000 -0.0000
vn -0.0000 -1.0000 -0.0001
vn -0.0011 -1.0000 -0.0000
vn -0.0014 -1.0000 -0.0036
vn 0.0016 -1.0000 -0.0040
vn -0.0000 -1.0000 -0.0022
vn -0.0014 -1.0000 -0.0035
vn -0.0000 -1.0000 -0.0002
vn 0.0001 -1.0000 0.0002
vn -0.0002 -1.0000 0.0001
vn 0.0004 -1.0000 -0.0000
vn 0.0006 -1.0000 -0.0013
vn -0.0000 -1.0000 -0.0007
vn -0.0005 -1.0000 -0.0012
vn -0.0010 -1.0000 -0.0005
vn 0.0011 -1.0000 0.0001
vn 0.0003 -1.0000 -0.0001
vn -0.0000 -1.0000 0.0003
vn -0.0000 -1.0000 0.0008
vn 0.0099 -0.9997 0.0239
vn -0.0003 -1.0000 -0.0000
vn -0.0004 -1.0000 -0.0002
s 0
f 285//150 286//150 284//150
f 285//151 284//151 282//151
f 288//152 282//152 287//152
f 288//153 287//153 286//153
f 286//150 285//150 289//150
f 286//154 289//154 288//154
f 252//155 284//155 261//155
f 252//156 261//156 251//156
f 269//157 282//157 281//157
f 269//157 281//157 270//157
f 250//156 253//156 252//156
f 250//156 252//156 251//156
f 253//156 250//156 272//156
f 253//156 272//156 283//156
f 290//156 291//156 286//156
f 290//156 286//156 287//156
f 295//158 276//158 279//158
f 295//159 279//159 294//159
f 293//160 278//160 280//160
f 293//161 280//161 294//161
f 296//152 285//152 282//152
f 296//152 282//152 288//152
f 279//162 293//162 294//162
f 292//157 281//157 282//157
f 292//163 282//163 284//163
f 253//163 292//163 284//163
f 253//163 284//163 252//163
f 253//157 283//157 292//157
f 274//164 275//164 278//164
f 274//165 278//165 273//165
f 251//156 261//156 259//156
f 255//156 254//156 262//156
f 263//166 264//166 265//166
f 263//167 265//167 266//167
f 259//156 256//156 250//156
f 259//156 250//156 251//156
f 250//156 256//156 254//156
f 250//156 254//156 255//156
f 257//156 258//156 254//156
f 257//156 254//156 256//156
f 259//156 260//156 256//156
f 266//168 265//168 267//168
f 266//169 267//169 268//169
f 275//170 279//170 276//170
f 280//171 278//171 277//171
f 264//172 263//172 275//172
f 264//173 275//173 274//173
f 275//174 276//174 277//174
f 275//175 277//175 278//175
f 269//156 270//156 262//156
f 269//156 262//156 254//156
f 250//156 255//156 271//156
f 250//156 271//156 272//156
f 267//176 274//176 273//176
f 267//177 273//177 268//177
o Hull_havok_s_armor_2_0
v -1.020967 0.841576 -2.937598
v -1.020967 0.644672 -2.884863
v 1.020967 0.644672 -2.884863
v 1.020967 0.841576 -2.937598
vn -0.0000 0.2587 0.9660
s 0
f 299//178 300//178 297//178
f 299//178 297//178 298//178
o Hull_havok_s_armor_1_1
v 0.278159 1.259797 -2.124624
v 0.507644 1.259305 -2.124617
v 0.278159 1.331352 -2.124624
v 0.508432 1.330753 -2.124604
v -0.872205 1.202777 -2.124668
v 1.020967 1.137309 -2.124668
v 0.870068 1.202777 -2.124668
v 1.020967 1.202777 -2.124668
v -1.020967 1.137309 -2.124668
v -1.020967 1.202777 -2.124668
v -0.880669 1.487260 -2.124668
v 0.870068 1.487260 -2.124473
vn -0.0001 -0.0006 1.0000
vn -0.0001 -0.0004 1.0000
vn -0.0000 -0.0000 1.0000
vn -0.0001 -0.0002 1.0000
vn -0.0001 -0.0007 1.0000
vn 0.0001 -0.0002 1.0000
vn 0.0002 0.0005 1.0000
vn -0.0000 -0.0005 1.0000
s 0
f 304//179 312//179 311//179
f 304//180 311//180 303//180
f 311//181 305//181 301//181
f 311//181 301//181 303//181
f 302//182 304//182 303//182
f 302//181 303//181 301//181
f 307//183 312//183 304//183
f 307//184 304//184 302//184
f 306//185 307//185 302//185
f 306//186 302//186 301//186
f 305//186 306//186 301//186
f 305//181 310//181 309//181
f 305//181 309//181 306//181
f 306//181 308//181 307//181
o Hull_havok_s_armor_3_2
v -0.875369 1.487260 -1.405146
v -0.872184 1.202778 -1.405146
v -0.872205 1.202777 -2.124668
v -0.880669 1.487260 -2.124668
vn 0.9995 0.0297 -0.0074
vn 0.9999 0.0112 -0.0000
s 0
f 315//187 316//187 313//187
f 315//188 313//188 314//188
o Hull_havok_s_armor_4_3
v 1.020977 0.567064 2.836856
v 0.872315 0.567064 2.836856
v 0.872315 1.113852 2.745039
v 1.020967 1.202778 2.730117
v 0.872315 1.202778 2.727403
v -1.020967 0.567064 2.838574
v -1.020967 1.202778 2.731836
v -0.872158 1.113862 2.746777
v -0.872158 0.567064 2.838574
v 0.872315 0.516859 2.674082
v -0.872158 0.516859 2.674082
v -0.872158 1.113862 2.727403
v 0.872315 1.113852 2.727403
v 0.870030 1.487260 -1.520277
v 0.870069 1.202778 -2.124668
v 0.872315 1.202778 0.314182
v 0.872315 1.487260 0.314182
v 0.870069 1.487260 -2.124473
v -0.872158 1.487260 0.314182
v -0.872158 1.202778 0.314185
v -0.872184 1.202778 -1.405147
v -0.875368 1.487260 -1.405147
v -0.872158 1.202778 2.634727
v -0.872158 1.487260 2.634727
v 0.872315 1.487260 2.634727
v 0.872315 1.202778 2.634727
v -0.872158 1.202778 2.727403
vn 0.9999 0.0112 -0.0019
vn 1.0000 -0.0000 -0.0000
vn -1.0000 -0.0000 -0.0001
vn -0.0000 -0.0000 -1.0000
vn -0.0291 -0.2128 -0.9767
vn -0.0010 -0.2129 -0.9771
vn -0.0000 -0.1945 -0.9809
vn 0.0179 -0.1945 -0.9807
vn 0.0001 -0.1656 -0.9862
vn -0.0000 -0.1656 -0.9862
vn -1.0000 -0.0000 0.0012
vn -1.0000 -0.0021 0.0009
vn -0.0000 0.0890 -0.9960
s 0
f 337//189 338//189 335//189
f 337//190 335//190 336//190
f 334//191 331//191 330//191
f 341//192 342//192 339//192
f 341//192 339//192 340//192
f 324//193 323//193 343//193
f 319//194 324//194 343//194
f 319//195 343//195 321//195
f 320//196 319//196 321//196
f 319//197 320//197 317//197
f 319//198 317//198 318//198
f 324//198 325//198 322//198
f 324//197 322//197 323//197
f 332//199 333//199 330//199
f 332//200 330//200 331//200
f 328//201 329//201 326//201
f 328//201 326//201 327//201
o Hull_havok_s_armor_5_4
v 0.911904 1.487260 2.634727
v 0.911904 1.202778 2.634727
v 0.872314 1.202778 2.634727
v 0.872314 1.487260 2.634727
v -0.872158 1.487260 2.634727
v -0.872158 1.202778 2.634727
v -0.910879 1.202778 2.634727
v -0.910879 1.487260 2.634727
v 0.872314 0.516859 2.674082
v 0.872314 0.400834 2.526250
v -0.872158 0.400836 2.526250
v -0.872158 0.516859 2.674082
v -0.226181 1.487260 0.126749
v 0.230729 1.487260 0.129540
v 0.872314 1.487260 0.314182
v -0.872158 1.487260 0.314182
v -0.610418 1.487260 -0.131705
v 0.600793 1.487260 -0.146973
v -0.736529 1.487260 -0.573981
v -0.875369 1.487260 -1.405146
v -0.600203 1.487260 -1.005090
v 0.595722 1.487260 -1.021097
v 0.223724 1.487260 -1.272966
v 0.870029 1.487260 -1.520276
v 0.743991 1.487260 -0.578153
v 0.606728 1.487260 -1.948602
v 0.870069 1.487260 -2.124472
v 0.293220 1.487260 -1.948602
v 0.510854 1.487260 -1.948602
v 0.197347 1.487260 -1.948602
v -0.880669 1.487260 -2.124668
v 0.197347 1.487260 -1.968342
v -0.234496 1.487260 -1.271591
v 0.293220 1.487260 -1.968342
v 0.510854 1.487260 -1.968342
v 0.606727 1.487260 -1.968342
vn -0.0000 -1.0000 -0.0000
vn -0.0000 0.7867 -0.6174
vn -0.0000 -0.0000 -1.0000
s 0
f 373//202 371//202 366//202
f 373//202 366//202 363//202
f 375//202 373//202 363//202
f 375//202 363//202 374//202
f 366//202 371//202 372//202
f 366//202 372//202 369//202
f 358//202 361//202 368//202
f 358//202 368//202 367//202
f 376//202 364//202 363//202
f 376//202 363//202 366//202
f 370//202 369//202 379//202
f 370//202 379//202 378//202
f 377//202 378//202 372//202
f 377//202 372//202 371//202
f 374//202 370//202 375//202
f 370//202 378//202 377//202
f 370//202 377//202 375//202
f 366//202 369//202 370//202
f 366//202 370//202 367//202
f 354//203 355//203 352//203
f 354//203 352//203 353//203
f 358//202 359//202 356//202
f 358//202 356//202 357//202
f 346//204 347//204 344//204
f 346//204 344//204 345//204
f 350//204 351//204 348//204
f 350//204 348//204 349//204
f 360//202 356//202 359//202
f 363//202 364//202 362//202
f 365//202 366//202 367//202
f 365//202 367//202 368//202
f 357//202 361//202 358//202
f 362//202 360//202 359//202
f 362//202 359//202 363//202
o Hull_havok_s_armor_7_5
v -1.020966 1.202777 0.314182
v -1.021242 0.400385 0.314182
v -1.020966 0.400834 -2.427129
v -1.020966 1.137308 -2.124668
v -1.020966 0.644672 -2.884863
v -1.020966 0.841576 -2.937598
v 1.020967 0.400834 0.314182
v 1.020967 1.137308 -2.124668
v 1.020967 0.400834 -2.427148
v 1.020967 1.202777 -2.124668
v 1.020967 1.202777 0.314182
v 1.020967 0.841576 -2.937598
v 1.020967 0.644672 -2.884863
v -1.020966 1.202777 -2.124668
vn -1.0000 -0.0000 -0.0000
vn 1.0000 -0.0000 -0.0000
vn 1.0000 -0.0003 0.0001
s 0
f 389//205 387//205 386//205
f 389//205 386//205 390//205
f 387//205 391//205 392//205
f 387//205 392//205 388//205
f 393//206 380//206 383//206
f 382//206 383//206 380//206
f 382//207 380//207 381//207
f 384//206 385//206 383//206
f 384//206 383//206 382//206
f 386//205 387//205 388//205
o Hull_havok_s_armor_9_6
v -1.020967 0.400834 2.721269
v -1.021517 0.399936 2.347935
v -1.020967 1.202777 2.634727
v -1.020967 1.202777 2.731836
v -1.020967 0.567064 2.838574
v -0.872158 1.113861 2.746778
v -0.872158 1.113861 2.727402
v -0.872158 0.516859 2.674082
v -0.872158 0.567064 2.838574
v -0.872158 0.400836 2.526250
v -0.872158 0.400836 2.721269
v 0.872315 0.516859 2.674082
v 0.872315 1.113851 2.727402
v 0.872315 1.113851 2.745039
v 0.872315 0.567064 2.836855
v 0.872315 0.400834 2.721269
v 0.872315 0.400834 2.526250
v 1.020967 0.400834 2.721269
v 1.020977 0.567064 2.836855
v 1.020967 1.202777 2.730117
v 1.020967 1.202777 2.634727
v 1.020967 1.202777 0.314182
v 1.020967 0.400834 0.314182
v 1.020967 0.400834 2.347812
v -1.021242 0.400385 0.314182
v -1.020967 1.202777 0.314182
vn -1.0000 -0.0000 -0.0000
vn -1.0000 -0.0000 0.0001
vn 1.0000 -0.0000 -0.0000
vn 1.0000 -0.0003 0.0001
vn 1.0000 -0.0007 -0.0000
vn 1.0000 -0.0002 -0.0015
s 0
f 413//208 414//208 411//208
f 413//209 411//209 412//209
f 409//210 410//210 405//210
f 409//210 405//210 408//210
f 416//208 417//208 414//208
f 416//208 414//208 415//208
f 395//211 418//211 419//211
f 395//212 419//212 396//212
f 411//208 414//208 417//208
f 397//210 398//210 394//210
f 397//210 394//210 396//210
f 394//213 395//213 396//213
f 401//208 402//208 399//208
f 401//208 399//208 400//208
f 407//210 408//210 405//210
f 407//210 405//210 406//210
f 401//208 403//208 404//208
f 401//208 404//208 402//208
o Hull_havok_s_armor_13_7
v -0.872205 1.202777 -2.124668
v -0.872184 1.202777 -1.405146
v -1.020967 1.202777 0.314182
v -1.020967 1.202777 -2.124668
v -0.872158 1.202777 0.314184
v -0.910879 1.202777 0.314184
v -1.020967 1.202777 2.634727
v -0.910879 1.202777 2.634727
v 1.020967 1.202777 0.314182
v 0.911904 1.202777 0.314184
v 0.870068 1.202777 -2.124668
v 1.020967 1.202777 -2.124668
v 0.872315 1.202777 0.314182
v 1.020967 1.202777 2.634727
v 0.911904 1.202777 2.634727
vn -0.0000 -1.0000 -0.0000
s 0
f 430//214 431//214 428//214
f 430//214 428//214 429//214
f 430//214 429//214 432//214
f 428//214 433//214 434//214
f 428//214 434//214 429//214
f 422//214 423//214 420//214
f 422//214 420//214 421//214
f 421//214 424//214 425//214
f 421//214 425//214 422//214
f 425//214 427//214 426//214
f 425//214 426//214 422//214
o Hull_havok_s_armor_10_8
v -0.910879 1.487260 0.314182
v -0.910879 1.202778 0.314185
v -0.872158 1.202778 0.314185
v -0.872158 1.487260 0.314182
v -1.020967 1.137309 -2.124668
v -1.020967 0.841576 -2.937598
v 1.020967 0.841576 -2.937598
v 1.020967 1.137309 -2.124668
v 0.872315 1.487260 0.314182
v 0.872315 1.202778 0.314182
v 0.911904 1.202778 0.314185
v 0.911904 1.487260 0.314182
vn -0.0000 -0.0000 1.0000
vn -0.0001 -0.0000 1.0000
vn -0.0000 -0.9397 0.3419
s 0
f 445//215 446//215 443//215
f 445//216 443//216 444//216
f 441//217 442//217 439//217
f 441//217 439//217 440//217
f 437//215 438//215 435//215
f 437//215 435//215 436//215
o Hull_havok_s_armor_11_9
v -1.020967 0.400834 2.721269
v -1.020967 0.567064 2.838574
v -0.872158 0.567064 2.838574
v -0.872158 0.400836 2.721269
v -1.020967 1.202778 2.731836
v -1.020967 1.202778 2.634727
v -0.910879 1.202778 2.634727
v -0.872158 1.202778 2.727402
v 1.020977 0.567064 2.836855
v 1.020967 0.400834 2.721269
v 0.872315 0.400834 2.721269
v 0.872315 0.567064 2.836855
v 0.911905 1.202778 2.634727
v 1.020967 1.202778 2.634727
v 1.020967 1.202778 2.730117
v 0.872315 1.202778 2.727402
v 0.872315 1.487260 0.314182
v 0.872315 1.487260 2.634727
v -0.872158 1.487260 2.634727
v -0.910879 1.487260 0.314182
v -0.910879 1.487260 2.634727
v 0.911905 1.487260 0.314182
v 0.911905 1.487260 2.634727
v -0.872158 1.202778 2.634727
v 0.872315 1.202778 2.634727
vn -0.0000 -1.0000 -0.0000
vn -0.0000 0.5766 -0.8170
vn -0.0000 0.5709 -0.8210
s 0
f 468//218 469//218 464//218
f 468//218 464//218 463//218
f 466//218 465//218 467//218
f 470//218 471//218 462//218
f 470//218 462//218 454//218
f 459//218 462//218 471//218
f 453//218 470//218 454//218
f 453//218 454//218 451//218
f 453//218 451//218 452//218
f 449//219 450//219 447//219
f 449//219 447//219 448//219
f 457//220 458//220 455//220
f 457//220 455//220 456//220
f 465//218 466//218 463//218
f 465//218 463//218 464//218
f 461//218 462//218 459//218
f 461//218 459//218 460//218
o Hull_havok_s_armor_12_10
v 0.827129 0.400834 2.347812
v -0.826846 0.400834 2.347812
v -1.020967 0.400834 2.721269
v -0.872158 0.400836 2.721269
v -0.872158 0.400836 2.526250
v -1.021517 0.399936 2.347935
v 0.872314 0.400834 2.526250
v 0.872314 0.400834 2.721269
v 1.020967 0.400834 2.721269
v 1.020967 0.400834 2.347812
v -0.872158 1.113861 2.727402
v -0.872158 1.113861 2.746777
v 0.872314 1.113851 2.745039
v 0.872314 1.113851 2.727402
v 1.020967 0.400834 0.314182
v -1.021242 0.400385 0.314182
vn -0.0000 1.0000 -0.0000
vn -0.0002 1.0000 -0.0002
vn -0.0046 1.0000 -0.0012
vn -0.0046 1.0000 0.0002
vn -0.0032 1.0000 -0.0024
s 0
f 473//221 476//221 478//221
f 473//221 478//221 472//221
f 486//222 487//222 473//222
f 486//221 473//221 472//221
f 477//223 476//223 473//223
f 477//224 473//224 487//224
f 472//221 478//221 481//221
f 472//221 481//221 486//221
f 476//225 477//225 474//225
f 476//221 474//221 475//221
f 480//221 481//221 478//221
f 480//221 478//221 479//221
f 484//221 485//221 482//221
f 484//221 482//221 483//221
o Hull_havok_s_armor_15_11
v 0.911904 1.202777 2.634727
v 0.911904 1.487259 2.634727
v 0.911904 1.487260 0.314182
v 0.911904 1.202778 0.314185
v -0.910879 1.487260 2.634727
v -0.910879 1.202778 2.634727
v -0.910879 1.202778 0.314185
v -0.910879 1.487260 0.314182
vn 1.0000 -0.0000 -0.0000
vn -1.0000 -0.0000 -0.0000
s 0
f 494//226 495//226 492//226
f 494//226 492//226 493//226
f 490//227 491//227 488//227
f 490//227 488//227 489//227
o Hull_havok_s_surveyingDevice_12
v 0.197346 1.554434 -1.948602
v 0.197346 1.552788 -1.960129
v 0.510853 1.554434 -1.948602
v 0.510853 1.552788 -1.960129
v 0.393230 1.295237 -2.175384
v 0.293220 1.554434 -1.948602
v 0.293220 1.487260 -1.948602
v 0.197346 1.487260 -1.948602
v 0.197346 1.487260 -1.968343
v 0.293220 1.552816 -1.960156
v 0.293220 1.487259 -1.968343
v 0.606727 1.552816 -1.960156
v 0.606727 1.554434 -1.948602
v 0.510854 1.487260 -1.948602
v 0.606728 1.487260 -1.948602
v 0.606727 1.487260 -1.968343
v 0.510854 1.487259 -1.968343
v 0.278159 1.331352 -2.124624
v 0.278159 1.259781 -2.124624
v 0.508431 1.330755 -2.124604
v 0.507660 1.259305 -2.124617
vn 1.0000 -0.0000 -0.0000
vn -0.0000 -0.1239 0.9923
vn 0.0003 -0.1244 0.9922
vn -1.0000 -0.0000 0.0001
vn -1.0000 -0.0000 -0.0000
vn 0.4036 -0.0000 0.9149
vn -0.0022 -0.8171 0.5765
vn -0.4044 0.0042 0.9146
vn 0.0017 0.8180 0.5752
vn -0.0000 -0.0000 -1.0000
vn -0.0000 -0.9903 0.1386
vn 0.0003 -0.9900 0.1414
vn -0.0000 -0.9903 0.1387
s 0
f 509//228 512//228 499//228
f 509//228 499//228 498//228
f 512//229 511//229 507//229
f 512//230 507//230 499//230
f 507//231 511//231 510//231
f 507//232 510//232 508//232
f 513//233 514//233 500//233
f 513//234 500//234 515//234
f 504//229 506//229 505//229
f 504//230 505//230 497//230
f 515//235 500//235 516//235
f 500//236 514//236 516//236
f 505//232 506//232 502//232
f 505//232 502//232 501//232
f 503//228 504//228 497//228
f 503//228 497//228 496//228
f 501//237 502//237 503//237
f 501//237 503//237 496//237
f 508//237 510//237 509//237
f 508//237 509//237 498//237
f 505//238 501//238 496//238
f 505//239 496//239 497//239
f 507//240 508//240 498//240
f 507//239 498//239 499//239
o Hull_havok_s_armor_16_13
v -1.020967 0.644672 -2.884863
v -1.020967 0.400834 -2.427129
v 1.020967 0.400834 -2.427148
v 1.020967 0.644672 -2.884863
vn -0.0000 0.8826 0.4702
s 0
f 519//241 520//241 517//241
f 519//241 517//241 518//241
o Hull_havok_s_armor_6_14
v -1.021242 0.400385 0.314182
v 1.020967 0.400834 0.314182
v 1.020967 0.400834 -2.427148
v -1.020966 0.400834 -2.427129
vn -0.0000 1.0000 0.0002
vn -0.0002 1.0000 -0.0000
s 0
f 523//242 524//242 521//242
f 523//243 521//243 522//243
o Hull_havok_s_armor_14_15
v 0.293220 1.487260 -1.948602
v 0.197346 1.487260 -1.948602
v 0.197346 1.487260 -1.968343
v 0.293220 1.487259 -1.968343
v 0.510854 1.487259 -1.968343
v 0.606727 1.487260 -1.968343
v 0.606728 1.487260 -1.948602
v 0.510854 1.487260 -1.948602
vn -0.0000 -1.0000 -0.0000
s 0
f 531//244 532//244 529//244
f 531//244 529//244 530//244
f 527//244 528//244 525//244
f 527//244 525//244 526//244
o Hull_havok_s_armor_8_16
v -0.234496 1.487260 -1.271590
v -0.736529 1.487260 -0.573981
v -0.600203 1.487260 -1.005089
v 0.743990 1.487260 -0.578153
v 0.600793 1.487260 -0.146972
v 0.595722 1.487260 -1.021097
v 0.223724 1.487260 -1.272967
v 0.230729 1.487260 0.129540
v -0.226181 1.487260 0.126749
v -0.610417 1.487260 -0.131705
vn -0.0000 -1.0000 -0.0000
s 0
f 540//245 541//245 534//245
f 540//245 534//245 537//245
f 542//245 534//245 541//245
f 539//245 538//245 534//245
f 539//245 534//245 533//245
f 533//245 534//245 535//245
f 534//245 538//245 536//245
f 534//245 536//245 537//245
o Gun_07_havok_s_gun_0
v 0.219076 1.931355 -0.136519
v -0.071482 1.931355 -0.136519
v -0.071482 1.931355 -1.079674
v 0.219076 1.931355 -1.079674
v 0.219076 1.626388 -0.136519
v -0.071482 1.626388 -0.136519
v 0.219076 1.626388 -1.079674
v -0.071482 1.626388 -1.079674
v 0.131071 1.838986 -1.258873
v 0.131071 1.718757 -1.258873
v 0.016523 1.718757 -1.258873
v 0.016523 1.838986 -1.258873
v 0.016523 1.718757 -1.604696
v 0.016523 1.838986 -1.604696
v 0.131071 1.838986 -1.604696
v 0.024755 1.830345 -1.736738
v 0.024755 1.727398 -1.736738
v 0.024755 1.727398 -3.211204
v 0.024755 1.830345 -3.211204
v 0.122838 1.830345 -1.736738
v 0.122838 1.830345 -3.211204
v 0.122838 1.727398 -1.736738
v 0.122838 1.727398 -3.211204
v 0.131071 1.718757 -1.604696
v 0.128800 1.836602 -3.352677
v 0.018794 1.836602 -3.352677
v 0.018794 1.721141 -3.352677
v 0.128800 1.721141 -3.352677
v -0.003491 1.697750 -3.327526
v 0.151085 1.697750 -3.327526
v 0.151085 1.859992 -3.327526
v -0.003491 1.859992 -3.327526
vn -0.0000 0.9690 -0.2470
vn -0.9718 -0.0000 -0.2360
vn -0.7485 -0.0000 0.6632
vn -0.0000 0.7323 0.6810
vn -0.9981 -0.0000 0.0622
vn -0.0000 0.9979 0.0653
vn -0.0000 -0.0000 1.0000
vn 0.9718 -0.0000 -0.2360
vn -0.0000 1.0000 -0.0000
vn 0.9981 -0.0000 0.0622
vn -0.0000 -0.9979 0.0653
vn -1.0000 -0.0000 -0.0000
vn 0.7485 -0.0000 0.6632
vn -0.0000 -0.9690 -0.2470
vn -0.0000 -0.7323 0.6810
vn -0.8976 -0.0000 0.4408
vn -0.0000 0.8889 0.4582
vn 1.0000 -0.0000 -0.0000
vn -0.0000 -1.0000 -0.0000
vn -0.0000 -0.0000 -1.0000
vn 0.8976 -0.0000 0.4408
vn -0.0000 -0.8889 0.4582
s 0
f 572//246 571//246 560//246
f 572//246 560//246 565//246
f 573//247 572//247 565//247
f 573//247 565//247 563//247
f 572//248 573//248 567//248
f 572//248 567//248 570//248
f 571//249 572//249 570//249
f 571//249 570//249 569//249
f 562//250 564//250 566//250
f 562//250 566//250 557//250
f 555//251 566//251 564//251
f 555//251 564//251 559//251
f 569//252 570//252 567//252
f 569//252 567//252 568//252
f 571//253 574//253 561//253
f 571//253 561//253 560//253
f 566//254 555//254 553//254
f 566//254 553//254 552//254
f 559//255 558//255 556//255
f 559//255 556//255 555//255
f 558//256 562//256 557//256
f 558//256 557//256 556//256
f 557//257 566//257 552//257
f 557//257 552//257 551//257
f 574//258 571//258 569//258
f 574//258 569//258 568//258
f 574//259 573//259 563//259
f 574//259 563//259 561//259
f 573//260 574//260 568//260
f 573//260 568//260 567//260
f 549//254 550//254 548//254
f 549//254 548//254 547//254
f 551//261 552//261 549//261
f 551//261 549//261 546//261
f 552//262 553//262 550//262
f 552//262 550//262 549//262
f 544//263 548//263 550//263
f 544//263 550//263 545//263
f 545//264 546//264 543//264
f 545//264 543//264 544//264
f 547//265 548//265 544//265
f 547//265 544//265 543//265
f 546//257 549//257 547//257
f 546//257 547//257 543//257
f 553//266 554//266 545//266
f 553//266 545//266 550//266
f 561//264 563//264 562//264
f 561//264 562//264 558//264
f 563//257 565//257 564//257
f 563//257 564//257 562//257
f 559//254 564//254 565//254
f 559//254 565//254 560//254
f 560//263 561//263 558//263
f 560//263 558//263 559//263
f 554//267 551//267 546//267
f 554//267 546//267 545//267
f 555//263 556//263 554//263
f 555//263 554//263 553//263
f 556//264 557//264 551//264
f 556//264 551//264 554//264
