# Blender 5.1.0
# www.blender.org
o Chassis_havok_s_leftTrack_0
v -1.624966 0.664087 2.457602
v -1.624966 0.337292 3.072622
v -1.624966 0.046458 2.451059
v -1.624966 0.664087 -2.619585
v -1.624966 0.002927 2.294033
v -1.624966 0.062230 -2.331703
v -0.916810 0.664087 -2.619585
v -0.916810 0.664087 2.457602
v -0.974238 0.438864 -2.992522
v -0.974238 0.062230 -2.331703
v -0.974238 0.438864 3.216563
v -0.974238 0.002927 -2.187762
v -1.624966 0.002927 -2.187762
v -0.974238 0.002927 2.294033
v -0.974238 0.337292 3.072622
v -0.974238 0.046458 2.451059
v -0.916810 0.438864 -3.025236
v -0.916810 0.600368 3.321247
v -0.916810 0.438864 3.229648
v -0.916810 1.166897 1.711726
v -0.916810 1.294334 1.901467
v -0.916810 1.281086 -2.920552
v -0.916810 1.166897 0.377002
v -0.916810 1.166897 -1.441887
v -0.916810 1.166897 -0.002478
v -1.624966 1.294334 1.901467
v -1.624966 1.166897 -1.821367
v -1.624966 1.166897 -2.750440
v -1.624966 1.281086 -2.920552
v -1.624966 1.166897 -0.002478
v -1.624966 1.166897 -1.441887
v -1.624966 1.166897 0.377002
v -1.624966 1.166897 1.711726
v -0.916810 0.845149 1.711726
v -1.624966 0.845149 1.711726
v -1.624966 0.838209 0.377002
v -0.916810 0.838209 0.377002
v -1.624966 0.838209 -0.002478
v -0.916810 0.838209 -0.002478
v -0.916810 0.963123 3.321247
v -1.624966 0.963123 3.321247
v -1.624966 1.115796 3.223105
v -0.916810 1.115796 3.223105
v -0.916810 0.780800 3.360503
v -1.624966 0.780800 3.360503
v -1.624966 1.216736 3.066079
v -0.916810 1.216736 3.066079
v -0.916810 1.253958 2.889424
v -1.624966 1.253958 2.889424
v -0.916810 1.123997 2.621171
v -0.916810 0.899405 2.490315
v -1.624966 0.899405 2.490315
v -1.624966 1.123997 2.621171
v -1.624966 1.160588 2.091207
v -0.916810 0.845149 2.091207
v -0.916810 1.160588 2.091207
v -1.624966 0.845149 2.091207
v -1.624966 0.438864 3.223105
v -1.624966 0.600368 3.321247
v -0.974238 0.438864 3.223105
v -0.916810 1.166897 -1.821367
v -0.916810 1.166897 -2.750440
v -1.624966 0.835055 -1.821367
v -1.624966 0.835055 -1.441887
v -0.916810 0.835055 -1.441887
v -0.916810 0.835055 -1.821367
v -1.624966 1.110118 -3.254233
v -0.916810 1.110118 -3.254233
v -0.916810 1.236293 -3.103750
v -1.624966 1.236293 -3.103750
v -0.916810 1.073527 -2.645756
v -1.624966 1.073527 -2.645756
v -1.624966 0.911391 -3.332746
v -0.916810 0.911391 -3.332746
v -1.624966 0.711403 -3.300032
v -0.916810 0.711403 -3.300032
v -0.916810 0.800357 -2.580328
v -0.916810 0.973217 -2.586871
v -1.624966 0.800357 -2.580328
v -1.624966 0.973217 -2.586871
v -1.624966 0.548006 -3.188805
v -0.916810 0.548006 -3.188805
vn -0.0000 1.0000 -0.0000
vn -0.0000 -0.0000 -1.0000
vn -1.0000 -0.0000 -0.0000
vn -0.0000 0.9637 -0.2671
vn -0.0000 -0.9714 0.2375
vn -0.0000 -0.7463 -0.6656
vn -0.0000 -0.7663 0.6425
vn 1.0000 -0.0000 -0.0000
vn -0.0000 -0.0000 1.0000
vn 0.0986 0.4909 -0.8656
vn -0.0000 0.2126 -0.9771
vn -0.0000 0.5193 -0.8546
vn -0.1542 0.9880 -0.0000
vn -0.0000 0.8289 -0.5595
vn -0.0000 0.9058 -0.4238
vn -0.0000 0.8171 -0.5766
vn -0.0000 0.8700 0.4931
vn -0.0176 0.8760 0.4820
vn 1.0000 -0.0000 0.0001
vn -0.0000 0.9246 0.3809
vn -0.0000 0.5627 0.8267
vn 0.3015 0.7931 0.5292
vn -0.0000 -0.3674 0.9300
vn -0.0000 0.1614 0.9869
vn -0.0000 0.2768 -0.9609
vn -0.0000 -0.5062 -0.8624
vn -0.0000 -0.0378 -0.9993
vn -0.0000 -1.0000 0.0027
vn -0.0000 0.8688 0.4952
vn -0.0000 -1.0000 -0.0000
vn -0.0000 -0.9992 -0.0408
vn -0.0000 -0.1377 0.9905
vn -0.0000 0.9976 0.0689
vn -0.0000 -0.5034 0.8640
vn -0.0000 -0.5407 -0.8412
vn -0.0000 -0.2105 -0.9776
vn -0.0000 -0.8412 -0.5407
vn -0.0000 -0.9785 -0.2062
s 0
f 65//1 66//1 63//1
f 65//1 63//1 64//1
f 24//2 65//2 64//2
f 24//2 64//2 31//2
f 22//3 62//3 61//3
f 22//3 61//3 24//3
f 3//4 16//4 14//4
f 3//4 14//4 5//4
f 61//1 62//1 28//1
f 61//1 28//1 27//1
f 66//3 65//3 24//3
f 66//3 24//3 61//3
f 29//5 70//5 69//5
f 29//5 69//5 22//5
f 62//6 71//6 72//6
f 62//6 72//6 28//6
f 69//7 70//7 67//7
f 69//7 67//7 68//7
f 64//8 63//8 27//8
f 64//8 27//8 31//8
f 27//9 63//9 66//9
f 27//9 66//9 61//9
f 19//1 11//1 60//1
f 19//10 60//10 18//10
f 59//11 45//11 44//11
f 59//11 44//11 18//11
f 18//12 60//12 58//12
f 18//12 58//12 59//12
f 35//1 57//1 55//1
f 35//1 55//1 34//1
f 56//2 55//2 57//2
f 56//2 57//2 54//2
f 60//13 11//13 2//13
f 60//14 2//14 58//14
f 8//3 18//3 51//3
f 2//15 15//15 16//15
f 2//15 16//15 3//15
f 59//8 58//8 52//8
f 59//8 52//8 45//8
f 11//16 15//16 2//16
f 52//8 58//8 2//8
f 52//8 2//8 1//8
f 28//8 72//8 79//8
f 28//8 79//8 4//8
f 79//8 72//8 80//8
f 29//8 28//8 4//8
f 70//8 81//8 75//8
f 70//8 75//8 67//8
f 73//8 67//8 75//8
f 82//17 81//17 6//17
f 82//18 6//18 9//18
f 29//19 4//19 6//19
f 29//8 6//8 81//8
f 13//20 12//20 10//20
f 13//20 10//20 6//20
f 75//21 81//21 82//21
f 75//21 82//21 76//21
f 7//3 76//3 82//3
f 7//3 82//3 17//3
f 17//22 82//22 9//22
f 76//3 7//3 74//3
f 77//3 78//3 68//3
f 7//3 77//3 68//3
f 7//3 68//3 74//3
f 73//23 74//23 68//23
f 73//23 68//23 67//23
f 75//24 76//24 74//24
f 75//24 74//24 73//24
f 68//3 78//3 71//3
f 68//3 71//3 62//3
f 4//25 79//25 77//25
f 4//25 77//25 7//25
f 70//8 29//8 81//8
f 71//26 78//26 80//26
f 71//26 80//26 72//26
f 69//3 68//3 62//3
f 69//3 62//3 22//3
f 79//27 80//27 78//27
f 79//27 78//27 77//27
f 26//8 30//8 31//8
f 26//8 31//8 27//8
f 26//8 33//8 32//8
f 26//8 32//8 30//8
f 28//8 29//8 26//8
f 28//8 26//8 27//8
f 22//3 23//3 20//3
f 22//3 20//3 21//3
f 22//3 24//3 25//3
f 22//3 25//3 23//3
f 21//28 26//28 29//28
f 21//28 29//28 22//28
f 36//8 38//8 30//8
f 36//8 30//8 32//8
f 30//9 38//9 39//9
f 30//9 39//9 25//9
f 23//2 37//2 36//2
f 23//2 36//2 32//2
f 32//1 33//1 20//1
f 32//1 20//1 23//1
f 33//9 35//9 34//9
f 33//9 34//9 20//9
f 9//29 6//29 10//29
f 9//3 10//3 11//3
f 5//1 14//1 12//1
f 5//1 12//1 13//1
f 4//30 7//30 8//30
f 4//30 8//30 1//30
f 3//8 4//8 1//8
f 3//8 1//8 2//8
f 5//8 6//8 4//8
f 5//8 4//8 3//8
f 13//8 6//8 5//8
f 19//3 18//3 17//3
f 19//1 17//1 9//1
f 19//1 9//1 11//1
f 17//3 18//3 8//3
f 17//3 8//3 7//3
f 12//3 15//3 11//3
f 12//3 11//3 10//3
f 14//3 16//3 15//3
f 14//3 15//3 12//3
f 34//3 55//3 56//3
f 34//3 56//3 20//3
f 56//3 21//3 20//3
f 48//31 49//31 26//31
f 48//31 26//31 21//31
f 52//8 53//8 46//8
f 52//8 46//8 42//8
f 53//8 54//8 49//8
f 53//8 49//8 46//8
f 21//3 56//3 50//3
f 21//3 50//3 48//3
f 8//32 51//32 52//32
f 8//32 52//32 1//32
f 50//33 56//33 54//33
f 50//33 54//33 53//33
f 50//34 53//34 52//34
f 50//34 52//34 51//34
f 26//8 49//8 54//8
f 26//8 54//8 33//8
f 33//8 54//8 57//8
f 33//8 57//8 35//8
f 42//35 43//35 40//35
f 42//35 40//35 41//35
f 40//36 44//36 45//36
f 40//36 45//36 41//36
f 31//1 30//1 25//1
f 31//1 25//1 24//1
f 39//3 37//3 23//3
f 39//3 23//3 25//3
f 37//1 39//1 38//1
f 37//1 38//1 36//1
f 46//37 47//37 43//37
f 46//37 43//37 42//37
f 47//3 48//3 50//3
f 47//3 50//3 43//3
f 41//8 45//8 52//8
f 41//8 52//8 42//8
f 50//3 44//3 40//3
f 50//3 40//3 43//3
f 46//38 49//38 48//38
f 46//38 48//38 47//38
f 50//3 51//3 18//3
f 50//3 18//3 44//3
o Chassis_havok_s_rightTrack_1
v 0.916636 0.963123 3.321247
v 0.916636 1.115796 3.223105
v 1.624966 1.115796 3.223105
v 1.624966 0.963123 3.321247
v 1.624966 0.780800 3.360503
v 0.916636 0.780800 3.360503
v 1.624966 1.216736 3.066079
v 0.916636 1.216736 3.066079
v 0.916636 1.253958 2.889424
v 1.624966 1.253958 2.889424
v 0.916636 1.123997 2.621171
v 0.916636 0.600368 3.321247
v 0.916636 0.899405 2.490315
v 1.624966 1.123997 2.621171
v 1.624966 0.899405 2.490315
v 1.624966 1.160588 2.091207
v 1.624966 0.600368 3.321247
v 1.624966 1.294334 1.901467
v 0.916636 1.294334 1.901467
v 0.916636 1.166897 1.711726
v 0.916636 1.160588 2.091207
v 0.916636 0.845149 2.091207
v 0.916636 0.845149 1.711726
v 1.624966 1.166897 1.711726
v 1.624966 0.845149 1.711726
v 1.624966 0.845149 2.091207
v 0.916636 0.664087 2.457602
v 1.624966 0.664087 2.457602
v 0.974424 0.438864 3.223105
v 0.916636 0.438864 3.229648
v 1.624966 0.438864 3.223105
v 1.624966 0.337292 3.072622
v 0.974424 0.337292 3.072622
v 0.974424 0.438864 3.216563
v 1.624966 0.046458 2.451059
v 0.974424 0.046458 2.451059
v 0.974424 0.002927 2.294033
v 1.624966 0.002927 2.294033
v 1.624966 0.664087 -2.619585
v 0.916636 0.664087 -2.619585
v 1.624966 0.062230 -2.331703
v 0.974424 0.062230 -2.331703
v 0.974424 0.438864 -2.992522
v 1.624966 0.002927 -2.187762
v 0.974424 0.002927 -2.187762
v 0.916636 0.438864 -3.025236
v 0.916636 1.281086 -2.920552
v 1.624966 1.281086 -2.920552
v 0.916636 1.166897 0.377002
v 0.916636 1.166897 -0.002478
v 0.916636 1.166897 -1.441887
v 1.624966 1.166897 -2.750440
v 1.624966 1.166897 -1.821367
v 1.624966 1.166897 -1.441887
v 1.624966 1.166897 -0.002478
v 1.624966 1.166897 0.377002
v 0.916636 0.838209 -0.002478
v 1.624966 0.838209 -0.002478
v 0.916636 0.838209 0.377002
v 1.624966 0.838209 0.377002
v 0.916636 1.166897 -2.750440
v 0.916636 1.166897 -1.821367
v 1.624966 0.835055 -1.441887
v 0.916636 0.835055 -1.441887
v 0.916636 0.835055 -1.821367
v 1.624966 0.835055 -1.821367
v 1.624966 1.110118 -3.254233
v 1.624966 1.236293 -3.103750
v 0.916636 1.236293 -3.103750
v 0.916636 1.110118 -3.254233
v 1.624966 1.073527 -2.645756
v 0.916636 1.073527 -2.645756
v 1.624966 0.911391 -3.332746
v 0.916636 0.911391 -3.332746
v 1.624966 0.711403 -3.300032
v 0.916636 0.711403 -3.300032
v 0.916636 0.800357 -2.580328
v 0.916636 0.973217 -2.586871
v 1.624966 0.973217 -2.586871
v 1.624966 0.800357 -2.580328
v 1.624966 0.548006 -3.188805
v 0.916636 0.548006 -3.188805
vn 1.0000 -0.0000 -0.0000
vn -0.0000 -0.0000 -1.0000
vn -0.0000 1.0000 -0.0000
vn -0.0000 -0.0000 1.0000
vn -0.0000 -0.7663 0.6425
vn -1.0000 -0.0000 -0.0000
vn -0.0000 -0.9714 0.2375
vn -0.0000 0.8700 0.4931
vn 0.0177 0.8760 0.4819
vn -1.0000 -0.0000 0.0001
vn -0.0000 0.9246 0.3809
vn -0.0000 0.5627 0.8267
vn -0.2998 0.7936 0.5295
vn -0.0000 0.1614 0.9869
vn -0.0000 -0.7463 -0.6656
vn -0.0000 -0.3674 0.9300
vn -0.0000 -0.5062 -0.8624
vn -0.0000 0.2768 -0.9609
vn -0.0000 -0.0378 -0.9993
vn -0.0000 -1.0000 0.0027
vn -0.0000 -0.9992 -0.0408
vn -0.0000 0.9976 0.0689
vn -0.0000 -0.1377 0.9905
vn -0.0000 -0.5034 0.8640
vn -0.0000 -0.9785 -0.2062
vn -0.0000 -0.8412 -0.5407
vn -0.0000 -0.5407 -0.8412
vn -0.0000 -0.2105 -0.9776
vn -0.0000 0.8688 0.4952
vn -0.0000 -1.0000 -0.0000
vn 0.0058 0.8170 -0.5765
vn -0.0000 0.8289 -0.5595
vn -0.0000 0.2126 -0.9771
vn -0.0000 0.4933 -0.8698
vn -0.0773 0.7264 -0.6829
vn -0.0000 0.5193 -0.8546
vn -0.0000 0.9058 -0.4238
vn -0.0000 0.9637 -0.2671
s 0
f 144//39 143//39 129//39
f 144//39 129//39 133//39
f 145//40 146//40 133//40
f 145//40 133//40 136//40
f 134//41 143//41 144//41
f 134//41 144//41 135//41
f 141//41 142//41 140//41
f 141//41 140//41 139//41
f 132//41 137//41 136//41
f 132//41 136//41 133//41
f 147//42 148//42 135//42
f 147//42 135//42 144//42
f 151//43 152//43 149//43
f 151//43 149//43 150//43
f 148//44 145//44 136//44
f 148//44 136//44 135//44
f 146//39 147//39 144//39
f 146//39 144//39 133//39
f 148//41 147//41 146//41
f 148//41 146//41 145//41
f 140//44 142//44 138//44
f 140//44 138//44 137//44
f 136//44 137//44 100//44
f 136//44 100//44 135//44
f 100//44 137//44 138//44
f 100//44 138//44 106//44
f 134//44 135//44 100//44
f 134//44 100//44 130//44
f 102//39 131//39 129//39
f 102//39 129//39 101//39
f 132//39 133//39 129//39
f 132//39 129//39 131//39
f 141//39 139//39 132//39
f 141//39 132//39 131//39
f 142//40 141//40 131//40
f 142//40 131//40 138//40
f 139//42 140//42 137//42
f 139//42 137//42 132//42
f 138//41 131//41 102//41
f 138//41 102//41 106//41
f 105//42 107//42 106//42
f 105//42 106//42 102//42
f 151//45 150//45 130//45
f 151//45 130//45 129//45
f 153//44 162//44 161//44
f 123//46 163//46 164//46
f 123//47 164//47 125//47
f 162//44 153//44 134//44
f 162//44 134//44 121//44
f 157//44 163//44 149//44
f 157//44 149//44 155//44
f 130//44 121//44 134//44
f 123//48 121//48 130//48
f 123//44 130//44 163//44
f 124//49 127//49 126//49
f 124//49 126//49 123//49
f 164//50 163//50 157//50
f 164//50 157//50 158//50
f 164//39 158//39 122//39
f 164//39 122//39 128//39
f 128//51 125//51 164//51
f 150//44 149//44 163//44
f 150//44 163//44 130//44
f 152//39 160//39 159//39
f 152//39 159//39 156//39
f 156//39 159//39 122//39
f 156//39 122//39 158//39
f 156//52 158//52 157//52
f 156//52 157//52 155//52
f 153//53 154//53 143//53
f 153//53 143//53 134//53
f 152//54 156//54 155//54
f 152//54 155//54 149//54
f 153//55 161//55 160//55
f 153//55 160//55 154//55
f 122//56 159//56 162//56
f 122//56 162//56 121//56
f 161//57 162//57 159//57
f 161//57 159//57 160//57
f 154//39 160//39 152//39
f 154//39 152//39 143//39
f 143//39 152//39 151//39
f 143//39 151//39 129//39
f 101//58 129//58 130//58
f 101//58 130//58 100//58
f 93//39 103//39 101//39
f 93//39 101//39 91//39
f 100//44 106//44 98//44
f 100//44 98//44 92//44
f 103//39 102//39 101//39
f 91//59 101//59 100//59
f 91//59 100//59 92//59
f 104//39 105//39 102//39
f 104//39 102//39 103//39
f 98//60 103//60 93//60
f 98//60 93//60 96//60
f 104//41 108//41 107//41
f 104//41 107//41 105//41
f 109//61 110//61 97//61
f 109//61 97//61 95//61
f 107//44 108//44 98//44
f 107//44 98//44 106//44
f 97//62 96//62 93//62
f 97//62 93//62 95//62
f 97//44 99//44 87//44
f 97//44 87//44 86//44
f 91//63 92//63 89//63
f 91//63 89//63 90//63
f 94//39 95//39 93//39
f 94//39 93//39 88//39
f 84//64 90//64 89//64
f 84//64 89//64 85//64
f 85//65 86//65 83//65
f 85//65 83//65 84//65
f 87//66 88//66 83//66
f 87//66 83//66 86//66
f 85//44 97//44 86//44
f 92//44 98//44 96//44
f 92//44 96//44 89//44
f 89//44 96//44 97//44
f 89//44 97//44 85//44
f 83//39 88//39 93//39
f 83//39 93//39 84//39
f 93//39 91//39 90//39
f 93//39 90//39 84//39
f 108//40 104//40 103//40
f 108//40 103//40 98//40
f 120//41 126//41 127//41
f 120//41 127//41 119//41
f 126//44 120//44 123//44
f 125//39 116//39 124//39
f 125//67 124//67 123//67
f 121//44 123//44 120//44
f 121//44 120//44 117//44
f 110//44 121//44 117//44
f 112//39 128//39 94//39
f 125//41 128//41 112//41
f 125//41 112//41 116//41
f 128//39 122//39 109//39
f 128//39 109//39 94//39
f 127//39 124//39 116//39
f 127//39 116//39 115//39
f 115//39 118//39 119//39
f 115//39 119//39 127//39
f 109//68 122//68 121//68
f 109//68 121//68 110//68
f 115//69 116//69 113//69
f 115//70 113//70 114//70
f 116//41 112//41 111//41
f 116//41 111//41 113//41
f 99//71 94//71 88//71
f 99//71 88//71 87//71
f 112//72 94//72 99//72
f 112//73 99//73 111//73
f 113//74 111//74 99//74
f 114//75 117//75 118//75
f 114//75 118//75 115//75
f 117//76 120//76 119//76
f 117//76 119//76 118//76
f 97//44 110//44 113//44
f 97//44 113//44 99//44
f 109//39 95//39 94//39
f 110//44 117//44 114//44
f 110//44 114//44 113//44
o Turret_01_havok_s_armor_1_0
v -0.474077 2.795221 -1.599699
v -0.531745 2.154736 -1.044350
v 0.531745 2.154736 -1.044350
v 0.474077 2.795221 -1.599699
v 0.474596 2.710629 -1.992866
v -0.475116 2.251740 -2.646506
v 0.475116 2.251740 -2.646506
v -0.474596 2.710629 -1.992866
v 0.475116 2.198829 -2.687461
v 0.475116 2.126647 -2.720225
v -0.475116 2.126647 -2.720225
v -0.475116 2.198829 -2.687461
v -0.474066 1.889972 -1.768486
v -0.525589 1.889972 -1.044350
v -0.442490 2.154617 -1.044351
v -0.371370 2.795221 -1.599467
v -0.436334 1.889972 -1.044351
v 0.442490 2.154617 -1.044351
v 0.525589 1.889972 -1.044350
v 0.436334 1.889972 -1.044351
v 0.474066 1.889972 -1.768486
v 0.371370 2.795221 -1.599467
v -0.271664 2.414297 -2.414667
v -0.320880 2.488814 -2.308649
v -0.177328 2.315556 -2.555423
v -0.096489 2.251709 -2.646101
v 0.320880 2.488814 -2.308649
v 0.271664 2.414297 -2.414667
v 0.177328 2.315556 -2.555423
v 0.371554 2.710773 -1.993471
v -0.371554 2.710773 -1.993471
v 0.474880 1.889972 -2.720225
v -0.474880 1.889972 -2.720225
v 0.000000 2.198861 -2.688066
v 0.096489 2.251709 -2.646101
vn 1.0000 0.0004 -0.0010
vn 1.0000 0.0007 -0.0009
vn 1.0000 0.0010 -0.0009
vn -0.0034 -0.8179 0.5754
vn 0.0045 -0.8184 0.5746
vn -1.0000 0.0010 -0.0009
vn -1.0000 0.0004 -0.0010
vn 0.0034 -0.8179 0.5754
vn -0.0045 -0.8184 0.5746
vn 1.0000 0.0003 -0.0014
vn -0.0010 -0.6207 0.7841
vn 0.0009 -0.6121 0.7908
vn 0.0007 -0.8179 0.5753
vn -0.0000 -0.0000 1.0000
vn -0.0012 -0.4002 0.9164
vn -0.0000 -0.4133 0.9106
vn 0.0012 -0.4133 0.9106
vn 0.0010 -0.6207 0.7841
vn -0.0009 -0.6121 0.7908
vn -1.0000 0.0007 -0.0009
vn -0.0000 -0.0000 -1.0000
vn -0.9962 -0.0159 0.0852
vn -0.9972 0.0232 0.0710
vn -0.0017 -0.6550 -0.7556
vn 0.0009 -0.6551 -0.7556
vn 0.9962 -0.0159 0.0852
vn 0.9972 0.0232 0.0710
vn 0.0017 -0.6550 -0.7556
vn -0.0009 -0.6551 -0.7556
vn 0.0054 0.8169 -0.5767
vn 0.0003 -0.8185 0.5745
vn 0.0005 -0.9778 0.2096
vn -0.0026 -0.9776 0.2103
vn 0.0026 -0.9778 0.2096
vn -0.0005 -0.9776 0.2103
vn -1.0000 0.0003 -0.0014
vn -0.0010 -0.8184 0.5747
vn -0.0002 -0.8187 0.5742
vn -0.0007 -0.8179 0.5753
s 0
f 177//77 175//77 176//77
f 177//78 176//78 170//78
f 197//79 175//79 177//79
f 170//80 188//80 195//80
f 170//81 195//81 172//81
f 174//82 196//82 185//82
f 174//83 185//83 173//83
f 194//84 191//84 171//84
f 194//85 171//85 169//85
f 177//77 170//77 172//77
f 177//86 172//86 165//86
f 199//87 198//87 173//87
f 199//88 173//88 171//88
f 199//89 171//89 193//89
f 175//90 197//90 196//90
f 175//90 196//90 174//90
f 173//91 198//91 175//91
f 173//92 175//92 174//92
f 175//93 198//93 176//93
f 176//94 198//94 190//94
f 176//95 190//95 170//95
f 171//96 173//96 185//96
f 171//83 185//83 169//83
f 183//97 184//97 182//97
f 183//97 182//97 167//97
f 167//98 168//98 185//98
f 167//99 185//99 183//99
f 182//100 186//100 168//100
f 182//101 168//101 167//101
f 177//102 165//102 166//102
f 177//103 166//103 178//103
f 165//104 180//104 179//104
f 165//105 179//105 166//105
f 179//97 181//97 178//97
f 179//97 178//97 166//97
f 191//106 192//106 193//106
f 191//107 193//107 171//107
f 168//108 186//108 194//108
f 168//109 194//109 169//109
f 172//110 195//110 180//110
f 172//111 180//111 165//111
f 168//112 169//112 185//112
f 187//113 188//113 170//113
f 187//114 170//114 189//114
f 190//115 189//115 170//115
o Turret_01_havok_s_armor_8_1
v 0.371370 2.795221 -1.599467
v 0.442490 2.154617 -1.044351
v -0.442490 2.154617 -1.044351
v -0.371370 2.795221 -1.599467
v 0.436334 1.889972 -1.044351
v -0.436334 1.889972 -1.044351
v -0.371554 2.710773 -1.993471
v -0.320880 2.488814 -2.308649
v 0.320880 2.488814 -2.308649
v 0.371554 2.710773 -1.993471
v -0.271664 2.414297 -2.414668
v -0.177328 2.315556 -2.555423
v 0.177328 2.315556 -2.555423
v 0.271664 2.414297 -2.414668
v -0.096489 2.251709 -2.646101
v 0.096489 2.251709 -2.646101
v 0.000000 2.198861 -2.688066
vn -0.0000 -0.8181 0.5750
vn -0.0000 -0.8187 0.5743
vn -0.0000 -0.6219 0.7831
vn -0.0000 -0.8177 0.5757
vn -0.0000 -0.0000 -1.0000
vn -0.0000 -0.6549 -0.7557
vn -0.0000 -0.9778 0.2096
vn -0.0000 -0.8176 0.5758
s 0
f 210//116 213//116 208//116
f 210//116 208//116 207//116
f 212//117 213//117 210//117
f 212//117 210//117 211//117
f 214//118 216//118 215//118
f 214//119 215//119 212//119
f 214//119 212//119 211//119
f 201//120 204//120 205//120
f 201//120 205//120 202//120
f 202//121 203//121 200//121
f 202//121 200//121 201//121
f 206//122 209//122 200//122
f 206//122 200//122 203//122
f 208//123 209//123 206//123
f 208//123 206//123 207//123
o Hull_havok_s_armor_1_0
v 0.436014 1.297797 -2.411031
v -0.434585 1.297797 -2.411031
v -0.434585 1.021849 -3.260216
v 0.436014 1.021849 -3.260216
v -0.711582 1.297797 -2.411031
v -0.916810 1.297797 -2.411031
v -0.916810 1.021849 -3.260216
v -0.711582 1.021849 -3.260216
v -0.711582 1.686319 -2.198095
v -0.916808 1.686319 -2.198095
v 0.436014 1.684471 -2.199107
v -0.434585 1.684472 -2.199107
v 0.713012 1.297797 -2.411031
v 0.916636 1.297797 -2.411031
v 0.916634 1.686319 -2.198095
v 0.713012 1.686319 -2.198095
v 0.713012 1.021849 -3.260216
v 0.916636 1.021849 -3.260216
vn -0.0000 -0.4806 0.8769
vn -0.0000 -0.9510 0.3090
s 0
f 227//124 228//124 218//124
f 227//124 218//124 217//124
f 231//124 232//124 229//124
f 231//124 229//124 230//124
f 233//125 234//125 230//125
f 233//125 230//125 229//125
f 219//125 220//125 217//125
f 219//125 217//125 218//125
f 223//125 224//125 221//125
f 223//125 221//125 222//125
f 225//124 226//124 222//124
f 225//124 222//124 221//124
o Hull_havok_s_armor_2_1
v -0.916810 0.587143 -3.040105
v -0.916810 0.490703 -2.940162
v 0.916637 0.490703 -2.940162
v 0.916637 0.587143 -3.040105
v -0.916810 0.428347 -2.814981
v 0.916637 0.428347 -2.814981
v -0.434585 0.805365 -3.160236
v 0.436014 0.805365 -3.160236
v 0.436014 1.021849 -3.260216
v -0.434585 1.021849 -3.260216
v 0.916637 1.021849 -3.260216
v 0.713012 1.021849 -3.260216
v 0.713012 0.805365 -3.160236
v 0.916637 0.687957 -3.106012
v -0.916810 1.021849 -3.260216
v -0.916810 0.687957 -3.106012
v -0.711582 0.805365 -3.160236
v -0.711582 1.021849 -3.260216
vn -0.0000 0.4193 0.9079
vn -0.0000 0.4193 0.9078
vn -0.0000 0.5472 0.8370
vn -0.0000 0.8951 0.4459
vn -0.0000 0.7196 0.6944
s 0
f 250//126 248//126 247//126
f 250//127 247//127 242//127
f 251//126 252//126 249//126
f 251//126 249//126 250//126
f 238//128 248//128 250//128
f 238//128 250//128 235//128
f 241//126 251//126 250//126
f 241//126 250//126 242//126
f 236//129 239//129 240//129
f 236//129 240//129 237//129
f 237//130 238//130 235//130
f 237//130 235//130 236//130
f 247//126 248//126 245//126
f 247//126 245//126 246//126
f 243//126 244//126 241//126
f 243//126 241//126 242//126
o Hull_havok_s_armor_5_2
v -0.482349 1.677871 0.341743
v 0.481972 1.677871 0.341743
v 0.481972 1.684378 -0.757086
v -0.456911 1.225316 -0.130133
v 0.456533 1.225316 -0.130133
v -0.482349 1.684378 -0.757086
v 0.457475 1.684378 -0.757086
v 0.457475 1.888370 -0.757086
v -0.457853 1.888370 -0.757086
v -0.457853 1.684378 -0.757086
v -0.456440 1.233775 -1.605576
v 0.456533 1.233775 -1.605576
v -0.481878 1.683728 -1.924591
v 0.481972 1.683728 -1.924591
v 0.367026 1.684053 -1.765083
v -0.367404 1.684053 -1.765083
v -0.367404 1.891298 -1.818252
v 0.367026 1.891298 -1.818252
v -0.916810 1.680574 1.962530
v 0.916636 1.680574 1.962530
v -0.648349 1.684472 -0.757211
v -0.916808 1.686319 -2.198095
v -0.711582 1.686024 -1.984131
v 0.647776 1.684472 -0.757211
v 0.713012 1.686024 -1.984131
v 0.713012 1.686319 -2.198095
v 0.916634 1.686319 -2.198095
v 0.647776 1.888361 -0.757211
v -0.648349 1.888361 -0.757211
v -0.648785 1.685612 -1.984131
v -0.649014 1.893523 -2.620628
v 0.662088 1.686024 -1.984131
v 0.648212 1.685613 -1.984131
v 0.648441 1.893523 -2.620628
v -0.453443 1.893874 -2.747288
v -0.237622 1.894089 -2.824862
v -0.000287 1.894165 -2.852462
v 0.237048 1.894089 -2.824862
v 0.452870 1.893874 -2.747288
v -0.711582 1.686319 -2.198095
vn 0.9961 -0.0218 -0.0850
vn 0.9960 -0.0000 -0.0894
vn -0.9984 -0.0567 -0.0004
vn -0.9984 -0.0562 -0.0006
vn 0.0296 -0.9996 -0.0009
vn -0.0000 -1.0000 -0.0013
vn 0.0021 1.0000 -0.0006
vn -0.0000 1.0000 -0.0003
vn -0.0021 1.0000 -0.0006
vn -0.9961 -0.0218 -0.0850
vn -0.9960 -0.0000 -0.0894
vn -0.0000 -1.0000 -0.0028
vn -0.0066 -1.0000 -0.0009
vn -0.0000 -1.0000 -0.0014
vn -0.0000 1.0000 -0.0020
vn 0.9984 -0.0564 -0.0000
vn 0.9984 -0.0558 -0.0003
vn -0.0011 -1.0000 -0.0013
vn -0.0000 -0.7217 0.6922
vn -0.0183 -0.9998 -0.0032
vn -0.0000 -1.0000 0.0017
vn 0.0006 -1.0000 -0.0015
vn 0.0283 -0.9996 -0.0059
vn 0.0011 -1.0000 -0.0013
vn -0.0000 -1.0000 -0.0057
vn -0.0000 -0.0000 -1.0000
vn -0.0000 -0.2485 -0.9686
vn -0.0000 -0.5784 -0.8158
vn -0.0007 -0.0000 -1.0000
vn -0.0000 -0.0006 -1.0000
vn -0.9984 -0.0558 -0.0003
vn -0.0006 -1.0000 -0.0059
vn 0.0008 -0.0000 -1.0000
vn 0.0007 -0.0001 -1.0000
vn -0.0008 -0.0000 -1.0000
s 0
f 267//131 270//131 260//131
f 267//132 260//132 259//132
f 258//133 265//133 263//133
f 258//134 263//134 256//134
f 276//135 285//135 284//135
f 276//136 284//136 277//136
f 255//137 266//137 267//137
f 255//138 267//138 259//138
f 268//139 265//139 258//139
f 268//138 258//138 262//138
f 261//140 269//140 268//140
f 261//141 268//141 262//141
f 261//142 281//142 283//142
f 261//142 283//142 269//142
f 282//143 273//143 275//143
f 270//142 290//142 291//142
f 270//142 291//142 286//142
f 283//142 287//142 269//142
f 292//144 275//144 274//144
f 265//145 268//145 267//145
f 265//145 267//145 266//145
f 264//146 266//146 255//146
f 264//147 255//147 257//147
f 286//142 280//142 260//142
f 286//142 260//142 270//142
f 289//142 290//142 270//142
f 289//142 270//142 288//142
f 287//142 288//142 270//142
f 287//142 270//142 269//142
f 272//144 277//144 278//144
f 272//144 278//144 279//144
f 277//148 272//148 276//148
f 254//147 257//147 255//147
f 256//149 257//149 254//149
f 256//149 254//149 253//149
f 271//150 273//150 253//150
f 254//151 272//151 271//151
f 254//151 271//151 253//151
f 255//152 276//152 272//152
f 255//153 272//153 254//153
f 271//144 274//144 275//144
f 271//154 275//154 273//154
f 256//155 263//155 264//155
f 256//155 264//155 257//155
f 262//156 258//156 261//156
f 269//157 270//157 267//157
f 269//157 267//157 268//157
f 265//158 266//158 264//158
f 265//158 264//158 263//158
f 259//159 260//159 280//159
f 259//160 280//160 255//160
f 258//161 256//161 253//161
f 258//162 253//162 273//162
f 258//163 273//163 281//163
f 258//164 281//164 261//164
f 276//165 255//165 280//165
o Hull_havok_s_armor_3_3
v -0.916810 0.428346 2.989002
v -0.916810 1.297797 -2.411030
v -0.916807 1.686319 -2.198094
v -0.916810 1.680574 1.962530
v -0.916810 0.428346 0.990058
v -0.916810 0.428346 -2.814981
v -0.916810 0.624393 3.191009
v -0.916810 0.508064 3.124985
v -0.916810 0.758895 3.220368
v -0.916810 0.893047 3.212146
v -0.916810 0.490704 -2.940162
v -0.916810 0.587144 -3.040106
v -0.916810 0.687957 -3.106011
v -0.916810 1.021849 -3.260216
v 0.916637 0.428346 2.989002
v 0.916637 1.680574 1.962530
v 0.916633 1.686319 -2.198094
v 0.916637 1.297797 -2.411030
v 0.916637 0.428346 0.990058
v 0.916637 0.428346 -2.814981
v 0.916637 0.508064 3.124985
v 0.916637 0.624393 3.191009
v 0.916637 0.687957 -3.106011
v 0.916637 0.587144 -3.040106
v 0.916637 0.490704 -2.940162
v 0.916637 1.021849 -3.260216
v 0.916637 0.758895 3.220368
v 0.916637 0.893047 3.212146
v 0.916637 1.168110 3.137789
v 0.916637 1.499405 3.101481
v 0.916637 1.189986 3.366517
v 0.916637 1.373023 3.298841
v 0.916637 1.454518 3.218917
v -0.916810 1.499405 3.101481
v -0.916810 1.168110 3.137789
v -0.916810 1.373023 3.298841
v -0.916810 1.189986 3.366517
v -0.916810 1.454518 3.218917
vn -1.0000 -0.0000 -0.0000
vn 1.0000 -0.0000 -0.0000
s 0
f 319//166 320//166 308//166
f 319//166 308//166 314//166
f 308//166 320//166 321//166
f 308//166 321//166 322//166
f 318//166 315//166 310//166
f 316//166 317//166 310//166
f 316//166 310//166 315//166
f 317//166 312//166 310//166
f 327//167 330//167 328//167
f 327//167 328//167 329//167
f 330//167 327//167 326//167
f 327//167 302//167 296//167
f 327//167 296//167 326//167
f 324//166 325//166 321//166
f 324//166 321//166 323//166
f 325//166 322//166 321//166
f 296//167 302//167 301//167
f 296//167 301//167 299//167
f 304//167 305//167 294//167
f 304//167 294//167 303//167
f 296//167 299//167 300//167
f 296//167 300//167 293//167
f 295//167 296//167 293//167
f 295//167 293//167 294//167
f 297//167 298//167 294//167
f 297//167 294//167 293//167
f 311//166 307//166 310//166
f 311//166 310//166 312//166
f 313//166 314//166 308//166
f 313//166 308//166 307//166
f 309//166 310//166 307//166
f 309//166 307//166 308//166
f 303//167 294//167 298//167
f 306//167 294//167 305//167
o Hull_havok_s_armor_4_4
v -0.916810 0.624393 3.191010
v 0.916637 0.624393 3.191010
v 0.916637 0.508064 3.124986
v -0.916810 0.508064 3.124986
v -0.916810 0.758895 3.220368
v 0.916637 0.758895 3.220368
v 0.916637 0.428346 2.989002
v -0.916810 0.428346 2.989002
v 0.916637 1.454518 3.218918
v -0.916810 1.454518 3.218918
v -0.916810 1.499405 3.101481
v 0.916637 1.499405 3.101481
v 0.916637 1.373023 3.298842
v -0.916810 1.373023 3.298842
v 0.916637 1.189986 3.366517
v -0.916810 1.189986 3.366517
v -0.916810 0.893047 3.212145
v -0.916810 1.168110 3.137790
v 0.916637 1.168110 3.137790
v 0.916637 0.893047 3.212145
vn -0.0000 -0.3468 -0.9379
vn -0.0000 -0.7002 -0.7140
vn -0.0000 -0.0612 -0.9981
vn -0.0000 -0.2610 -0.9654
vn -0.0000 0.2132 -0.9770
vn -0.0000 0.2133 -0.9770
vn -0.0000 0.4936 -0.8697
vn -0.0000 -0.9341 -0.3570
vn -0.0000 0.8627 -0.5057
s 0
f 345//168 346//168 344//168
f 345//168 344//168 343//168
f 339//169 343//169 344//169
f 339//169 344//169 340//169
f 347//170 350//170 336//170
f 347//170 336//170 335//170
f 349//171 350//171 347//171
f 349//171 347//171 348//171
f 335//172 336//172 332//172
f 335//173 332//173 331//173
f 333//174 334//174 331//174
f 333//174 331//174 332//174
f 341//175 342//175 339//175
f 341//175 339//175 340//175
f 337//176 338//176 334//176
f 337//176 334//176 333//176
o Hull_havok_s_armor_6_5
v -0.916810 1.189986 3.366517
v 0.916637 1.189986 3.366517
v 0.916637 1.168110 3.137790
v -0.916810 1.168110 3.137790
v 0.916637 0.428346 0.990058
v 0.916637 0.428347 -2.814981
v -0.916810 0.428347 -2.814981
v -0.916810 0.428346 0.990058
v -0.434585 1.684472 -2.199106
v 0.436014 1.684471 -2.199108
v 0.237048 1.686885 -2.825436
v -0.000287 1.686961 -2.853036
v 0.436014 1.686611 -2.753346
v -0.237622 1.686885 -2.825436
v -0.434585 1.686611 -2.754066
vn -0.0000 1.0000 0.0039
vn 0.0001 1.0000 0.0039
vn -0.0001 1.0000 0.0037
vn -0.0000 0.9955 -0.0952
vn -0.0000 1.0000 -0.0000
s 0
f 361//177 360//177 363//177
f 364//177 365//177 359//177
f 364//178 359//178 362//178
f 361//179 362//179 359//179
f 361//177 359//177 360//177
f 353//180 354//180 351//180
f 353//180 351//180 352//180
f 357//181 358//181 355//181
f 357//181 355//181 356//181
o Hull_havok_s_armor_9_6
v 0.713012 1.012635 -3.301760
v 0.436027 1.012635 -3.301760
v 0.436027 0.775584 -3.207736
v 0.713012 0.775584 -3.207736
v -0.434597 0.775584 -3.207736
v -0.711582 0.775584 -3.207736
v -0.434597 1.012635 -3.301760
v -0.711582 1.012635 -3.301760
v -0.434597 1.060492 -3.288880
v -0.711582 1.060492 -3.288880
v -0.434597 1.685324 -2.933391
v -0.434597 1.668328 -2.966879
v -0.711582 1.668328 -2.966879
v -0.711582 1.685324 -2.933391
v -0.711582 1.691138 -1.984131
v 0.436027 1.060492 -3.288880
v 0.436027 1.685324 -2.933391
v 0.713012 1.668328 -2.966879
v 0.436027 1.668328 -2.966879
v 0.713012 1.060492 -3.288880
v 0.713012 1.685324 -2.933391
v 0.713012 1.691138 -1.984131
v 0.713012 0.805365 -3.160235
v 0.713012 1.021849 -3.260216
v 0.436014 1.021849 -3.260216
v 0.436014 0.805365 -3.160235
v -0.434585 0.805365 -3.160235
v -0.711582 0.805365 -3.160235
v -0.434585 1.021849 -3.260216
v -0.711582 1.021849 -3.260216
v -0.434585 1.297797 -2.411031
v -0.434585 1.686612 -2.754066
v -0.711582 1.297797 -2.411031
v -0.711582 1.686319 -2.198095
v -0.434585 1.684472 -2.199107
v -0.453444 1.686670 -2.747862
v -0.649014 1.687298 -2.621200
v -0.648786 1.691138 -1.984131
v -0.711582 1.686024 -1.984131
v -0.648785 1.685613 -1.984131
v 0.436014 1.684471 -2.199107
v 0.436014 1.297797 -2.411031
v 0.436014 1.686612 -2.753346
v 0.713012 1.297797 -2.411031
v 0.713012 1.686319 -2.198095
v 0.648441 1.687298 -2.621200
v 0.452870 1.686670 -2.747862
v 0.713012 1.686024 -1.984131
v 0.662088 1.686024 -1.984131
v 0.648212 1.691138 -1.984131
vn 1.0000 -0.0000 -0.0000
vn 1.0000 -0.0001 0.0001
vn 1.0000 -0.0001 0.0003
vn -0.0000 -0.2599 0.9656
vn -0.0000 -0.4681 0.8837
vn -0.0000 -1.0000 0.0060
vn 0.0010 -1.0000 0.0061
vn -0.0007 -1.0000 0.0072
vn -0.0000 -0.0000 -1.0000
vn -0.0000 0.0001 -1.0000
vn -1.0000 -0.0000 -0.0000
vn -0.0000 -0.8917 0.4526
vn -0.0010 -1.0000 0.0061
vn 0.0008 -1.0000 0.0083
vn -0.0000 -1.0000 0.0072
vn -0.0008 -1.0000 0.0062
vn -1.0000 0.0001 0.0003
vn -1.0000 0.0001 0.0002
vn -0.0000 0.3687 0.9295
vn -0.0000 0.8472 -0.5312
vn 1.0000 0.0001 0.0002
vn 1.0000 0.0001 0.0003
vn -1.0000 -0.0001 0.0003
vn 0.0008 -1.0000 0.0062
vn -0.0000 -1.0000 0.0073
vn -1.0000 -0.0001 0.0001
vn -1.0000 -0.0001 0.0002
s 0
f 408//182 407//182 390//182
f 408//183 390//183 382//183
f 381//184 390//184 367//184
f 366//185 385//185 381//185
f 366//185 381//185 367//185
f 381//186 385//186 383//186
f 381//186 383//186 384//186
f 406//182 407//182 408//182
f 402//187 403//187 380//187
f 402//188 380//188 379//188
f 376//189 397//189 401//189
f 403//190 405//190 404//190
f 403//191 404//191 380//191
f 399//182 379//182 380//182
f 399//182 380//182 404//182
f 384//182 382//182 390//182
f 384//184 390//184 381//184
f 387//192 386//192 410//192
f 387//192 410//192 413//192
f 384//193 383//193 386//193
f 384//193 386//193 382//193
f 387//187 415//187 411//187
f 387//194 411//194 386//194
f 414//190 415//190 387//190
f 414//190 387//190 413//190
f 386//195 412//195 408//195
f 386//196 408//196 382//196
f 385//192 366//192 389//192
f 385//192 389//192 409//192
f 409//192 383//192 385//192
f 411//197 412//197 386//197
f 386//192 383//192 409//192
f 386//192 409//192 410//192
f 373//182 395//182 393//182
f 373//182 393//182 371//182
f 392//198 394//198 372//198
f 392//199 372//199 370//199
f 372//185 374//185 375//185
f 372//185 375//185 373//185
f 372//200 373//200 371//200
f 372//200 371//200 370//200
f 391//201 388//201 369//201
f 391//201 369//201 368//201
f 388//192 389//192 366//192
f 388//192 366//192 369//192
f 368//200 369//200 366//200
f 368//200 366//200 367//200
f 371//201 393//201 392//201
f 371//201 392//201 370//201
f 390//202 391//202 368//202
f 390//203 368//203 367//203
f 374//204 372//204 394//204
f 400//192 397//192 396//192
f 398//182 378//182 379//182
f 398//182 379//182 399//182
f 376//193 379//193 378//193
f 376//193 378//193 377//193
f 401//205 402//205 379//205
f 401//206 379//206 376//206
f 395//182 373//182 375//182
f 395//182 375//182 398//182
f 377//186 378//186 375//186
f 377//186 375//186 374//186
f 394//192 396//192 397//192
f 394//207 397//207 376//207
f 378//182 398//182 375//182
f 394//192 376//192 377//192
f 394//208 377//208 374//208
o Hull_havok_s_armor_7_7
v -1.494461 2.935823 -1.928727
v 1.491639 2.935826 -1.946878
v -0.519312 3.225832 -1.679012
v -1.623836 3.222396 -1.678003
v -0.519312 2.936837 -1.928995
v -0.759683 2.656966 -2.016382
v -0.519312 2.656966 -2.016382
v -1.629357 1.892467 -2.092100
v -1.494615 1.936371 -2.231481
v -0.870304 2.076034 -2.191915
v -0.759938 2.076054 -2.191910
v -1.489027 1.582017 -2.338686
v -0.870947 1.582017 -2.338686
v 1.626629 1.892454 -2.092059
v 1.621024 3.222412 -1.696163
v 1.491868 1.936365 -2.231460
v 0.520909 3.225832 -1.697120
v 0.521926 2.936838 -1.947122
v 0.734129 2.128572 -2.176040
v 0.763116 2.093335 -2.186688
v 0.734131 2.335387 -2.113550
v 0.663203 2.335387 -2.113550
v 0.663203 2.492301 -2.066137
v 0.521926 2.519379 -2.057956
v 0.593756 2.519379 -2.057956
v 0.605362 2.492301 -2.066137
v 0.881858 2.000762 -2.214659
v 0.881855 1.582017 -2.338686
v 1.486262 1.582017 -2.338686
v 0.763293 2.000804 -2.214647
vn -0.0000 -0.2566 0.9665
vn -0.0005 -0.2567 0.9665
vn 0.0170 -0.2892 0.9571
vn -0.0000 -0.2675 0.9636
vn 0.0186 -0.2892 0.9571
vn 0.0100 -0.2817 0.9594
vn 0.0131 -0.2841 0.9587
vn -0.0000 -0.2597 0.9657
vn -0.0000 -0.2892 0.9573
vn -0.0000 -0.2896 0.9571
vn -0.0036 -0.2840 0.9588
vn 0.0078 -0.2800 0.9600
vn -0.0024 -0.2739 0.9618
vn -0.0009 -0.6542 0.7563
vn -0.0027 -0.6577 0.7532
vn 0.7627 -0.1952 0.6166
vn 0.7352 -0.1966 0.6488
vn -0.0000 -0.2980 0.9546
vn 0.0006 -0.2985 0.9544
vn 0.0009 -0.6542 0.7563
vn 0.0027 -0.6578 0.7532
vn 0.0042 -0.2900 0.9570
vn 0.0041 -0.2899 0.9570
vn -0.7714 -0.1845 0.6090
vn -0.7351 -0.1858 0.6520
vn -0.0000 -0.2896 0.9572
vn 0.0030 -0.2848 0.9586
s 0
f 433//209 439//209 440//209
f 433//210 440//210 417//210
f 417//211 438//211 437//211
f 417//212 437//212 436//212
f 417//213 436//213 434//213
f 417//214 434//214 435//214
f 417//215 440//215 441//215
f 417//216 441//216 438//216
f 445//217 442//217 435//217
f 443//218 444//218 431//218
f 443//219 431//219 442//219
f 417//220 435//220 442//220
f 417//221 442//221 431//221
f 432//222 433//222 417//222
f 432//223 417//223 430//223
f 416//224 419//224 423//224
f 416//225 423//225 424//225
f 421//226 422//226 420//226
f 421//227 420//227 416//227
f 416//228 420//228 418//228
f 416//229 418//229 419//229
f 424//230 425//230 421//230
f 424//231 421//231 416//231
f 429//232 430//232 417//232
f 429//233 417//233 431//233
f 424//234 427//234 428//234
f 424//235 428//235 425//235
f 426//217 421//217 425//217
o Hull_havok_s_armor_10_8
v -0.648349 1.684472 -0.757211
v -0.648786 1.691138 -1.984132
v -0.649014 1.893523 -2.620628
v -0.648349 1.888361 -0.757211
v -0.648786 1.685612 -1.984132
v -0.649014 1.687298 -2.621199
v -0.453444 1.686670 -2.747862
v -0.453444 1.893874 -2.747288
v 0.648441 1.893523 -2.620628
v 0.648212 1.691138 -1.984131
v 0.647776 1.684472 -0.757211
v 0.647776 1.888361 -0.757211
v 0.648212 1.685613 -1.984131
v 0.648441 1.687298 -2.621199
v -0.237621 1.686885 -2.825435
v -0.000287 1.686961 -2.853036
v -0.000287 1.894165 -2.852462
v -0.237621 1.894089 -2.824861
v 0.237048 1.894089 -2.824861
v 0.237048 1.686885 -2.825435
v -0.434585 1.686612 -2.754066
v 0.452869 1.893874 -2.747288
v 0.452869 1.686670 -2.747862
v 0.436014 1.686611 -2.753346
vn 0.3407 0.0002 0.9402
vn 0.3382 -0.0026 0.9411
vn -0.1155 -0.0028 0.9933
vn 0.1155 -0.0028 0.9933
vn 0.3125 -0.0026 0.9499
vn -0.3407 -0.0026 0.9402
vn -0.3093 0.0309 0.9504
vn -0.3382 -0.0026 0.9411
vn -0.5436 -0.0023 0.8393
vn 1.0000 -0.0000 -0.0004
vn 1.0000 0.0001 -0.0004
vn 0.5436 -0.0023 0.8393
vn -1.0000 -0.0000 -0.0004
s 0
f 453//236 466//236 460//236
f 453//237 460//237 463//237
f 461//238 465//238 464//238
f 461//238 464//238 462//238
f 462//239 463//239 460//239
f 462//239 460//239 461//239
f 452//240 466//240 453//240
f 469//241 464//241 465//241
f 464//242 469//242 468//242
f 464//243 468//243 467//243
f 467//244 468//244 459//244
f 467//244 459//244 454//244
f 451//245 448//245 447//245
f 450//246 447//246 446//246
f 448//245 449//245 446//245
f 448//245 446//245 447//245
f 451//247 452//247 453//247
f 451//247 453//247 448//247
f 459//248 455//248 454//248
f 458//248 456//248 455//248
f 456//248 457//248 454//248
f 456//248 454//248 455//248
o Hull_havok_s_armor_8_9
v -0.759683 2.656966 -2.016382
v -0.759938 2.076054 -2.191910
v 0.663203 2.335387 -2.113550
v 0.734130 2.335387 -2.113550
v 0.734130 2.128572 -2.176040
v 0.763116 2.093335 -2.186688
v 0.763292 2.000804 -2.214647
v -0.870947 1.582017 -2.338686
v -0.870304 2.076034 -2.191915
v 0.881858 2.000762 -2.214659
v 0.881855 1.582017 -2.338686
v -0.519312 2.656966 -2.016382
v 0.521926 2.519379 -2.057956
v 0.663203 2.492301 -2.066137
v 0.605361 2.492301 -2.066137
v 0.593756 2.519379 -2.057956
v 0.521926 2.936838 -1.947122
v -0.519312 2.936837 -1.928995
v 0.520909 3.225832 -1.697120
v -0.519312 3.225832 -1.679012
vn -0.0000 -0.2892 0.9573
vn 0.0132 -0.6542 0.7562
vn 0.0047 -0.2566 0.9665
vn 0.0166 -0.2980 0.9544
vn -0.0000 -0.2893 0.9573
vn -0.0000 -0.2840 0.9588
vn -0.0000 -0.2848 0.9586
vn 0.0002 -0.2848 0.9586
s 0
f 484//249 482//249 472//249
f 484//249 472//249 483//249
f 472//249 482//249 481//249
f 472//249 481//249 470//249
f 484//249 485//249 482//249
f 488//250 489//250 487//250
f 488//250 487//250 486//250
f 481//251 482//251 486//251
f 481//252 486//252 487//252
f 473//249 472//249 471//249
f 473//249 471//249 474//249
f 470//249 471//249 472//249
f 471//249 476//249 475//249
f 471//253 475//253 474//253
f 479//254 476//254 477//254
f 479//254 477//254 480//254
f 471//255 478//255 477//255
f 471//256 477//256 476//256
o Hull_havok_s_armor_12_10
v -0.916810 1.499405 3.101481
v -0.916810 1.680575 1.962530
v 0.916637 1.680575 1.962530
v 0.916637 1.499405 3.101481
v 0.916637 0.428346 0.990059
v -0.916810 0.428346 0.990059
v -0.916810 0.428346 2.989002
v 0.916637 0.428346 2.989002
vn -0.0000 1.0000 -0.0000
vn -0.0000 -0.9876 -0.1571
s 0
f 496//257 497//257 494//257
f 496//257 494//257 495//257
f 492//258 493//258 490//258
f 492//258 490//258 491//258
o Gun_01_havok_s_gunBreech_0
v -0.305000 2.224186 -0.442369
v -0.305000 3.365119 -0.442369
v 0.305000 3.365119 -0.442369
v 0.305000 2.224186 -0.442369
v -0.305000 3.365119 -0.768572
v 0.305000 3.365119 -0.768572
v -0.122328 3.113189 -0.768572
v -0.122328 3.357316 -0.768572
v 0.122328 3.357316 -0.768572
v -0.305000 2.224186 -0.768572
v 0.305000 2.224186 -0.768572
v 0.122328 3.113189 -0.768572
v -0.285928 2.530181 -0.768892
v -0.285928 3.102041 -0.768892
v 0.285928 3.102041 -0.768892
v 0.285928 2.530181 -0.768892
v -0.285932 2.530136 -1.760440
v 0.285932 2.530136 -1.760440
v 0.285932 3.102000 -1.591752
v -0.285932 3.102000 -1.591752
v 0.122204 3.113087 -1.588482
v -0.122204 3.113087 -1.588482
v -0.122204 3.357494 -1.516387
v 0.122204 3.357495 -1.516387
vn -1.0000 -0.0000 -0.0000
vn 1.0000 -0.0000 -0.0000
vn -0.0000 -0.0000 -1.0000
vn -0.0000 1.0000 -0.0000
vn -0.0000 -1.0000 0.0001
vn -1.0000 -0.0000 0.0002
vn -0.0000 -1.0000 -0.0002
vn -0.0000 1.0000 -0.0001
vn 1.0000 -0.0000 0.0002
vn -0.0000 -0.0000 1.0000
vn -0.0000 -1.0000 -0.0000
s 0
f 516//259 515//259 513//259
f 516//259 513//259 512//259
f 510//260 514//260 517//260
f 510//260 517//260 511//260
f 512//261 513//261 510//261
f 512//261 510//261 511//261
f 513//262 515//262 514//262
f 513//262 514//262 510//262
f 517//263 516//263 512//263
f 517//263 512//263 511//263
f 521//264 518//264 509//264
f 521//264 509//264 506//264
f 520//265 521//265 506//265
f 520//265 506//265 505//265
f 518//266 519//266 504//266
f 518//266 504//266 509//266
f 504//267 519//267 520//267
f 504//267 520//267 505//267
f 506//268 509//268 508//268
f 506//268 508//268 503//268
f 504//268 505//268 502//268
f 505//268 506//268 503//268
f 505//268 503//268 502//268
f 500//261 501//261 498//261
f 500//261 498//261 499//261
f 499//269 502//269 503//269
f 499//269 503//269 500//269
f 498//260 507//260 502//260
f 498//260 502//260 499//260
f 508//268 504//268 502//268
f 508//268 502//268 507//268
f 504//268 508//268 509//268
f 503//259 508//259 501//259
f 503//259 501//259 500//259
f 501//262 508//262 507//262
f 501//262 507//262 498//262
o Gun_01_havok_s_gun_1
v 0.219163 3.053146 -3.346570
v 0.219163 2.579042 -3.346570
v 0.219163 2.579042 -2.636182
v 0.219163 3.053146 -2.636182
v -0.219163 2.579042 -2.636182
v -0.219163 2.579042 -3.346570
v -0.219163 3.053146 -2.636182
v -0.219163 3.053146 -3.346570
v -0.171671 2.644519 -3.346570
v 0.171671 2.644519 -3.346570
v 0.171671 2.987669 -3.346570
v -0.171671 2.987669 -3.346570
v 0.122223 3.112965 -2.796749
v 0.122223 3.357494 -2.796749
v -0.122223 3.357494 -2.796749
v -0.122223 3.112965 -2.796749
v -0.157423 2.973522 -4.334302
v 0.157423 2.973522 -4.334302
v 0.142896 2.958972 -4.334302
v 0.142896 2.673216 -4.334302
v 0.157423 2.658665 -4.334302
v -0.142896 2.958972 -4.334302
v -0.157423 2.658665 -4.334302
v 0.285932 2.530136 -2.636182
v -0.285932 2.530136 -2.636182
v 0.285932 3.102052 -2.636182
v -0.285932 3.102052 -2.636182
v -0.142896 2.673216 -4.334302
v 0.119709 2.696254 -7.472662
v -0.119709 2.696254 -7.472662
v -0.119709 2.935934 -7.472662
v 0.119709 2.935934 -7.472662
v -0.126413 2.942400 -7.501857
v -0.126413 2.689787 -7.501857
v -0.126413 2.689787 -7.613767
v -0.126413 2.942400 -7.613767
v 0.126414 2.942400 -7.613767
v 0.126414 2.689787 -7.613767
v 0.126414 2.689787 -7.501857
v 0.126414 2.942400 -7.501857
v -0.285932 2.530136 -1.760440
v 0.285932 2.530136 -1.760440
v 0.285932 3.102000 -1.591752
v -0.285932 3.102000 -1.591752
v 0.122204 3.113087 -1.588481
v 0.122204 3.357495 -1.516387
v -0.122204 3.357494 -1.516387
v -0.122204 3.113087 -1.588481
vn -0.0000 1.0000 0.0073
vn -0.0000 -1.0000 -0.0000
vn -0.0000 -1.0000 0.0073
vn -1.0000 -0.0000 0.0074
vn 1.0000 -0.0000 0.0074
vn -1.0000 -0.0000 -0.0000
vn 1.0000 -0.0000 -0.0000
vn -0.0000 1.0000 -0.0001
vn -0.0000 -0.0000 1.0000
vn -0.0000 -0.9763 -0.2163
vn -0.0000 0.0001 1.0000
vn 0.9746 -0.0000 -0.2238
vn -0.9746 -0.0000 -0.2238
vn -0.0000 0.9763 -0.2163
vn -0.0000 1.0000 -0.0000
vn -0.0000 -0.9999 0.0143
vn 0.9999 -0.0000 0.0144
vn -0.0000 -0.0001 1.0000
vn -0.9999 -0.0000 0.0144
vn -0.0000 0.9999 0.0143
s 0
f 550//270 551//270 549//270
f 550//270 549//270 541//270
f 547//271 564//271 565//271
f 547//271 565//271 548//271
f 552//272 553//272 540//272
f 552//272 540//272 543//272
f 553//273 550//273 541//273
f 553//273 541//273 540//273
f 551//274 552//274 543//274
f 551//274 543//274 549//274
f 566//275 567//275 535//275
f 566//275 535//275 534//275
f 548//276 565//276 562//276
f 548//276 562//276 546//276
f 567//271 568//271 536//271
f 567//271 536//271 535//271
f 569//277 566//277 534//277
f 569//277 534//277 537//277
f 536//276 568//276 569//276
f 536//276 569//276 537//276
f 556//276 557//276 554//276
f 556//276 554//276 555//276
f 557//271 558//271 561//271
f 557//271 561//271 554//271
f 559//278 558//278 557//278
f 559//278 557//278 556//278
f 554//279 561//279 553//279
f 554//279 553//279 552//279
f 549//278 544//278 542//278
f 549//280 542//280 541//280
f 538//278 544//278 549//278
f 538//278 549//278 543//278
f 560//275 561//275 558//275
f 560//275 558//275 559//275
f 555//281 554//281 552//281
f 555//281 552//281 551//281
f 561//282 560//282 550//282
f 561//282 550//282 553//282
f 560//283 555//283 551//283
f 560//283 551//283 550//283
f 555//284 560//284 559//284
f 555//284 559//284 556//284
f 533//278 532//278 522//278
f 533//278 522//278 529//278
f 530//278 533//278 529//278
f 530//278 529//278 527//278
f 525//271 528//271 529//271
f 525//271 529//271 522//271
f 538//285 539//285 532//285
f 538//285 532//285 533//285
f 536//278 537//278 534//278
f 536//278 534//278 535//278
f 523//284 527//284 526//284
f 523//284 526//284 524//284
f 524//275 525//275 522//275
f 524//275 522//275 523//275
f 527//276 529//276 528//276
f 527//276 528//276 526//276
f 522//278 532//278 531//278
f 522//278 531//278 523//278
f 523//278 531//278 530//278
f 523//278 530//278 527//278
f 540//278 541//278 542//278
f 540//278 542//278 539//278
f 526//278 546//278 545//278
f 526//278 545//278 524//278
f 545//278 547//278 525//278
f 545//278 525//278 524//278
f 547//278 548//278 528//278
f 547//278 528//278 525//278
f 563//275 564//275 547//275
f 563//275 547//275 545//275
f 548//278 546//278 526//278
f 548//278 526//278 528//278
f 544//286 538//286 533//286
f 544//286 533//286 530//286
f 543//287 540//287 539//287
f 543//278 539//278 538//278
f 539//288 542//288 531//288
f 539//288 531//288 532//288
f 562//284 563//284 545//284
f 562//284 545//284 546//284
f 542//289 544//289 530//289
f 542//289 530//289 531//289
