# Blender 5.1.0
# www.blender.org
o Chassis_havok_s_leftTrack_0
v -0.923739 0.396652 2.442421
v -0.923739 0.840085 2.868245
v -0.923739 0.982118 2.718631
v -0.923739 0.907009 2.102913
v -1.473464 0.982118 2.718631
v -1.473464 0.907009 2.102913
v -1.473464 0.334543 2.897017
v -1.473464 -0.003448 1.895755
v -0.923739 0.334543 2.897017
v -0.923739 -0.003448 1.895755
v -0.923739 0.314803 2.661088
v -0.704299 0.314803 2.661088
v -0.704299 0.396652 2.442421
v -0.923739 0.847307 2.954561
v -1.473464 0.847307 2.954561
v -1.473464 0.561796 3.029368
v -0.923739 0.561796 3.029368
v -0.704299 0.840085 2.868245
v -0.704299 0.629202 2.966069
v -0.704299 0.409171 2.879754
v -0.923739 0.629202 2.966069
v -0.923739 0.409171 2.879754
v -1.473464 0.911343 -1.873363
v -1.473464 -0.003448 -1.999960
v -0.923739 0.911343 -1.873363
v -0.923739 -0.003448 -1.999960
v -1.473464 0.449133 -2.776801
v -0.923739 0.449133 -2.776801
v -1.473464 0.919528 -2.690485
v -0.923739 0.919528 -2.690485
v -1.473464 0.674460 -2.857362
v -0.923739 0.674460 -2.857362
vn -0.0000 1.0000 -0.0000
vn -0.0000 -1.0000 -0.0011
vn -1.0000 -0.0000 -0.0000
vn 1.0000 -0.0000 -0.0000
vn -0.0000 0.3367 0.9416
vn -0.0000 -0.5628 0.8266
vn -0.0000 0.8641 0.5034
vn -0.0000 -0.9999 -0.0100
vn -0.0000 0.9365 0.3506
vn -0.0000 -0.8683 -0.4961
vn -0.0000 -0.9926 0.1211
vn -0.0000 0.9475 -0.3198
vn -0.0000 -0.4208 -0.9071
vn -0.0000 -0.4208 -0.9072
vn -0.0000 0.9181 -0.3962
vn -0.0000 0.3652 -0.9309
vn -0.0000 -0.2535 -0.9673
vn -0.0000 0.5033 -0.8641
vn -0.0000 -0.6926 0.7213
s 0
f 10//1 26//1 24//1
f 10//1 24//1 8//1
f 6//2 23//2 25//2
f 6//2 25//2 4//2
f 10//3 1//3 4//3
f 25//3 26//3 10//3
f 25//3 10//3 4//3
f 21//3 22//3 9//3
f 21//3 9//3 17//3
f 21//3 17//3 14//3
f 21//3 14//3 2//3
f 8//4 24//4 23//4
f 8//4 23//4 6//4
f 3//3 2//3 14//3
f 32//3 28//3 30//3
f 28//5 32//5 31//5
f 28//5 31//5 27//5
f 29//6 31//6 32//6
f 29//6 32//6 30//6
f 31//4 29//4 27//4
f 27//4 29//4 23//4
f 27//4 23//4 24//4
f 26//7 28//7 27//7
f 26//7 27//7 24//7
f 23//8 29//8 30//8
f 23//8 30//8 25//8
f 25//3 30//3 28//3
f 25//3 28//3 26//3
f 22//3 11//3 9//3
f 11//9 12//9 13//9
f 11//9 13//9 1//9
f 11//3 1//3 10//3
f 11//3 10//3 9//3
f 5//4 15//4 16//4
f 5//4 16//4 7//4
f 3//10 14//10 15//10
f 3//10 15//10 5//10
f 5//11 6//11 4//11
f 5//11 4//11 3//11
f 3//3 4//3 1//3
f 3//3 1//3 2//3
f 9//12 10//12 8//12
f 9//12 8//12 7//12
f 7//4 8//4 6//4
f 7//4 6//4 5//4
f 19//13 21//13 2//13
f 19//14 2//14 18//14
f 12//3 20//3 19//3
f 12//3 19//3 18//3
f 22//15 20//15 12//15
f 22//15 12//15 11//15
f 20//16 22//16 21//16
f 20//16 21//16 19//16
f 14//17 17//17 16//17
f 14//17 16//17 15//17
f 7//18 16//18 17//18
f 7//18 17//18 9//18
f 13//3 12//3 18//3
f 1//19 13//19 18//19
f 1//19 18//19 2//19
o Chassis_havok_s_rightTrack_1
v 0.922772 0.982118 2.718631
v 0.922772 0.840085 2.868245
v 0.922772 0.396652 2.442421
v 0.922772 0.907009 2.102913
v 1.472708 0.982118 2.718631
v 1.472708 0.907009 2.102913
v 1.472708 0.334543 2.897017
v 1.472708 -0.003448 1.895755
v 0.922772 0.334543 2.897017
v 0.922772 -0.003448 1.895755
v 0.922772 0.314803 2.661088
v 0.704299 0.396652 2.442421
v 0.704299 0.314803 2.661088
v 1.472708 0.847307 2.954561
v 0.922772 0.847307 2.954561
v 1.472708 0.561796 3.029368
v 0.922772 0.561796 3.029368
v 0.704299 0.840085 2.868245
v 0.704299 0.629202 2.966069
v 0.704299 0.409171 2.879754
v 0.922772 0.629202 2.966069
v 0.922772 0.409171 2.879754
v 1.472708 0.911343 -1.873363
v 1.472708 -0.003448 -1.999960
v 0.922772 0.911343 -1.873363
v 0.922772 -0.003448 -1.999960
v 1.472708 0.449133 -2.776801
v 0.922772 0.449133 -2.776801
v 1.472708 0.919528 -2.690485
v 0.922772 0.919528 -2.690485
v 1.472708 0.674460 -2.857362
v 0.922772 0.674460 -2.857362
vn -0.0000 1.0000 -0.0000
vn -0.0000 -1.0000 -0.0011
vn 1.0000 -0.0000 -0.0000
vn -1.0000 -0.0000 -0.0000
vn -0.0000 0.3367 0.9416
vn -0.0000 -0.5628 0.8266
vn -0.0000 0.8641 0.5034
vn -0.0000 -0.9999 -0.0100
vn -0.0000 0.9365 0.3506
vn -0.0000 -0.8683 -0.4961
vn -0.0000 -0.9926 0.1211
vn -0.0000 0.9475 -0.3198
vn -0.0000 -0.4208 -0.9072
vn -0.0000 -0.4208 -0.9071
vn -0.0000 0.9181 -0.3962
vn -0.0000 0.3652 -0.9309
vn -0.0000 -0.2535 -0.9673
vn -0.0000 0.5033 -0.8641
vn -0.0000 -0.6926 0.7213
s 0
f 56//20 58//20 42//20
f 56//20 42//20 40//20
f 57//21 55//21 38//21
f 57//21 38//21 36//21
f 42//22 36//22 35//22
f 42//22 58//22 57//22
f 42//22 57//22 36//22
f 41//22 54//22 53//22
f 41//22 53//22 49//22
f 47//22 49//22 53//22
f 47//22 53//22 34//22
f 55//23 56//23 40//23
f 55//23 40//23 38//23
f 33//22 47//22 34//22
f 64//22 62//22 60//22
f 63//24 64//24 60//24
f 63//24 60//24 59//24
f 64//25 63//25 61//25
f 64//25 61//25 62//25
f 63//23 59//23 61//23
f 55//23 61//23 59//23
f 55//23 59//23 56//23
f 59//26 60//26 58//26
f 59//26 58//26 56//26
f 62//27 61//27 55//27
f 62//27 55//27 57//27
f 60//22 62//22 57//22
f 60//22 57//22 58//22
f 41//22 43//22 54//22
f 44//28 45//28 43//28
f 44//28 43//28 35//28
f 42//22 35//22 43//22
f 42//22 43//22 41//22
f 48//23 46//23 37//23
f 48//23 37//23 39//23
f 46//29 47//29 33//29
f 46//29 33//29 37//29
f 36//30 38//30 37//30
f 36//30 37//30 33//30
f 35//22 36//22 33//22
f 35//22 33//22 34//22
f 40//31 42//31 41//31
f 40//31 41//31 39//31
f 38//23 40//23 39//23
f 38//23 39//23 37//23
f 34//32 53//32 51//32
f 34//33 51//33 50//33
f 51//22 52//22 45//22
f 51//22 45//22 50//22
f 45//34 52//34 54//34
f 45//34 54//34 43//34
f 53//35 54//35 52//35
f 53//35 52//35 51//35
f 48//36 49//36 47//36
f 48//36 47//36 46//36
f 49//37 48//37 39//37
f 49//37 39//37 41//37
f 44//22 50//22 45//22
f 50//38 44//38 35//38
f 50//38 35//38 34//38
o Turret_01_havok_s_armor_1_0
v 0.130754 1.547934 -2.076760
v 0.173754 1.580952 -2.151760
v 0.216754 1.547934 -2.076760
vn -0.0000 -0.9152 -0.4029
s 0
f 65//39 66//39 67//39
o Hull_havok_s_armor_7_0
v -0.758455 1.462417 -1.985586
v -0.758455 1.509049 -1.929546
v -0.845834 1.640915 -1.777618
v -0.843779 1.247288 -2.238743
v -0.373721 1.462417 -1.985586
v -0.288396 1.247288 -2.238743
v -0.286342 1.640915 -1.777618
v -0.373721 1.509049 -1.929546
v -0.774435 1.203335 -2.289747
v -0.360439 1.203335 -2.289747
v -0.588285 1.462417 -1.985586
v -0.543891 1.462417 -1.985586
v -0.588285 1.509049 -1.929546
v -0.543891 1.509049 -1.929546
vn -0.0000 -0.7552 0.6555
vn 0.0052 -0.7611 0.6486
vn -0.0000 -0.7687 0.6396
vn -0.0000 -0.7613 0.6484
vn 0.0479 -0.7678 0.6389
vn 0.0085 -0.7606 0.6492
vn -0.0085 -0.7606 0.6492
vn -0.0479 -0.7678 0.6389
vn -0.0038 -0.7601 0.6498
vn -0.0000 -0.7620 0.6476
s 0
f 69//40 80//40 74//40
f 69//40 74//40 70//40
f 72//41 77//41 73//41
f 79//42 81//42 80//42
f 79//42 80//42 78//42
f 74//40 80//40 81//40
f 74//40 81//40 75//40
f 79//43 78//43 77//43
f 79//43 77//43 72//43
f 74//44 75//44 72//44
f 74//45 72//45 73//45
f 70//46 71//46 68//46
f 70//47 68//47 69//47
f 71//48 76//48 78//48
f 71//49 78//49 68//49
f 76//43 77//43 78//43
o Hull_havok_s_armor_1_1
v 0.979934 1.993881 -1.364396
v -0.981066 1.993881 -1.364396
v 0.922713 1.115647 -2.392678
v 0.537547 1.099710 -2.411338
v 0.537547 0.799295 -2.763078
v 0.922713 0.764897 -2.803354
v -0.557653 0.799295 -2.763078
v -0.923843 0.764897 -2.803354
v -0.923843 1.115647 -2.392678
v -0.557653 1.099710 -2.411338
v 0.403929 1.115647 -2.392678
v 0.647423 1.189252 -2.306494
v 0.038688 1.115647 -2.392678
v -0.143932 1.185637 -2.310728
v -0.360439 1.203336 -2.289747
v -0.774436 1.203336 -2.289747
v 0.708296 1.921012 -1.449715
v 0.708296 1.302221 -2.181864
v 1.289502 1.115647 -2.392678
v 1.283491 1.113734 -2.329726
v 0.977552 1.986131 -1.303085
v -0.845834 1.640915 -1.777618
v -0.286342 1.640915 -1.777618
v -0.265679 1.739560 -1.662176
v -0.265679 1.953538 -1.411631
v -0.143932 1.993881 -1.364396
v -0.978683 1.986131 -1.303085
v 0.586549 1.993882 -1.364396
v -0.843779 1.247288 -2.238743
v -1.290634 1.115647 -2.392678
v -0.265679 1.268013 -2.214278
v -0.288396 1.247288 -2.238743
v -1.284622 1.111105 -2.329726
v -0.265679 1.436582 -2.017011
vn -0.0000 -0.7600 0.6499
vn -0.0027 -0.7593 0.6507
vn 0.0012 -0.7584 0.6518
vn -0.0024 -0.7619 0.6477
vn -0.0000 -0.7604 0.6494
vn -0.0000 -0.9921 -0.1254
vn -0.0060 -0.7602 0.6496
vn 0.0006 -0.7606 0.6492
vn 0.0027 -0.7605 0.6493
vn 0.9705 -0.2154 -0.1082
vn 0.9643 -0.2553 -0.0697
vn -0.0000 -0.7488 0.6627
vn 0.0106 -0.7434 0.6687
vn 0.0004 -0.7606 0.6492
vn -0.0001 -0.7604 0.6495
vn -0.0000 -0.7604 0.6495
vn -0.9642 -0.2560 -0.0698
vn -0.9692 -0.2253 -0.0994
vn 0.0001 -0.7603 0.6496
vn -0.0096 -0.7618 0.6477
vn 0.0021 -0.7638 0.6455
vn -0.0000 -0.7612 0.6485
vn 0.0004 -0.7623 0.6472
s 0
f 110//50 111//50 90//50
f 110//51 90//51 97//51
f 113//52 96//52 95//52
f 113//53 95//53 112//53
f 109//54 98//54 82//54
f 107//55 102//55 108//55
f 107//55 108//55 83//55
f 102//55 107//55 109//55
f 102//55 109//55 82//55
f 113//56 112//56 115//56
f 113//57 115//57 104//57
f 115//58 105//58 104//58
f 114//59 111//59 83//59
f 114//60 83//60 108//60
f 84//61 100//61 99//61
f 84//62 99//62 93//62
f 111//63 110//63 103//63
f 111//64 103//64 83//64
f 83//54 105//54 106//54
f 83//65 106//65 107//65
f 84//54 93//54 92//54
f 84//54 92//54 85//54
f 92//54 94//54 91//54
f 92//65 91//65 85//65
f 88//54 91//54 90//54
f 88//54 90//54 89//54
f 86//54 87//54 84//54
f 86//54 84//54 85//54
f 86//65 88//65 89//65
f 86//54 89//54 87//54
f 101//66 102//66 82//66
f 101//67 82//67 100//67
f 104//68 105//68 83//68
f 104//65 83//65 103//65
f 99//69 100//69 82//69
f 99//70 82//70 98//70
f 94//54 95//54 90//54
f 94//54 90//54 91//54
f 96//71 97//71 90//71
f 96//72 90//72 95//72
o Hull_havok_s_armor_5_2
v 0.415360 1.194792 -2.299755
v 0.027256 1.202699 -2.290498
v 0.038688 1.115648 -2.392678
v 0.403929 1.115648 -2.392678
v -0.143932 1.185637 -2.310728
v 0.647423 1.189251 -2.306494
v -0.166797 1.299633 -2.184980
v -0.265679 1.268014 -2.214278
v 0.595162 1.269078 -2.213814
v 0.708296 1.302221 -2.181864
v 0.609914 1.391664 -2.123899
v 0.708295 1.921011 -1.449715
v 0.609913 1.819805 -1.568219
v -0.265679 1.436582 -2.017011
v 0.586549 1.993882 -1.364396
v 0.478166 1.945832 -1.422158
v 0.562363 1.905090 -1.468946
v -0.143933 1.993881 -1.364396
v -0.083705 1.945832 -1.422159
v -0.265679 1.953538 -1.411631
v -0.265679 1.739560 -1.662176
v -0.212430 1.868951 -1.510797
vn -0.0029 -0.7592 0.6508
vn -0.0081 -0.7613 0.6484
vn -0.0022 -0.7620 0.6476
vn 0.0506 -0.7593 0.6488
vn 0.0055 -0.7593 0.6507
vn 0.0047 -0.7664 0.6424
vn 0.0015 -0.7604 0.6494
vn -0.0000 -0.7688 0.6395
vn -0.3392 -0.7452 0.5741
vn 0.0082 -0.7637 0.6455
vn 0.0007 -0.7613 0.6484
vn -0.0008 -0.7613 0.6485
vn -0.0000 -0.7613 0.6484
vn -0.0000 -0.7612 0.6485
vn -0.0566 -0.5861 0.8083
vn 0.0321 -0.7483 0.6626
vn 0.0009 -0.7574 0.6529
vn 0.0358 -0.7372 0.6748
vn -0.0054 -0.7414 0.6711
s 0
f 132//73 128//73 127//73
f 130//74 131//74 132//74
f 130//75 132//75 127//75
f 122//76 129//76 123//76
f 135//77 137//77 134//77
f 135//78 134//78 133//78
f 135//79 136//79 137//79
f 133//80 134//80 131//80
f 133//80 131//80 130//80
f 128//81 126//81 125//81
f 128//82 125//82 127//82
f 116//83 119//83 121//83
f 118//84 117//84 120//84
f 118//85 119//85 116//85
f 118//86 116//86 117//86
f 126//87 124//87 125//87
f 121//88 125//88 124//88
f 121//89 124//89 116//89
f 122//90 123//90 120//90
f 122//91 120//91 117//91
o Hull_havok_s_armor_6_3
v 0.043819 1.162766 -2.210502
v -0.127555 1.269656 -2.130937
v 0.400846 1.153702 -2.217252
v 0.552292 1.226945 -2.162240
v 0.088131 1.230390 -2.148018
v 0.027256 1.202699 -2.290498
v -0.166796 1.299633 -2.184980
v -0.161423 1.338416 -2.089980
v 0.415361 1.194792 -2.299755
v 0.375839 1.230736 -2.148565
v 0.595162 1.269078 -2.213814
v 0.609914 1.391664 -2.123900
v 0.358032 1.934602 -2.000252
v 0.478166 1.945832 -1.422158
v -0.083705 1.945832 -1.422159
v 0.058191 1.934602 -2.124537
v 0.233746 1.934602 -2.124537
v -0.076822 1.934602 -2.000252
v -0.265679 1.436582 -2.017011
vn -0.0000 -0.9998 0.0194
vn 0.0695 -0.2492 0.9660
vn 0.8396 -0.3833 0.3848
vn 0.4783 -0.8317 -0.2819
vn -0.7907 -0.5498 0.2692
vn -0.4995 -0.7918 0.3515
vn 0.0181 -0.9996 0.0196
vn -0.0000 -0.9999 0.0160
vn -0.0110 -0.9999 0.0110
vn -0.0274 -0.5215 0.8528
vn -0.4945 -0.8610 -0.1185
vn -0.0598 -0.6560 0.7524
vn -0.5946 -0.7618 -0.2572
vn 0.5032 -0.8056 -0.3127
vn 0.0442 -0.6568 0.7527
vn 0.0022 -0.6651 0.7467
vn -0.0033 -0.6775 0.7355
vn -0.0288 -0.8967 -0.4417
vn -0.0312 -0.8925 -0.4500
s 0
f 150//92 151//92 152//92
f 149//93 147//93 141//93
f 149//94 141//94 148//94
f 146//95 148//95 141//95
f 144//96 139//96 145//96
f 144//97 145//97 156//97
f 152//98 155//98 153//98
f 152//99 153//99 154//99
f 152//100 154//100 150//100
f 145//101 139//101 142//101
f 144//102 143//102 139//102
f 138//103 142//103 139//103
f 138//104 139//104 143//104
f 140//105 146//105 141//105
f 140//106 141//106 147//106
f 140//107 147//107 142//107
f 140//108 142//108 138//108
f 138//109 143//109 146//109
f 138//110 146//110 140//110
o Hull_havok_s_armor_9_4
v 0.404707 1.412879 -2.329540
v 0.406853 1.591512 -2.353104
v 0.388692 1.340149 -2.260326
v 0.416144 1.346541 -2.243397
v 0.432909 1.422421 -2.310943
v 0.392749 1.769489 -2.310908
v 0.071222 1.769489 -2.310908
v 0.057117 1.591512 -2.353104
v 0.440136 1.596578 -2.329838
v 0.423570 1.766484 -2.286839
v 0.066734 1.412879 -2.329540
v 0.075498 1.338137 -2.258322
vn -0.5807 0.1116 0.8064
vn -0.5735 0.1139 0.8113
vn -0.0000 0.1308 0.9914
vn 0.0002 0.6898 0.7240
vn -0.0000 0.6894 0.7244
vn -0.5079 0.6327 0.5847
vn -0.5645 0.6309 0.5323
vn -0.0000 -0.2307 0.9730
vn -0.6110 -0.2497 0.7512
vn -0.5326 -0.2350 0.8131
s 0
f 161//111 165//111 158//111
f 161//112 158//112 157//112
f 158//113 164//113 167//113
f 158//113 167//113 157//113
f 167//114 168//114 159//114
f 167//115 159//115 157//115
f 159//116 160//116 161//116
f 159//117 161//117 157//117
f 163//118 164//118 158//118
f 163//118 158//118 162//118
f 165//119 166//119 162//119
f 165//120 162//120 158//120
o Hull_havok_s_armor_10_5
v 0.553989 1.896327 -1.952380
v 0.609914 1.819807 -1.976451
v -0.174309 1.824294 -1.985091
v -0.232368 1.785798 -2.036011
v -0.263959 1.734312 -1.968736
v -0.263959 1.667002 -2.069648
v 0.095494 1.869876 -2.256044
v 0.368286 1.869876 -2.256044
v -0.036419 1.878378 -2.158834
v -0.051788 1.776115 -2.227653
v 0.500199 1.871765 -2.174264
v 0.609914 1.748246 -2.141244
v 0.609914 1.622365 -2.211297
v 0.609914 1.482314 -2.194324
v -0.165344 1.632993 -2.242157
v -0.165344 1.778949 -2.166241
v -0.263959 1.547971 -2.093102
v -0.165344 1.472631 -2.224258
v -0.056911 1.412879 -2.223332
v -0.075694 1.591427 -2.268079
v 0.478166 1.945832 -1.422158
v 0.358032 1.934602 -2.000251
v 0.562363 1.905090 -1.468946
v 0.609913 1.819805 -1.568219
v 0.609914 1.391664 -2.123900
v -0.076822 1.934602 -2.000251
v -0.083705 1.945832 -1.422159
v -0.212430 1.868951 -1.510797
v -0.265679 1.739560 -1.662176
v -0.265679 1.436582 -2.017011
v 0.071222 1.769489 -2.310908
v 0.392749 1.769489 -2.310908
v 0.233746 1.934602 -2.124537
v 0.058191 1.934602 -2.124537
v 0.375839 1.230736 -2.148565
v 0.388692 1.340149 -2.260326
v 0.075498 1.338137 -2.258322
v 0.088131 1.230390 -2.148018
v 0.423570 1.766484 -2.286839
v 0.440136 1.596579 -2.329838
v 0.416144 1.346542 -2.243397
v 0.432909 1.422421 -2.310943
v -0.161423 1.338416 -2.089980
v 0.066734 1.412879 -2.329540
v 0.057117 1.591512 -2.353104
vn 0.8373 0.2996 0.4574
vn 0.7587 0.4717 0.4493
vn 0.9998 -0.0035 0.0175
vn 1.0000 -0.0065 0.0043
vn 0.5871 -0.7780 0.2238
vn 0.7164 -0.5798 0.3881
vn 0.8551 -0.1002 0.5086
vn 0.8150 0.0643 0.5759
vn 0.3795 -0.8929 0.2423
vn -0.5330 0.5191 0.6682
vn -0.5686 0.6135 0.5480
vn -0.5042 0.6454 0.5738
vn 0.8269 -0.3455 0.4437
vn 0.8123 -0.2691 0.5174
vn -0.5728 0.1119 0.8120
vn -0.5797 0.0980 0.8089
vn 0.6308 0.2504 0.7344
vn 0.5339 0.1388 0.8341
vn 0.5131 0.6426 0.5690
vn 0.4205 0.6110 0.6707
vn 0.5241 -0.2356 0.8184
vn 0.5341 -0.2462 0.8088
vn 0.5090 0.6243 0.5926
vn 0.3852 -0.5544 0.7378
vn 0.3608 0.6649 0.6540
vn 0.3078 -0.8162 0.4890
vn 0.3608 -0.8463 0.3920
vn 0.4241 -0.4179 0.8034
vn 0.1696 -0.2316 0.9579
vn 0.3209 0.1051 0.9413
vn 0.1318 0.2540 0.9582
vn -1.0000 -0.0000 -0.0000
vn 0.9304 -0.3050 0.2034
vn 0.8601 -0.5100 0.0136
vn 1.0000 -0.0067 0.0057
vn 0.4636 -0.5086 0.7255
vn 0.4769 -0.5389 0.6943
vn -0.0000 -0.4796 0.8775
vn 0.4732 -0.8727 0.1202
vn 0.9113 -0.4106 0.0304
vn -0.8610 -0.5081 0.0241
vn -0.8074 -0.5901 -0.0000
vn -0.2058 -0.9766 0.0617
vn -0.4247 -0.9050 0.0238
vn 0.7520 -0.6479 0.1214
vn 0.5010 -0.8651 0.0228
vn -0.5996 -0.3388 0.7250
vn -0.5898 -0.3927 0.7057
vn -0.5268 -0.2564 0.8103
vn -0.4601 -0.4703 0.7531
vn -0.5635 -0.4977 0.6594
vn -0.7553 -0.6011 0.2610
vn -0.7430 -0.6213 0.2489
vn -0.2301 -0.9456 0.2301
vn -0.0000 -0.8972 0.4416
vn -0.2270 -0.9604 0.1613
vn -0.1338 -0.9620 0.2381
vn 0.0005 0.7154 0.6987
vn -0.0001 0.7146 0.6996
s 0
f 186//121 185//121 198//121
f 186//122 198//122 211//122
f 198//123 185//123 174//123
f 198//124 174//124 173//124
f 171//125 184//125 177//125
f 171//126 177//126 194//126
f 183//127 174//127 185//127
f 183//128 185//128 186//128
f 171//129 172//129 184//129
f 209//130 193//130 182//130
f 209//131 182//131 210//131
f 209//132 204//132 203//132
f 209//132 203//132 193//132
f 184//133 172//133 174//133
f 184//134 174//134 183//134
f 208//135 210//135 182//135
f 208//136 182//136 181//136
f 188//137 187//137 212//137
f 188//138 212//138 213//138
f 206//139 205//139 187//139
f 206//140 187//140 211//140
f 188//141 213//141 199//141
f 188//142 199//142 178//142
f 205//143 212//143 187//143
f 178//144 177//144 184//144
f 187//145 186//145 211//145
f 177//146 175//146 202//146
f 177//147 202//147 194//147
f 178//148 184//148 183//148
f 178//149 183//149 188//149
f 188//150 183//150 186//150
f 188//151 186//151 187//151
f 170//152 180//152 181//152
f 173//153 174//153 172//153
f 173//154 172//154 197//154
f 197//155 198//155 173//155
f 178//156 199//156 175//156
f 178//157 175//157 177//157
f 175//158 199//158 200//158
f 175//158 200//158 176//158
f 172//159 171//159 196//159
f 172//160 196//160 197//160
f 192//161 191//161 169//161
f 192//162 169//162 170//162
f 189//163 190//163 169//163
f 189//164 169//164 191//164
f 196//165 171//165 194//165
f 196//166 194//166 195//166
f 192//152 170//152 193//152
f 180//167 179//167 207//167
f 181//168 180//168 207//168
f 181//169 207//169 208//169
f 182//152 193//152 170//152
f 182//152 170//152 181//152
f 207//170 179//170 176//170
f 207//171 176//171 200//171
f 179//172 180//172 170//172
f 179//173 170//173 169//173
f 201//174 176//174 190//174
f 201//175 202//175 175//175
f 201//175 175//175 176//175
f 179//176 169//176 190//176
f 179//177 190//177 176//177
f 205//178 206//178 203//178
f 205//179 203//179 204//179
o Hull_havok_s_armor_2_6
v -0.923842 0.396552 -2.333113
v 0.922712 0.396552 -2.333113
v 0.922712 0.701362 -2.800532
v -0.923842 0.701362 -2.800532
vn -0.0000 0.8376 0.5462
s 0
f 216//180 217//180 214//180
f 216//180 214//180 215//180
o Hull_havok_s_armor_12_7
v 0.377045 1.986132 -0.855854
v 0.431272 1.986132 -0.653477
v -0.978684 1.986132 0.111893
v -0.360706 1.986132 -1.065824
v -0.476515 1.986132 -1.065824
v -0.978684 1.986132 -1.303085
v 0.579422 1.986132 -0.505327
v 0.977553 1.986132 0.111893
v 0.579422 1.986132 -1.206380
v -0.476516 1.986132 -1.117057
v 0.977553 1.986132 -1.303085
v 0.781798 1.986132 -1.260606
v -0.360706 1.986132 -1.117057
v 0.431272 1.986132 -1.058230
v 0.450351 2.182221 -0.664493
v 0.397037 2.182221 -0.855854
v 0.727721 2.182221 -0.891680
v 0.591177 2.182221 -0.525687
v 0.446801 2.182221 -1.049264
v 0.727721 2.182221 -0.941516
v 1.113245 2.182221 -0.664493
v 0.972420 2.182221 -0.525687
v 0.840283 2.182221 -0.891680
v 1.166558 2.182221 -0.855854
v 0.975970 2.182221 -1.192169
v 1.116795 2.182221 -1.049264
v 0.840283 2.182221 -0.941516
v 0.781798 2.182221 -0.475149
v 0.587627 2.182221 -1.192169
v 0.781798 2.182221 -1.244757
v 0.977553 1.986132 -1.219283
v 0.781798 1.986132 -0.451101
v 0.977553 1.986132 -0.492424
vn -0.0000 -1.0000 -0.0000
s 0
f 240//181 244//181 243//181
f 240//181 243//181 241//181
f 240//181 239//181 245//181
f 240//181 245//181 234//181
f 240//181 241//181 238//181
f 240//181 238//181 239//181
f 242//181 243//181 244//181
f 245//181 235//181 234//181
f 228//181 248//181 229//181
f 225//181 224//181 249//181
f 225//181 249//181 250//181
f 246//181 247//181 237//181
f 246//181 237//181 236//181
f 247//181 242//181 244//181
f 247//181 244//181 237//181
f 224//181 225//181 220//181
f 224//181 220//181 219//181
f 227//181 222//181 223//181
f 227//181 223//181 226//181
f 220//181 221//181 218//181
f 220//181 218//181 219//181
f 222//181 221//181 220//181
f 222//181 220//181 223//181
f 229//181 226//181 223//181
f 229//181 223//181 228//181
f 234//181 235//181 232//181
f 234//181 232//181 233//181
f 236//181 237//181 234//181
f 236//181 234//181 233//181
f 230//181 231//181 218//181
f 230//181 218//181 221//181
f 230//181 227//181 226//181
f 230//181 226//181 231//181
o Hull_havok_s_armor_3_8
v 1.273808 1.145669 0.111409
v 1.196611 1.366152 -0.855799
v 1.140581 1.523815 -1.062964
v 0.927667 1.548040 0.286906
v 1.140581 1.523815 -0.648635
v 1.131865 1.548040 0.111409
v 1.196611 1.986132 -0.855799
v 1.140581 1.986132 -1.062964
v -1.274939 1.145669 0.111409
v -0.928797 1.548040 0.286906
v -1.132996 1.548040 0.111409
v 1.140581 1.986132 -0.648635
v 1.283491 1.113734 -2.329726
v 1.283491 1.111105 2.660481
v 1.273808 1.145669 2.621842
v 0.927922 1.548127 2.171940
v 0.830415 1.663683 2.037808
v 0.834629 1.669280 0.204680
v 0.926964 1.548034 0.111892
v 0.977552 1.986132 -1.303086
v -0.929053 1.548127 2.171940
v -1.274940 1.145669 2.621842
v -0.837124 1.669280 0.204680
v -0.832909 1.663683 2.037808
v -1.284622 1.111105 2.660481
v -1.284622 1.111105 -2.329726
v -1.133545 1.545606 -0.697783
v -1.210752 1.326300 -0.544495
v -1.121841 1.579675 -0.128282
v -0.928095 1.548034 0.111892
v -0.978684 1.986132 -1.303086
v -1.043755 1.801286 -0.277782
v -0.978684 1.986132 0.111892
v 0.397038 2.182221 -0.855854
v 0.377045 1.986132 -0.855854
v 0.431272 1.986132 -1.058230
v 0.446801 2.182221 -1.049264
v 0.977552 1.986132 0.111892
v 1.113245 2.182221 -0.664493
v 1.166558 2.182221 -0.855854
v 1.116795 2.182221 -1.049264
v 0.975969 2.182221 -1.192168
v 0.977552 1.986132 -1.219283
v 0.977552 1.986132 -0.492424
v 0.972419 2.182221 -0.525687
v 0.431272 1.986132 -0.653477
v 0.450351 2.182221 -0.664493
v 0.591177 2.182221 -0.525687
v 0.579422 1.986132 -0.505328
v 0.781798 2.182221 -0.475149
v 0.781798 1.986132 -0.451101
v 0.587627 2.182221 -1.192168
v 0.579422 1.986132 -1.206380
v 0.781798 1.986132 -1.260607
v 0.781798 2.182221 -1.244757
vn -0.6921 -0.0000 0.7218
vn -0.9431 -0.3326 -0.0000
vn -0.6883 -0.1048 0.7178
vn -0.7058 -0.1342 0.6956
vn -0.6851 -0.1392 -0.7150
vn -0.6936 -0.1536 -0.7037
vn -0.6918 -0.0000 -0.7220
vn -0.9598 -0.1337 0.2469
vn -0.9549 -0.1463 0.2583
vn 0.9647 -0.0877 0.2482
vn 0.9613 -0.0980 0.2576
vn 0.0024 0.0003 -1.0000
vn -0.9530 -0.1461 -0.2655
vn -0.9538 -0.1538 -0.2580
vn -0.0000 -0.0000 -1.0000
vn -0.9653 -0.0000 -0.2611
vn 0.2606 -0.0778 0.9623
vn 0.2580 -0.0806 0.9628
vn -0.2526 -0.1682 -0.9528
vn -0.2051 -0.1191 -0.9715
vn 0.7100 -0.0804 0.6996
vn 0.7044 -0.0880 0.7044
vn -0.2590 -0.1343 0.9565
vn -0.2059 -0.0788 0.9754
vn 0.2570 -0.1176 -0.9592
vn 0.2546 -0.1150 -0.9602
vn -0.0024 0.0003 -1.0000
vn -0.9432 -0.3322 -0.0000
vn -0.9431 -0.3325 -0.0002
vn 0.9603 -0.1079 -0.2573
vn 0.9587 -0.0977 -0.2671
vn 0.7024 -0.1150 -0.7024
vn 0.6979 -0.1077 -0.7081
vn -0.6352 -0.2241 -0.7391
vn -0.9653 -0.0000 0.2611
vn -0.9433 -0.3321 0.0011
vn -0.0000 -1.0000 -0.0000
vn -0.7944 -0.6074 0.0032
vn -0.9430 -0.3327 -0.0002
vn -0.9426 -0.3338 -0.0009
vn -0.9629 -0.2698 -0.0000
vn -0.9600 -0.2798 -0.0001
vn -0.9446 -0.3283 0.0005
vn -0.9429 -0.3331 0.0015
vn -0.7921 -0.6104 -0.0037
vn -0.7643 -0.6448 0.0001
vn -0.7584 -0.6518 -0.0000
vn -0.7581 -0.6522 0.0001
vn 0.7584 -0.6518 -0.0000
vn 0.7581 -0.6522 0.0001
vn 0.9437 -0.3308 0.0007
vn 0.7987 -0.6017 0.0032
vn 0.9432 -0.3323 0.0001
vn 0.9432 -0.3322 -0.0000
vn 0.9435 -0.3315 0.0001
vn 0.9433 -0.3321 -0.0000
vn 0.6352 -0.2241 -0.7391
vn 0.9629 -0.2698 -0.0000
vn 0.7964 -0.6047 -0.0037
vn 0.7688 -0.6395 0.0001
vn 0.9435 -0.3314 0.0002
vn 0.9430 -0.3327 0.0007
vn 0.9434 -0.3318 0.0010
vn 0.9435 -0.3315 0.0009
s 0
f 253//182 258//182 293//182
f 253//183 293//183 270//183
f 292//184 293//184 258//184
f 292//185 258//185 291//185
f 262//186 294//186 295//186
f 262//187 295//187 289//187
f 294//188 262//188 255//188
f 290//189 291//189 258//189
f 290//190 258//190 257//190
f 286//191 287//191 284//191
f 286//192 284//192 285//192
f 280//193 261//193 283//193
f 289//194 290//194 257//194
f 289//195 257//195 262//195
f 283//196 288//196 269//196
f 283//196 269//196 280//196
f 255//197 262//197 257//197
f 255//197 257//197 252//197
f 304//198 305//198 302//198
f 304//199 302//199 303//199
f 300//200 295//200 294//200
f 300//201 294//201 301//201
f 303//202 302//202 287//202
f 303//203 287//203 286//203
f 293//204 292//204 305//204
f 293//205 305//205 304//205
f 300//206 301//206 299//206
f 300//207 299//207 298//207
f 288//208 256//208 269//208
f 256//209 288//209 294//209
f 256//210 294//210 255//210
f 297//211 296//211 285//211
f 297//212 285//212 284//212
f 298//213 299//213 296//213
f 298//214 296//214 297//214
f 256//215 251//215 254//215
f 257//216 258//216 253//216
f 257//216 253//216 252//216
f 270//217 263//217 253//217
f 269//218 256//218 254//218
f 269//219 254//219 268//219
f 251//220 256//220 255//220
f 251//221 255//221 252//221
f 264//222 265//222 251//222
f 264//223 251//223 263//223
f 263//224 251//224 252//224
f 263//225 252//225 253//225
f 267//226 268//226 254//226
f 267//227 254//227 266//227
f 251//228 265//228 266//228
f 251//229 266//229 254//229
f 271//230 272//230 259//230
f 271//231 259//231 260//231
f 276//232 281//232 277//232
f 260//218 261//218 280//218
f 260//233 280//233 273//233
f 279//234 282//234 283//234
f 279//235 283//235 261//235
f 282//236 277//236 281//236
f 282//237 281//237 283//237
f 261//238 260//238 259//238
f 275//239 276//239 259//239
f 275//239 259//239 272//239
f 260//240 273//240 274//240
f 260//241 274//241 271//241
f 278//242 279//242 261//242
f 278//243 261//243 259//243
f 278//244 259//244 276//244
f 278//245 276//245 277//245
o Hull_havok_s_armor_11_9
v -0.923843 1.111105 2.660481
v -0.923843 1.115647 -2.392678
v -1.284622 1.111105 -2.329726
v -1.284622 1.111105 2.660481
v -1.290634 1.115647 -2.392678
v 1.283491 1.113734 -2.329726
v 0.922713 1.115647 -2.392678
v 0.922713 1.111105 2.660481
v 1.283491 1.111105 2.660481
v 1.289502 1.115647 -2.392678
v 0.922713 0.396552 2.441684
v 0.922713 0.396552 -2.333113
v -0.923843 0.396552 -2.333113
v -0.923843 0.396552 2.441684
v -0.832910 1.663683 2.037808
v -0.837125 1.669280 0.204681
v 0.834630 1.669280 0.204681
v 0.830415 1.663683 2.037808
v -0.928095 1.548034 0.111892
v 0.926965 1.548034 0.111892
v -0.360706 1.986132 -1.117057
v -0.360706 1.986132 -1.065824
v -0.476515 1.986132 -1.065824
v -0.476516 1.986132 -1.117057
v 0.840282 2.182221 -0.891680
v 0.727722 2.182221 -0.891680
v 0.727722 2.182221 -0.941516
v 0.840282 2.182221 -0.941516
vn -0.0000 -0.6077 0.7941
vn -0.0000 -1.0000 -0.0031
vn -0.0000 -1.0000 -0.0000
vn -0.0000 1.0000 -0.0000
vn -0.0000 0.9974 0.0720
vn -0.0124 0.9999 0.0009
vn -0.0000 0.9995 0.0304
vn -0.0000 1.0000 0.0005
vn 0.0051 1.0000 0.0009
s 0
f 324//246 325//246 322//246
f 324//246 322//246 321//246
f 322//247 323//247 320//247
f 322//247 320//247 321//247
f 332//248 333//248 330//248
f 332//248 330//248 331//248
f 328//248 329//248 326//248
f 328//248 326//248 327//248
f 318//249 319//249 316//249
f 318//249 316//249 317//249
f 308//250 307//250 310//250
f 308//249 309//249 306//249
f 308//251 306//251 307//251
f 311//252 315//252 312//252
f 313//253 314//253 311//253
f 313//254 311//254 312//254
o Hull_havok_s_armor_13_10
v -0.557654 0.799295 -2.763078
v 0.537547 0.799295 -2.763078
v 0.537547 1.099710 -2.411338
v -0.557654 1.099710 -2.411338
vn -0.0000 -0.7604 0.6494
s 0
f 337//255 334//255 336//255
f 334//255 335//255 336//255
o Hull_havok_s_armor_8_11
v 0.922712 0.886507 2.911555
v 0.922712 0.701362 -2.800533
v 0.922712 0.396552 -2.333114
v 0.922712 0.396552 2.441684
v 0.922712 1.111105 2.660482
v 0.922712 0.730951 -2.824570
v 0.922712 1.115648 -2.392678
v 0.922712 0.764897 -2.803355
v -0.923842 1.111105 2.660482
v -0.923842 0.886507 2.911555
v -0.923842 0.396552 -2.333114
v -0.923842 1.115648 -2.392678
v -0.923842 0.396552 2.441684
v -0.923842 0.701362 -2.800533
v -0.923842 0.730951 -2.824570
v -0.923842 0.764897 -2.803355
vn 1.0000 -0.0000 -0.0000
vn -1.0000 -0.0000 -0.0000
s 0
f 348//256 347//256 350//256
f 348//256 351//256 349//256
f 352//256 353//256 349//256
f 352//256 349//256 351//256
f 348//256 349//256 346//256
f 348//256 346//256 347//256
f 340//257 341//257 338//257
f 340//257 338//257 339//257
f 342//257 343//257 339//257
f 342//257 339//257 338//257
f 342//257 344//257 345//257
f 342//257 345//257 343//257
o Hull_havok_s_armor_4_12
v 0.922713 0.396552 2.441684
v -0.923842 0.396552 2.441684
v -0.923842 0.886507 2.911555
v 0.922713 0.886507 2.911555
v -0.929053 1.548127 2.171940
v 0.927922 1.548127 2.171940
v 0.922713 1.111105 2.660481
v -0.923842 1.111105 2.660481
v 1.273808 1.145669 2.621843
v 1.283491 1.111105 2.660481
v -1.274940 1.145669 2.621843
v -1.284622 1.111105 2.660481
v 0.830415 1.663683 2.037807
v -0.832909 1.663683 2.037807
vn -0.0000 -0.7453 -0.6667
vn -0.0000 -0.7576 -0.6527
vn -0.0000 0.6922 -0.7217
s 0
f 361//258 365//258 364//258
f 361//258 364//258 358//258
f 358//259 367//259 366//259
f 358//259 366//259 359//259
f 361//258 360//258 357//258
f 361//258 357//258 356//258
f 356//260 357//260 354//260
f 356//260 354//260 355//260
f 360//258 361//258 358//258
f 360//258 358//258 359//258
f 362//258 363//258 360//258
f 362//258 360//258 359//258
o Hull_havok_s_armor_15_13
v -0.588285 1.462417 -1.985586
v -0.588285 1.509048 -1.929546
v -0.758455 1.509048 -1.929546
v -0.758455 1.462417 -1.985586
v -0.373721 1.462417 -1.985586
v -0.373721 1.509048 -1.929546
v -0.543891 1.509048 -1.929546
v -0.543891 1.462417 -1.985586
vn -0.0000 -0.7687 0.6396
s 0
f 374//261 375//261 372//261
f 374//261 372//261 373//261
f 370//261 371//261 368//261
f 370//261 368//261 369//261
o Hull_havok_s_surveyingDevice_14
v -0.458930 1.495695 -1.967709
v -0.673370 1.495695 -1.967709
v -0.360583 2.050064 -1.107307
v -0.476676 2.050064 -1.107307
v 0.840283 2.206162 -0.891680
v 0.727886 2.206162 -0.891680
v 0.727886 2.242269 -0.932702
v 0.840283 2.242269 -0.932702
v 0.727886 2.206162 -0.941116
v 0.840283 2.206162 -0.941116
v -0.543891 1.509048 -1.929546
v -0.543891 1.462417 -1.985586
v -0.373721 1.509048 -1.929546
v -0.373721 1.462417 -1.985586
v -0.588285 1.462417 -1.985586
v -0.588285 1.509048 -1.929546
v -0.758455 1.462417 -1.985586
v -0.758455 1.509048 -1.929546
v -0.360706 1.986132 -1.117057
v -0.476516 1.986132 -1.117057
v -0.476515 1.986132 -1.065824
v -0.360706 1.986132 -1.065824
v 0.840283 2.182222 -0.891680
v 0.727721 2.182222 -0.891680
v 0.727721 2.182222 -0.941516
v 0.840283 2.182222 -0.941516
vn 1.0000 -0.0069 -0.0000
vn -1.0000 -0.0000 -0.0000
vn -0.0000 -0.0000 -1.0000
vn 1.0000 -0.0000 -0.0000
vn -0.0000 -0.0167 0.9999
vn -1.0000 0.0019 -0.0000
vn -0.0000 -0.2270 0.9739
vn -0.1640 -0.7583 0.6310
vn -0.0000 -0.4732 0.8809
vn -0.0000 -0.9439 0.3303
vn 0.1640 -0.7583 0.6310
vn 0.1642 -0.7582 0.6309
vn -0.1638 -0.7583 0.6310
vn -0.0000 -0.5443 -0.8389
vn -0.0000 -0.7506 -0.6607
vn -0.0000 -0.1508 0.9886
vn 1.0000 0.0025 -0.0000
s 0
f 399//262 400//262 384//262
f 399//262 384//262 381//262
f 383//263 385//263 380//263
f 398//264 399//264 381//264
f 398//264 381//264 380//264
f 382//265 381//265 384//265
f 400//266 401//266 385//266
f 400//266 385//266 384//266
f 394//267 397//267 378//267
f 385//263 401//263 398//263
f 385//263 398//263 380//263
f 384//268 385//268 383//268
f 384//268 383//268 382//268
f 390//269 391//269 377//269
f 390//270 377//270 392//270
f 377//271 391//271 393//271
f 377//272 393//272 392//272
f 386//273 387//273 376//273
f 386//271 376//271 388//271
f 376//270 387//270 389//270
f 376//274 389//274 388//274
f 378//275 397//275 396//275
f 378//275 396//275 379//275
f 382//276 383//276 380//276
f 382//276 380//276 381//276
f 379//277 395//277 394//277
f 379//277 394//277 378//277
f 395//278 379//278 396//278
o Hull_havok_s_armor_16_15
v -0.923842 0.730951 -2.824570
v 0.922712 0.730951 -2.824570
v 0.922712 0.764897 -2.803354
v -0.923842 0.764897 -2.803354
v -0.923842 0.701362 -2.800532
v 0.922712 0.701362 -2.800532
vn -0.0000 0.6305 0.7762
vn -0.0000 -0.5300 0.8480
s 0
f 406//279 407//279 403//279
f 406//279 403//279 402//279
f 404//280 405//280 402//280
f 404//280 402//280 403//280
o Hull_havok_s_armor_14_16
v -1.210753 1.326299 -0.544495
v -1.133546 1.545606 -0.697783
v -1.043755 1.801286 -0.277782
v -1.121841 1.579675 -0.128281
vn 0.9433 -0.3320 0.0006
vn 0.9433 -0.3319 0.0003
s 0
f 410//281 411//281 408//281
f 410//282 408//282 409//282
o Gun_02_havok_s_armor_1_0
v 0.448044 1.361753 -2.385274
v 0.331245 1.304330 -2.402430
v 0.196580 1.304330 -2.402430
v 0.011621 1.474464 -2.376445
v 0.079781 1.361753 -2.385274
v -0.014518 1.308603 -2.326581
v -0.085325 1.431463 -2.328989
v -0.182602 1.449892 -2.299793
v -0.127016 1.474464 -2.330594
v 0.494697 1.766392 -2.352065
v 0.331245 1.851058 -2.378853
v 0.196580 1.851058 -2.378853
v 0.109229 1.812598 -2.370525
v 0.079781 1.726061 -2.378652
v 0.011621 1.609344 -2.376445
v -0.115104 1.691340 -2.330594
v -0.177308 1.705228 -2.314642
v 0.010297 1.796572 -2.306014
v -0.098560 1.762919 -2.306014
v 0.569855 1.474473 -2.315200
v 0.441226 1.439440 -2.479755
v 0.569855 1.374800 -2.287458
v 0.495268 1.276971 -2.265798
v 0.569855 1.316066 -2.223411
v 0.331214 1.229543 -2.306328
v 0.185786 1.227733 -2.308063
v 0.086417 1.439440 -2.479755
v 0.051746 1.541865 -2.479755
v 0.157784 1.358202 -2.479755
v 0.369860 1.358202 -2.479755
v 0.263822 1.337015 -2.479755
v -0.099965 1.408776 -2.278065
v -0.025174 1.271683 -2.265944
v -0.191348 1.429965 -2.262085
v -0.211956 1.474473 -2.205733
v 0.369861 1.725528 -2.479755
v 0.263822 1.746714 -2.479755
v 0.157784 1.725528 -2.479755
v 0.086417 1.644289 -2.479755
v 0.569855 1.609256 -2.315200
v 0.569855 1.734149 -2.284606
v 0.441226 1.644289 -2.479755
v 0.475899 1.541865 -2.479755
v 0.506072 1.872988 -2.214372
v 0.348328 1.929541 -2.243239
v 0.569855 1.827057 -2.182486
v 0.196431 1.930374 -2.243239
v 0.082215 1.891291 -2.243239
v -0.198277 1.709807 -2.224119
v 0.001341 1.825051 -2.246637
v -0.115046 1.787859 -2.246637
vn -0.6560 -0.5583 0.5079
vn -0.6746 -0.5557 0.4859
vn -0.4497 -0.6879 0.5697
vn -0.3719 -0.7824 0.4996
vn -0.0047 -0.8652 0.5013
vn -0.0000 -0.8632 0.5049
vn 0.3811 -0.7480 0.5433
vn 0.2832 -0.8277 0.4844
vn -0.7861 0.2661 0.5578
vn -0.6977 -0.1705 0.6958
vn -0.7885 -0.2448 0.5642
vn 0.7881 -0.4523 0.4176
vn 0.6490 -0.5701 0.5037
vn -0.8684 -0.0000 0.4958
vn -0.7861 -0.2661 0.5578
vn -0.5459 -0.4795 0.6871
vn 0.3402 -0.0000 0.9403
vn 0.3140 -0.0172 0.9493
vn 0.1066 -0.3449 0.9326
vn 0.1577 -0.3531 0.9222
vn 0.4633 -0.7064 0.5351
vn 0.5628 -0.7090 0.4249
vn 0.4953 -0.7433 0.4497
vn 0.6985 -0.6881 0.1966
vn 0.2739 -0.8572 0.4361
vn 0.2639 -0.8536 0.4492
vn 0.5310 -0.2951 0.7943
vn 0.5565 -0.2634 0.7880
vn 0.9730 -0.0388 0.2274
vn 0.9544 -0.0024 0.2985
vn 0.9322 -0.0000 0.3620
vn 0.8203 -0.2777 0.5000
vn 0.1107 -0.3492 0.9305
vn 0.4702 0.0415 0.8816
vn 0.2456 -0.0135 0.9693
vn -0.4544 0.8212 0.3452
vn -0.1691 0.8463 0.5052
vn 0.4545 0.8215 0.3443
vn 0.6455 0.5671 0.5116
vn -0.6451 0.5667 0.5125
vn -0.0000 0.9211 0.3893
vn 0.1691 0.8465 0.5049
vn 0.7903 0.4449 0.4213
vn 0.8204 0.2777 0.4998
vn -0.5546 0.5593 0.6161
vn -0.6103 0.5838 0.5354
vn -0.7305 0.5007 0.4644
vn -0.6258 0.2091 0.7514
vn -0.0172 0.7773 0.6289
vn -0.0000 0.7892 0.6141
vn -0.3553 0.6903 0.6303
vn -0.4314 0.7120 0.5540
vn 0.3489 0.2190 0.9112
vn 0.4366 0.1952 0.8782
vn -0.4358 -0.6415 0.6313
vn -0.1289 -0.6451 0.7532
vn 0.3296 0.3523 0.8759
vn 0.2973 0.3218 0.8989
vn 0.3505 -0.6502 0.6741
vn 0.7518 -0.3105 0.5817
vn -0.0000 -0.6952 0.7189
vn 0.1289 -0.6452 0.7531
vn 0.9570 0.0971 0.2733
vn 0.4222 0.6796 0.5999
vn 0.1634 0.5863 0.7934
vn 0.7809 0.4631 0.4192
vn 0.7794 0.4576 0.4279
vn 0.2776 0.8213 0.4984
vn 0.2963 0.8379 0.4585
vn 0.2733 0.7995 0.5348
s 0
f 452//283 457//283 455//283
f 452//284 455//284 421//284
f 422//285 421//285 455//285
f 422//286 455//286 456//286
f 422//287 456//287 458//287
f 422//288 458//288 423//288
f 459//289 424//289 423//289
f 459//290 423//290 458//290
f 431//291 454//291 432//291
f 451//292 452//292 421//292
f 451//293 421//293 453//293
f 425//294 426//294 450//294
f 425//295 450//295 449//295
f 454//296 431//296 451//296
f 454//297 451//297 453//297
f 421//298 447//298 453//298
f 415//299 426//299 427//299
f 415//300 427//300 420//300
f 427//301 429//301 430//301
f 427//302 430//302 428//302
f 429//303 424//303 459//303
f 429//304 459//304 461//304
f 428//305 430//305 462//305
f 428//306 462//306 460//306
f 461//307 462//307 430//307
f 461//308 430//308 429//308
f 429//309 426//309 425//309
f 429//310 425//310 424//310
f 428//311 460//311 446//311
f 428//312 446//312 419//312
f 426//313 415//313 439//313
f 426//314 439//314 450//314
f 429//315 427//315 426//315
f 428//316 419//316 420//316
f 428//317 420//317 427//317
f 413//318 412//318 441//318
f 413//319 441//319 442//319
f 416//320 414//320 440//320
f 416//321 440//321 438//321
f 432//322 441//322 412//322
f 414//323 413//323 442//323
f 414//324 442//324 440//324
f 415//325 416//325 438//325
f 415//326 438//326 439//326
f 433//327 412//327 434//327
f 433//328 434//328 435//328
f 431//329 432//329 412//329
f 431//330 412//330 433//330
f 414//331 437//331 436//331
f 414//332 436//332 413//332
f 436//333 434//333 412//333
f 436//334 412//334 413//334
f 415//335 418//335 417//335
f 415//336 417//336 416//336
f 447//337 421//337 422//337
f 447//338 422//338 448//338
f 420//339 419//339 418//339
f 420//340 418//340 415//340
f 449//341 423//341 424//341
f 449//342 424//342 425//342
f 448//343 422//343 423//343
f 448//344 423//344 449//344
f 419//345 446//345 445//345
f 437//346 414//346 416//346
f 437//347 416//347 417//347
f 443//348 444//348 417//348
f 443//349 417//349 418//349
f 419//350 445//350 443//350
f 419//351 443//351 418//351
f 437//352 417//352 444//352
o Gun_02_havok_s_gun_1
v 0.153087 1.430790 -1.010415
v 0.375130 1.430790 -1.010415
v 0.377342 1.428577 -2.423934
v 0.150875 1.428577 -2.423934
v 0.153087 1.652832 -1.010415
v 0.375130 1.652832 -1.010415
v 0.377342 1.655045 -2.423934
v 0.150875 1.655045 -2.423934
v 0.194133 1.606587 -2.601972
v 0.334084 1.606587 -2.601972
v 0.334084 1.477035 -2.601972
v 0.219025 1.590435 -6.529611
v 0.194133 1.477035 -2.601972
v 0.219025 1.500157 -6.529611
v 0.309192 1.590435 -6.529611
v 0.309192 1.500157 -6.529611
vn -1.0000 -0.0000 0.0063
vn -0.0000 -0.0000 1.0000
vn 1.0000 -0.0000 0.0063
vn -0.0000 1.0000 0.0059
vn 0.9717 -0.0000 0.2361
vn -0.0000 0.9649 0.2626
vn -0.0000 -1.0000 0.0041
vn -1.0000 -0.0000 -0.0016
vn -0.0000 -0.0000 -1.0000
vn -0.0000 1.0000 -0.0016
vn -0.0000 -1.0000 -0.0016
vn -0.9717 -0.0000 0.2361
vn -0.0000 -0.9649 0.2626
vn 1.0000 -0.0000 -0.0016
s 0
f 472//353 477//353 478//353
f 472//353 478//353 473//353
f 476//354 478//354 477//354
f 476//354 477//354 474//354
f 475//355 476//355 474//355
f 475//355 474//355 471//355
f 478//356 476//356 475//356
f 478//356 475//356 473//356
f 475//357 471//357 470//357
f 475//357 470//357 466//357
f 473//358 475//358 466//358
f 473//358 466//358 465//358
f 474//359 477//359 472//359
f 474//359 472//359 471//359
f 464//360 468//360 469//360
f 464//360 469//360 465//360
f 467//361 468//361 464//361
f 467//361 464//361 463//361
f 465//362 466//362 463//362
f 465//362 463//362 464//362
f 470//363 469//363 468//363
f 470//363 468//363 467//363
f 472//364 473//364 465//364
f 472//364 465//364 469//364
f 471//365 472//365 469//365
f 471//365 469//365 470//365
f 466//366 470//366 467//366
f 466//366 467//366 463//366
o Gun_02_havok_s_armor_2_2
v 0.051746 1.541865 -2.479755
v 0.056077 1.541865 -2.600452
v 0.096483 1.586704 -2.600452
v 0.086417 1.644290 -2.479755
v 0.086417 1.439440 -2.479755
v 0.096483 1.497026 -2.600452
v 0.141321 1.664366 -2.600452
v 0.159950 1.721778 -2.600452
v 0.157784 1.725528 -2.479755
v 0.218984 1.709205 -2.600452
v 0.263822 1.746714 -2.479755
v 0.308661 1.709205 -2.600452
v 0.157784 1.358202 -2.479755
v 0.159950 1.361951 -2.600452
v 0.141321 1.419363 -2.600452
v 0.218984 1.374525 -2.600452
v 0.263823 1.337015 -2.479755
v 0.475899 1.541865 -2.479755
v 0.441226 1.644290 -2.479755
v 0.431162 1.586704 -2.600452
v 0.471568 1.541865 -2.600452
v 0.431162 1.497026 -2.600452
v 0.441226 1.439440 -2.479755
v 0.386324 1.419363 -2.600452
v 0.367695 1.361951 -2.600452
v 0.369860 1.358202 -2.479755
v 0.308661 1.374525 -2.600452
v 0.369860 1.725528 -2.479755
v 0.367695 1.721778 -2.600452
v 0.386323 1.664366 -2.600452
vn -0.7319 0.6429 0.2260
vn -0.9508 0.3085 0.0266
vn -0.8270 0.4775 0.2968
vn -0.9227 -0.3123 0.2260
vn -0.7426 -0.6692 0.0266
vn -0.7426 0.6692 0.0266
vn -0.9227 0.3123 0.2260
vn -0.1909 0.9553 0.2260
vn 0.2082 0.9777 0.0266
vn -0.8270 -0.4775 0.2968
vn -0.1909 -0.9553 0.2260
vn 0.2082 -0.9777 0.0266
vn -0.0000 0.9549 0.2968
vn -0.7318 -0.6429 0.2260
vn -0.9508 -0.3085 0.0266
vn 0.7318 -0.6429 0.2260
vn 0.9508 -0.3085 0.0266
vn 0.8270 -0.4775 0.2968
vn 0.7426 -0.6692 0.0266
vn 0.9227 -0.3123 0.2260
vn 0.7426 0.6692 0.0266
vn 0.9227 0.3123 0.2260
vn -0.2082 -0.9777 0.0266
vn 0.1909 -0.9553 0.2260
vn 0.8270 0.4775 0.2968
vn -0.2082 0.9777 0.0266
vn 0.1909 0.9553 0.2260
vn -0.0000 -0.9549 0.2968
vn 0.7318 0.6429 0.2260
vn 0.9508 0.3085 0.0266
s 0
f 504//367 501//367 502//367
f 504//368 502//368 503//368
f 501//369 500//369 502//369
f 496//370 497//370 498//370
f 496//371 498//371 499//371
f 496//372 499//372 500//372
f 496//373 500//373 501//373
f 505//374 495//374 504//374
f 505//375 504//375 503//375
f 498//376 497//376 508//376
f 506//377 489//377 490//377
f 506//378 490//378 507//378
f 494//379 495//379 505//379
f 508//380 497//380 506//380
f 508//381 506//381 507//381
f 487//382 482//382 485//382
f 487//383 485//383 486//383
f 485//384 482//384 481//384
f 479//385 480//385 481//385
f 479//386 481//386 482//386
f 484//387 480//387 479//387
f 484//388 479//388 483//388
f 487//389 486//389 488//389
f 487//390 488//390 489//390
f 484//391 483//391 493//391
f 494//392 492//392 491//392
f 494//393 491//393 495//393
f 490//394 489//394 488//394
f 493//395 483//395 491//395
f 493//396 491//396 492//396
o Gun_02_havok_s_armor_3_3
v 0.528513 1.362729 -2.223214
v 0.495268 1.276971 -2.265798
v 0.289811 1.285149 -2.304726
v 0.569855 1.374800 -2.287458
v 0.516444 1.481296 -2.301972
v 0.569855 1.474473 -2.315200
v 0.569855 1.316066 -2.223411
v 0.185786 1.227733 -2.308062
v -0.025174 1.271683 -2.265944
v 0.033495 1.311759 -2.269529
v 0.331214 1.229543 -2.306328
v -0.145805 1.492419 -2.234478
v -0.033723 1.418647 -2.275612
v -0.099965 1.408776 -2.278065
v -0.191348 1.429965 -2.262085
v 0.196431 1.930374 -2.243239
v 0.211244 1.868242 -2.247200
v 0.030254 1.770981 -2.246425
v 0.082215 1.891291 -2.243239
v 0.348328 1.929541 -2.243239
v 0.334988 1.866547 -2.248375
v 0.506072 1.872988 -2.214372
v 0.522420 1.770521 -2.210416
v 0.569855 1.827057 -2.182486
v 0.569855 1.734149 -2.284606
v 0.521038 1.686533 -2.277107
v 0.569855 1.609256 -2.315200
v -0.139705 1.678945 -2.229824
v -0.198277 1.709807 -2.224119
v -0.115046 1.787859 -2.246637
v 0.001341 1.825051 -2.246637
v -0.211956 1.474473 -2.205733
vn 0.4702 0.0410 -0.8816
vn -0.2404 -0.0000 -0.9707
vn -0.4908 0.1156 -0.8635
vn 0.1952 -0.0067 -0.9807
vn 0.1934 0.0390 -0.9804
vn -0.4366 0.6654 -0.6054
vn -0.5913 0.5075 -0.6268
vn -0.3563 0.2223 -0.9076
vn -0.4065 0.0361 -0.9129
vn -0.1329 -0.0695 -0.9887
vn -0.4487 0.6142 -0.6492
vn -0.0159 -0.1490 -0.9887
vn -0.1566 -0.1159 -0.9808
vn 0.0314 0.0129 -0.9994
vn 0.0011 -0.0033 -1.0000
vn 0.3431 0.3077 -0.8875
vn -0.6410 -0.5657 -0.5188
vn -0.1291 0.2891 -0.9485
vn -0.1257 0.0956 -0.9875
vn 0.1869 0.3779 -0.9068
vn -0.7182 -0.4343 -0.5437
vn -0.2632 -0.2587 -0.9294
vn 0.1900 0.1693 -0.9671
vn 0.0115 0.0373 -0.9992
vn -0.0106 0.0311 -0.9995
vn -0.0341 0.0555 -0.9979
vn -0.0083 0.0830 -0.9965
vn 0.0003 0.0637 -0.9980
vn -0.0556 0.4373 -0.8976
vn -0.0336 0.4473 -0.8937
vn 0.0463 -0.0629 -0.9969
vn -0.0155 -0.0665 -0.9977
s 0
f 530//397 532//397 531//397
f 535//398 514//398 513//398
f 535//399 513//399 534//399
f 530//400 531//400 529//400
f 530//401 529//401 528//401
f 531//402 532//402 533//402
f 531//403 533//403 534//403
f 534//404 533//404 535//404
f 536//405 520//405 540//405
f 536//406 540//406 537//406
f 523//407 540//407 520//407
f 538//408 526//408 536//408
f 538//409 536//409 537//409
f 539//410 527//410 526//410
f 539//411 526//411 538//411
f 515//412 510//412 509//412
f 515//413 509//413 512//413
f 511//414 516//414 517//414
f 511//415 517//415 518//415
f 509//416 510//416 511//416
f 512//417 509//417 513//417
f 512//418 513//418 514//418
f 511//419 510//419 519//419
f 511//420 519//420 516//420
f 526//421 527//421 524//421
f 526//422 524//422 525//422
f 528//423 529//423 525//423
f 528//424 525//424 524//424
f 522//425 523//425 520//425
f 522//426 520//426 521//426
f 517//427 522//427 521//427
f 517//428 521//428 518//428
o Gun_02_havok_s_armor_4_4
v 0.159060 1.507802 -2.600452
v 0.159060 1.575928 -2.600452
v 0.199082 1.452698 -2.600452
v 0.199082 1.631032 -2.600452
v 0.263771 1.431711 -2.600452
v 0.328563 1.452698 -2.600452
v 0.368584 1.507802 -2.600452
v 0.368584 1.575928 -2.600452
v 0.328563 1.631032 -2.600452
v 0.263771 1.652019 -2.600452
v 0.096483 1.497026 -2.600452
v 0.096483 1.586703 -2.600452
v 0.056077 1.541865 -2.600452
v 0.141321 1.419363 -2.600452
v 0.141321 1.664366 -2.600452
v 0.218984 1.709205 -2.600452
v 0.159950 1.721778 -2.600452
v 0.218984 1.374525 -2.600452
v 0.159950 1.361952 -2.600452
v 0.308661 1.374525 -2.600452
v 0.386324 1.419363 -2.600452
v 0.367695 1.361952 -2.600452
v 0.431162 1.497026 -2.600452
v 0.431162 1.586703 -2.600452
v 0.471568 1.541865 -2.600452
v 0.386324 1.664366 -2.600452
v 0.308661 1.709205 -2.600452
v 0.367695 1.721778 -2.600452
vn -0.0000 -0.0000 1.0000
s 0
f 564//429 563//429 565//429
f 548//429 564//429 566//429
f 548//429 566//429 549//429
f 547//429 563//429 564//429
f 547//429 564//429 548//429
f 561//429 563//429 547//429
f 561//429 547//429 546//429
f 547//429 545//429 546//429
f 567//429 556//429 550//429
f 567//429 550//429 549//429
f 566//429 568//429 567//429
f 566//429 567//429 549//429
f 550//429 556//429 544//429
f 550//429 544//429 545//429
f 548//429 549//429 545//429
f 548//429 545//429 547//429
f 550//429 545//429 549//429
f 555//429 552//429 542//429
f 555//429 542//429 544//429
f 556//429 557//429 555//429
f 556//429 555//429 544//429
f 541//429 551//429 554//429
f 541//429 554//429 543//429
f 542//429 552//429 551//429
f 542//429 551//429 541//429
f 551//429 552//429 553//429
f 545//429 558//429 560//429
f 545//429 560//429 546//429
f 560//429 562//429 561//429
f 560//429 561//429 546//429
f 554//429 559//429 558//429
f 554//429 558//429 543//429
f 545//429 544//429 542//429
f 545//429 542//429 541//429
f 545//429 541//429 543//429
f 545//429 543//429 558//429
