# Blender 5.1.0
# www.blender.org
o Chassis_havok_s_rightTrack_0
v 1.650000 0.456262 1.832723
v 1.650000 0.184048 1.753793
v 0.912093 0.184048 1.753793
v 0.912093 0.456262 1.832723
v 1.650000 0.064773 1.656924
v 0.912093 0.064773 1.656924
v 0.912093 0.856478 1.753793
v 1.650000 0.856478 1.753793
v 0.912093 0.005759 1.513415
v 1.650000 0.005759 1.513415
v 1.650000 0.005759 -1.511043
v 0.912093 0.005759 -1.511043
v 0.912093 0.856478 -1.715544
v 1.650000 0.856478 -1.715544
v 0.912093 0.477042 -1.837527
v 0.912093 0.147476 -1.715544
v 0.912093 0.054799 -1.647377
v 1.650000 0.477042 -1.837527
v 1.650000 0.147476 -1.715544
v 1.650000 0.054799 -1.647377
vn -1.0000 -0.0000 -0.0000
vn 1.0000 -0.0000 -0.0000
vn -0.0000 0.9410 0.3385
vn -0.0000 0.5925 0.8056
vn -0.0000 0.3471 0.9378
vn -0.0000 -0.3061 0.9520
vn -0.0000 1.0000 -0.0000
vn -0.0000 0.9249 -0.3803
vn -0.0000 -0.1935 -0.9811
vn -0.0000 0.2785 -0.9604
vn -0.0000 0.6304 -0.7762
vn -0.0000 -1.0000 -0.0000
s 0
f 18//1 19//1 2//1
f 19//1 20//1 5//1
f 19//1 5//1 2//1
f 8//1 14//1 1//1
f 9//2 12//2 17//2
f 9//2 17//2 6//2
f 14//1 18//1 2//1
f 14//1 2//1 1//1
f 11//3 20//3 17//3
f 11//3 17//3 12//3
f 20//4 19//4 16//4
f 20//4 16//4 17//4
f 19//5 18//5 15//5
f 19//5 15//5 16//5
f 20//1 11//1 10//1
f 20//1 10//1 5//1
f 13//6 15//6 18//6
f 13//6 18//6 14//6
f 11//7 12//7 9//7
f 11//7 9//7 10//7
f 5//8 10//8 9//8
f 5//8 9//8 6//8
f 4//9 7//9 8//9
f 4//9 8//9 1//9
f 3//10 4//10 1//10
f 3//10 1//10 2//10
f 5//11 6//11 3//11
f 5//11 3//11 2//11
f 15//2 3//2 16//2
f 6//2 17//2 16//2
f 6//2 16//2 3//2
f 7//2 4//2 13//2
f 7//12 13//12 14//12
f 7//12 14//12 8//12
f 3//2 15//2 13//2
f 3//2 13//2 4//2
o Chassis_havok_s_leftTrack_1
v -0.912001 0.184048 1.753793
v -1.650000 0.184048 1.753793
v -1.650000 0.456262 1.832723
v -0.912001 0.456262 1.832723
v -0.912001 0.064773 1.656924
v -1.650000 0.064773 1.656924
v -1.650000 0.856478 1.753793
v -0.912001 0.856478 1.753793
v -0.912001 0.005759 1.513415
v -0.912001 0.005759 -1.511043
v -1.650000 0.005759 -1.511043
v -1.650000 0.005759 1.513415
v -1.650000 0.856478 -1.715544
v -0.912001 0.856478 -1.715544
v -0.912001 0.477042 -1.837527
v -0.912001 0.147476 -1.715544
v -0.912001 0.054799 -1.647377
v -1.650000 0.477042 -1.837527
v -1.650000 0.147476 -1.715544
v -1.650000 0.054799 -1.647377
vn 1.0000 -0.0000 -0.0000
vn -1.0000 -0.0000 -0.0000
vn -0.0000 0.9410 0.3385
vn -0.0000 0.5925 0.8056
vn -0.0000 0.3471 0.9378
vn -0.0000 -0.3061 0.9520
vn -0.0000 1.0000 -0.0000
vn -0.0000 0.9249 -0.3803
vn -0.0000 -0.1935 -0.9811
vn -0.0000 0.2785 -0.9604
vn -0.0000 0.6304 -0.7762
vn -0.0000 -1.0000 -0.0000
s 0
f 38//13 22//13 39//13
f 26//13 40//13 39//13
f 26//13 39//13 22//13
f 27//13 23//13 33//13
f 37//14 30//14 29//14
f 37//14 29//14 25//14
f 22//13 38//13 33//13
f 22//13 33//13 23//13
f 37//15 40//15 31//15
f 37//15 31//15 30//15
f 36//16 39//16 40//16
f 36//16 40//16 37//16
f 35//17 38//17 39//17
f 35//17 39//17 36//17
f 32//13 31//13 40//13
f 32//13 40//13 26//13
f 38//18 35//18 34//18
f 38//18 34//18 33//18
f 31//19 32//19 29//19
f 31//19 29//19 30//19
f 29//20 32//20 26//20
f 29//20 26//20 25//20
f 27//21 28//21 24//21
f 27//21 24//21 23//21
f 23//22 24//22 21//22
f 23//22 21//22 22//22
f 21//23 25//23 26//23
f 21//23 26//23 22//23
f 35//14 36//14 21//14
f 36//14 37//14 25//14
f 36//14 25//14 21//14
f 28//14 34//14 24//14
f 33//24 34//24 28//24
f 33//24 28//24 27//24
f 34//14 35//14 21//14
f 34//14 21//14 24//14
o Turret_01_havok_s_armor_1_0
v -0.064215 1.517737 -0.287724
v 0.000000 1.544979 -0.416154
v 0.064215 1.517737 -0.287724
vn -0.0000 -0.9782 -0.2075
s 0
f 41//25 42//25 43//25
o Hull_havok_s_armor_8_0
v -0.912001 1.198272 -2.512306
v -0.912001 1.153591 -2.591163
v -1.650000 1.153591 -2.591162
v -1.650000 1.198272 -2.512306
v -1.650000 1.225862 -2.425973
v -0.912001 1.225862 -2.425973
v -0.912001 1.093713 -2.659198
v -1.650000 1.093713 -2.659198
v -0.912001 1.021169 -2.713534
v -1.650000 1.021169 -2.713534
v -0.912001 0.938973 -2.751788
v -1.650000 0.938973 -2.751788
v -0.912001 0.773054 -2.805984
v -1.650000 0.773054 -2.805984
v -0.516240 0.773054 -2.805984
v -0.516240 0.938973 -2.751788
v 1.650005 1.153591 -2.591162
v 1.650005 1.093713 -2.659198
v 0.912094 1.093713 -2.659198
v 0.912094 1.153591 -2.591163
v 0.912094 1.198272 -2.512306
v 1.650005 1.198272 -2.512306
v 1.650005 1.021169 -2.713534
v 0.912094 1.021169 -2.713534
v 1.650005 0.938973 -2.751788
v 0.912094 0.938973 -2.751788
v 1.650005 0.773054 -2.805984
v 0.912092 0.773054 -2.805984
v 0.505524 0.773054 -2.805984
v 0.505524 0.938973 -2.751788
v 0.912094 1.235189 -2.335820
v 1.109959 1.235189 0.154130
v 1.650005 1.235189 2.724876
v 1.650005 1.235189 -2.335820
v 0.912094 1.235189 -0.738389
v 1.650005 1.595447 0.387245
v 1.650005 1.595449 2.967868
v 1.318196 1.749160 2.393294
v 1.318193 1.749163 1.713157
v 1.109959 1.595449 2.967868
v 1.109959 1.845626 2.032986
v 1.318190 1.845626 2.032841
v 1.109959 1.845626 1.713159
v 1.318189 1.845626 1.713155
v 1.109959 1.845626 0.387245
v 1.109959 1.845626 0.154130
v 1.650005 1.845626 0.154130
v 1.650005 1.845626 0.387245
v 1.109959 1.235189 2.724876
v 1.650005 1.225862 -2.425973
v 0.912094 1.225862 -2.425973
v -1.041078 1.235189 0.154130
v -1.650000 1.235189 -2.335820
v -1.650000 1.235189 2.724874
v -1.041079 1.235189 2.724876
v -0.912001 1.235189 -0.428104
v -0.912001 1.235189 -2.335820
v -1.041079 1.845625 0.992254
v -1.650000 1.595449 2.967868
v -1.649999 1.595446 -1.068010
v -1.041078 1.845624 0.154130
v -1.041079 1.595449 2.967868
vn -0.4203 -0.9074 -0.0000
vn -0.0000 -1.0000 -0.0000
vn -0.0000 1.0000 -0.0000
vn -0.0000 -0.9660 -0.2584
vn -0.4204 -0.9074 -0.0000
vn -0.0002 -0.9660 -0.2585
vn 0.3800 -0.9250 -0.0000
vn -0.0000 -0.9921 -0.1256
vn -0.0000 0.9947 -0.1029
vn -0.0000 0.9525 -0.3044
vn -0.0000 0.4219 -0.9066
vn -0.0000 0.3105 -0.9506
vn -0.0000 0.5995 -0.8004
vn -0.0000 0.8700 -0.4930
vn -0.0000 0.7507 -0.6607
s 0
f 82//26 86//26 88//26
f 82//26 88//26 79//26
f 89//27 90//27 91//27
f 89//27 91//27 88//27
f 92//28 76//28 75//28
f 80//29 83//29 81//29
f 81//30 82//30 79//30
f 81//26 79//26 80//26
f 84//31 85//31 81//31
f 84//31 81//31 83//31
f 86//27 87//27 85//27
f 86//27 85//27 84//27
f 103//32 104//32 101//32
f 103//32 101//32 102//32
f 101//33 105//33 102//33
f 96//34 100//34 49//34
f 96//34 49//34 48//34
f 99//28 100//28 96//28
f 99//28 96//28 95//28
f 64//35 94//35 93//35
f 64//35 93//35 65//35
f 77//34 93//34 94//34
f 77//34 94//34 74//34
f 97//28 98//28 95//28
f 97//28 95//28 96//28
f 75//28 74//28 78//28
f 52//36 54//36 55//36
f 52//36 55//36 53//36
f 56//37 57//37 55//37
f 56//37 55//37 54//37
f 54//37 59//37 58//37
f 54//37 58//37 56//37
f 50//38 52//38 53//38
f 50//38 53//38 51//38
f 46//39 47//39 44//39
f 46//39 44//39 45//39
f 48//35 49//35 44//35
f 48//35 44//35 47//35
f 50//40 51//40 46//40
f 50//40 46//40 45//40
f 68//37 70//37 71//37
f 68//37 71//37 69//37
f 72//37 73//37 69//37
f 72//37 69//37 71//37
f 76//28 77//28 74//28
f 76//28 74//28 75//28
f 68//36 69//36 67//36
f 68//36 67//36 66//36
f 62//40 63//40 60//40
f 62//40 60//40 61//40
f 64//39 65//39 60//39
f 64//39 60//39 63//39
f 66//38 67//38 62//38
f 66//38 62//38 61//38
o Hull_havok_s_armor_11_1
v -0.912001 1.130249 -3.340472
v -0.912001 1.218240 -2.910635
v -1.327416 1.218240 -2.910635
v -1.603412 1.130249 -3.340472
v -1.650001 1.146346 -3.261809
v 1.109959 1.845626 0.154130
v 0.912094 1.662918 -0.738389
v 1.650005 1.146346 -3.261809
v 1.650005 1.845626 0.154131
v 1.590338 1.130249 -3.340472
v 0.912094 1.130249 -3.340472
v -1.649999 1.595446 -1.068009
v -1.327416 1.476180 -1.650603
v -0.912001 1.476180 -1.650603
v -0.912001 1.726436 -0.428103
v -1.041078 1.845625 0.154130
vn -0.0000 -0.9797 0.2005
vn -0.0000 -0.9797 0.2006
vn -0.0001 -0.9797 0.2005
vn 0.0001 -0.9797 0.2005
s 0
f 119//41 120//41 117//41
f 119//42 117//42 118//42
f 121//41 117//41 120//41
f 118//42 117//42 110//42
f 118//42 110//42 108//42
f 112//41 116//41 115//41
f 112//43 115//43 113//43
f 108//41 109//41 106//41
f 108//41 106//41 107//41
f 110//44 109//44 108//44
f 113//42 114//42 111//42
f 113//42 111//42 112//42
o Hull_havok_s_armor_9_2
v 1.650005 1.087256 -3.208155
v 0.912094 1.087256 -3.208155
v 0.912092 0.773054 -2.805984
v 1.650005 0.773054 -2.805984
v 0.912094 0.938973 -2.751788
v 1.650005 0.938973 -2.751788
v 0.505523 1.087256 -3.208155
v 0.505523 0.773054 -2.805984
v 0.505523 0.938973 -2.751788
v 1.650005 1.021169 -2.713533
v 1.650005 1.104689 -3.261808
v 1.650005 1.093713 -2.659199
v 1.650005 1.146346 -3.261808
v 1.650005 1.153591 -2.591161
v 1.650005 1.198272 -2.512307
v 1.590338 1.130249 -3.340471
v -1.650001 1.087256 -3.208155
v -1.650001 0.773054 -2.805984
v -0.912001 0.773054 -2.805984
v -0.912001 1.087256 -3.208155
v -0.516240 0.773054 -2.805984
v -0.516240 1.087256 -3.208155
v -0.516240 0.938973 -2.751788
v -1.650001 0.938973 -2.751788
v -1.650001 1.093713 -2.659199
v -1.650001 1.021169 -2.713533
v -1.650001 1.198272 -2.512307
v -1.650001 1.153591 -2.591161
v -1.650001 1.225862 -2.425972
v 1.650005 1.845626 0.154131
v 1.650005 1.235189 -2.335820
v 1.650005 1.595447 0.387246
v 1.650005 1.225862 -2.425972
v 1.650005 1.235189 2.724876
v 1.650005 1.595449 2.967868
v 1.109959 1.235189 2.724876
v 1.109959 1.595449 2.967868
v 1.318193 1.749163 1.713157
v 1.318196 1.749160 2.393294
v 1.318190 1.845626 2.032842
v 1.318188 1.845626 1.713155
v 1.109959 1.845626 1.713158
v 1.650005 1.845626 0.387246
v 1.109959 1.845626 0.387246
v -1.650001 1.235189 2.724874
v -1.650001 1.235189 -2.335820
v -1.649999 1.595446 -1.068009
v -1.650001 1.595449 2.967868
v -1.650001 1.146346 -3.261808
v -1.650001 1.104689 -3.261808
v -1.603412 1.130249 -3.340471
v -1.041079 1.595449 2.967868
v -1.041079 1.235189 2.724874
vn -1.0000 -0.0000 -0.0000
vn -0.0000 0.5592 -0.8290
vn 1.0000 -0.0000 -0.0000
vn 0.8604 -0.0000 0.5096
vn -0.0000 -0.0000 1.0000
vn -0.0000 -0.0000 -1.0000
vn -0.0000 0.7880 0.6157
vn -0.0000 0.9511 0.3090
vn -0.7967 -0.0000 0.6043
s 0
f 155//45 156//45 153//45
f 155//45 153//45 152//45
f 157//46 158//46 156//46
f 157//46 156//46 155//46
f 161//45 162//45 159//45
f 161//45 159//45 160//45
f 134//45 136//45 154//45
f 134//45 154//45 152//45
f 148//47 149//47 138//47
f 148//47 138//47 150//47
f 146//47 138//47 149//47
f 152//45 153//45 151//45
f 152//45 151//45 134//45
f 138//47 171//47 168//47
f 138//47 168//47 150//47
f 167//47 150//47 168//47
f 173//46 174//46 166//46
f 173//46 166//46 169//46
f 170//47 168//47 171//47
f 170//48 171//48 172//48
f 162//49 163//49 159//49
f 164//45 151//45 153//45
f 164//50 153//50 165//50
f 168//47 169//47 166//47
f 168//47 166//47 167//47
f 122//45 125//45 127//45
f 131//45 132//45 122//45
f 131//45 122//45 127//45
f 131//45 133//45 134//45
f 131//45 134//45 132//45
f 128//47 130//47 129//47
f 124//51 125//51 122//51
f 124//51 122//51 123//51
f 123//52 126//52 127//52
f 123//52 127//52 122//52
f 128//51 129//51 124//51
f 128//51 124//51 123//51
f 143//45 142//45 144//45
f 138//47 145//47 139//47
f 147//47 145//47 138//47
f 147//47 138//47 146//47
f 140//51 142//51 143//51
f 140//51 143//51 141//51
f 134//45 133//45 135//45
f 134//45 135//45 136//45
f 134//53 137//53 132//53
f 140//51 141//51 138//51
f 140//51 138//51 139//51
o Hull_havok_s_armor_10_3
v -0.912001 0.938973 -2.751788
v -0.912001 1.087256 -3.208154
v -1.650001 1.087256 -3.208154
v -1.650001 0.938973 -2.751788
v -1.603412 1.130249 -3.340472
v -1.650001 1.104689 -3.261809
v -0.912001 1.130249 -3.340472
v 0.912093 1.130249 -3.340472
v 0.912093 1.087256 -3.208154
v 1.650004 1.087256 -3.208154
v 1.650004 1.104689 -3.261809
v 1.590338 1.130249 -3.340472
vn -0.0000 0.9511 0.3090
s 0
f 184//54 185//54 182//54
f 184//54 182//54 183//54
f 182//54 185//54 186//54
f 177//54 176//54 180//54
f 177//54 178//54 175//54
f 177//54 175//54 176//54
f 176//54 181//54 179//54
f 176//54 179//54 180//54
o Hull_havok_s_surveyingDevice_4
v 0.934332 1.956396 0.600356
v 0.863907 1.956396 0.479234
v 0.944158 1.951631 0.625540
v 0.963812 1.931998 0.606352
v 0.865545 1.958003 1.030880
v 0.938426 1.961734 0.909758
v 0.121173 1.956166 0.908558
v 0.190779 1.956568 1.029681
v 0.109709 1.953353 0.884574
v 0.094969 1.939231 0.892968
v 0.121173 1.956625 0.600356
v 0.191598 1.955821 0.479234
v 0.206338 1.953468 0.457648
v 0.180952 1.931883 0.451651
v 0.849167 1.954157 1.052466
v 0.874552 1.932285 1.058462
v 0.457737 1.956510 1.183182
v 0.596130 1.961103 1.186780
v 0.595311 1.957601 0.324533
v 0.460194 1.956912 0.324533
v -0.446318 1.915695 -0.040033
v -0.712458 1.915695 -0.040033
v -0.446318 1.915695 0.010334
v -0.712458 1.915695 0.010334
v -0.712458 1.844226 0.059503
v -0.446318 1.844226 0.059503
v 0.944411 1.924408 0.540771
v 0.921027 1.924408 0.500271
v 0.896122 1.922000 0.460764
v 0.875835 1.921221 0.443589
v 0.854015 1.932243 0.435038
v 0.874478 1.983529 0.581146
v 0.851096 1.983529 0.540647
v 0.826186 1.981113 0.501141
v 0.815896 1.973379 0.478193
v 0.819408 1.962358 0.455019
v 0.833364 1.947297 0.439220
v 0.967381 1.932219 0.631432
v 0.953429 1.947275 0.647228
v 0.932774 1.962334 0.651413
v 0.970889 1.921200 0.608258
v 0.966172 1.922000 0.582094
v 0.910950 1.973359 0.642864
v 0.896236 1.981113 0.622472
v 0.851096 1.983528 0.968129
v 0.874478 1.983528 0.927628
v 0.815879 1.973352 1.030571
v 0.826186 1.981113 1.007634
v 0.944411 1.924408 0.968004
v 0.921027 1.924408 1.008503
v 0.896122 1.922000 1.048011
v 0.970912 1.921235 0.900529
v 0.966172 1.922000 0.926681
v 0.967408 1.932259 0.877359
v 0.953466 1.947310 0.861569
v 0.932801 1.962374 0.857379
v 0.896236 1.981113 0.886304
v 0.910974 1.973393 0.865924
v 0.180823 1.983528 0.927628
v 0.134273 1.924408 1.008504
v 0.159180 1.922000 1.048011
v 0.229115 1.981113 1.007634
v 0.239414 1.973365 1.030576
v 0.204205 1.983528 0.968129
v 0.110891 1.924408 0.968004
v 0.089130 1.922000 0.926681
v 0.084407 1.921207 0.900519
v 0.087914 1.932227 0.877347
v 0.101866 1.947284 0.861551
v 0.122521 1.962342 0.857367
v 0.159064 1.981113 0.886304
v 0.144345 1.973365 0.865914
v 0.087894 1.932259 0.631417
v 0.084390 1.921235 0.608245
v 0.101835 1.947310 0.647207
v 0.122500 1.962374 0.651397
v 0.159065 1.981113 0.622472
v 0.144328 1.973393 0.642851
v 0.110891 1.924408 0.540771
v 0.134273 1.924408 0.500271
v 0.089130 1.922000 0.582094
v 0.204205 1.983528 0.540647
v 0.180823 1.983528 0.581146
v 0.229115 1.981113 0.501141
v 0.239423 1.973351 0.478203
v 0.235915 1.962324 0.455031
v 0.221964 1.947265 0.439236
v 0.159179 1.922000 0.460764
v 0.235904 1.962342 1.053750
v 0.221952 1.947284 1.069546
v 0.201297 1.932227 1.073730
v 0.179475 1.921207 1.065181
v 0.853993 1.932209 1.073723
v 0.833337 1.947266 1.069538
v 0.819386 1.962325 1.053743
v 0.875817 1.921193 1.065176
v 0.504268 1.924408 1.222120
v 0.457600 1.922000 1.220304
v 0.592632 1.981511 1.139775
v 0.457600 1.981113 1.139550
v 0.414268 1.932227 1.196690
v 0.407565 1.947284 1.176709
v 0.414268 1.962342 1.156729
v 0.432583 1.921207 1.211313
v 0.432583 1.973365 1.142102
v 0.647737 1.947285 1.176709
v 0.641033 1.932227 1.196690
v 0.641033 1.962342 1.156729
v 0.622718 1.921207 1.211313
v 0.597701 1.922000 1.220304
v 0.622718 1.973365 1.142102
v 0.551033 1.924408 1.222120
v 0.622718 1.921207 0.297462
v 0.641034 1.932227 0.312085
v 0.592632 1.922348 0.288176
v 0.551033 1.924408 0.286655
v 0.647737 1.947285 0.332066
v 0.641034 1.962342 0.352046
v 0.504268 1.924408 0.286655
v 0.432583 1.921207 0.297462
v 0.462669 1.922348 0.288177
v 0.414269 1.932227 0.312085
v 0.407565 1.947285 0.332066
v 0.414269 1.962342 0.352046
v 0.551033 1.983528 0.367405
v 0.504267 1.983528 0.367405
v 0.597701 1.981113 0.369225
v 0.622718 1.973365 0.366673
v 0.457600 1.981113 0.369225
v 0.432583 1.973365 0.366673
v 0.201308 1.932209 0.435051
v 0.179484 1.921194 0.443599
v -0.712458 1.805878 -0.040033
v -0.446267 1.805878 -0.040033
v -0.712458 1.826364 0.060038
v -0.446267 1.826364 0.060038
vn 0.1593 -0.6822 -0.7136
vn 0.2587 -0.7080 -0.6572
vn 0.1610 -0.8745 -0.4574
vn 0.2144 -0.8505 -0.4803
vn 0.2191 -0.8131 -0.5393
vn 0.2182 -0.7428 -0.6330
vn 0.0641 -0.7310 -0.6793
vn 0.0420 -0.7457 -0.6650
vn 0.0034 -0.8711 -0.4912
vn 0.0408 -0.9154 -0.4005
vn -0.0000 -0.6937 -0.7203
vn -0.0630 -0.6510 -0.7564
vn -0.2376 -0.6886 0.6852
vn -0.1745 -0.6689 0.7226
vn -0.2319 -0.8940 -0.3834
vn -0.2151 -0.9015 -0.3754
vn -0.3138 -0.8059 -0.5021
vn -0.3130 -0.7051 -0.6364
vn -0.2800 -0.6313 -0.7232
vn -0.2303 -0.6165 -0.7530
vn -0.5201 -0.4849 -0.7031
vn -0.5568 -0.4756 -0.6810
vn 0.3517 -0.8129 -0.4643
vn 0.3094 -0.8761 -0.3698
vn 0.4355 -0.7399 -0.5128
vn 0.5172 -0.7351 0.4384
vn 0.5210 -0.7339 0.4358
vn 0.2873 -0.8071 0.5158
vn 0.5485 -0.7392 0.3908
vn -0.2596 -0.8867 -0.3827
vn -0.2728 -0.8899 -0.3655
vn -0.5543 -0.6913 -0.4636
vn -0.4938 -0.7106 -0.5013
vn -0.2430 -0.8002 -0.5483
vn 0.5385 -0.6765 -0.5024
vn 0.4441 -0.7015 -0.5573
vn -0.3739 -0.6864 -0.6238
vn -0.4393 -0.6730 -0.5951
vn -0.0000 -1.0000 -0.0000
vn 1.0000 -0.0000 -0.0000
vn -0.0000 -0.0000 1.0000
vn 0.4003 -0.7102 0.5791
vn 0.4609 -0.6953 0.5515
vn 0.5310 -0.5552 0.6402
vn 0.5229 -0.5575 0.6448
vn -1.0000 -0.0005 0.0001
vn -1.0000 -0.0029 -0.0021
vn -1.0000 -0.0000 -0.0000
vn -0.0000 -0.0300 -0.9996
vn -0.0000 -0.5668 -0.8239
vn 0.2159 -0.8533 0.4746
vn 0.1669 -0.8765 0.4516
vn 0.1679 -0.6747 0.7187
vn 0.2356 -0.6963 0.6780
vn 0.0610 -0.7213 0.6899
vn -0.0000 -0.7589 0.6512
vn 0.0038 -0.7543 0.6565
vn -0.0609 -0.7143 0.6971
vn -0.2365 -0.8124 0.5329
vn -0.2360 -0.7364 0.6341
vn -0.2187 -0.8587 0.4634
vn -0.1754 -0.8792 0.4430
vn 0.0640 -0.8760 0.4781
vn -0.0639 -0.8818 0.4673
vn 0.2256 -0.8129 0.5369
vn 0.2260 -0.7400 0.6335
vn -0.0000 -0.8496 0.5274
vn 0.0044 -0.8537 0.5208
vn 0.2963 -0.8791 0.3735
vn 0.3318 -0.8862 0.3232
vn -0.4354 -0.8644 -0.2514
vn -0.3747 -0.8920 -0.2529
vn -0.2664 -0.8703 -0.4142
vn -0.3577 -0.8909 -0.2800
vn -0.4897 -0.8605 0.1405
vn -0.5298 -0.8468 0.0465
vn -0.6229 -0.7283 0.2856
vn -0.6476 -0.7246 0.2356
vn -0.5218 -0.8514 0.0528
vn -0.4551 -0.8702 0.1887
vn -0.7234 -0.6902 -0.0192
vn -0.7874 -0.5943 -0.1637
vn -0.5953 -0.8017 0.0541
vn -0.7010 -0.6310 -0.3324
vn -0.7876 -0.6033 -0.1251
vn -0.5834 -0.7391 -0.3368
vn -0.6042 -0.6977 -0.3850
vn -0.5878 -0.6957 -0.4129
vn -0.8395 -0.5263 0.1353
vn -0.8398 -0.5285 0.1241
vn -0.4715 -0.8388 0.2722
vn -0.4684 -0.8405 0.2724
vn -0.3100 -0.8502 0.4255
vn -0.3939 -0.8683 0.3015
vn -0.5384 -0.6829 0.4937
vn -0.4400 -0.7084 0.5518
vn -0.5496 -0.7728 0.3173
vn -0.5511 -0.7705 0.3204
vn -0.5553 -0.7320 0.3947
vn -0.6469 -0.7547 0.1096
vn -0.5760 -0.8132 0.0829
vn -0.6552 -0.7441 0.1306
vn -0.6529 -0.7509 0.0995
vn -0.3585 -0.8132 0.4585
vn -0.3172 -0.8742 0.3677
vn -0.4396 -0.7431 0.5045
vn 0.5771 -0.8130 0.0766
vn 0.5200 -0.8525 0.0531
vn 0.4757 -0.8754 0.0862
vn 0.6593 -0.7415 0.1247
vn 0.7006 -0.6797 0.2174
vn 0.5255 -0.8489 -0.0568
vn 0.4591 -0.8676 -0.1910
vn 0.4711 -0.8794 -0.0687
vn 0.4513 -0.8854 -0.1119
vn 0.4534 -0.8713 0.1878
vn 0.3190 -0.8450 0.4293
vn 0.4025 -0.8626 0.3065
vn 0.4799 -0.8324 0.2771
vn 0.4678 -0.8391 0.2776
vn 0.5422 -0.7798 0.3130
vn 0.5470 -0.7723 0.3232
vn 0.6234 -0.7277 0.2859
vn 0.7011 -0.7050 0.1065
vn 0.5906 -0.8069 0.0115
vn 0.5619 -0.7249 -0.3984
vn 0.3875 -0.8725 -0.2977
vn 0.3026 -0.8536 -0.4241
vn 0.5561 -0.7683 -0.3170
vn 0.4712 -0.8404 -0.2680
vn -0.3525 -0.9265 -0.1314
vn -0.4309 -0.9019 0.0300
vn -0.4391 -0.8977 0.0362
vn 0.8301 -0.5417 -0.1320
vn 0.8297 -0.5420 -0.1333
vn 0.7041 -0.7081 -0.0532
vn 0.6944 -0.7195 0.0090
vn 0.5685 -0.7683 -0.2942
vn 0.6485 -0.7273 -0.2247
vn 0.4647 -0.8439 -0.2683
vn 0.5500 -0.7725 -0.3175
vn 0.6197 -0.7317 -0.2837
s 0
f 290//55 287//55 203//55
f 290//56 203//56 284//56
f 203//57 289//57 291//57
f 203//58 291//58 286//58
f 288//59 289//59 203//59
f 288//60 203//60 287//60
f 283//61 284//61 203//61
f 283//62 203//62 204//62
f 203//63 286//63 285//63
f 203//64 285//64 204//64
f 298//65 283//65 204//65
f 298//66 204//66 296//66
f 205//67 301//67 299//67
f 205//68 299//68 300//68
f 297//69 294//69 204//69
f 297//70 204//70 285//70
f 204//71 294//71 292//71
f 204//72 292//72 293//72
f 295//73 296//73 204//73
f 295//74 204//74 293//74
f 282//75 279//75 202//75
f 282//76 202//76 237//76
f 275//77 276//77 194//77
f 275//78 194//78 249//78
f 277//79 194//79 276//79
f 198//80 274//80 200//80
f 198//81 200//81 199//81
f 273//82 272//82 199//82
f 274//83 198//83 266//83
f 201//84 281//84 233//84
f 201//85 233//85 191//85
f 191//86 237//86 202//86
f 191//87 202//87 201//87
f 280//88 281//88 201//88
f 194//89 277//89 278//89
f 194//90 278//90 247//90
f 279//91 280//91 201//91
f 279//92 201//92 202//92
f 209//93 210//93 208//93
f 209//93 208//93 207//93
f 319//94 208//94 321//94
f 319//95 320//95 207//95
f 319//95 207//95 208//95
f 317//96 273//96 199//96
f 317//97 199//97 200//97
f 318//98 317//98 200//98
f 318//99 200//99 274//99
f 320//100 322//100 207//100
f 207//101 322//101 212//101
f 207//102 212//102 209//102
f 322//103 321//103 211//103
f 322//103 211//103 212//103
f 211//94 321//94 208//94
f 211//94 208//94 210//94
f 212//104 211//104 210//104
f 212//104 210//104 209//104
f 206//105 315//105 316//105
f 206//106 316//106 310//106
f 206//107 308//107 306//107
f 206//108 306//108 307//108
f 305//109 206//109 307//109
f 206//110 305//110 302//110
f 206//111 302//111 205//111
f 301//112 205//112 302//112
f 303//113 304//113 205//113
f 303//114 205//114 300//114
f 314//115 313//115 205//115
f 314//116 205//116 304//116
f 315//117 206//117 312//117
f 311//118 205//118 313//118
f 206//119 310//119 309//119
f 206//120 309//120 308//120
f 311//121 312//121 206//121
f 311//122 206//122 205//122
f 199//123 272//123 271//123
f 199//124 271//124 198//124
f 191//125 231//125 232//125
f 191//126 232//126 192//126
f 191//127 233//127 234//127
f 191//128 234//128 231//128
f 189//129 226//129 229//129
f 189//130 229//130 187//130
f 187//131 213//131 228//131
f 187//132 228//132 190//132
f 187//133 229//133 230//133
f 187//134 230//134 218//134
f 192//135 241//135 240//135
f 192//136 240//136 238//136
f 241//137 192//137 242//137
f 239//138 235//138 192//138
f 239//139 192//139 238//139
f 235//140 236//140 191//140
f 235//141 191//141 192//141
f 237//142 191//142 236//142
f 190//143 228//143 227//143
f 190//144 227//144 224//144
f 218//145 219//145 188//145
f 218//146 188//146 187//146
f 220//147 221//147 188//147
f 220//148 188//148 219//148
f 188//149 217//149 216//149
f 188//150 216//150 215//150
f 188//151 214//151 213//151
f 188//152 213//152 187//152
f 214//153 188//153 215//153
f 187//154 190//154 189//154
f 226//155 189//155 225//155
f 224//156 225//156 189//156
f 224//157 189//157 190//157
f 222//158 223//158 188//158
f 222//159 188//159 221//159
f 217//160 188//160 223//160
f 262//161 261//161 197//161
f 197//162 263//162 264//162
f 197//163 264//163 262//163
f 197//164 261//164 259//164
f 197//165 259//165 260//165
f 193//166 258//166 257//166
f 193//167 257//167 245//167
f 195//168 256//168 258//168
f 195//169 258//169 193//169
f 263//170 197//170 269//170
f 198//171 271//171 270//171
f 198//172 270//172 268//172
f 198//173 268//173 269//173
f 198//174 269//174 197//174
f 265//175 266//175 198//175
f 265//176 198//176 197//176
f 267//177 265//177 197//177
f 267//178 197//178 260//178
f 255//179 256//179 195//179
f 246//180 194//180 247//180
f 194//181 250//181 248//181
f 194//182 248//182 249//182
f 194//183 246//183 193//183
f 194//184 193//184 245//184
f 243//185 192//185 232//185
f 192//186 243//186 244//186
f 192//187 244//187 242//187
f 253//188 254//188 196//188
f 253//189 196//189 252//189
f 254//190 255//190 195//190
f 254//191 195//191 196//191
f 252//192 196//192 195//192
f 252//193 195//193 193//193
f 245//194 250//194 194//194
f 193//195 246//195 251//195
f 193//196 251//196 252//196
o Hull_havok_s_armor_7_5
v 0.349624 2.074375 0.696096
v 0.349624 2.054730 0.581319
v 0.349624 2.071232 0.827140
v 0.236174 2.035610 0.699711
v 0.236174 2.014568 0.591260
v 0.243698 2.034038 0.826236
v 0.373383 2.016315 0.462927
v 0.260131 2.005401 0.527997
v 0.312599 2.009854 0.488232
v 0.305670 2.047920 0.886788
v 0.421495 2.073764 0.887692
v 0.281317 2.040150 0.884077
v 0.257360 2.011600 0.957281
v 0.255974 2.032205 0.873232
v 0.265477 1.981478 1.044041
v 0.235976 1.962357 1.053982
v 0.239342 1.973358 1.030485
v 0.229047 1.981129 1.007891
v 0.236174 1.926473 1.118149
v 0.272407 1.955111 1.100074
v 0.298740 1.945157 1.132609
v 0.249638 1.895653 1.170567
v 0.336160 1.895653 1.216658
v 0.432583 1.921235 1.211236
v 0.414169 1.932236 1.196776
v 0.407636 1.947253 1.176893
v 0.414169 1.962357 1.157011
v 0.432583 1.973358 1.142550
v 0.349624 1.959040 0.369840
v 0.414169 1.932236 0.312000
v 0.407636 1.947253 0.331883
v 0.414169 1.962357 0.351765
v 0.432583 1.973358 0.366225
v 0.349624 1.981565 0.406894
v 0.432583 1.921235 0.297540
v 0.336160 1.895653 0.292117
v 0.236174 1.926473 0.390627
v 0.249638 1.895653 0.338209
v 0.236174 1.947777 0.425873
v 0.235976 1.962357 0.454793
v 0.239342 1.973358 0.478291
v 0.229047 1.981129 0.500885
v 0.130843 1.975628 0.804546
v 0.193606 2.013783 0.775626
v 0.218355 2.021291 0.835274
v 0.144306 1.973358 0.866002
v 0.159155 1.981129 0.885884
v 0.234392 2.025744 0.856060
v 0.130843 1.975628 0.704230
v 0.184696 2.007758 0.707845
v 0.204298 1.983486 0.968126
v 0.180737 1.983486 0.927457
v 0.089066 1.922021 0.926553
v 0.110845 1.924378 0.968126
v 0.122527 1.962357 0.856964
v 0.101936 1.947253 0.861483
v 0.036994 1.895653 0.852445
v 0.027293 1.895653 0.753936
v 0.084314 1.921235 0.900344
v 0.065307 1.895653 0.945532
v 0.087878 1.932236 0.877750
v 0.173807 1.895653 1.108208
v 0.111637 1.895653 1.032292
v 0.159155 1.922021 1.047656
v 0.179549 1.921235 1.064828
v 0.134208 1.924378 1.008795
v 0.201328 1.932236 1.073865
v 0.221919 1.947253 1.069346
v 0.110845 1.924378 0.540650
v 0.204298 1.983486 0.540650
v 0.180737 1.983486 0.581319
v 0.089066 1.922021 0.582223
v 0.134208 1.924378 0.499981
v 0.159155 1.981129 0.622892
v 0.084314 1.921235 0.608432
v 0.065307 1.895653 0.563244
v 0.111637 1.895653 0.476483
v 0.159155 1.922021 0.461120
v 0.219147 2.003567 0.581319
v 0.173807 1.895653 0.400568
v 0.179549 1.921235 0.443948
v 0.201328 1.932236 0.434911
v 0.221919 1.947253 0.439429
v 0.122527 1.962357 0.651812
v 0.144306 1.973358 0.642774
v 0.101738 1.947340 0.647293
v 0.087878 1.932236 0.631025
v 0.036994 1.895653 0.656331
v 0.193606 2.004353 0.642774
v 0.565265 2.043653 0.487441
v 0.608553 2.068997 0.578510
v 0.619703 2.053617 0.529100
v 0.705733 2.014344 0.471940
v 0.705733 2.052069 0.581416
v 0.659056 2.062226 0.581416
v 0.587565 1.998673 0.396372
v 0.622764 1.973329 0.366339
v 0.728033 1.966268 0.394434
v 0.597731 1.981068 0.369245
v 0.551054 1.983486 0.367307
v 0.617736 2.092600 0.698643
v 0.595764 2.093664 0.831372
v 0.684198 2.078187 0.777118
v 0.661789 2.078864 0.832340
v 0.693599 2.074898 0.706394
v 0.684745 2.069868 0.645358
v 0.705733 2.071222 0.696706
v 0.705733 2.071222 0.811995
v 0.719179 1.895653 0.291740
v 0.647688 1.947308 0.332430
v 0.641020 1.932218 0.312085
v 0.622764 1.921191 0.297553
v 0.641020 1.962302 0.351806
v 0.592594 1.922351 0.287864
v 0.625278 1.895653 0.263644
v 0.551054 1.924383 0.286896
v 0.622764 1.973329 1.142362
v 0.587565 2.032433 1.044512
v 0.705733 2.014344 1.036761
v 0.715681 1.969073 1.114267
v 0.592594 1.981552 1.139456
v 0.641020 1.962302 1.156895
v 0.647688 1.947308 1.176271
v 0.587565 2.071222 0.932129
v 0.705733 2.050231 0.923409
v 0.571387 2.082057 0.887563
v 0.622983 2.079348 0.873031
v 0.595326 2.080799 0.884657
v 0.643315 2.078864 0.856561
v 0.723005 1.932218 1.168520
v 0.641020 1.932218 1.196616
v 0.622764 1.921191 1.211148
v 0.597731 1.921964 1.219868
v 0.719179 1.895653 1.216961
v 0.625278 1.895653 1.245057
v 0.551054 1.924383 1.221805
v 0.504268 1.924383 1.221805
v 0.527661 1.895653 1.254745
v 1.018403 1.895653 0.852264
v 0.970948 1.921239 0.900683
v 0.967429 1.932271 0.877165
v 0.953449 1.947297 0.861256
v 0.989968 1.895653 0.945644
v 1.028008 1.895653 0.754042
v 1.018403 1.895653 0.656512
v 0.924443 1.975587 0.704239
v 0.932812 1.962322 0.651670
v 0.953449 1.947297 0.647520
v 0.924443 1.975587 0.804536
v 0.932812 1.962365 0.857106
v 0.910939 1.973397 0.866098
v 0.896198 1.981125 0.886157
v 0.874515 1.983529 0.927659
v 0.966193 1.922011 0.926968
v 0.944415 1.924415 0.967778
v 0.851121 1.983529 0.968470
v 0.921020 1.924415 1.008589
v 0.896103 1.922011 1.048016
v 0.943654 1.895653 1.032107
v 0.881458 1.895653 1.108194
v 0.875847 1.921196 1.065308
v 0.833337 1.947254 1.069459
v 0.853974 1.932229 1.073609
v 0.881458 1.895653 0.400582
v 0.943654 1.895653 0.476669
v 0.896103 1.922011 0.460760
v 0.875847 1.921239 0.443467
v 0.944415 1.924415 0.540997
v 0.921020 1.924415 0.500187
v 0.853974 1.932229 0.435167
v 0.967334 1.932229 0.631610
v 0.970853 1.921196 0.608093
v 0.989968 1.895653 0.563132
v 0.966193 1.922011 0.581808
v 0.874515 1.983529 0.581116
v 0.851121 1.983529 0.540306
v 0.910939 1.973354 0.642678
v 0.896198 1.981125 0.622618
v 0.833337 1.947297 0.439317
v 0.492847 2.078042 0.577024
v 0.494203 2.100000 0.695266
v 0.495779 2.095025 0.825710
v 0.440671 2.024807 0.454305
v 0.454270 2.070325 0.929723
v 0.506788 2.081771 0.887268
v 0.451106 2.030945 1.044288
v 0.336172 1.845625 1.216658
v 0.249666 1.845625 1.170420
v 0.430035 1.895653 1.245131
v 0.430035 1.845625 1.245131
v 0.457600 1.922000 1.220304
v 0.457600 1.981113 1.139551
v 0.457600 1.981113 0.369225
v 0.462669 1.922348 0.288177
v 0.430035 1.895653 0.263644
v 0.249666 1.845625 0.338355
v 0.336172 1.845625 0.292117
v 0.430035 1.845625 0.263644
v 0.527651 1.895653 0.254030
v 0.504268 1.924408 0.286654
v 0.504268 1.983528 0.367405
v 0.505935 2.034223 0.463310
v 0.036907 1.845625 0.852003
v 0.065380 1.845625 0.945866
v 0.027293 1.845625 0.754387
v 0.111618 1.845625 1.032371
v 0.173844 1.845625 1.108194
v 0.065380 1.845625 0.562909
v 0.111618 1.845625 0.476403
v 0.173844 1.845625 0.400581
v 0.036907 1.845625 0.656773
v 0.819088 2.014363 0.591285
v 0.815896 1.973379 0.478193
v 0.826186 1.981113 0.501141
v 0.819088 2.032423 0.699521
v 0.819088 2.032423 0.809254
v 0.805634 1.895653 0.338355
v 0.819088 1.937277 0.408623
v 0.805634 1.845625 0.338355
v 0.719129 1.845625 0.292117
v 0.819408 1.962358 0.455019
v 0.625265 1.845625 0.263644
v 0.527651 1.845625 0.254030
v 0.819386 1.962325 1.053744
v 0.819088 1.926808 1.117320
v 0.815879 1.973352 1.030571
v 0.826186 1.981113 1.007634
v 0.820601 2.011552 0.916494
v 0.719129 1.845626 1.216658
v 0.625265 1.845626 1.245131
v 0.805634 1.895653 1.170420
v 0.805634 1.845626 1.170420
v 0.527651 1.845626 1.254745
v 1.018394 1.845626 0.852003
v 0.989921 1.845626 0.945866
v 1.028008 1.845625 0.754387
v 1.018394 1.845625 0.656773
v 0.943683 1.845626 1.032371
v 0.881457 1.845626 1.108194
v 0.943683 1.845625 0.476403
v 0.881457 1.845625 0.400581
v 0.989920 1.845625 0.562909
vn 0.5130 -0.7983 -0.3155
vn 0.5117 -0.8073 -0.2940
vn 0.5099 -0.8079 -0.2954
vn 0.4560 -0.7631 -0.4581
vn 0.4010 -0.7948 -0.4555
vn 0.3692 -0.8141 -0.4482
vn 0.5226 -0.7985 -0.2990
vn 0.6344 0.0026 -0.7730
vn 0.6352 0.0007 -0.7724
vn 0.4746 -0.8061 -0.3536
vn 0.4822 -0.8041 -0.3478
vn 0.5336 -0.7711 -0.3473
vn 0.3829 -0.7828 -0.4906
vn 0.6121 -0.7859 0.0874
vn 0.5428 -0.8060 0.2361
vn 0.6151 -0.7168 0.3285
vn 0.6070 -0.7454 0.2757
vn 0.6997 -0.7066 0.1057
vn 0.5110 -0.8079 0.2936
vn 0.3920 -0.8095 -0.4371
vn 0.3837 -0.8164 -0.4316
vn 0.3982 -0.8671 -0.2993
vn 0.3424 -0.8772 -0.3366
vn 0.5425 -0.8055 0.2385
vn 0.5106 -0.8073 0.2958
vn 0.8286 -0.5435 -0.1339
vn 0.6166 -0.7674 -0.1756
vn 0.9569 -0.0005 -0.2903
vn 0.9567 0.0009 -0.2910
vn 0.9952 -0.0009 -0.0980
vn 0.5491 -0.8101 -0.2055
vn 0.5135 -0.8261 -0.2319
vn 0.6441 -0.7228 -0.2503
vn 0.6050 -0.7746 -0.1840
vn 0.6276 -0.7617 -0.1608
vn 0.6070 -0.7454 -0.2757
vn 0.6997 -0.7066 -0.1057
vn 0.6151 -0.7168 -0.3285
vn 0.4411 -0.7196 -0.5364
vn 0.5372 -0.7557 -0.3746
vn 0.4517 -0.7672 -0.4553
vn 0.8819 -0.0011 -0.4714
vn 0.8821 -0.0019 -0.4710
vn 0.5402 -0.7158 -0.4424
vn 0.3415 -0.8287 -0.4435
vn 0.5865 -0.7365 -0.3369
vn 0.5400 -0.7449 -0.3918
vn 0.7730 0.0007 -0.6344
vn 0.7737 -0.0013 -0.6336
vn 0.8819 -0.0019 0.4714
vn 0.8821 -0.0011 0.4710
vn 0.6051 -0.7746 0.1840
vn 0.6281 -0.7755 0.0642
vn 0.6287 -0.7752 0.0625
vn 0.9569 0.0009 0.2903
vn 0.9567 -0.0006 0.2910
vn 0.6441 -0.7228 0.2503
vn 0.6292 -0.7587 0.1684
vn 0.4920 -0.8594 0.1395
vn 0.5647 -0.8170 0.1173
vn 0.5122 -0.8017 0.3080
vn 0.5242 -0.8015 0.2877
vn 0.5707 -0.8140 0.1081
vn 0.5638 -0.7741 0.2880
vn 0.5286 -0.8408 0.1164
vn 0.5002 -0.8543 0.1411
vn 0.4865 -0.8665 0.1120
vn 0.4224 -0.8898 0.1726
vn 0.4777 -0.8784 0.0153
vn 0.4481 -0.8719 0.1974
vn 0.9952 0.0009 0.0980
vn 0.9951 -0.0009 0.0989
vn 0.4540 -0.8683 0.1998
vn 0.4687 -0.8617 0.1944
vn 0.5311 -0.8447 0.0665
vn 0.4070 -0.8612 0.3044
vn 0.7730 -0.0013 0.6344
vn 0.7737 0.0007 0.6336
vn 0.5402 -0.7158 0.4424
vn 0.3415 -0.8287 0.4435
vn 0.4475 -0.8559 0.2592
vn 0.4746 -0.8061 0.3536
vn 0.4822 -0.8041 0.3478
vn 0.5865 -0.7365 0.3369
vn 0.5400 -0.7449 0.3918
vn 0.4052 -0.8698 0.2815
vn 0.4012 -0.8726 0.2784
vn 0.4204 -0.8091 0.4108
vn 0.4547 -0.8068 0.3772
vn 0.4621 -0.7674 0.4445
vn 0.5381 -0.5207 0.6628
vn 0.4079 -0.7901 0.4576
vn 0.4608 -0.8273 0.3213
vn 0.4560 -0.7631 0.4581
vn 0.4637 -0.7583 0.4583
vn 0.6344 0.0007 0.7730
vn 0.6352 0.0026 0.7724
vn 0.4411 -0.7196 0.5364
vn 0.5372 -0.7557 0.3746
vn 0.4517 -0.7672 0.4553
vn 0.6113 -0.7914 -0.0000
vn 0.2323 -0.7847 -0.5747
vn 0.1772 -0.7919 -0.5844
vn 0.2323 -0.7848 -0.5745
vn 0.0355 -0.7731 -0.6333
vn 0.0713 -0.7845 -0.6160
vn 0.2903 -0.0000 -0.9569
vn 0.2902 0.0001 -0.9570
vn 0.4322 -0.8389 -0.3308
vn 0.4755 -0.7424 -0.4720
vn 0.3530 -0.7641 -0.5399
vn 0.3526 -0.7761 -0.5228
vn 0.4714 0.0001 -0.8819
vn 0.4702 0.0029 -0.8826
vn 0.2344 -0.8097 -0.5381
vn 0.2173 -0.8902 -0.4005
vn 0.2204 -0.8591 -0.4619
vn 0.2321 -0.8687 -0.4375
vn 0.2109 -0.8602 -0.4643
vn 0.2163 -0.8708 -0.4415
vn 0.2306 -0.8932 -0.3859
vn 0.1179 -0.8090 -0.5759
vn 0.1435 -0.6910 -0.7084
vn 0.1918 -0.7518 -0.6309
vn 0.2473 -0.7827 -0.5711
vn 0.3096 -0.7526 -0.5811
vn 0.1612 -0.9286 0.3343
vn 0.1600 -0.9290 0.3336
vn 0.3109 -0.8986 0.3096
vn 0.3424 -0.9027 0.2605
vn 0.2393 -0.9084 0.3428
vn 0.3223 -0.9461 -0.0309
vn 0.3314 -0.9432 -0.0226
vn 0.1727 -0.9688 0.1779
vn 0.1633 -0.9724 0.1664
vn 0.1742 -0.9839 -0.0396
vn 0.1604 -0.9868 -0.0237
vn 0.3422 -0.9224 0.1790
vn 0.3237 -0.9326 0.1596
vn 0.2130 -0.9462 -0.2435
vn 0.0916 -0.9841 -0.1520
vn 0.0900 -0.9702 -0.2250
vn 0.1576 -0.9766 -0.1462
vn 0.2315 -0.9220 -0.3105
vn 0.2427 -0.9092 -0.3384
vn 0.2302 -0.9203 -0.3164
vn 0.3297 -0.9361 -0.1229
vn 0.2143 -0.9529 -0.2145
vn 0.3195 -0.9135 -0.2517
vn 0.3783 -0.8976 -0.2263
vn 0.3457 -0.9298 -0.1266
vn 0.3128 -0.9441 -0.1037
vn 0.2685 -0.7242 0.6352
vn 0.1961 -0.8108 0.5515
vn 0.4546 -0.8756 -0.1631
vn 0.5247 -0.8491 -0.0600
vn 0.5119 -0.8590 0.0091
vn 0.5195 -0.8545 -0.0000
vn 0.4298 -0.9006 -0.0650
vn 0.4052 -0.9135 -0.0354
vn 0.4963 -0.8567 -0.1404
vn 0.4859 -0.8691 -0.0922
vn 0.1541 -0.8593 0.4878
vn 0.1694 -0.8681 0.4666
vn 0.0631 -0.8828 0.4655
vn 0.0639 -0.8825 0.4659
vn 0.2069 -0.8529 0.4792
vn 0.5425 -0.8055 -0.2385
vn 0.4920 -0.8594 -0.1395
vn 0.5710 -0.8128 -0.1152
vn 0.6289 -0.7750 -0.0619
vn 0.6265 -0.7764 -0.0689
vn 0.5428 -0.8060 -0.2361
vn 0.5930 -0.7943 -0.1324
vn 0.4105 -0.9035 -0.1232
vn 0.3814 -0.9145 -0.1353
vn 0.4040 -0.8843 -0.2340
vn 0.4205 -0.8796 -0.2226
vn 0.4470 -0.8757 -0.1824
vn 0.4252 -0.8821 -0.2025
vn 0.1915 -0.7515 0.6313
vn 0.2117 -0.7750 0.5954
vn 0.3221 -0.7776 0.5400
vn 0.3037 -0.7635 0.5700
vn 0.4714 0.0029 0.8819
vn 0.4702 0.0001 0.8826
vn 0.2103 -0.7852 0.5825
vn 0.0021 -0.7971 0.6038
vn 0.0053 -0.7971 0.6038
vn 0.1677 -0.8424 0.5121
vn 0.1709 -0.8768 0.4494
vn 0.0355 -0.7731 0.6333
vn 0.1855 -0.8123 0.5530
vn 0.3801 -0.8574 0.3470
vn 0.3350 -0.8404 0.4260
vn 0.2941 -0.8546 0.4279
vn 0.3675 -0.8441 0.3904
vn 0.3231 -0.8099 0.4895
vn 0.3223 -0.8089 0.4917
vn 0.3231 -0.8385 0.4387
vn 0.2681 -0.8655 0.4231
vn 0.2903 0.0001 0.9569
vn 0.2903 -0.0000 0.9569
vn 0.0610 -0.7267 0.6842
vn 0.0681 -0.7190 0.6917
vn -0.0036 -0.7981 0.6026
vn 0.2093 -0.7880 0.5790
vn -0.1897 -0.9600 -0.2060
vn -0.1485 -0.9610 -0.2333
vn -0.2135 -0.9633 -0.1629
vn -0.3214 -0.9039 -0.2822
vn -0.3185 -0.9037 -0.2861
vn 0.0053 -0.9774 -0.2114
vn -0.0018 -0.9792 -0.2031
vn -0.0794 -0.9689 -0.2346
vn -0.2014 -0.9543 -0.2207
vn -0.1870 -0.9518 -0.2429
vn -0.2406 -0.9531 -0.1835
vn -0.2486 -0.9519 -0.1793
vn 0.0110 -0.9688 -0.2476
vn 0.0054 -0.9712 -0.2381
vn -0.0766 -0.9749 -0.2092
vn -0.1423 -0.9655 -0.2180
vn -0.3430 -0.8673 -0.3608
vn -0.3356 -0.8362 -0.4338
vn -0.1839 -0.8589 -0.4781
vn -0.1637 -0.8694 -0.4662
vn -0.1930 -0.8691 -0.4555
vn -0.0517 -0.7334 0.6779
vn -0.0685 -0.7150 0.6957
vn -0.0038 -0.7515 0.6597
vn -0.1091 -0.8040 -0.5846
vn -0.2009 -0.8853 -0.4195
vn 0.0108 -0.9457 -0.3248
vn 0.0123 -0.9452 -0.3262
vn -0.3237 -0.8254 -0.4626
vn -0.3159 -0.8364 -0.4480
vn 0.0104 -0.8857 -0.4641
vn 0.0025 -0.8814 -0.4725
vn -0.1882 -0.9363 -0.2964
vn -0.1639 -0.9325 -0.3219
vn 0.0601 -0.8055 -0.5896
vn -0.0662 -0.8037 -0.5913
vn -0.3162 -0.7450 -0.5873
vn -0.0000 -0.8232 -0.5678
vn 0.0023 -0.8220 -0.5695
vn -0.0661 -0.7283 -0.6821
vn -0.0679 -0.7261 -0.6842
vn 0.0980 -0.0000 -0.9952
vn -0.0980 -0.0014 -0.9952
vn -0.0988 -0.0000 -0.9951
vn -0.0000 -0.7536 -0.6573
vn 0.0679 -0.7209 -0.6897
vn 0.0592 -0.7311 -0.6797
vn -0.4714 -0.0000 -0.8819
vn -0.4740 0.0058 -0.8805
vn -0.2181 -0.8067 -0.5492
vn -0.2146 -0.7495 -0.6262
vn -0.2233 -0.7899 -0.5711
vn -0.0383 -0.7723 -0.6341
vn -0.3236 -0.9296 -0.1763
vn -0.3226 -0.9302 -0.1752
vn -0.2261 -0.8197 -0.5263
vn -0.1751 -0.8777 -0.4461
vn -0.0814 -0.7876 -0.6108
vn -0.2903 0.0061 -0.9569
vn -0.2867 -0.0013 -0.9580
vn -0.3306 -0.7751 -0.5385
vn -0.3139 -0.8045 -0.5041
vn -0.1885 -0.7534 -0.6300
vn -0.2056 -0.7732 -0.5999
vn 0.0034 -0.7987 -0.6018
vn -0.2248 -0.7863 -0.5755
vn -0.0115 -0.9992 -0.0380
vn -0.0597 -0.9982 -0.0019
vn -0.2170 -0.9732 -0.0761
vn -0.1860 -0.9823 -0.0229
vn -0.3366 -0.8405 0.4245
vn -0.0789 -0.9800 0.1829
vn -0.0640 -0.9783 0.1971
vn -0.2287 -0.9734 0.0149
vn -0.1665 -0.9651 0.2023
vn -0.2368 -0.9649 0.1139
vn -0.1407 -0.9748 0.1730
vn -0.2084 -0.9578 0.1982
vn -0.2850 -0.9585 0.0067
vn -0.2066 -0.9722 0.1101
vn -0.2023 -0.9768 -0.0701
vn -0.1913 -0.8578 0.4770
vn -0.1427 -0.9009 0.4100
vn -0.2103 -0.9243 0.3185
vn -0.1439 -0.9033 0.4041
vn -0.2025 -0.9304 0.3054
vn -0.1431 -0.9537 0.2646
vn 0.0831 -0.9266 0.3666
vn 0.0020 -0.9330 0.3598
vn -0.0781 -0.9502 0.3016
vn -0.0450 -0.9567 0.2876
vn -0.3455 -0.8791 0.3283
vn -0.3243 -0.8943 0.3082
vn -0.2088 -0.8542 0.4761
vn -0.1889 -0.8484 0.4945
vn 0.0002 -0.8864 0.4629
vn -0.0658 -0.8481 0.5258
vn -0.0567 -0.9381 0.3416
vn -0.0018 -0.8841 0.4673
vn -0.0343 -0.8994 0.4358
vn -0.2903 0.0001 0.9569
vn -0.2866 0.0075 0.9580
vn -0.2156 -0.7876 0.5772
vn -0.1747 -0.7927 0.5840
vn -0.0005 -0.7969 0.6041
vn -0.0187 -0.7938 0.6078
vn 0.0148 -0.8054 0.5925
vn 0.0647 -0.8060 0.5884
vn 0.0615 -0.8053 0.5896
vn 0.0980 -0.0000 0.9952
vn -0.0980 -0.0000 0.9952
vn 0.0005 -0.8069 0.5907
vn -0.0035 -0.8058 0.5922
vn -0.0531 -0.8046 0.5914
vn -0.0662 -0.8072 0.5866
vn -0.2165 -0.7852 0.5802
vn -0.1736 -0.7848 0.5949
vn -0.3230 -0.9335 0.1558
vn -0.3239 -0.9335 0.1535
vn -0.3313 -0.7826 0.5270
vn -0.3008 -0.7735 0.5578
vn -0.3237 -0.9461 -0.0047
vn -0.3233 -0.9332 0.1568
vn -0.3238 -0.9461 -0.0000
vn -0.3177 -0.9482 0.0068
vn -0.4714 0.0071 0.8819
vn -0.4746 -0.0000 0.8802
vn -0.1917 -0.7572 0.6244
vn -0.1415 -0.6949 0.7051
vn -0.1774 -0.8784 0.4438
vn -0.2301 -0.8064 0.5448
vn -0.3338 -0.8283 0.4500
vn -0.2868 -0.8813 0.3757
vn -0.2487 -0.7880 0.5633
vn -0.6276 -0.7594 0.1716
vn -0.6407 -0.7275 0.2454
vn -0.6344 -0.0000 0.7730
vn -0.4544 -0.7681 0.4512
vn -0.5267 -0.7585 0.3836
vn -0.6039 -0.7756 0.1839
vn -0.6060 -0.7447 0.2795
vn -0.7014 -0.7053 0.1025
vn -0.6132 -0.7184 0.3285
vn -0.9569 -0.0004 0.2903
vn -0.9566 0.0017 0.2913
vn -0.4268 -0.7399 0.5200
vn -0.4504 -0.7684 -0.4547
vn -0.5277 -0.7584 -0.3826
vn -0.4389 -0.7220 -0.5348
vn -0.4598 -0.7589 -0.4611
vn -0.3644 -0.8123 -0.4555
vn -0.6344 -0.0000 -0.7730
vn -0.7730 -0.0000 0.6344
vn -0.7742 -0.0038 0.6329
vn -0.5867 -0.7367 0.3363
vn -0.5428 -0.7447 0.3884
vn -0.5435 -0.7123 0.4442
vn -0.3493 -0.8241 0.4460
vn -0.4608 -0.7582 0.4614
vn -0.3804 -0.8124 0.4418
vn -0.2068 -0.8953 0.3945
vn -0.4333 -0.8109 0.3934
vn -0.4977 -0.7839 0.3712
vn -0.4415 -0.8850 0.1477
vn -0.4515 -0.8728 0.1853
vn -0.4909 -0.8601 0.1389
vn -0.5181 -0.8538 0.0500
vn -0.4751 -0.8694 0.1357
vn -0.3771 -0.8782 0.2942
vn -0.4354 -0.8650 0.2496
vn -0.5236 -0.7750 0.3537
vn -0.3840 -0.7857 0.4850
vn -0.5419 -0.8049 0.2418
vn -0.5131 -0.8064 0.2941
vn -0.8819 -0.0030 0.4714
vn -0.8815 -0.0013 0.4722
vn -0.5946 -0.7935 0.1296
vn -0.5426 -0.8059 0.2368
vn -0.4766 -0.8051 0.3531
vn -0.4786 -0.8046 0.3515
vn -0.8299 -0.5425 0.1303
vn -0.6286 -0.7589 0.1701
vn -0.5124 -0.8267 0.2322
vn -0.5487 -0.8104 0.2054
vn -0.5241 -0.7991 -0.2944
vn -0.5244 -0.7991 -0.2939
vn -0.6264 -0.7771 -0.0613
vn -0.6360 -0.7662 -0.0915
vn -0.5872 -0.8093 -0.0185
vn -0.5173 -0.8543 -0.0511
vn -0.4751 -0.8695 -0.1351
vn -0.5426 -0.8059 -0.2368
vn -0.6124 -0.7857 -0.0877
vn -0.4251 -0.8896 -0.1671
vn -0.4262 -0.8883 -0.1712
vn -0.4907 -0.8603 -0.1382
vn -0.6110 -0.7916 -0.0000
vn -0.9569 0.0017 -0.2903
vn -0.9566 -0.0004 -0.2913
vn -0.6055 -0.7742 -0.1844
vn -0.6417 -0.7268 -0.2449
vn -0.6277 -0.7604 -0.1666
vn -0.9952 -0.0007 -0.0980
vn -0.9953 0.0007 -0.0973
vn -0.6264 -0.7771 0.0617
vn -0.5862 -0.8100 0.0176
vn -0.6358 -0.7663 0.0922
vn -0.9952 0.0007 0.0980
vn -0.8819 -0.0013 -0.4714
vn -0.8815 -0.0030 -0.4722
vn -0.6999 -0.7063 -0.1059
vn -0.6060 -0.7447 -0.2795
vn -0.6132 -0.7184 -0.3285
vn -0.7730 -0.0038 -0.6344
vn -0.7742 -0.0000 -0.6329
vn -0.4618 -0.7604 -0.4566
vn -0.5253 -0.5587 -0.6418
vn -0.4532 -0.8093 -0.3738
vn -0.5435 -0.7123 -0.4442
vn -0.3474 -0.8249 -0.4459
vn -0.5428 -0.7447 -0.3884
vn -0.5867 -0.7367 -0.3363
vn -0.5131 -0.8064 -0.2941
vn -0.5419 -0.8049 -0.2418
vn -0.4748 -0.8801 -0.0000
vn -0.5715 -0.8137 -0.1065
vn -0.5669 -0.7752 -0.2788
vn -0.4589 -0.8272 -0.3242
vn -0.4090 -0.7927 -0.4520
vn -0.4766 -0.8051 -0.3531
vn -0.4786 -0.8046 -0.3515
vn -0.3492 -0.8950 -0.2775
vn -0.4096 -0.8815 -0.2348
s 0
f 390//197 389//197 338//197
f 388//198 376//198 374//198
f 388//199 374//199 373//199
f 341//200 389//200 390//200
f 341//201 390//201 342//201
f 389//202 340//202 339//202
f 389//203 339//203 338//203
f 344//204 510//204 529//204
f 344//205 529//205 384//205
f 386//206 388//206 373//206
f 386//207 373//207 340//207
f 340//208 389//208 387//208
f 340//209 387//209 386//209
f 396//210 397//210 394//210
f 396//211 394//211 393//211
f 391//212 398//212 399//212
f 398//213 391//213 394//213
f 398//214 394//214 397//214
f 391//215 395//215 392//215
f 342//216 390//216 338//216
f 342//217 338//217 337//217
f 340//218 373//218 335//218
f 340//219 335//219 337//219
f 393//220 394//220 391//220
f 393//221 391//221 392//221
f 375//222 381//222 383//222
f 375//223 383//223 378//223
f 382//224 526//224 525//224
f 382//225 525//225 379//225
f 379//226 525//226 527//226
f 379//226 527//226 380//226
f 375//227 378//227 377//227
f 375//228 377//228 368//228
f 379//229 383//229 381//229
f 379//230 381//230 382//230
f 378//231 383//231 379//231
f 375//232 376//232 382//232
f 375//233 382//233 381//233
f 382//234 376//234 385//234
f 384//235 341//235 344//235
f 384//236 387//236 389//236
f 384//237 389//237 341//237
f 385//238 528//238 526//238
f 385//239 526//239 382//239
f 384//240 385//240 386//240
f 384//241 386//241 387//241
f 385//242 376//242 388//242
f 385//243 388//243 386//243
f 384//244 529//244 528//244
f 384//245 528//245 385//245
f 398//246 530//246 531//246
f 398//247 531//247 399//247
f 410//248 398//248 397//248
f 410//249 408//249 371//249
f 410//250 371//250 380//250
f 410//251 533//251 530//251
f 410//252 530//252 398//252
f 410//253 397//253 409//253
f 410//254 409//254 408//254
f 406//255 407//255 371//255
f 406//256 371//256 408//256
f 406//257 408//257 409//257
f 406//258 409//258 407//258
f 396//259 407//259 409//259
f 396//260 409//260 397//260
f 407//261 411//261 372//261
f 407//262 372//262 371//262
f 326//263 372//263 411//263
f 326//264 411//264 327//264
f 366//265 372//265 326//265
f 327//266 411//266 401//266
f 380//267 527//267 533//267
f 380//268 533//268 410//268
f 393//269 401//269 411//269
f 393//270 411//270 396//270
f 396//271 411//271 407//271
f 364//272 330//272 392//272
f 399//273 531//273 532//273
f 399//274 532//274 402//274
f 400//275 399//275 402//275
f 400//276 402//276 403//276
f 393//277 392//277 401//277
f 392//278 395//278 400//278
f 392//279 400//279 364//279
f 395//280 391//280 399//280
f 395//281 399//281 400//281
f 401//282 392//282 330//282
f 401//283 330//283 327//283
f 405//284 361//284 362//284
f 405//285 362//285 400//285
f 404//286 405//286 400//286
f 404//287 400//287 403//287
f 363//288 364//288 400//288
f 363//289 400//289 362//289
f 405//290 404//290 359//290
f 405//291 359//291 361//291
f 402//292 532//292 518//292
f 402//293 518//293 360//293
f 360//294 359//294 402//294
f 404//295 403//295 402//295
f 404//296 402//296 359//296
f 380//297 371//297 365//297
f 346//298 513//298 511//298
f 346//299 511//299 345//299
f 514//300 513//300 346//300
f 514//301 346//301 347//301
f 347//302 348//302 514//302
f 511//303 512//303 509//303
f 511//304 509//304 345//304
f 337//305 338//305 339//305
f 337//306 339//306 340//306
f 343//307 344//307 341//307
f 343//308 341//308 342//308
f 345//309 509//309 510//309
f 345//310 510//310 344//310
f 349//311 348//311 343//311
f 349//312 343//312 350//312
f 508//313 350//313 342//313
f 508//314 342//314 337//314
f 514//315 350//315 508//315
f 343//316 342//316 350//316
f 349//317 350//317 514//317
f 349//318 514//318 348//318
f 347//319 346//319 345//319
f 347//320 345//320 348//320
f 343//321 348//321 345//321
f 343//322 345//322 344//322
f 505//323 502//323 324//323
f 505//324 324//324 329//324
f 330//325 331//325 324//325
f 330//326 324//326 327//326
f 331//327 329//327 324//327
f 328//328 326//328 323//328
f 328//329 323//329 325//329
f 502//330 503//330 323//330
f 502//331 323//331 324//331
f 323//332 503//332 504//332
f 323//333 504//333 325//333
f 326//334 327//334 324//334
f 326//335 324//335 323//335
f 506//336 332//336 333//336
f 506//337 333//337 507//337
f 504//338 507//338 333//338
f 504//339 333//339 325//339
f 335//340 506//340 508//340
f 335//341 508//341 337//341
f 335//342 332//342 506//342
f 332//343 328//343 325//343
f 332//344 325//344 333//344
f 334//345 332//345 335//345
f 334//346 335//346 336//346
f 334//347 336//347 328//347
f 334//348 328//348 332//348
f 351//349 352//349 353//349
f 351//350 353//350 354//350
f 367//351 370//351 369//351
f 367//352 369//352 368//352
f 371//353 372//353 366//353
f 371//354 366//354 365//354
f 328//355 367//355 366//355
f 328//356 366//356 326//356
f 367//357 368//357 365//357
f 367//358 365//358 366//358
f 356//359 355//359 505//359
f 356//360 505//360 329//360
f 523//361 524//361 505//361
f 523//362 505//362 515//362
f 515//363 505//363 355//363
f 376//364 375//364 374//364
f 365//365 368//365 377//365
f 365//366 377//366 378//366
f 379//367 380//367 365//367
f 379//368 365//368 378//368
f 369//369 374//369 375//369
f 369//370 375//370 368//370
f 370//371 367//371 328//371
f 370//372 328//372 336//372
f 373//373 374//373 336//373
f 373//374 336//374 335//374
f 374//375 369//375 370//375
f 374//376 370//376 336//376
f 358//377 517//377 352//377
f 358//378 352//378 351//378
f 351//379 359//379 360//379
f 351//380 360//380 358//380
f 360//381 518//381 519//381
f 360//382 519//382 358//382
f 357//383 516//383 515//383
f 352//384 355//384 354//384
f 352//385 354//385 353//385
f 355//386 356//386 351//386
f 355//387 351//387 354//387
f 352//388 357//388 515//388
f 352//389 515//389 355//389
f 331//390 363//390 362//390
f 331//391 362//391 361//391
f 330//392 364//392 363//392
f 330//393 363//393 331//393
f 356//394 361//394 359//394
f 356//395 359//395 351//395
f 331//396 361//396 356//396
f 331//397 356//397 329//397
f 358//398 519//398 520//398
f 358//399 520//399 517//399
f 521//400 522//400 516//400
f 521//401 516//401 517//401
f 357//402 352//402 517//402
f 357//403 517//403 516//403
f 424//404 451//404 449//404
f 424//405 449//405 450//405
f 426//406 451//406 424//406
f 447//407 550//407 549//407
f 447//408 549//408 441//408
f 448//409 507//409 504//409
f 448//410 504//410 424//410
f 450//411 448//411 424//411
f 449//412 451//412 447//412
f 449//413 447//413 446//413
f 447//414 451//414 426//414
f 447//415 426//415 430//415
f 446//416 506//416 507//416
f 446//417 507//417 448//417
f 446//418 448//418 450//418
f 446//419 450//419 449//419
f 548//420 546//420 441//420
f 548//421 441//421 549//421
f 441//422 442//422 439//422
f 441//423 439//423 440//423
f 439//424 443//424 440//424
f 436//425 438//425 521//425
f 436//426 521//426 437//426
f 438//427 522//427 521//427
f 444//428 445//428 443//428
f 444//429 443//429 439//429
f 440//430 508//430 506//430
f 440//431 506//431 446//431
f 546//432 547//432 442//432
f 546//433 442//433 441//433
f 514//434 508//434 440//434
f 514//435 440//435 443//435
f 446//436 447//436 441//436
f 446//437 441//437 440//437
f 459//438 513//438 514//438
f 455//439 458//439 443//439
f 553//440 456//440 452//440
f 458//441 459//441 514//441
f 458//442 514//442 443//442
f 460//443 458//443 455//443
f 460//444 455//444 457//444
f 460//445 555//445 512//445
f 460//445 512//445 511//445
f 457//446 552//446 555//446
f 457//447 555//447 460//447
f 458//448 460//448 459//448
f 460//449 511//449 513//449
f 460//450 513//450 459//450
f 553//451 554//451 551//451
f 553//452 551//452 456//452
f 445//453 444//453 452//453
f 445//454 452//454 453//454
f 454//455 455//455 443//455
f 454//456 443//456 453//456
f 538//457 550//457 447//457
f 538//458 447//458 430//458
f 442//459 452//459 444//459
f 442//460 444//460 439//460
f 445//461 453//461 443//461
f 456//462 551//462 552//462
f 456//463 552//463 457//463
f 547//464 553//464 452//464
f 547//465 452//465 442//465
f 456//466 457//466 453//466
f 456//467 453//467 452//467
f 454//468 453//468 457//468
f 454//469 457//469 455//469
f 424//470 504//470 503//470
f 424//471 503//471 423//471
f 425//472 426//472 424//472
f 425//473 424//473 423//473
f 420//474 535//474 415//474
f 503//475 502//475 413//475
f 503//476 413//476 423//476
f 427//477 425//477 423//477
f 423//478 413//478 428//478
f 423//479 428//479 427//479
f 428//480 413//480 417//480
f 428//481 417//481 416//481
f 429//482 425//482 427//482
f 429//483 427//483 428//483
f 425//484 430//484 426//484
f 418//485 420//485 415//485
f 418//486 415//486 412//486
f 415//487 416//487 414//487
f 415//488 414//488 412//488
f 414//489 416//489 417//489
f 414//490 417//490 413//490
f 502//491 505//491 524//491
f 502//492 524//492 412//492
f 413//493 502//493 412//493
f 413//494 412//494 414//494
f 415//495 535//495 534//495
f 415//496 534//496 416//496
f 418//497 421//497 419//497
f 418//498 419//498 420//498
f 418//499 523//499 422//499
f 418//500 422//500 421//500
f 536//501 534//501 535//501
f 524//502 523//502 418//502
f 524//503 418//503 412//503
f 437//504 544//504 542//504
f 437//505 542//505 431//505
f 434//506 436//506 437//506
f 434//507 437//507 431//507
f 419//508 434//508 435//508
f 432//509 435//509 434//509
f 432//510 434//510 433//510
f 523//511 515//511 516//511
f 523//512 516//512 522//512
f 545//513 521//513 517//513
f 545//513 517//513 520//513
f 521//514 545//514 544//514
f 521//514 544//514 437//514
f 422//515 523//515 522//515
f 422//516 522//516 438//516
f 422//517 438//517 436//517
f 422//518 436//518 421//518
f 421//519 436//519 434//519
f 421//520 434//520 419//520
f 534//521 537//521 428//521
f 534//522 428//522 416//522
f 539//523 540//523 420//523
f 539//524 420//524 431//524
f 537//525 425//525 429//525
f 537//526 429//526 428//526
f 537//527 538//527 430//527
f 537//528 430//528 425//528
f 431//529 542//529 541//529
f 431//530 541//530 539//530
f 431//531 432//531 433//531
f 431//532 433//532 434//532
f 420//533 419//533 435//533
f 420//534 435//534 432//534
f 420//535 540//535 543//535
f 420//536 543//536 535//536
f 431//537 420//537 432//537
f 467//538 470//538 493//538
f 467//539 493//539 494//539
f 539//540 541//540 563//540
f 539//540 563//540 486//540
f 492//541 540//541 486//541
f 492//542 486//542 489//542
f 494//543 495//543 467//543
f 496//544 490//544 495//544
f 496//545 495//545 494//545
f 495//546 490//546 487//546
f 495//547 564//547 559//547
f 495//548 559//548 467//548
f 539//549 486//549 540//549
f 482//550 547//550 485//550
f 482//551 485//551 483//551
f 553//552 547//552 482//552
f 484//553 485//553 547//553
f 484//554 547//554 546//554
f 554//555 553//555 482//555
f 554//555 482//555 561//555
f 486//556 563//556 562//556
f 486//557 562//557 487//557
f 487//558 490//558 491//558
f 487//559 491//559 488//559
f 486//560 487//560 488//560
f 486//561 488//561 489//561
f 540//562 492//562 501//562
f 540//563 501//563 543//563
f 536//564 535//564 543//564
f 536//565 543//565 501//565
f 501//566 492//566 536//566
f 500//567 537//567 534//567
f 500//568 534//568 497//568
f 469//569 468//569 499//569
f 537//570 500//570 499//570
f 537//571 499//571 468//571
f 534//572 536//572 498//572
f 534//573 498//573 497//573
f 536//574 492//574 489//574
f 536//575 489//575 488//575
f 490//576 496//576 497//576
f 497//577 498//577 491//577
f 497//577 491//577 490//577
f 487//578 562//578 564//578
f 487//579 564//579 495//579
f 496//580 499//580 500//580
f 496//581 500//581 497//581
f 498//582 536//582 488//582
f 498//583 488//583 491//583
f 496//584 494//584 493//584
f 496//585 493//585 470//585
f 469//586 499//586 496//586
f 469//587 496//587 470//587
f 463//588 473//588 472//588
f 463//589 472//589 464//589
f 464//590 466//590 461//590
f 472//591 471//591 466//591
f 472//592 466//592 464//592
f 473//593 474//593 538//593
f 473//594 538//594 471//594
f 476//595 475//595 474//595
f 476//596 474//596 462//596
f 550//597 538//597 474//597
f 550//598 474//598 475//598
f 472//599 473//599 471//599
f 471//600 468//600 466//600
f 461//601 556//601 557//601
f 461//602 557//602 465//602
f 461//603 465//603 462//603
f 461//604 462//604 463//604
f 461//605 463//605 464//605
f 466//606 558//606 556//606
f 466//607 556//607 461//607
f 467//608 466//608 470//608
f 469//609 470//609 466//609
f 469//610 466//610 468//610
f 467//611 559//611 558//611
f 467//611 558//611 466//611
f 465//612 557//612 560//612
f 465//613 560//613 481//613
f 476//614 462//614 465//614
f 476//615 465//615 477//615
f 477//616 465//616 481//616
f 481//617 560//617 561//617
f 481//618 561//618 482//618
f 485//619 484//619 480//619
f 485//620 480//620 483//620
f 546//621 480//621 484//621
f 480//622 481//622 482//622
f 480//623 482//623 483//623
f 481//624 480//624 479//624
f 481//625 479//625 477//625
f 477//626 478//626 475//626
f 477//627 475//627 476//627
f 538//628 537//628 468//628
f 538//628 468//628 471//628
f 474//629 473//629 463//629
f 474//630 463//630 462//630
f 477//626 479//626 478//626
f 480//631 546//631 548//631
f 480//632 548//632 549//632
f 480//633 549//633 478//633
f 480//634 478//634 479//634
f 478//635 549//635 550//635
f 478//636 550//636 475//636
o Hull_havok_s_armor_5_6
v 0.375040 1.595449 2.967868
v 0.332223 1.845626 2.033129
v 1.109959 1.845626 2.032986
v 1.109959 1.595449 2.967868
v 0.332208 1.727478 2.779323
v -0.343966 1.727465 2.779323
v -0.343958 1.845626 2.033406
v -0.386793 1.595449 2.967868
v 0.173844 1.845625 1.108194
v 0.249667 1.845625 1.170420
v 0.336172 1.845625 1.216658
v 0.430035 1.845625 1.245131
v -0.413092 1.845625 0.992255
v 0.036907 1.845625 0.852003
v 0.065380 1.845625 0.945866
v 0.111618 1.845625 1.032371
v 1.109959 1.845626 1.713159
v 0.527651 1.845626 1.254745
v 0.625265 1.845626 1.245131
v 0.719130 1.845626 1.216658
v 0.805635 1.845626 1.170420
v -1.041080 1.595449 2.967868
v -1.041080 1.845625 0.992255
v -0.912000 1.845625 0.154130
v 0.173843 1.845625 0.400581
v 0.111618 1.845625 0.476403
v 0.065380 1.845625 0.562909
v 0.036907 1.845625 0.656773
v 0.027293 1.845625 0.754388
v -1.041078 1.845625 0.154130
v 0.336172 1.845625 0.292118
v 0.249667 1.845625 0.338355
v 0.527651 1.845625 0.254030
v 0.430035 1.845625 0.263644
v 0.912093 1.845626 0.154129
v 0.881456 1.845625 0.400582
v 0.805635 1.845625 0.338356
v 0.719130 1.845625 0.292118
v 0.943683 1.845625 0.476403
v 1.109959 1.845626 0.387246
v 1.109959 1.845626 0.154130
v 0.625265 1.845625 0.263644
v 0.943683 1.845626 1.032371
v 0.989921 1.845626 0.945866
v 1.018394 1.845626 0.852003
v 1.018394 1.845625 0.656773
v 0.989921 1.845625 0.562909
v 1.028009 1.845625 0.754388
v 0.881456 1.845626 1.108194
vn -0.0000 -1.0000 -0.0000
vn -0.0000 -0.9660 -0.2585
vn -0.0001 -0.9877 -0.1565
vn -0.0000 -0.9877 -0.1564
vn -0.0000 -0.8192 -0.5736
vn -0.0000 -0.8191 -0.5736
vn -0.0000 -0.9921 -0.1256
s 0
f 599//637 597//637 588//637
f 599//637 600//637 601//637
f 599//637 601//637 602//637
f 603//637 600//637 599//637
f 598//637 595//637 588//637
f 598//637 588//637 597//637
f 593//637 578//637 577//637
f 593//637 577//637 592//637
f 587//637 594//637 588//637
f 587//637 588//637 577//637
f 596//637 589//637 588//637
f 596//637 588//637 595//637
f 611//637 603//637 604//637
f 611//637 604//637 610//637
f 604//637 609//637 612//637
f 604//637 612//637 610//637
f 581//637 585//637 613//637
f 581//637 613//637 607//637
f 581//637 609//637 604//637
f 599//637 605//637 604//637
f 599//637 604//637 603//637
f 606//637 597//637 599//637
f 606//637 599//637 602//637
f 581//637 607//637 608//637
f 581//637 608//637 609//637
f 566//637 573//637 574//637
f 566//637 574//637 575//637
f 575//637 576//637 566//637
f 577//637 578//637 579//637
f 577//637 579//637 571//637
f 571//637 573//637 566//637
f 567//638 568//638 565//638
f 567//638 565//638 566//638
f 570//639 571//639 566//639
f 570//640 566//640 569//640
f 572//641 570//641 569//641
f 572//642 569//642 565//642
f 586//643 587//643 577//643
f 586//643 577//643 572//643
f 589//637 590//637 577//637
f 589//637 577//637 588//637
f 577//637 590//637 591//637
f 577//637 591//637 592//637
f 581//637 583//637 584//637
f 581//637 584//637 585//637
f 580//637 573//637 571//637
f 580//637 571//637 579//637
f 576//637 581//637 567//637
f 576//637 567//637 566//637
f 581//637 576//637 582//637
f 581//637 582//637 583//637
o Hull_havok_s_armor_1_7
v -0.446267 1.805878 -0.040033
v -0.712457 1.805878 -0.040033
v -0.446267 1.826364 0.060038
v -0.712457 1.826364 0.060038
v -0.912001 1.130249 -3.340472
v 0.912093 1.130249 -3.340472
v 0.912093 1.662918 -0.738388
v -0.667036 1.218240 -2.910635
v -0.667036 1.476180 -1.650604
v -0.912001 1.726436 -0.428104
v -0.912001 1.476180 -1.650604
v -0.912001 1.218240 -2.910635
v 1.109959 1.845626 0.154130
v 0.912093 1.845626 0.154129
v -0.912001 1.845625 0.154130
v -1.041078 1.845625 0.154130
vn -0.0000 -0.9797 0.2005
vn -0.0000 -0.9797 0.2006
s 0
f 627//644 628//644 617//644
f 627//645 617//645 616//645
f 620//645 626//645 627//645
f 620//645 627//645 616//645
f 616//644 617//644 615//644
f 616//644 615//644 614//644
f 629//645 623//645 628//645
f 617//644 628//644 623//644
f 617//644 623//644 615//644
f 620//644 616//644 614//644
f 620//645 614//645 622//645
f 621//645 620//645 622//645
f 620//644 621//644 618//644
f 620//644 618//644 619//644
f 614//645 615//645 622//645
f 625//644 618//644 621//644
f 623//645 624//645 622//645
f 623//645 622//645 615//645
o Hull_havok_s_armor_2_8
v -0.516240 0.938973 -2.751788
v 0.505524 0.938973 -2.751788
v 0.505524 1.087256 -3.208154
v -0.516240 1.087256 -3.208154
v -0.912001 0.938973 -2.751788
v -0.912001 0.439996 -1.216105
v 0.912093 0.439996 -1.216105
v 0.912093 0.938973 -2.751788
v 0.912093 1.087256 -3.208154
v -0.912001 1.087256 -3.208154
v 0.912093 1.130249 -3.340472
v -0.912001 1.130249 -3.340472
vn -0.0000 0.9511 0.3090
s 0
f 632//646 640//646 641//646
f 632//646 641//646 633//646
f 639//646 634//646 630//646
f 639//646 630//646 633//646
f 633//646 641//646 639//646
f 638//646 640//646 632//646
f 631//646 630//646 636//646
f 631//646 636//646 637//646
f 634//646 635//646 636//646
f 634//646 636//646 630//646
f 631//646 632//646 633//646
f 631//646 633//646 630//646
f 631//646 637//646 638//646
f 631//646 638//646 632//646
o Hull_havok_s_armor_3_9
v -0.912001 1.235189 -2.335820
v -0.912001 1.093728 -2.659259
v -0.912001 1.153637 -2.591322
v -0.912001 1.198282 -2.512308
v -0.912001 1.225883 -2.425910
v -0.912001 1.021168 -2.713534
v 0.912093 1.235189 -2.335820
v 0.912093 1.198282 -2.512308
v 0.912093 1.153637 -2.591322
v 0.912093 1.093728 -2.659259
v 0.912093 1.225883 -2.425910
v 0.912093 1.021168 -2.713534
v -0.912000 1.235189 -0.428103
v -0.912000 1.235189 2.724876
v -0.912000 0.440000 2.191834
v -0.912000 0.439996 -1.216106
v -1.041080 1.235189 2.724874
v -1.041078 1.235189 0.154131
v -1.041080 1.845626 0.992255
v -1.041080 1.595449 2.967868
v -1.041078 1.845625 0.154131
v -0.912000 1.726436 -0.428103
v -0.413092 1.845626 0.992255
v -0.343958 1.845626 2.033406
v -0.343966 1.727465 2.779323
v -0.386793 1.595449 2.967868
v 0.332208 1.727478 2.779323
v 0.332223 1.845626 2.033129
v 0.375040 1.595449 2.967868
v 0.912093 1.235189 -0.738388
v 0.912093 0.439996 -1.216105
v 0.912093 0.440000 2.191633
v 0.912093 1.235189 2.724876
v 1.109959 1.235189 2.724876
v 1.109959 1.595449 2.967868
v 1.109959 1.845626 2.032985
v 1.109959 1.235189 0.154129
v 1.109959 1.845626 1.713158
v 1.109959 1.845626 0.387246
v 0.912093 1.662918 -0.738388
v 1.109959 1.845626 0.154131
v -0.912000 0.938973 -2.751788
v -0.912000 1.218240 -2.910635
v -0.912000 1.476179 -1.650604
v -0.912000 1.087256 -3.208155
v -0.912000 1.130249 -3.340471
v 0.912093 0.938973 -2.751788
v 0.912093 1.087256 -3.208155
v 0.912093 1.130249 -3.340471
vn 1.0000 -0.0000 -0.0000
vn -1.0000 -0.0000 -0.0000
vn 0.9205 -0.3859 -0.0611
vn -0.9205 -0.3859 -0.0611
vn 0.9763 -0.0000 0.2164
vn -0.9763 -0.0000 0.2164
s 0
f 684//647 643//647 647//647
f 684//647 647//647 683//647
f 686//647 687//647 684//647
f 686//647 684//647 683//647
f 671//648 648//648 672//648
f 684//647 642//647 646//647
f 684//647 646//647 645//647
f 685//647 654//647 642//647
f 685//647 642//647 684//647
f 663//647 654//647 685//647
f 644//647 643//647 684//647
f 644//647 684//647 645//647
f 650//648 651//648 672//648
f 650//648 672//648 649//648
f 689//648 650//648 649//648
f 689//648 649//648 652//648
f 651//648 650//648 689//648
f 653//648 651//648 689//648
f 653//648 689//648 688//648
f 681//648 652//648 648//648
f 681//648 648//648 671//648
f 652//648 649//648 672//648
f 652//648 672//648 648//648
f 653//648 688//648 672//648
f 653//648 672//648 651//648
f 681//648 690//648 689//648
f 681//648 689//648 652//648
f 666//649 667//649 664//649
f 666//649 664//649 665//649
f 668//650 669//650 670//650
f 673//648 674//648 671//648
f 673//648 671//648 672//648
f 663//651 662//651 659//651
f 663//651 659//651 654//651
f 656//647 657//647 654//647
f 656//647 654//647 655//647
f 660//647 661//647 658//647
f 660//647 658//647 659//647
f 662//647 660//647 659//647
f 677//648 678//648 675//648
f 677//648 675//648 676//648
f 644//647 645//647 657//647
f 644//647 657//647 643//647
f 657//647 645//647 646//647
f 657//647 646//647 642//647
f 657//647 683//647 647//647
f 657//647 647//647 643//647
f 654//647 657//647 642//647
f 679//648 680//648 678//648
f 679//648 678//648 677//648
f 678//652 682//652 681//652
f 678//652 681//652 671//652
f 682//648 678//648 680//648
o Hull_havok_s_armor_6_10
v -0.912001 1.235189 2.724875
v -0.912001 1.235189 -0.428103
v -1.041078 1.235189 0.154130
v -1.041080 1.235189 2.724875
v 0.912093 0.440000 2.191633
v 0.912093 0.439996 -1.216105
v -0.912001 0.439996 -1.216105
v -0.912001 0.440000 2.191835
v 0.912093 1.235189 2.724875
v 1.109959 1.235189 2.724875
v 1.109959 1.235189 0.154129
v 0.912093 1.235189 -0.738389
vn -0.0000 1.0000 -0.0000
s 0
f 701//653 702//653 699//653
f 701//653 699//653 700//653
f 697//653 698//653 695//653
f 697//653 695//653 696//653
f 693//653 694//653 691//653
f 693//653 691//653 692//653
o Hull_havok_s_armor_4_11
v -0.386793 1.595449 2.967868
v -0.912000 1.235189 2.724875
v -1.041080 1.235189 2.724875
v -1.041080 1.595449 2.967868
v 0.912094 1.235189 2.724875
v 0.912094 0.440000 2.191633
v -0.912000 0.440000 2.191835
v 0.375039 1.595449 2.967868
v 1.109959 1.595449 2.967868
v 1.109959 1.235189 2.724875
vn -0.0000 0.5592 -0.8290
vn -0.0001 0.5570 -0.8305
vn -0.0000 0.5568 -0.8306
s 0
f 710//654 707//654 704//654
f 710//654 704//654 703//654
f 711//654 712//654 707//654
f 711//654 707//654 710//654
f 705//654 706//654 703//654
f 705//654 703//654 704//654
f 707//655 708//655 709//655
f 707//656 709//656 704//656
o Hull_havok_s_leftTrack_12
v -0.912001 0.624638 2.495840
v -0.912001 0.564907 2.450208
v -1.650000 0.564907 2.450208
v -1.650000 0.624638 2.495840
v -1.650000 0.689577 2.526262
v -0.912001 0.689577 2.526262
v -1.650000 0.764930 2.536402
v -0.912001 0.764930 2.536402
v -1.650000 0.837220 2.536402
v -0.912001 0.837220 2.536402
v -1.650000 0.488635 2.343732
v -0.912001 0.488635 2.343732
v -0.912001 0.529987 2.318380
v -1.650000 0.529987 2.318380
v -1.650000 1.058992 2.232185
v -1.650000 0.515284 2.206834
v -0.912001 1.058992 2.232185
v -0.912001 0.515284 2.206834
v -0.912001 0.966178 2.485700
v -0.912001 0.902465 2.516121
v -1.650000 0.902465 2.516121
v -1.650000 0.966178 2.485700
v -1.650000 1.021928 2.434997
v -1.650000 1.093911 2.308240
v -1.650000 1.068794 2.374153
v -0.912001 1.021928 2.434997
v -0.912001 1.068794 2.374153
v -0.912001 1.093911 2.308240
v -0.912001 1.108921 2.232185
v -1.650000 1.108921 2.232185
v -1.650000 1.030198 2.095288
v -1.650000 0.935853 1.988811
v -0.912001 0.935853 1.988811
v -0.912001 1.030198 2.095288
v -1.650000 0.801688 1.948249
v -0.912001 0.801688 1.948249
v -1.650000 0.663846 1.978671
v -1.650000 0.559087 2.069936
v -0.912001 0.663846 1.978671
v -0.912001 0.559087 2.069936
v -1.650000 1.115660 -2.285439
v -0.912001 1.115660 -2.285439
v -0.912001 1.065731 -2.285439
v -1.650000 1.065731 -2.285439
v -0.912001 1.105858 -2.407126
v -0.912001 0.705199 -2.087698
v -1.650000 0.705199 -2.087698
v -1.650000 0.823436 -2.072487
v -0.912001 0.823436 -2.072487
v -1.650000 0.566438 -2.473039
v -1.650000 1.021928 -2.194174
v -1.650000 0.936466 -2.107979
v -1.650000 1.063586 -2.508531
v -1.650000 1.105858 -2.407126
v -0.912001 1.021928 -2.194174
v -0.912001 0.566438 -2.473039
v -0.912001 0.936466 -2.107979
v -0.912001 1.063586 -2.508531
v -0.912001 0.605340 -2.153611
v -1.650000 0.605340 -2.153611
v -0.912001 0.517122 -2.305720
v -1.650000 0.517122 -2.305720
v -1.650000 0.988233 -2.584586
v -0.912001 0.988233 -2.584586
v -1.650000 0.896951 -2.635288
v -0.912001 0.896951 -2.635288
v -1.650000 0.781165 -2.650500
v -0.912001 0.781165 -2.650500
v -1.650000 0.683144 -2.630218
v -0.912001 0.683144 -2.630218
v -1.650000 0.597682 -2.579516
v -1.650000 0.530293 -2.503461
v -0.912001 0.597682 -2.579516
v -0.912001 0.530293 -2.503461
vn -1.0000 -0.0000 -0.0000
vn 1.0000 -0.0000 -0.0000
vn -0.0000 -0.9230 0.3848
vn -0.0000 -0.9968 0.0803
vn -0.0000 -0.9015 -0.4327
vn -0.0000 -0.7101 -0.7041
vn -0.0000 1.0000 0.0015
vn -0.0000 0.6569 0.7540
vn -0.0000 -1.0000 -0.0015
vn -0.0000 0.1276 -0.9918
vn -0.0000 0.2155 0.9765
vn -0.0000 0.5509 -0.8346
vn -0.0000 0.7485 0.6632
vn -0.0000 0.6439 -0.7651
vn -0.0000 0.5102 0.8600
vn -0.0000 0.9592 0.2827
vn -0.0000 -0.2996 -0.9541
vn -0.0000 0.8650 -0.5017
vn -0.0000 0.2026 0.9793
vn -0.0000 -0.1303 0.9915
vn -0.0000 -0.7104 0.7038
vn -0.0000 -0.4856 0.8742
vn -0.0000 0.9914 -0.1307
vn -0.0000 -0.2968 -0.9549
vn -0.0000 -0.4309 -0.9024
vn -0.0000 -0.0000 -1.0000
vn -0.0000 0.8129 -0.5823
vn -0.0000 0.1334 -0.9911
vn -0.0000 0.6071 -0.7946
vn -0.0000 0.4242 -0.9056
vn -0.0000 0.5227 0.8525
vn -0.0000 -0.2894 0.9572
vn -0.0000 0.9524 0.3047
vn -0.0000 -0.7922 -0.6102
vn -0.0000 -0.7485 0.6632
vn -0.0000 -0.9786 0.2058
vn -0.0000 -0.9811 -0.1936
vn -0.0000 -0.6728 -0.7398
vn -0.0000 -0.9345 -0.3561
s 0
f 768//657 769//657 767//657
f 768//657 767//657 755//657
f 761//657 769//657 768//657
f 761//657 768//657 758//657
f 765//658 766//658 753//658
f 765//658 753//658 756//658
f 762//658 764//658 760//658
f 762//658 760//658 759//658
f 756//658 762//658 765//658
f 766//659 765//659 770//659
f 766//659 770//659 757//659
f 766//660 757//660 754//660
f 766//660 754//660 753//660
f 767//661 763//661 756//661
f 767//661 756//661 755//661
f 757//657 770//657 768//657
f 757//657 768//657 755//657
f 763//662 767//662 769//662
f 763//662 769//662 764//662
f 727//658 756//658 753//658
f 727//658 753//658 736//658
f 742//658 736//658 753//658
f 729//663 755//663 756//663
f 729//663 756//663 727//663
f 750//664 752//664 751//664
f 750//664 751//664 749//664
f 753//665 754//665 741//665
f 753//665 741//665 742//665
f 760//666 761//666 758//666
f 760//666 758//666 759//666
f 763//658 764//658 762//658
f 763//658 762//658 756//658
f 749//667 751//667 748//667
f 749//667 748//667 747//667
f 757//657 755//657 729//657
f 757//657 729//657 741//657
f 754//657 757//657 741//657
f 771//668 772//668 759//668
f 771//668 759//668 758//668
f 784//669 786//669 785//669
f 784//669 785//669 783//669
f 768//670 786//670 784//670
f 768//670 784//670 762//670
f 784//658 783//658 762//658
f 775//658 765//658 777//658
f 783//658 781//658 779//658
f 783//658 779//658 777//658
f 780//657 782//657 785//657
f 780//657 785//657 778//657
f 786//657 768//657 785//657
f 776//657 778//657 770//657
f 781//671 783//671 785//671
f 781//671 785//671 782//671
f 778//657 785//657 768//657
f 778//657 768//657 770//657
f 772//658 774//658 762//658
f 772//658 762//658 759//658
f 768//657 773//657 771//657
f 768//657 771//657 758//657
f 774//672 773//672 768//672
f 774//672 768//672 762//672
f 764//673 769//673 761//673
f 764//673 761//673 760//673
f 773//674 774//674 772//674
f 773//674 772//674 771//674
f 781//675 782//675 780//675
f 781//675 780//675 779//675
f 762//658 783//658 777//658
f 762//658 777//658 765//658
f 777//676 779//676 780//676
f 777//676 780//676 778//676
f 775//677 776//677 770//677
f 775//677 770//677 765//677
f 777//678 778//678 776//678
f 777//678 776//678 775//678
f 725//679 730//679 728//679
f 725//679 728//679 726//679
f 720//657 722//657 718//657
f 724//657 714//657 725//657
f 713//657 718//657 714//657
f 726//658 728//658 727//658
f 726//658 727//658 715//658
f 718//657 722//657 729//657
f 718//657 729//657 714//657
f 727//658 735//658 733//658
f 727//658 733//658 721//658
f 736//658 737//658 735//658
f 736//658 735//658 727//658
f 721//680 733//680 732//680
f 721//680 732//680 722//680
f 729//657 730//657 725//657
f 729//657 725//657 714//657
f 733//681 734//681 731//681
f 733//681 731//681 732//681
f 721//682 722//682 720//682
f 721//682 720//682 719//682
f 714//683 724//683 723//683
f 714//683 723//683 715//683
f 719//684 720//684 718//684
f 719//684 718//684 717//684
f 715//685 716//685 713//685
f 715//685 713//685 714//685
f 716//686 717//686 718//686
f 716//686 718//686 713//686
f 719//658 717//658 721//658
f 723//658 726//658 715//658
f 716//658 715//658 717//658
f 725//687 726//687 723//687
f 725//687 723//687 724//687
f 727//658 721//658 717//658
f 727//658 717//658 715//658
f 734//658 733//658 735//658
f 743//658 727//658 744//658
f 747//658 744//658 749//658
f 750//658 727//658 728//658
f 747//688 748//688 745//688
f 747//688 745//688 744//688
f 727//658 750//658 749//658
f 727//658 749//658 744//658
f 746//657 730//657 729//657
f 730//689 752//689 750//689
f 730//689 750//689 728//689
f 748//657 751//657 745//657
f 745//657 751//657 730//657
f 745//657 730//657 746//657
f 752//657 730//657 751//657
f 731//657 738//657 732//657
f 739//690 738//690 735//690
f 739//690 735//690 737//690
f 739//657 740//657 741//657
f 739//657 741//657 729//657
f 732//657 738//657 729//657
f 732//657 729//657 722//657
f 738//657 739//657 729//657
f 745//691 746//691 743//691
f 745//691 743//691 744//691
f 743//692 746//692 729//692
f 743//692 729//692 727//692
f 742//693 741//693 740//693
f 742//693 740//693 736//693
f 734//694 735//694 738//694
f 734//694 738//694 731//694
f 736//695 740//695 739//695
f 736//695 739//695 737//695
o Hull_havok_s_rightTrack_13
v 1.650000 0.564907 2.450208
v 0.912093 0.564907 2.450208
v 0.912093 0.624638 2.495840
v 1.650000 0.624638 2.495840
v 0.912093 0.689577 2.526262
v 1.650000 0.689577 2.526262
v 0.912093 0.764930 2.536402
v 1.650000 0.764930 2.536402
v 1.650000 0.837220 2.536402
v 0.912093 0.837220 2.536402
v 1.650000 0.488635 2.343732
v 0.912093 0.488635 2.343732
v 1.650000 0.529987 2.318380
v 0.912093 0.529987 2.318380
v 0.912093 1.058992 2.232185
v 0.912093 0.515284 2.206834
v 1.650000 0.902465 2.516121
v 0.912093 0.902465 2.516121
v 0.912093 0.966178 2.485700
v 1.650000 0.966178 2.485700
v 0.912093 1.021928 2.434997
v 0.912093 1.093911 2.308240
v 0.912093 1.068794 2.374153
v 1.650000 1.021928 2.434997
v 1.650000 1.068794 2.374153
v 1.650000 1.093911 2.308240
v 1.650000 1.108921 2.232185
v 0.912093 1.108921 2.232185
v 1.650000 1.058992 2.232185
v 1.650000 0.515284 2.206834
v 0.912093 0.935853 1.988811
v 1.650000 0.935853 1.988811
v 1.650000 1.030198 2.095288
v 0.912093 1.030198 2.095288
v 0.912093 0.801688 1.948249
v 1.650000 0.801688 1.948249
v 1.650000 0.663846 1.978671
v 1.650000 0.559087 2.069936
v 0.912093 0.559087 2.069936
v 0.912093 0.663846 1.978671
v 1.650000 1.115660 -2.285439
v 0.912093 1.115660 -2.285439
v 1.650000 1.065731 -2.285439
v 0.912093 1.065731 -2.285439
v 1.650000 1.105858 -2.407126
v 1.650000 0.823436 -2.072487
v 1.650000 0.705199 -2.087698
v 0.912093 0.705199 -2.087698
v 0.912093 0.823436 -2.072487
v 0.912093 1.021928 -2.194174
v 0.912093 0.936466 -2.107979
v 0.912093 0.566438 -2.473039
v 0.912093 1.063586 -2.508531
v 0.912093 1.105858 -2.407126
v 1.650000 0.566438 -2.473039
v 1.650000 0.936466 -2.107979
v 1.650000 1.021928 -2.194174
v 1.650000 1.063586 -2.508531
v 1.650000 0.605340 -2.153611
v 0.912093 0.605340 -2.153611
v 1.650000 0.517122 -2.305720
v 0.912093 0.517122 -2.305720
v 0.912093 0.988233 -2.584586
v 1.650000 0.988233 -2.584586
v 1.650000 0.896951 -2.635288
v 0.912093 0.896951 -2.635288
v 0.912093 0.781165 -2.650500
v 1.650000 0.781165 -2.650500
v 1.650000 0.683144 -2.630218
v 0.912093 0.683144 -2.630218
v 1.650000 0.597682 -2.579516
v 1.650000 0.530293 -2.503461
v 0.912093 0.597682 -2.579516
v 0.912093 0.530293 -2.503461
vn -1.0000 -0.0000 -0.0000
vn 1.0000 -0.0000 -0.0000
vn -0.0000 -0.9230 0.3848
vn -0.0000 -0.9968 0.0803
vn -0.0000 -0.9015 -0.4327
vn -0.0000 -0.7101 -0.7041
vn -0.0000 1.0000 0.0015
vn -0.0000 0.6569 0.7540
vn -0.0000 -1.0000 -0.0015
vn -0.0000 0.1276 -0.9918
vn -0.0000 0.2155 0.9765
vn -0.0000 0.5509 -0.8346
vn -0.0000 0.7485 0.6632
vn -0.0000 0.6439 -0.7651
vn -0.0000 0.5102 0.8600
vn -0.0000 0.9592 0.2827
vn -0.0000 -0.2996 -0.9541
vn -0.0000 0.8650 -0.5017
vn -0.0000 0.2026 0.9793
vn -0.0000 -0.1303 0.9915
vn -0.0000 -0.7104 0.7038
vn -0.0000 -0.4856 0.8742
vn -0.0000 0.9914 -0.1307
vn -0.0000 -0.2968 -0.9549
vn -0.0000 -0.4309 -0.9024
vn -0.0000 -0.9345 -0.3561
vn -0.0000 -0.9811 -0.1936
vn -0.0000 -0.6728 -0.7398
vn -0.0000 -0.7922 -0.6102
vn -0.0000 -0.0000 -1.0000
vn -0.0000 0.8129 -0.5823
vn -0.0000 0.1334 -0.9911
vn -0.0000 0.6071 -0.7946
vn -0.0000 0.4242 -0.9056
vn -0.0000 0.5227 0.8525
vn -0.0000 -0.2894 0.9572
vn -0.0000 0.9524 0.3047
vn -0.0000 -0.7485 0.6632
vn -0.0000 -0.9786 0.2058
s 0
f 841//696 842//696 843//696
f 841//696 843//696 829//696
f 832//696 842//696 841//696
f 832//696 841//696 833//696
f 839//697 840//697 828//697
f 839//697 828//697 830//697
f 838//697 837//697 835//697
f 838//697 835//697 834//697
f 830//697 838//697 839//697
f 839//698 844//698 831//698
f 839//698 831//698 840//698
f 828//699 840//699 831//699
f 828//699 831//699 827//699
f 829//700 843//700 836//700
f 829//700 836//700 830//700
f 831//696 844//696 841//696
f 831//696 841//696 829//696
f 843//701 842//701 837//701
f 843//701 837//701 836//701
f 801//697 830//697 828//697
f 801//697 828//697 808//697
f 814//697 808//697 828//697
f 829//702 830//702 801//702
f 829//702 801//702 815//702
f 826//703 825//703 824//703
f 826//703 824//703 823//703
f 814//704 828//704 827//704
f 814//704 827//704 813//704
f 834//705 835//705 832//705
f 834//705 832//705 833//705
f 836//697 837//697 838//697
f 836//697 838//697 830//697
f 821//706 826//706 823//706
f 821//706 823//706 822//706
f 831//696 829//696 815//696
f 831//696 815//696 813//696
f 827//696 831//696 813//696
f 833//707 845//707 846//707
f 833//707 846//707 834//707
f 859//708 860//708 858//708
f 859//708 858//708 857//708
f 858//709 860//709 838//709
f 858//709 838//709 841//709
f 858//696 841//696 857//696
f 850//696 851//696 844//696
f 854//696 855//696 857//696
f 854//696 857//696 851//696
f 859//697 856//697 853//697
f 859//697 853//697 852//697
f 860//697 859//697 838//697
f 849//697 839//697 852//697
f 859//710 857//710 855//710
f 859//710 855//710 856//710
f 838//697 859//697 852//697
f 838//697 852//697 839//697
f 841//696 847//696 845//696
f 841//696 845//696 833//696
f 846//697 848//697 838//697
f 846//697 838//697 834//697
f 838//711 848//711 847//711
f 838//711 847//711 841//711
f 835//712 837//712 842//712
f 835//712 842//712 832//712
f 845//713 847//713 848//713
f 845//713 848//713 846//713
f 853//714 856//714 855//714
f 853//714 855//714 854//714
f 851//696 857//696 841//696
f 851//696 841//696 844//696
f 853//715 854//715 851//715
f 853//715 851//715 852//715
f 839//716 849//716 850//716
f 839//716 850//716 844//716
f 849//717 852//717 851//717
f 849//717 851//717 850//717
f 816//718 802//718 800//718
f 816//718 800//718 799//718
f 801//697 807//697 804//697
f 801//697 804//697 796//697
f 808//697 809//697 807//697
f 808//697 807//697 801//697
f 804//719 803//719 795//719
f 804//719 795//719 796//719
f 800//697 802//697 801//697
f 800//697 801//697 788//697
f 805//720 806//720 803//720
f 805//720 803//720 804//720
f 812//721 811//721 809//721
f 812//721 809//721 808//721
f 808//722 814//722 813//722
f 808//722 813//722 812//722
f 807//723 810//723 806//723
f 807//723 806//723 805//723
f 805//697 804//697 807//697
f 809//724 811//724 810//724
f 809//724 810//724 807//724
f 793//725 796//725 795//725
f 793//725 795//725 794//725
f 797//726 798//726 788//726
f 797//726 788//726 787//726
f 791//727 793//727 794//727
f 791//727 794//727 792//727
f 789//728 790//728 787//728
f 789//728 787//728 788//728
f 791//729 792//729 790//729
f 791//729 790//729 789//729
f 793//697 791//697 796//697
f 798//697 800//697 788//697
f 789//697 788//697 791//697
f 797//730 799//730 800//730
f 797//730 800//730 798//730
f 801//697 796//697 791//697
f 801//697 791//697 788//697
f 792//696 795//696 815//696
f 792//696 815//696 787//696
f 822//696 823//696 818//696
f 819//696 816//696 815//696
f 824//696 816//696 823//696
f 817//731 821//731 822//731
f 817//731 822//731 818//731
f 818//696 823//696 816//696
f 818//696 816//696 819//696
f 821//697 817//697 826//697
f 824//732 825//732 802//732
f 824//732 802//732 816//732
f 820//697 801//697 817//697
f 801//697 825//697 826//697
f 801//697 826//697 817//697
f 825//697 801//697 802//697
f 815//696 816//696 799//696
f 815//696 799//696 787//696
f 803//696 810//696 815//696
f 803//696 815//696 795//696
f 797//696 787//696 799//696
f 790//696 792//696 787//696
f 794//696 795//696 792//696
f 819//733 820//733 817//733
f 819//733 817//733 818//733
f 801//734 820//734 819//734
f 801//734 819//734 815//734
f 806//696 810//696 803//696
f 810//696 811//696 815//696
f 813//696 815//696 811//696
f 813//696 811//696 812//696
o Hull_havok_s_armor_12_14
v -0.667036 1.476180 -1.650604
v -0.912001 1.476180 -1.650603
v -0.912001 1.218239 -2.910635
v -0.667036 1.218239 -2.910635
vn -0.0000 -0.9797 0.2006
s 0
f 863//735 864//735 861//735
f 863//735 861//735 862//735
o Hull_havok_s_armor_13_15
v -0.912001 1.476180 -1.650603
v -1.327417 1.476180 -1.650604
v -1.327417 1.218239 -2.910635
v -0.912001 1.218239 -2.910635
vn -0.0000 -0.9797 0.2006
s 0
f 867//736 868//736 865//736
f 867//736 865//736 866//736
o Gun_02_havok_s_gun_0
v 0.084479 1.640470 1.390096
v -0.084566 1.640470 1.390096
v -0.084566 1.640470 -0.649501
v 0.084479 1.640470 -0.649501
v 0.084479 1.473792 1.390096
v 0.084479 1.473792 -0.649501
v -0.084566 1.473792 -0.649501
v -0.084566 1.473792 1.390096
v 0.077209 1.480961 -1.512407
v -0.077296 1.480961 -1.512407
v 0.077209 1.633138 -1.512407
v 0.169085 1.391838 1.594056
v -0.169172 1.391838 1.594056
v -0.169172 1.391838 2.590320
v 0.169085 1.391838 2.590320
v 0.169085 1.725357 2.590320
v -0.169172 1.725357 2.590320
v -0.169172 1.725357 1.594056
v 0.169085 1.725357 1.594056
v 0.077209 1.480798 -5.160148
v -0.077296 1.480798 -5.160148
v -0.077296 1.632975 -5.160148
v -0.077296 1.633138 -1.512407
v 0.077209 1.632975 -5.160148
v 0.086627 1.469067 -5.160148
v 0.086793 1.468741 -5.434708
v -0.086384 1.468741 -5.434708
v -0.086549 1.469067 -5.160148
v -0.086384 1.644543 -5.434708
v 0.086793 1.644543 -5.434708
v -0.086549 1.644869 -5.160148
v 0.086627 1.644869 -5.160148
vn -0.0000 1.0000 -0.0012
vn -0.0000 -0.0000 1.0000
vn 1.0000 -0.0000 0.0006
vn -1.0000 -0.0000 -0.0000
vn -0.0000 1.0000 -0.0000
vn 1.0000 -0.0000 -0.0000
vn -0.0000 -1.0000 -0.0000
vn -0.0000 -1.0000 0.0012
vn -1.0000 -0.0000 -0.0006
vn -0.0000 -1.0000 0.0085
vn 1.0000 -0.0000 0.0084
vn -0.0000 -0.0001 -1.0000
vn -0.0000 0.0001 -1.0000
vn -0.0000 -0.0000 -1.0000
vn -0.0000 1.0000 0.0083
vn -1.0000 -0.0000 0.0084
vn -0.0000 0.9279 0.3728
vn -0.9237 -0.0000 0.3832
vn 0.9237 -0.0000 0.3832
vn -0.0000 -0.9232 0.3842
s 0
f 895//737 896//737 893//737
f 895//737 893//737 894//737
f 894//738 898//738 897//738
f 894//738 897//738 895//738
f 897//739 899//739 896//739
f 897//739 896//739 895//739
f 879//740 892//740 888//740
f 879//740 888//740 877//740
f 888//741 889//741 878//741
f 888//741 878//741 877//741
f 889//742 890//742 891//742
f 889//742 891//742 878//742
f 890//743 892//743 879//743
f 890//743 879//743 891//743
f 900//744 899//744 897//744
f 900//744 897//744 898//744
f 893//745 900//745 898//745
f 893//745 898//745 894//745
f 891//746 879//746 872//746
f 891//746 872//746 871//746
f 878//747 891//747 871//747
f 878//747 871//747 875//747
f 899//748 900//748 892//748
f 899//749 892//749 890//749
f 888//749 893//749 896//749
f 888//750 896//750 889//750
f 896//750 899//750 890//750
f 896//750 890//750 889//750
f 892//750 900//750 893//750
f 892//750 893//750 888//750
f 877//751 878//751 875//751
f 877//751 875//751 874//751
f 872//752 879//752 877//752
f 872//752 877//752 874//752
f 882//741 883//741 880//741
f 882//741 880//741 881//741
f 874//741 875//741 876//741
f 874//741 876//741 873//741
f 871//743 872//743 869//743
f 871//743 869//743 870//743
f 872//740 874//740 873//740
f 872//740 873//740 869//740
f 870//742 876//742 875//742
f 870//742 875//742 871//742
f 882//750 885//750 884//750
f 882//750 884//750 883//750
f 881//753 880//753 873//753
f 881//753 873//753 876//753
f 880//754 887//754 869//754
f 880//754 869//754 873//754
f 870//755 886//755 881//755
f 870//755 881//755 876//755
f 887//756 886//756 870//756
f 887//756 870//756 869//756
f 881//742 886//742 885//742
f 881//742 885//742 882//742
f 883//740 884//740 887//740
f 883//740 887//740 880//740
f 886//743 887//743 884//743
f 886//743 884//743 885//743
